G04 #@! TF.GenerationSoftware,KiCad,Pcbnew,(5.0.2)-1*
G04 #@! TF.CreationDate,2019-11-13T22:38:42+09:00*
G04 #@! TF.ProjectId,Grass,47726173-732e-46b6-9963-61645f706362,rev?*
G04 #@! TF.SameCoordinates,Original*
G04 #@! TF.FileFunction,Paste,Top*
G04 #@! TF.FilePolarity,Positive*
%FSLAX46Y46*%
G04 Gerber Fmt 4.6, Leading zero omitted, Abs format (unit mm)*
G04 Created by KiCad (PCBNEW (5.0.2)-1) date 2019/11/13 22:38:42*
%MOMM*%
%LPD*%
G01*
G04 APERTURE LIST*
%ADD10R,0.800000X0.800000*%
%ADD11C,0.800000*%
%ADD12C,0.100000*%
G04 APERTURE END LIST*
D10*
G04 #@! TO.C,D1*
X115000000Y-147450000D03*
X115000000Y-149050000D03*
G04 #@! TD*
D11*
G04 #@! TO.C,D2*
X101434315Y-148565685D03*
D12*
G36*
X101434315Y-149131370D02*
X100868630Y-148565685D01*
X101434315Y-148000000D01*
X102000000Y-148565685D01*
X101434315Y-149131370D01*
X101434315Y-149131370D01*
G37*
D11*
X102565685Y-147434315D03*
D12*
G36*
X102565685Y-148000000D02*
X102000000Y-147434315D01*
X102565685Y-146868630D01*
X103131370Y-147434315D01*
X102565685Y-148000000D01*
X102565685Y-148000000D01*
G37*
G04 #@! TD*
D11*
G04 #@! TO.C,D3*
X102365685Y-128865685D03*
D12*
G36*
X101800000Y-128865685D02*
X102365685Y-128300000D01*
X102931370Y-128865685D01*
X102365685Y-129431370D01*
X101800000Y-128865685D01*
X101800000Y-128865685D01*
G37*
D11*
X101234315Y-127734315D03*
D12*
G36*
X100668630Y-127734315D02*
X101234315Y-127168630D01*
X101800000Y-127734315D01*
X101234315Y-128300000D01*
X100668630Y-127734315D01*
X100668630Y-127734315D01*
G37*
G04 #@! TD*
D10*
G04 #@! TO.C,D4*
X110000000Y-135950000D03*
X110000000Y-137550000D03*
G04 #@! TD*
G04 #@! TO.C,D5*
X120000000Y-129050000D03*
X120000000Y-127450000D03*
G04 #@! TD*
G04 #@! TO.C,D7*
X140000000Y-129050000D03*
X140000000Y-127450000D03*
G04 #@! TD*
G04 #@! TO.C,D8*
X150000000Y-135950000D03*
X150000000Y-137550000D03*
G04 #@! TD*
D11*
G04 #@! TO.C,D9*
X158765685Y-127734315D03*
D12*
G36*
X158765685Y-127168630D02*
X159331370Y-127734315D01*
X158765685Y-128300000D01*
X158200000Y-127734315D01*
X158765685Y-127168630D01*
X158765685Y-127168630D01*
G37*
D11*
X157634315Y-128865685D03*
D12*
G36*
X157634315Y-128300000D02*
X158200000Y-128865685D01*
X157634315Y-129431370D01*
X157068630Y-128865685D01*
X157634315Y-128300000D01*
X157634315Y-128300000D01*
G37*
G04 #@! TD*
D11*
G04 #@! TO.C,D10*
X157500000Y-147500000D03*
D12*
G36*
X158065685Y-147500000D02*
X157500000Y-148065685D01*
X156934315Y-147500000D01*
X157500000Y-146934315D01*
X158065685Y-147500000D01*
X158065685Y-147500000D01*
G37*
D11*
X158631370Y-148631370D03*
D12*
G36*
X159197055Y-148631370D02*
X158631370Y-149197055D01*
X158065685Y-148631370D01*
X158631370Y-148065685D01*
X159197055Y-148631370D01*
X159197055Y-148631370D01*
G37*
G04 #@! TD*
D10*
G04 #@! TO.C,D11*
X145000000Y-149050000D03*
X145000000Y-147450000D03*
G04 #@! TD*
G04 #@! TO.C,D6*
X130000000Y-135950000D03*
X130000000Y-137550000D03*
G04 #@! TD*
M02*
