M48
;DRILL file {KiCad (5.0.2)-1} date 2019/01/07 22:52:15
;FORMAT={-:-/ absolute / metric / decimal}
FMAT,2
METRIC,TZ
T1C0.400
%
G90
G05
T1
X100.75Y-127.25
X103.45Y-129.8
X103.5Y-146.5
X110.Y-138.9
X115.Y-146.1
X120.Y-130.4
X120.4Y-147.4
X121.75Y-130.4
X122.5Y-151.
X124.25Y-147.75
X125.Y-151.
X127.5Y-151.
X128.5Y-139.
X130.Y-139.
X130.Y-151.
X132.5Y-151.
X135.Y-151.
X137.5Y-151.
X138.25Y-130.5
X140.Y-130.5
X145.Y-146.2
X150.Y-139.
X156.6Y-146.6
X156.7Y-129.8
T0
M30
