G04 #@! TF.GenerationSoftware,KiCad,Pcbnew,(5.0.2)-1*
G04 #@! TF.CreationDate,2019-01-07T22:52:12+09:00*
G04 #@! TF.ProjectId,Grass,47726173-732e-46b6-9963-61645f706362,rev?*
G04 #@! TF.SameCoordinates,Original*
G04 #@! TF.FileFunction,Copper,L1,Top*
G04 #@! TF.FilePolarity,Positive*
%FSLAX46Y46*%
G04 Gerber Fmt 4.6, Leading zero omitted, Abs format (unit mm)*
G04 Created by KiCad (PCBNEW (5.0.2)-1) date 2019/01/07 22:52:12*
%MOMM*%
%LPD*%
G01*
G04 APERTURE LIST*
G04 #@! TA.AperFunction,SMDPad,CuDef*
%ADD10R,1.800000X3.400000*%
G04 #@! TD*
G04 #@! TA.AperFunction,SMDPad,CuDef*
%ADD11R,0.800000X0.800000*%
G04 #@! TD*
G04 #@! TA.AperFunction,SMDPad,CuDef*
%ADD12C,0.800000*%
G04 #@! TD*
G04 #@! TA.AperFunction,Conductor*
%ADD13C,0.100000*%
G04 #@! TD*
G04 #@! TA.AperFunction,ViaPad*
%ADD14C,0.800000*%
G04 #@! TD*
G04 #@! TA.AperFunction,Conductor*
%ADD15C,0.250000*%
G04 #@! TD*
G04 #@! TA.AperFunction,Conductor*
%ADD16C,0.254000*%
G04 #@! TD*
G04 APERTURE END LIST*
D10*
G04 #@! TO.P,TP4,1*
G04 #@! TO.N,GND*
X137500000Y-151000000D03*
G04 #@! TD*
G04 #@! TO.P,TP1,1*
G04 #@! TO.N,+5V*
X122500000Y-151000000D03*
G04 #@! TD*
G04 #@! TO.P,TP2,1*
G04 #@! TO.N,SCL*
X127500000Y-151000000D03*
G04 #@! TD*
G04 #@! TO.P,TP3,1*
G04 #@! TO.N,SDA*
X132500000Y-151000000D03*
G04 #@! TD*
D11*
G04 #@! TO.P,D1,2*
G04 #@! TO.N,Net-(D1-Pad2)*
X115000000Y-147450000D03*
G04 #@! TO.P,D1,1*
G04 #@! TO.N,Net-(D1-Pad1)*
X115000000Y-149050000D03*
G04 #@! TD*
D12*
G04 #@! TO.P,D2,1*
G04 #@! TO.N,Net-(D1-Pad1)*
X101434315Y-148565685D03*
D13*
G04 #@! TD*
G04 #@! TO.N,Net-(D1-Pad1)*
G04 #@! TO.C,D2*
G36*
X101434315Y-149131370D02*
X100868630Y-148565685D01*
X101434315Y-148000000D01*
X102000000Y-148565685D01*
X101434315Y-149131370D01*
X101434315Y-149131370D01*
G37*
D12*
G04 #@! TO.P,D2,2*
G04 #@! TO.N,Net-(D2-Pad2)*
X102565685Y-147434315D03*
D13*
G04 #@! TD*
G04 #@! TO.N,Net-(D2-Pad2)*
G04 #@! TO.C,D2*
G36*
X102565685Y-148000000D02*
X102000000Y-147434315D01*
X102565685Y-146868630D01*
X103131370Y-147434315D01*
X102565685Y-148000000D01*
X102565685Y-148000000D01*
G37*
D12*
G04 #@! TO.P,D3,2*
G04 #@! TO.N,Net-(D3-Pad2)*
X102365685Y-128865685D03*
D13*
G04 #@! TD*
G04 #@! TO.N,Net-(D3-Pad2)*
G04 #@! TO.C,D3*
G36*
X101800000Y-128865685D02*
X102365685Y-128300000D01*
X102931370Y-128865685D01*
X102365685Y-129431370D01*
X101800000Y-128865685D01*
X101800000Y-128865685D01*
G37*
D12*
G04 #@! TO.P,D3,1*
G04 #@! TO.N,Net-(D1-Pad1)*
X101234315Y-127734315D03*
D13*
G04 #@! TD*
G04 #@! TO.N,Net-(D1-Pad1)*
G04 #@! TO.C,D3*
G36*
X100668630Y-127734315D02*
X101234315Y-127168630D01*
X101800000Y-127734315D01*
X101234315Y-128300000D01*
X100668630Y-127734315D01*
X100668630Y-127734315D01*
G37*
D11*
G04 #@! TO.P,D4,1*
G04 #@! TO.N,Net-(D1-Pad1)*
X110000000Y-135950000D03*
G04 #@! TO.P,D4,2*
G04 #@! TO.N,Net-(D4-Pad2)*
X110000000Y-137550000D03*
G04 #@! TD*
G04 #@! TO.P,D5,2*
G04 #@! TO.N,Net-(D5-Pad2)*
X120000000Y-129050000D03*
G04 #@! TO.P,D5,1*
G04 #@! TO.N,Net-(D1-Pad1)*
X120000000Y-127450000D03*
G04 #@! TD*
G04 #@! TO.P,D7,2*
G04 #@! TO.N,Net-(D7-Pad2)*
X140000000Y-129050000D03*
G04 #@! TO.P,D7,1*
G04 #@! TO.N,Net-(D1-Pad1)*
X140000000Y-127450000D03*
G04 #@! TD*
G04 #@! TO.P,D8,1*
G04 #@! TO.N,Net-(D1-Pad1)*
X150000000Y-135950000D03*
G04 #@! TO.P,D8,2*
G04 #@! TO.N,Net-(D8-Pad2)*
X150000000Y-137550000D03*
G04 #@! TD*
D12*
G04 #@! TO.P,D9,1*
G04 #@! TO.N,Net-(D1-Pad1)*
X158765685Y-127734315D03*
D13*
G04 #@! TD*
G04 #@! TO.N,Net-(D1-Pad1)*
G04 #@! TO.C,D9*
G36*
X158765685Y-127168630D02*
X159331370Y-127734315D01*
X158765685Y-128300000D01*
X158200000Y-127734315D01*
X158765685Y-127168630D01*
X158765685Y-127168630D01*
G37*
D12*
G04 #@! TO.P,D9,2*
G04 #@! TO.N,Net-(D9-Pad2)*
X157634315Y-128865685D03*
D13*
G04 #@! TD*
G04 #@! TO.N,Net-(D9-Pad2)*
G04 #@! TO.C,D9*
G36*
X157634315Y-128300000D02*
X158200000Y-128865685D01*
X157634315Y-129431370D01*
X157068630Y-128865685D01*
X157634315Y-128300000D01*
X157634315Y-128300000D01*
G37*
D12*
G04 #@! TO.P,D10,2*
G04 #@! TO.N,Net-(D10-Pad2)*
X157500000Y-147500000D03*
D13*
G04 #@! TD*
G04 #@! TO.N,Net-(D10-Pad2)*
G04 #@! TO.C,D10*
G36*
X158065685Y-147500000D02*
X157500000Y-148065685D01*
X156934315Y-147500000D01*
X157500000Y-146934315D01*
X158065685Y-147500000D01*
X158065685Y-147500000D01*
G37*
D12*
G04 #@! TO.P,D10,1*
G04 #@! TO.N,Net-(D1-Pad1)*
X158631370Y-148631370D03*
D13*
G04 #@! TD*
G04 #@! TO.N,Net-(D1-Pad1)*
G04 #@! TO.C,D10*
G36*
X159197055Y-148631370D02*
X158631370Y-149197055D01*
X158065685Y-148631370D01*
X158631370Y-148065685D01*
X159197055Y-148631370D01*
X159197055Y-148631370D01*
G37*
D11*
G04 #@! TO.P,D11,1*
G04 #@! TO.N,Net-(D1-Pad1)*
X145000000Y-149050000D03*
G04 #@! TO.P,D11,2*
G04 #@! TO.N,Net-(D11-Pad2)*
X145000000Y-147450000D03*
G04 #@! TD*
G04 #@! TO.P,D6,1*
G04 #@! TO.N,Net-(D1-Pad1)*
X130000000Y-135950000D03*
G04 #@! TO.P,D6,2*
G04 #@! TO.N,Net-(D6-Pad2)*
X130000000Y-137550000D03*
G04 #@! TD*
D14*
G04 #@! TO.N,+5V*
X122500000Y-151000000D03*
G04 #@! TO.N,GND*
X137500000Y-151000000D03*
X121750000Y-130400000D03*
X138250000Y-130500000D03*
X120400000Y-147400000D03*
X130000000Y-151000000D03*
X125000000Y-151000000D03*
X135000000Y-151000000D03*
G04 #@! TO.N,Net-(D1-Pad1)*
X100750000Y-127250000D03*
X128500000Y-139000000D03*
G04 #@! TO.N,Net-(D1-Pad2)*
X115000000Y-146100000D03*
G04 #@! TO.N,Net-(D2-Pad2)*
X103500000Y-146500000D03*
G04 #@! TO.N,Net-(D3-Pad2)*
X103450000Y-129800000D03*
G04 #@! TO.N,Net-(D4-Pad2)*
X110000000Y-138900000D03*
G04 #@! TO.N,Net-(D5-Pad2)*
X120000000Y-130400000D03*
G04 #@! TO.N,Net-(D6-Pad2)*
X130000000Y-139000000D03*
G04 #@! TO.N,Net-(D7-Pad2)*
X140000000Y-130500000D03*
G04 #@! TO.N,Net-(D8-Pad2)*
X150000000Y-139000000D03*
G04 #@! TO.N,Net-(D9-Pad2)*
X156700000Y-129800000D03*
G04 #@! TO.N,Net-(D10-Pad2)*
X156600000Y-146600000D03*
G04 #@! TO.N,Net-(D11-Pad2)*
X145000000Y-146200000D03*
G04 #@! TO.N,SCL*
X127500000Y-151000000D03*
X124250000Y-147750000D03*
G04 #@! TO.N,SDA*
X132500000Y-151000000D03*
G04 #@! TD*
D15*
G04 #@! TO.N,GND*
X127250000Y-140000000D02*
X130500000Y-140000000D01*
X121750000Y-134500000D02*
X127250000Y-140000000D01*
X130500000Y-140000000D02*
X132750000Y-140000000D01*
X132750000Y-140000000D02*
X138250000Y-134500000D01*
X119000000Y-137250000D02*
X121750000Y-134500000D01*
X119000000Y-146200000D02*
X119000000Y-137250000D01*
X138250000Y-134500000D02*
X137500000Y-135250000D01*
X121750000Y-130965685D02*
X121750000Y-134500000D01*
X121750000Y-130400000D02*
X121750000Y-130965685D01*
X138250000Y-134500000D02*
X138250000Y-130500000D01*
X120200000Y-147400000D02*
X119000000Y-146200000D01*
X120400000Y-147400000D02*
X120200000Y-147400000D01*
X137500000Y-148000000D02*
X137500000Y-151000000D01*
X137500000Y-135250000D02*
X137500000Y-148000000D01*
X130000000Y-148000000D02*
X130000000Y-151000000D01*
X120965685Y-147400000D02*
X122065685Y-148500000D01*
X120400000Y-147400000D02*
X120965685Y-147400000D01*
X122065685Y-148500000D02*
X123500000Y-148500000D01*
X123500000Y-148500000D02*
X125000000Y-150000000D01*
X125000000Y-150000000D02*
X125000000Y-151000000D01*
X135000000Y-148000000D02*
X135000000Y-151000000D01*
X135000000Y-148000000D02*
X130000000Y-148000000D01*
X137500000Y-148000000D02*
X135000000Y-148000000D01*
G04 #@! TO.N,Net-(D1-Pad1)*
X121500000Y-127450000D02*
X130000000Y-135950000D01*
X157724999Y-130525001D02*
X155674999Y-130525001D01*
X159250000Y-129000000D02*
X157724999Y-130525001D01*
X159250000Y-148012740D02*
X159250000Y-129000000D01*
X100750000Y-128700000D02*
X100750000Y-129100000D01*
X100750000Y-128700000D02*
X100750000Y-128352945D01*
X100750000Y-147881370D02*
X100750000Y-128700000D01*
X100750000Y-129100000D02*
X102300000Y-130650000D01*
X102300000Y-130650000D02*
X104700000Y-130650000D01*
X104700000Y-130650000D02*
X109250000Y-135200000D01*
X109250000Y-135200000D02*
X110000000Y-135950000D01*
X130000000Y-136000000D02*
X130000000Y-135950000D01*
X128500000Y-137500000D02*
X130000000Y-136000000D01*
X118500000Y-127450000D02*
X110000000Y-135950000D01*
X120000000Y-127450000D02*
X120000000Y-126000000D01*
X120050000Y-126000000D02*
X121500000Y-127450000D01*
X120000000Y-126000000D02*
X120050000Y-126000000D01*
X119950000Y-126000000D02*
X118500000Y-127450000D01*
X120000000Y-126000000D02*
X119950000Y-126000000D01*
X140000000Y-126800000D02*
X140000000Y-127450000D01*
X140000000Y-126000000D02*
X140000000Y-126800000D01*
X130000000Y-135950000D02*
X130050000Y-135950000D01*
X130050000Y-135950000D02*
X140000000Y-126000000D01*
X140000000Y-126000000D02*
X150000000Y-136000000D01*
X155674999Y-130525001D02*
X155474999Y-130525001D01*
X155474999Y-130525001D02*
X153500000Y-132500000D01*
X153500000Y-132500000D02*
X150250000Y-135750000D01*
X150000000Y-136000000D02*
X150000000Y-136200000D01*
X150250000Y-135750000D02*
X150000000Y-136000000D01*
X159250000Y-127250000D02*
X158765685Y-127734315D01*
X159250000Y-129000000D02*
X159250000Y-127250000D01*
X100750000Y-128352945D02*
X100750000Y-127250000D01*
X100750000Y-147881370D02*
X100750000Y-149250000D01*
X100750000Y-149250000D02*
X101434315Y-148565685D01*
X159250000Y-149250000D02*
X159250000Y-148012740D01*
X159250000Y-149250000D02*
X158631370Y-148631370D01*
X114800000Y-149250000D02*
X115000000Y-149050000D01*
X100750000Y-149250000D02*
X114800000Y-149250000D01*
X145200000Y-149250000D02*
X145000000Y-149050000D01*
X159250000Y-149250000D02*
X145200000Y-149250000D01*
X101234315Y-127734315D02*
X100750000Y-127250000D01*
X128500000Y-139000000D02*
X128500000Y-137500000D01*
G04 #@! TO.N,Net-(D1-Pad2)*
X115000000Y-147450000D02*
X115000000Y-146100000D01*
G04 #@! TO.N,Net-(D2-Pad2)*
X102565685Y-147434315D02*
X103500000Y-146500000D01*
G04 #@! TO.N,Net-(D3-Pad2)*
X102500000Y-128865685D02*
X102515685Y-128865685D01*
X102515685Y-128865685D02*
X103450000Y-129800000D01*
G04 #@! TO.N,Net-(D4-Pad2)*
X110000000Y-137550000D02*
X110000000Y-138900000D01*
G04 #@! TO.N,Net-(D5-Pad2)*
X120000000Y-129050000D02*
X120000000Y-130400000D01*
G04 #@! TO.N,Net-(D6-Pad2)*
X130000000Y-137550000D02*
X130000000Y-139000000D01*
G04 #@! TO.N,Net-(D7-Pad2)*
X140000000Y-129050000D02*
X140000000Y-130500000D01*
G04 #@! TO.N,Net-(D8-Pad2)*
X150000000Y-139000000D02*
X150000000Y-137550000D01*
G04 #@! TO.N,Net-(D9-Pad2)*
X157634315Y-128865685D02*
X156700000Y-129800000D01*
G04 #@! TO.N,Net-(D10-Pad2)*
X157500000Y-147500000D02*
X156600000Y-146600000D01*
G04 #@! TO.N,Net-(D11-Pad2)*
X145000000Y-147450000D02*
X145000000Y-146200000D01*
G04 #@! TO.N,SCL*
X124250000Y-147750000D02*
X127500000Y-151000000D01*
G04 #@! TO.N,SDA*
X132000000Y-151000000D02*
X132000000Y-151000000D01*
G04 #@! TD*
D16*
G04 #@! TO.N,GND*
G36*
X121015527Y-128040329D02*
X121015530Y-128040331D01*
X128950198Y-135975000D01*
X128015528Y-136909671D01*
X127952072Y-136952071D01*
X127909672Y-137015527D01*
X127909671Y-137015528D01*
X127784097Y-137203463D01*
X127725112Y-137500000D01*
X127740001Y-137574851D01*
X127740000Y-138296289D01*
X127622569Y-138413720D01*
X127465000Y-138794126D01*
X127465000Y-139205874D01*
X127622569Y-139586280D01*
X127913720Y-139877431D01*
X128294126Y-140035000D01*
X128705874Y-140035000D01*
X129086280Y-139877431D01*
X129250000Y-139713711D01*
X129413720Y-139877431D01*
X129794126Y-140035000D01*
X130205874Y-140035000D01*
X130586280Y-139877431D01*
X130877431Y-139586280D01*
X131035000Y-139205874D01*
X131035000Y-138794126D01*
X130877431Y-138413720D01*
X130863301Y-138399590D01*
X130998157Y-138197765D01*
X131047440Y-137950000D01*
X131047440Y-137150000D01*
X130998157Y-136902235D01*
X130896436Y-136750000D01*
X130998157Y-136597765D01*
X131047440Y-136350000D01*
X131047440Y-136027361D01*
X138997727Y-128077074D01*
X139001843Y-128097765D01*
X139103564Y-128250000D01*
X139001843Y-128402235D01*
X138952560Y-128650000D01*
X138952560Y-129450000D01*
X139001843Y-129697765D01*
X139136699Y-129899590D01*
X139122569Y-129913720D01*
X138965000Y-130294126D01*
X138965000Y-130705874D01*
X139122569Y-131086280D01*
X139413720Y-131377431D01*
X139794126Y-131535000D01*
X140205874Y-131535000D01*
X140586280Y-131377431D01*
X140877431Y-131086280D01*
X141035000Y-130705874D01*
X141035000Y-130294126D01*
X140877431Y-129913720D01*
X140863301Y-129899590D01*
X140998157Y-129697765D01*
X141047440Y-129450000D01*
X141047440Y-128650000D01*
X140998157Y-128402235D01*
X140896436Y-128250000D01*
X140998157Y-128097765D01*
X141002273Y-128077074D01*
X148952560Y-136027362D01*
X148952560Y-136350000D01*
X149001843Y-136597765D01*
X149103564Y-136750000D01*
X149001843Y-136902235D01*
X148952560Y-137150000D01*
X148952560Y-137950000D01*
X149001843Y-138197765D01*
X149136699Y-138399590D01*
X149122569Y-138413720D01*
X148965000Y-138794126D01*
X148965000Y-139205874D01*
X149122569Y-139586280D01*
X149413720Y-139877431D01*
X149794126Y-140035000D01*
X150205874Y-140035000D01*
X150586280Y-139877431D01*
X150877431Y-139586280D01*
X151035000Y-139205874D01*
X151035000Y-138794126D01*
X150877431Y-138413720D01*
X150863301Y-138399590D01*
X150998157Y-138197765D01*
X151047440Y-137950000D01*
X151047440Y-137150000D01*
X150998157Y-136902235D01*
X150896436Y-136750000D01*
X150998157Y-136597765D01*
X151047440Y-136350000D01*
X151047440Y-136027361D01*
X154090329Y-132984473D01*
X154090331Y-132984470D01*
X155789802Y-131285001D01*
X157650152Y-131285001D01*
X157724999Y-131299889D01*
X157799846Y-131285001D01*
X157799851Y-131285001D01*
X158021536Y-131240905D01*
X158272928Y-131072930D01*
X158315330Y-131009471D01*
X158490001Y-130834800D01*
X158490000Y-147008697D01*
X157957809Y-146476506D01*
X157747765Y-146336158D01*
X157598708Y-146306509D01*
X157477431Y-146013720D01*
X157186280Y-145722569D01*
X156805874Y-145565000D01*
X156394126Y-145565000D01*
X156013720Y-145722569D01*
X155722569Y-146013720D01*
X155565000Y-146394126D01*
X155565000Y-146805874D01*
X155722569Y-147186280D01*
X156013720Y-147477431D01*
X156306509Y-147598708D01*
X156336158Y-147747765D01*
X156476506Y-147957809D01*
X157008697Y-148490000D01*
X146015614Y-148490000D01*
X145998157Y-148402235D01*
X145896436Y-148250000D01*
X145998157Y-148097765D01*
X146047440Y-147850000D01*
X146047440Y-147050000D01*
X145998157Y-146802235D01*
X145919551Y-146684593D01*
X146035000Y-146405874D01*
X146035000Y-145994126D01*
X145877431Y-145613720D01*
X145586280Y-145322569D01*
X145205874Y-145165000D01*
X144794126Y-145165000D01*
X144413720Y-145322569D01*
X144122569Y-145613720D01*
X143965000Y-145994126D01*
X143965000Y-146405874D01*
X144080449Y-146684593D01*
X144001843Y-146802235D01*
X143952560Y-147050000D01*
X143952560Y-147850000D01*
X144001843Y-148097765D01*
X144103564Y-148250000D01*
X144001843Y-148402235D01*
X143952560Y-148650000D01*
X143952560Y-149290000D01*
X140069925Y-149290000D01*
X140000000Y-149276091D01*
X139930074Y-149290000D01*
X139722972Y-149331195D01*
X139488119Y-149488119D01*
X139331195Y-149722972D01*
X139276091Y-150000000D01*
X139290000Y-150069925D01*
X139290001Y-152290000D01*
X139035000Y-152290000D01*
X139035000Y-151285750D01*
X138876250Y-151127000D01*
X137627000Y-151127000D01*
X137627000Y-151147000D01*
X137373000Y-151147000D01*
X137373000Y-151127000D01*
X136123750Y-151127000D01*
X135965000Y-151285750D01*
X135965000Y-152290000D01*
X134047440Y-152290000D01*
X134047440Y-149300000D01*
X134022316Y-149173691D01*
X135965000Y-149173691D01*
X135965000Y-150714250D01*
X136123750Y-150873000D01*
X137373000Y-150873000D01*
X137373000Y-148823750D01*
X137627000Y-148823750D01*
X137627000Y-150873000D01*
X138876250Y-150873000D01*
X139035000Y-150714250D01*
X139035000Y-149173691D01*
X138938327Y-148940302D01*
X138759699Y-148761673D01*
X138526310Y-148665000D01*
X137785750Y-148665000D01*
X137627000Y-148823750D01*
X137373000Y-148823750D01*
X137214250Y-148665000D01*
X136473690Y-148665000D01*
X136240301Y-148761673D01*
X136061673Y-148940302D01*
X135965000Y-149173691D01*
X134022316Y-149173691D01*
X133998157Y-149052235D01*
X133857809Y-148842191D01*
X133647765Y-148701843D01*
X133400000Y-148652560D01*
X131600000Y-148652560D01*
X131352235Y-148701843D01*
X131142191Y-148842191D01*
X131001843Y-149052235D01*
X130952560Y-149300000D01*
X130952560Y-152290000D01*
X129047440Y-152290000D01*
X129047440Y-149300000D01*
X128998157Y-149052235D01*
X128857809Y-148842191D01*
X128647765Y-148701843D01*
X128400000Y-148652560D01*
X126600000Y-148652560D01*
X126352235Y-148701843D01*
X126306922Y-148732120D01*
X125285000Y-147710199D01*
X125285000Y-147544126D01*
X125127431Y-147163720D01*
X124836280Y-146872569D01*
X124455874Y-146715000D01*
X124044126Y-146715000D01*
X123663720Y-146872569D01*
X123372569Y-147163720D01*
X123215000Y-147544126D01*
X123215000Y-147955874D01*
X123372569Y-148336280D01*
X123663720Y-148627431D01*
X124044126Y-148785000D01*
X124210199Y-148785000D01*
X125952560Y-150527362D01*
X125952560Y-152290000D01*
X124047440Y-152290000D01*
X124047440Y-149300000D01*
X123998157Y-149052235D01*
X123857809Y-148842191D01*
X123647765Y-148701843D01*
X123400000Y-148652560D01*
X121600000Y-148652560D01*
X121352235Y-148701843D01*
X121142191Y-148842191D01*
X121001843Y-149052235D01*
X120952560Y-149300000D01*
X120952560Y-152290000D01*
X120710000Y-152290000D01*
X120710000Y-150069925D01*
X120723909Y-150000000D01*
X120668805Y-149722972D01*
X120511881Y-149488119D01*
X120277028Y-149331195D01*
X120069926Y-149290000D01*
X120069925Y-149290000D01*
X120000000Y-149276091D01*
X119930074Y-149290000D01*
X116047440Y-149290000D01*
X116047440Y-148650000D01*
X115998157Y-148402235D01*
X115896436Y-148250000D01*
X115998157Y-148097765D01*
X116047440Y-147850000D01*
X116047440Y-147050000D01*
X115998157Y-146802235D01*
X115893981Y-146646325D01*
X116035000Y-146305874D01*
X116035000Y-145894126D01*
X115877431Y-145513720D01*
X115586280Y-145222569D01*
X115205874Y-145065000D01*
X114794126Y-145065000D01*
X114413720Y-145222569D01*
X114122569Y-145513720D01*
X113965000Y-145894126D01*
X113965000Y-146305874D01*
X114106019Y-146646325D01*
X114001843Y-146802235D01*
X113952560Y-147050000D01*
X113952560Y-147850000D01*
X114001843Y-148097765D01*
X114103564Y-148250000D01*
X114001843Y-148402235D01*
X113984386Y-148490000D01*
X102975317Y-148490000D01*
X103023494Y-148457809D01*
X103589179Y-147892124D01*
X103729527Y-147682080D01*
X103763533Y-147511117D01*
X104086280Y-147377431D01*
X104377431Y-147086280D01*
X104535000Y-146705874D01*
X104535000Y-146294126D01*
X104377431Y-145913720D01*
X104086280Y-145622569D01*
X103705874Y-145465000D01*
X103294126Y-145465000D01*
X102913720Y-145622569D01*
X102622569Y-145913720D01*
X102488883Y-146236467D01*
X102317920Y-146270473D01*
X102107876Y-146410821D01*
X101542191Y-146976506D01*
X101510000Y-147024683D01*
X101510000Y-130934802D01*
X101709670Y-131134472D01*
X101752071Y-131197929D01*
X102003463Y-131365904D01*
X102225148Y-131410000D01*
X102225152Y-131410000D01*
X102299999Y-131424888D01*
X102374846Y-131410000D01*
X104385199Y-131410000D01*
X108765527Y-135790329D01*
X108765530Y-135790331D01*
X108952560Y-135977361D01*
X108952560Y-136350000D01*
X109001843Y-136597765D01*
X109103564Y-136750000D01*
X109001843Y-136902235D01*
X108952560Y-137150000D01*
X108952560Y-137950000D01*
X109001843Y-138197765D01*
X109106019Y-138353675D01*
X108965000Y-138694126D01*
X108965000Y-139105874D01*
X109122569Y-139486280D01*
X109413720Y-139777431D01*
X109794126Y-139935000D01*
X110205874Y-139935000D01*
X110586280Y-139777431D01*
X110877431Y-139486280D01*
X111035000Y-139105874D01*
X111035000Y-138694126D01*
X110893981Y-138353675D01*
X110998157Y-138197765D01*
X111047440Y-137950000D01*
X111047440Y-137150000D01*
X110998157Y-136902235D01*
X110896436Y-136750000D01*
X110998157Y-136597765D01*
X111047440Y-136350000D01*
X111047440Y-135977361D01*
X118989432Y-128035370D01*
X119001843Y-128097765D01*
X119103564Y-128250000D01*
X119001843Y-128402235D01*
X118952560Y-128650000D01*
X118952560Y-129450000D01*
X119001843Y-129697765D01*
X119106019Y-129853675D01*
X118965000Y-130194126D01*
X118965000Y-130605874D01*
X119122569Y-130986280D01*
X119413720Y-131277431D01*
X119794126Y-131435000D01*
X120205874Y-131435000D01*
X120586280Y-131277431D01*
X120877431Y-130986280D01*
X121035000Y-130605874D01*
X121035000Y-130194126D01*
X120893981Y-129853675D01*
X120998157Y-129697765D01*
X121047440Y-129450000D01*
X121047440Y-128650000D01*
X120998157Y-128402235D01*
X120896436Y-128250000D01*
X120998157Y-128097765D01*
X121010568Y-128035370D01*
X121015527Y-128040329D01*
X121015527Y-128040329D01*
G37*
X121015527Y-128040329D02*
X121015530Y-128040331D01*
X128950198Y-135975000D01*
X128015528Y-136909671D01*
X127952072Y-136952071D01*
X127909672Y-137015527D01*
X127909671Y-137015528D01*
X127784097Y-137203463D01*
X127725112Y-137500000D01*
X127740001Y-137574851D01*
X127740000Y-138296289D01*
X127622569Y-138413720D01*
X127465000Y-138794126D01*
X127465000Y-139205874D01*
X127622569Y-139586280D01*
X127913720Y-139877431D01*
X128294126Y-140035000D01*
X128705874Y-140035000D01*
X129086280Y-139877431D01*
X129250000Y-139713711D01*
X129413720Y-139877431D01*
X129794126Y-140035000D01*
X130205874Y-140035000D01*
X130586280Y-139877431D01*
X130877431Y-139586280D01*
X131035000Y-139205874D01*
X131035000Y-138794126D01*
X130877431Y-138413720D01*
X130863301Y-138399590D01*
X130998157Y-138197765D01*
X131047440Y-137950000D01*
X131047440Y-137150000D01*
X130998157Y-136902235D01*
X130896436Y-136750000D01*
X130998157Y-136597765D01*
X131047440Y-136350000D01*
X131047440Y-136027361D01*
X138997727Y-128077074D01*
X139001843Y-128097765D01*
X139103564Y-128250000D01*
X139001843Y-128402235D01*
X138952560Y-128650000D01*
X138952560Y-129450000D01*
X139001843Y-129697765D01*
X139136699Y-129899590D01*
X139122569Y-129913720D01*
X138965000Y-130294126D01*
X138965000Y-130705874D01*
X139122569Y-131086280D01*
X139413720Y-131377431D01*
X139794126Y-131535000D01*
X140205874Y-131535000D01*
X140586280Y-131377431D01*
X140877431Y-131086280D01*
X141035000Y-130705874D01*
X141035000Y-130294126D01*
X140877431Y-129913720D01*
X140863301Y-129899590D01*
X140998157Y-129697765D01*
X141047440Y-129450000D01*
X141047440Y-128650000D01*
X140998157Y-128402235D01*
X140896436Y-128250000D01*
X140998157Y-128097765D01*
X141002273Y-128077074D01*
X148952560Y-136027362D01*
X148952560Y-136350000D01*
X149001843Y-136597765D01*
X149103564Y-136750000D01*
X149001843Y-136902235D01*
X148952560Y-137150000D01*
X148952560Y-137950000D01*
X149001843Y-138197765D01*
X149136699Y-138399590D01*
X149122569Y-138413720D01*
X148965000Y-138794126D01*
X148965000Y-139205874D01*
X149122569Y-139586280D01*
X149413720Y-139877431D01*
X149794126Y-140035000D01*
X150205874Y-140035000D01*
X150586280Y-139877431D01*
X150877431Y-139586280D01*
X151035000Y-139205874D01*
X151035000Y-138794126D01*
X150877431Y-138413720D01*
X150863301Y-138399590D01*
X150998157Y-138197765D01*
X151047440Y-137950000D01*
X151047440Y-137150000D01*
X150998157Y-136902235D01*
X150896436Y-136750000D01*
X150998157Y-136597765D01*
X151047440Y-136350000D01*
X151047440Y-136027361D01*
X154090329Y-132984473D01*
X154090331Y-132984470D01*
X155789802Y-131285001D01*
X157650152Y-131285001D01*
X157724999Y-131299889D01*
X157799846Y-131285001D01*
X157799851Y-131285001D01*
X158021536Y-131240905D01*
X158272928Y-131072930D01*
X158315330Y-131009471D01*
X158490001Y-130834800D01*
X158490000Y-147008697D01*
X157957809Y-146476506D01*
X157747765Y-146336158D01*
X157598708Y-146306509D01*
X157477431Y-146013720D01*
X157186280Y-145722569D01*
X156805874Y-145565000D01*
X156394126Y-145565000D01*
X156013720Y-145722569D01*
X155722569Y-146013720D01*
X155565000Y-146394126D01*
X155565000Y-146805874D01*
X155722569Y-147186280D01*
X156013720Y-147477431D01*
X156306509Y-147598708D01*
X156336158Y-147747765D01*
X156476506Y-147957809D01*
X157008697Y-148490000D01*
X146015614Y-148490000D01*
X145998157Y-148402235D01*
X145896436Y-148250000D01*
X145998157Y-148097765D01*
X146047440Y-147850000D01*
X146047440Y-147050000D01*
X145998157Y-146802235D01*
X145919551Y-146684593D01*
X146035000Y-146405874D01*
X146035000Y-145994126D01*
X145877431Y-145613720D01*
X145586280Y-145322569D01*
X145205874Y-145165000D01*
X144794126Y-145165000D01*
X144413720Y-145322569D01*
X144122569Y-145613720D01*
X143965000Y-145994126D01*
X143965000Y-146405874D01*
X144080449Y-146684593D01*
X144001843Y-146802235D01*
X143952560Y-147050000D01*
X143952560Y-147850000D01*
X144001843Y-148097765D01*
X144103564Y-148250000D01*
X144001843Y-148402235D01*
X143952560Y-148650000D01*
X143952560Y-149290000D01*
X140069925Y-149290000D01*
X140000000Y-149276091D01*
X139930074Y-149290000D01*
X139722972Y-149331195D01*
X139488119Y-149488119D01*
X139331195Y-149722972D01*
X139276091Y-150000000D01*
X139290000Y-150069925D01*
X139290001Y-152290000D01*
X139035000Y-152290000D01*
X139035000Y-151285750D01*
X138876250Y-151127000D01*
X137627000Y-151127000D01*
X137627000Y-151147000D01*
X137373000Y-151147000D01*
X137373000Y-151127000D01*
X136123750Y-151127000D01*
X135965000Y-151285750D01*
X135965000Y-152290000D01*
X134047440Y-152290000D01*
X134047440Y-149300000D01*
X134022316Y-149173691D01*
X135965000Y-149173691D01*
X135965000Y-150714250D01*
X136123750Y-150873000D01*
X137373000Y-150873000D01*
X137373000Y-148823750D01*
X137627000Y-148823750D01*
X137627000Y-150873000D01*
X138876250Y-150873000D01*
X139035000Y-150714250D01*
X139035000Y-149173691D01*
X138938327Y-148940302D01*
X138759699Y-148761673D01*
X138526310Y-148665000D01*
X137785750Y-148665000D01*
X137627000Y-148823750D01*
X137373000Y-148823750D01*
X137214250Y-148665000D01*
X136473690Y-148665000D01*
X136240301Y-148761673D01*
X136061673Y-148940302D01*
X135965000Y-149173691D01*
X134022316Y-149173691D01*
X133998157Y-149052235D01*
X133857809Y-148842191D01*
X133647765Y-148701843D01*
X133400000Y-148652560D01*
X131600000Y-148652560D01*
X131352235Y-148701843D01*
X131142191Y-148842191D01*
X131001843Y-149052235D01*
X130952560Y-149300000D01*
X130952560Y-152290000D01*
X129047440Y-152290000D01*
X129047440Y-149300000D01*
X128998157Y-149052235D01*
X128857809Y-148842191D01*
X128647765Y-148701843D01*
X128400000Y-148652560D01*
X126600000Y-148652560D01*
X126352235Y-148701843D01*
X126306922Y-148732120D01*
X125285000Y-147710199D01*
X125285000Y-147544126D01*
X125127431Y-147163720D01*
X124836280Y-146872569D01*
X124455874Y-146715000D01*
X124044126Y-146715000D01*
X123663720Y-146872569D01*
X123372569Y-147163720D01*
X123215000Y-147544126D01*
X123215000Y-147955874D01*
X123372569Y-148336280D01*
X123663720Y-148627431D01*
X124044126Y-148785000D01*
X124210199Y-148785000D01*
X125952560Y-150527362D01*
X125952560Y-152290000D01*
X124047440Y-152290000D01*
X124047440Y-149300000D01*
X123998157Y-149052235D01*
X123857809Y-148842191D01*
X123647765Y-148701843D01*
X123400000Y-148652560D01*
X121600000Y-148652560D01*
X121352235Y-148701843D01*
X121142191Y-148842191D01*
X121001843Y-149052235D01*
X120952560Y-149300000D01*
X120952560Y-152290000D01*
X120710000Y-152290000D01*
X120710000Y-150069925D01*
X120723909Y-150000000D01*
X120668805Y-149722972D01*
X120511881Y-149488119D01*
X120277028Y-149331195D01*
X120069926Y-149290000D01*
X120069925Y-149290000D01*
X120000000Y-149276091D01*
X119930074Y-149290000D01*
X116047440Y-149290000D01*
X116047440Y-148650000D01*
X115998157Y-148402235D01*
X115896436Y-148250000D01*
X115998157Y-148097765D01*
X116047440Y-147850000D01*
X116047440Y-147050000D01*
X115998157Y-146802235D01*
X115893981Y-146646325D01*
X116035000Y-146305874D01*
X116035000Y-145894126D01*
X115877431Y-145513720D01*
X115586280Y-145222569D01*
X115205874Y-145065000D01*
X114794126Y-145065000D01*
X114413720Y-145222569D01*
X114122569Y-145513720D01*
X113965000Y-145894126D01*
X113965000Y-146305874D01*
X114106019Y-146646325D01*
X114001843Y-146802235D01*
X113952560Y-147050000D01*
X113952560Y-147850000D01*
X114001843Y-148097765D01*
X114103564Y-148250000D01*
X114001843Y-148402235D01*
X113984386Y-148490000D01*
X102975317Y-148490000D01*
X103023494Y-148457809D01*
X103589179Y-147892124D01*
X103729527Y-147682080D01*
X103763533Y-147511117D01*
X104086280Y-147377431D01*
X104377431Y-147086280D01*
X104535000Y-146705874D01*
X104535000Y-146294126D01*
X104377431Y-145913720D01*
X104086280Y-145622569D01*
X103705874Y-145465000D01*
X103294126Y-145465000D01*
X102913720Y-145622569D01*
X102622569Y-145913720D01*
X102488883Y-146236467D01*
X102317920Y-146270473D01*
X102107876Y-146410821D01*
X101542191Y-146976506D01*
X101510000Y-147024683D01*
X101510000Y-130934802D01*
X101709670Y-131134472D01*
X101752071Y-131197929D01*
X102003463Y-131365904D01*
X102225148Y-131410000D01*
X102225152Y-131410000D01*
X102299999Y-131424888D01*
X102374846Y-131410000D01*
X104385199Y-131410000D01*
X108765527Y-135790329D01*
X108765530Y-135790331D01*
X108952560Y-135977361D01*
X108952560Y-136350000D01*
X109001843Y-136597765D01*
X109103564Y-136750000D01*
X109001843Y-136902235D01*
X108952560Y-137150000D01*
X108952560Y-137950000D01*
X109001843Y-138197765D01*
X109106019Y-138353675D01*
X108965000Y-138694126D01*
X108965000Y-139105874D01*
X109122569Y-139486280D01*
X109413720Y-139777431D01*
X109794126Y-139935000D01*
X110205874Y-139935000D01*
X110586280Y-139777431D01*
X110877431Y-139486280D01*
X111035000Y-139105874D01*
X111035000Y-138694126D01*
X110893981Y-138353675D01*
X110998157Y-138197765D01*
X111047440Y-137950000D01*
X111047440Y-137150000D01*
X110998157Y-136902235D01*
X110896436Y-136750000D01*
X110998157Y-136597765D01*
X111047440Y-136350000D01*
X111047440Y-135977361D01*
X118989432Y-128035370D01*
X119001843Y-128097765D01*
X119103564Y-128250000D01*
X119001843Y-128402235D01*
X118952560Y-128650000D01*
X118952560Y-129450000D01*
X119001843Y-129697765D01*
X119106019Y-129853675D01*
X118965000Y-130194126D01*
X118965000Y-130605874D01*
X119122569Y-130986280D01*
X119413720Y-131277431D01*
X119794126Y-131435000D01*
X120205874Y-131435000D01*
X120586280Y-131277431D01*
X120877431Y-130986280D01*
X121035000Y-130605874D01*
X121035000Y-130194126D01*
X120893981Y-129853675D01*
X120998157Y-129697765D01*
X121047440Y-129450000D01*
X121047440Y-128650000D01*
X120998157Y-128402235D01*
X120896436Y-128250000D01*
X120998157Y-128097765D01*
X121010568Y-128035370D01*
X121015527Y-128040329D01*
G04 #@! TD*
M02*
