G04 #@! TF.GenerationSoftware,KiCad,Pcbnew,(5.0.2)-1*
G04 #@! TF.CreationDate,2019-11-13T22:38:42+09:00*
G04 #@! TF.ProjectId,Grass,47726173-732e-46b6-9963-61645f706362,rev?*
G04 #@! TF.SameCoordinates,Original*
G04 #@! TF.FileFunction,Soldermask,Top*
G04 #@! TF.FilePolarity,Negative*
%FSLAX46Y46*%
G04 Gerber Fmt 4.6, Leading zero omitted, Abs format (unit mm)*
G04 Created by KiCad (PCBNEW (5.0.2)-1) date 2019/11/13 22:38:42*
%MOMM*%
%LPD*%
G01*
G04 APERTURE LIST*
%ADD10C,0.150000*%
%ADD11C,0.100000*%
G04 APERTURE END LIST*
D10*
G36*
X122500000Y-150000000D02*
X137500000Y-150000000D01*
X137500000Y-160500000D01*
X122500000Y-160500000D01*
X122500000Y-150000000D01*
G37*
X122500000Y-150000000D02*
X137500000Y-150000000D01*
X137500000Y-160500000D01*
X122500000Y-160500000D01*
X122500000Y-150000000D01*
D11*
G36*
X135866000Y-160496000D02*
X134294000Y-160496000D01*
X134294000Y-151504000D01*
X135866000Y-151504000D01*
X135866000Y-160496000D01*
X135866000Y-160496000D01*
G37*
G36*
X130786000Y-160496000D02*
X129214000Y-160496000D01*
X129214000Y-151504000D01*
X130786000Y-151504000D01*
X130786000Y-160496000D01*
X130786000Y-160496000D01*
G37*
G36*
X128246000Y-160496000D02*
X126674000Y-160496000D01*
X126674000Y-151504000D01*
X128246000Y-151504000D01*
X128246000Y-160496000D01*
X128246000Y-160496000D01*
G37*
G36*
X125706000Y-160496000D02*
X124134000Y-160496000D01*
X124134000Y-151504000D01*
X125706000Y-151504000D01*
X125706000Y-160496000D01*
X125706000Y-160496000D01*
G37*
G36*
X133326000Y-160496000D02*
X131754000Y-160496000D01*
X131754000Y-151504000D01*
X133326000Y-151504000D01*
X133326000Y-160496000D01*
X133326000Y-160496000D01*
G37*
G36*
X115451000Y-149501000D02*
X114549000Y-149501000D01*
X114549000Y-148599000D01*
X115451000Y-148599000D01*
X115451000Y-149501000D01*
X115451000Y-149501000D01*
G37*
G36*
X145451000Y-149501000D02*
X144549000Y-149501000D01*
X144549000Y-148599000D01*
X145451000Y-148599000D01*
X145451000Y-149501000D01*
X145451000Y-149501000D01*
G37*
G36*
X159269181Y-148631370D02*
X158631370Y-149269181D01*
X157993559Y-148631370D01*
X158631370Y-147993559D01*
X159269181Y-148631370D01*
X159269181Y-148631370D01*
G37*
G36*
X102072126Y-148565685D02*
X101434315Y-149203496D01*
X100796504Y-148565685D01*
X101434315Y-147927874D01*
X102072126Y-148565685D01*
X102072126Y-148565685D01*
G37*
G36*
X158137811Y-147500000D02*
X157500000Y-148137811D01*
X156862189Y-147500000D01*
X157500000Y-146862189D01*
X158137811Y-147500000D01*
X158137811Y-147500000D01*
G37*
G36*
X103203496Y-147434315D02*
X102565685Y-148072126D01*
X101927874Y-147434315D01*
X102565685Y-146796504D01*
X103203496Y-147434315D01*
X103203496Y-147434315D01*
G37*
G36*
X145451000Y-147901000D02*
X144549000Y-147901000D01*
X144549000Y-146999000D01*
X145451000Y-146999000D01*
X145451000Y-147901000D01*
X145451000Y-147901000D01*
G37*
G36*
X115451000Y-147901000D02*
X114549000Y-147901000D01*
X114549000Y-146999000D01*
X115451000Y-146999000D01*
X115451000Y-147901000D01*
X115451000Y-147901000D01*
G37*
G36*
X110451000Y-138001000D02*
X109549000Y-138001000D01*
X109549000Y-137099000D01*
X110451000Y-137099000D01*
X110451000Y-138001000D01*
X110451000Y-138001000D01*
G37*
G36*
X150451000Y-138001000D02*
X149549000Y-138001000D01*
X149549000Y-137099000D01*
X150451000Y-137099000D01*
X150451000Y-138001000D01*
X150451000Y-138001000D01*
G37*
G36*
X130451000Y-138001000D02*
X129549000Y-138001000D01*
X129549000Y-137099000D01*
X130451000Y-137099000D01*
X130451000Y-138001000D01*
X130451000Y-138001000D01*
G37*
G36*
X150451000Y-136401000D02*
X149549000Y-136401000D01*
X149549000Y-135499000D01*
X150451000Y-135499000D01*
X150451000Y-136401000D01*
X150451000Y-136401000D01*
G37*
G36*
X110451000Y-136401000D02*
X109549000Y-136401000D01*
X109549000Y-135499000D01*
X110451000Y-135499000D01*
X110451000Y-136401000D01*
X110451000Y-136401000D01*
G37*
G36*
X130451000Y-136401000D02*
X129549000Y-136401000D01*
X129549000Y-135499000D01*
X130451000Y-135499000D01*
X130451000Y-136401000D01*
X130451000Y-136401000D01*
G37*
G36*
X103003496Y-128865685D02*
X102365685Y-129503496D01*
X101727874Y-128865685D01*
X102365685Y-128227874D01*
X103003496Y-128865685D01*
X103003496Y-128865685D01*
G37*
G36*
X158272126Y-128865685D02*
X157634315Y-129503496D01*
X156996504Y-128865685D01*
X157634315Y-128227874D01*
X158272126Y-128865685D01*
X158272126Y-128865685D01*
G37*
G36*
X120451000Y-129501000D02*
X119549000Y-129501000D01*
X119549000Y-128599000D01*
X120451000Y-128599000D01*
X120451000Y-129501000D01*
X120451000Y-129501000D01*
G37*
G36*
X140451000Y-129501000D02*
X139549000Y-129501000D01*
X139549000Y-128599000D01*
X140451000Y-128599000D01*
X140451000Y-129501000D01*
X140451000Y-129501000D01*
G37*
G36*
X159403496Y-127734315D02*
X158765685Y-128372126D01*
X158127874Y-127734315D01*
X158765685Y-127096504D01*
X159403496Y-127734315D01*
X159403496Y-127734315D01*
G37*
G36*
X101872126Y-127734315D02*
X101234315Y-128372126D01*
X100596504Y-127734315D01*
X101234315Y-127096504D01*
X101872126Y-127734315D01*
X101872126Y-127734315D01*
G37*
G36*
X140451000Y-127901000D02*
X139549000Y-127901000D01*
X139549000Y-126999000D01*
X140451000Y-126999000D01*
X140451000Y-127901000D01*
X140451000Y-127901000D01*
G37*
G36*
X120451000Y-127901000D02*
X119549000Y-127901000D01*
X119549000Y-126999000D01*
X120451000Y-126999000D01*
X120451000Y-127901000D01*
X120451000Y-127901000D01*
G37*
M02*
