G04 #@! TF.GenerationSoftware,KiCad,Pcbnew,(5.0.2)-1*
G04 #@! TF.CreationDate,2019-01-07T22:52:12+09:00*
G04 #@! TF.ProjectId,Grass,47726173-732e-46b6-9963-61645f706362,rev?*
G04 #@! TF.SameCoordinates,Original*
G04 #@! TF.FileFunction,Copper,L2,Bot*
G04 #@! TF.FilePolarity,Positive*
%FSLAX46Y46*%
G04 Gerber Fmt 4.6, Leading zero omitted, Abs format (unit mm)*
G04 Created by KiCad (PCBNEW (5.0.2)-1) date 2019/01/07 22:52:12*
%MOMM*%
%LPD*%
G01*
G04 APERTURE LIST*
G04 #@! TA.AperFunction,SMDPad,CuDef*
%ADD10R,0.800000X0.800000*%
G04 #@! TD*
G04 #@! TA.AperFunction,SMDPad,CuDef*
%ADD11C,0.500000*%
G04 #@! TD*
G04 #@! TA.AperFunction,Conductor*
%ADD12C,0.100000*%
G04 #@! TD*
G04 #@! TA.AperFunction,SMDPad,CuDef*
%ADD13R,0.600000X2.000000*%
G04 #@! TD*
G04 #@! TA.AperFunction,SMDPad,CuDef*
%ADD14R,1.800000X3.400000*%
G04 #@! TD*
G04 #@! TA.AperFunction,ViaPad*
%ADD15C,0.800000*%
G04 #@! TD*
G04 #@! TA.AperFunction,Conductor*
%ADD16C,0.250000*%
G04 #@! TD*
G04 #@! TA.AperFunction,Conductor*
%ADD17C,0.500000*%
G04 #@! TD*
G04 #@! TA.AperFunction,Conductor*
%ADD18C,0.254000*%
G04 #@! TD*
G04 APERTURE END LIST*
D10*
G04 #@! TO.P,C1,1*
G04 #@! TO.N,+5V*
X119000000Y-149050000D03*
G04 #@! TO.P,C1,2*
G04 #@! TO.N,GND*
X119000000Y-147450000D03*
G04 #@! TD*
D11*
G04 #@! TO.P,JP1,1*
G04 #@! TO.N,Net-(JP1-Pad1)*
X117850000Y-144000000D03*
D12*
G04 #@! TD*
G04 #@! TO.N,Net-(JP1-Pad1)*
G04 #@! TO.C,JP1*
G36*
X118350000Y-144750000D02*
X117850000Y-144750000D01*
X117850000Y-144749398D01*
X117825466Y-144749398D01*
X117776635Y-144744588D01*
X117728510Y-144735016D01*
X117681555Y-144720772D01*
X117636222Y-144701995D01*
X117592949Y-144678864D01*
X117552150Y-144651604D01*
X117514221Y-144620476D01*
X117479524Y-144585779D01*
X117448396Y-144547850D01*
X117421136Y-144507051D01*
X117398005Y-144463778D01*
X117379228Y-144418445D01*
X117364984Y-144371490D01*
X117355412Y-144323365D01*
X117350602Y-144274534D01*
X117350602Y-144250000D01*
X117350000Y-144250000D01*
X117350000Y-143750000D01*
X117350602Y-143750000D01*
X117350602Y-143725466D01*
X117355412Y-143676635D01*
X117364984Y-143628510D01*
X117379228Y-143581555D01*
X117398005Y-143536222D01*
X117421136Y-143492949D01*
X117448396Y-143452150D01*
X117479524Y-143414221D01*
X117514221Y-143379524D01*
X117552150Y-143348396D01*
X117592949Y-143321136D01*
X117636222Y-143298005D01*
X117681555Y-143279228D01*
X117728510Y-143264984D01*
X117776635Y-143255412D01*
X117825466Y-143250602D01*
X117850000Y-143250602D01*
X117850000Y-143250000D01*
X118350000Y-143250000D01*
X118350000Y-144750000D01*
X118350000Y-144750000D01*
G37*
D11*
G04 #@! TO.P,JP1,2*
G04 #@! TO.N,Net-(D1-Pad2)*
X119150000Y-144000000D03*
D12*
G04 #@! TD*
G04 #@! TO.N,Net-(D1-Pad2)*
G04 #@! TO.C,JP1*
G36*
X119150000Y-143250602D02*
X119174534Y-143250602D01*
X119223365Y-143255412D01*
X119271490Y-143264984D01*
X119318445Y-143279228D01*
X119363778Y-143298005D01*
X119407051Y-143321136D01*
X119447850Y-143348396D01*
X119485779Y-143379524D01*
X119520476Y-143414221D01*
X119551604Y-143452150D01*
X119578864Y-143492949D01*
X119601995Y-143536222D01*
X119620772Y-143581555D01*
X119635016Y-143628510D01*
X119644588Y-143676635D01*
X119649398Y-143725466D01*
X119649398Y-143750000D01*
X119650000Y-143750000D01*
X119650000Y-144250000D01*
X119649398Y-144250000D01*
X119649398Y-144274534D01*
X119644588Y-144323365D01*
X119635016Y-144371490D01*
X119620772Y-144418445D01*
X119601995Y-144463778D01*
X119578864Y-144507051D01*
X119551604Y-144547850D01*
X119520476Y-144585779D01*
X119485779Y-144620476D01*
X119447850Y-144651604D01*
X119407051Y-144678864D01*
X119363778Y-144701995D01*
X119318445Y-144720772D01*
X119271490Y-144735016D01*
X119223365Y-144744588D01*
X119174534Y-144749398D01*
X119150000Y-144749398D01*
X119150000Y-144750000D01*
X118650000Y-144750000D01*
X118650000Y-143250000D01*
X119150000Y-143250000D01*
X119150000Y-143250602D01*
X119150000Y-143250602D01*
G37*
D11*
G04 #@! TO.P,JP2,2*
G04 #@! TO.N,Net-(D2-Pad2)*
X119150000Y-141500000D03*
D12*
G04 #@! TD*
G04 #@! TO.N,Net-(D2-Pad2)*
G04 #@! TO.C,JP2*
G36*
X119150000Y-140750602D02*
X119174534Y-140750602D01*
X119223365Y-140755412D01*
X119271490Y-140764984D01*
X119318445Y-140779228D01*
X119363778Y-140798005D01*
X119407051Y-140821136D01*
X119447850Y-140848396D01*
X119485779Y-140879524D01*
X119520476Y-140914221D01*
X119551604Y-140952150D01*
X119578864Y-140992949D01*
X119601995Y-141036222D01*
X119620772Y-141081555D01*
X119635016Y-141128510D01*
X119644588Y-141176635D01*
X119649398Y-141225466D01*
X119649398Y-141250000D01*
X119650000Y-141250000D01*
X119650000Y-141750000D01*
X119649398Y-141750000D01*
X119649398Y-141774534D01*
X119644588Y-141823365D01*
X119635016Y-141871490D01*
X119620772Y-141918445D01*
X119601995Y-141963778D01*
X119578864Y-142007051D01*
X119551604Y-142047850D01*
X119520476Y-142085779D01*
X119485779Y-142120476D01*
X119447850Y-142151604D01*
X119407051Y-142178864D01*
X119363778Y-142201995D01*
X119318445Y-142220772D01*
X119271490Y-142235016D01*
X119223365Y-142244588D01*
X119174534Y-142249398D01*
X119150000Y-142249398D01*
X119150000Y-142250000D01*
X118650000Y-142250000D01*
X118650000Y-140750000D01*
X119150000Y-140750000D01*
X119150000Y-140750602D01*
X119150000Y-140750602D01*
G37*
D11*
G04 #@! TO.P,JP2,1*
G04 #@! TO.N,Net-(JP2-Pad1)*
X117850000Y-141500000D03*
D12*
G04 #@! TD*
G04 #@! TO.N,Net-(JP2-Pad1)*
G04 #@! TO.C,JP2*
G36*
X118350000Y-142250000D02*
X117850000Y-142250000D01*
X117850000Y-142249398D01*
X117825466Y-142249398D01*
X117776635Y-142244588D01*
X117728510Y-142235016D01*
X117681555Y-142220772D01*
X117636222Y-142201995D01*
X117592949Y-142178864D01*
X117552150Y-142151604D01*
X117514221Y-142120476D01*
X117479524Y-142085779D01*
X117448396Y-142047850D01*
X117421136Y-142007051D01*
X117398005Y-141963778D01*
X117379228Y-141918445D01*
X117364984Y-141871490D01*
X117355412Y-141823365D01*
X117350602Y-141774534D01*
X117350602Y-141750000D01*
X117350000Y-141750000D01*
X117350000Y-141250000D01*
X117350602Y-141250000D01*
X117350602Y-141225466D01*
X117355412Y-141176635D01*
X117364984Y-141128510D01*
X117379228Y-141081555D01*
X117398005Y-141036222D01*
X117421136Y-140992949D01*
X117448396Y-140952150D01*
X117479524Y-140914221D01*
X117514221Y-140879524D01*
X117552150Y-140848396D01*
X117592949Y-140821136D01*
X117636222Y-140798005D01*
X117681555Y-140779228D01*
X117728510Y-140764984D01*
X117776635Y-140755412D01*
X117825466Y-140750602D01*
X117850000Y-140750602D01*
X117850000Y-140750000D01*
X118350000Y-140750000D01*
X118350000Y-142250000D01*
X118350000Y-142250000D01*
G37*
D11*
G04 #@! TO.P,JP3,1*
G04 #@! TO.N,Net-(JP3-Pad1)*
X117850000Y-139000000D03*
D12*
G04 #@! TD*
G04 #@! TO.N,Net-(JP3-Pad1)*
G04 #@! TO.C,JP3*
G36*
X118350000Y-139750000D02*
X117850000Y-139750000D01*
X117850000Y-139749398D01*
X117825466Y-139749398D01*
X117776635Y-139744588D01*
X117728510Y-139735016D01*
X117681555Y-139720772D01*
X117636222Y-139701995D01*
X117592949Y-139678864D01*
X117552150Y-139651604D01*
X117514221Y-139620476D01*
X117479524Y-139585779D01*
X117448396Y-139547850D01*
X117421136Y-139507051D01*
X117398005Y-139463778D01*
X117379228Y-139418445D01*
X117364984Y-139371490D01*
X117355412Y-139323365D01*
X117350602Y-139274534D01*
X117350602Y-139250000D01*
X117350000Y-139250000D01*
X117350000Y-138750000D01*
X117350602Y-138750000D01*
X117350602Y-138725466D01*
X117355412Y-138676635D01*
X117364984Y-138628510D01*
X117379228Y-138581555D01*
X117398005Y-138536222D01*
X117421136Y-138492949D01*
X117448396Y-138452150D01*
X117479524Y-138414221D01*
X117514221Y-138379524D01*
X117552150Y-138348396D01*
X117592949Y-138321136D01*
X117636222Y-138298005D01*
X117681555Y-138279228D01*
X117728510Y-138264984D01*
X117776635Y-138255412D01*
X117825466Y-138250602D01*
X117850000Y-138250602D01*
X117850000Y-138250000D01*
X118350000Y-138250000D01*
X118350000Y-139750000D01*
X118350000Y-139750000D01*
G37*
D11*
G04 #@! TO.P,JP3,2*
G04 #@! TO.N,Net-(D3-Pad2)*
X119150000Y-139000000D03*
D12*
G04 #@! TD*
G04 #@! TO.N,Net-(D3-Pad2)*
G04 #@! TO.C,JP3*
G36*
X119150000Y-138250602D02*
X119174534Y-138250602D01*
X119223365Y-138255412D01*
X119271490Y-138264984D01*
X119318445Y-138279228D01*
X119363778Y-138298005D01*
X119407051Y-138321136D01*
X119447850Y-138348396D01*
X119485779Y-138379524D01*
X119520476Y-138414221D01*
X119551604Y-138452150D01*
X119578864Y-138492949D01*
X119601995Y-138536222D01*
X119620772Y-138581555D01*
X119635016Y-138628510D01*
X119644588Y-138676635D01*
X119649398Y-138725466D01*
X119649398Y-138750000D01*
X119650000Y-138750000D01*
X119650000Y-139250000D01*
X119649398Y-139250000D01*
X119649398Y-139274534D01*
X119644588Y-139323365D01*
X119635016Y-139371490D01*
X119620772Y-139418445D01*
X119601995Y-139463778D01*
X119578864Y-139507051D01*
X119551604Y-139547850D01*
X119520476Y-139585779D01*
X119485779Y-139620476D01*
X119447850Y-139651604D01*
X119407051Y-139678864D01*
X119363778Y-139701995D01*
X119318445Y-139720772D01*
X119271490Y-139735016D01*
X119223365Y-139744588D01*
X119174534Y-139749398D01*
X119150000Y-139749398D01*
X119150000Y-139750000D01*
X118650000Y-139750000D01*
X118650000Y-138250000D01*
X119150000Y-138250000D01*
X119150000Y-138250602D01*
X119150000Y-138250602D01*
G37*
D10*
G04 #@! TO.P,R1,1*
G04 #@! TO.N,Net-(JP1-Pad1)*
X114050000Y-143000000D03*
G04 #@! TO.P,R1,2*
G04 #@! TO.N,Net-(D12-Pad1)*
X112450000Y-143000000D03*
G04 #@! TD*
G04 #@! TO.P,R2,2*
G04 #@! TO.N,Net-(D12-Pad1)*
X112450000Y-141500000D03*
G04 #@! TO.P,R2,1*
G04 #@! TO.N,Net-(JP2-Pad1)*
X114050000Y-141500000D03*
G04 #@! TD*
G04 #@! TO.P,R3,1*
G04 #@! TO.N,Net-(JP3-Pad1)*
X114050000Y-140000000D03*
G04 #@! TO.P,R3,2*
G04 #@! TO.N,Net-(D12-Pad1)*
X112450000Y-140000000D03*
G04 #@! TD*
D13*
G04 #@! TO.P,U1,1*
G04 #@! TO.N,GND*
X121745000Y-136550000D03*
G04 #@! TO.P,U1,2*
G04 #@! TO.N,Net-(D1-Pad1)*
X123015000Y-136550000D03*
G04 #@! TO.P,U1,3*
G04 #@! TO.N,Net-(U1-Pad3)*
X124285000Y-136550000D03*
G04 #@! TO.P,U1,4*
G04 #@! TO.N,Net-(U1-Pad4)*
X125555000Y-136550000D03*
G04 #@! TO.P,U1,5*
G04 #@! TO.N,Net-(U1-Pad5)*
X126825000Y-136550000D03*
G04 #@! TO.P,U1,6*
G04 #@! TO.N,Net-(U1-Pad6)*
X128095000Y-136550000D03*
G04 #@! TO.P,U1,7*
G04 #@! TO.N,Net-(U1-Pad7)*
X129365000Y-136550000D03*
G04 #@! TO.P,U1,8*
G04 #@! TO.N,Net-(U1-Pad8)*
X130635000Y-136550000D03*
G04 #@! TO.P,U1,9*
G04 #@! TO.N,Net-(U1-Pad9)*
X131905000Y-136550000D03*
G04 #@! TO.P,U1,10*
G04 #@! TO.N,Net-(U1-Pad10)*
X133175000Y-136550000D03*
G04 #@! TO.P,U1,11*
G04 #@! TO.N,Net-(U1-Pad11)*
X134445000Y-136550000D03*
G04 #@! TO.P,U1,12*
G04 #@! TO.N,Net-(U1-Pad12)*
X135715000Y-136550000D03*
G04 #@! TO.P,U1,13*
G04 #@! TO.N,Net-(U1-Pad13)*
X136985000Y-136550000D03*
G04 #@! TO.P,U1,14*
G04 #@! TO.N,Net-(U1-Pad14)*
X138255000Y-136550000D03*
G04 #@! TO.P,U1,15*
G04 #@! TO.N,Net-(D11-Pad2)*
X138255000Y-145950000D03*
G04 #@! TO.P,U1,16*
G04 #@! TO.N,Net-(D10-Pad2)*
X136985000Y-145950000D03*
G04 #@! TO.P,U1,17*
G04 #@! TO.N,Net-(D9-Pad2)*
X135715000Y-145950000D03*
G04 #@! TO.P,U1,18*
G04 #@! TO.N,Net-(D8-Pad2)*
X134445000Y-145950000D03*
G04 #@! TO.P,U1,19*
G04 #@! TO.N,Net-(D7-Pad2)*
X133175000Y-145950000D03*
G04 #@! TO.P,U1,20*
G04 #@! TO.N,Net-(D6-Pad2)*
X131905000Y-145950000D03*
G04 #@! TO.P,U1,21*
G04 #@! TO.N,Net-(D5-Pad2)*
X130635000Y-145950000D03*
G04 #@! TO.P,U1,22*
G04 #@! TO.N,Net-(D4-Pad2)*
X129365000Y-145950000D03*
G04 #@! TO.P,U1,23*
G04 #@! TO.N,Net-(D3-Pad2)*
X128095000Y-145950000D03*
G04 #@! TO.P,U1,24*
G04 #@! TO.N,Net-(D2-Pad2)*
X126825000Y-145950000D03*
G04 #@! TO.P,U1,25*
G04 #@! TO.N,Net-(D1-Pad2)*
X125555000Y-145950000D03*
G04 #@! TO.P,U1,26*
G04 #@! TO.N,SCL*
X124285000Y-145950000D03*
G04 #@! TO.P,U1,27*
G04 #@! TO.N,SDA*
X123015000Y-145950000D03*
G04 #@! TO.P,U1,28*
G04 #@! TO.N,+5V*
X121745000Y-145950000D03*
G04 #@! TD*
D10*
G04 #@! TO.P,D12,1*
G04 #@! TO.N,Net-(D12-Pad1)*
X108800000Y-141500000D03*
G04 #@! TO.P,D12,2*
G04 #@! TO.N,Net-(D1-Pad1)*
X107200000Y-141500000D03*
G04 #@! TD*
D14*
G04 #@! TO.P,TP5,1*
G04 #@! TO.N,+5V*
X122500000Y-151000000D03*
G04 #@! TD*
G04 #@! TO.P,TP6,1*
G04 #@! TO.N,SCL*
X127500000Y-151000000D03*
G04 #@! TD*
G04 #@! TO.P,TP7,1*
G04 #@! TO.N,SDA*
X132500000Y-151000000D03*
G04 #@! TD*
G04 #@! TO.P,TP8,1*
G04 #@! TO.N,GND*
X137500000Y-151000000D03*
G04 #@! TD*
D15*
G04 #@! TO.N,+5V*
X122500000Y-151000000D03*
G04 #@! TO.N,GND*
X137500000Y-151000000D03*
X121750000Y-130400000D03*
X138250000Y-130500000D03*
X120400000Y-147400000D03*
X130000000Y-151000000D03*
X125000000Y-151000000D03*
X135000000Y-151000000D03*
G04 #@! TO.N,Net-(D1-Pad1)*
X100750000Y-127250000D03*
X128500000Y-139000000D03*
G04 #@! TO.N,Net-(D1-Pad2)*
X115000000Y-146100000D03*
G04 #@! TO.N,Net-(D2-Pad2)*
X103500000Y-146500000D03*
G04 #@! TO.N,Net-(D3-Pad2)*
X103450000Y-129800000D03*
G04 #@! TO.N,Net-(D4-Pad2)*
X110000000Y-138900000D03*
G04 #@! TO.N,Net-(D5-Pad2)*
X120000000Y-130400000D03*
G04 #@! TO.N,Net-(D6-Pad2)*
X130000000Y-139000000D03*
G04 #@! TO.N,Net-(D7-Pad2)*
X140000000Y-130500000D03*
G04 #@! TO.N,Net-(D8-Pad2)*
X150000000Y-139000000D03*
G04 #@! TO.N,Net-(D9-Pad2)*
X156700000Y-129800000D03*
G04 #@! TO.N,Net-(D10-Pad2)*
X156600000Y-146600000D03*
G04 #@! TO.N,Net-(D11-Pad2)*
X145000000Y-146200000D03*
G04 #@! TO.N,SCL*
X127500000Y-151000000D03*
X124250000Y-147750000D03*
G04 #@! TO.N,SDA*
X132500000Y-151000000D03*
G04 #@! TD*
D16*
G04 #@! TO.N,+5V*
X123000000Y-150200000D02*
X123000000Y-151000000D01*
D17*
X121745000Y-145950000D02*
X121745000Y-148245000D01*
X121745000Y-148245000D02*
X122500000Y-149000000D01*
X122500000Y-149000000D02*
X122500000Y-151000000D01*
X120705000Y-148245000D02*
X121745000Y-148245000D01*
X119900000Y-149050000D02*
X120705000Y-148245000D01*
X119000000Y-149050000D02*
X119900000Y-149050000D01*
D16*
G04 #@! TO.N,GND*
X121745000Y-136550000D02*
X121745000Y-134505000D01*
X119050000Y-147400000D02*
X119000000Y-147450000D01*
X120400000Y-147400000D02*
X119050000Y-147400000D01*
G04 #@! TO.N,Net-(D1-Pad1)*
X123015000Y-138265000D02*
X123015000Y-136550000D01*
X128500000Y-139000000D02*
X123750000Y-139000000D01*
X123750000Y-139000000D02*
X123015000Y-138265000D01*
X107200000Y-140850000D02*
X107750000Y-140300000D01*
X107200000Y-141500000D02*
X107200000Y-140850000D01*
X107750000Y-140300000D02*
X107750000Y-135250000D01*
X100750000Y-128250000D02*
X100750000Y-127250000D01*
X107750000Y-135250000D02*
X100750000Y-128250000D01*
G04 #@! TO.N,Net-(D1-Pad2)*
X119150000Y-144847592D02*
X118597592Y-145400000D01*
X119150000Y-144000000D02*
X119150000Y-144847592D01*
X115700000Y-145400000D02*
X115000000Y-146100000D01*
X118597592Y-145400000D02*
X115700000Y-145400000D01*
X125555000Y-144305000D02*
X125555000Y-145950000D01*
X119150000Y-144000000D02*
X125250000Y-144000000D01*
X125250000Y-144000000D02*
X125555000Y-144305000D01*
G04 #@! TO.N,Net-(D2-Pad2)*
X117000000Y-142750000D02*
X118747592Y-142750000D01*
X116500000Y-142250000D02*
X117000000Y-142750000D01*
X103500000Y-146500000D02*
X105500000Y-144500000D01*
X105500000Y-144500000D02*
X112500000Y-144500000D01*
X112500000Y-144500000D02*
X113175001Y-143824999D01*
X113175001Y-143824999D02*
X113175001Y-142574999D01*
X113175001Y-142574999D02*
X113500000Y-142250000D01*
X113500000Y-142250000D02*
X116500000Y-142250000D01*
X119150000Y-142650000D02*
X119250000Y-142750000D01*
X119150000Y-141500000D02*
X119150000Y-142650000D01*
X119250000Y-142750000D02*
X118747592Y-142750000D01*
X126825000Y-144250000D02*
X126825000Y-145950000D01*
X120750000Y-143000000D02*
X126500000Y-143000000D01*
X126825000Y-143325000D02*
X126825000Y-144250000D01*
X126500000Y-143000000D02*
X126825000Y-143325000D01*
X119250000Y-142750000D02*
X120500000Y-142750000D01*
X120500000Y-142750000D02*
X120750000Y-143000000D01*
G04 #@! TO.N,Net-(D3-Pad2)*
X110500000Y-140000000D02*
X109500000Y-140000000D01*
X109500000Y-140000000D02*
X108500000Y-139000000D01*
X108500000Y-134850000D02*
X103450000Y-129800000D01*
X108500000Y-139000000D02*
X108500000Y-134850000D01*
X112835002Y-139000000D02*
X113175001Y-139339999D01*
X111500000Y-139000000D02*
X112835002Y-139000000D01*
X111500000Y-139000000D02*
X110500000Y-140000000D01*
X113175001Y-139339999D02*
X113175001Y-140500000D01*
X113400002Y-140725001D02*
X116524999Y-140725001D01*
X113175001Y-140500000D02*
X113400002Y-140725001D01*
X116524999Y-140725001D02*
X117000000Y-140250000D01*
X117000000Y-140250000D02*
X118747592Y-140250000D01*
X119150000Y-140150000D02*
X119250000Y-140250000D01*
X119150000Y-139000000D02*
X119150000Y-140150000D01*
X118747592Y-140250000D02*
X119250000Y-140250000D01*
X128095000Y-142595000D02*
X128095000Y-145950000D01*
X122150000Y-142000000D02*
X127500000Y-142000000D01*
X127500000Y-142000000D02*
X128095000Y-142595000D01*
X119250000Y-140250000D02*
X120400000Y-140250000D01*
X120400000Y-140250000D02*
X122150000Y-142000000D01*
G04 #@! TO.N,Net-(D4-Pad2)*
X116800000Y-138200000D02*
X117500000Y-137500000D01*
X110700000Y-138200000D02*
X116800000Y-138200000D01*
X110000000Y-138900000D02*
X110700000Y-138200000D01*
X128750000Y-141000000D02*
X129365000Y-141615000D01*
X123000000Y-141000000D02*
X128750000Y-141000000D01*
X129365000Y-141615000D02*
X129365000Y-145950000D01*
X117500000Y-137500000D02*
X119500000Y-137500000D01*
X119500000Y-137500000D02*
X123000000Y-141000000D01*
G04 #@! TO.N,Net-(D5-Pad2)*
X130635000Y-140885000D02*
X130635000Y-145950000D01*
X123309998Y-140000000D02*
X129750000Y-140000000D01*
X129750000Y-140000000D02*
X130635000Y-140885000D01*
X120000000Y-130400000D02*
X120000000Y-136690002D01*
X120000000Y-136690002D02*
X123309998Y-140000000D01*
G04 #@! TO.N,Net-(D6-Pad2)*
X131905000Y-145950000D02*
X131905000Y-141000000D01*
X130000000Y-139000000D02*
X130500000Y-139000000D01*
X131905000Y-140405000D02*
X131750000Y-140250000D01*
X131905000Y-141000000D02*
X131905000Y-140405000D01*
X130500000Y-139000000D02*
X131750000Y-140250000D01*
G04 #@! TO.N,Net-(D7-Pad2)*
X140000000Y-136690002D02*
X140000000Y-130500000D01*
X140000000Y-137500000D02*
X140000000Y-136690002D01*
X139309998Y-138190002D02*
X140000000Y-137500000D01*
X134559998Y-138190002D02*
X139309998Y-138190002D01*
X133175000Y-145950000D02*
X133175000Y-139575000D01*
X133175000Y-139575000D02*
X134559998Y-138190002D01*
G04 #@! TO.N,Net-(D8-Pad2)*
X136000000Y-139000000D02*
X150000000Y-139000000D01*
X135750000Y-139000000D02*
X136000000Y-139000000D01*
X134445000Y-145950000D02*
X134445000Y-140305000D01*
X134445000Y-140305000D02*
X135750000Y-139000000D01*
G04 #@! TO.N,Net-(D9-Pad2)*
X151000000Y-135500000D02*
X156700000Y-129800000D01*
X151000000Y-139500000D02*
X151000000Y-135500000D01*
X150500000Y-140000000D02*
X151000000Y-139500000D01*
X137000000Y-140000000D02*
X150500000Y-140000000D01*
X135715000Y-141285000D02*
X137000000Y-140000000D01*
X135715000Y-145950000D02*
X135715000Y-141285000D01*
G04 #@! TO.N,Net-(D10-Pad2)*
X153000000Y-143000000D02*
X156600000Y-146600000D01*
X136985000Y-145250000D02*
X137000000Y-145235000D01*
X136985000Y-145950000D02*
X136985000Y-145250000D01*
X137000000Y-145235000D02*
X137000000Y-142000000D01*
X137000000Y-142000000D02*
X138000000Y-141000000D01*
X138000000Y-141000000D02*
X151000000Y-141000000D01*
X151000000Y-141000000D02*
X153000000Y-143000000D01*
G04 #@! TO.N,Net-(D11-Pad2)*
X138255000Y-142745000D02*
X138255000Y-145950000D01*
X139000000Y-142000000D02*
X138255000Y-142745000D01*
X144000000Y-142000000D02*
X139000000Y-142000000D01*
X145000000Y-146200000D02*
X145000000Y-143000000D01*
X145000000Y-143000000D02*
X144000000Y-142000000D01*
G04 #@! TO.N,Net-(D12-Pad1)*
X112450000Y-140000000D02*
X112450000Y-143000000D01*
X111800000Y-141500000D02*
X108800000Y-141500000D01*
X112450000Y-141500000D02*
X111800000Y-141500000D01*
G04 #@! TO.N,Net-(JP1-Pad1)*
X117000000Y-144000000D02*
X117850000Y-144000000D01*
X116000000Y-143000000D02*
X117000000Y-144000000D01*
X114050000Y-143000000D02*
X116000000Y-143000000D01*
G04 #@! TO.N,Net-(JP2-Pad1)*
X114050000Y-141500000D02*
X117850000Y-141500000D01*
G04 #@! TO.N,Net-(JP3-Pad1)*
X117000000Y-139000000D02*
X117850000Y-139000000D01*
X116000000Y-140000000D02*
X117000000Y-139000000D01*
X114050000Y-140000000D02*
X116000000Y-140000000D01*
G04 #@! TO.N,SCL*
X124285000Y-145950000D02*
X124285000Y-147715000D01*
X124285000Y-147715000D02*
X124250000Y-147750000D01*
G04 #@! TO.N,SDA*
X123015000Y-146650000D02*
X123015000Y-145950000D01*
X132500000Y-149000000D02*
X132500000Y-151000000D01*
X132000000Y-148500000D02*
X132500000Y-149000000D01*
X123500000Y-148500000D02*
X132000000Y-148500000D01*
X123015000Y-145950000D02*
X123015000Y-148015000D01*
X123015000Y-148015000D02*
X123500000Y-148500000D01*
G04 #@! TD*
D18*
G04 #@! TO.N,GND*
G36*
X130952560Y-149300000D02*
X130952560Y-152290000D01*
X129047440Y-152290000D01*
X129047440Y-149300000D01*
X129039484Y-149260000D01*
X130960516Y-149260000D01*
X130952560Y-149300000D01*
X130952560Y-149300000D01*
G37*
X130952560Y-149300000D02*
X130952560Y-152290000D01*
X129047440Y-152290000D01*
X129047440Y-149300000D01*
X129039484Y-149260000D01*
X130960516Y-149260000D01*
X130952560Y-149300000D01*
G36*
X159290001Y-149290000D02*
X140069925Y-149290000D01*
X140000000Y-149276091D01*
X139930074Y-149290000D01*
X139722972Y-149331195D01*
X139488119Y-149488119D01*
X139331195Y-149722972D01*
X139276091Y-150000000D01*
X139290000Y-150069925D01*
X139290001Y-152290000D01*
X139035000Y-152290000D01*
X139035000Y-151285750D01*
X138876250Y-151127000D01*
X137627000Y-151127000D01*
X137627000Y-151147000D01*
X137373000Y-151147000D01*
X137373000Y-151127000D01*
X136123750Y-151127000D01*
X135965000Y-151285750D01*
X135965000Y-152290000D01*
X134047440Y-152290000D01*
X134047440Y-149300000D01*
X134022316Y-149173691D01*
X135965000Y-149173691D01*
X135965000Y-150714250D01*
X136123750Y-150873000D01*
X137373000Y-150873000D01*
X137373000Y-148823750D01*
X137627000Y-148823750D01*
X137627000Y-150873000D01*
X138876250Y-150873000D01*
X139035000Y-150714250D01*
X139035000Y-149173691D01*
X138938327Y-148940302D01*
X138759699Y-148761673D01*
X138526310Y-148665000D01*
X137785750Y-148665000D01*
X137627000Y-148823750D01*
X137373000Y-148823750D01*
X137214250Y-148665000D01*
X136473690Y-148665000D01*
X136240301Y-148761673D01*
X136061673Y-148940302D01*
X135965000Y-149173691D01*
X134022316Y-149173691D01*
X133998157Y-149052235D01*
X133857809Y-148842191D01*
X133647765Y-148701843D01*
X133400000Y-148652560D01*
X133181892Y-148652560D01*
X133090329Y-148515527D01*
X133047929Y-148452071D01*
X132984473Y-148409671D01*
X132590331Y-148015529D01*
X132547929Y-147952071D01*
X132296537Y-147784096D01*
X132074852Y-147740000D01*
X132074847Y-147740000D01*
X132000000Y-147725112D01*
X131925153Y-147740000D01*
X125285000Y-147740000D01*
X125285000Y-147597440D01*
X125855000Y-147597440D01*
X126102765Y-147548157D01*
X126190000Y-147489868D01*
X126277235Y-147548157D01*
X126525000Y-147597440D01*
X127125000Y-147597440D01*
X127372765Y-147548157D01*
X127460000Y-147489868D01*
X127547235Y-147548157D01*
X127795000Y-147597440D01*
X128395000Y-147597440D01*
X128642765Y-147548157D01*
X128730000Y-147489868D01*
X128817235Y-147548157D01*
X129065000Y-147597440D01*
X129665000Y-147597440D01*
X129912765Y-147548157D01*
X130000000Y-147489868D01*
X130087235Y-147548157D01*
X130335000Y-147597440D01*
X130935000Y-147597440D01*
X131182765Y-147548157D01*
X131270000Y-147489868D01*
X131357235Y-147548157D01*
X131605000Y-147597440D01*
X132205000Y-147597440D01*
X132452765Y-147548157D01*
X132540000Y-147489868D01*
X132627235Y-147548157D01*
X132875000Y-147597440D01*
X133475000Y-147597440D01*
X133722765Y-147548157D01*
X133810000Y-147489868D01*
X133897235Y-147548157D01*
X134145000Y-147597440D01*
X134745000Y-147597440D01*
X134992765Y-147548157D01*
X135080000Y-147489868D01*
X135167235Y-147548157D01*
X135415000Y-147597440D01*
X136015000Y-147597440D01*
X136262765Y-147548157D01*
X136350000Y-147489868D01*
X136437235Y-147548157D01*
X136685000Y-147597440D01*
X137285000Y-147597440D01*
X137532765Y-147548157D01*
X137620000Y-147489868D01*
X137707235Y-147548157D01*
X137955000Y-147597440D01*
X138555000Y-147597440D01*
X138802765Y-147548157D01*
X139012809Y-147407809D01*
X139153157Y-147197765D01*
X139202440Y-146950000D01*
X139202440Y-144950000D01*
X139153157Y-144702235D01*
X139015000Y-144495470D01*
X139015000Y-143059801D01*
X139314802Y-142760000D01*
X143685199Y-142760000D01*
X144240001Y-143314803D01*
X144240000Y-145496289D01*
X144122569Y-145613720D01*
X143965000Y-145994126D01*
X143965000Y-146405874D01*
X144122569Y-146786280D01*
X144413720Y-147077431D01*
X144794126Y-147235000D01*
X145205874Y-147235000D01*
X145586280Y-147077431D01*
X145877431Y-146786280D01*
X146035000Y-146405874D01*
X146035000Y-145994126D01*
X145877431Y-145613720D01*
X145760000Y-145496289D01*
X145760000Y-143074848D01*
X145774888Y-143000000D01*
X145760000Y-142925152D01*
X145760000Y-142925148D01*
X145715904Y-142703463D01*
X145547929Y-142452071D01*
X145484473Y-142409671D01*
X144834801Y-141760000D01*
X150685199Y-141760000D01*
X152515527Y-143590329D01*
X152515530Y-143590331D01*
X155565000Y-146639802D01*
X155565000Y-146805874D01*
X155722569Y-147186280D01*
X156013720Y-147477431D01*
X156394126Y-147635000D01*
X156805874Y-147635000D01*
X157186280Y-147477431D01*
X157477431Y-147186280D01*
X157635000Y-146805874D01*
X157635000Y-146394126D01*
X157477431Y-146013720D01*
X157186280Y-145722569D01*
X156805874Y-145565000D01*
X156639802Y-145565000D01*
X153590331Y-142515530D01*
X153590329Y-142515527D01*
X151590331Y-140515530D01*
X151547929Y-140452071D01*
X151296537Y-140284096D01*
X151291673Y-140283128D01*
X151484473Y-140090329D01*
X151547929Y-140047929D01*
X151640310Y-139909671D01*
X151715904Y-139796538D01*
X151734417Y-139703464D01*
X151760000Y-139574852D01*
X151760000Y-139574848D01*
X151774888Y-139500000D01*
X151760000Y-139425152D01*
X151760000Y-135814801D01*
X156739803Y-130835000D01*
X156905874Y-130835000D01*
X157286280Y-130677431D01*
X157577431Y-130386280D01*
X157735000Y-130005874D01*
X157735000Y-129594126D01*
X157577431Y-129213720D01*
X157286280Y-128922569D01*
X157141494Y-128862597D01*
X159290000Y-126714092D01*
X159290001Y-149290000D01*
X159290001Y-149290000D01*
G37*
X159290001Y-149290000D02*
X140069925Y-149290000D01*
X140000000Y-149276091D01*
X139930074Y-149290000D01*
X139722972Y-149331195D01*
X139488119Y-149488119D01*
X139331195Y-149722972D01*
X139276091Y-150000000D01*
X139290000Y-150069925D01*
X139290001Y-152290000D01*
X139035000Y-152290000D01*
X139035000Y-151285750D01*
X138876250Y-151127000D01*
X137627000Y-151127000D01*
X137627000Y-151147000D01*
X137373000Y-151147000D01*
X137373000Y-151127000D01*
X136123750Y-151127000D01*
X135965000Y-151285750D01*
X135965000Y-152290000D01*
X134047440Y-152290000D01*
X134047440Y-149300000D01*
X134022316Y-149173691D01*
X135965000Y-149173691D01*
X135965000Y-150714250D01*
X136123750Y-150873000D01*
X137373000Y-150873000D01*
X137373000Y-148823750D01*
X137627000Y-148823750D01*
X137627000Y-150873000D01*
X138876250Y-150873000D01*
X139035000Y-150714250D01*
X139035000Y-149173691D01*
X138938327Y-148940302D01*
X138759699Y-148761673D01*
X138526310Y-148665000D01*
X137785750Y-148665000D01*
X137627000Y-148823750D01*
X137373000Y-148823750D01*
X137214250Y-148665000D01*
X136473690Y-148665000D01*
X136240301Y-148761673D01*
X136061673Y-148940302D01*
X135965000Y-149173691D01*
X134022316Y-149173691D01*
X133998157Y-149052235D01*
X133857809Y-148842191D01*
X133647765Y-148701843D01*
X133400000Y-148652560D01*
X133181892Y-148652560D01*
X133090329Y-148515527D01*
X133047929Y-148452071D01*
X132984473Y-148409671D01*
X132590331Y-148015529D01*
X132547929Y-147952071D01*
X132296537Y-147784096D01*
X132074852Y-147740000D01*
X132074847Y-147740000D01*
X132000000Y-147725112D01*
X131925153Y-147740000D01*
X125285000Y-147740000D01*
X125285000Y-147597440D01*
X125855000Y-147597440D01*
X126102765Y-147548157D01*
X126190000Y-147489868D01*
X126277235Y-147548157D01*
X126525000Y-147597440D01*
X127125000Y-147597440D01*
X127372765Y-147548157D01*
X127460000Y-147489868D01*
X127547235Y-147548157D01*
X127795000Y-147597440D01*
X128395000Y-147597440D01*
X128642765Y-147548157D01*
X128730000Y-147489868D01*
X128817235Y-147548157D01*
X129065000Y-147597440D01*
X129665000Y-147597440D01*
X129912765Y-147548157D01*
X130000000Y-147489868D01*
X130087235Y-147548157D01*
X130335000Y-147597440D01*
X130935000Y-147597440D01*
X131182765Y-147548157D01*
X131270000Y-147489868D01*
X131357235Y-147548157D01*
X131605000Y-147597440D01*
X132205000Y-147597440D01*
X132452765Y-147548157D01*
X132540000Y-147489868D01*
X132627235Y-147548157D01*
X132875000Y-147597440D01*
X133475000Y-147597440D01*
X133722765Y-147548157D01*
X133810000Y-147489868D01*
X133897235Y-147548157D01*
X134145000Y-147597440D01*
X134745000Y-147597440D01*
X134992765Y-147548157D01*
X135080000Y-147489868D01*
X135167235Y-147548157D01*
X135415000Y-147597440D01*
X136015000Y-147597440D01*
X136262765Y-147548157D01*
X136350000Y-147489868D01*
X136437235Y-147548157D01*
X136685000Y-147597440D01*
X137285000Y-147597440D01*
X137532765Y-147548157D01*
X137620000Y-147489868D01*
X137707235Y-147548157D01*
X137955000Y-147597440D01*
X138555000Y-147597440D01*
X138802765Y-147548157D01*
X139012809Y-147407809D01*
X139153157Y-147197765D01*
X139202440Y-146950000D01*
X139202440Y-144950000D01*
X139153157Y-144702235D01*
X139015000Y-144495470D01*
X139015000Y-143059801D01*
X139314802Y-142760000D01*
X143685199Y-142760000D01*
X144240001Y-143314803D01*
X144240000Y-145496289D01*
X144122569Y-145613720D01*
X143965000Y-145994126D01*
X143965000Y-146405874D01*
X144122569Y-146786280D01*
X144413720Y-147077431D01*
X144794126Y-147235000D01*
X145205874Y-147235000D01*
X145586280Y-147077431D01*
X145877431Y-146786280D01*
X146035000Y-146405874D01*
X146035000Y-145994126D01*
X145877431Y-145613720D01*
X145760000Y-145496289D01*
X145760000Y-143074848D01*
X145774888Y-143000000D01*
X145760000Y-142925152D01*
X145760000Y-142925148D01*
X145715904Y-142703463D01*
X145547929Y-142452071D01*
X145484473Y-142409671D01*
X144834801Y-141760000D01*
X150685199Y-141760000D01*
X152515527Y-143590329D01*
X152515530Y-143590331D01*
X155565000Y-146639802D01*
X155565000Y-146805874D01*
X155722569Y-147186280D01*
X156013720Y-147477431D01*
X156394126Y-147635000D01*
X156805874Y-147635000D01*
X157186280Y-147477431D01*
X157477431Y-147186280D01*
X157635000Y-146805874D01*
X157635000Y-146394126D01*
X157477431Y-146013720D01*
X157186280Y-145722569D01*
X156805874Y-145565000D01*
X156639802Y-145565000D01*
X153590331Y-142515530D01*
X153590329Y-142515527D01*
X151590331Y-140515530D01*
X151547929Y-140452071D01*
X151296537Y-140284096D01*
X151291673Y-140283128D01*
X151484473Y-140090329D01*
X151547929Y-140047929D01*
X151640310Y-139909671D01*
X151715904Y-139796538D01*
X151734417Y-139703464D01*
X151760000Y-139574852D01*
X151760000Y-139574848D01*
X151774888Y-139500000D01*
X151760000Y-139425152D01*
X151760000Y-135814801D01*
X156739803Y-130835000D01*
X156905874Y-130835000D01*
X157286280Y-130677431D01*
X157577431Y-130386280D01*
X157735000Y-130005874D01*
X157735000Y-129594126D01*
X157577431Y-129213720D01*
X157286280Y-128922569D01*
X157141494Y-128862597D01*
X159290000Y-126714092D01*
X159290001Y-149290000D01*
G36*
X125952560Y-149300000D02*
X125952560Y-152290000D01*
X124047440Y-152290000D01*
X124047440Y-149300000D01*
X124039484Y-149260000D01*
X125960516Y-149260000D01*
X125952560Y-149300000D01*
X125952560Y-149300000D01*
G37*
X125952560Y-149300000D02*
X125952560Y-152290000D01*
X124047440Y-152290000D01*
X124047440Y-149300000D01*
X124039484Y-149260000D01*
X125960516Y-149260000D01*
X125952560Y-149300000D01*
G36*
X106990001Y-135564803D02*
X106990000Y-139985198D01*
X106715527Y-140259672D01*
X106652072Y-140302071D01*
X106491448Y-140542460D01*
X106342191Y-140642191D01*
X106201843Y-140852235D01*
X106152560Y-141100000D01*
X106152560Y-141900000D01*
X106201843Y-142147765D01*
X106342191Y-142357809D01*
X106552235Y-142498157D01*
X106800000Y-142547440D01*
X107600000Y-142547440D01*
X107847765Y-142498157D01*
X108000000Y-142396436D01*
X108152235Y-142498157D01*
X108400000Y-142547440D01*
X109200000Y-142547440D01*
X109447765Y-142498157D01*
X109657809Y-142357809D01*
X109723163Y-142260000D01*
X111513473Y-142260000D01*
X111451843Y-142352235D01*
X111402560Y-142600000D01*
X111402560Y-143400000D01*
X111451843Y-143647765D01*
X111513473Y-143740000D01*
X105574846Y-143740000D01*
X105499999Y-143725112D01*
X105425152Y-143740000D01*
X105425148Y-143740000D01*
X105203463Y-143784096D01*
X104952071Y-143952071D01*
X104909671Y-144015527D01*
X103460199Y-145465000D01*
X103294126Y-145465000D01*
X102913720Y-145622569D01*
X102622569Y-145913720D01*
X102465000Y-146294126D01*
X102465000Y-146705874D01*
X102622569Y-147086280D01*
X102913720Y-147377431D01*
X103294126Y-147535000D01*
X103705874Y-147535000D01*
X104086280Y-147377431D01*
X104377431Y-147086280D01*
X104535000Y-146705874D01*
X104535000Y-146539801D01*
X105814802Y-145260000D01*
X112425153Y-145260000D01*
X112500000Y-145274888D01*
X112574847Y-145260000D01*
X112574852Y-145260000D01*
X112796537Y-145215904D01*
X113047929Y-145047929D01*
X113090331Y-144984470D01*
X113659474Y-144415328D01*
X113722930Y-144372928D01*
X113890905Y-144121536D01*
X113905644Y-144047440D01*
X114450000Y-144047440D01*
X114697765Y-143998157D01*
X114907809Y-143857809D01*
X114973163Y-143760000D01*
X115685199Y-143760000D01*
X116409670Y-144484472D01*
X116452071Y-144547929D01*
X116589865Y-144640000D01*
X115774846Y-144640000D01*
X115699999Y-144625112D01*
X115625152Y-144640000D01*
X115625148Y-144640000D01*
X115403463Y-144684096D01*
X115403461Y-144684097D01*
X115403462Y-144684097D01*
X115215526Y-144809671D01*
X115215524Y-144809673D01*
X115152071Y-144852071D01*
X115109672Y-144915525D01*
X114960198Y-145065000D01*
X114794126Y-145065000D01*
X114413720Y-145222569D01*
X114122569Y-145513720D01*
X113965000Y-145894126D01*
X113965000Y-146305874D01*
X114122569Y-146686280D01*
X114413720Y-146977431D01*
X114794126Y-147135000D01*
X115205874Y-147135000D01*
X115586280Y-146977431D01*
X115640020Y-146923691D01*
X117965000Y-146923691D01*
X117965000Y-147164250D01*
X118123750Y-147323000D01*
X118873000Y-147323000D01*
X118873000Y-146573750D01*
X119127000Y-146573750D01*
X119127000Y-147323000D01*
X119876250Y-147323000D01*
X120035000Y-147164250D01*
X120035000Y-146923691D01*
X119938327Y-146690302D01*
X119759699Y-146511673D01*
X119526310Y-146415000D01*
X119285750Y-146415000D01*
X119127000Y-146573750D01*
X118873000Y-146573750D01*
X118714250Y-146415000D01*
X118473690Y-146415000D01*
X118240301Y-146511673D01*
X118061673Y-146690302D01*
X117965000Y-146923691D01*
X115640020Y-146923691D01*
X115877431Y-146686280D01*
X116035000Y-146305874D01*
X116035000Y-146160000D01*
X118522745Y-146160000D01*
X118597592Y-146174888D01*
X118672439Y-146160000D01*
X118672444Y-146160000D01*
X118894129Y-146115904D01*
X119145521Y-145947929D01*
X119187923Y-145884470D01*
X119634473Y-145437921D01*
X119697929Y-145395521D01*
X119865904Y-145144129D01*
X119866216Y-145142562D01*
X119925006Y-145094314D01*
X119994314Y-145025006D01*
X120074831Y-144926896D01*
X120129287Y-144845397D01*
X120174933Y-144760000D01*
X120835353Y-144760000D01*
X120797560Y-144950000D01*
X120797560Y-146950000D01*
X120846843Y-147197765D01*
X120860001Y-147217457D01*
X120860001Y-147360000D01*
X120792161Y-147360000D01*
X120705000Y-147342663D01*
X120617839Y-147360000D01*
X120617835Y-147360000D01*
X120377482Y-147407809D01*
X120359690Y-147411348D01*
X120140845Y-147557576D01*
X120140844Y-147557577D01*
X120066951Y-147606951D01*
X120017577Y-147680844D01*
X119998836Y-147699586D01*
X119876250Y-147577000D01*
X119127000Y-147577000D01*
X119127000Y-147597000D01*
X118873000Y-147597000D01*
X118873000Y-147577000D01*
X118123750Y-147577000D01*
X117965000Y-147735750D01*
X117965000Y-147976309D01*
X118061673Y-148209698D01*
X118102927Y-148250953D01*
X118001843Y-148402235D01*
X117952560Y-148650000D01*
X117952560Y-149290000D01*
X100710000Y-149290000D01*
X100710000Y-129284801D01*
X106990001Y-135564803D01*
X106990001Y-135564803D01*
G37*
X106990001Y-135564803D02*
X106990000Y-139985198D01*
X106715527Y-140259672D01*
X106652072Y-140302071D01*
X106491448Y-140542460D01*
X106342191Y-140642191D01*
X106201843Y-140852235D01*
X106152560Y-141100000D01*
X106152560Y-141900000D01*
X106201843Y-142147765D01*
X106342191Y-142357809D01*
X106552235Y-142498157D01*
X106800000Y-142547440D01*
X107600000Y-142547440D01*
X107847765Y-142498157D01*
X108000000Y-142396436D01*
X108152235Y-142498157D01*
X108400000Y-142547440D01*
X109200000Y-142547440D01*
X109447765Y-142498157D01*
X109657809Y-142357809D01*
X109723163Y-142260000D01*
X111513473Y-142260000D01*
X111451843Y-142352235D01*
X111402560Y-142600000D01*
X111402560Y-143400000D01*
X111451843Y-143647765D01*
X111513473Y-143740000D01*
X105574846Y-143740000D01*
X105499999Y-143725112D01*
X105425152Y-143740000D01*
X105425148Y-143740000D01*
X105203463Y-143784096D01*
X104952071Y-143952071D01*
X104909671Y-144015527D01*
X103460199Y-145465000D01*
X103294126Y-145465000D01*
X102913720Y-145622569D01*
X102622569Y-145913720D01*
X102465000Y-146294126D01*
X102465000Y-146705874D01*
X102622569Y-147086280D01*
X102913720Y-147377431D01*
X103294126Y-147535000D01*
X103705874Y-147535000D01*
X104086280Y-147377431D01*
X104377431Y-147086280D01*
X104535000Y-146705874D01*
X104535000Y-146539801D01*
X105814802Y-145260000D01*
X112425153Y-145260000D01*
X112500000Y-145274888D01*
X112574847Y-145260000D01*
X112574852Y-145260000D01*
X112796537Y-145215904D01*
X113047929Y-145047929D01*
X113090331Y-144984470D01*
X113659474Y-144415328D01*
X113722930Y-144372928D01*
X113890905Y-144121536D01*
X113905644Y-144047440D01*
X114450000Y-144047440D01*
X114697765Y-143998157D01*
X114907809Y-143857809D01*
X114973163Y-143760000D01*
X115685199Y-143760000D01*
X116409670Y-144484472D01*
X116452071Y-144547929D01*
X116589865Y-144640000D01*
X115774846Y-144640000D01*
X115699999Y-144625112D01*
X115625152Y-144640000D01*
X115625148Y-144640000D01*
X115403463Y-144684096D01*
X115403461Y-144684097D01*
X115403462Y-144684097D01*
X115215526Y-144809671D01*
X115215524Y-144809673D01*
X115152071Y-144852071D01*
X115109672Y-144915525D01*
X114960198Y-145065000D01*
X114794126Y-145065000D01*
X114413720Y-145222569D01*
X114122569Y-145513720D01*
X113965000Y-145894126D01*
X113965000Y-146305874D01*
X114122569Y-146686280D01*
X114413720Y-146977431D01*
X114794126Y-147135000D01*
X115205874Y-147135000D01*
X115586280Y-146977431D01*
X115640020Y-146923691D01*
X117965000Y-146923691D01*
X117965000Y-147164250D01*
X118123750Y-147323000D01*
X118873000Y-147323000D01*
X118873000Y-146573750D01*
X119127000Y-146573750D01*
X119127000Y-147323000D01*
X119876250Y-147323000D01*
X120035000Y-147164250D01*
X120035000Y-146923691D01*
X119938327Y-146690302D01*
X119759699Y-146511673D01*
X119526310Y-146415000D01*
X119285750Y-146415000D01*
X119127000Y-146573750D01*
X118873000Y-146573750D01*
X118714250Y-146415000D01*
X118473690Y-146415000D01*
X118240301Y-146511673D01*
X118061673Y-146690302D01*
X117965000Y-146923691D01*
X115640020Y-146923691D01*
X115877431Y-146686280D01*
X116035000Y-146305874D01*
X116035000Y-146160000D01*
X118522745Y-146160000D01*
X118597592Y-146174888D01*
X118672439Y-146160000D01*
X118672444Y-146160000D01*
X118894129Y-146115904D01*
X119145521Y-145947929D01*
X119187923Y-145884470D01*
X119634473Y-145437921D01*
X119697929Y-145395521D01*
X119865904Y-145144129D01*
X119866216Y-145142562D01*
X119925006Y-145094314D01*
X119994314Y-145025006D01*
X120074831Y-144926896D01*
X120129287Y-144845397D01*
X120174933Y-144760000D01*
X120835353Y-144760000D01*
X120797560Y-144950000D01*
X120797560Y-146950000D01*
X120846843Y-147197765D01*
X120860001Y-147217457D01*
X120860001Y-147360000D01*
X120792161Y-147360000D01*
X120705000Y-147342663D01*
X120617839Y-147360000D01*
X120617835Y-147360000D01*
X120377482Y-147407809D01*
X120359690Y-147411348D01*
X120140845Y-147557576D01*
X120140844Y-147557577D01*
X120066951Y-147606951D01*
X120017577Y-147680844D01*
X119998836Y-147699586D01*
X119876250Y-147577000D01*
X119127000Y-147577000D01*
X119127000Y-147597000D01*
X118873000Y-147597000D01*
X118873000Y-147577000D01*
X118123750Y-147577000D01*
X117965000Y-147735750D01*
X117965000Y-147976309D01*
X118061673Y-148209698D01*
X118102927Y-148250953D01*
X118001843Y-148402235D01*
X117952560Y-148650000D01*
X117952560Y-149290000D01*
X100710000Y-149290000D01*
X100710000Y-129284801D01*
X106990001Y-135564803D01*
G36*
X149448514Y-135452606D02*
X149488120Y-135511880D01*
X149547394Y-135551486D01*
X149547399Y-135551491D01*
X149722972Y-135668805D01*
X150000000Y-135723909D01*
X150240001Y-135676170D01*
X150240000Y-137979136D01*
X150205874Y-137965000D01*
X149794126Y-137965000D01*
X149413720Y-138122569D01*
X149296289Y-138240000D01*
X140334802Y-138240000D01*
X140484473Y-138090329D01*
X140547929Y-138047929D01*
X140715904Y-137796537D01*
X140760000Y-137574852D01*
X140760000Y-137574848D01*
X140774888Y-137500001D01*
X140760000Y-137425154D01*
X140760000Y-131203711D01*
X140877431Y-131086280D01*
X141035000Y-130705874D01*
X141035000Y-130294126D01*
X140877431Y-129913720D01*
X140586280Y-129622569D01*
X140205874Y-129465000D01*
X139794126Y-129465000D01*
X139413720Y-129622569D01*
X139122569Y-129913720D01*
X138965000Y-130294126D01*
X138965000Y-130705874D01*
X139122569Y-131086280D01*
X139240001Y-131203712D01*
X139240000Y-136615150D01*
X139240000Y-137185198D01*
X139202440Y-137222758D01*
X139202440Y-135550000D01*
X139153157Y-135302235D01*
X139012809Y-135092191D01*
X138802765Y-134951843D01*
X138555000Y-134902560D01*
X137955000Y-134902560D01*
X137707235Y-134951843D01*
X137620000Y-135010132D01*
X137532765Y-134951843D01*
X137285000Y-134902560D01*
X136685000Y-134902560D01*
X136437235Y-134951843D01*
X136350000Y-135010132D01*
X136262765Y-134951843D01*
X136015000Y-134902560D01*
X135415000Y-134902560D01*
X135167235Y-134951843D01*
X135080000Y-135010132D01*
X134992765Y-134951843D01*
X134745000Y-134902560D01*
X134145000Y-134902560D01*
X133897235Y-134951843D01*
X133810000Y-135010132D01*
X133722765Y-134951843D01*
X133475000Y-134902560D01*
X132875000Y-134902560D01*
X132627235Y-134951843D01*
X132540000Y-135010132D01*
X132452765Y-134951843D01*
X132205000Y-134902560D01*
X131605000Y-134902560D01*
X131357235Y-134951843D01*
X131270000Y-135010132D01*
X131182765Y-134951843D01*
X131073901Y-134930189D01*
X140000001Y-126004091D01*
X149448514Y-135452606D01*
X149448514Y-135452606D01*
G37*
X149448514Y-135452606D02*
X149488120Y-135511880D01*
X149547394Y-135551486D01*
X149547399Y-135551491D01*
X149722972Y-135668805D01*
X150000000Y-135723909D01*
X150240001Y-135676170D01*
X150240000Y-137979136D01*
X150205874Y-137965000D01*
X149794126Y-137965000D01*
X149413720Y-138122569D01*
X149296289Y-138240000D01*
X140334802Y-138240000D01*
X140484473Y-138090329D01*
X140547929Y-138047929D01*
X140715904Y-137796537D01*
X140760000Y-137574852D01*
X140760000Y-137574848D01*
X140774888Y-137500001D01*
X140760000Y-137425154D01*
X140760000Y-131203711D01*
X140877431Y-131086280D01*
X141035000Y-130705874D01*
X141035000Y-130294126D01*
X140877431Y-129913720D01*
X140586280Y-129622569D01*
X140205874Y-129465000D01*
X139794126Y-129465000D01*
X139413720Y-129622569D01*
X139122569Y-129913720D01*
X138965000Y-130294126D01*
X138965000Y-130705874D01*
X139122569Y-131086280D01*
X139240001Y-131203712D01*
X139240000Y-136615150D01*
X139240000Y-137185198D01*
X139202440Y-137222758D01*
X139202440Y-135550000D01*
X139153157Y-135302235D01*
X139012809Y-135092191D01*
X138802765Y-134951843D01*
X138555000Y-134902560D01*
X137955000Y-134902560D01*
X137707235Y-134951843D01*
X137620000Y-135010132D01*
X137532765Y-134951843D01*
X137285000Y-134902560D01*
X136685000Y-134902560D01*
X136437235Y-134951843D01*
X136350000Y-135010132D01*
X136262765Y-134951843D01*
X136015000Y-134902560D01*
X135415000Y-134902560D01*
X135167235Y-134951843D01*
X135080000Y-135010132D01*
X134992765Y-134951843D01*
X134745000Y-134902560D01*
X134145000Y-134902560D01*
X133897235Y-134951843D01*
X133810000Y-135010132D01*
X133722765Y-134951843D01*
X133475000Y-134902560D01*
X132875000Y-134902560D01*
X132627235Y-134951843D01*
X132540000Y-135010132D01*
X132452765Y-134951843D01*
X132205000Y-134902560D01*
X131605000Y-134902560D01*
X131357235Y-134951843D01*
X131270000Y-135010132D01*
X131182765Y-134951843D01*
X131073901Y-134930189D01*
X140000001Y-126004091D01*
X149448514Y-135452606D01*
G36*
X128926097Y-134930189D02*
X128817235Y-134951843D01*
X128730000Y-135010132D01*
X128642765Y-134951843D01*
X128395000Y-134902560D01*
X127795000Y-134902560D01*
X127547235Y-134951843D01*
X127460000Y-135010132D01*
X127372765Y-134951843D01*
X127125000Y-134902560D01*
X126525000Y-134902560D01*
X126277235Y-134951843D01*
X126190000Y-135010132D01*
X126102765Y-134951843D01*
X125855000Y-134902560D01*
X125255000Y-134902560D01*
X125007235Y-134951843D01*
X124920000Y-135010132D01*
X124832765Y-134951843D01*
X124585000Y-134902560D01*
X123985000Y-134902560D01*
X123737235Y-134951843D01*
X123650000Y-135010132D01*
X123562765Y-134951843D01*
X123315000Y-134902560D01*
X122715000Y-134902560D01*
X122467235Y-134951843D01*
X122388028Y-135004768D01*
X122171310Y-134915000D01*
X122030750Y-134915000D01*
X121872000Y-135073750D01*
X121872000Y-136423000D01*
X121892000Y-136423000D01*
X121892000Y-136677000D01*
X121872000Y-136677000D01*
X121872000Y-136697000D01*
X121618000Y-136697000D01*
X121618000Y-136677000D01*
X121598000Y-136677000D01*
X121598000Y-136423000D01*
X121618000Y-136423000D01*
X121618000Y-135073750D01*
X121459250Y-134915000D01*
X121318690Y-134915000D01*
X121085301Y-135011673D01*
X120906673Y-135190302D01*
X120810000Y-135423691D01*
X120810000Y-136264250D01*
X120968748Y-136422998D01*
X120810000Y-136422998D01*
X120810000Y-136425201D01*
X120760000Y-136375201D01*
X120760000Y-131103711D01*
X120877431Y-130986280D01*
X121035000Y-130605874D01*
X121035000Y-130194126D01*
X120877431Y-129813720D01*
X120586280Y-129522569D01*
X120205874Y-129365000D01*
X119794126Y-129365000D01*
X119413720Y-129522569D01*
X119122569Y-129813720D01*
X118965000Y-130194126D01*
X118965000Y-130605874D01*
X119122569Y-130986280D01*
X119240000Y-131103711D01*
X119240001Y-136615150D01*
X119225112Y-136690002D01*
X119235057Y-136740000D01*
X117574846Y-136740000D01*
X117499999Y-136725112D01*
X117425152Y-136740000D01*
X117425148Y-136740000D01*
X117203463Y-136784096D01*
X117203461Y-136784097D01*
X117203462Y-136784097D01*
X117015526Y-136909671D01*
X117015524Y-136909673D01*
X116952071Y-136952071D01*
X116909672Y-137015525D01*
X116485198Y-137440000D01*
X110774846Y-137440000D01*
X110699999Y-137425112D01*
X110625152Y-137440000D01*
X110625148Y-137440000D01*
X110403463Y-137484096D01*
X110379661Y-137500000D01*
X110215526Y-137609671D01*
X110215524Y-137609673D01*
X110152071Y-137652071D01*
X110109672Y-137715525D01*
X109960198Y-137865000D01*
X109794126Y-137865000D01*
X109413720Y-138022569D01*
X109260000Y-138176289D01*
X109260000Y-135264092D01*
X109448514Y-135452606D01*
X109488120Y-135511880D01*
X109547394Y-135551486D01*
X109547399Y-135551491D01*
X109722972Y-135668805D01*
X110000000Y-135723909D01*
X110277028Y-135668805D01*
X110511881Y-135511881D01*
X110551494Y-135452596D01*
X120000001Y-126004091D01*
X128926097Y-134930189D01*
X128926097Y-134930189D01*
G37*
X128926097Y-134930189D02*
X128817235Y-134951843D01*
X128730000Y-135010132D01*
X128642765Y-134951843D01*
X128395000Y-134902560D01*
X127795000Y-134902560D01*
X127547235Y-134951843D01*
X127460000Y-135010132D01*
X127372765Y-134951843D01*
X127125000Y-134902560D01*
X126525000Y-134902560D01*
X126277235Y-134951843D01*
X126190000Y-135010132D01*
X126102765Y-134951843D01*
X125855000Y-134902560D01*
X125255000Y-134902560D01*
X125007235Y-134951843D01*
X124920000Y-135010132D01*
X124832765Y-134951843D01*
X124585000Y-134902560D01*
X123985000Y-134902560D01*
X123737235Y-134951843D01*
X123650000Y-135010132D01*
X123562765Y-134951843D01*
X123315000Y-134902560D01*
X122715000Y-134902560D01*
X122467235Y-134951843D01*
X122388028Y-135004768D01*
X122171310Y-134915000D01*
X122030750Y-134915000D01*
X121872000Y-135073750D01*
X121872000Y-136423000D01*
X121892000Y-136423000D01*
X121892000Y-136677000D01*
X121872000Y-136677000D01*
X121872000Y-136697000D01*
X121618000Y-136697000D01*
X121618000Y-136677000D01*
X121598000Y-136677000D01*
X121598000Y-136423000D01*
X121618000Y-136423000D01*
X121618000Y-135073750D01*
X121459250Y-134915000D01*
X121318690Y-134915000D01*
X121085301Y-135011673D01*
X120906673Y-135190302D01*
X120810000Y-135423691D01*
X120810000Y-136264250D01*
X120968748Y-136422998D01*
X120810000Y-136422998D01*
X120810000Y-136425201D01*
X120760000Y-136375201D01*
X120760000Y-131103711D01*
X120877431Y-130986280D01*
X121035000Y-130605874D01*
X121035000Y-130194126D01*
X120877431Y-129813720D01*
X120586280Y-129522569D01*
X120205874Y-129365000D01*
X119794126Y-129365000D01*
X119413720Y-129522569D01*
X119122569Y-129813720D01*
X118965000Y-130194126D01*
X118965000Y-130605874D01*
X119122569Y-130986280D01*
X119240000Y-131103711D01*
X119240001Y-136615150D01*
X119225112Y-136690002D01*
X119235057Y-136740000D01*
X117574846Y-136740000D01*
X117499999Y-136725112D01*
X117425152Y-136740000D01*
X117425148Y-136740000D01*
X117203463Y-136784096D01*
X117203461Y-136784097D01*
X117203462Y-136784097D01*
X117015526Y-136909671D01*
X117015524Y-136909673D01*
X116952071Y-136952071D01*
X116909672Y-137015525D01*
X116485198Y-137440000D01*
X110774846Y-137440000D01*
X110699999Y-137425112D01*
X110625152Y-137440000D01*
X110625148Y-137440000D01*
X110403463Y-137484096D01*
X110379661Y-137500000D01*
X110215526Y-137609671D01*
X110215524Y-137609673D01*
X110152071Y-137652071D01*
X110109672Y-137715525D01*
X109960198Y-137865000D01*
X109794126Y-137865000D01*
X109413720Y-138022569D01*
X109260000Y-138176289D01*
X109260000Y-135264092D01*
X109448514Y-135452606D01*
X109488120Y-135511880D01*
X109547394Y-135551486D01*
X109547399Y-135551491D01*
X109722972Y-135668805D01*
X110000000Y-135723909D01*
X110277028Y-135668805D01*
X110511881Y-135511881D01*
X110551494Y-135452596D01*
X120000001Y-126004091D01*
X128926097Y-134930189D01*
G04 #@! TO.N,+5V*
G36*
X121985394Y-148665000D02*
X121473690Y-148665000D01*
X121240301Y-148761673D01*
X121061673Y-148940302D01*
X120965000Y-149173691D01*
X120965000Y-150714250D01*
X121123750Y-150873000D01*
X122373000Y-150873000D01*
X122373000Y-150853000D01*
X122627000Y-150853000D01*
X122627000Y-150873000D01*
X122647000Y-150873000D01*
X122647000Y-151127000D01*
X122627000Y-151127000D01*
X122627000Y-151147000D01*
X122373000Y-151147000D01*
X122373000Y-151127000D01*
X121123750Y-151127000D01*
X120965000Y-151285750D01*
X120965000Y-152290000D01*
X120710000Y-152290000D01*
X120710000Y-150069925D01*
X120723909Y-150000000D01*
X120668805Y-149722972D01*
X120511881Y-149488119D01*
X120277028Y-149331195D01*
X120127000Y-149301353D01*
X120127000Y-149052606D01*
X120842704Y-148336902D01*
X120986280Y-148277431D01*
X121136711Y-148127000D01*
X121447394Y-148127000D01*
X121985394Y-148665000D01*
X121985394Y-148665000D01*
G37*
X121985394Y-148665000D02*
X121473690Y-148665000D01*
X121240301Y-148761673D01*
X121061673Y-148940302D01*
X120965000Y-149173691D01*
X120965000Y-150714250D01*
X121123750Y-150873000D01*
X122373000Y-150873000D01*
X122373000Y-150853000D01*
X122627000Y-150853000D01*
X122627000Y-150873000D01*
X122647000Y-150873000D01*
X122647000Y-151127000D01*
X122627000Y-151127000D01*
X122627000Y-151147000D01*
X122373000Y-151147000D01*
X122373000Y-151127000D01*
X121123750Y-151127000D01*
X120965000Y-151285750D01*
X120965000Y-152290000D01*
X120710000Y-152290000D01*
X120710000Y-150069925D01*
X120723909Y-150000000D01*
X120668805Y-149722972D01*
X120511881Y-149488119D01*
X120277028Y-149331195D01*
X120127000Y-149301353D01*
X120127000Y-149052606D01*
X120842704Y-148336902D01*
X120986280Y-148277431D01*
X121136711Y-148127000D01*
X121447394Y-148127000D01*
X121985394Y-148665000D01*
G04 #@! TD*
M02*
