G04 #@! TF.GenerationSoftware,KiCad,Pcbnew,(5.0.2)-1*
G04 #@! TF.CreationDate,2019-01-07T22:52:12+09:00*
G04 #@! TF.ProjectId,Grass,47726173-732e-46b6-9963-61645f706362,rev?*
G04 #@! TF.SameCoordinates,Original*
G04 #@! TF.FileFunction,Legend,Top*
G04 #@! TF.FilePolarity,Positive*
%FSLAX46Y46*%
G04 Gerber Fmt 4.6, Leading zero omitted, Abs format (unit mm)*
G04 Created by KiCad (PCBNEW (5.0.2)-1) date 2019/01/07 22:52:12*
%MOMM*%
%LPD*%
G01*
G04 APERTURE LIST*
%ADD10C,0.150000*%
%ADD11C,0.120000*%
G04 APERTURE END LIST*
D10*
G04 #@! TO.C,TP4*
X138600000Y-152900000D02*
X136400000Y-152900000D01*
X138600000Y-149100000D02*
X138600000Y-152900000D01*
X136400000Y-149100000D02*
X138600000Y-149100000D01*
X136400000Y-152900000D02*
X136400000Y-149100000D01*
G04 #@! TO.C,TP1*
X123600000Y-152900000D02*
X121400000Y-152900000D01*
X123600000Y-149100000D02*
X123600000Y-152900000D01*
X121400000Y-149100000D02*
X123600000Y-149100000D01*
X121400000Y-152900000D02*
X121400000Y-149100000D01*
G04 #@! TO.C,TP2*
X128600000Y-152900000D02*
X126400000Y-152900000D01*
X128600000Y-149100000D02*
X128600000Y-152900000D01*
X126400000Y-149100000D02*
X128600000Y-149100000D01*
X126400000Y-152900000D02*
X126400000Y-149100000D01*
G04 #@! TO.C,TP3*
X131400000Y-152900000D02*
X131400000Y-149100000D01*
X131400000Y-149100000D02*
X133600000Y-149100000D01*
X133600000Y-149100000D02*
X133600000Y-152900000D01*
X133600000Y-152900000D02*
X131400000Y-152900000D01*
G04 #@! TO.C,D1*
X115000000Y-148500000D02*
X115250000Y-148000000D01*
X115000000Y-148500000D02*
X114750000Y-148000000D01*
X114750000Y-148000000D02*
X115250000Y-148000000D01*
D11*
X114300000Y-149700000D02*
X114300000Y-146800000D01*
X115700000Y-146800000D02*
X115700000Y-149700000D01*
X114300000Y-146800000D02*
X115700000Y-146800000D01*
X114300000Y-149700000D02*
X115700000Y-149700000D01*
G04 #@! TO.C,D2*
X100479720Y-148530330D02*
X101469670Y-149520280D01*
X102530330Y-146479720D02*
X103520280Y-147469670D01*
X103520280Y-147469670D02*
X101469670Y-149520280D01*
X100479720Y-148530330D02*
X102530330Y-146479720D01*
D10*
X102000000Y-147646447D02*
X102353553Y-148000000D01*
X101823223Y-148176777D02*
X102000000Y-147646447D01*
X101823223Y-148176777D02*
X102353553Y-148000000D01*
G04 #@! TO.C,D3*
X101623223Y-128123223D02*
X101800000Y-128653553D01*
X101623223Y-128123223D02*
X102153553Y-128300000D01*
X102153553Y-128300000D02*
X101800000Y-128653553D01*
D11*
X101269670Y-126779720D02*
X103320280Y-128830330D01*
X102330330Y-129820280D02*
X100279720Y-127769670D01*
X103320280Y-128830330D02*
X102330330Y-129820280D01*
X101269670Y-126779720D02*
X100279720Y-127769670D01*
G04 #@! TO.C,D4*
X110700000Y-135300000D02*
X109300000Y-135300000D01*
X110700000Y-138200000D02*
X109300000Y-138200000D01*
X109300000Y-138200000D02*
X109300000Y-135300000D01*
X110700000Y-135300000D02*
X110700000Y-138200000D01*
D10*
X110250000Y-137000000D02*
X109750000Y-137000000D01*
X110000000Y-136500000D02*
X110250000Y-137000000D01*
X110000000Y-136500000D02*
X109750000Y-137000000D01*
G04 #@! TO.C,D5*
X120000000Y-128000000D02*
X119750000Y-128500000D01*
X120000000Y-128000000D02*
X120250000Y-128500000D01*
X120250000Y-128500000D02*
X119750000Y-128500000D01*
D11*
X120700000Y-126800000D02*
X120700000Y-129700000D01*
X119300000Y-129700000D02*
X119300000Y-126800000D01*
X120700000Y-129700000D02*
X119300000Y-129700000D01*
X120700000Y-126800000D02*
X119300000Y-126800000D01*
D10*
G04 #@! TO.C,D7*
X140000000Y-128000000D02*
X139750000Y-128500000D01*
X140000000Y-128000000D02*
X140250000Y-128500000D01*
X140250000Y-128500000D02*
X139750000Y-128500000D01*
D11*
X140700000Y-126800000D02*
X140700000Y-129700000D01*
X139300000Y-129700000D02*
X139300000Y-126800000D01*
X140700000Y-129700000D02*
X139300000Y-129700000D01*
X140700000Y-126800000D02*
X139300000Y-126800000D01*
G04 #@! TO.C,D8*
X150700000Y-135300000D02*
X149300000Y-135300000D01*
X150700000Y-138200000D02*
X149300000Y-138200000D01*
X149300000Y-138200000D02*
X149300000Y-135300000D01*
X150700000Y-135300000D02*
X150700000Y-138200000D01*
D10*
X150250000Y-137000000D02*
X149750000Y-137000000D01*
X150000000Y-136500000D02*
X150250000Y-137000000D01*
X150000000Y-136500000D02*
X149750000Y-137000000D01*
D11*
G04 #@! TO.C,D9*
X159720280Y-127769670D02*
X158730330Y-126779720D01*
X157669670Y-129820280D02*
X156679720Y-128830330D01*
X156679720Y-128830330D02*
X158730330Y-126779720D01*
X159720280Y-127769670D02*
X157669670Y-129820280D01*
D10*
X158200000Y-128653553D02*
X157846447Y-128300000D01*
X158376777Y-128123223D02*
X158200000Y-128653553D01*
X158376777Y-128123223D02*
X157846447Y-128300000D01*
G04 #@! TO.C,D10*
X158242462Y-148242462D02*
X158065685Y-147712132D01*
X158242462Y-148242462D02*
X157712132Y-148065685D01*
X157712132Y-148065685D02*
X158065685Y-147712132D01*
D11*
X158596015Y-149585965D02*
X156545405Y-147535355D01*
X157535355Y-146545405D02*
X159585965Y-148596015D01*
X156545405Y-147535355D02*
X157535355Y-146545405D01*
X158596015Y-149585965D02*
X159585965Y-148596015D01*
G04 #@! TO.C,D11*
X144300000Y-149700000D02*
X145700000Y-149700000D01*
X144300000Y-146800000D02*
X145700000Y-146800000D01*
X145700000Y-146800000D02*
X145700000Y-149700000D01*
X144300000Y-149700000D02*
X144300000Y-146800000D01*
D10*
X144750000Y-148000000D02*
X145250000Y-148000000D01*
X145000000Y-148500000D02*
X144750000Y-148000000D01*
X145000000Y-148500000D02*
X145250000Y-148000000D01*
D11*
G04 #@! TO.C,D6*
X130700000Y-135300000D02*
X129300000Y-135300000D01*
X130700000Y-138200000D02*
X129300000Y-138200000D01*
X129300000Y-138200000D02*
X129300000Y-135300000D01*
X130700000Y-135300000D02*
X130700000Y-138200000D01*
D10*
X130250000Y-137000000D02*
X129750000Y-137000000D01*
X130000000Y-136500000D02*
X130250000Y-137000000D01*
X130000000Y-136500000D02*
X129750000Y-137000000D01*
G04 #@! TD*
M02*
