G04 #@! TF.GenerationSoftware,KiCad,Pcbnew,(5.0.2)-1*
G04 #@! TF.CreationDate,2023-09-18T18:41:06+09:00*
G04 #@! TF.ProjectId,Building,4275696c-6469-46e6-972e-6b696361645f,rev?*
G04 #@! TF.SameCoordinates,Original*
G04 #@! TF.FileFunction,Soldermask,Bot*
G04 #@! TF.FilePolarity,Negative*
%FSLAX46Y46*%
G04 Gerber Fmt 4.6, Leading zero omitted, Abs format (unit mm)*
G04 Created by KiCad (PCBNEW (5.0.2)-1) date 2023/09/18 18:41:06*
%MOMM*%
%LPD*%
G01*
G04 APERTURE LIST*
%ADD10C,0.150000*%
%ADD11C,0.100000*%
G04 APERTURE END LIST*
D10*
G36*
X130729000Y-129765500D02*
X145729000Y-129765500D01*
X145729000Y-140265500D01*
X130729000Y-140265500D01*
X130729000Y-129765500D01*
G37*
X130729000Y-129765500D02*
X145729000Y-129765500D01*
X145729000Y-140265500D01*
X130729000Y-140265500D01*
X130729000Y-129765500D01*
D11*
G36*
X139015000Y-140261500D02*
X137443000Y-140261500D01*
X137443000Y-131269500D01*
X139015000Y-131269500D01*
X139015000Y-140261500D01*
X139015000Y-140261500D01*
G37*
G36*
X141555000Y-140261500D02*
X139983000Y-140261500D01*
X139983000Y-131269500D01*
X141555000Y-131269500D01*
X141555000Y-140261500D01*
X141555000Y-140261500D01*
G37*
G36*
X144095000Y-140261500D02*
X142523000Y-140261500D01*
X142523000Y-131269500D01*
X144095000Y-131269500D01*
X144095000Y-140261500D01*
X144095000Y-140261500D01*
G37*
G36*
X136475000Y-140261500D02*
X134903000Y-140261500D01*
X134903000Y-131269500D01*
X136475000Y-131269500D01*
X136475000Y-140261500D01*
X136475000Y-140261500D01*
G37*
G36*
X133935000Y-140261500D02*
X132363000Y-140261500D01*
X132363000Y-131269500D01*
X133935000Y-131269500D01*
X133935000Y-140261500D01*
X133935000Y-140261500D01*
G37*
G36*
X130717142Y-119068242D02*
X130865102Y-119129530D01*
X130998258Y-119218502D01*
X131111498Y-119331742D01*
X131200470Y-119464898D01*
X131261758Y-119612858D01*
X131293000Y-119769925D01*
X131293000Y-119930075D01*
X131261758Y-120087142D01*
X131200470Y-120235102D01*
X131111498Y-120368258D01*
X130998258Y-120481498D01*
X130865102Y-120570470D01*
X130717142Y-120631758D01*
X130560075Y-120663000D01*
X130399925Y-120663000D01*
X130242858Y-120631758D01*
X130094898Y-120570470D01*
X129961742Y-120481498D01*
X129848502Y-120368258D01*
X129759530Y-120235102D01*
X129698242Y-120087142D01*
X129667000Y-119930075D01*
X129667000Y-119769925D01*
X129698242Y-119612858D01*
X129759530Y-119464898D01*
X129848502Y-119331742D01*
X129961742Y-119218502D01*
X130094898Y-119129530D01*
X130242858Y-119068242D01*
X130399925Y-119037000D01*
X130560075Y-119037000D01*
X130717142Y-119068242D01*
X130717142Y-119068242D01*
G37*
G36*
X133257142Y-119068242D02*
X133405102Y-119129530D01*
X133538258Y-119218502D01*
X133651498Y-119331742D01*
X133740470Y-119464898D01*
X133801758Y-119612858D01*
X133833000Y-119769925D01*
X133833000Y-119930075D01*
X133801758Y-120087142D01*
X133740470Y-120235102D01*
X133651498Y-120368258D01*
X133538258Y-120481498D01*
X133405102Y-120570470D01*
X133257142Y-120631758D01*
X133100075Y-120663000D01*
X132939925Y-120663000D01*
X132782858Y-120631758D01*
X132634898Y-120570470D01*
X132501742Y-120481498D01*
X132388502Y-120368258D01*
X132299530Y-120235102D01*
X132238242Y-120087142D01*
X132207000Y-119930075D01*
X132207000Y-119769925D01*
X132238242Y-119612858D01*
X132299530Y-119464898D01*
X132388502Y-119331742D01*
X132501742Y-119218502D01*
X132634898Y-119129530D01*
X132782858Y-119068242D01*
X132939925Y-119037000D01*
X133100075Y-119037000D01*
X133257142Y-119068242D01*
X133257142Y-119068242D01*
G37*
G36*
X135797142Y-119068242D02*
X135945102Y-119129530D01*
X136078258Y-119218502D01*
X136191498Y-119331742D01*
X136280470Y-119464898D01*
X136341758Y-119612858D01*
X136373000Y-119769925D01*
X136373000Y-119930075D01*
X136341758Y-120087142D01*
X136280470Y-120235102D01*
X136191498Y-120368258D01*
X136078258Y-120481498D01*
X135945102Y-120570470D01*
X135797142Y-120631758D01*
X135640075Y-120663000D01*
X135479925Y-120663000D01*
X135322858Y-120631758D01*
X135174898Y-120570470D01*
X135041742Y-120481498D01*
X134928502Y-120368258D01*
X134839530Y-120235102D01*
X134778242Y-120087142D01*
X134747000Y-119930075D01*
X134747000Y-119769925D01*
X134778242Y-119612858D01*
X134839530Y-119464898D01*
X134928502Y-119331742D01*
X135041742Y-119218502D01*
X135174898Y-119129530D01*
X135322858Y-119068242D01*
X135479925Y-119037000D01*
X135640075Y-119037000D01*
X135797142Y-119068242D01*
X135797142Y-119068242D01*
G37*
G36*
X143417142Y-119068242D02*
X143565102Y-119129530D01*
X143698258Y-119218502D01*
X143811498Y-119331742D01*
X143900470Y-119464898D01*
X143961758Y-119612858D01*
X143993000Y-119769925D01*
X143993000Y-119930075D01*
X143961758Y-120087142D01*
X143900470Y-120235102D01*
X143811498Y-120368258D01*
X143698258Y-120481498D01*
X143565102Y-120570470D01*
X143417142Y-120631758D01*
X143260075Y-120663000D01*
X143099925Y-120663000D01*
X142942858Y-120631758D01*
X142794898Y-120570470D01*
X142661742Y-120481498D01*
X142548502Y-120368258D01*
X142459530Y-120235102D01*
X142398242Y-120087142D01*
X142367000Y-119930075D01*
X142367000Y-119769925D01*
X142398242Y-119612858D01*
X142459530Y-119464898D01*
X142548502Y-119331742D01*
X142661742Y-119218502D01*
X142794898Y-119129530D01*
X142942858Y-119068242D01*
X143099925Y-119037000D01*
X143260075Y-119037000D01*
X143417142Y-119068242D01*
X143417142Y-119068242D01*
G37*
G36*
X125637142Y-119068242D02*
X125785102Y-119129530D01*
X125918258Y-119218502D01*
X126031498Y-119331742D01*
X126120470Y-119464898D01*
X126181758Y-119612858D01*
X126213000Y-119769925D01*
X126213000Y-119930075D01*
X126181758Y-120087142D01*
X126120470Y-120235102D01*
X126031498Y-120368258D01*
X125918258Y-120481498D01*
X125785102Y-120570470D01*
X125637142Y-120631758D01*
X125480075Y-120663000D01*
X125319925Y-120663000D01*
X125162858Y-120631758D01*
X125014898Y-120570470D01*
X124881742Y-120481498D01*
X124768502Y-120368258D01*
X124679530Y-120235102D01*
X124618242Y-120087142D01*
X124587000Y-119930075D01*
X124587000Y-119769925D01*
X124618242Y-119612858D01*
X124679530Y-119464898D01*
X124768502Y-119331742D01*
X124881742Y-119218502D01*
X125014898Y-119129530D01*
X125162858Y-119068242D01*
X125319925Y-119037000D01*
X125480075Y-119037000D01*
X125637142Y-119068242D01*
X125637142Y-119068242D01*
G37*
G36*
X159595000Y-118523000D02*
X158693000Y-118523000D01*
X158693000Y-117621000D01*
X159595000Y-117621000D01*
X159595000Y-118523000D01*
X159595000Y-118523000D01*
G37*
G36*
X161195000Y-118523000D02*
X160293000Y-118523000D01*
X160293000Y-117621000D01*
X161195000Y-117621000D01*
X161195000Y-118523000D01*
X161195000Y-118523000D01*
G37*
G36*
X165441000Y-116010000D02*
X163339000Y-116010000D01*
X163339000Y-115308000D01*
X165441000Y-115308000D01*
X165441000Y-116010000D01*
X165441000Y-116010000D01*
G37*
G36*
X156041000Y-116010000D02*
X153939000Y-116010000D01*
X153939000Y-115308000D01*
X156041000Y-115308000D01*
X156041000Y-116010000D01*
X156041000Y-116010000D01*
G37*
G36*
X156041000Y-114740000D02*
X153939000Y-114740000D01*
X153939000Y-114038000D01*
X156041000Y-114038000D01*
X156041000Y-114740000D01*
X156041000Y-114740000D01*
G37*
G36*
X165441000Y-114740000D02*
X163339000Y-114740000D01*
X163339000Y-114038000D01*
X165441000Y-114038000D01*
X165441000Y-114740000D01*
X165441000Y-114740000D01*
G37*
G36*
X156041000Y-113470000D02*
X153939000Y-113470000D01*
X153939000Y-112768000D01*
X156041000Y-112768000D01*
X156041000Y-113470000D01*
X156041000Y-113470000D01*
G37*
G36*
X165441000Y-113470000D02*
X163339000Y-113470000D01*
X163339000Y-112768000D01*
X165441000Y-112768000D01*
X165441000Y-113470000D01*
X165441000Y-113470000D01*
G37*
G36*
X156041000Y-112200000D02*
X153939000Y-112200000D01*
X153939000Y-111498000D01*
X156041000Y-111498000D01*
X156041000Y-112200000D01*
X156041000Y-112200000D01*
G37*
G36*
X165441000Y-112200000D02*
X163339000Y-112200000D01*
X163339000Y-111498000D01*
X165441000Y-111498000D01*
X165441000Y-112200000D01*
X165441000Y-112200000D01*
G37*
G36*
X165441000Y-110930000D02*
X163339000Y-110930000D01*
X163339000Y-110228000D01*
X165441000Y-110228000D01*
X165441000Y-110930000D01*
X165441000Y-110930000D01*
G37*
G36*
X156041000Y-110930000D02*
X153939000Y-110930000D01*
X153939000Y-110228000D01*
X156041000Y-110228000D01*
X156041000Y-110930000D01*
X156041000Y-110930000D01*
G37*
G36*
X140877142Y-108908242D02*
X140963224Y-108943899D01*
X141000490Y-108959335D01*
X141025102Y-108969530D01*
X141028303Y-108971669D01*
X141158257Y-109058501D01*
X141271499Y-109171743D01*
X141283784Y-109190129D01*
X141360470Y-109304898D01*
X141421758Y-109452858D01*
X141453000Y-109609925D01*
X141453000Y-109770075D01*
X141421758Y-109927142D01*
X141396131Y-109989009D01*
X141360471Y-110075100D01*
X141280151Y-110195309D01*
X141271498Y-110208258D01*
X141158258Y-110321498D01*
X141025102Y-110410470D01*
X141025101Y-110410471D01*
X141025100Y-110410471D01*
X140996091Y-110422487D01*
X140877142Y-110471758D01*
X140720075Y-110503000D01*
X140559925Y-110503000D01*
X140402858Y-110471758D01*
X140283909Y-110422487D01*
X140254900Y-110410471D01*
X140254899Y-110410471D01*
X140254898Y-110410470D01*
X140121742Y-110321498D01*
X140008502Y-110208258D01*
X139999850Y-110195309D01*
X139919529Y-110075100D01*
X139883869Y-109989009D01*
X139858242Y-109927142D01*
X139827000Y-109770075D01*
X139827000Y-109609925D01*
X139858242Y-109452858D01*
X139919530Y-109304898D01*
X139996216Y-109190129D01*
X140008501Y-109171743D01*
X140121743Y-109058501D01*
X140251697Y-108971669D01*
X140254898Y-108969530D01*
X140279511Y-108959335D01*
X140316776Y-108943899D01*
X140402858Y-108908242D01*
X140559925Y-108877000D01*
X140720075Y-108877000D01*
X140877142Y-108908242D01*
X140877142Y-108908242D01*
G37*
G36*
X125637142Y-108908242D02*
X125723224Y-108943899D01*
X125760490Y-108959335D01*
X125785102Y-108969530D01*
X125788303Y-108971669D01*
X125918257Y-109058501D01*
X126031499Y-109171743D01*
X126043784Y-109190129D01*
X126120470Y-109304898D01*
X126181758Y-109452858D01*
X126213000Y-109609925D01*
X126213000Y-109770075D01*
X126181758Y-109927142D01*
X126156131Y-109989009D01*
X126120471Y-110075100D01*
X126040151Y-110195309D01*
X126031498Y-110208258D01*
X125918258Y-110321498D01*
X125785102Y-110410470D01*
X125785101Y-110410471D01*
X125785100Y-110410471D01*
X125756091Y-110422487D01*
X125637142Y-110471758D01*
X125480075Y-110503000D01*
X125319925Y-110503000D01*
X125162858Y-110471758D01*
X125043909Y-110422487D01*
X125014900Y-110410471D01*
X125014899Y-110410471D01*
X125014898Y-110410470D01*
X124881742Y-110321498D01*
X124768502Y-110208258D01*
X124759850Y-110195309D01*
X124679529Y-110075100D01*
X124643869Y-109989009D01*
X124618242Y-109927142D01*
X124587000Y-109770075D01*
X124587000Y-109609925D01*
X124618242Y-109452858D01*
X124679530Y-109304898D01*
X124756216Y-109190129D01*
X124768501Y-109171743D01*
X124881743Y-109058501D01*
X125011697Y-108971669D01*
X125014898Y-108969530D01*
X125039511Y-108959335D01*
X125076776Y-108943899D01*
X125162858Y-108908242D01*
X125319925Y-108877000D01*
X125480075Y-108877000D01*
X125637142Y-108908242D01*
X125637142Y-108908242D01*
G37*
G36*
X151037142Y-108908242D02*
X151123224Y-108943899D01*
X151160490Y-108959335D01*
X151185102Y-108969530D01*
X151188303Y-108971669D01*
X151318257Y-109058501D01*
X151431499Y-109171743D01*
X151443784Y-109190129D01*
X151520470Y-109304898D01*
X151581758Y-109452858D01*
X151613000Y-109609925D01*
X151613000Y-109770075D01*
X151581758Y-109927142D01*
X151556131Y-109989009D01*
X151520471Y-110075100D01*
X151440151Y-110195309D01*
X151431498Y-110208258D01*
X151318258Y-110321498D01*
X151185102Y-110410470D01*
X151185101Y-110410471D01*
X151185100Y-110410471D01*
X151156091Y-110422487D01*
X151037142Y-110471758D01*
X150880075Y-110503000D01*
X150719925Y-110503000D01*
X150562858Y-110471758D01*
X150443909Y-110422487D01*
X150414900Y-110410471D01*
X150414899Y-110410471D01*
X150414898Y-110410470D01*
X150281742Y-110321498D01*
X150168502Y-110208258D01*
X150159850Y-110195309D01*
X150079529Y-110075100D01*
X150043869Y-109989009D01*
X150018242Y-109927142D01*
X149987000Y-109770075D01*
X149987000Y-109609925D01*
X150018242Y-109452858D01*
X150079530Y-109304898D01*
X150156216Y-109190129D01*
X150168501Y-109171743D01*
X150281743Y-109058501D01*
X150411697Y-108971669D01*
X150414898Y-108969530D01*
X150439511Y-108959335D01*
X150476776Y-108943899D01*
X150562858Y-108908242D01*
X150719925Y-108877000D01*
X150880075Y-108877000D01*
X151037142Y-108908242D01*
X151037142Y-108908242D01*
G37*
G36*
X148497142Y-108908242D02*
X148583224Y-108943899D01*
X148620490Y-108959335D01*
X148645102Y-108969530D01*
X148648303Y-108971669D01*
X148778257Y-109058501D01*
X148891499Y-109171743D01*
X148903784Y-109190129D01*
X148980470Y-109304898D01*
X149041758Y-109452858D01*
X149073000Y-109609925D01*
X149073000Y-109770075D01*
X149041758Y-109927142D01*
X149016131Y-109989009D01*
X148980471Y-110075100D01*
X148900151Y-110195309D01*
X148891498Y-110208258D01*
X148778258Y-110321498D01*
X148645102Y-110410470D01*
X148645101Y-110410471D01*
X148645100Y-110410471D01*
X148616091Y-110422487D01*
X148497142Y-110471758D01*
X148340075Y-110503000D01*
X148179925Y-110503000D01*
X148022858Y-110471758D01*
X147903909Y-110422487D01*
X147874900Y-110410471D01*
X147874899Y-110410471D01*
X147874898Y-110410470D01*
X147741742Y-110321498D01*
X147628502Y-110208258D01*
X147619850Y-110195309D01*
X147539529Y-110075100D01*
X147503869Y-109989009D01*
X147478242Y-109927142D01*
X147447000Y-109770075D01*
X147447000Y-109609925D01*
X147478242Y-109452858D01*
X147539530Y-109304898D01*
X147616216Y-109190129D01*
X147628501Y-109171743D01*
X147741743Y-109058501D01*
X147871697Y-108971669D01*
X147874898Y-108969530D01*
X147899511Y-108959335D01*
X147936776Y-108943899D01*
X148022858Y-108908242D01*
X148179925Y-108877000D01*
X148340075Y-108877000D01*
X148497142Y-108908242D01*
X148497142Y-108908242D01*
G37*
G36*
X145957142Y-108908242D02*
X146043224Y-108943899D01*
X146080490Y-108959335D01*
X146105102Y-108969530D01*
X146108303Y-108971669D01*
X146238257Y-109058501D01*
X146351499Y-109171743D01*
X146363784Y-109190129D01*
X146440470Y-109304898D01*
X146501758Y-109452858D01*
X146533000Y-109609925D01*
X146533000Y-109770075D01*
X146501758Y-109927142D01*
X146476131Y-109989009D01*
X146440471Y-110075100D01*
X146360151Y-110195309D01*
X146351498Y-110208258D01*
X146238258Y-110321498D01*
X146105102Y-110410470D01*
X146105101Y-110410471D01*
X146105100Y-110410471D01*
X146076091Y-110422487D01*
X145957142Y-110471758D01*
X145800075Y-110503000D01*
X145639925Y-110503000D01*
X145482858Y-110471758D01*
X145363909Y-110422487D01*
X145334900Y-110410471D01*
X145334899Y-110410471D01*
X145334898Y-110410470D01*
X145201742Y-110321498D01*
X145088502Y-110208258D01*
X145079850Y-110195309D01*
X144999529Y-110075100D01*
X144963869Y-109989009D01*
X144938242Y-109927142D01*
X144907000Y-109770075D01*
X144907000Y-109609925D01*
X144938242Y-109452858D01*
X144999530Y-109304898D01*
X145076216Y-109190129D01*
X145088501Y-109171743D01*
X145201743Y-109058501D01*
X145331697Y-108971669D01*
X145334898Y-108969530D01*
X145359511Y-108959335D01*
X145396776Y-108943899D01*
X145482858Y-108908242D01*
X145639925Y-108877000D01*
X145800075Y-108877000D01*
X145957142Y-108908242D01*
X145957142Y-108908242D01*
G37*
G36*
X130717142Y-108908242D02*
X130803224Y-108943899D01*
X130840490Y-108959335D01*
X130865102Y-108969530D01*
X130868303Y-108971669D01*
X130998257Y-109058501D01*
X131111499Y-109171743D01*
X131123784Y-109190129D01*
X131200470Y-109304898D01*
X131261758Y-109452858D01*
X131293000Y-109609925D01*
X131293000Y-109770075D01*
X131261758Y-109927142D01*
X131236131Y-109989009D01*
X131200471Y-110075100D01*
X131120151Y-110195309D01*
X131111498Y-110208258D01*
X130998258Y-110321498D01*
X130865102Y-110410470D01*
X130865101Y-110410471D01*
X130865100Y-110410471D01*
X130836091Y-110422487D01*
X130717142Y-110471758D01*
X130560075Y-110503000D01*
X130399925Y-110503000D01*
X130242858Y-110471758D01*
X130123909Y-110422487D01*
X130094900Y-110410471D01*
X130094899Y-110410471D01*
X130094898Y-110410470D01*
X129961742Y-110321498D01*
X129848502Y-110208258D01*
X129839850Y-110195309D01*
X129759529Y-110075100D01*
X129723869Y-109989009D01*
X129698242Y-109927142D01*
X129667000Y-109770075D01*
X129667000Y-109609925D01*
X129698242Y-109452858D01*
X129759530Y-109304898D01*
X129836216Y-109190129D01*
X129848501Y-109171743D01*
X129961743Y-109058501D01*
X130091697Y-108971669D01*
X130094898Y-108969530D01*
X130119511Y-108959335D01*
X130156776Y-108943899D01*
X130242858Y-108908242D01*
X130399925Y-108877000D01*
X130560075Y-108877000D01*
X130717142Y-108908242D01*
X130717142Y-108908242D01*
G37*
G36*
X143417142Y-108908242D02*
X143503224Y-108943899D01*
X143540490Y-108959335D01*
X143565102Y-108969530D01*
X143568303Y-108971669D01*
X143698257Y-109058501D01*
X143811499Y-109171743D01*
X143823784Y-109190129D01*
X143900470Y-109304898D01*
X143961758Y-109452858D01*
X143993000Y-109609925D01*
X143993000Y-109770075D01*
X143961758Y-109927142D01*
X143936131Y-109989009D01*
X143900471Y-110075100D01*
X143820151Y-110195309D01*
X143811498Y-110208258D01*
X143698258Y-110321498D01*
X143565102Y-110410470D01*
X143565101Y-110410471D01*
X143565100Y-110410471D01*
X143536091Y-110422487D01*
X143417142Y-110471758D01*
X143260075Y-110503000D01*
X143099925Y-110503000D01*
X142942858Y-110471758D01*
X142823909Y-110422487D01*
X142794900Y-110410471D01*
X142794899Y-110410471D01*
X142794898Y-110410470D01*
X142661742Y-110321498D01*
X142548502Y-110208258D01*
X142539850Y-110195309D01*
X142459529Y-110075100D01*
X142423869Y-109989009D01*
X142398242Y-109927142D01*
X142367000Y-109770075D01*
X142367000Y-109609925D01*
X142398242Y-109452858D01*
X142459530Y-109304898D01*
X142536216Y-109190129D01*
X142548501Y-109171743D01*
X142661743Y-109058501D01*
X142791697Y-108971669D01*
X142794898Y-108969530D01*
X142819511Y-108959335D01*
X142856776Y-108943899D01*
X142942858Y-108908242D01*
X143099925Y-108877000D01*
X143260075Y-108877000D01*
X143417142Y-108908242D01*
X143417142Y-108908242D01*
G37*
G36*
X138337142Y-108908242D02*
X138423224Y-108943899D01*
X138460490Y-108959335D01*
X138485102Y-108969530D01*
X138488303Y-108971669D01*
X138618257Y-109058501D01*
X138731499Y-109171743D01*
X138743784Y-109190129D01*
X138820470Y-109304898D01*
X138881758Y-109452858D01*
X138913000Y-109609925D01*
X138913000Y-109770075D01*
X138881758Y-109927142D01*
X138856131Y-109989009D01*
X138820471Y-110075100D01*
X138740151Y-110195309D01*
X138731498Y-110208258D01*
X138618258Y-110321498D01*
X138485102Y-110410470D01*
X138485101Y-110410471D01*
X138485100Y-110410471D01*
X138456091Y-110422487D01*
X138337142Y-110471758D01*
X138180075Y-110503000D01*
X138019925Y-110503000D01*
X137862858Y-110471758D01*
X137743909Y-110422487D01*
X137714900Y-110410471D01*
X137714899Y-110410471D01*
X137714898Y-110410470D01*
X137581742Y-110321498D01*
X137468502Y-110208258D01*
X137459850Y-110195309D01*
X137379529Y-110075100D01*
X137343869Y-109989009D01*
X137318242Y-109927142D01*
X137287000Y-109770075D01*
X137287000Y-109609925D01*
X137318242Y-109452858D01*
X137379530Y-109304898D01*
X137456216Y-109190129D01*
X137468501Y-109171743D01*
X137581743Y-109058501D01*
X137711697Y-108971669D01*
X137714898Y-108969530D01*
X137739511Y-108959335D01*
X137776776Y-108943899D01*
X137862858Y-108908242D01*
X138019925Y-108877000D01*
X138180075Y-108877000D01*
X138337142Y-108908242D01*
X138337142Y-108908242D01*
G37*
G36*
X133257142Y-108908242D02*
X133343224Y-108943899D01*
X133380490Y-108959335D01*
X133405102Y-108969530D01*
X133408303Y-108971669D01*
X133538257Y-109058501D01*
X133651499Y-109171743D01*
X133663784Y-109190129D01*
X133740470Y-109304898D01*
X133801758Y-109452858D01*
X133833000Y-109609925D01*
X133833000Y-109770075D01*
X133801758Y-109927142D01*
X133776131Y-109989009D01*
X133740471Y-110075100D01*
X133660151Y-110195309D01*
X133651498Y-110208258D01*
X133538258Y-110321498D01*
X133405102Y-110410470D01*
X133405101Y-110410471D01*
X133405100Y-110410471D01*
X133376091Y-110422487D01*
X133257142Y-110471758D01*
X133100075Y-110503000D01*
X132939925Y-110503000D01*
X132782858Y-110471758D01*
X132663909Y-110422487D01*
X132634900Y-110410471D01*
X132634899Y-110410471D01*
X132634898Y-110410470D01*
X132501742Y-110321498D01*
X132388502Y-110208258D01*
X132379850Y-110195309D01*
X132299529Y-110075100D01*
X132263869Y-109989009D01*
X132238242Y-109927142D01*
X132207000Y-109770075D01*
X132207000Y-109609925D01*
X132238242Y-109452858D01*
X132299530Y-109304898D01*
X132376216Y-109190129D01*
X132388501Y-109171743D01*
X132501743Y-109058501D01*
X132631697Y-108971669D01*
X132634898Y-108969530D01*
X132659511Y-108959335D01*
X132696776Y-108943899D01*
X132782858Y-108908242D01*
X132939925Y-108877000D01*
X133100075Y-108877000D01*
X133257142Y-108908242D01*
X133257142Y-108908242D01*
G37*
G36*
X119671999Y-108889737D02*
X119681611Y-108892653D01*
X119690469Y-108897388D01*
X119698237Y-108903763D01*
X119708446Y-108916202D01*
X119715372Y-108926568D01*
X119732698Y-108943895D01*
X119753073Y-108957510D01*
X119775711Y-108966888D01*
X119799745Y-108971669D01*
X119824249Y-108971669D01*
X119848283Y-108966889D01*
X119870922Y-108957513D01*
X119891297Y-108943899D01*
X119908624Y-108926573D01*
X119915552Y-108916204D01*
X119925763Y-108903763D01*
X119933531Y-108897388D01*
X119942389Y-108892653D01*
X119952001Y-108889737D01*
X119968140Y-108888148D01*
X120455860Y-108888148D01*
X120474198Y-108889954D01*
X120486450Y-108890556D01*
X120504869Y-108890556D01*
X120527149Y-108892750D01*
X120611236Y-108909476D01*
X120632655Y-108915974D01*
X120711871Y-108948785D01*
X120731607Y-108959335D01*
X120802897Y-109006969D01*
X120820208Y-109021176D01*
X120880824Y-109081792D01*
X120895031Y-109099103D01*
X120942665Y-109170393D01*
X120953215Y-109190129D01*
X120986026Y-109269345D01*
X120992524Y-109290764D01*
X121009250Y-109374851D01*
X121011444Y-109397131D01*
X121011444Y-109415550D01*
X121012046Y-109427802D01*
X121013852Y-109446140D01*
X121013852Y-109933861D01*
X121012046Y-109952198D01*
X121011444Y-109964450D01*
X121011444Y-109982869D01*
X121009250Y-110005149D01*
X120992524Y-110089236D01*
X120986026Y-110110655D01*
X120953215Y-110189871D01*
X120942665Y-110209607D01*
X120895031Y-110280897D01*
X120880824Y-110298208D01*
X120820208Y-110358824D01*
X120802897Y-110373031D01*
X120731607Y-110420665D01*
X120711871Y-110431215D01*
X120632655Y-110464026D01*
X120611236Y-110470524D01*
X120527149Y-110487250D01*
X120504869Y-110489444D01*
X120486450Y-110489444D01*
X120474198Y-110490046D01*
X120455861Y-110491852D01*
X119968140Y-110491852D01*
X119952001Y-110490263D01*
X119942389Y-110487347D01*
X119933531Y-110482612D01*
X119925763Y-110476237D01*
X119915554Y-110463798D01*
X119908628Y-110453432D01*
X119891302Y-110436105D01*
X119870927Y-110422490D01*
X119848289Y-110413112D01*
X119824255Y-110408331D01*
X119799751Y-110408331D01*
X119775717Y-110413111D01*
X119753078Y-110422487D01*
X119732703Y-110436101D01*
X119715376Y-110453427D01*
X119708448Y-110463796D01*
X119698237Y-110476237D01*
X119690469Y-110482612D01*
X119681611Y-110487347D01*
X119671999Y-110490263D01*
X119655860Y-110491852D01*
X119168139Y-110491852D01*
X119149802Y-110490046D01*
X119137550Y-110489444D01*
X119119131Y-110489444D01*
X119096851Y-110487250D01*
X119012764Y-110470524D01*
X118991345Y-110464026D01*
X118912129Y-110431215D01*
X118892393Y-110420665D01*
X118821103Y-110373031D01*
X118803792Y-110358824D01*
X118743176Y-110298208D01*
X118728969Y-110280897D01*
X118681335Y-110209607D01*
X118670785Y-110189871D01*
X118637974Y-110110655D01*
X118631476Y-110089236D01*
X118614750Y-110005149D01*
X118612556Y-109982869D01*
X118612556Y-109964450D01*
X118611954Y-109952198D01*
X118610148Y-109933861D01*
X118610148Y-109446140D01*
X118611954Y-109427802D01*
X118612556Y-109415550D01*
X118612556Y-109397131D01*
X118614750Y-109374851D01*
X118631476Y-109290764D01*
X118637974Y-109269345D01*
X118670785Y-109190129D01*
X118681335Y-109170393D01*
X118728969Y-109099103D01*
X118743176Y-109081792D01*
X118803792Y-109021176D01*
X118821103Y-109006969D01*
X118892393Y-108959335D01*
X118912129Y-108948785D01*
X118991345Y-108915974D01*
X119012764Y-108909476D01*
X119096851Y-108892750D01*
X119119131Y-108890556D01*
X119137550Y-108890556D01*
X119149802Y-108889954D01*
X119168140Y-108888148D01*
X119655860Y-108888148D01*
X119671999Y-108889737D01*
X119671999Y-108889737D01*
G37*
G36*
X115653000Y-110141000D02*
X114751000Y-110141000D01*
X114751000Y-109239000D01*
X115653000Y-109239000D01*
X115653000Y-110141000D01*
X115653000Y-110141000D01*
G37*
G36*
X117253000Y-110141000D02*
X116351000Y-110141000D01*
X116351000Y-109239000D01*
X117253000Y-109239000D01*
X117253000Y-110141000D01*
X117253000Y-110141000D01*
G37*
G36*
X156041000Y-109660000D02*
X153939000Y-109660000D01*
X153939000Y-108958000D01*
X156041000Y-108958000D01*
X156041000Y-109660000D01*
X156041000Y-109660000D01*
G37*
G36*
X165441000Y-109660000D02*
X163339000Y-109660000D01*
X163339000Y-108958000D01*
X165441000Y-108958000D01*
X165441000Y-109660000D01*
X165441000Y-109660000D01*
G37*
G36*
X156041000Y-108390000D02*
X153939000Y-108390000D01*
X153939000Y-107688000D01*
X156041000Y-107688000D01*
X156041000Y-108390000D01*
X156041000Y-108390000D01*
G37*
G36*
X165441000Y-108390000D02*
X163339000Y-108390000D01*
X163339000Y-107688000D01*
X165441000Y-107688000D01*
X165441000Y-108390000D01*
X165441000Y-108390000D01*
G37*
G36*
X119656999Y-106349737D02*
X119666611Y-106352653D01*
X119675469Y-106357388D01*
X119683237Y-106363763D01*
X119693446Y-106376202D01*
X119700372Y-106386568D01*
X119717698Y-106403895D01*
X119738073Y-106417510D01*
X119760711Y-106426888D01*
X119784745Y-106431669D01*
X119809249Y-106431669D01*
X119833283Y-106426889D01*
X119855922Y-106417513D01*
X119876297Y-106403899D01*
X119893624Y-106386573D01*
X119900552Y-106376204D01*
X119910763Y-106363763D01*
X119918531Y-106357388D01*
X119927389Y-106352653D01*
X119937001Y-106349737D01*
X119953140Y-106348148D01*
X120440860Y-106348148D01*
X120459198Y-106349954D01*
X120471450Y-106350556D01*
X120489869Y-106350556D01*
X120512149Y-106352750D01*
X120596236Y-106369476D01*
X120617655Y-106375974D01*
X120696871Y-106408785D01*
X120716607Y-106419335D01*
X120787897Y-106466969D01*
X120805208Y-106481176D01*
X120865824Y-106541792D01*
X120880031Y-106559103D01*
X120927665Y-106630393D01*
X120938215Y-106650129D01*
X120971026Y-106729345D01*
X120977524Y-106750764D01*
X120994250Y-106834851D01*
X120996444Y-106857131D01*
X120996444Y-106875550D01*
X120997046Y-106887802D01*
X120998852Y-106906140D01*
X120998852Y-107393861D01*
X120997046Y-107412198D01*
X120996444Y-107424450D01*
X120996444Y-107442869D01*
X120994250Y-107465149D01*
X120977524Y-107549236D01*
X120971026Y-107570655D01*
X120938215Y-107649871D01*
X120927665Y-107669607D01*
X120880031Y-107740897D01*
X120865824Y-107758208D01*
X120805208Y-107818824D01*
X120787897Y-107833031D01*
X120716607Y-107880665D01*
X120696871Y-107891215D01*
X120617655Y-107924026D01*
X120596236Y-107930524D01*
X120512149Y-107947250D01*
X120489869Y-107949444D01*
X120471450Y-107949444D01*
X120459198Y-107950046D01*
X120440861Y-107951852D01*
X119953140Y-107951852D01*
X119937001Y-107950263D01*
X119927389Y-107947347D01*
X119918531Y-107942612D01*
X119910763Y-107936237D01*
X119900554Y-107923798D01*
X119893628Y-107913432D01*
X119876302Y-107896105D01*
X119855927Y-107882490D01*
X119833289Y-107873112D01*
X119809255Y-107868331D01*
X119784751Y-107868331D01*
X119760717Y-107873111D01*
X119738078Y-107882487D01*
X119717703Y-107896101D01*
X119700376Y-107913427D01*
X119693448Y-107923796D01*
X119683237Y-107936237D01*
X119675469Y-107942612D01*
X119666611Y-107947347D01*
X119656999Y-107950263D01*
X119640860Y-107951852D01*
X119153139Y-107951852D01*
X119134802Y-107950046D01*
X119122550Y-107949444D01*
X119104131Y-107949444D01*
X119081851Y-107947250D01*
X118997764Y-107930524D01*
X118976345Y-107924026D01*
X118897129Y-107891215D01*
X118877393Y-107880665D01*
X118806103Y-107833031D01*
X118788792Y-107818824D01*
X118728176Y-107758208D01*
X118713969Y-107740897D01*
X118666335Y-107669607D01*
X118655785Y-107649871D01*
X118622974Y-107570655D01*
X118616476Y-107549236D01*
X118599750Y-107465149D01*
X118597556Y-107442869D01*
X118597556Y-107424450D01*
X118596954Y-107412198D01*
X118595148Y-107393861D01*
X118595148Y-106906140D01*
X118596954Y-106887802D01*
X118597556Y-106875550D01*
X118597556Y-106857131D01*
X118599750Y-106834851D01*
X118616476Y-106750764D01*
X118622974Y-106729345D01*
X118655785Y-106650129D01*
X118666335Y-106630393D01*
X118713969Y-106559103D01*
X118728176Y-106541792D01*
X118788792Y-106481176D01*
X118806103Y-106466969D01*
X118877393Y-106419335D01*
X118897129Y-106408785D01*
X118976345Y-106375974D01*
X118997764Y-106369476D01*
X119081851Y-106352750D01*
X119104131Y-106350556D01*
X119122550Y-106350556D01*
X119134802Y-106349954D01*
X119153140Y-106348148D01*
X119640860Y-106348148D01*
X119656999Y-106349737D01*
X119656999Y-106349737D01*
G37*
G36*
X117253000Y-107601000D02*
X116351000Y-107601000D01*
X116351000Y-106699000D01*
X117253000Y-106699000D01*
X117253000Y-107601000D01*
X117253000Y-107601000D01*
G37*
G36*
X115653000Y-107601000D02*
X114751000Y-107601000D01*
X114751000Y-106699000D01*
X115653000Y-106699000D01*
X115653000Y-107601000D01*
X115653000Y-107601000D01*
G37*
G36*
X156041000Y-107120000D02*
X153939000Y-107120000D01*
X153939000Y-106418000D01*
X156041000Y-106418000D01*
X156041000Y-107120000D01*
X156041000Y-107120000D01*
G37*
G36*
X165441000Y-107120000D02*
X163339000Y-107120000D01*
X163339000Y-106418000D01*
X165441000Y-106418000D01*
X165441000Y-107120000D01*
X165441000Y-107120000D01*
G37*
G36*
X130717142Y-104463242D02*
X130865102Y-104524530D01*
X130998258Y-104613502D01*
X131111498Y-104726742D01*
X131200470Y-104859898D01*
X131261758Y-105007858D01*
X131293000Y-105164925D01*
X131293000Y-105325075D01*
X131261758Y-105482142D01*
X131200470Y-105630102D01*
X131111498Y-105763258D01*
X130998258Y-105876498D01*
X130865102Y-105965470D01*
X130717142Y-106026758D01*
X130560075Y-106058000D01*
X130399925Y-106058000D01*
X130242858Y-106026758D01*
X130094898Y-105965470D01*
X129961742Y-105876498D01*
X129848502Y-105763258D01*
X129759530Y-105630102D01*
X129698242Y-105482142D01*
X129667000Y-105325075D01*
X129667000Y-105164925D01*
X129698242Y-105007858D01*
X129759530Y-104859898D01*
X129848502Y-104726742D01*
X129961742Y-104613502D01*
X130094898Y-104524530D01*
X130242858Y-104463242D01*
X130399925Y-104432000D01*
X130560075Y-104432000D01*
X130717142Y-104463242D01*
X130717142Y-104463242D01*
G37*
G36*
X125637142Y-104463242D02*
X125785102Y-104524530D01*
X125918258Y-104613502D01*
X126031498Y-104726742D01*
X126120470Y-104859898D01*
X126181758Y-105007858D01*
X126213000Y-105164925D01*
X126213000Y-105325075D01*
X126181758Y-105482142D01*
X126120470Y-105630102D01*
X126031498Y-105763258D01*
X125918258Y-105876498D01*
X125785102Y-105965470D01*
X125637142Y-106026758D01*
X125480075Y-106058000D01*
X125319925Y-106058000D01*
X125162858Y-106026758D01*
X125014898Y-105965470D01*
X124881742Y-105876498D01*
X124768502Y-105763258D01*
X124679530Y-105630102D01*
X124618242Y-105482142D01*
X124587000Y-105325075D01*
X124587000Y-105164925D01*
X124618242Y-105007858D01*
X124679530Y-104859898D01*
X124768502Y-104726742D01*
X124881742Y-104613502D01*
X125014898Y-104524530D01*
X125162858Y-104463242D01*
X125319925Y-104432000D01*
X125480075Y-104432000D01*
X125637142Y-104463242D01*
X125637142Y-104463242D01*
G37*
G36*
X135797142Y-104463242D02*
X135945102Y-104524530D01*
X136078258Y-104613502D01*
X136191498Y-104726742D01*
X136280470Y-104859898D01*
X136341758Y-105007858D01*
X136373000Y-105164925D01*
X136373000Y-105325075D01*
X136341758Y-105482142D01*
X136280470Y-105630102D01*
X136191498Y-105763258D01*
X136078258Y-105876498D01*
X135945102Y-105965470D01*
X135797142Y-106026758D01*
X135640075Y-106058000D01*
X135479925Y-106058000D01*
X135322858Y-106026758D01*
X135174898Y-105965470D01*
X135041742Y-105876498D01*
X134928502Y-105763258D01*
X134839530Y-105630102D01*
X134778242Y-105482142D01*
X134747000Y-105325075D01*
X134747000Y-105164925D01*
X134778242Y-105007858D01*
X134839530Y-104859898D01*
X134928502Y-104726742D01*
X135041742Y-104613502D01*
X135174898Y-104524530D01*
X135322858Y-104463242D01*
X135479925Y-104432000D01*
X135640075Y-104432000D01*
X135797142Y-104463242D01*
X135797142Y-104463242D01*
G37*
G36*
X143417142Y-104463242D02*
X143565102Y-104524530D01*
X143698258Y-104613502D01*
X143811498Y-104726742D01*
X143900470Y-104859898D01*
X143961758Y-105007858D01*
X143993000Y-105164925D01*
X143993000Y-105325075D01*
X143961758Y-105482142D01*
X143900470Y-105630102D01*
X143811498Y-105763258D01*
X143698258Y-105876498D01*
X143565102Y-105965470D01*
X143417142Y-106026758D01*
X143260075Y-106058000D01*
X143099925Y-106058000D01*
X142942858Y-106026758D01*
X142794898Y-105965470D01*
X142661742Y-105876498D01*
X142548502Y-105763258D01*
X142459530Y-105630102D01*
X142398242Y-105482142D01*
X142367000Y-105325075D01*
X142367000Y-105164925D01*
X142398242Y-105007858D01*
X142459530Y-104859898D01*
X142548502Y-104726742D01*
X142661742Y-104613502D01*
X142794898Y-104524530D01*
X142942858Y-104463242D01*
X143099925Y-104432000D01*
X143260075Y-104432000D01*
X143417142Y-104463242D01*
X143417142Y-104463242D01*
G37*
G36*
X133257142Y-104463242D02*
X133405102Y-104524530D01*
X133538258Y-104613502D01*
X133651498Y-104726742D01*
X133740470Y-104859898D01*
X133801758Y-105007858D01*
X133833000Y-105164925D01*
X133833000Y-105325075D01*
X133801758Y-105482142D01*
X133740470Y-105630102D01*
X133651498Y-105763258D01*
X133538258Y-105876498D01*
X133405102Y-105965470D01*
X133257142Y-106026758D01*
X133100075Y-106058000D01*
X132939925Y-106058000D01*
X132782858Y-106026758D01*
X132634898Y-105965470D01*
X132501742Y-105876498D01*
X132388502Y-105763258D01*
X132299530Y-105630102D01*
X132238242Y-105482142D01*
X132207000Y-105325075D01*
X132207000Y-105164925D01*
X132238242Y-105007858D01*
X132299530Y-104859898D01*
X132388502Y-104726742D01*
X132501742Y-104613502D01*
X132634898Y-104524530D01*
X132782858Y-104463242D01*
X132939925Y-104432000D01*
X133100075Y-104432000D01*
X133257142Y-104463242D01*
X133257142Y-104463242D01*
G37*
G36*
X165441000Y-105850000D02*
X163339000Y-105850000D01*
X163339000Y-105148000D01*
X165441000Y-105148000D01*
X165441000Y-105850000D01*
X165441000Y-105850000D01*
G37*
G36*
X156041000Y-105850000D02*
X153939000Y-105850000D01*
X153939000Y-105148000D01*
X156041000Y-105148000D01*
X156041000Y-105850000D01*
X156041000Y-105850000D01*
G37*
G36*
X119656999Y-103809737D02*
X119666611Y-103812653D01*
X119675469Y-103817388D01*
X119683237Y-103823763D01*
X119693446Y-103836202D01*
X119700372Y-103846568D01*
X119717698Y-103863895D01*
X119738073Y-103877510D01*
X119760711Y-103886888D01*
X119784745Y-103891669D01*
X119809249Y-103891669D01*
X119833283Y-103886889D01*
X119855922Y-103877513D01*
X119876297Y-103863899D01*
X119893624Y-103846573D01*
X119900552Y-103836204D01*
X119910763Y-103823763D01*
X119918531Y-103817388D01*
X119927389Y-103812653D01*
X119937001Y-103809737D01*
X119953140Y-103808148D01*
X120440860Y-103808148D01*
X120459198Y-103809954D01*
X120471450Y-103810556D01*
X120489869Y-103810556D01*
X120512149Y-103812750D01*
X120596236Y-103829476D01*
X120617655Y-103835974D01*
X120696871Y-103868785D01*
X120716607Y-103879335D01*
X120787897Y-103926969D01*
X120805208Y-103941176D01*
X120865824Y-104001792D01*
X120880031Y-104019103D01*
X120927665Y-104090393D01*
X120938215Y-104110129D01*
X120971026Y-104189345D01*
X120977524Y-104210764D01*
X120994250Y-104294851D01*
X120996444Y-104317131D01*
X120996444Y-104335550D01*
X120997046Y-104347802D01*
X120998852Y-104366140D01*
X120998852Y-104853861D01*
X120997046Y-104872198D01*
X120996444Y-104884450D01*
X120996444Y-104902869D01*
X120994250Y-104925149D01*
X120977524Y-105009236D01*
X120971026Y-105030655D01*
X120938215Y-105109871D01*
X120927665Y-105129607D01*
X120880031Y-105200897D01*
X120865824Y-105218208D01*
X120805208Y-105278824D01*
X120787897Y-105293031D01*
X120716607Y-105340665D01*
X120696871Y-105351215D01*
X120617655Y-105384026D01*
X120596236Y-105390524D01*
X120512149Y-105407250D01*
X120489869Y-105409444D01*
X120471450Y-105409444D01*
X120459198Y-105410046D01*
X120440861Y-105411852D01*
X119953140Y-105411852D01*
X119937001Y-105410263D01*
X119927389Y-105407347D01*
X119918531Y-105402612D01*
X119910763Y-105396237D01*
X119900554Y-105383798D01*
X119893628Y-105373432D01*
X119876302Y-105356105D01*
X119855927Y-105342490D01*
X119833289Y-105333112D01*
X119809255Y-105328331D01*
X119784751Y-105328331D01*
X119760717Y-105333111D01*
X119738078Y-105342487D01*
X119717703Y-105356101D01*
X119700376Y-105373427D01*
X119693448Y-105383796D01*
X119683237Y-105396237D01*
X119675469Y-105402612D01*
X119666611Y-105407347D01*
X119656999Y-105410263D01*
X119640860Y-105411852D01*
X119153139Y-105411852D01*
X119134802Y-105410046D01*
X119122550Y-105409444D01*
X119104131Y-105409444D01*
X119081851Y-105407250D01*
X118997764Y-105390524D01*
X118976345Y-105384026D01*
X118897129Y-105351215D01*
X118877393Y-105340665D01*
X118806103Y-105293031D01*
X118788792Y-105278824D01*
X118728176Y-105218208D01*
X118713969Y-105200897D01*
X118666335Y-105129607D01*
X118655785Y-105109871D01*
X118622974Y-105030655D01*
X118616476Y-105009236D01*
X118599750Y-104925149D01*
X118597556Y-104902869D01*
X118597556Y-104884450D01*
X118596954Y-104872198D01*
X118595148Y-104853861D01*
X118595148Y-104366140D01*
X118596954Y-104347802D01*
X118597556Y-104335550D01*
X118597556Y-104317131D01*
X118599750Y-104294851D01*
X118616476Y-104210764D01*
X118622974Y-104189345D01*
X118655785Y-104110129D01*
X118666335Y-104090393D01*
X118713969Y-104019103D01*
X118728176Y-104001792D01*
X118788792Y-103941176D01*
X118806103Y-103926969D01*
X118877393Y-103879335D01*
X118897129Y-103868785D01*
X118976345Y-103835974D01*
X118997764Y-103829476D01*
X119081851Y-103812750D01*
X119104131Y-103810556D01*
X119122550Y-103810556D01*
X119134802Y-103809954D01*
X119153140Y-103808148D01*
X119640860Y-103808148D01*
X119656999Y-103809737D01*
X119656999Y-103809737D01*
G37*
G36*
X115653000Y-105061000D02*
X114751000Y-105061000D01*
X114751000Y-104159000D01*
X115653000Y-104159000D01*
X115653000Y-105061000D01*
X115653000Y-105061000D01*
G37*
G36*
X117253000Y-105061000D02*
X116351000Y-105061000D01*
X116351000Y-104159000D01*
X117253000Y-104159000D01*
X117253000Y-105061000D01*
X117253000Y-105061000D01*
G37*
G36*
X156041000Y-104580000D02*
X153939000Y-104580000D01*
X153939000Y-103878000D01*
X156041000Y-103878000D01*
X156041000Y-104580000D01*
X156041000Y-104580000D01*
G37*
G36*
X165441000Y-104580000D02*
X163339000Y-104580000D01*
X163339000Y-103878000D01*
X165441000Y-103878000D01*
X165441000Y-104580000D01*
X165441000Y-104580000D01*
G37*
G36*
X165441000Y-103310000D02*
X163339000Y-103310000D01*
X163339000Y-102608000D01*
X165441000Y-102608000D01*
X165441000Y-103310000D01*
X165441000Y-103310000D01*
G37*
G36*
X156041000Y-103310000D02*
X153939000Y-103310000D01*
X153939000Y-102608000D01*
X156041000Y-102608000D01*
X156041000Y-103310000D01*
X156041000Y-103310000D01*
G37*
G36*
X117253000Y-102521000D02*
X116351000Y-102521000D01*
X116351000Y-101619000D01*
X117253000Y-101619000D01*
X117253000Y-102521000D01*
X117253000Y-102521000D01*
G37*
G36*
X115653000Y-102521000D02*
X114751000Y-102521000D01*
X114751000Y-101619000D01*
X115653000Y-101619000D01*
X115653000Y-102521000D01*
X115653000Y-102521000D01*
G37*
G36*
X165441000Y-102040000D02*
X163339000Y-102040000D01*
X163339000Y-101338000D01*
X165441000Y-101338000D01*
X165441000Y-102040000D01*
X165441000Y-102040000D01*
G37*
G36*
X156041000Y-102040000D02*
X153939000Y-102040000D01*
X153939000Y-101338000D01*
X156041000Y-101338000D01*
X156041000Y-102040000D01*
X156041000Y-102040000D01*
G37*
G36*
X165441000Y-100770000D02*
X163339000Y-100770000D01*
X163339000Y-100068000D01*
X165441000Y-100068000D01*
X165441000Y-100770000D01*
X165441000Y-100770000D01*
G37*
G36*
X156041000Y-100770000D02*
X153939000Y-100770000D01*
X153939000Y-100068000D01*
X156041000Y-100068000D01*
X156041000Y-100770000D01*
X156041000Y-100770000D01*
G37*
G36*
X165441000Y-99500000D02*
X163339000Y-99500000D01*
X163339000Y-98798000D01*
X165441000Y-98798000D01*
X165441000Y-99500000D01*
X165441000Y-99500000D01*
G37*
G36*
X156041000Y-99500000D02*
X153939000Y-99500000D01*
X153939000Y-98798000D01*
X156041000Y-98798000D01*
X156041000Y-99500000D01*
X156041000Y-99500000D01*
G37*
G36*
X125637142Y-94303242D02*
X125785102Y-94364530D01*
X125918258Y-94453502D01*
X126031498Y-94566742D01*
X126120470Y-94699898D01*
X126181758Y-94847858D01*
X126213000Y-95004925D01*
X126213000Y-95165075D01*
X126181758Y-95322142D01*
X126120470Y-95470102D01*
X126031498Y-95603258D01*
X125918258Y-95716498D01*
X125785102Y-95805470D01*
X125637142Y-95866758D01*
X125480075Y-95898000D01*
X125319925Y-95898000D01*
X125162858Y-95866758D01*
X125014898Y-95805470D01*
X124881742Y-95716498D01*
X124768502Y-95603258D01*
X124679530Y-95470102D01*
X124618242Y-95322142D01*
X124587000Y-95165075D01*
X124587000Y-95004925D01*
X124618242Y-94847858D01*
X124679530Y-94699898D01*
X124768502Y-94566742D01*
X124881742Y-94453502D01*
X125014898Y-94364530D01*
X125162858Y-94303242D01*
X125319925Y-94272000D01*
X125480075Y-94272000D01*
X125637142Y-94303242D01*
X125637142Y-94303242D01*
G37*
G36*
X151037142Y-94303242D02*
X151185102Y-94364530D01*
X151318258Y-94453502D01*
X151431498Y-94566742D01*
X151520470Y-94699898D01*
X151581758Y-94847858D01*
X151613000Y-95004925D01*
X151613000Y-95165075D01*
X151581758Y-95322142D01*
X151520470Y-95470102D01*
X151431498Y-95603258D01*
X151318258Y-95716498D01*
X151185102Y-95805470D01*
X151037142Y-95866758D01*
X150880075Y-95898000D01*
X150719925Y-95898000D01*
X150562858Y-95866758D01*
X150414898Y-95805470D01*
X150281742Y-95716498D01*
X150168502Y-95603258D01*
X150079530Y-95470102D01*
X150018242Y-95322142D01*
X149987000Y-95165075D01*
X149987000Y-95004925D01*
X150018242Y-94847858D01*
X150079530Y-94699898D01*
X150168502Y-94566742D01*
X150281742Y-94453502D01*
X150414898Y-94364530D01*
X150562858Y-94303242D01*
X150719925Y-94272000D01*
X150880075Y-94272000D01*
X151037142Y-94303242D01*
X151037142Y-94303242D01*
G37*
G36*
X148497142Y-94303242D02*
X148645102Y-94364530D01*
X148778258Y-94453502D01*
X148891498Y-94566742D01*
X148980470Y-94699898D01*
X149041758Y-94847858D01*
X149073000Y-95004925D01*
X149073000Y-95165075D01*
X149041758Y-95322142D01*
X148980470Y-95470102D01*
X148891498Y-95603258D01*
X148778258Y-95716498D01*
X148645102Y-95805470D01*
X148497142Y-95866758D01*
X148340075Y-95898000D01*
X148179925Y-95898000D01*
X148022858Y-95866758D01*
X147874898Y-95805470D01*
X147741742Y-95716498D01*
X147628502Y-95603258D01*
X147539530Y-95470102D01*
X147478242Y-95322142D01*
X147447000Y-95165075D01*
X147447000Y-95004925D01*
X147478242Y-94847858D01*
X147539530Y-94699898D01*
X147628502Y-94566742D01*
X147741742Y-94453502D01*
X147874898Y-94364530D01*
X148022858Y-94303242D01*
X148179925Y-94272000D01*
X148340075Y-94272000D01*
X148497142Y-94303242D01*
X148497142Y-94303242D01*
G37*
G36*
X145957142Y-94303242D02*
X146105102Y-94364530D01*
X146238258Y-94453502D01*
X146351498Y-94566742D01*
X146440470Y-94699898D01*
X146501758Y-94847858D01*
X146533000Y-95004925D01*
X146533000Y-95165075D01*
X146501758Y-95322142D01*
X146440470Y-95470102D01*
X146351498Y-95603258D01*
X146238258Y-95716498D01*
X146105102Y-95805470D01*
X145957142Y-95866758D01*
X145800075Y-95898000D01*
X145639925Y-95898000D01*
X145482858Y-95866758D01*
X145334898Y-95805470D01*
X145201742Y-95716498D01*
X145088502Y-95603258D01*
X144999530Y-95470102D01*
X144938242Y-95322142D01*
X144907000Y-95165075D01*
X144907000Y-95004925D01*
X144938242Y-94847858D01*
X144999530Y-94699898D01*
X145088502Y-94566742D01*
X145201742Y-94453502D01*
X145334898Y-94364530D01*
X145482858Y-94303242D01*
X145639925Y-94272000D01*
X145800075Y-94272000D01*
X145957142Y-94303242D01*
X145957142Y-94303242D01*
G37*
G36*
X140877142Y-94303242D02*
X141025102Y-94364530D01*
X141158258Y-94453502D01*
X141271498Y-94566742D01*
X141360470Y-94699898D01*
X141421758Y-94847858D01*
X141453000Y-95004925D01*
X141453000Y-95165075D01*
X141421758Y-95322142D01*
X141360470Y-95470102D01*
X141271498Y-95603258D01*
X141158258Y-95716498D01*
X141025102Y-95805470D01*
X140877142Y-95866758D01*
X140720075Y-95898000D01*
X140559925Y-95898000D01*
X140402858Y-95866758D01*
X140254898Y-95805470D01*
X140121742Y-95716498D01*
X140008502Y-95603258D01*
X139919530Y-95470102D01*
X139858242Y-95322142D01*
X139827000Y-95165075D01*
X139827000Y-95004925D01*
X139858242Y-94847858D01*
X139919530Y-94699898D01*
X140008502Y-94566742D01*
X140121742Y-94453502D01*
X140254898Y-94364530D01*
X140402858Y-94303242D01*
X140559925Y-94272000D01*
X140720075Y-94272000D01*
X140877142Y-94303242D01*
X140877142Y-94303242D01*
G37*
G36*
X138337142Y-94303242D02*
X138485102Y-94364530D01*
X138618258Y-94453502D01*
X138731498Y-94566742D01*
X138820470Y-94699898D01*
X138881758Y-94847858D01*
X138913000Y-95004925D01*
X138913000Y-95165075D01*
X138881758Y-95322142D01*
X138820470Y-95470102D01*
X138731498Y-95603258D01*
X138618258Y-95716498D01*
X138485102Y-95805470D01*
X138337142Y-95866758D01*
X138180075Y-95898000D01*
X138019925Y-95898000D01*
X137862858Y-95866758D01*
X137714898Y-95805470D01*
X137581742Y-95716498D01*
X137468502Y-95603258D01*
X137379530Y-95470102D01*
X137318242Y-95322142D01*
X137287000Y-95165075D01*
X137287000Y-95004925D01*
X137318242Y-94847858D01*
X137379530Y-94699898D01*
X137468502Y-94566742D01*
X137581742Y-94453502D01*
X137714898Y-94364530D01*
X137862858Y-94303242D01*
X138019925Y-94272000D01*
X138180075Y-94272000D01*
X138337142Y-94303242D01*
X138337142Y-94303242D01*
G37*
G36*
X133257142Y-94303242D02*
X133405102Y-94364530D01*
X133538258Y-94453502D01*
X133651498Y-94566742D01*
X133740470Y-94699898D01*
X133801758Y-94847858D01*
X133833000Y-95004925D01*
X133833000Y-95165075D01*
X133801758Y-95322142D01*
X133740470Y-95470102D01*
X133651498Y-95603258D01*
X133538258Y-95716498D01*
X133405102Y-95805470D01*
X133257142Y-95866758D01*
X133100075Y-95898000D01*
X132939925Y-95898000D01*
X132782858Y-95866758D01*
X132634898Y-95805470D01*
X132501742Y-95716498D01*
X132388502Y-95603258D01*
X132299530Y-95470102D01*
X132238242Y-95322142D01*
X132207000Y-95165075D01*
X132207000Y-95004925D01*
X132238242Y-94847858D01*
X132299530Y-94699898D01*
X132388502Y-94566742D01*
X132501742Y-94453502D01*
X132634898Y-94364530D01*
X132782858Y-94303242D01*
X132939925Y-94272000D01*
X133100075Y-94272000D01*
X133257142Y-94303242D01*
X133257142Y-94303242D01*
G37*
G36*
X130717142Y-94303242D02*
X130865102Y-94364530D01*
X130998258Y-94453502D01*
X131111498Y-94566742D01*
X131200470Y-94699898D01*
X131261758Y-94847858D01*
X131293000Y-95004925D01*
X131293000Y-95165075D01*
X131261758Y-95322142D01*
X131200470Y-95470102D01*
X131111498Y-95603258D01*
X130998258Y-95716498D01*
X130865102Y-95805470D01*
X130717142Y-95866758D01*
X130560075Y-95898000D01*
X130399925Y-95898000D01*
X130242858Y-95866758D01*
X130094898Y-95805470D01*
X129961742Y-95716498D01*
X129848502Y-95603258D01*
X129759530Y-95470102D01*
X129698242Y-95322142D01*
X129667000Y-95165075D01*
X129667000Y-95004925D01*
X129698242Y-94847858D01*
X129759530Y-94699898D01*
X129848502Y-94566742D01*
X129961742Y-94453502D01*
X130094898Y-94364530D01*
X130242858Y-94303242D01*
X130399925Y-94272000D01*
X130560075Y-94272000D01*
X130717142Y-94303242D01*
X130717142Y-94303242D01*
G37*
G36*
X143417142Y-94303242D02*
X143565102Y-94364530D01*
X143698258Y-94453502D01*
X143811498Y-94566742D01*
X143900470Y-94699898D01*
X143961758Y-94847858D01*
X143993000Y-95004925D01*
X143993000Y-95165075D01*
X143961758Y-95322142D01*
X143900470Y-95470102D01*
X143811498Y-95603258D01*
X143698258Y-95716498D01*
X143565102Y-95805470D01*
X143417142Y-95866758D01*
X143260075Y-95898000D01*
X143099925Y-95898000D01*
X142942858Y-95866758D01*
X142794898Y-95805470D01*
X142661742Y-95716498D01*
X142548502Y-95603258D01*
X142459530Y-95470102D01*
X142398242Y-95322142D01*
X142367000Y-95165075D01*
X142367000Y-95004925D01*
X142398242Y-94847858D01*
X142459530Y-94699898D01*
X142548502Y-94566742D01*
X142661742Y-94453502D01*
X142794898Y-94364530D01*
X142942858Y-94303242D01*
X143099925Y-94272000D01*
X143260075Y-94272000D01*
X143417142Y-94303242D01*
X143417142Y-94303242D01*
G37*
G36*
X135797142Y-89858242D02*
X135945102Y-89919530D01*
X136078258Y-90008502D01*
X136191498Y-90121742D01*
X136280470Y-90254898D01*
X136341758Y-90402858D01*
X136373000Y-90559925D01*
X136373000Y-90720075D01*
X136341758Y-90877142D01*
X136280470Y-91025102D01*
X136191498Y-91158258D01*
X136078258Y-91271498D01*
X135945102Y-91360470D01*
X135797142Y-91421758D01*
X135640075Y-91453000D01*
X135479925Y-91453000D01*
X135322858Y-91421758D01*
X135174898Y-91360470D01*
X135041742Y-91271498D01*
X134928502Y-91158258D01*
X134839530Y-91025102D01*
X134778242Y-90877142D01*
X134747000Y-90720075D01*
X134747000Y-90559925D01*
X134778242Y-90402858D01*
X134839530Y-90254898D01*
X134928502Y-90121742D01*
X135041742Y-90008502D01*
X135174898Y-89919530D01*
X135322858Y-89858242D01*
X135479925Y-89827000D01*
X135640075Y-89827000D01*
X135797142Y-89858242D01*
X135797142Y-89858242D01*
G37*
G36*
X143417142Y-89858242D02*
X143565102Y-89919530D01*
X143698258Y-90008502D01*
X143811498Y-90121742D01*
X143900470Y-90254898D01*
X143961758Y-90402858D01*
X143993000Y-90559925D01*
X143993000Y-90720075D01*
X143961758Y-90877142D01*
X143900470Y-91025102D01*
X143811498Y-91158258D01*
X143698258Y-91271498D01*
X143565102Y-91360470D01*
X143417142Y-91421758D01*
X143260075Y-91453000D01*
X143099925Y-91453000D01*
X142942858Y-91421758D01*
X142794898Y-91360470D01*
X142661742Y-91271498D01*
X142548502Y-91158258D01*
X142459530Y-91025102D01*
X142398242Y-90877142D01*
X142367000Y-90720075D01*
X142367000Y-90559925D01*
X142398242Y-90402858D01*
X142459530Y-90254898D01*
X142548502Y-90121742D01*
X142661742Y-90008502D01*
X142794898Y-89919530D01*
X142942858Y-89858242D01*
X143099925Y-89827000D01*
X143260075Y-89827000D01*
X143417142Y-89858242D01*
X143417142Y-89858242D01*
G37*
G36*
X133257142Y-89858242D02*
X133405102Y-89919530D01*
X133538258Y-90008502D01*
X133651498Y-90121742D01*
X133740470Y-90254898D01*
X133801758Y-90402858D01*
X133833000Y-90559925D01*
X133833000Y-90720075D01*
X133801758Y-90877142D01*
X133740470Y-91025102D01*
X133651498Y-91158258D01*
X133538258Y-91271498D01*
X133405102Y-91360470D01*
X133257142Y-91421758D01*
X133100075Y-91453000D01*
X132939925Y-91453000D01*
X132782858Y-91421758D01*
X132634898Y-91360470D01*
X132501742Y-91271498D01*
X132388502Y-91158258D01*
X132299530Y-91025102D01*
X132238242Y-90877142D01*
X132207000Y-90720075D01*
X132207000Y-90559925D01*
X132238242Y-90402858D01*
X132299530Y-90254898D01*
X132388502Y-90121742D01*
X132501742Y-90008502D01*
X132634898Y-89919530D01*
X132782858Y-89858242D01*
X132939925Y-89827000D01*
X133100075Y-89827000D01*
X133257142Y-89858242D01*
X133257142Y-89858242D01*
G37*
G36*
X130717142Y-89858242D02*
X130865102Y-89919530D01*
X130998258Y-90008502D01*
X131111498Y-90121742D01*
X131200470Y-90254898D01*
X131261758Y-90402858D01*
X131293000Y-90559925D01*
X131293000Y-90720075D01*
X131261758Y-90877142D01*
X131200470Y-91025102D01*
X131111498Y-91158258D01*
X130998258Y-91271498D01*
X130865102Y-91360470D01*
X130717142Y-91421758D01*
X130560075Y-91453000D01*
X130399925Y-91453000D01*
X130242858Y-91421758D01*
X130094898Y-91360470D01*
X129961742Y-91271498D01*
X129848502Y-91158258D01*
X129759530Y-91025102D01*
X129698242Y-90877142D01*
X129667000Y-90720075D01*
X129667000Y-90559925D01*
X129698242Y-90402858D01*
X129759530Y-90254898D01*
X129848502Y-90121742D01*
X129961742Y-90008502D01*
X130094898Y-89919530D01*
X130242858Y-89858242D01*
X130399925Y-89827000D01*
X130560075Y-89827000D01*
X130717142Y-89858242D01*
X130717142Y-89858242D01*
G37*
G36*
X125637142Y-89858242D02*
X125785102Y-89919530D01*
X125918258Y-90008502D01*
X126031498Y-90121742D01*
X126120470Y-90254898D01*
X126181758Y-90402858D01*
X126213000Y-90559925D01*
X126213000Y-90720075D01*
X126181758Y-90877142D01*
X126120470Y-91025102D01*
X126031498Y-91158258D01*
X125918258Y-91271498D01*
X125785102Y-91360470D01*
X125637142Y-91421758D01*
X125480075Y-91453000D01*
X125319925Y-91453000D01*
X125162858Y-91421758D01*
X125014898Y-91360470D01*
X124881742Y-91271498D01*
X124768502Y-91158258D01*
X124679530Y-91025102D01*
X124618242Y-90877142D01*
X124587000Y-90720075D01*
X124587000Y-90559925D01*
X124618242Y-90402858D01*
X124679530Y-90254898D01*
X124768502Y-90121742D01*
X124881742Y-90008502D01*
X125014898Y-89919530D01*
X125162858Y-89858242D01*
X125319925Y-89827000D01*
X125480075Y-89827000D01*
X125637142Y-89858242D01*
X125637142Y-89858242D01*
G37*
G36*
X159595000Y-89313000D02*
X158693000Y-89313000D01*
X158693000Y-88411000D01*
X159595000Y-88411000D01*
X159595000Y-89313000D01*
X159595000Y-89313000D01*
G37*
G36*
X161195000Y-89313000D02*
X160293000Y-89313000D01*
X160293000Y-88411000D01*
X161195000Y-88411000D01*
X161195000Y-89313000D01*
X161195000Y-89313000D01*
G37*
G36*
X156041000Y-86800000D02*
X153939000Y-86800000D01*
X153939000Y-86098000D01*
X156041000Y-86098000D01*
X156041000Y-86800000D01*
X156041000Y-86800000D01*
G37*
G36*
X165441000Y-86800000D02*
X163339000Y-86800000D01*
X163339000Y-86098000D01*
X165441000Y-86098000D01*
X165441000Y-86800000D01*
X165441000Y-86800000D01*
G37*
G36*
X156041000Y-85530000D02*
X153939000Y-85530000D01*
X153939000Y-84828000D01*
X156041000Y-84828000D01*
X156041000Y-85530000D01*
X156041000Y-85530000D01*
G37*
G36*
X165441000Y-85530000D02*
X163339000Y-85530000D01*
X163339000Y-84828000D01*
X165441000Y-84828000D01*
X165441000Y-85530000D01*
X165441000Y-85530000D01*
G37*
G36*
X165441000Y-84260000D02*
X163339000Y-84260000D01*
X163339000Y-83558000D01*
X165441000Y-83558000D01*
X165441000Y-84260000D01*
X165441000Y-84260000D01*
G37*
G36*
X156041000Y-84260000D02*
X153939000Y-84260000D01*
X153939000Y-83558000D01*
X156041000Y-83558000D01*
X156041000Y-84260000D01*
X156041000Y-84260000D01*
G37*
G36*
X165441000Y-82990000D02*
X163339000Y-82990000D01*
X163339000Y-82288000D01*
X165441000Y-82288000D01*
X165441000Y-82990000D01*
X165441000Y-82990000D01*
G37*
G36*
X156041000Y-82990000D02*
X153939000Y-82990000D01*
X153939000Y-82288000D01*
X156041000Y-82288000D01*
X156041000Y-82990000D01*
X156041000Y-82990000D01*
G37*
G36*
X165441000Y-81720000D02*
X163339000Y-81720000D01*
X163339000Y-81018000D01*
X165441000Y-81018000D01*
X165441000Y-81720000D01*
X165441000Y-81720000D01*
G37*
G36*
X156041000Y-81720000D02*
X153939000Y-81720000D01*
X153939000Y-81018000D01*
X156041000Y-81018000D01*
X156041000Y-81720000D01*
X156041000Y-81720000D01*
G37*
G36*
X143417142Y-79698242D02*
X143503224Y-79733899D01*
X143540490Y-79749335D01*
X143565102Y-79759530D01*
X143568303Y-79761669D01*
X143698257Y-79848501D01*
X143811499Y-79961743D01*
X143823784Y-79980129D01*
X143900470Y-80094898D01*
X143961758Y-80242858D01*
X143993000Y-80399925D01*
X143993000Y-80560075D01*
X143961758Y-80717142D01*
X143936131Y-80779009D01*
X143900471Y-80865100D01*
X143820151Y-80985309D01*
X143811498Y-80998258D01*
X143698258Y-81111498D01*
X143565102Y-81200470D01*
X143565101Y-81200471D01*
X143565100Y-81200471D01*
X143536091Y-81212487D01*
X143417142Y-81261758D01*
X143260075Y-81293000D01*
X143099925Y-81293000D01*
X142942858Y-81261758D01*
X142823909Y-81212487D01*
X142794900Y-81200471D01*
X142794899Y-81200471D01*
X142794898Y-81200470D01*
X142661742Y-81111498D01*
X142548502Y-80998258D01*
X142539850Y-80985309D01*
X142459529Y-80865100D01*
X142423869Y-80779009D01*
X142398242Y-80717142D01*
X142367000Y-80560075D01*
X142367000Y-80399925D01*
X142398242Y-80242858D01*
X142459530Y-80094898D01*
X142536216Y-79980129D01*
X142548501Y-79961743D01*
X142661743Y-79848501D01*
X142791697Y-79761669D01*
X142794898Y-79759530D01*
X142819511Y-79749335D01*
X142856776Y-79733899D01*
X142942858Y-79698242D01*
X143099925Y-79667000D01*
X143260075Y-79667000D01*
X143417142Y-79698242D01*
X143417142Y-79698242D01*
G37*
G36*
X125637142Y-79698242D02*
X125723224Y-79733899D01*
X125760490Y-79749335D01*
X125785102Y-79759530D01*
X125788303Y-79761669D01*
X125918257Y-79848501D01*
X126031499Y-79961743D01*
X126043784Y-79980129D01*
X126120470Y-80094898D01*
X126181758Y-80242858D01*
X126213000Y-80399925D01*
X126213000Y-80560075D01*
X126181758Y-80717142D01*
X126156131Y-80779009D01*
X126120471Y-80865100D01*
X126040151Y-80985309D01*
X126031498Y-80998258D01*
X125918258Y-81111498D01*
X125785102Y-81200470D01*
X125785101Y-81200471D01*
X125785100Y-81200471D01*
X125756091Y-81212487D01*
X125637142Y-81261758D01*
X125480075Y-81293000D01*
X125319925Y-81293000D01*
X125162858Y-81261758D01*
X125043909Y-81212487D01*
X125014900Y-81200471D01*
X125014899Y-81200471D01*
X125014898Y-81200470D01*
X124881742Y-81111498D01*
X124768502Y-80998258D01*
X124759850Y-80985309D01*
X124679529Y-80865100D01*
X124643869Y-80779009D01*
X124618242Y-80717142D01*
X124587000Y-80560075D01*
X124587000Y-80399925D01*
X124618242Y-80242858D01*
X124679530Y-80094898D01*
X124756216Y-79980129D01*
X124768501Y-79961743D01*
X124881743Y-79848501D01*
X125011697Y-79761669D01*
X125014898Y-79759530D01*
X125039511Y-79749335D01*
X125076776Y-79733899D01*
X125162858Y-79698242D01*
X125319925Y-79667000D01*
X125480075Y-79667000D01*
X125637142Y-79698242D01*
X125637142Y-79698242D01*
G37*
G36*
X130717142Y-79698242D02*
X130803224Y-79733899D01*
X130840490Y-79749335D01*
X130865102Y-79759530D01*
X130868303Y-79761669D01*
X130998257Y-79848501D01*
X131111499Y-79961743D01*
X131123784Y-79980129D01*
X131200470Y-80094898D01*
X131261758Y-80242858D01*
X131293000Y-80399925D01*
X131293000Y-80560075D01*
X131261758Y-80717142D01*
X131236131Y-80779009D01*
X131200471Y-80865100D01*
X131120151Y-80985309D01*
X131111498Y-80998258D01*
X130998258Y-81111498D01*
X130865102Y-81200470D01*
X130865101Y-81200471D01*
X130865100Y-81200471D01*
X130836091Y-81212487D01*
X130717142Y-81261758D01*
X130560075Y-81293000D01*
X130399925Y-81293000D01*
X130242858Y-81261758D01*
X130123909Y-81212487D01*
X130094900Y-81200471D01*
X130094899Y-81200471D01*
X130094898Y-81200470D01*
X129961742Y-81111498D01*
X129848502Y-80998258D01*
X129839850Y-80985309D01*
X129759529Y-80865100D01*
X129723869Y-80779009D01*
X129698242Y-80717142D01*
X129667000Y-80560075D01*
X129667000Y-80399925D01*
X129698242Y-80242858D01*
X129759530Y-80094898D01*
X129836216Y-79980129D01*
X129848501Y-79961743D01*
X129961743Y-79848501D01*
X130091697Y-79761669D01*
X130094898Y-79759530D01*
X130119511Y-79749335D01*
X130156776Y-79733899D01*
X130242858Y-79698242D01*
X130399925Y-79667000D01*
X130560075Y-79667000D01*
X130717142Y-79698242D01*
X130717142Y-79698242D01*
G37*
G36*
X133257142Y-79698242D02*
X133343224Y-79733899D01*
X133380490Y-79749335D01*
X133405102Y-79759530D01*
X133408303Y-79761669D01*
X133538257Y-79848501D01*
X133651499Y-79961743D01*
X133663784Y-79980129D01*
X133740470Y-80094898D01*
X133801758Y-80242858D01*
X133833000Y-80399925D01*
X133833000Y-80560075D01*
X133801758Y-80717142D01*
X133776131Y-80779009D01*
X133740471Y-80865100D01*
X133660151Y-80985309D01*
X133651498Y-80998258D01*
X133538258Y-81111498D01*
X133405102Y-81200470D01*
X133405101Y-81200471D01*
X133405100Y-81200471D01*
X133376091Y-81212487D01*
X133257142Y-81261758D01*
X133100075Y-81293000D01*
X132939925Y-81293000D01*
X132782858Y-81261758D01*
X132663909Y-81212487D01*
X132634900Y-81200471D01*
X132634899Y-81200471D01*
X132634898Y-81200470D01*
X132501742Y-81111498D01*
X132388502Y-80998258D01*
X132379850Y-80985309D01*
X132299529Y-80865100D01*
X132263869Y-80779009D01*
X132238242Y-80717142D01*
X132207000Y-80560075D01*
X132207000Y-80399925D01*
X132238242Y-80242858D01*
X132299530Y-80094898D01*
X132376216Y-79980129D01*
X132388501Y-79961743D01*
X132501743Y-79848501D01*
X132631697Y-79761669D01*
X132634898Y-79759530D01*
X132659511Y-79749335D01*
X132696776Y-79733899D01*
X132782858Y-79698242D01*
X132939925Y-79667000D01*
X133100075Y-79667000D01*
X133257142Y-79698242D01*
X133257142Y-79698242D01*
G37*
G36*
X138337142Y-79698242D02*
X138423224Y-79733899D01*
X138460490Y-79749335D01*
X138485102Y-79759530D01*
X138488303Y-79761669D01*
X138618257Y-79848501D01*
X138731499Y-79961743D01*
X138743784Y-79980129D01*
X138820470Y-80094898D01*
X138881758Y-80242858D01*
X138913000Y-80399925D01*
X138913000Y-80560075D01*
X138881758Y-80717142D01*
X138856131Y-80779009D01*
X138820471Y-80865100D01*
X138740151Y-80985309D01*
X138731498Y-80998258D01*
X138618258Y-81111498D01*
X138485102Y-81200470D01*
X138485101Y-81200471D01*
X138485100Y-81200471D01*
X138456091Y-81212487D01*
X138337142Y-81261758D01*
X138180075Y-81293000D01*
X138019925Y-81293000D01*
X137862858Y-81261758D01*
X137743909Y-81212487D01*
X137714900Y-81200471D01*
X137714899Y-81200471D01*
X137714898Y-81200470D01*
X137581742Y-81111498D01*
X137468502Y-80998258D01*
X137459850Y-80985309D01*
X137379529Y-80865100D01*
X137343869Y-80779009D01*
X137318242Y-80717142D01*
X137287000Y-80560075D01*
X137287000Y-80399925D01*
X137318242Y-80242858D01*
X137379530Y-80094898D01*
X137456216Y-79980129D01*
X137468501Y-79961743D01*
X137581743Y-79848501D01*
X137711697Y-79761669D01*
X137714898Y-79759530D01*
X137739511Y-79749335D01*
X137776776Y-79733899D01*
X137862858Y-79698242D01*
X138019925Y-79667000D01*
X138180075Y-79667000D01*
X138337142Y-79698242D01*
X138337142Y-79698242D01*
G37*
G36*
X148497142Y-79698242D02*
X148583224Y-79733899D01*
X148620490Y-79749335D01*
X148645102Y-79759530D01*
X148648303Y-79761669D01*
X148778257Y-79848501D01*
X148891499Y-79961743D01*
X148903784Y-79980129D01*
X148980470Y-80094898D01*
X149041758Y-80242858D01*
X149073000Y-80399925D01*
X149073000Y-80560075D01*
X149041758Y-80717142D01*
X149016131Y-80779009D01*
X148980471Y-80865100D01*
X148900151Y-80985309D01*
X148891498Y-80998258D01*
X148778258Y-81111498D01*
X148645102Y-81200470D01*
X148645101Y-81200471D01*
X148645100Y-81200471D01*
X148616091Y-81212487D01*
X148497142Y-81261758D01*
X148340075Y-81293000D01*
X148179925Y-81293000D01*
X148022858Y-81261758D01*
X147903909Y-81212487D01*
X147874900Y-81200471D01*
X147874899Y-81200471D01*
X147874898Y-81200470D01*
X147741742Y-81111498D01*
X147628502Y-80998258D01*
X147619850Y-80985309D01*
X147539529Y-80865100D01*
X147503869Y-80779009D01*
X147478242Y-80717142D01*
X147447000Y-80560075D01*
X147447000Y-80399925D01*
X147478242Y-80242858D01*
X147539530Y-80094898D01*
X147616216Y-79980129D01*
X147628501Y-79961743D01*
X147741743Y-79848501D01*
X147871697Y-79761669D01*
X147874898Y-79759530D01*
X147899511Y-79749335D01*
X147936776Y-79733899D01*
X148022858Y-79698242D01*
X148179925Y-79667000D01*
X148340075Y-79667000D01*
X148497142Y-79698242D01*
X148497142Y-79698242D01*
G37*
G36*
X145957142Y-79698242D02*
X146043224Y-79733899D01*
X146080490Y-79749335D01*
X146105102Y-79759530D01*
X146108303Y-79761669D01*
X146238257Y-79848501D01*
X146351499Y-79961743D01*
X146363784Y-79980129D01*
X146440470Y-80094898D01*
X146501758Y-80242858D01*
X146533000Y-80399925D01*
X146533000Y-80560075D01*
X146501758Y-80717142D01*
X146476131Y-80779009D01*
X146440471Y-80865100D01*
X146360151Y-80985309D01*
X146351498Y-80998258D01*
X146238258Y-81111498D01*
X146105102Y-81200470D01*
X146105101Y-81200471D01*
X146105100Y-81200471D01*
X146076091Y-81212487D01*
X145957142Y-81261758D01*
X145800075Y-81293000D01*
X145639925Y-81293000D01*
X145482858Y-81261758D01*
X145363909Y-81212487D01*
X145334900Y-81200471D01*
X145334899Y-81200471D01*
X145334898Y-81200470D01*
X145201742Y-81111498D01*
X145088502Y-80998258D01*
X145079850Y-80985309D01*
X144999529Y-80865100D01*
X144963869Y-80779009D01*
X144938242Y-80717142D01*
X144907000Y-80560075D01*
X144907000Y-80399925D01*
X144938242Y-80242858D01*
X144999530Y-80094898D01*
X145076216Y-79980129D01*
X145088501Y-79961743D01*
X145201743Y-79848501D01*
X145331697Y-79761669D01*
X145334898Y-79759530D01*
X145359511Y-79749335D01*
X145396776Y-79733899D01*
X145482858Y-79698242D01*
X145639925Y-79667000D01*
X145800075Y-79667000D01*
X145957142Y-79698242D01*
X145957142Y-79698242D01*
G37*
G36*
X140877142Y-79698242D02*
X140963224Y-79733899D01*
X141000490Y-79749335D01*
X141025102Y-79759530D01*
X141028303Y-79761669D01*
X141158257Y-79848501D01*
X141271499Y-79961743D01*
X141283784Y-79980129D01*
X141360470Y-80094898D01*
X141421758Y-80242858D01*
X141453000Y-80399925D01*
X141453000Y-80560075D01*
X141421758Y-80717142D01*
X141396131Y-80779009D01*
X141360471Y-80865100D01*
X141280151Y-80985309D01*
X141271498Y-80998258D01*
X141158258Y-81111498D01*
X141025102Y-81200470D01*
X141025101Y-81200471D01*
X141025100Y-81200471D01*
X140996091Y-81212487D01*
X140877142Y-81261758D01*
X140720075Y-81293000D01*
X140559925Y-81293000D01*
X140402858Y-81261758D01*
X140283909Y-81212487D01*
X140254900Y-81200471D01*
X140254899Y-81200471D01*
X140254898Y-81200470D01*
X140121742Y-81111498D01*
X140008502Y-80998258D01*
X139999850Y-80985309D01*
X139919529Y-80865100D01*
X139883869Y-80779009D01*
X139858242Y-80717142D01*
X139827000Y-80560075D01*
X139827000Y-80399925D01*
X139858242Y-80242858D01*
X139919530Y-80094898D01*
X139996216Y-79980129D01*
X140008501Y-79961743D01*
X140121743Y-79848501D01*
X140251697Y-79761669D01*
X140254898Y-79759530D01*
X140279511Y-79749335D01*
X140316776Y-79733899D01*
X140402858Y-79698242D01*
X140559925Y-79667000D01*
X140720075Y-79667000D01*
X140877142Y-79698242D01*
X140877142Y-79698242D01*
G37*
G36*
X151037142Y-79698242D02*
X151123224Y-79733899D01*
X151160490Y-79749335D01*
X151185102Y-79759530D01*
X151188303Y-79761669D01*
X151318257Y-79848501D01*
X151431499Y-79961743D01*
X151443784Y-79980129D01*
X151520470Y-80094898D01*
X151581758Y-80242858D01*
X151613000Y-80399925D01*
X151613000Y-80560075D01*
X151581758Y-80717142D01*
X151556131Y-80779009D01*
X151520471Y-80865100D01*
X151440151Y-80985309D01*
X151431498Y-80998258D01*
X151318258Y-81111498D01*
X151185102Y-81200470D01*
X151185101Y-81200471D01*
X151185100Y-81200471D01*
X151156091Y-81212487D01*
X151037142Y-81261758D01*
X150880075Y-81293000D01*
X150719925Y-81293000D01*
X150562858Y-81261758D01*
X150443909Y-81212487D01*
X150414900Y-81200471D01*
X150414899Y-81200471D01*
X150414898Y-81200470D01*
X150281742Y-81111498D01*
X150168502Y-80998258D01*
X150159850Y-80985309D01*
X150079529Y-80865100D01*
X150043869Y-80779009D01*
X150018242Y-80717142D01*
X149987000Y-80560075D01*
X149987000Y-80399925D01*
X150018242Y-80242858D01*
X150079530Y-80094898D01*
X150156216Y-79980129D01*
X150168501Y-79961743D01*
X150281743Y-79848501D01*
X150411697Y-79761669D01*
X150414898Y-79759530D01*
X150439511Y-79749335D01*
X150476776Y-79733899D01*
X150562858Y-79698242D01*
X150719925Y-79667000D01*
X150880075Y-79667000D01*
X151037142Y-79698242D01*
X151037142Y-79698242D01*
G37*
G36*
X119529999Y-79679737D02*
X119539611Y-79682653D01*
X119548469Y-79687388D01*
X119556237Y-79693763D01*
X119566446Y-79706202D01*
X119573372Y-79716568D01*
X119590698Y-79733895D01*
X119611073Y-79747510D01*
X119633711Y-79756888D01*
X119657745Y-79761669D01*
X119682249Y-79761669D01*
X119706283Y-79756889D01*
X119728922Y-79747513D01*
X119749297Y-79733899D01*
X119766624Y-79716573D01*
X119773552Y-79706204D01*
X119783763Y-79693763D01*
X119791531Y-79687388D01*
X119800389Y-79682653D01*
X119810001Y-79679737D01*
X119826140Y-79678148D01*
X120313860Y-79678148D01*
X120332198Y-79679954D01*
X120344450Y-79680556D01*
X120362869Y-79680556D01*
X120385149Y-79682750D01*
X120469236Y-79699476D01*
X120490655Y-79705974D01*
X120569871Y-79738785D01*
X120589607Y-79749335D01*
X120660897Y-79796969D01*
X120678208Y-79811176D01*
X120738824Y-79871792D01*
X120753031Y-79889103D01*
X120800665Y-79960393D01*
X120811215Y-79980129D01*
X120844026Y-80059345D01*
X120850524Y-80080764D01*
X120867250Y-80164851D01*
X120869444Y-80187131D01*
X120869444Y-80205550D01*
X120870046Y-80217802D01*
X120871852Y-80236140D01*
X120871852Y-80723861D01*
X120870046Y-80742198D01*
X120869444Y-80754450D01*
X120869444Y-80772869D01*
X120867250Y-80795149D01*
X120850524Y-80879236D01*
X120844026Y-80900655D01*
X120811215Y-80979871D01*
X120800665Y-80999607D01*
X120753031Y-81070897D01*
X120738824Y-81088208D01*
X120678208Y-81148824D01*
X120660897Y-81163031D01*
X120589607Y-81210665D01*
X120569871Y-81221215D01*
X120490655Y-81254026D01*
X120469236Y-81260524D01*
X120385149Y-81277250D01*
X120362869Y-81279444D01*
X120344450Y-81279444D01*
X120332198Y-81280046D01*
X120313861Y-81281852D01*
X119826140Y-81281852D01*
X119810001Y-81280263D01*
X119800389Y-81277347D01*
X119791531Y-81272612D01*
X119783763Y-81266237D01*
X119773554Y-81253798D01*
X119766628Y-81243432D01*
X119749302Y-81226105D01*
X119728927Y-81212490D01*
X119706289Y-81203112D01*
X119682255Y-81198331D01*
X119657751Y-81198331D01*
X119633717Y-81203111D01*
X119611078Y-81212487D01*
X119590703Y-81226101D01*
X119573376Y-81243427D01*
X119566448Y-81253796D01*
X119556237Y-81266237D01*
X119548469Y-81272612D01*
X119539611Y-81277347D01*
X119529999Y-81280263D01*
X119513860Y-81281852D01*
X119026139Y-81281852D01*
X119007802Y-81280046D01*
X118995550Y-81279444D01*
X118977131Y-81279444D01*
X118954851Y-81277250D01*
X118870764Y-81260524D01*
X118849345Y-81254026D01*
X118770129Y-81221215D01*
X118750393Y-81210665D01*
X118679103Y-81163031D01*
X118661792Y-81148824D01*
X118601176Y-81088208D01*
X118586969Y-81070897D01*
X118539335Y-80999607D01*
X118528785Y-80979871D01*
X118495974Y-80900655D01*
X118489476Y-80879236D01*
X118472750Y-80795149D01*
X118470556Y-80772869D01*
X118470556Y-80754450D01*
X118469954Y-80742198D01*
X118468148Y-80723861D01*
X118468148Y-80236140D01*
X118469954Y-80217802D01*
X118470556Y-80205550D01*
X118470556Y-80187131D01*
X118472750Y-80164851D01*
X118489476Y-80080764D01*
X118495974Y-80059345D01*
X118528785Y-79980129D01*
X118539335Y-79960393D01*
X118586969Y-79889103D01*
X118601176Y-79871792D01*
X118661792Y-79811176D01*
X118679103Y-79796969D01*
X118750393Y-79749335D01*
X118770129Y-79738785D01*
X118849345Y-79705974D01*
X118870764Y-79699476D01*
X118954851Y-79682750D01*
X118977131Y-79680556D01*
X118995550Y-79680556D01*
X119007802Y-79679954D01*
X119026140Y-79678148D01*
X119513860Y-79678148D01*
X119529999Y-79679737D01*
X119529999Y-79679737D01*
G37*
G36*
X117126000Y-80931000D02*
X116224000Y-80931000D01*
X116224000Y-80029000D01*
X117126000Y-80029000D01*
X117126000Y-80931000D01*
X117126000Y-80931000D01*
G37*
G36*
X115526000Y-80931000D02*
X114624000Y-80931000D01*
X114624000Y-80029000D01*
X115526000Y-80029000D01*
X115526000Y-80931000D01*
X115526000Y-80931000D01*
G37*
G36*
X165441000Y-80450000D02*
X163339000Y-80450000D01*
X163339000Y-79748000D01*
X165441000Y-79748000D01*
X165441000Y-80450000D01*
X165441000Y-80450000D01*
G37*
G36*
X156041000Y-80450000D02*
X153939000Y-80450000D01*
X153939000Y-79748000D01*
X156041000Y-79748000D01*
X156041000Y-80450000D01*
X156041000Y-80450000D01*
G37*
G36*
X165441000Y-79180000D02*
X163339000Y-79180000D01*
X163339000Y-78478000D01*
X165441000Y-78478000D01*
X165441000Y-79180000D01*
X165441000Y-79180000D01*
G37*
G36*
X156041000Y-79180000D02*
X153939000Y-79180000D01*
X153939000Y-78478000D01*
X156041000Y-78478000D01*
X156041000Y-79180000D01*
X156041000Y-79180000D01*
G37*
G36*
X119544999Y-77139737D02*
X119554611Y-77142653D01*
X119563469Y-77147388D01*
X119571237Y-77153763D01*
X119581446Y-77166202D01*
X119588372Y-77176568D01*
X119605698Y-77193895D01*
X119626073Y-77207510D01*
X119648711Y-77216888D01*
X119672745Y-77221669D01*
X119697249Y-77221669D01*
X119721283Y-77216889D01*
X119743922Y-77207513D01*
X119764297Y-77193899D01*
X119781624Y-77176573D01*
X119788552Y-77166204D01*
X119798763Y-77153763D01*
X119806531Y-77147388D01*
X119815389Y-77142653D01*
X119825001Y-77139737D01*
X119841140Y-77138148D01*
X120328860Y-77138148D01*
X120347198Y-77139954D01*
X120359450Y-77140556D01*
X120377869Y-77140556D01*
X120400149Y-77142750D01*
X120484236Y-77159476D01*
X120505655Y-77165974D01*
X120584871Y-77198785D01*
X120604607Y-77209335D01*
X120675897Y-77256969D01*
X120693208Y-77271176D01*
X120753824Y-77331792D01*
X120768031Y-77349103D01*
X120815665Y-77420393D01*
X120826215Y-77440129D01*
X120859026Y-77519345D01*
X120865524Y-77540764D01*
X120882250Y-77624851D01*
X120884444Y-77647131D01*
X120884444Y-77665550D01*
X120885046Y-77677802D01*
X120886852Y-77696140D01*
X120886852Y-78183861D01*
X120885046Y-78202198D01*
X120884444Y-78214450D01*
X120884444Y-78232869D01*
X120882250Y-78255149D01*
X120865524Y-78339236D01*
X120859026Y-78360655D01*
X120826215Y-78439871D01*
X120815665Y-78459607D01*
X120768031Y-78530897D01*
X120753824Y-78548208D01*
X120693208Y-78608824D01*
X120675897Y-78623031D01*
X120604607Y-78670665D01*
X120584871Y-78681215D01*
X120505655Y-78714026D01*
X120484236Y-78720524D01*
X120400149Y-78737250D01*
X120377869Y-78739444D01*
X120359450Y-78739444D01*
X120347198Y-78740046D01*
X120328861Y-78741852D01*
X119841140Y-78741852D01*
X119825001Y-78740263D01*
X119815389Y-78737347D01*
X119806531Y-78732612D01*
X119798763Y-78726237D01*
X119788554Y-78713798D01*
X119781628Y-78703432D01*
X119764302Y-78686105D01*
X119743927Y-78672490D01*
X119721289Y-78663112D01*
X119697255Y-78658331D01*
X119672751Y-78658331D01*
X119648717Y-78663111D01*
X119626078Y-78672487D01*
X119605703Y-78686101D01*
X119588376Y-78703427D01*
X119581448Y-78713796D01*
X119571237Y-78726237D01*
X119563469Y-78732612D01*
X119554611Y-78737347D01*
X119544999Y-78740263D01*
X119528860Y-78741852D01*
X119041139Y-78741852D01*
X119022802Y-78740046D01*
X119010550Y-78739444D01*
X118992131Y-78739444D01*
X118969851Y-78737250D01*
X118885764Y-78720524D01*
X118864345Y-78714026D01*
X118785129Y-78681215D01*
X118765393Y-78670665D01*
X118694103Y-78623031D01*
X118676792Y-78608824D01*
X118616176Y-78548208D01*
X118601969Y-78530897D01*
X118554335Y-78459607D01*
X118543785Y-78439871D01*
X118510974Y-78360655D01*
X118504476Y-78339236D01*
X118487750Y-78255149D01*
X118485556Y-78232869D01*
X118485556Y-78214450D01*
X118484954Y-78202198D01*
X118483148Y-78183861D01*
X118483148Y-77696140D01*
X118484954Y-77677802D01*
X118485556Y-77665550D01*
X118485556Y-77647131D01*
X118487750Y-77624851D01*
X118504476Y-77540764D01*
X118510974Y-77519345D01*
X118543785Y-77440129D01*
X118554335Y-77420393D01*
X118601969Y-77349103D01*
X118616176Y-77331792D01*
X118676792Y-77271176D01*
X118694103Y-77256969D01*
X118765393Y-77209335D01*
X118785129Y-77198785D01*
X118864345Y-77165974D01*
X118885764Y-77159476D01*
X118969851Y-77142750D01*
X118992131Y-77140556D01*
X119010550Y-77140556D01*
X119022802Y-77139954D01*
X119041140Y-77138148D01*
X119528860Y-77138148D01*
X119544999Y-77139737D01*
X119544999Y-77139737D01*
G37*
G36*
X115526000Y-78391000D02*
X114624000Y-78391000D01*
X114624000Y-77489000D01*
X115526000Y-77489000D01*
X115526000Y-78391000D01*
X115526000Y-78391000D01*
G37*
G36*
X117126000Y-78391000D02*
X116224000Y-78391000D01*
X116224000Y-77489000D01*
X117126000Y-77489000D01*
X117126000Y-78391000D01*
X117126000Y-78391000D01*
G37*
G36*
X165441000Y-77910000D02*
X163339000Y-77910000D01*
X163339000Y-77208000D01*
X165441000Y-77208000D01*
X165441000Y-77910000D01*
X165441000Y-77910000D01*
G37*
G36*
X156041000Y-77910000D02*
X153939000Y-77910000D01*
X153939000Y-77208000D01*
X156041000Y-77208000D01*
X156041000Y-77910000D01*
X156041000Y-77910000D01*
G37*
G36*
X143417142Y-75253242D02*
X143565102Y-75314530D01*
X143698258Y-75403502D01*
X143811498Y-75516742D01*
X143900470Y-75649898D01*
X143961758Y-75797858D01*
X143993000Y-75954925D01*
X143993000Y-76115075D01*
X143961758Y-76272142D01*
X143900470Y-76420102D01*
X143811498Y-76553258D01*
X143698258Y-76666498D01*
X143565102Y-76755470D01*
X143417142Y-76816758D01*
X143260075Y-76848000D01*
X143099925Y-76848000D01*
X142942858Y-76816758D01*
X142794898Y-76755470D01*
X142661742Y-76666498D01*
X142548502Y-76553258D01*
X142459530Y-76420102D01*
X142398242Y-76272142D01*
X142367000Y-76115075D01*
X142367000Y-75954925D01*
X142398242Y-75797858D01*
X142459530Y-75649898D01*
X142548502Y-75516742D01*
X142661742Y-75403502D01*
X142794898Y-75314530D01*
X142942858Y-75253242D01*
X143099925Y-75222000D01*
X143260075Y-75222000D01*
X143417142Y-75253242D01*
X143417142Y-75253242D01*
G37*
G36*
X130717142Y-75253242D02*
X130865102Y-75314530D01*
X130998258Y-75403502D01*
X131111498Y-75516742D01*
X131200470Y-75649898D01*
X131261758Y-75797858D01*
X131293000Y-75954925D01*
X131293000Y-76115075D01*
X131261758Y-76272142D01*
X131200470Y-76420102D01*
X131111498Y-76553258D01*
X130998258Y-76666498D01*
X130865102Y-76755470D01*
X130717142Y-76816758D01*
X130560075Y-76848000D01*
X130399925Y-76848000D01*
X130242858Y-76816758D01*
X130094898Y-76755470D01*
X129961742Y-76666498D01*
X129848502Y-76553258D01*
X129759530Y-76420102D01*
X129698242Y-76272142D01*
X129667000Y-76115075D01*
X129667000Y-75954925D01*
X129698242Y-75797858D01*
X129759530Y-75649898D01*
X129848502Y-75516742D01*
X129961742Y-75403502D01*
X130094898Y-75314530D01*
X130242858Y-75253242D01*
X130399925Y-75222000D01*
X130560075Y-75222000D01*
X130717142Y-75253242D01*
X130717142Y-75253242D01*
G37*
G36*
X125637142Y-75253242D02*
X125785102Y-75314530D01*
X125918258Y-75403502D01*
X126031498Y-75516742D01*
X126120470Y-75649898D01*
X126181758Y-75797858D01*
X126213000Y-75954925D01*
X126213000Y-76115075D01*
X126181758Y-76272142D01*
X126120470Y-76420102D01*
X126031498Y-76553258D01*
X125918258Y-76666498D01*
X125785102Y-76755470D01*
X125637142Y-76816758D01*
X125480075Y-76848000D01*
X125319925Y-76848000D01*
X125162858Y-76816758D01*
X125014898Y-76755470D01*
X124881742Y-76666498D01*
X124768502Y-76553258D01*
X124679530Y-76420102D01*
X124618242Y-76272142D01*
X124587000Y-76115075D01*
X124587000Y-75954925D01*
X124618242Y-75797858D01*
X124679530Y-75649898D01*
X124768502Y-75516742D01*
X124881742Y-75403502D01*
X125014898Y-75314530D01*
X125162858Y-75253242D01*
X125319925Y-75222000D01*
X125480075Y-75222000D01*
X125637142Y-75253242D01*
X125637142Y-75253242D01*
G37*
G36*
X135797142Y-75253242D02*
X135945102Y-75314530D01*
X136078258Y-75403502D01*
X136191498Y-75516742D01*
X136280470Y-75649898D01*
X136341758Y-75797858D01*
X136373000Y-75954925D01*
X136373000Y-76115075D01*
X136341758Y-76272142D01*
X136280470Y-76420102D01*
X136191498Y-76553258D01*
X136078258Y-76666498D01*
X135945102Y-76755470D01*
X135797142Y-76816758D01*
X135640075Y-76848000D01*
X135479925Y-76848000D01*
X135322858Y-76816758D01*
X135174898Y-76755470D01*
X135041742Y-76666498D01*
X134928502Y-76553258D01*
X134839530Y-76420102D01*
X134778242Y-76272142D01*
X134747000Y-76115075D01*
X134747000Y-75954925D01*
X134778242Y-75797858D01*
X134839530Y-75649898D01*
X134928502Y-75516742D01*
X135041742Y-75403502D01*
X135174898Y-75314530D01*
X135322858Y-75253242D01*
X135479925Y-75222000D01*
X135640075Y-75222000D01*
X135797142Y-75253242D01*
X135797142Y-75253242D01*
G37*
G36*
X133257142Y-75253242D02*
X133405102Y-75314530D01*
X133538258Y-75403502D01*
X133651498Y-75516742D01*
X133740470Y-75649898D01*
X133801758Y-75797858D01*
X133833000Y-75954925D01*
X133833000Y-76115075D01*
X133801758Y-76272142D01*
X133740470Y-76420102D01*
X133651498Y-76553258D01*
X133538258Y-76666498D01*
X133405102Y-76755470D01*
X133257142Y-76816758D01*
X133100075Y-76848000D01*
X132939925Y-76848000D01*
X132782858Y-76816758D01*
X132634898Y-76755470D01*
X132501742Y-76666498D01*
X132388502Y-76553258D01*
X132299530Y-76420102D01*
X132238242Y-76272142D01*
X132207000Y-76115075D01*
X132207000Y-75954925D01*
X132238242Y-75797858D01*
X132299530Y-75649898D01*
X132388502Y-75516742D01*
X132501742Y-75403502D01*
X132634898Y-75314530D01*
X132782858Y-75253242D01*
X132939925Y-75222000D01*
X133100075Y-75222000D01*
X133257142Y-75253242D01*
X133257142Y-75253242D01*
G37*
G36*
X156041000Y-76640000D02*
X153939000Y-76640000D01*
X153939000Y-75938000D01*
X156041000Y-75938000D01*
X156041000Y-76640000D01*
X156041000Y-76640000D01*
G37*
G36*
X165441000Y-76640000D02*
X163339000Y-76640000D01*
X163339000Y-75938000D01*
X165441000Y-75938000D01*
X165441000Y-76640000D01*
X165441000Y-76640000D01*
G37*
G36*
X119544999Y-74599737D02*
X119554611Y-74602653D01*
X119563469Y-74607388D01*
X119571237Y-74613763D01*
X119581446Y-74626202D01*
X119588372Y-74636568D01*
X119605698Y-74653895D01*
X119626073Y-74667510D01*
X119648711Y-74676888D01*
X119672745Y-74681669D01*
X119697249Y-74681669D01*
X119721283Y-74676889D01*
X119743922Y-74667513D01*
X119764297Y-74653899D01*
X119781624Y-74636573D01*
X119788552Y-74626204D01*
X119798763Y-74613763D01*
X119806531Y-74607388D01*
X119815389Y-74602653D01*
X119825001Y-74599737D01*
X119841140Y-74598148D01*
X120328860Y-74598148D01*
X120347198Y-74599954D01*
X120359450Y-74600556D01*
X120377869Y-74600556D01*
X120400149Y-74602750D01*
X120484236Y-74619476D01*
X120505655Y-74625974D01*
X120584871Y-74658785D01*
X120604607Y-74669335D01*
X120675897Y-74716969D01*
X120693208Y-74731176D01*
X120753824Y-74791792D01*
X120768031Y-74809103D01*
X120815665Y-74880393D01*
X120826215Y-74900129D01*
X120859026Y-74979345D01*
X120865524Y-75000764D01*
X120882250Y-75084851D01*
X120884444Y-75107131D01*
X120884444Y-75125550D01*
X120885046Y-75137802D01*
X120886852Y-75156140D01*
X120886852Y-75643861D01*
X120885046Y-75662198D01*
X120884444Y-75674450D01*
X120884444Y-75692869D01*
X120882250Y-75715149D01*
X120865524Y-75799236D01*
X120859026Y-75820655D01*
X120826215Y-75899871D01*
X120815665Y-75919607D01*
X120768031Y-75990897D01*
X120753824Y-76008208D01*
X120693208Y-76068824D01*
X120675897Y-76083031D01*
X120604607Y-76130665D01*
X120584871Y-76141215D01*
X120505655Y-76174026D01*
X120484236Y-76180524D01*
X120400149Y-76197250D01*
X120377869Y-76199444D01*
X120359450Y-76199444D01*
X120347198Y-76200046D01*
X120328861Y-76201852D01*
X119841140Y-76201852D01*
X119825001Y-76200263D01*
X119815389Y-76197347D01*
X119806531Y-76192612D01*
X119798763Y-76186237D01*
X119788554Y-76173798D01*
X119781628Y-76163432D01*
X119764302Y-76146105D01*
X119743927Y-76132490D01*
X119721289Y-76123112D01*
X119697255Y-76118331D01*
X119672751Y-76118331D01*
X119648717Y-76123111D01*
X119626078Y-76132487D01*
X119605703Y-76146101D01*
X119588376Y-76163427D01*
X119581448Y-76173796D01*
X119571237Y-76186237D01*
X119563469Y-76192612D01*
X119554611Y-76197347D01*
X119544999Y-76200263D01*
X119528860Y-76201852D01*
X119041139Y-76201852D01*
X119022802Y-76200046D01*
X119010550Y-76199444D01*
X118992131Y-76199444D01*
X118969851Y-76197250D01*
X118885764Y-76180524D01*
X118864345Y-76174026D01*
X118785129Y-76141215D01*
X118765393Y-76130665D01*
X118694103Y-76083031D01*
X118676792Y-76068824D01*
X118616176Y-76008208D01*
X118601969Y-75990897D01*
X118554335Y-75919607D01*
X118543785Y-75899871D01*
X118510974Y-75820655D01*
X118504476Y-75799236D01*
X118487750Y-75715149D01*
X118485556Y-75692869D01*
X118485556Y-75674450D01*
X118484954Y-75662198D01*
X118483148Y-75643861D01*
X118483148Y-75156140D01*
X118484954Y-75137802D01*
X118485556Y-75125550D01*
X118485556Y-75107131D01*
X118487750Y-75084851D01*
X118504476Y-75000764D01*
X118510974Y-74979345D01*
X118543785Y-74900129D01*
X118554335Y-74880393D01*
X118601969Y-74809103D01*
X118616176Y-74791792D01*
X118676792Y-74731176D01*
X118694103Y-74716969D01*
X118765393Y-74669335D01*
X118785129Y-74658785D01*
X118864345Y-74625974D01*
X118885764Y-74619476D01*
X118969851Y-74602750D01*
X118992131Y-74600556D01*
X119010550Y-74600556D01*
X119022802Y-74599954D01*
X119041140Y-74598148D01*
X119528860Y-74598148D01*
X119544999Y-74599737D01*
X119544999Y-74599737D01*
G37*
G36*
X117126000Y-75851000D02*
X116224000Y-75851000D01*
X116224000Y-74949000D01*
X117126000Y-74949000D01*
X117126000Y-75851000D01*
X117126000Y-75851000D01*
G37*
G36*
X115526000Y-75851000D02*
X114624000Y-75851000D01*
X114624000Y-74949000D01*
X115526000Y-74949000D01*
X115526000Y-75851000D01*
X115526000Y-75851000D01*
G37*
G36*
X156041000Y-75370000D02*
X153939000Y-75370000D01*
X153939000Y-74668000D01*
X156041000Y-74668000D01*
X156041000Y-75370000D01*
X156041000Y-75370000D01*
G37*
G36*
X165441000Y-75370000D02*
X163339000Y-75370000D01*
X163339000Y-74668000D01*
X165441000Y-74668000D01*
X165441000Y-75370000D01*
X165441000Y-75370000D01*
G37*
G36*
X156041000Y-74100000D02*
X153939000Y-74100000D01*
X153939000Y-73398000D01*
X156041000Y-73398000D01*
X156041000Y-74100000D01*
X156041000Y-74100000D01*
G37*
G36*
X165441000Y-74100000D02*
X163339000Y-74100000D01*
X163339000Y-73398000D01*
X165441000Y-73398000D01*
X165441000Y-74100000D01*
X165441000Y-74100000D01*
G37*
G36*
X117126000Y-73311000D02*
X116224000Y-73311000D01*
X116224000Y-72409000D01*
X117126000Y-72409000D01*
X117126000Y-73311000D01*
X117126000Y-73311000D01*
G37*
G36*
X115526000Y-73311000D02*
X114624000Y-73311000D01*
X114624000Y-72409000D01*
X115526000Y-72409000D01*
X115526000Y-73311000D01*
X115526000Y-73311000D01*
G37*
G36*
X165441000Y-72830000D02*
X163339000Y-72830000D01*
X163339000Y-72128000D01*
X165441000Y-72128000D01*
X165441000Y-72830000D01*
X165441000Y-72830000D01*
G37*
G36*
X156041000Y-72830000D02*
X153939000Y-72830000D01*
X153939000Y-72128000D01*
X156041000Y-72128000D01*
X156041000Y-72830000D01*
X156041000Y-72830000D01*
G37*
G36*
X156041000Y-71560000D02*
X153939000Y-71560000D01*
X153939000Y-70858000D01*
X156041000Y-70858000D01*
X156041000Y-71560000D01*
X156041000Y-71560000D01*
G37*
G36*
X165441000Y-71560000D02*
X163339000Y-71560000D01*
X163339000Y-70858000D01*
X165441000Y-70858000D01*
X165441000Y-71560000D01*
X165441000Y-71560000D01*
G37*
G36*
X165441000Y-70290000D02*
X163339000Y-70290000D01*
X163339000Y-69588000D01*
X165441000Y-69588000D01*
X165441000Y-70290000D01*
X165441000Y-70290000D01*
G37*
G36*
X156041000Y-70290000D02*
X153939000Y-70290000D01*
X153939000Y-69588000D01*
X156041000Y-69588000D01*
X156041000Y-70290000D01*
X156041000Y-70290000D01*
G37*
G36*
X138337142Y-65093242D02*
X138485102Y-65154530D01*
X138618258Y-65243502D01*
X138731498Y-65356742D01*
X138820470Y-65489898D01*
X138881758Y-65637858D01*
X138913000Y-65794925D01*
X138913000Y-65955075D01*
X138881758Y-66112142D01*
X138820470Y-66260102D01*
X138731498Y-66393258D01*
X138618258Y-66506498D01*
X138485102Y-66595470D01*
X138337142Y-66656758D01*
X138180075Y-66688000D01*
X138019925Y-66688000D01*
X137862858Y-66656758D01*
X137714898Y-66595470D01*
X137581742Y-66506498D01*
X137468502Y-66393258D01*
X137379530Y-66260102D01*
X137318242Y-66112142D01*
X137287000Y-65955075D01*
X137287000Y-65794925D01*
X137318242Y-65637858D01*
X137379530Y-65489898D01*
X137468502Y-65356742D01*
X137581742Y-65243502D01*
X137714898Y-65154530D01*
X137862858Y-65093242D01*
X138019925Y-65062000D01*
X138180075Y-65062000D01*
X138337142Y-65093242D01*
X138337142Y-65093242D01*
G37*
G36*
X140877142Y-65093242D02*
X141025102Y-65154530D01*
X141158258Y-65243502D01*
X141271498Y-65356742D01*
X141360470Y-65489898D01*
X141421758Y-65637858D01*
X141453000Y-65794925D01*
X141453000Y-65955075D01*
X141421758Y-66112142D01*
X141360470Y-66260102D01*
X141271498Y-66393258D01*
X141158258Y-66506498D01*
X141025102Y-66595470D01*
X140877142Y-66656758D01*
X140720075Y-66688000D01*
X140559925Y-66688000D01*
X140402858Y-66656758D01*
X140254898Y-66595470D01*
X140121742Y-66506498D01*
X140008502Y-66393258D01*
X139919530Y-66260102D01*
X139858242Y-66112142D01*
X139827000Y-65955075D01*
X139827000Y-65794925D01*
X139858242Y-65637858D01*
X139919530Y-65489898D01*
X140008502Y-65356742D01*
X140121742Y-65243502D01*
X140254898Y-65154530D01*
X140402858Y-65093242D01*
X140559925Y-65062000D01*
X140720075Y-65062000D01*
X140877142Y-65093242D01*
X140877142Y-65093242D01*
G37*
G36*
X143417142Y-65093242D02*
X143565102Y-65154530D01*
X143698258Y-65243502D01*
X143811498Y-65356742D01*
X143900470Y-65489898D01*
X143961758Y-65637858D01*
X143993000Y-65794925D01*
X143993000Y-65955075D01*
X143961758Y-66112142D01*
X143900470Y-66260102D01*
X143811498Y-66393258D01*
X143698258Y-66506498D01*
X143565102Y-66595470D01*
X143417142Y-66656758D01*
X143260075Y-66688000D01*
X143099925Y-66688000D01*
X142942858Y-66656758D01*
X142794898Y-66595470D01*
X142661742Y-66506498D01*
X142548502Y-66393258D01*
X142459530Y-66260102D01*
X142398242Y-66112142D01*
X142367000Y-65955075D01*
X142367000Y-65794925D01*
X142398242Y-65637858D01*
X142459530Y-65489898D01*
X142548502Y-65356742D01*
X142661742Y-65243502D01*
X142794898Y-65154530D01*
X142942858Y-65093242D01*
X143099925Y-65062000D01*
X143260075Y-65062000D01*
X143417142Y-65093242D01*
X143417142Y-65093242D01*
G37*
G36*
X145957142Y-65093242D02*
X146105102Y-65154530D01*
X146238258Y-65243502D01*
X146351498Y-65356742D01*
X146440470Y-65489898D01*
X146501758Y-65637858D01*
X146533000Y-65794925D01*
X146533000Y-65955075D01*
X146501758Y-66112142D01*
X146440470Y-66260102D01*
X146351498Y-66393258D01*
X146238258Y-66506498D01*
X146105102Y-66595470D01*
X145957142Y-66656758D01*
X145800075Y-66688000D01*
X145639925Y-66688000D01*
X145482858Y-66656758D01*
X145334898Y-66595470D01*
X145201742Y-66506498D01*
X145088502Y-66393258D01*
X144999530Y-66260102D01*
X144938242Y-66112142D01*
X144907000Y-65955075D01*
X144907000Y-65794925D01*
X144938242Y-65637858D01*
X144999530Y-65489898D01*
X145088502Y-65356742D01*
X145201742Y-65243502D01*
X145334898Y-65154530D01*
X145482858Y-65093242D01*
X145639925Y-65062000D01*
X145800075Y-65062000D01*
X145957142Y-65093242D01*
X145957142Y-65093242D01*
G37*
G36*
X151037142Y-65093242D02*
X151185102Y-65154530D01*
X151318258Y-65243502D01*
X151431498Y-65356742D01*
X151520470Y-65489898D01*
X151581758Y-65637858D01*
X151613000Y-65794925D01*
X151613000Y-65955075D01*
X151581758Y-66112142D01*
X151520470Y-66260102D01*
X151431498Y-66393258D01*
X151318258Y-66506498D01*
X151185102Y-66595470D01*
X151037142Y-66656758D01*
X150880075Y-66688000D01*
X150719925Y-66688000D01*
X150562858Y-66656758D01*
X150414898Y-66595470D01*
X150281742Y-66506498D01*
X150168502Y-66393258D01*
X150079530Y-66260102D01*
X150018242Y-66112142D01*
X149987000Y-65955075D01*
X149987000Y-65794925D01*
X150018242Y-65637858D01*
X150079530Y-65489898D01*
X150168502Y-65356742D01*
X150281742Y-65243502D01*
X150414898Y-65154530D01*
X150562858Y-65093242D01*
X150719925Y-65062000D01*
X150880075Y-65062000D01*
X151037142Y-65093242D01*
X151037142Y-65093242D01*
G37*
G36*
X130717142Y-65093242D02*
X130865102Y-65154530D01*
X130998258Y-65243502D01*
X131111498Y-65356742D01*
X131200470Y-65489898D01*
X131261758Y-65637858D01*
X131293000Y-65794925D01*
X131293000Y-65955075D01*
X131261758Y-66112142D01*
X131200470Y-66260102D01*
X131111498Y-66393258D01*
X130998258Y-66506498D01*
X130865102Y-66595470D01*
X130717142Y-66656758D01*
X130560075Y-66688000D01*
X130399925Y-66688000D01*
X130242858Y-66656758D01*
X130094898Y-66595470D01*
X129961742Y-66506498D01*
X129848502Y-66393258D01*
X129759530Y-66260102D01*
X129698242Y-66112142D01*
X129667000Y-65955075D01*
X129667000Y-65794925D01*
X129698242Y-65637858D01*
X129759530Y-65489898D01*
X129848502Y-65356742D01*
X129961742Y-65243502D01*
X130094898Y-65154530D01*
X130242858Y-65093242D01*
X130399925Y-65062000D01*
X130560075Y-65062000D01*
X130717142Y-65093242D01*
X130717142Y-65093242D01*
G37*
G36*
X133257142Y-65093242D02*
X133405102Y-65154530D01*
X133538258Y-65243502D01*
X133651498Y-65356742D01*
X133740470Y-65489898D01*
X133801758Y-65637858D01*
X133833000Y-65794925D01*
X133833000Y-65955075D01*
X133801758Y-66112142D01*
X133740470Y-66260102D01*
X133651498Y-66393258D01*
X133538258Y-66506498D01*
X133405102Y-66595470D01*
X133257142Y-66656758D01*
X133100075Y-66688000D01*
X132939925Y-66688000D01*
X132782858Y-66656758D01*
X132634898Y-66595470D01*
X132501742Y-66506498D01*
X132388502Y-66393258D01*
X132299530Y-66260102D01*
X132238242Y-66112142D01*
X132207000Y-65955075D01*
X132207000Y-65794925D01*
X132238242Y-65637858D01*
X132299530Y-65489898D01*
X132388502Y-65356742D01*
X132501742Y-65243502D01*
X132634898Y-65154530D01*
X132782858Y-65093242D01*
X132939925Y-65062000D01*
X133100075Y-65062000D01*
X133257142Y-65093242D01*
X133257142Y-65093242D01*
G37*
G36*
X125637142Y-65093242D02*
X125785102Y-65154530D01*
X125918258Y-65243502D01*
X126031498Y-65356742D01*
X126120470Y-65489898D01*
X126181758Y-65637858D01*
X126213000Y-65794925D01*
X126213000Y-65955075D01*
X126181758Y-66112142D01*
X126120470Y-66260102D01*
X126031498Y-66393258D01*
X125918258Y-66506498D01*
X125785102Y-66595470D01*
X125637142Y-66656758D01*
X125480075Y-66688000D01*
X125319925Y-66688000D01*
X125162858Y-66656758D01*
X125014898Y-66595470D01*
X124881742Y-66506498D01*
X124768502Y-66393258D01*
X124679530Y-66260102D01*
X124618242Y-66112142D01*
X124587000Y-65955075D01*
X124587000Y-65794925D01*
X124618242Y-65637858D01*
X124679530Y-65489898D01*
X124768502Y-65356742D01*
X124881742Y-65243502D01*
X125014898Y-65154530D01*
X125162858Y-65093242D01*
X125319925Y-65062000D01*
X125480075Y-65062000D01*
X125637142Y-65093242D01*
X125637142Y-65093242D01*
G37*
G36*
X148497142Y-65093242D02*
X148645102Y-65154530D01*
X148778258Y-65243502D01*
X148891498Y-65356742D01*
X148980470Y-65489898D01*
X149041758Y-65637858D01*
X149073000Y-65794925D01*
X149073000Y-65955075D01*
X149041758Y-66112142D01*
X148980470Y-66260102D01*
X148891498Y-66393258D01*
X148778258Y-66506498D01*
X148645102Y-66595470D01*
X148497142Y-66656758D01*
X148340075Y-66688000D01*
X148179925Y-66688000D01*
X148022858Y-66656758D01*
X147874898Y-66595470D01*
X147741742Y-66506498D01*
X147628502Y-66393258D01*
X147539530Y-66260102D01*
X147478242Y-66112142D01*
X147447000Y-65955075D01*
X147447000Y-65794925D01*
X147478242Y-65637858D01*
X147539530Y-65489898D01*
X147628502Y-65356742D01*
X147741742Y-65243502D01*
X147874898Y-65154530D01*
X148022858Y-65093242D01*
X148179925Y-65062000D01*
X148340075Y-65062000D01*
X148497142Y-65093242D01*
X148497142Y-65093242D01*
G37*
G36*
X125637142Y-60648242D02*
X125785102Y-60709530D01*
X125918258Y-60798502D01*
X126031498Y-60911742D01*
X126120470Y-61044898D01*
X126181758Y-61192858D01*
X126213000Y-61349925D01*
X126213000Y-61510075D01*
X126181758Y-61667142D01*
X126120470Y-61815102D01*
X126031498Y-61948258D01*
X125918258Y-62061498D01*
X125785102Y-62150470D01*
X125637142Y-62211758D01*
X125480075Y-62243000D01*
X125319925Y-62243000D01*
X125162858Y-62211758D01*
X125014898Y-62150470D01*
X124881742Y-62061498D01*
X124768502Y-61948258D01*
X124679530Y-61815102D01*
X124618242Y-61667142D01*
X124587000Y-61510075D01*
X124587000Y-61349925D01*
X124618242Y-61192858D01*
X124679530Y-61044898D01*
X124768502Y-60911742D01*
X124881742Y-60798502D01*
X125014898Y-60709530D01*
X125162858Y-60648242D01*
X125319925Y-60617000D01*
X125480075Y-60617000D01*
X125637142Y-60648242D01*
X125637142Y-60648242D01*
G37*
G36*
X133257142Y-60648242D02*
X133405102Y-60709530D01*
X133538258Y-60798502D01*
X133651498Y-60911742D01*
X133740470Y-61044898D01*
X133801758Y-61192858D01*
X133833000Y-61349925D01*
X133833000Y-61510075D01*
X133801758Y-61667142D01*
X133740470Y-61815102D01*
X133651498Y-61948258D01*
X133538258Y-62061498D01*
X133405102Y-62150470D01*
X133257142Y-62211758D01*
X133100075Y-62243000D01*
X132939925Y-62243000D01*
X132782858Y-62211758D01*
X132634898Y-62150470D01*
X132501742Y-62061498D01*
X132388502Y-61948258D01*
X132299530Y-61815102D01*
X132238242Y-61667142D01*
X132207000Y-61510075D01*
X132207000Y-61349925D01*
X132238242Y-61192858D01*
X132299530Y-61044898D01*
X132388502Y-60911742D01*
X132501742Y-60798502D01*
X132634898Y-60709530D01*
X132782858Y-60648242D01*
X132939925Y-60617000D01*
X133100075Y-60617000D01*
X133257142Y-60648242D01*
X133257142Y-60648242D01*
G37*
G36*
X130717142Y-60648242D02*
X130865102Y-60709530D01*
X130998258Y-60798502D01*
X131111498Y-60911742D01*
X131200470Y-61044898D01*
X131261758Y-61192858D01*
X131293000Y-61349925D01*
X131293000Y-61510075D01*
X131261758Y-61667142D01*
X131200470Y-61815102D01*
X131111498Y-61948258D01*
X130998258Y-62061498D01*
X130865102Y-62150470D01*
X130717142Y-62211758D01*
X130560075Y-62243000D01*
X130399925Y-62243000D01*
X130242858Y-62211758D01*
X130094898Y-62150470D01*
X129961742Y-62061498D01*
X129848502Y-61948258D01*
X129759530Y-61815102D01*
X129698242Y-61667142D01*
X129667000Y-61510075D01*
X129667000Y-61349925D01*
X129698242Y-61192858D01*
X129759530Y-61044898D01*
X129848502Y-60911742D01*
X129961742Y-60798502D01*
X130094898Y-60709530D01*
X130242858Y-60648242D01*
X130399925Y-60617000D01*
X130560075Y-60617000D01*
X130717142Y-60648242D01*
X130717142Y-60648242D01*
G37*
G36*
X135797142Y-60648242D02*
X135945102Y-60709530D01*
X136078258Y-60798502D01*
X136191498Y-60911742D01*
X136280470Y-61044898D01*
X136341758Y-61192858D01*
X136373000Y-61349925D01*
X136373000Y-61510075D01*
X136341758Y-61667142D01*
X136280470Y-61815102D01*
X136191498Y-61948258D01*
X136078258Y-62061498D01*
X135945102Y-62150470D01*
X135797142Y-62211758D01*
X135640075Y-62243000D01*
X135479925Y-62243000D01*
X135322858Y-62211758D01*
X135174898Y-62150470D01*
X135041742Y-62061498D01*
X134928502Y-61948258D01*
X134839530Y-61815102D01*
X134778242Y-61667142D01*
X134747000Y-61510075D01*
X134747000Y-61349925D01*
X134778242Y-61192858D01*
X134839530Y-61044898D01*
X134928502Y-60911742D01*
X135041742Y-60798502D01*
X135174898Y-60709530D01*
X135322858Y-60648242D01*
X135479925Y-60617000D01*
X135640075Y-60617000D01*
X135797142Y-60648242D01*
X135797142Y-60648242D01*
G37*
G36*
X143417142Y-60648242D02*
X143565102Y-60709530D01*
X143698258Y-60798502D01*
X143811498Y-60911742D01*
X143900470Y-61044898D01*
X143961758Y-61192858D01*
X143993000Y-61349925D01*
X143993000Y-61510075D01*
X143961758Y-61667142D01*
X143900470Y-61815102D01*
X143811498Y-61948258D01*
X143698258Y-62061498D01*
X143565102Y-62150470D01*
X143417142Y-62211758D01*
X143260075Y-62243000D01*
X143099925Y-62243000D01*
X142942858Y-62211758D01*
X142794898Y-62150470D01*
X142661742Y-62061498D01*
X142548502Y-61948258D01*
X142459530Y-61815102D01*
X142398242Y-61667142D01*
X142367000Y-61510075D01*
X142367000Y-61349925D01*
X142398242Y-61192858D01*
X142459530Y-61044898D01*
X142548502Y-60911742D01*
X142661742Y-60798502D01*
X142794898Y-60709530D01*
X142942858Y-60648242D01*
X143099925Y-60617000D01*
X143260075Y-60617000D01*
X143417142Y-60648242D01*
X143417142Y-60648242D01*
G37*
G36*
X161195000Y-60103000D02*
X160293000Y-60103000D01*
X160293000Y-59201000D01*
X161195000Y-59201000D01*
X161195000Y-60103000D01*
X161195000Y-60103000D01*
G37*
G36*
X159595000Y-60103000D02*
X158693000Y-60103000D01*
X158693000Y-59201000D01*
X159595000Y-59201000D01*
X159595000Y-60103000D01*
X159595000Y-60103000D01*
G37*
G36*
X165441000Y-57590000D02*
X163339000Y-57590000D01*
X163339000Y-56888000D01*
X165441000Y-56888000D01*
X165441000Y-57590000D01*
X165441000Y-57590000D01*
G37*
G36*
X156041000Y-57590000D02*
X153939000Y-57590000D01*
X153939000Y-56888000D01*
X156041000Y-56888000D01*
X156041000Y-57590000D01*
X156041000Y-57590000D01*
G37*
G36*
X165441000Y-56320000D02*
X163339000Y-56320000D01*
X163339000Y-55618000D01*
X165441000Y-55618000D01*
X165441000Y-56320000D01*
X165441000Y-56320000D01*
G37*
G36*
X156041000Y-56320000D02*
X153939000Y-56320000D01*
X153939000Y-55618000D01*
X156041000Y-55618000D01*
X156041000Y-56320000D01*
X156041000Y-56320000D01*
G37*
G36*
X156041000Y-55050000D02*
X153939000Y-55050000D01*
X153939000Y-54348000D01*
X156041000Y-54348000D01*
X156041000Y-55050000D01*
X156041000Y-55050000D01*
G37*
G36*
X165441000Y-55050000D02*
X163339000Y-55050000D01*
X163339000Y-54348000D01*
X165441000Y-54348000D01*
X165441000Y-55050000D01*
X165441000Y-55050000D01*
G37*
G36*
X165441000Y-53780000D02*
X163339000Y-53780000D01*
X163339000Y-53078000D01*
X165441000Y-53078000D01*
X165441000Y-53780000D01*
X165441000Y-53780000D01*
G37*
G36*
X156041000Y-53780000D02*
X153939000Y-53780000D01*
X153939000Y-53078000D01*
X156041000Y-53078000D01*
X156041000Y-53780000D01*
X156041000Y-53780000D01*
G37*
G36*
X156041000Y-52510000D02*
X153939000Y-52510000D01*
X153939000Y-51808000D01*
X156041000Y-51808000D01*
X156041000Y-52510000D01*
X156041000Y-52510000D01*
G37*
G36*
X165441000Y-52510000D02*
X163339000Y-52510000D01*
X163339000Y-51808000D01*
X165441000Y-51808000D01*
X165441000Y-52510000D01*
X165441000Y-52510000D01*
G37*
G36*
X151037142Y-50488242D02*
X151151583Y-50535646D01*
X151182266Y-50548355D01*
X151185102Y-50549530D01*
X151252130Y-50594317D01*
X151314092Y-50635718D01*
X151318258Y-50638502D01*
X151431498Y-50751742D01*
X151520470Y-50884898D01*
X151581758Y-51032858D01*
X151613000Y-51189925D01*
X151613000Y-51350075D01*
X151581758Y-51507142D01*
X151534354Y-51621583D01*
X151520471Y-51655100D01*
X151431499Y-51788257D01*
X151318257Y-51901499D01*
X151252130Y-51945683D01*
X151185102Y-51990470D01*
X151185101Y-51990471D01*
X151185100Y-51990471D01*
X151174605Y-51994818D01*
X151037142Y-52051758D01*
X150880075Y-52083000D01*
X150719925Y-52083000D01*
X150562858Y-52051758D01*
X150425395Y-51994818D01*
X150414900Y-51990471D01*
X150414899Y-51990471D01*
X150414898Y-51990470D01*
X150347870Y-51945683D01*
X150281743Y-51901499D01*
X150168501Y-51788257D01*
X150079529Y-51655100D01*
X150065646Y-51621583D01*
X150018242Y-51507142D01*
X149987000Y-51350075D01*
X149987000Y-51189925D01*
X150018242Y-51032858D01*
X150079530Y-50884898D01*
X150168502Y-50751742D01*
X150281742Y-50638502D01*
X150285909Y-50635718D01*
X150347870Y-50594317D01*
X150414898Y-50549530D01*
X150417735Y-50548355D01*
X150448417Y-50535646D01*
X150562858Y-50488242D01*
X150719925Y-50457000D01*
X150880075Y-50457000D01*
X151037142Y-50488242D01*
X151037142Y-50488242D01*
G37*
G36*
X148497142Y-50488242D02*
X148611583Y-50535646D01*
X148642266Y-50548355D01*
X148645102Y-50549530D01*
X148712130Y-50594317D01*
X148774092Y-50635718D01*
X148778258Y-50638502D01*
X148891498Y-50751742D01*
X148980470Y-50884898D01*
X149041758Y-51032858D01*
X149073000Y-51189925D01*
X149073000Y-51350075D01*
X149041758Y-51507142D01*
X148994354Y-51621583D01*
X148980471Y-51655100D01*
X148891499Y-51788257D01*
X148778257Y-51901499D01*
X148712130Y-51945683D01*
X148645102Y-51990470D01*
X148645101Y-51990471D01*
X148645100Y-51990471D01*
X148634605Y-51994818D01*
X148497142Y-52051758D01*
X148340075Y-52083000D01*
X148179925Y-52083000D01*
X148022858Y-52051758D01*
X147885395Y-51994818D01*
X147874900Y-51990471D01*
X147874899Y-51990471D01*
X147874898Y-51990470D01*
X147807870Y-51945683D01*
X147741743Y-51901499D01*
X147628501Y-51788257D01*
X147539529Y-51655100D01*
X147525646Y-51621583D01*
X147478242Y-51507142D01*
X147447000Y-51350075D01*
X147447000Y-51189925D01*
X147478242Y-51032858D01*
X147539530Y-50884898D01*
X147628502Y-50751742D01*
X147741742Y-50638502D01*
X147745909Y-50635718D01*
X147807870Y-50594317D01*
X147874898Y-50549530D01*
X147877735Y-50548355D01*
X147908417Y-50535646D01*
X148022858Y-50488242D01*
X148179925Y-50457000D01*
X148340075Y-50457000D01*
X148497142Y-50488242D01*
X148497142Y-50488242D01*
G37*
G36*
X145957142Y-50488242D02*
X146071583Y-50535646D01*
X146102266Y-50548355D01*
X146105102Y-50549530D01*
X146172130Y-50594317D01*
X146234092Y-50635718D01*
X146238258Y-50638502D01*
X146351498Y-50751742D01*
X146440470Y-50884898D01*
X146501758Y-51032858D01*
X146533000Y-51189925D01*
X146533000Y-51350075D01*
X146501758Y-51507142D01*
X146454354Y-51621583D01*
X146440471Y-51655100D01*
X146351499Y-51788257D01*
X146238257Y-51901499D01*
X146172130Y-51945683D01*
X146105102Y-51990470D01*
X146105101Y-51990471D01*
X146105100Y-51990471D01*
X146094605Y-51994818D01*
X145957142Y-52051758D01*
X145800075Y-52083000D01*
X145639925Y-52083000D01*
X145482858Y-52051758D01*
X145345395Y-51994818D01*
X145334900Y-51990471D01*
X145334899Y-51990471D01*
X145334898Y-51990470D01*
X145267870Y-51945683D01*
X145201743Y-51901499D01*
X145088501Y-51788257D01*
X144999529Y-51655100D01*
X144985646Y-51621583D01*
X144938242Y-51507142D01*
X144907000Y-51350075D01*
X144907000Y-51189925D01*
X144938242Y-51032858D01*
X144999530Y-50884898D01*
X145088502Y-50751742D01*
X145201742Y-50638502D01*
X145205909Y-50635718D01*
X145267870Y-50594317D01*
X145334898Y-50549530D01*
X145337735Y-50548355D01*
X145368417Y-50535646D01*
X145482858Y-50488242D01*
X145639925Y-50457000D01*
X145800075Y-50457000D01*
X145957142Y-50488242D01*
X145957142Y-50488242D01*
G37*
G36*
X143417142Y-50488242D02*
X143531583Y-50535646D01*
X143562266Y-50548355D01*
X143565102Y-50549530D01*
X143632130Y-50594317D01*
X143694092Y-50635718D01*
X143698258Y-50638502D01*
X143811498Y-50751742D01*
X143900470Y-50884898D01*
X143961758Y-51032858D01*
X143993000Y-51189925D01*
X143993000Y-51350075D01*
X143961758Y-51507142D01*
X143914354Y-51621583D01*
X143900471Y-51655100D01*
X143811499Y-51788257D01*
X143698257Y-51901499D01*
X143632130Y-51945683D01*
X143565102Y-51990470D01*
X143565101Y-51990471D01*
X143565100Y-51990471D01*
X143554605Y-51994818D01*
X143417142Y-52051758D01*
X143260075Y-52083000D01*
X143099925Y-52083000D01*
X142942858Y-52051758D01*
X142805395Y-51994818D01*
X142794900Y-51990471D01*
X142794899Y-51990471D01*
X142794898Y-51990470D01*
X142727870Y-51945683D01*
X142661743Y-51901499D01*
X142548501Y-51788257D01*
X142459529Y-51655100D01*
X142445646Y-51621583D01*
X142398242Y-51507142D01*
X142367000Y-51350075D01*
X142367000Y-51189925D01*
X142398242Y-51032858D01*
X142459530Y-50884898D01*
X142548502Y-50751742D01*
X142661742Y-50638502D01*
X142665909Y-50635718D01*
X142727870Y-50594317D01*
X142794898Y-50549530D01*
X142797735Y-50548355D01*
X142828417Y-50535646D01*
X142942858Y-50488242D01*
X143099925Y-50457000D01*
X143260075Y-50457000D01*
X143417142Y-50488242D01*
X143417142Y-50488242D01*
G37*
G36*
X140877142Y-50488242D02*
X140991583Y-50535646D01*
X141022266Y-50548355D01*
X141025102Y-50549530D01*
X141092130Y-50594317D01*
X141154092Y-50635718D01*
X141158258Y-50638502D01*
X141271498Y-50751742D01*
X141360470Y-50884898D01*
X141421758Y-51032858D01*
X141453000Y-51189925D01*
X141453000Y-51350075D01*
X141421758Y-51507142D01*
X141374354Y-51621583D01*
X141360471Y-51655100D01*
X141271499Y-51788257D01*
X141158257Y-51901499D01*
X141092130Y-51945683D01*
X141025102Y-51990470D01*
X141025101Y-51990471D01*
X141025100Y-51990471D01*
X141014605Y-51994818D01*
X140877142Y-52051758D01*
X140720075Y-52083000D01*
X140559925Y-52083000D01*
X140402858Y-52051758D01*
X140265395Y-51994818D01*
X140254900Y-51990471D01*
X140254899Y-51990471D01*
X140254898Y-51990470D01*
X140187870Y-51945683D01*
X140121743Y-51901499D01*
X140008501Y-51788257D01*
X139919529Y-51655100D01*
X139905646Y-51621583D01*
X139858242Y-51507142D01*
X139827000Y-51350075D01*
X139827000Y-51189925D01*
X139858242Y-51032858D01*
X139919530Y-50884898D01*
X140008502Y-50751742D01*
X140121742Y-50638502D01*
X140125909Y-50635718D01*
X140187870Y-50594317D01*
X140254898Y-50549530D01*
X140257735Y-50548355D01*
X140288417Y-50535646D01*
X140402858Y-50488242D01*
X140559925Y-50457000D01*
X140720075Y-50457000D01*
X140877142Y-50488242D01*
X140877142Y-50488242D01*
G37*
G36*
X133257142Y-50488242D02*
X133371583Y-50535646D01*
X133402266Y-50548355D01*
X133405102Y-50549530D01*
X133472130Y-50594317D01*
X133534092Y-50635718D01*
X133538258Y-50638502D01*
X133651498Y-50751742D01*
X133740470Y-50884898D01*
X133801758Y-51032858D01*
X133833000Y-51189925D01*
X133833000Y-51350075D01*
X133801758Y-51507142D01*
X133754354Y-51621583D01*
X133740471Y-51655100D01*
X133651499Y-51788257D01*
X133538257Y-51901499D01*
X133472130Y-51945683D01*
X133405102Y-51990470D01*
X133405101Y-51990471D01*
X133405100Y-51990471D01*
X133394605Y-51994818D01*
X133257142Y-52051758D01*
X133100075Y-52083000D01*
X132939925Y-52083000D01*
X132782858Y-52051758D01*
X132645395Y-51994818D01*
X132634900Y-51990471D01*
X132634899Y-51990471D01*
X132634898Y-51990470D01*
X132567870Y-51945683D01*
X132501743Y-51901499D01*
X132388501Y-51788257D01*
X132299529Y-51655100D01*
X132285646Y-51621583D01*
X132238242Y-51507142D01*
X132207000Y-51350075D01*
X132207000Y-51189925D01*
X132238242Y-51032858D01*
X132299530Y-50884898D01*
X132388502Y-50751742D01*
X132501742Y-50638502D01*
X132505909Y-50635718D01*
X132567870Y-50594317D01*
X132634898Y-50549530D01*
X132637735Y-50548355D01*
X132668417Y-50535646D01*
X132782858Y-50488242D01*
X132939925Y-50457000D01*
X133100075Y-50457000D01*
X133257142Y-50488242D01*
X133257142Y-50488242D01*
G37*
G36*
X138337142Y-50488242D02*
X138451583Y-50535646D01*
X138482266Y-50548355D01*
X138485102Y-50549530D01*
X138552130Y-50594317D01*
X138614092Y-50635718D01*
X138618258Y-50638502D01*
X138731498Y-50751742D01*
X138820470Y-50884898D01*
X138881758Y-51032858D01*
X138913000Y-51189925D01*
X138913000Y-51350075D01*
X138881758Y-51507142D01*
X138834354Y-51621583D01*
X138820471Y-51655100D01*
X138731499Y-51788257D01*
X138618257Y-51901499D01*
X138552130Y-51945683D01*
X138485102Y-51990470D01*
X138485101Y-51990471D01*
X138485100Y-51990471D01*
X138474605Y-51994818D01*
X138337142Y-52051758D01*
X138180075Y-52083000D01*
X138019925Y-52083000D01*
X137862858Y-52051758D01*
X137725395Y-51994818D01*
X137714900Y-51990471D01*
X137714899Y-51990471D01*
X137714898Y-51990470D01*
X137647870Y-51945683D01*
X137581743Y-51901499D01*
X137468501Y-51788257D01*
X137379529Y-51655100D01*
X137365646Y-51621583D01*
X137318242Y-51507142D01*
X137287000Y-51350075D01*
X137287000Y-51189925D01*
X137318242Y-51032858D01*
X137379530Y-50884898D01*
X137468502Y-50751742D01*
X137581742Y-50638502D01*
X137585909Y-50635718D01*
X137647870Y-50594317D01*
X137714898Y-50549530D01*
X137717735Y-50548355D01*
X137748417Y-50535646D01*
X137862858Y-50488242D01*
X138019925Y-50457000D01*
X138180075Y-50457000D01*
X138337142Y-50488242D01*
X138337142Y-50488242D01*
G37*
G36*
X125637142Y-50488242D02*
X125751583Y-50535646D01*
X125782266Y-50548355D01*
X125785102Y-50549530D01*
X125852130Y-50594317D01*
X125914092Y-50635718D01*
X125918258Y-50638502D01*
X126031498Y-50751742D01*
X126120470Y-50884898D01*
X126181758Y-51032858D01*
X126213000Y-51189925D01*
X126213000Y-51350075D01*
X126181758Y-51507142D01*
X126134354Y-51621583D01*
X126120471Y-51655100D01*
X126031499Y-51788257D01*
X125918257Y-51901499D01*
X125852130Y-51945683D01*
X125785102Y-51990470D01*
X125785101Y-51990471D01*
X125785100Y-51990471D01*
X125774605Y-51994818D01*
X125637142Y-52051758D01*
X125480075Y-52083000D01*
X125319925Y-52083000D01*
X125162858Y-52051758D01*
X125025395Y-51994818D01*
X125014900Y-51990471D01*
X125014899Y-51990471D01*
X125014898Y-51990470D01*
X124947870Y-51945683D01*
X124881743Y-51901499D01*
X124768501Y-51788257D01*
X124679529Y-51655100D01*
X124665646Y-51621583D01*
X124618242Y-51507142D01*
X124587000Y-51350075D01*
X124587000Y-51189925D01*
X124618242Y-51032858D01*
X124679530Y-50884898D01*
X124768502Y-50751742D01*
X124881742Y-50638502D01*
X124885909Y-50635718D01*
X124947870Y-50594317D01*
X125014898Y-50549530D01*
X125017735Y-50548355D01*
X125048417Y-50535646D01*
X125162858Y-50488242D01*
X125319925Y-50457000D01*
X125480075Y-50457000D01*
X125637142Y-50488242D01*
X125637142Y-50488242D01*
G37*
G36*
X130717142Y-50488242D02*
X130831583Y-50535646D01*
X130862266Y-50548355D01*
X130865102Y-50549530D01*
X130932130Y-50594317D01*
X130994092Y-50635718D01*
X130998258Y-50638502D01*
X131111498Y-50751742D01*
X131200470Y-50884898D01*
X131261758Y-51032858D01*
X131293000Y-51189925D01*
X131293000Y-51350075D01*
X131261758Y-51507142D01*
X131214354Y-51621583D01*
X131200471Y-51655100D01*
X131111499Y-51788257D01*
X130998257Y-51901499D01*
X130932130Y-51945683D01*
X130865102Y-51990470D01*
X130865101Y-51990471D01*
X130865100Y-51990471D01*
X130854605Y-51994818D01*
X130717142Y-52051758D01*
X130560075Y-52083000D01*
X130399925Y-52083000D01*
X130242858Y-52051758D01*
X130105395Y-51994818D01*
X130094900Y-51990471D01*
X130094899Y-51990471D01*
X130094898Y-51990470D01*
X130027870Y-51945683D01*
X129961743Y-51901499D01*
X129848501Y-51788257D01*
X129759529Y-51655100D01*
X129745646Y-51621583D01*
X129698242Y-51507142D01*
X129667000Y-51350075D01*
X129667000Y-51189925D01*
X129698242Y-51032858D01*
X129759530Y-50884898D01*
X129848502Y-50751742D01*
X129961742Y-50638502D01*
X129965909Y-50635718D01*
X130027870Y-50594317D01*
X130094898Y-50549530D01*
X130097735Y-50548355D01*
X130128417Y-50535646D01*
X130242858Y-50488242D01*
X130399925Y-50457000D01*
X130560075Y-50457000D01*
X130717142Y-50488242D01*
X130717142Y-50488242D01*
G37*
G36*
X119506329Y-50431123D02*
X119515941Y-50434039D01*
X119524799Y-50438774D01*
X119532567Y-50445149D01*
X119542776Y-50457588D01*
X119549702Y-50467954D01*
X119567028Y-50485281D01*
X119587403Y-50498896D01*
X119610041Y-50508274D01*
X119634075Y-50513055D01*
X119658579Y-50513055D01*
X119682613Y-50508275D01*
X119705252Y-50498899D01*
X119725627Y-50485285D01*
X119742954Y-50467959D01*
X119749882Y-50457590D01*
X119760093Y-50445149D01*
X119767861Y-50438774D01*
X119776719Y-50434039D01*
X119786331Y-50431123D01*
X119802470Y-50429534D01*
X120290190Y-50429534D01*
X120308528Y-50431340D01*
X120320780Y-50431942D01*
X120339199Y-50431942D01*
X120361479Y-50434136D01*
X120445566Y-50450862D01*
X120466985Y-50457360D01*
X120546201Y-50490171D01*
X120565937Y-50500721D01*
X120637227Y-50548355D01*
X120654538Y-50562562D01*
X120715154Y-50623178D01*
X120729361Y-50640489D01*
X120776995Y-50711779D01*
X120787545Y-50731515D01*
X120820356Y-50810731D01*
X120826854Y-50832150D01*
X120843580Y-50916237D01*
X120845774Y-50938517D01*
X120845774Y-50956936D01*
X120846376Y-50969188D01*
X120848182Y-50987526D01*
X120848182Y-51475247D01*
X120846376Y-51493584D01*
X120845774Y-51505836D01*
X120845774Y-51524255D01*
X120843580Y-51546535D01*
X120826854Y-51630622D01*
X120820356Y-51652041D01*
X120787545Y-51731257D01*
X120776995Y-51750993D01*
X120729361Y-51822283D01*
X120715154Y-51839594D01*
X120654538Y-51900210D01*
X120637227Y-51914417D01*
X120565937Y-51962051D01*
X120546201Y-51972601D01*
X120466985Y-52005412D01*
X120445566Y-52011910D01*
X120361479Y-52028636D01*
X120339199Y-52030830D01*
X120320780Y-52030830D01*
X120308528Y-52031432D01*
X120290191Y-52033238D01*
X119802470Y-52033238D01*
X119786331Y-52031649D01*
X119776719Y-52028733D01*
X119767861Y-52023998D01*
X119760093Y-52017623D01*
X119749884Y-52005184D01*
X119742958Y-51994818D01*
X119725632Y-51977491D01*
X119705257Y-51963876D01*
X119682619Y-51954498D01*
X119658585Y-51949717D01*
X119634081Y-51949717D01*
X119610047Y-51954497D01*
X119587408Y-51963873D01*
X119567033Y-51977487D01*
X119549706Y-51994813D01*
X119542778Y-52005182D01*
X119532567Y-52017623D01*
X119524799Y-52023998D01*
X119515941Y-52028733D01*
X119506329Y-52031649D01*
X119490190Y-52033238D01*
X119002469Y-52033238D01*
X118984132Y-52031432D01*
X118971880Y-52030830D01*
X118953461Y-52030830D01*
X118931181Y-52028636D01*
X118847094Y-52011910D01*
X118825675Y-52005412D01*
X118746459Y-51972601D01*
X118726723Y-51962051D01*
X118655433Y-51914417D01*
X118638122Y-51900210D01*
X118577506Y-51839594D01*
X118563299Y-51822283D01*
X118515665Y-51750993D01*
X118505115Y-51731257D01*
X118472304Y-51652041D01*
X118465806Y-51630622D01*
X118449080Y-51546535D01*
X118446886Y-51524255D01*
X118446886Y-51505836D01*
X118446284Y-51493584D01*
X118444478Y-51475247D01*
X118444478Y-50987526D01*
X118446284Y-50969188D01*
X118446886Y-50956936D01*
X118446886Y-50938517D01*
X118449080Y-50916237D01*
X118465806Y-50832150D01*
X118472304Y-50810731D01*
X118505115Y-50731515D01*
X118515665Y-50711779D01*
X118563299Y-50640489D01*
X118577506Y-50623178D01*
X118638122Y-50562562D01*
X118655433Y-50548355D01*
X118726723Y-50500721D01*
X118746459Y-50490171D01*
X118825675Y-50457360D01*
X118847094Y-50450862D01*
X118931181Y-50434136D01*
X118953461Y-50431942D01*
X118971880Y-50431942D01*
X118984132Y-50431340D01*
X119002470Y-50429534D01*
X119490190Y-50429534D01*
X119506329Y-50431123D01*
X119506329Y-50431123D01*
G37*
G36*
X115487330Y-51682386D02*
X114585330Y-51682386D01*
X114585330Y-50780386D01*
X115487330Y-50780386D01*
X115487330Y-51682386D01*
X115487330Y-51682386D01*
G37*
G36*
X117087330Y-51682386D02*
X116185330Y-51682386D01*
X116185330Y-50780386D01*
X117087330Y-50780386D01*
X117087330Y-51682386D01*
X117087330Y-51682386D01*
G37*
G36*
X156041000Y-51240000D02*
X153939000Y-51240000D01*
X153939000Y-50538000D01*
X156041000Y-50538000D01*
X156041000Y-51240000D01*
X156041000Y-51240000D01*
G37*
G36*
X165441000Y-51240000D02*
X163339000Y-51240000D01*
X163339000Y-50538000D01*
X165441000Y-50538000D01*
X165441000Y-51240000D01*
X165441000Y-51240000D01*
G37*
G36*
X156041000Y-49970000D02*
X153939000Y-49970000D01*
X153939000Y-49268000D01*
X156041000Y-49268000D01*
X156041000Y-49970000D01*
X156041000Y-49970000D01*
G37*
G36*
X165441000Y-49970000D02*
X163339000Y-49970000D01*
X163339000Y-49268000D01*
X165441000Y-49268000D01*
X165441000Y-49970000D01*
X165441000Y-49970000D01*
G37*
G36*
X119506329Y-47891123D02*
X119515941Y-47894039D01*
X119524799Y-47898774D01*
X119532567Y-47905149D01*
X119542776Y-47917588D01*
X119549702Y-47927954D01*
X119567028Y-47945281D01*
X119587403Y-47958896D01*
X119610041Y-47968274D01*
X119634075Y-47973055D01*
X119658579Y-47973055D01*
X119682613Y-47968275D01*
X119705252Y-47958899D01*
X119725627Y-47945285D01*
X119742954Y-47927959D01*
X119749882Y-47917590D01*
X119760093Y-47905149D01*
X119767861Y-47898774D01*
X119776719Y-47894039D01*
X119786331Y-47891123D01*
X119802470Y-47889534D01*
X120290190Y-47889534D01*
X120308528Y-47891340D01*
X120320780Y-47891942D01*
X120339199Y-47891942D01*
X120361479Y-47894136D01*
X120445566Y-47910862D01*
X120466985Y-47917360D01*
X120546201Y-47950171D01*
X120565937Y-47960721D01*
X120637227Y-48008355D01*
X120654538Y-48022562D01*
X120715154Y-48083178D01*
X120729361Y-48100489D01*
X120776995Y-48171779D01*
X120787545Y-48191515D01*
X120820356Y-48270731D01*
X120826854Y-48292150D01*
X120843580Y-48376237D01*
X120845774Y-48398517D01*
X120845774Y-48416936D01*
X120846376Y-48429188D01*
X120848182Y-48447526D01*
X120848182Y-48935247D01*
X120846376Y-48953584D01*
X120845774Y-48965836D01*
X120845774Y-48984255D01*
X120843580Y-49006535D01*
X120826854Y-49090622D01*
X120820356Y-49112041D01*
X120787545Y-49191257D01*
X120776995Y-49210993D01*
X120729361Y-49282283D01*
X120715154Y-49299594D01*
X120654538Y-49360210D01*
X120637227Y-49374417D01*
X120565937Y-49422051D01*
X120546201Y-49432601D01*
X120466985Y-49465412D01*
X120445566Y-49471910D01*
X120361479Y-49488636D01*
X120339199Y-49490830D01*
X120320780Y-49490830D01*
X120308528Y-49491432D01*
X120290191Y-49493238D01*
X119802470Y-49493238D01*
X119786331Y-49491649D01*
X119776719Y-49488733D01*
X119767861Y-49483998D01*
X119760093Y-49477623D01*
X119749884Y-49465184D01*
X119742958Y-49454818D01*
X119725632Y-49437491D01*
X119705257Y-49423876D01*
X119682619Y-49414498D01*
X119658585Y-49409717D01*
X119634081Y-49409717D01*
X119610047Y-49414497D01*
X119587408Y-49423873D01*
X119567033Y-49437487D01*
X119549706Y-49454813D01*
X119542778Y-49465182D01*
X119532567Y-49477623D01*
X119524799Y-49483998D01*
X119515941Y-49488733D01*
X119506329Y-49491649D01*
X119490190Y-49493238D01*
X119002469Y-49493238D01*
X118984132Y-49491432D01*
X118971880Y-49490830D01*
X118953461Y-49490830D01*
X118931181Y-49488636D01*
X118847094Y-49471910D01*
X118825675Y-49465412D01*
X118746459Y-49432601D01*
X118726723Y-49422051D01*
X118655433Y-49374417D01*
X118638122Y-49360210D01*
X118577506Y-49299594D01*
X118563299Y-49282283D01*
X118515665Y-49210993D01*
X118505115Y-49191257D01*
X118472304Y-49112041D01*
X118465806Y-49090622D01*
X118449080Y-49006535D01*
X118446886Y-48984255D01*
X118446886Y-48965836D01*
X118446284Y-48953584D01*
X118444478Y-48935247D01*
X118444478Y-48447526D01*
X118446284Y-48429188D01*
X118446886Y-48416936D01*
X118446886Y-48398517D01*
X118449080Y-48376237D01*
X118465806Y-48292150D01*
X118472304Y-48270731D01*
X118505115Y-48191515D01*
X118515665Y-48171779D01*
X118563299Y-48100489D01*
X118577506Y-48083178D01*
X118638122Y-48022562D01*
X118655433Y-48008355D01*
X118726723Y-47960721D01*
X118746459Y-47950171D01*
X118825675Y-47917360D01*
X118847094Y-47910862D01*
X118931181Y-47894136D01*
X118953461Y-47891942D01*
X118971880Y-47891942D01*
X118984132Y-47891340D01*
X119002470Y-47889534D01*
X119490190Y-47889534D01*
X119506329Y-47891123D01*
X119506329Y-47891123D01*
G37*
G36*
X117087330Y-49142386D02*
X116185330Y-49142386D01*
X116185330Y-48240386D01*
X117087330Y-48240386D01*
X117087330Y-49142386D01*
X117087330Y-49142386D01*
G37*
G36*
X115487330Y-49142386D02*
X114585330Y-49142386D01*
X114585330Y-48240386D01*
X115487330Y-48240386D01*
X115487330Y-49142386D01*
X115487330Y-49142386D01*
G37*
G36*
X165441000Y-48700000D02*
X163339000Y-48700000D01*
X163339000Y-47998000D01*
X165441000Y-47998000D01*
X165441000Y-48700000D01*
X165441000Y-48700000D01*
G37*
G36*
X156041000Y-48700000D02*
X153939000Y-48700000D01*
X153939000Y-47998000D01*
X156041000Y-47998000D01*
X156041000Y-48700000D01*
X156041000Y-48700000D01*
G37*
G36*
X125637142Y-46043242D02*
X125785102Y-46104530D01*
X125918258Y-46193502D01*
X126031498Y-46306742D01*
X126102888Y-46413584D01*
X126120471Y-46439900D01*
X126131504Y-46466535D01*
X126181758Y-46587858D01*
X126213000Y-46744925D01*
X126213000Y-46905075D01*
X126181758Y-47062142D01*
X126120470Y-47210102D01*
X126031498Y-47343258D01*
X125918258Y-47456498D01*
X125785102Y-47545470D01*
X125637142Y-47606758D01*
X125480075Y-47638000D01*
X125319925Y-47638000D01*
X125162858Y-47606758D01*
X125014898Y-47545470D01*
X124881742Y-47456498D01*
X124768502Y-47343258D01*
X124679530Y-47210102D01*
X124618242Y-47062142D01*
X124587000Y-46905075D01*
X124587000Y-46744925D01*
X124618242Y-46587858D01*
X124668496Y-46466535D01*
X124679529Y-46439900D01*
X124697113Y-46413584D01*
X124768502Y-46306742D01*
X124881742Y-46193502D01*
X125014898Y-46104530D01*
X125162858Y-46043242D01*
X125319925Y-46012000D01*
X125480075Y-46012000D01*
X125637142Y-46043242D01*
X125637142Y-46043242D01*
G37*
G36*
X130717142Y-46043242D02*
X130865102Y-46104530D01*
X130998258Y-46193502D01*
X131111498Y-46306742D01*
X131182888Y-46413584D01*
X131200471Y-46439900D01*
X131211504Y-46466535D01*
X131261758Y-46587858D01*
X131293000Y-46744925D01*
X131293000Y-46905075D01*
X131261758Y-47062142D01*
X131200470Y-47210102D01*
X131111498Y-47343258D01*
X130998258Y-47456498D01*
X130865102Y-47545470D01*
X130717142Y-47606758D01*
X130560075Y-47638000D01*
X130399925Y-47638000D01*
X130242858Y-47606758D01*
X130094898Y-47545470D01*
X129961742Y-47456498D01*
X129848502Y-47343258D01*
X129759530Y-47210102D01*
X129698242Y-47062142D01*
X129667000Y-46905075D01*
X129667000Y-46744925D01*
X129698242Y-46587858D01*
X129748496Y-46466535D01*
X129759529Y-46439900D01*
X129777113Y-46413584D01*
X129848502Y-46306742D01*
X129961742Y-46193502D01*
X130094898Y-46104530D01*
X130242858Y-46043242D01*
X130399925Y-46012000D01*
X130560075Y-46012000D01*
X130717142Y-46043242D01*
X130717142Y-46043242D01*
G37*
G36*
X133257142Y-46043242D02*
X133405102Y-46104530D01*
X133538258Y-46193502D01*
X133651498Y-46306742D01*
X133722888Y-46413584D01*
X133740471Y-46439900D01*
X133751504Y-46466535D01*
X133801758Y-46587858D01*
X133833000Y-46744925D01*
X133833000Y-46905075D01*
X133801758Y-47062142D01*
X133740470Y-47210102D01*
X133651498Y-47343258D01*
X133538258Y-47456498D01*
X133405102Y-47545470D01*
X133257142Y-47606758D01*
X133100075Y-47638000D01*
X132939925Y-47638000D01*
X132782858Y-47606758D01*
X132634898Y-47545470D01*
X132501742Y-47456498D01*
X132388502Y-47343258D01*
X132299530Y-47210102D01*
X132238242Y-47062142D01*
X132207000Y-46905075D01*
X132207000Y-46744925D01*
X132238242Y-46587858D01*
X132288496Y-46466535D01*
X132299529Y-46439900D01*
X132317113Y-46413584D01*
X132388502Y-46306742D01*
X132501742Y-46193502D01*
X132634898Y-46104530D01*
X132782858Y-46043242D01*
X132939925Y-46012000D01*
X133100075Y-46012000D01*
X133257142Y-46043242D01*
X133257142Y-46043242D01*
G37*
G36*
X135797142Y-46043242D02*
X135945102Y-46104530D01*
X136078258Y-46193502D01*
X136191498Y-46306742D01*
X136262888Y-46413584D01*
X136280471Y-46439900D01*
X136291504Y-46466535D01*
X136341758Y-46587858D01*
X136373000Y-46744925D01*
X136373000Y-46905075D01*
X136341758Y-47062142D01*
X136280470Y-47210102D01*
X136191498Y-47343258D01*
X136078258Y-47456498D01*
X135945102Y-47545470D01*
X135797142Y-47606758D01*
X135640075Y-47638000D01*
X135479925Y-47638000D01*
X135322858Y-47606758D01*
X135174898Y-47545470D01*
X135041742Y-47456498D01*
X134928502Y-47343258D01*
X134839530Y-47210102D01*
X134778242Y-47062142D01*
X134747000Y-46905075D01*
X134747000Y-46744925D01*
X134778242Y-46587858D01*
X134828496Y-46466535D01*
X134839529Y-46439900D01*
X134857113Y-46413584D01*
X134928502Y-46306742D01*
X135041742Y-46193502D01*
X135174898Y-46104530D01*
X135322858Y-46043242D01*
X135479925Y-46012000D01*
X135640075Y-46012000D01*
X135797142Y-46043242D01*
X135797142Y-46043242D01*
G37*
G36*
X143417142Y-46043242D02*
X143565102Y-46104530D01*
X143698258Y-46193502D01*
X143811498Y-46306742D01*
X143882888Y-46413584D01*
X143900471Y-46439900D01*
X143911504Y-46466535D01*
X143961758Y-46587858D01*
X143993000Y-46744925D01*
X143993000Y-46905075D01*
X143961758Y-47062142D01*
X143900470Y-47210102D01*
X143811498Y-47343258D01*
X143698258Y-47456498D01*
X143565102Y-47545470D01*
X143417142Y-47606758D01*
X143260075Y-47638000D01*
X143099925Y-47638000D01*
X142942858Y-47606758D01*
X142794898Y-47545470D01*
X142661742Y-47456498D01*
X142548502Y-47343258D01*
X142459530Y-47210102D01*
X142398242Y-47062142D01*
X142367000Y-46905075D01*
X142367000Y-46744925D01*
X142398242Y-46587858D01*
X142448496Y-46466535D01*
X142459529Y-46439900D01*
X142477113Y-46413584D01*
X142548502Y-46306742D01*
X142661742Y-46193502D01*
X142794898Y-46104530D01*
X142942858Y-46043242D01*
X143099925Y-46012000D01*
X143260075Y-46012000D01*
X143417142Y-46043242D01*
X143417142Y-46043242D01*
G37*
G36*
X156041000Y-47430000D02*
X153939000Y-47430000D01*
X153939000Y-46728000D01*
X156041000Y-46728000D01*
X156041000Y-47430000D01*
X156041000Y-47430000D01*
G37*
G36*
X165441000Y-47430000D02*
X163339000Y-47430000D01*
X163339000Y-46728000D01*
X165441000Y-46728000D01*
X165441000Y-47430000D01*
X165441000Y-47430000D01*
G37*
G36*
X119506329Y-45351123D02*
X119515941Y-45354039D01*
X119524799Y-45358774D01*
X119532567Y-45365149D01*
X119542776Y-45377588D01*
X119549702Y-45387954D01*
X119567028Y-45405281D01*
X119587403Y-45418896D01*
X119610041Y-45428274D01*
X119634075Y-45433055D01*
X119658579Y-45433055D01*
X119682613Y-45428275D01*
X119705252Y-45418899D01*
X119725627Y-45405285D01*
X119742954Y-45387959D01*
X119749882Y-45377590D01*
X119760093Y-45365149D01*
X119767861Y-45358774D01*
X119776719Y-45354039D01*
X119786331Y-45351123D01*
X119802470Y-45349534D01*
X120290190Y-45349534D01*
X120308528Y-45351340D01*
X120320780Y-45351942D01*
X120339199Y-45351942D01*
X120361479Y-45354136D01*
X120445566Y-45370862D01*
X120466985Y-45377360D01*
X120546201Y-45410171D01*
X120565937Y-45420721D01*
X120637227Y-45468355D01*
X120654538Y-45482562D01*
X120715154Y-45543178D01*
X120729361Y-45560489D01*
X120776995Y-45631779D01*
X120787545Y-45651515D01*
X120820356Y-45730731D01*
X120826854Y-45752150D01*
X120843580Y-45836237D01*
X120845774Y-45858517D01*
X120845774Y-45876936D01*
X120846376Y-45889188D01*
X120848182Y-45907526D01*
X120848182Y-46395247D01*
X120846376Y-46413584D01*
X120845774Y-46425836D01*
X120845774Y-46444255D01*
X120843580Y-46466535D01*
X120826854Y-46550622D01*
X120820356Y-46572041D01*
X120787545Y-46651257D01*
X120776995Y-46670993D01*
X120729361Y-46742283D01*
X120715154Y-46759594D01*
X120654538Y-46820210D01*
X120637227Y-46834417D01*
X120565937Y-46882051D01*
X120546201Y-46892601D01*
X120466985Y-46925412D01*
X120445566Y-46931910D01*
X120361479Y-46948636D01*
X120339199Y-46950830D01*
X120320780Y-46950830D01*
X120308528Y-46951432D01*
X120290191Y-46953238D01*
X119802470Y-46953238D01*
X119786331Y-46951649D01*
X119776719Y-46948733D01*
X119767861Y-46943998D01*
X119760093Y-46937623D01*
X119749884Y-46925184D01*
X119742958Y-46914818D01*
X119725632Y-46897491D01*
X119705257Y-46883876D01*
X119682619Y-46874498D01*
X119658585Y-46869717D01*
X119634081Y-46869717D01*
X119610047Y-46874497D01*
X119587408Y-46883873D01*
X119567033Y-46897487D01*
X119549706Y-46914813D01*
X119542778Y-46925182D01*
X119532567Y-46937623D01*
X119524799Y-46943998D01*
X119515941Y-46948733D01*
X119506329Y-46951649D01*
X119490190Y-46953238D01*
X119002469Y-46953238D01*
X118984132Y-46951432D01*
X118971880Y-46950830D01*
X118953461Y-46950830D01*
X118931181Y-46948636D01*
X118847094Y-46931910D01*
X118825675Y-46925412D01*
X118746459Y-46892601D01*
X118726723Y-46882051D01*
X118655433Y-46834417D01*
X118638122Y-46820210D01*
X118577506Y-46759594D01*
X118563299Y-46742283D01*
X118515665Y-46670993D01*
X118505115Y-46651257D01*
X118472304Y-46572041D01*
X118465806Y-46550622D01*
X118449080Y-46466535D01*
X118446886Y-46444255D01*
X118446886Y-46425836D01*
X118446284Y-46413584D01*
X118444478Y-46395247D01*
X118444478Y-45907526D01*
X118446284Y-45889188D01*
X118446886Y-45876936D01*
X118446886Y-45858517D01*
X118449080Y-45836237D01*
X118465806Y-45752150D01*
X118472304Y-45730731D01*
X118505115Y-45651515D01*
X118515665Y-45631779D01*
X118563299Y-45560489D01*
X118577506Y-45543178D01*
X118638122Y-45482562D01*
X118655433Y-45468355D01*
X118726723Y-45420721D01*
X118746459Y-45410171D01*
X118825675Y-45377360D01*
X118847094Y-45370862D01*
X118931181Y-45354136D01*
X118953461Y-45351942D01*
X118971880Y-45351942D01*
X118984132Y-45351340D01*
X119002470Y-45349534D01*
X119490190Y-45349534D01*
X119506329Y-45351123D01*
X119506329Y-45351123D01*
G37*
G36*
X115487330Y-46602386D02*
X114585330Y-46602386D01*
X114585330Y-45700386D01*
X115487330Y-45700386D01*
X115487330Y-46602386D01*
X115487330Y-46602386D01*
G37*
G36*
X117087330Y-46602386D02*
X116185330Y-46602386D01*
X116185330Y-45700386D01*
X117087330Y-45700386D01*
X117087330Y-46602386D01*
X117087330Y-46602386D01*
G37*
G36*
X165441000Y-46160000D02*
X163339000Y-46160000D01*
X163339000Y-45458000D01*
X165441000Y-45458000D01*
X165441000Y-46160000D01*
X165441000Y-46160000D01*
G37*
G36*
X156041000Y-46160000D02*
X153939000Y-46160000D01*
X153939000Y-45458000D01*
X156041000Y-45458000D01*
X156041000Y-46160000D01*
X156041000Y-46160000D01*
G37*
G36*
X156041000Y-44890000D02*
X153939000Y-44890000D01*
X153939000Y-44188000D01*
X156041000Y-44188000D01*
X156041000Y-44890000D01*
X156041000Y-44890000D01*
G37*
G36*
X165441000Y-44890000D02*
X163339000Y-44890000D01*
X163339000Y-44188000D01*
X165441000Y-44188000D01*
X165441000Y-44890000D01*
X165441000Y-44890000D01*
G37*
G36*
X117126000Y-44101000D02*
X116224000Y-44101000D01*
X116224000Y-43199000D01*
X117126000Y-43199000D01*
X117126000Y-44101000D01*
X117126000Y-44101000D01*
G37*
G36*
X115526000Y-44101000D02*
X114624000Y-44101000D01*
X114624000Y-43199000D01*
X115526000Y-43199000D01*
X115526000Y-44101000D01*
X115526000Y-44101000D01*
G37*
G36*
X156041000Y-43620000D02*
X153939000Y-43620000D01*
X153939000Y-42918000D01*
X156041000Y-42918000D01*
X156041000Y-43620000D01*
X156041000Y-43620000D01*
G37*
G36*
X165441000Y-43620000D02*
X163339000Y-43620000D01*
X163339000Y-42918000D01*
X165441000Y-42918000D01*
X165441000Y-43620000D01*
X165441000Y-43620000D01*
G37*
G36*
X165441000Y-42350000D02*
X163339000Y-42350000D01*
X163339000Y-41648000D01*
X165441000Y-41648000D01*
X165441000Y-42350000D01*
X165441000Y-42350000D01*
G37*
G36*
X156041000Y-42350000D02*
X153939000Y-42350000D01*
X153939000Y-41648000D01*
X156041000Y-41648000D01*
X156041000Y-42350000D01*
X156041000Y-42350000D01*
G37*
G36*
X156041000Y-41080000D02*
X153939000Y-41080000D01*
X153939000Y-40378000D01*
X156041000Y-40378000D01*
X156041000Y-41080000D01*
X156041000Y-41080000D01*
G37*
G36*
X165441000Y-41080000D02*
X163339000Y-41080000D01*
X163339000Y-40378000D01*
X165441000Y-40378000D01*
X165441000Y-41080000D01*
X165441000Y-41080000D01*
G37*
G36*
X130717142Y-35883242D02*
X130865102Y-35944530D01*
X130998258Y-36033502D01*
X131111498Y-36146742D01*
X131200470Y-36279898D01*
X131261758Y-36427858D01*
X131293000Y-36584925D01*
X131293000Y-36745075D01*
X131261758Y-36902142D01*
X131200470Y-37050102D01*
X131111498Y-37183258D01*
X130998258Y-37296498D01*
X130865102Y-37385470D01*
X130717142Y-37446758D01*
X130560075Y-37478000D01*
X130399925Y-37478000D01*
X130242858Y-37446758D01*
X130094898Y-37385470D01*
X129961742Y-37296498D01*
X129848502Y-37183258D01*
X129759530Y-37050102D01*
X129698242Y-36902142D01*
X129667000Y-36745075D01*
X129667000Y-36584925D01*
X129698242Y-36427858D01*
X129759530Y-36279898D01*
X129848502Y-36146742D01*
X129961742Y-36033502D01*
X130094898Y-35944530D01*
X130242858Y-35883242D01*
X130399925Y-35852000D01*
X130560075Y-35852000D01*
X130717142Y-35883242D01*
X130717142Y-35883242D01*
G37*
G36*
X143417142Y-35883242D02*
X143565102Y-35944530D01*
X143698258Y-36033502D01*
X143811498Y-36146742D01*
X143900470Y-36279898D01*
X143961758Y-36427858D01*
X143993000Y-36584925D01*
X143993000Y-36745075D01*
X143961758Y-36902142D01*
X143900470Y-37050102D01*
X143811498Y-37183258D01*
X143698258Y-37296498D01*
X143565102Y-37385470D01*
X143417142Y-37446758D01*
X143260075Y-37478000D01*
X143099925Y-37478000D01*
X142942858Y-37446758D01*
X142794898Y-37385470D01*
X142661742Y-37296498D01*
X142548502Y-37183258D01*
X142459530Y-37050102D01*
X142398242Y-36902142D01*
X142367000Y-36745075D01*
X142367000Y-36584925D01*
X142398242Y-36427858D01*
X142459530Y-36279898D01*
X142548502Y-36146742D01*
X142661742Y-36033502D01*
X142794898Y-35944530D01*
X142942858Y-35883242D01*
X143099925Y-35852000D01*
X143260075Y-35852000D01*
X143417142Y-35883242D01*
X143417142Y-35883242D01*
G37*
G36*
X125637142Y-35883242D02*
X125785102Y-35944530D01*
X125918258Y-36033502D01*
X126031498Y-36146742D01*
X126120470Y-36279898D01*
X126181758Y-36427858D01*
X126213000Y-36584925D01*
X126213000Y-36745075D01*
X126181758Y-36902142D01*
X126120470Y-37050102D01*
X126031498Y-37183258D01*
X125918258Y-37296498D01*
X125785102Y-37385470D01*
X125637142Y-37446758D01*
X125480075Y-37478000D01*
X125319925Y-37478000D01*
X125162858Y-37446758D01*
X125014898Y-37385470D01*
X124881742Y-37296498D01*
X124768502Y-37183258D01*
X124679530Y-37050102D01*
X124618242Y-36902142D01*
X124587000Y-36745075D01*
X124587000Y-36584925D01*
X124618242Y-36427858D01*
X124679530Y-36279898D01*
X124768502Y-36146742D01*
X124881742Y-36033502D01*
X125014898Y-35944530D01*
X125162858Y-35883242D01*
X125319925Y-35852000D01*
X125480075Y-35852000D01*
X125637142Y-35883242D01*
X125637142Y-35883242D01*
G37*
G36*
X148497142Y-35883242D02*
X148645102Y-35944530D01*
X148778258Y-36033502D01*
X148891498Y-36146742D01*
X148980470Y-36279898D01*
X149041758Y-36427858D01*
X149073000Y-36584925D01*
X149073000Y-36745075D01*
X149041758Y-36902142D01*
X148980470Y-37050102D01*
X148891498Y-37183258D01*
X148778258Y-37296498D01*
X148645102Y-37385470D01*
X148497142Y-37446758D01*
X148340075Y-37478000D01*
X148179925Y-37478000D01*
X148022858Y-37446758D01*
X147874898Y-37385470D01*
X147741742Y-37296498D01*
X147628502Y-37183258D01*
X147539530Y-37050102D01*
X147478242Y-36902142D01*
X147447000Y-36745075D01*
X147447000Y-36584925D01*
X147478242Y-36427858D01*
X147539530Y-36279898D01*
X147628502Y-36146742D01*
X147741742Y-36033502D01*
X147874898Y-35944530D01*
X148022858Y-35883242D01*
X148179925Y-35852000D01*
X148340075Y-35852000D01*
X148497142Y-35883242D01*
X148497142Y-35883242D01*
G37*
G36*
X138337142Y-35883242D02*
X138485102Y-35944530D01*
X138618258Y-36033502D01*
X138731498Y-36146742D01*
X138820470Y-36279898D01*
X138881758Y-36427858D01*
X138913000Y-36584925D01*
X138913000Y-36745075D01*
X138881758Y-36902142D01*
X138820470Y-37050102D01*
X138731498Y-37183258D01*
X138618258Y-37296498D01*
X138485102Y-37385470D01*
X138337142Y-37446758D01*
X138180075Y-37478000D01*
X138019925Y-37478000D01*
X137862858Y-37446758D01*
X137714898Y-37385470D01*
X137581742Y-37296498D01*
X137468502Y-37183258D01*
X137379530Y-37050102D01*
X137318242Y-36902142D01*
X137287000Y-36745075D01*
X137287000Y-36584925D01*
X137318242Y-36427858D01*
X137379530Y-36279898D01*
X137468502Y-36146742D01*
X137581742Y-36033502D01*
X137714898Y-35944530D01*
X137862858Y-35883242D01*
X138019925Y-35852000D01*
X138180075Y-35852000D01*
X138337142Y-35883242D01*
X138337142Y-35883242D01*
G37*
G36*
X151037142Y-35883242D02*
X151185102Y-35944530D01*
X151318258Y-36033502D01*
X151431498Y-36146742D01*
X151520470Y-36279898D01*
X151581758Y-36427858D01*
X151613000Y-36584925D01*
X151613000Y-36745075D01*
X151581758Y-36902142D01*
X151520470Y-37050102D01*
X151431498Y-37183258D01*
X151318258Y-37296498D01*
X151185102Y-37385470D01*
X151037142Y-37446758D01*
X150880075Y-37478000D01*
X150719925Y-37478000D01*
X150562858Y-37446758D01*
X150414898Y-37385470D01*
X150281742Y-37296498D01*
X150168502Y-37183258D01*
X150079530Y-37050102D01*
X150018242Y-36902142D01*
X149987000Y-36745075D01*
X149987000Y-36584925D01*
X150018242Y-36427858D01*
X150079530Y-36279898D01*
X150168502Y-36146742D01*
X150281742Y-36033502D01*
X150414898Y-35944530D01*
X150562858Y-35883242D01*
X150719925Y-35852000D01*
X150880075Y-35852000D01*
X151037142Y-35883242D01*
X151037142Y-35883242D01*
G37*
G36*
X145957142Y-35883242D02*
X146105102Y-35944530D01*
X146238258Y-36033502D01*
X146351498Y-36146742D01*
X146440470Y-36279898D01*
X146501758Y-36427858D01*
X146533000Y-36584925D01*
X146533000Y-36745075D01*
X146501758Y-36902142D01*
X146440470Y-37050102D01*
X146351498Y-37183258D01*
X146238258Y-37296498D01*
X146105102Y-37385470D01*
X145957142Y-37446758D01*
X145800075Y-37478000D01*
X145639925Y-37478000D01*
X145482858Y-37446758D01*
X145334898Y-37385470D01*
X145201742Y-37296498D01*
X145088502Y-37183258D01*
X144999530Y-37050102D01*
X144938242Y-36902142D01*
X144907000Y-36745075D01*
X144907000Y-36584925D01*
X144938242Y-36427858D01*
X144999530Y-36279898D01*
X145088502Y-36146742D01*
X145201742Y-36033502D01*
X145334898Y-35944530D01*
X145482858Y-35883242D01*
X145639925Y-35852000D01*
X145800075Y-35852000D01*
X145957142Y-35883242D01*
X145957142Y-35883242D01*
G37*
G36*
X140877142Y-35883242D02*
X141025102Y-35944530D01*
X141158258Y-36033502D01*
X141271498Y-36146742D01*
X141360470Y-36279898D01*
X141421758Y-36427858D01*
X141453000Y-36584925D01*
X141453000Y-36745075D01*
X141421758Y-36902142D01*
X141360470Y-37050102D01*
X141271498Y-37183258D01*
X141158258Y-37296498D01*
X141025102Y-37385470D01*
X140877142Y-37446758D01*
X140720075Y-37478000D01*
X140559925Y-37478000D01*
X140402858Y-37446758D01*
X140254898Y-37385470D01*
X140121742Y-37296498D01*
X140008502Y-37183258D01*
X139919530Y-37050102D01*
X139858242Y-36902142D01*
X139827000Y-36745075D01*
X139827000Y-36584925D01*
X139858242Y-36427858D01*
X139919530Y-36279898D01*
X140008502Y-36146742D01*
X140121742Y-36033502D01*
X140254898Y-35944530D01*
X140402858Y-35883242D01*
X140559925Y-35852000D01*
X140720075Y-35852000D01*
X140877142Y-35883242D01*
X140877142Y-35883242D01*
G37*
G36*
X133257142Y-35883242D02*
X133405102Y-35944530D01*
X133538258Y-36033502D01*
X133651498Y-36146742D01*
X133740470Y-36279898D01*
X133801758Y-36427858D01*
X133833000Y-36584925D01*
X133833000Y-36745075D01*
X133801758Y-36902142D01*
X133740470Y-37050102D01*
X133651498Y-37183258D01*
X133538258Y-37296498D01*
X133405102Y-37385470D01*
X133257142Y-37446758D01*
X133100075Y-37478000D01*
X132939925Y-37478000D01*
X132782858Y-37446758D01*
X132634898Y-37385470D01*
X132501742Y-37296498D01*
X132388502Y-37183258D01*
X132299530Y-37050102D01*
X132238242Y-36902142D01*
X132207000Y-36745075D01*
X132207000Y-36584925D01*
X132238242Y-36427858D01*
X132299530Y-36279898D01*
X132388502Y-36146742D01*
X132501742Y-36033502D01*
X132634898Y-35944530D01*
X132782858Y-35883242D01*
X132939925Y-35852000D01*
X133100075Y-35852000D01*
X133257142Y-35883242D01*
X133257142Y-35883242D01*
G37*
M02*
