G04 #@! TF.GenerationSoftware,KiCad,Pcbnew,(5.0.2)-1*
G04 #@! TF.CreationDate,2023-09-18T18:41:06+09:00*
G04 #@! TF.ProjectId,Building,4275696c-6469-46e6-972e-6b696361645f,rev?*
G04 #@! TF.SameCoordinates,Original*
G04 #@! TF.FileFunction,Legend,Bot*
G04 #@! TF.FilePolarity,Positive*
%FSLAX46Y46*%
G04 Gerber Fmt 4.6, Leading zero omitted, Abs format (unit mm)*
G04 Created by KiCad (PCBNEW (5.0.2)-1) date 2023/09/18 18:41:06*
%MOMM*%
%LPD*%
G01*
G04 APERTURE LIST*
%ADD10C,0.150000*%
%ADD11C,0.200000*%
%ADD12C,0.100000*%
%ADD13C,0.120000*%
G04 APERTURE END LIST*
D10*
X129210000Y-31331000D02*
X146736000Y-31331000D01*
D11*
X146579791Y-29095095D02*
X145836934Y-29095095D01*
X146370863Y-30395095D02*
X146208363Y-29095095D01*
X145566101Y-30395095D02*
X145403601Y-29095095D01*
X145008958Y-30395095D02*
X144923839Y-29714142D01*
X144970267Y-29590333D01*
X145086339Y-29528428D01*
X145272053Y-29528428D01*
X145403601Y-29590333D01*
X145473244Y-29652238D01*
X143886934Y-30333190D02*
X144018482Y-30395095D01*
X144266101Y-30395095D01*
X144382172Y-30333190D01*
X144428601Y-30209380D01*
X144366696Y-29714142D01*
X144289315Y-29590333D01*
X144157767Y-29528428D01*
X143910148Y-29528428D01*
X143794077Y-29590333D01*
X143747648Y-29714142D01*
X143763125Y-29837952D01*
X144397648Y-29961761D01*
X141766696Y-29714142D02*
X141588720Y-29776047D01*
X141534553Y-29837952D01*
X141488125Y-29961761D01*
X141511339Y-30147476D01*
X141588720Y-30271285D01*
X141658363Y-30333190D01*
X141789910Y-30395095D01*
X142285148Y-30395095D01*
X142122648Y-29095095D01*
X141689315Y-29095095D01*
X141573244Y-29157000D01*
X141519077Y-29218904D01*
X141472648Y-29342714D01*
X141488125Y-29466523D01*
X141565505Y-29590333D01*
X141635148Y-29652238D01*
X141766696Y-29714142D01*
X142200029Y-29714142D01*
X140319672Y-29528428D02*
X140428005Y-30395095D01*
X140876815Y-29528428D02*
X140961934Y-30209380D01*
X140915505Y-30333190D01*
X140799434Y-30395095D01*
X140613720Y-30395095D01*
X140482172Y-30333190D01*
X140412529Y-30271285D01*
X139808958Y-30395095D02*
X139700625Y-29528428D01*
X139646458Y-29095095D02*
X139716101Y-29157000D01*
X139661934Y-29218904D01*
X139592291Y-29157000D01*
X139646458Y-29095095D01*
X139661934Y-29218904D01*
X139004196Y-30395095D02*
X139120267Y-30333190D01*
X139166696Y-30209380D01*
X139027410Y-29095095D01*
X137951815Y-30395095D02*
X137789315Y-29095095D01*
X137944077Y-30333190D02*
X138075625Y-30395095D01*
X138323244Y-30395095D01*
X138439315Y-30333190D01*
X138493482Y-30271285D01*
X138539910Y-30147476D01*
X138493482Y-29776047D01*
X138416101Y-29652238D01*
X138346458Y-29590333D01*
X138214910Y-29528428D01*
X137967291Y-29528428D01*
X137851220Y-29590333D01*
X137332767Y-30395095D02*
X137224434Y-29528428D01*
X137170267Y-29095095D02*
X137239910Y-29157000D01*
X137185744Y-29218904D01*
X137116101Y-29157000D01*
X137170267Y-29095095D01*
X137185744Y-29218904D01*
X136605386Y-29528428D02*
X136713720Y-30395095D01*
X136620863Y-29652238D02*
X136551220Y-29590333D01*
X136419672Y-29528428D01*
X136233958Y-29528428D01*
X136117886Y-29590333D01*
X136071458Y-29714142D01*
X136156577Y-30395095D01*
X134872053Y-29528428D02*
X135003601Y-30580809D01*
X135080982Y-30704619D01*
X135150625Y-30766523D01*
X135282172Y-30828428D01*
X135467886Y-30828428D01*
X135583958Y-30766523D01*
X134972648Y-30333190D02*
X135104196Y-30395095D01*
X135351815Y-30395095D01*
X135467886Y-30333190D01*
X135522053Y-30271285D01*
X135568482Y-30147476D01*
X135522053Y-29776047D01*
X135444672Y-29652238D01*
X135375029Y-29590333D01*
X135243482Y-29528428D01*
X134995863Y-29528428D01*
X134879791Y-29590333D01*
X133386339Y-29528428D02*
X133185148Y-30395095D01*
X132767291Y-29528428D01*
X131699434Y-30395095D02*
X132442291Y-30395095D01*
X132070863Y-30395095D02*
X131908363Y-29095095D01*
X132055386Y-29280809D01*
X132194672Y-29404619D01*
X132326220Y-29466523D01*
X131126815Y-30271285D02*
X131072648Y-30333190D01*
X131142291Y-30395095D01*
X131196458Y-30333190D01*
X131126815Y-30271285D01*
X131142291Y-30395095D01*
X130113125Y-29095095D02*
X129989315Y-29095095D01*
X129873244Y-29157000D01*
X129819077Y-29218904D01*
X129772648Y-29342714D01*
X129741696Y-29590333D01*
X129780386Y-29899857D01*
X129873244Y-30147476D01*
X129950625Y-30271285D01*
X130020267Y-30333190D01*
X130151815Y-30395095D01*
X130275625Y-30395095D01*
X130391696Y-30333190D01*
X130445863Y-30271285D01*
X130492291Y-30147476D01*
X130523244Y-29899857D01*
X130484553Y-29590333D01*
X130391696Y-29342714D01*
X130314315Y-29218904D01*
X130244672Y-29157000D01*
X130113125Y-29095095D01*
D12*
X143993541Y-32831190D02*
X144035208Y-32783571D01*
X144124494Y-32735952D01*
X144219732Y-32735952D01*
X144320922Y-32783571D01*
X144374494Y-32831190D01*
X144434017Y-32926428D01*
X144445922Y-33021666D01*
X144410208Y-33116904D01*
X144368541Y-33164523D01*
X144279255Y-33212142D01*
X144184017Y-33212142D01*
X144082827Y-33164523D01*
X144029255Y-33116904D01*
X143981636Y-32735952D02*
X144029255Y-33116904D01*
X143987589Y-33164523D01*
X143939970Y-33164523D01*
X143838779Y-33116904D01*
X143779255Y-33021666D01*
X143749494Y-32783571D01*
X143826875Y-32640714D01*
X143957827Y-32545476D01*
X144142351Y-32497857D01*
X144338779Y-32545476D01*
X144493541Y-32640714D01*
X144606636Y-32783571D01*
X144678065Y-32974047D01*
X144654255Y-33164523D01*
X144576875Y-33307380D01*
X144445922Y-33402619D01*
X144261398Y-33450238D01*
X144064970Y-33402619D01*
X143910208Y-33307380D01*
X142999494Y-33259761D02*
X143100684Y-33307380D01*
X143291160Y-33307380D01*
X143380446Y-33259761D01*
X143416160Y-33164523D01*
X143368541Y-32783571D01*
X143309017Y-32688333D01*
X143207827Y-32640714D01*
X143017351Y-32640714D01*
X142928065Y-32688333D01*
X142892351Y-32783571D01*
X142904255Y-32878809D01*
X143392351Y-32974047D01*
X142624494Y-33307380D02*
X142017351Y-32640714D01*
X142541160Y-32640714D02*
X142100684Y-33307380D01*
X141779255Y-32640714D02*
X141398303Y-32640714D01*
X141594732Y-32307380D02*
X141701875Y-33164523D01*
X141666160Y-33259761D01*
X141576875Y-33307380D01*
X141481636Y-33307380D01*
X141398303Y-33402619D02*
X140636398Y-33402619D01*
X140428065Y-33259761D02*
X140338779Y-33307380D01*
X140148303Y-33307380D01*
X140047113Y-33259761D01*
X139987589Y-33164523D01*
X139981636Y-33116904D01*
X140017351Y-33021666D01*
X140106636Y-32974047D01*
X140249494Y-32974047D01*
X140338779Y-32926428D01*
X140374494Y-32831190D01*
X140368541Y-32783571D01*
X140309017Y-32688333D01*
X140207827Y-32640714D01*
X140064970Y-32640714D01*
X139975684Y-32688333D01*
X139064970Y-32640714D02*
X139148303Y-33307380D01*
X139493541Y-32640714D02*
X139559017Y-33164523D01*
X139523303Y-33259761D01*
X139434017Y-33307380D01*
X139291160Y-33307380D01*
X139189970Y-33259761D01*
X139136398Y-33212142D01*
X138672113Y-33307380D02*
X138588779Y-32640714D01*
X138547113Y-32307380D02*
X138600684Y-32355000D01*
X138559017Y-32402619D01*
X138505446Y-32355000D01*
X138547113Y-32307380D01*
X138559017Y-32402619D01*
X137368541Y-32402619D02*
X137314970Y-32355000D01*
X137213779Y-32307380D01*
X136975684Y-32307380D01*
X136886398Y-32355000D01*
X136844732Y-32402619D01*
X136809017Y-32497857D01*
X136820922Y-32593095D01*
X136886398Y-32735952D01*
X137529255Y-33307380D01*
X136910208Y-33307380D01*
X136166160Y-32307380D02*
X136070922Y-32307380D01*
X135981636Y-32355000D01*
X135939970Y-32402619D01*
X135904255Y-32497857D01*
X135880446Y-32688333D01*
X135910208Y-32926428D01*
X135981636Y-33116904D01*
X136041160Y-33212142D01*
X136094732Y-33259761D01*
X136195922Y-33307380D01*
X136291160Y-33307380D01*
X136380446Y-33259761D01*
X136422113Y-33212142D01*
X136457827Y-33116904D01*
X136481636Y-32926428D01*
X136451875Y-32688333D01*
X136380446Y-32497857D01*
X136320922Y-32402619D01*
X136267351Y-32355000D01*
X136166160Y-32307380D01*
X135463779Y-32402619D02*
X135410208Y-32355000D01*
X135309017Y-32307380D01*
X135070922Y-32307380D01*
X134981636Y-32355000D01*
X134939970Y-32402619D01*
X134904255Y-32497857D01*
X134916160Y-32593095D01*
X134981636Y-32735952D01*
X135624494Y-33307380D01*
X135005446Y-33307380D01*
X134547113Y-32307380D02*
X133928065Y-32307380D01*
X134309017Y-32688333D01*
X134166160Y-32688333D01*
X134076875Y-32735952D01*
X134035208Y-32783571D01*
X133999494Y-32878809D01*
X134029255Y-33116904D01*
X134088779Y-33212142D01*
X134142351Y-33259761D01*
X134243541Y-33307380D01*
X134529255Y-33307380D01*
X134618541Y-33259761D01*
X134660208Y-33212142D01*
X133612589Y-33212142D02*
X133570922Y-33259761D01*
X133624494Y-33307380D01*
X133666160Y-33259761D01*
X133612589Y-33212142D01*
X133624494Y-33307380D01*
X132832827Y-32307380D02*
X132737589Y-32307380D01*
X132648303Y-32355000D01*
X132606636Y-32402619D01*
X132570922Y-32497857D01*
X132547113Y-32688333D01*
X132576875Y-32926428D01*
X132648303Y-33116904D01*
X132707827Y-33212142D01*
X132761398Y-33259761D01*
X132862589Y-33307380D01*
X132957827Y-33307380D01*
X133047113Y-33259761D01*
X133088779Y-33212142D01*
X133124494Y-33116904D01*
X133148303Y-32926428D01*
X133118541Y-32688333D01*
X133047113Y-32497857D01*
X132987589Y-32402619D01*
X132934017Y-32355000D01*
X132832827Y-32307380D01*
X132148303Y-33307380D02*
X131957827Y-33307380D01*
X131856636Y-33259761D01*
X131803065Y-33212142D01*
X131689970Y-33069285D01*
X131618541Y-32878809D01*
X131570922Y-32497857D01*
X131606636Y-32402619D01*
X131648303Y-32355000D01*
X131737589Y-32307380D01*
X131928065Y-32307380D01*
X132029255Y-32355000D01*
X132082827Y-32402619D01*
X132142351Y-32497857D01*
X132172113Y-32735952D01*
X132136398Y-32831190D01*
X132094732Y-32878809D01*
X132005446Y-32926428D01*
X131814970Y-32926428D01*
X131713779Y-32878809D01*
X131660208Y-32831190D01*
X131600684Y-32735952D01*
D10*
G04 #@! TO.C,IC1*
X155815000Y-58509000D02*
X155815000Y-57859000D01*
X163565000Y-58509000D02*
X163565000Y-57764000D01*
X163565000Y-39459000D02*
X163565000Y-40204000D01*
X155815000Y-39459000D02*
X155815000Y-40204000D01*
X155815000Y-58509000D02*
X163565000Y-58509000D01*
X155815000Y-39459000D02*
X163565000Y-39459000D01*
X155815000Y-57859000D02*
X153990000Y-57859000D01*
D13*
G04 #@! TO.C,C1*
X161394000Y-58952000D02*
X161394000Y-60352000D01*
X158494000Y-58952000D02*
X158494000Y-60352000D01*
X158494000Y-60352000D02*
X161394000Y-60352000D01*
X161394000Y-58952000D02*
X158494000Y-58952000D01*
G04 #@! TO.C,C2*
X161394000Y-88162000D02*
X161394000Y-89562000D01*
X158494000Y-88162000D02*
X158494000Y-89562000D01*
X158494000Y-89562000D02*
X161394000Y-89562000D01*
X161394000Y-88162000D02*
X158494000Y-88162000D01*
G04 #@! TO.C,C3*
X161394000Y-117372000D02*
X158494000Y-117372000D01*
X158494000Y-118772000D02*
X161394000Y-118772000D01*
X158494000Y-117372000D02*
X158494000Y-118772000D01*
X161394000Y-117372000D02*
X161394000Y-118772000D01*
G04 #@! TO.C,D1*
X114425000Y-44350000D02*
X114425000Y-42950000D01*
X117325000Y-44350000D02*
X117325000Y-42950000D01*
X117325000Y-42950000D02*
X114425000Y-42950000D01*
X114425000Y-44350000D02*
X117325000Y-44350000D01*
D10*
X116125000Y-43900000D02*
X116125000Y-43400000D01*
X115625000Y-43650000D02*
X116125000Y-43900000D01*
X115625000Y-43650000D02*
X116125000Y-43400000D01*
D13*
G04 #@! TO.C,D2*
X114425000Y-73560000D02*
X114425000Y-72160000D01*
X117325000Y-73560000D02*
X117325000Y-72160000D01*
X117325000Y-72160000D02*
X114425000Y-72160000D01*
X114425000Y-73560000D02*
X117325000Y-73560000D01*
D10*
X116125000Y-73110000D02*
X116125000Y-72610000D01*
X115625000Y-72860000D02*
X116125000Y-73110000D01*
X115625000Y-72860000D02*
X116125000Y-72610000D01*
D13*
G04 #@! TO.C,D3*
X114552000Y-102770000D02*
X114552000Y-101370000D01*
X117452000Y-102770000D02*
X117452000Y-101370000D01*
X117452000Y-101370000D02*
X114552000Y-101370000D01*
X114552000Y-102770000D02*
X117452000Y-102770000D01*
D10*
X116252000Y-102320000D02*
X116252000Y-101820000D01*
X115752000Y-102070000D02*
X116252000Y-102320000D01*
X115752000Y-102070000D02*
X116252000Y-101820000D01*
G04 #@! TO.C,IC2*
X155815000Y-87069000D02*
X153990000Y-87069000D01*
X155815000Y-68669000D02*
X163565000Y-68669000D01*
X155815000Y-87719000D02*
X163565000Y-87719000D01*
X155815000Y-68669000D02*
X155815000Y-69414000D01*
X163565000Y-68669000D02*
X163565000Y-69414000D01*
X163565000Y-87719000D02*
X163565000Y-86974000D01*
X155815000Y-87719000D02*
X155815000Y-87069000D01*
G04 #@! TO.C,IC3*
X155815000Y-116929000D02*
X155815000Y-116279000D01*
X163565000Y-116929000D02*
X163565000Y-116184000D01*
X163565000Y-97879000D02*
X163565000Y-98624000D01*
X155815000Y-97879000D02*
X155815000Y-98624000D01*
X155815000Y-116929000D02*
X163565000Y-116929000D01*
X155815000Y-97879000D02*
X163565000Y-97879000D01*
X155815000Y-116279000D02*
X153990000Y-116279000D01*
D13*
G04 #@! TO.C,JP1*
X120346330Y-52231386D02*
G75*
G03X121046330Y-51531386I0J700000D01*
G01*
X121046330Y-50931386D02*
G75*
G03X120346330Y-50231386I-700000J0D01*
G01*
X118946330Y-50231386D02*
G75*
G03X118246330Y-50931386I0J-700000D01*
G01*
X118246330Y-51531386D02*
G75*
G03X118946330Y-52231386I700000J0D01*
G01*
X118246330Y-50931386D02*
X118246330Y-51531386D01*
X120346330Y-50231386D02*
X118946330Y-50231386D01*
X121046330Y-51531386D02*
X121046330Y-50931386D01*
X118946330Y-52231386D02*
X120346330Y-52231386D01*
G04 #@! TO.C,JP2*
X118946330Y-49691386D02*
X120346330Y-49691386D01*
X121046330Y-48991386D02*
X121046330Y-48391386D01*
X120346330Y-47691386D02*
X118946330Y-47691386D01*
X118246330Y-48391386D02*
X118246330Y-48991386D01*
X118246330Y-48991386D02*
G75*
G03X118946330Y-49691386I700000J0D01*
G01*
X118946330Y-47691386D02*
G75*
G03X118246330Y-48391386I0J-700000D01*
G01*
X121046330Y-48391386D02*
G75*
G03X120346330Y-47691386I-700000J0D01*
G01*
X120346330Y-49691386D02*
G75*
G03X121046330Y-48991386I0J700000D01*
G01*
G04 #@! TO.C,JP3*
X120346330Y-47151386D02*
G75*
G03X121046330Y-46451386I0J700000D01*
G01*
X121046330Y-45851386D02*
G75*
G03X120346330Y-45151386I-700000J0D01*
G01*
X118946330Y-45151386D02*
G75*
G03X118246330Y-45851386I0J-700000D01*
G01*
X118246330Y-46451386D02*
G75*
G03X118946330Y-47151386I700000J0D01*
G01*
X118246330Y-45851386D02*
X118246330Y-46451386D01*
X120346330Y-45151386D02*
X118946330Y-45151386D01*
X121046330Y-46451386D02*
X121046330Y-45851386D01*
X118946330Y-47151386D02*
X120346330Y-47151386D01*
G04 #@! TO.C,R1*
X117286330Y-50531386D02*
X117286330Y-51931386D01*
X114386330Y-50531386D02*
X114386330Y-51931386D01*
X114386330Y-51931386D02*
X117286330Y-51931386D01*
X117286330Y-50531386D02*
X114386330Y-50531386D01*
G04 #@! TO.C,R2*
X117286330Y-47991386D02*
X117286330Y-49391386D01*
X114386330Y-47991386D02*
X114386330Y-49391386D01*
X114386330Y-49391386D02*
X117286330Y-49391386D01*
X117286330Y-47991386D02*
X114386330Y-47991386D01*
G04 #@! TO.C,R3*
X117286330Y-45451386D02*
X114386330Y-45451386D01*
X114386330Y-46851386D02*
X117286330Y-46851386D01*
X114386330Y-45451386D02*
X114386330Y-46851386D01*
X117286330Y-45451386D02*
X117286330Y-46851386D01*
G04 #@! TO.C,R4*
X117325000Y-79780000D02*
X117325000Y-81180000D01*
X114425000Y-79780000D02*
X114425000Y-81180000D01*
X114425000Y-81180000D02*
X117325000Y-81180000D01*
X117325000Y-79780000D02*
X114425000Y-79780000D01*
G04 #@! TO.C,R5*
X117325000Y-77240000D02*
X114425000Y-77240000D01*
X114425000Y-78640000D02*
X117325000Y-78640000D01*
X114425000Y-77240000D02*
X114425000Y-78640000D01*
X117325000Y-77240000D02*
X117325000Y-78640000D01*
G04 #@! TO.C,R6*
X117325000Y-74700000D02*
X117325000Y-76100000D01*
X114425000Y-74700000D02*
X114425000Y-76100000D01*
X114425000Y-76100000D02*
X117325000Y-76100000D01*
X117325000Y-74700000D02*
X114425000Y-74700000D01*
G04 #@! TO.C,R7*
X117452000Y-108990000D02*
X114552000Y-108990000D01*
X114552000Y-110390000D02*
X117452000Y-110390000D01*
X114552000Y-108990000D02*
X114552000Y-110390000D01*
X117452000Y-108990000D02*
X117452000Y-110390000D01*
G04 #@! TO.C,R8*
X117452000Y-106450000D02*
X117452000Y-107850000D01*
X114552000Y-106450000D02*
X114552000Y-107850000D01*
X114552000Y-107850000D02*
X117452000Y-107850000D01*
X117452000Y-106450000D02*
X114552000Y-106450000D01*
G04 #@! TO.C,R9*
X117452000Y-103910000D02*
X114552000Y-103910000D01*
X114552000Y-105310000D02*
X117452000Y-105310000D01*
X114552000Y-103910000D02*
X114552000Y-105310000D01*
X117452000Y-103910000D02*
X117452000Y-105310000D01*
G04 #@! TO.C,JP4*
X120370000Y-81480000D02*
G75*
G03X121070000Y-80780000I0J700000D01*
G01*
X121070000Y-80180000D02*
G75*
G03X120370000Y-79480000I-700000J0D01*
G01*
X118970000Y-79480000D02*
G75*
G03X118270000Y-80180000I0J-700000D01*
G01*
X118270000Y-80780000D02*
G75*
G03X118970000Y-81480000I700000J0D01*
G01*
X118270000Y-80180000D02*
X118270000Y-80780000D01*
X120370000Y-79480000D02*
X118970000Y-79480000D01*
X121070000Y-80780000D02*
X121070000Y-80180000D01*
X118970000Y-81480000D02*
X120370000Y-81480000D01*
G04 #@! TO.C,JP5*
X118985000Y-78940000D02*
X120385000Y-78940000D01*
X121085000Y-78240000D02*
X121085000Y-77640000D01*
X120385000Y-76940000D02*
X118985000Y-76940000D01*
X118285000Y-77640000D02*
X118285000Y-78240000D01*
X118285000Y-78240000D02*
G75*
G03X118985000Y-78940000I700000J0D01*
G01*
X118985000Y-76940000D02*
G75*
G03X118285000Y-77640000I0J-700000D01*
G01*
X121085000Y-77640000D02*
G75*
G03X120385000Y-76940000I-700000J0D01*
G01*
X120385000Y-78940000D02*
G75*
G03X121085000Y-78240000I0J700000D01*
G01*
G04 #@! TO.C,JP6*
X118985000Y-76400000D02*
X120385000Y-76400000D01*
X121085000Y-75700000D02*
X121085000Y-75100000D01*
X120385000Y-74400000D02*
X118985000Y-74400000D01*
X118285000Y-75100000D02*
X118285000Y-75700000D01*
X118285000Y-75700000D02*
G75*
G03X118985000Y-76400000I700000J0D01*
G01*
X118985000Y-74400000D02*
G75*
G03X118285000Y-75100000I0J-700000D01*
G01*
X121085000Y-75100000D02*
G75*
G03X120385000Y-74400000I-700000J0D01*
G01*
X120385000Y-76400000D02*
G75*
G03X121085000Y-75700000I0J700000D01*
G01*
G04 #@! TO.C,JP7*
X119112000Y-110690000D02*
X120512000Y-110690000D01*
X121212000Y-109990000D02*
X121212000Y-109390000D01*
X120512000Y-108690000D02*
X119112000Y-108690000D01*
X118412000Y-109390000D02*
X118412000Y-109990000D01*
X118412000Y-109990000D02*
G75*
G03X119112000Y-110690000I700000J0D01*
G01*
X119112000Y-108690000D02*
G75*
G03X118412000Y-109390000I0J-700000D01*
G01*
X121212000Y-109390000D02*
G75*
G03X120512000Y-108690000I-700000J0D01*
G01*
X120512000Y-110690000D02*
G75*
G03X121212000Y-109990000I0J700000D01*
G01*
G04 #@! TO.C,JP8*
X119097000Y-108150000D02*
X120497000Y-108150000D01*
X121197000Y-107450000D02*
X121197000Y-106850000D01*
X120497000Y-106150000D02*
X119097000Y-106150000D01*
X118397000Y-106850000D02*
X118397000Y-107450000D01*
X118397000Y-107450000D02*
G75*
G03X119097000Y-108150000I700000J0D01*
G01*
X119097000Y-106150000D02*
G75*
G03X118397000Y-106850000I0J-700000D01*
G01*
X121197000Y-106850000D02*
G75*
G03X120497000Y-106150000I-700000J0D01*
G01*
X120497000Y-108150000D02*
G75*
G03X121197000Y-107450000I0J700000D01*
G01*
G04 #@! TO.C,JP9*
X119097000Y-105610000D02*
X120497000Y-105610000D01*
X121197000Y-104910000D02*
X121197000Y-104310000D01*
X120497000Y-103610000D02*
X119097000Y-103610000D01*
X118397000Y-104310000D02*
X118397000Y-104910000D01*
X118397000Y-104910000D02*
G75*
G03X119097000Y-105610000I700000J0D01*
G01*
X119097000Y-103610000D02*
G75*
G03X118397000Y-104310000I0J-700000D01*
G01*
X121197000Y-104310000D02*
G75*
G03X120497000Y-103610000I-700000J0D01*
G01*
X120497000Y-105610000D02*
G75*
G03X121197000Y-104910000I0J700000D01*
G01*
G04 #@! TO.C,IC1*
D10*
X160666190Y-38895380D02*
X160666190Y-37895380D01*
X159618571Y-38800142D02*
X159666190Y-38847761D01*
X159809047Y-38895380D01*
X159904285Y-38895380D01*
X160047142Y-38847761D01*
X160142380Y-38752523D01*
X160190000Y-38657285D01*
X160237619Y-38466809D01*
X160237619Y-38323952D01*
X160190000Y-38133476D01*
X160142380Y-38038238D01*
X160047142Y-37943000D01*
X159904285Y-37895380D01*
X159809047Y-37895380D01*
X159666190Y-37943000D01*
X159618571Y-37990619D01*
X158666190Y-38895380D02*
X159237619Y-38895380D01*
X158951904Y-38895380D02*
X158951904Y-37895380D01*
X159047142Y-38038238D01*
X159142380Y-38133476D01*
X159237619Y-38181095D01*
G04 #@! TO.C,C1*
X160110666Y-61533142D02*
X160158285Y-61580761D01*
X160301142Y-61628380D01*
X160396380Y-61628380D01*
X160539238Y-61580761D01*
X160634476Y-61485523D01*
X160682095Y-61390285D01*
X160729714Y-61199809D01*
X160729714Y-61056952D01*
X160682095Y-60866476D01*
X160634476Y-60771238D01*
X160539238Y-60676000D01*
X160396380Y-60628380D01*
X160301142Y-60628380D01*
X160158285Y-60676000D01*
X160110666Y-60723619D01*
X159158285Y-61628380D02*
X159729714Y-61628380D01*
X159444000Y-61628380D02*
X159444000Y-60628380D01*
X159539238Y-60771238D01*
X159634476Y-60866476D01*
X159729714Y-60914095D01*
G04 #@! TO.C,C2*
X160110666Y-90743142D02*
X160158285Y-90790761D01*
X160301142Y-90838380D01*
X160396380Y-90838380D01*
X160539238Y-90790761D01*
X160634476Y-90695523D01*
X160682095Y-90600285D01*
X160729714Y-90409809D01*
X160729714Y-90266952D01*
X160682095Y-90076476D01*
X160634476Y-89981238D01*
X160539238Y-89886000D01*
X160396380Y-89838380D01*
X160301142Y-89838380D01*
X160158285Y-89886000D01*
X160110666Y-89933619D01*
X159729714Y-89933619D02*
X159682095Y-89886000D01*
X159586857Y-89838380D01*
X159348761Y-89838380D01*
X159253523Y-89886000D01*
X159205904Y-89933619D01*
X159158285Y-90028857D01*
X159158285Y-90124095D01*
X159205904Y-90266952D01*
X159777333Y-90838380D01*
X159158285Y-90838380D01*
G04 #@! TO.C,C3*
X160110666Y-119953142D02*
X160158285Y-120000761D01*
X160301142Y-120048380D01*
X160396380Y-120048380D01*
X160539238Y-120000761D01*
X160634476Y-119905523D01*
X160682095Y-119810285D01*
X160729714Y-119619809D01*
X160729714Y-119476952D01*
X160682095Y-119286476D01*
X160634476Y-119191238D01*
X160539238Y-119096000D01*
X160396380Y-119048380D01*
X160301142Y-119048380D01*
X160158285Y-119096000D01*
X160110666Y-119143619D01*
X159777333Y-119048380D02*
X159158285Y-119048380D01*
X159491619Y-119429333D01*
X159348761Y-119429333D01*
X159253523Y-119476952D01*
X159205904Y-119524571D01*
X159158285Y-119619809D01*
X159158285Y-119857904D01*
X159205904Y-119953142D01*
X159253523Y-120000761D01*
X159348761Y-120048380D01*
X159634476Y-120048380D01*
X159729714Y-120000761D01*
X159777333Y-119953142D01*
G04 #@! TO.C,D1*
X114073095Y-44102380D02*
X114073095Y-43102380D01*
X113835000Y-43102380D01*
X113692142Y-43150000D01*
X113596904Y-43245238D01*
X113549285Y-43340476D01*
X113501666Y-43530952D01*
X113501666Y-43673809D01*
X113549285Y-43864285D01*
X113596904Y-43959523D01*
X113692142Y-44054761D01*
X113835000Y-44102380D01*
X114073095Y-44102380D01*
X112549285Y-44102380D02*
X113120714Y-44102380D01*
X112835000Y-44102380D02*
X112835000Y-43102380D01*
X112930238Y-43245238D01*
X113025476Y-43340476D01*
X113120714Y-43388095D01*
G04 #@! TO.C,D2*
X114073095Y-73312380D02*
X114073095Y-72312380D01*
X113835000Y-72312380D01*
X113692142Y-72360000D01*
X113596904Y-72455238D01*
X113549285Y-72550476D01*
X113501666Y-72740952D01*
X113501666Y-72883809D01*
X113549285Y-73074285D01*
X113596904Y-73169523D01*
X113692142Y-73264761D01*
X113835000Y-73312380D01*
X114073095Y-73312380D01*
X113120714Y-72407619D02*
X113073095Y-72360000D01*
X112977857Y-72312380D01*
X112739761Y-72312380D01*
X112644523Y-72360000D01*
X112596904Y-72407619D01*
X112549285Y-72502857D01*
X112549285Y-72598095D01*
X112596904Y-72740952D01*
X113168333Y-73312380D01*
X112549285Y-73312380D01*
G04 #@! TO.C,D3*
X114200095Y-102522380D02*
X114200095Y-101522380D01*
X113962000Y-101522380D01*
X113819142Y-101570000D01*
X113723904Y-101665238D01*
X113676285Y-101760476D01*
X113628666Y-101950952D01*
X113628666Y-102093809D01*
X113676285Y-102284285D01*
X113723904Y-102379523D01*
X113819142Y-102474761D01*
X113962000Y-102522380D01*
X114200095Y-102522380D01*
X113295333Y-101522380D02*
X112676285Y-101522380D01*
X113009619Y-101903333D01*
X112866761Y-101903333D01*
X112771523Y-101950952D01*
X112723904Y-101998571D01*
X112676285Y-102093809D01*
X112676285Y-102331904D01*
X112723904Y-102427142D01*
X112771523Y-102474761D01*
X112866761Y-102522380D01*
X113152476Y-102522380D01*
X113247714Y-102474761D01*
X113295333Y-102427142D01*
G04 #@! TO.C,IC2*
X160666190Y-68105380D02*
X160666190Y-67105380D01*
X159618571Y-68010142D02*
X159666190Y-68057761D01*
X159809047Y-68105380D01*
X159904285Y-68105380D01*
X160047142Y-68057761D01*
X160142380Y-67962523D01*
X160190000Y-67867285D01*
X160237619Y-67676809D01*
X160237619Y-67533952D01*
X160190000Y-67343476D01*
X160142380Y-67248238D01*
X160047142Y-67153000D01*
X159904285Y-67105380D01*
X159809047Y-67105380D01*
X159666190Y-67153000D01*
X159618571Y-67200619D01*
X159237619Y-67200619D02*
X159190000Y-67153000D01*
X159094761Y-67105380D01*
X158856666Y-67105380D01*
X158761428Y-67153000D01*
X158713809Y-67200619D01*
X158666190Y-67295857D01*
X158666190Y-67391095D01*
X158713809Y-67533952D01*
X159285238Y-68105380D01*
X158666190Y-68105380D01*
G04 #@! TO.C,IC3*
X160665190Y-97315380D02*
X160665190Y-96315380D01*
X159617571Y-97220142D02*
X159665190Y-97267761D01*
X159808047Y-97315380D01*
X159903285Y-97315380D01*
X160046142Y-97267761D01*
X160141380Y-97172523D01*
X160189000Y-97077285D01*
X160236619Y-96886809D01*
X160236619Y-96743952D01*
X160189000Y-96553476D01*
X160141380Y-96458238D01*
X160046142Y-96363000D01*
X159903285Y-96315380D01*
X159808047Y-96315380D01*
X159665190Y-96363000D01*
X159617571Y-96410619D01*
X159284238Y-96315380D02*
X158665190Y-96315380D01*
X158998523Y-96696333D01*
X158855666Y-96696333D01*
X158760428Y-96743952D01*
X158712809Y-96791571D01*
X158665190Y-96886809D01*
X158665190Y-97124904D01*
X158712809Y-97220142D01*
X158760428Y-97267761D01*
X158855666Y-97315380D01*
X159141380Y-97315380D01*
X159236619Y-97267761D01*
X159284238Y-97220142D01*
G04 #@! TO.C,JP1*
X122900615Y-51398052D02*
X122424425Y-51398052D01*
X122995853Y-51683766D02*
X122662520Y-50683766D01*
X122329187Y-51683766D01*
X121805377Y-50683766D02*
X121710139Y-50683766D01*
X121614901Y-50731386D01*
X121567282Y-50779005D01*
X121519663Y-50874243D01*
X121472044Y-51064719D01*
X121472044Y-51302814D01*
X121519663Y-51493290D01*
X121567282Y-51588528D01*
X121614901Y-51636147D01*
X121710139Y-51683766D01*
X121805377Y-51683766D01*
X121900615Y-51636147D01*
X121948234Y-51588528D01*
X121995853Y-51493290D01*
X122043472Y-51302814D01*
X122043472Y-51064719D01*
X121995853Y-50874243D01*
X121948234Y-50779005D01*
X121900615Y-50731386D01*
X121805377Y-50683766D01*
G04 #@! TO.C,JP2*
X122900615Y-48858052D02*
X122424425Y-48858052D01*
X122995853Y-49143766D02*
X122662520Y-48143766D01*
X122329187Y-49143766D01*
X121472044Y-49143766D02*
X122043472Y-49143766D01*
X121757758Y-49143766D02*
X121757758Y-48143766D01*
X121852996Y-48286624D01*
X121948234Y-48381862D01*
X122043472Y-48429481D01*
G04 #@! TO.C,JP3*
X122900615Y-46318052D02*
X122424425Y-46318052D01*
X122995853Y-46603766D02*
X122662520Y-45603766D01*
X122329187Y-46603766D01*
X122043472Y-45699005D02*
X121995853Y-45651386D01*
X121900615Y-45603766D01*
X121662520Y-45603766D01*
X121567282Y-45651386D01*
X121519663Y-45699005D01*
X121472044Y-45794243D01*
X121472044Y-45889481D01*
X121519663Y-46032338D01*
X122091091Y-46603766D01*
X121472044Y-46603766D01*
G04 #@! TO.C,R1*
X113462996Y-51683766D02*
X113796330Y-51207576D01*
X114034425Y-51683766D02*
X114034425Y-50683766D01*
X113653472Y-50683766D01*
X113558234Y-50731386D01*
X113510615Y-50779005D01*
X113462996Y-50874243D01*
X113462996Y-51017100D01*
X113510615Y-51112338D01*
X113558234Y-51159957D01*
X113653472Y-51207576D01*
X114034425Y-51207576D01*
X112510615Y-51683766D02*
X113082044Y-51683766D01*
X112796330Y-51683766D02*
X112796330Y-50683766D01*
X112891568Y-50826624D01*
X112986806Y-50921862D01*
X113082044Y-50969481D01*
G04 #@! TO.C,R2*
X113462996Y-49143766D02*
X113796330Y-48667576D01*
X114034425Y-49143766D02*
X114034425Y-48143766D01*
X113653472Y-48143766D01*
X113558234Y-48191386D01*
X113510615Y-48239005D01*
X113462996Y-48334243D01*
X113462996Y-48477100D01*
X113510615Y-48572338D01*
X113558234Y-48619957D01*
X113653472Y-48667576D01*
X114034425Y-48667576D01*
X113082044Y-48239005D02*
X113034425Y-48191386D01*
X112939187Y-48143766D01*
X112701091Y-48143766D01*
X112605853Y-48191386D01*
X112558234Y-48239005D01*
X112510615Y-48334243D01*
X112510615Y-48429481D01*
X112558234Y-48572338D01*
X113129663Y-49143766D01*
X112510615Y-49143766D01*
G04 #@! TO.C,R3*
X113462996Y-46603766D02*
X113796330Y-46127576D01*
X114034425Y-46603766D02*
X114034425Y-45603766D01*
X113653472Y-45603766D01*
X113558234Y-45651386D01*
X113510615Y-45699005D01*
X113462996Y-45794243D01*
X113462996Y-45937100D01*
X113510615Y-46032338D01*
X113558234Y-46079957D01*
X113653472Y-46127576D01*
X114034425Y-46127576D01*
X113129663Y-45603766D02*
X112510615Y-45603766D01*
X112843949Y-45984719D01*
X112701091Y-45984719D01*
X112605853Y-46032338D01*
X112558234Y-46079957D01*
X112510615Y-46175195D01*
X112510615Y-46413290D01*
X112558234Y-46508528D01*
X112605853Y-46556147D01*
X112701091Y-46603766D01*
X112986806Y-46603766D01*
X113082044Y-46556147D01*
X113129663Y-46508528D01*
G04 #@! TO.C,R4*
X113501666Y-80932380D02*
X113835000Y-80456190D01*
X114073095Y-80932380D02*
X114073095Y-79932380D01*
X113692142Y-79932380D01*
X113596904Y-79980000D01*
X113549285Y-80027619D01*
X113501666Y-80122857D01*
X113501666Y-80265714D01*
X113549285Y-80360952D01*
X113596904Y-80408571D01*
X113692142Y-80456190D01*
X114073095Y-80456190D01*
X112644523Y-80265714D02*
X112644523Y-80932380D01*
X112882619Y-79884761D02*
X113120714Y-80599047D01*
X112501666Y-80599047D01*
G04 #@! TO.C,R5*
X113501666Y-78392380D02*
X113835000Y-77916190D01*
X114073095Y-78392380D02*
X114073095Y-77392380D01*
X113692142Y-77392380D01*
X113596904Y-77440000D01*
X113549285Y-77487619D01*
X113501666Y-77582857D01*
X113501666Y-77725714D01*
X113549285Y-77820952D01*
X113596904Y-77868571D01*
X113692142Y-77916190D01*
X114073095Y-77916190D01*
X112596904Y-77392380D02*
X113073095Y-77392380D01*
X113120714Y-77868571D01*
X113073095Y-77820952D01*
X112977857Y-77773333D01*
X112739761Y-77773333D01*
X112644523Y-77820952D01*
X112596904Y-77868571D01*
X112549285Y-77963809D01*
X112549285Y-78201904D01*
X112596904Y-78297142D01*
X112644523Y-78344761D01*
X112739761Y-78392380D01*
X112977857Y-78392380D01*
X113073095Y-78344761D01*
X113120714Y-78297142D01*
G04 #@! TO.C,R6*
X113501666Y-75852380D02*
X113835000Y-75376190D01*
X114073095Y-75852380D02*
X114073095Y-74852380D01*
X113692142Y-74852380D01*
X113596904Y-74900000D01*
X113549285Y-74947619D01*
X113501666Y-75042857D01*
X113501666Y-75185714D01*
X113549285Y-75280952D01*
X113596904Y-75328571D01*
X113692142Y-75376190D01*
X114073095Y-75376190D01*
X112644523Y-74852380D02*
X112835000Y-74852380D01*
X112930238Y-74900000D01*
X112977857Y-74947619D01*
X113073095Y-75090476D01*
X113120714Y-75280952D01*
X113120714Y-75661904D01*
X113073095Y-75757142D01*
X113025476Y-75804761D01*
X112930238Y-75852380D01*
X112739761Y-75852380D01*
X112644523Y-75804761D01*
X112596904Y-75757142D01*
X112549285Y-75661904D01*
X112549285Y-75423809D01*
X112596904Y-75328571D01*
X112644523Y-75280952D01*
X112739761Y-75233333D01*
X112930238Y-75233333D01*
X113025476Y-75280952D01*
X113073095Y-75328571D01*
X113120714Y-75423809D01*
G04 #@! TO.C,R7*
X113628666Y-110142380D02*
X113962000Y-109666190D01*
X114200095Y-110142380D02*
X114200095Y-109142380D01*
X113819142Y-109142380D01*
X113723904Y-109190000D01*
X113676285Y-109237619D01*
X113628666Y-109332857D01*
X113628666Y-109475714D01*
X113676285Y-109570952D01*
X113723904Y-109618571D01*
X113819142Y-109666190D01*
X114200095Y-109666190D01*
X113295333Y-109142380D02*
X112628666Y-109142380D01*
X113057238Y-110142380D01*
G04 #@! TO.C,R8*
X113628666Y-107602380D02*
X113962000Y-107126190D01*
X114200095Y-107602380D02*
X114200095Y-106602380D01*
X113819142Y-106602380D01*
X113723904Y-106650000D01*
X113676285Y-106697619D01*
X113628666Y-106792857D01*
X113628666Y-106935714D01*
X113676285Y-107030952D01*
X113723904Y-107078571D01*
X113819142Y-107126190D01*
X114200095Y-107126190D01*
X113057238Y-107030952D02*
X113152476Y-106983333D01*
X113200095Y-106935714D01*
X113247714Y-106840476D01*
X113247714Y-106792857D01*
X113200095Y-106697619D01*
X113152476Y-106650000D01*
X113057238Y-106602380D01*
X112866761Y-106602380D01*
X112771523Y-106650000D01*
X112723904Y-106697619D01*
X112676285Y-106792857D01*
X112676285Y-106840476D01*
X112723904Y-106935714D01*
X112771523Y-106983333D01*
X112866761Y-107030952D01*
X113057238Y-107030952D01*
X113152476Y-107078571D01*
X113200095Y-107126190D01*
X113247714Y-107221428D01*
X113247714Y-107411904D01*
X113200095Y-107507142D01*
X113152476Y-107554761D01*
X113057238Y-107602380D01*
X112866761Y-107602380D01*
X112771523Y-107554761D01*
X112723904Y-107507142D01*
X112676285Y-107411904D01*
X112676285Y-107221428D01*
X112723904Y-107126190D01*
X112771523Y-107078571D01*
X112866761Y-107030952D01*
G04 #@! TO.C,R9*
X113628666Y-105062380D02*
X113962000Y-104586190D01*
X114200095Y-105062380D02*
X114200095Y-104062380D01*
X113819142Y-104062380D01*
X113723904Y-104110000D01*
X113676285Y-104157619D01*
X113628666Y-104252857D01*
X113628666Y-104395714D01*
X113676285Y-104490952D01*
X113723904Y-104538571D01*
X113819142Y-104586190D01*
X114200095Y-104586190D01*
X113152476Y-105062380D02*
X112962000Y-105062380D01*
X112866761Y-105014761D01*
X112819142Y-104967142D01*
X112723904Y-104824285D01*
X112676285Y-104633809D01*
X112676285Y-104252857D01*
X112723904Y-104157619D01*
X112771523Y-104110000D01*
X112866761Y-104062380D01*
X113057238Y-104062380D01*
X113152476Y-104110000D01*
X113200095Y-104157619D01*
X113247714Y-104252857D01*
X113247714Y-104490952D01*
X113200095Y-104586190D01*
X113152476Y-104633809D01*
X113057238Y-104681428D01*
X112866761Y-104681428D01*
X112771523Y-104633809D01*
X112723904Y-104586190D01*
X112676285Y-104490952D01*
G04 #@! TO.C,JP4*
X122924285Y-80646666D02*
X122448095Y-80646666D01*
X123019523Y-80932380D02*
X122686190Y-79932380D01*
X122352857Y-80932380D01*
X121829047Y-79932380D02*
X121733809Y-79932380D01*
X121638571Y-79980000D01*
X121590952Y-80027619D01*
X121543333Y-80122857D01*
X121495714Y-80313333D01*
X121495714Y-80551428D01*
X121543333Y-80741904D01*
X121590952Y-80837142D01*
X121638571Y-80884761D01*
X121733809Y-80932380D01*
X121829047Y-80932380D01*
X121924285Y-80884761D01*
X121971904Y-80837142D01*
X122019523Y-80741904D01*
X122067142Y-80551428D01*
X122067142Y-80313333D01*
X122019523Y-80122857D01*
X121971904Y-80027619D01*
X121924285Y-79980000D01*
X121829047Y-79932380D01*
G04 #@! TO.C,JP5*
X122954285Y-78101652D02*
X122478095Y-78101652D01*
X123049523Y-78387366D02*
X122716190Y-77387366D01*
X122382857Y-78387366D01*
X121525714Y-78387366D02*
X122097142Y-78387366D01*
X121811428Y-78387366D02*
X121811428Y-77387366D01*
X121906666Y-77530224D01*
X122001904Y-77625462D01*
X122097142Y-77673081D01*
G04 #@! TO.C,JP6*
X122939285Y-75566666D02*
X122463095Y-75566666D01*
X123034523Y-75852380D02*
X122701190Y-74852380D01*
X122367857Y-75852380D01*
X122082142Y-74947619D02*
X122034523Y-74900000D01*
X121939285Y-74852380D01*
X121701190Y-74852380D01*
X121605952Y-74900000D01*
X121558333Y-74947619D01*
X121510714Y-75042857D01*
X121510714Y-75138095D01*
X121558333Y-75280952D01*
X122129761Y-75852380D01*
X121510714Y-75852380D01*
G04 #@! TO.C,JP7*
X123081285Y-110008514D02*
X122605095Y-110008514D01*
X123176523Y-110294228D02*
X122843190Y-109294228D01*
X122509857Y-110294228D01*
X121986047Y-109294228D02*
X121890809Y-109294228D01*
X121795571Y-109341848D01*
X121747952Y-109389467D01*
X121700333Y-109484705D01*
X121652714Y-109675181D01*
X121652714Y-109913276D01*
X121700333Y-110103752D01*
X121747952Y-110198990D01*
X121795571Y-110246609D01*
X121890809Y-110294228D01*
X121986047Y-110294228D01*
X122081285Y-110246609D01*
X122128904Y-110198990D01*
X122176523Y-110103752D01*
X122224142Y-109913276D01*
X122224142Y-109675181D01*
X122176523Y-109484705D01*
X122128904Y-109389467D01*
X122081285Y-109341848D01*
X121986047Y-109294228D01*
G04 #@! TO.C,JP8*
X123066285Y-107468514D02*
X122590095Y-107468514D01*
X123161523Y-107754228D02*
X122828190Y-106754228D01*
X122494857Y-107754228D01*
X121637714Y-107754228D02*
X122209142Y-107754228D01*
X121923428Y-107754228D02*
X121923428Y-106754228D01*
X122018666Y-106897086D01*
X122113904Y-106992324D01*
X122209142Y-107039943D01*
G04 #@! TO.C,JP9*
X123066285Y-104928514D02*
X122590095Y-104928514D01*
X123161523Y-105214228D02*
X122828190Y-104214228D01*
X122494857Y-105214228D01*
X122209142Y-104309467D02*
X122161523Y-104261848D01*
X122066285Y-104214228D01*
X121828190Y-104214228D01*
X121732952Y-104261848D01*
X121685333Y-104309467D01*
X121637714Y-104404705D01*
X121637714Y-104499943D01*
X121685333Y-104642800D01*
X122256761Y-105214228D01*
X121637714Y-105214228D01*
G04 #@! TD*
M02*
