M48
;DRILL file {KiCad (5.0.2)-1} date 2023/09/18 18:41:10
;FORMAT={-:-/ absolute / metric / decimal}
FMAT,2
METRIC,TZ
T1C0.400
T2C0.762
%
G90
G05
T1
X112.7Y-31.839
X112.7Y-36.919
X112.7Y-41.999
X112.7Y-47.079
X112.7Y-52.159
X112.7Y-57.239
X112.7Y-62.319
X112.7Y-67.399
X112.7Y-72.479
X112.7Y-77.559
X112.7Y-82.639
X112.7Y-87.719
X112.7Y-92.799
X112.7Y-97.879
X112.7Y-102.959
X112.7Y-108.039
X112.7Y-113.119
X112.7Y-118.199
X112.7Y-123.279
X112.7Y-128.359
X117.78Y-31.839
X117.78Y-36.665
X117.78Y-39.84
X117.78Y-53.81
X117.78Y-57.62
X117.78Y-61.43
X117.78Y-66.129
X117.78Y-83.02
X117.78Y-86.83
X117.78Y-90.64
X117.78Y-95.339
X117.78Y-112.23
X117.78Y-116.04
X117.78Y-119.85
X117.78Y-124.549
X117.78Y-128.359
X121.59Y-36.665
X121.59Y-39.84
X121.59Y-53.81
X121.59Y-57.62
X121.59Y-61.43
X121.59Y-83.02
X121.59Y-86.83
X121.59Y-90.64
X121.59Y-112.23
X121.59Y-116.04
X121.59Y-119.85
X121.59Y-124.549
X122.225Y-69.05
X122.225Y-98.26
X122.86Y-31.839
X122.86Y-128.359
X125.4Y-124.549
X127.305Y-69.05
X127.305Y-98.26
X127.432Y-46.952
X127.432Y-76.162
X127.432Y-105.372
X127.94Y-31.839
X127.94Y-36.665
X127.94Y-39.84
X127.94Y-61.43
X127.94Y-90.64
X127.94Y-119.85
X127.94Y-128.359
X128.575Y-53.81
X128.575Y-83.02
X128.575Y-112.23
X129.21Y-124.549
X130.48Y-39.84
X130.48Y-43.904
X130.48Y-69.05
X130.48Y-73.114
X130.48Y-98.26
X130.48Y-102.324
X131.75Y-125.819
X133.02Y-31.839
X133.229Y-130.266
X134.29Y-50.
X135.558Y-53.309
X135.558Y-82.519
X135.558Y-111.729
X135.56Y-39.84
X135.56Y-124.549
X135.729Y-130.266
X136.195Y-69.05
X136.195Y-98.26
X137.465Y-126.454
X138.1Y-31.839
X138.229Y-130.266
X139.37Y-61.43
X139.37Y-90.64
X139.37Y-119.85
X140.005Y-41.11
X140.005Y-46.825
X140.005Y-76.035
X140.005Y-105.245
X140.132Y-70.066
X140.132Y-99.276
X140.64Y-56.096
X140.64Y-85.306
X140.64Y-114.516
X141.91Y-125.692
X142.164Y-67.78
X142.164Y-96.99
X142.545Y-38.57
X142.545Y-41.11
X143.18Y-31.839
X143.18Y-56.096
X143.18Y-85.306
X143.18Y-114.516
X143.18Y-128.597
X143.18Y-128.597
X143.229Y-130.266
X146.99Y-38.57
X146.99Y-61.43
X146.99Y-90.64
X146.99Y-119.85
X146.99Y-128.359
X147.244Y-125.692
X147.625Y-41.11
X148.26Y-31.839
X148.26Y-70.574
X148.26Y-99.784
X150.292Y-59.144
X150.292Y-88.354
X150.292Y-117.564
X150.8Y-61.43
X150.8Y-90.64
X150.8Y-119.85
X151.308Y-41.618
X151.308Y-58.128
X151.308Y-70.828
X151.308Y-87.338
X151.308Y-100.038
X151.308Y-116.548
X152.07Y-48.476
X152.07Y-77.686
X152.07Y-106.896
X152.07Y-128.359
X152.324Y-57.112
X152.324Y-86.322
X152.324Y-115.532
X152.324Y-125.692
X153.34Y-31.839
X154.61Y-36.03
X154.61Y-61.43
X154.61Y-64.859
X154.61Y-90.64
X154.61Y-94.069
X154.61Y-119.85
X157.15Y-57.239
X157.15Y-86.449
X157.15Y-128.359
X157.404Y-125.692
X158.42Y-31.839
X158.42Y-36.03
X158.42Y-53.175
X158.42Y-61.43
X158.42Y-64.859
X158.42Y-90.64
X158.42Y-94.069
X158.42Y-119.85
X159.055Y-82.385
X159.055Y-111.595
X159.182Y-50.889
X159.182Y-80.099
X159.182Y-109.309
X160.452Y-52.159
X160.452Y-81.369
X160.452Y-110.579
X160.452Y-111.579
X160.579Y-82.385
X160.96Y-123.279
X162.23Y-64.859
X162.23Y-94.069
X162.23Y-119.469
X162.23Y-128.359
X162.484Y-125.692
X162.738Y-50.889
X162.738Y-52.159
X162.738Y-55.969
X162.738Y-80.099
X162.738Y-81.369
X162.738Y-85.179
X162.738Y-109.309
X162.738Y-110.579
X162.738Y-114.389
X162.865Y-31.839
X162.865Y-36.284
X162.865Y-40.729
X162.865Y-41.999
X162.865Y-43.269
X162.865Y-44.539
X162.865Y-45.809
X162.865Y-69.939
X162.865Y-71.209
X162.865Y-72.479
X162.865Y-73.749
X162.865Y-75.019
X162.865Y-99.149
X162.865Y-100.419
X162.865Y-101.689
X162.865Y-102.959
X162.865Y-104.229
X165.024Y-58.636
X165.024Y-63.716
X165.024Y-68.796
X165.024Y-87.592
X165.024Y-92.672
X165.024Y-97.752
X165.024Y-117.056
X165.024Y-122.136
X166.04Y-54.826
X166.04Y-127.089
X166.992Y-33.109
X166.992Y-38.189
X166.992Y-43.269
X166.992Y-48.349
X166.992Y-53.429
X166.992Y-58.636
X166.992Y-63.716
X166.992Y-68.796
X166.992Y-73.368
X166.992Y-78.321
X166.992Y-83.02
X166.992Y-87.592
X166.992Y-92.672
X166.992Y-97.752
X166.992Y-102.832
X166.992Y-107.785
X166.992Y-112.484
X166.992Y-117.056
X166.992Y-122.136
T2
X125.4Y-65.875
X125.4Y-76.035
X130.48Y-65.875
X130.48Y-76.035
X133.02Y-65.875
X133.02Y-76.035
X135.56Y-76.035
X138.1Y-65.875
X140.64Y-65.875
X143.18Y-65.875
X143.18Y-76.035
X145.72Y-65.875
X148.26Y-65.875
X150.8Y-65.875
X125.4Y-51.27
X125.4Y-61.43
X130.48Y-51.27
X130.48Y-61.43
X133.02Y-51.27
X133.02Y-61.43
X135.56Y-61.43
X138.1Y-51.27
X140.64Y-51.27
X143.18Y-51.27
X143.18Y-61.43
X145.72Y-51.27
X148.26Y-51.27
X150.8Y-51.27
X125.4Y-36.665
X125.4Y-46.825
X130.48Y-36.665
X130.48Y-46.825
X133.02Y-36.665
X133.02Y-46.825
X135.56Y-46.825
X138.1Y-36.665
X140.64Y-36.665
X143.18Y-36.665
X143.18Y-46.825
X145.72Y-36.665
X148.26Y-36.665
X150.8Y-36.665
X125.4Y-109.69
X125.4Y-119.85
X130.48Y-109.69
X130.48Y-119.85
X133.02Y-109.69
X133.02Y-119.85
X135.56Y-119.85
X138.1Y-109.69
X140.64Y-109.69
X143.18Y-109.69
X143.18Y-119.85
X145.72Y-109.69
X148.26Y-109.69
X150.8Y-109.69
X125.4Y-95.085
X125.4Y-105.245
X130.48Y-95.085
X130.48Y-105.245
X133.02Y-95.085
X133.02Y-105.245
X135.56Y-105.245
X138.1Y-95.085
X140.64Y-95.085
X143.18Y-95.085
X143.18Y-105.245
X145.72Y-95.085
X148.26Y-95.085
X150.8Y-95.085
X125.4Y-80.48
X125.4Y-90.64
X130.48Y-80.48
X130.48Y-90.64
X133.02Y-80.48
X133.02Y-90.64
X135.56Y-90.64
X138.1Y-80.48
X140.64Y-80.48
X143.18Y-80.48
X143.18Y-90.64
X145.72Y-80.48
X148.26Y-80.48
X150.8Y-80.48
T0
M30
