G04 #@! TF.GenerationSoftware,KiCad,Pcbnew,(5.0.2)-1*
G04 #@! TF.CreationDate,2023-09-18T18:41:06+09:00*
G04 #@! TF.ProjectId,Building,4275696c-6469-46e6-972e-6b696361645f,rev?*
G04 #@! TF.SameCoordinates,Original*
G04 #@! TF.FileFunction,Legend,Top*
G04 #@! TF.FilePolarity,Positive*
%FSLAX46Y46*%
G04 Gerber Fmt 4.6, Leading zero omitted, Abs format (unit mm)*
G04 Created by KiCad (PCBNEW (5.0.2)-1) date 2023/09/18 18:41:06*
%MOMM*%
%LPD*%
G01*
G04 APERTURE LIST*
%ADD10C,0.150000*%
G04 APERTURE END LIST*
D10*
G04 #@! TO.C,U1*
X159950000Y-34745000D02*
X159950000Y-48745000D01*
X116250000Y-34745000D02*
X159950000Y-34745000D01*
X116250000Y-48745000D02*
X159950000Y-48745000D01*
X116250000Y-34745000D02*
X116250000Y-48745000D01*
X124765000Y-48730000D02*
X125400000Y-48095000D01*
X125400000Y-48095000D02*
X126035000Y-48730000D01*
G04 #@! TO.C,U2*
X125400000Y-62700000D02*
X126035000Y-63335000D01*
X124765000Y-63335000D02*
X125400000Y-62700000D01*
X116250000Y-49350000D02*
X116250000Y-63350000D01*
X116250000Y-63350000D02*
X159950000Y-63350000D01*
X116250000Y-49350000D02*
X159950000Y-49350000D01*
X159950000Y-49350000D02*
X159950000Y-63350000D01*
G04 #@! TO.C,U3*
X159950000Y-63955000D02*
X159950000Y-77955000D01*
X116250000Y-63955000D02*
X159950000Y-63955000D01*
X116250000Y-77955000D02*
X159950000Y-77955000D01*
X116250000Y-63955000D02*
X116250000Y-77955000D01*
X124765000Y-77940000D02*
X125400000Y-77305000D01*
X125400000Y-77305000D02*
X126035000Y-77940000D01*
G04 #@! TO.C,U4*
X125400000Y-91910000D02*
X126035000Y-92545000D01*
X124765000Y-92545000D02*
X125400000Y-91910000D01*
X116250000Y-78560000D02*
X116250000Y-92560000D01*
X116250000Y-92560000D02*
X159950000Y-92560000D01*
X116250000Y-78560000D02*
X159950000Y-78560000D01*
X159950000Y-78560000D02*
X159950000Y-92560000D01*
G04 #@! TO.C,U5*
X159950000Y-93165000D02*
X159950000Y-107165000D01*
X116250000Y-93165000D02*
X159950000Y-93165000D01*
X116250000Y-107165000D02*
X159950000Y-107165000D01*
X116250000Y-93165000D02*
X116250000Y-107165000D01*
X124765000Y-107150000D02*
X125400000Y-106515000D01*
X125400000Y-106515000D02*
X126035000Y-107150000D01*
G04 #@! TO.C,U6*
X125400000Y-121120000D02*
X126035000Y-121755000D01*
X124765000Y-121755000D02*
X125400000Y-121120000D01*
X116250000Y-107770000D02*
X116250000Y-121770000D01*
X116250000Y-121770000D02*
X159950000Y-121770000D01*
X116250000Y-107770000D02*
X159950000Y-107770000D01*
X159950000Y-107770000D02*
X159950000Y-121770000D01*
G04 #@! TO.C,U1*
X137338095Y-41197380D02*
X137338095Y-42006904D01*
X137385714Y-42102142D01*
X137433333Y-42149761D01*
X137528571Y-42197380D01*
X137719047Y-42197380D01*
X137814285Y-42149761D01*
X137861904Y-42102142D01*
X137909523Y-42006904D01*
X137909523Y-41197380D01*
X138909523Y-42197380D02*
X138338095Y-42197380D01*
X138623809Y-42197380D02*
X138623809Y-41197380D01*
X138528571Y-41340238D01*
X138433333Y-41435476D01*
X138338095Y-41483095D01*
G04 #@! TO.C,U2*
X137338095Y-55802380D02*
X137338095Y-56611904D01*
X137385714Y-56707142D01*
X137433333Y-56754761D01*
X137528571Y-56802380D01*
X137719047Y-56802380D01*
X137814285Y-56754761D01*
X137861904Y-56707142D01*
X137909523Y-56611904D01*
X137909523Y-55802380D01*
X138338095Y-55897619D02*
X138385714Y-55850000D01*
X138480952Y-55802380D01*
X138719047Y-55802380D01*
X138814285Y-55850000D01*
X138861904Y-55897619D01*
X138909523Y-55992857D01*
X138909523Y-56088095D01*
X138861904Y-56230952D01*
X138290476Y-56802380D01*
X138909523Y-56802380D01*
G04 #@! TO.C,U3*
X137338095Y-70407380D02*
X137338095Y-71216904D01*
X137385714Y-71312142D01*
X137433333Y-71359761D01*
X137528571Y-71407380D01*
X137719047Y-71407380D01*
X137814285Y-71359761D01*
X137861904Y-71312142D01*
X137909523Y-71216904D01*
X137909523Y-70407380D01*
X138290476Y-70407380D02*
X138909523Y-70407380D01*
X138576190Y-70788333D01*
X138719047Y-70788333D01*
X138814285Y-70835952D01*
X138861904Y-70883571D01*
X138909523Y-70978809D01*
X138909523Y-71216904D01*
X138861904Y-71312142D01*
X138814285Y-71359761D01*
X138719047Y-71407380D01*
X138433333Y-71407380D01*
X138338095Y-71359761D01*
X138290476Y-71312142D01*
G04 #@! TO.C,U4*
X137338095Y-85012380D02*
X137338095Y-85821904D01*
X137385714Y-85917142D01*
X137433333Y-85964761D01*
X137528571Y-86012380D01*
X137719047Y-86012380D01*
X137814285Y-85964761D01*
X137861904Y-85917142D01*
X137909523Y-85821904D01*
X137909523Y-85012380D01*
X138814285Y-85345714D02*
X138814285Y-86012380D01*
X138576190Y-84964761D02*
X138338095Y-85679047D01*
X138957142Y-85679047D01*
G04 #@! TO.C,U5*
X137338095Y-99617380D02*
X137338095Y-100426904D01*
X137385714Y-100522142D01*
X137433333Y-100569761D01*
X137528571Y-100617380D01*
X137719047Y-100617380D01*
X137814285Y-100569761D01*
X137861904Y-100522142D01*
X137909523Y-100426904D01*
X137909523Y-99617380D01*
X138861904Y-99617380D02*
X138385714Y-99617380D01*
X138338095Y-100093571D01*
X138385714Y-100045952D01*
X138480952Y-99998333D01*
X138719047Y-99998333D01*
X138814285Y-100045952D01*
X138861904Y-100093571D01*
X138909523Y-100188809D01*
X138909523Y-100426904D01*
X138861904Y-100522142D01*
X138814285Y-100569761D01*
X138719047Y-100617380D01*
X138480952Y-100617380D01*
X138385714Y-100569761D01*
X138338095Y-100522142D01*
G04 #@! TO.C,U6*
X137338095Y-114222380D02*
X137338095Y-115031904D01*
X137385714Y-115127142D01*
X137433333Y-115174761D01*
X137528571Y-115222380D01*
X137719047Y-115222380D01*
X137814285Y-115174761D01*
X137861904Y-115127142D01*
X137909523Y-115031904D01*
X137909523Y-114222380D01*
X138814285Y-114222380D02*
X138623809Y-114222380D01*
X138528571Y-114270000D01*
X138480952Y-114317619D01*
X138385714Y-114460476D01*
X138338095Y-114650952D01*
X138338095Y-115031904D01*
X138385714Y-115127142D01*
X138433333Y-115174761D01*
X138528571Y-115222380D01*
X138719047Y-115222380D01*
X138814285Y-115174761D01*
X138861904Y-115127142D01*
X138909523Y-115031904D01*
X138909523Y-114793809D01*
X138861904Y-114698571D01*
X138814285Y-114650952D01*
X138719047Y-114603333D01*
X138528571Y-114603333D01*
X138433333Y-114650952D01*
X138385714Y-114698571D01*
X138338095Y-114793809D01*
G04 #@! TD*
M02*
