G04 #@! TF.GenerationSoftware,KiCad,Pcbnew,(5.0.2)-1*
G04 #@! TF.CreationDate,2023-09-18T18:41:06+09:00*
G04 #@! TF.ProjectId,Building,4275696c-6469-46e6-972e-6b696361645f,rev?*
G04 #@! TF.SameCoordinates,Original*
G04 #@! TF.FileFunction,Soldermask,Top*
G04 #@! TF.FilePolarity,Negative*
%FSLAX46Y46*%
G04 Gerber Fmt 4.6, Leading zero omitted, Abs format (unit mm)*
G04 Created by KiCad (PCBNEW (5.0.2)-1) date 2023/09/18 18:41:06*
%MOMM*%
%LPD*%
G01*
G04 APERTURE LIST*
%ADD10C,0.150000*%
%ADD11C,0.100000*%
G04 APERTURE END LIST*
D10*
G36*
X130729000Y-129765500D02*
X145729000Y-129765500D01*
X145729000Y-140265500D01*
X130729000Y-140265500D01*
X130729000Y-129765500D01*
G37*
X130729000Y-129765500D02*
X145729000Y-129765500D01*
X145729000Y-140265500D01*
X130729000Y-140265500D01*
X130729000Y-129765500D01*
D11*
G36*
X139015000Y-140261500D02*
X137443000Y-140261500D01*
X137443000Y-131269500D01*
X139015000Y-131269500D01*
X139015000Y-140261500D01*
X139015000Y-140261500D01*
G37*
G36*
X136475000Y-140261500D02*
X134903000Y-140261500D01*
X134903000Y-131269500D01*
X136475000Y-131269500D01*
X136475000Y-140261500D01*
X136475000Y-140261500D01*
G37*
G36*
X133935000Y-140261500D02*
X132363000Y-140261500D01*
X132363000Y-131269500D01*
X133935000Y-131269500D01*
X133935000Y-140261500D01*
X133935000Y-140261500D01*
G37*
G36*
X144095000Y-140261500D02*
X142523000Y-140261500D01*
X142523000Y-131269500D01*
X144095000Y-131269500D01*
X144095000Y-140261500D01*
X144095000Y-140261500D01*
G37*
G36*
X141555000Y-140261500D02*
X139983000Y-140261500D01*
X139983000Y-131269500D01*
X141555000Y-131269500D01*
X141555000Y-140261500D01*
X141555000Y-140261500D01*
G37*
G36*
X125637142Y-119068242D02*
X125785102Y-119129530D01*
X125918258Y-119218502D01*
X126031498Y-119331742D01*
X126120470Y-119464898D01*
X126181758Y-119612858D01*
X126213000Y-119769925D01*
X126213000Y-119930075D01*
X126181758Y-120087142D01*
X126120470Y-120235102D01*
X126031498Y-120368258D01*
X125918258Y-120481498D01*
X125785102Y-120570470D01*
X125637142Y-120631758D01*
X125480075Y-120663000D01*
X125319925Y-120663000D01*
X125162858Y-120631758D01*
X125014898Y-120570470D01*
X124881742Y-120481498D01*
X124768502Y-120368258D01*
X124679530Y-120235102D01*
X124618242Y-120087142D01*
X124587000Y-119930075D01*
X124587000Y-119769925D01*
X124618242Y-119612858D01*
X124679530Y-119464898D01*
X124768502Y-119331742D01*
X124881742Y-119218502D01*
X125014898Y-119129530D01*
X125162858Y-119068242D01*
X125319925Y-119037000D01*
X125480075Y-119037000D01*
X125637142Y-119068242D01*
X125637142Y-119068242D01*
G37*
G36*
X130717142Y-119068242D02*
X130865102Y-119129530D01*
X130998258Y-119218502D01*
X131111498Y-119331742D01*
X131200470Y-119464898D01*
X131261758Y-119612858D01*
X131293000Y-119769925D01*
X131293000Y-119930075D01*
X131261758Y-120087142D01*
X131200470Y-120235102D01*
X131111498Y-120368258D01*
X130998258Y-120481498D01*
X130865102Y-120570470D01*
X130717142Y-120631758D01*
X130560075Y-120663000D01*
X130399925Y-120663000D01*
X130242858Y-120631758D01*
X130094898Y-120570470D01*
X129961742Y-120481498D01*
X129848502Y-120368258D01*
X129759530Y-120235102D01*
X129698242Y-120087142D01*
X129667000Y-119930075D01*
X129667000Y-119769925D01*
X129698242Y-119612858D01*
X129759530Y-119464898D01*
X129848502Y-119331742D01*
X129961742Y-119218502D01*
X130094898Y-119129530D01*
X130242858Y-119068242D01*
X130399925Y-119037000D01*
X130560075Y-119037000D01*
X130717142Y-119068242D01*
X130717142Y-119068242D01*
G37*
G36*
X133257142Y-119068242D02*
X133405102Y-119129530D01*
X133538258Y-119218502D01*
X133651498Y-119331742D01*
X133740470Y-119464898D01*
X133801758Y-119612858D01*
X133833000Y-119769925D01*
X133833000Y-119930075D01*
X133801758Y-120087142D01*
X133740470Y-120235102D01*
X133651498Y-120368258D01*
X133538258Y-120481498D01*
X133405102Y-120570470D01*
X133257142Y-120631758D01*
X133100075Y-120663000D01*
X132939925Y-120663000D01*
X132782858Y-120631758D01*
X132634898Y-120570470D01*
X132501742Y-120481498D01*
X132388502Y-120368258D01*
X132299530Y-120235102D01*
X132238242Y-120087142D01*
X132207000Y-119930075D01*
X132207000Y-119769925D01*
X132238242Y-119612858D01*
X132299530Y-119464898D01*
X132388502Y-119331742D01*
X132501742Y-119218502D01*
X132634898Y-119129530D01*
X132782858Y-119068242D01*
X132939925Y-119037000D01*
X133100075Y-119037000D01*
X133257142Y-119068242D01*
X133257142Y-119068242D01*
G37*
G36*
X135797142Y-119068242D02*
X135945102Y-119129530D01*
X136078258Y-119218502D01*
X136191498Y-119331742D01*
X136280470Y-119464898D01*
X136341758Y-119612858D01*
X136373000Y-119769925D01*
X136373000Y-119930075D01*
X136341758Y-120087142D01*
X136280470Y-120235102D01*
X136191498Y-120368258D01*
X136078258Y-120481498D01*
X135945102Y-120570470D01*
X135797142Y-120631758D01*
X135640075Y-120663000D01*
X135479925Y-120663000D01*
X135322858Y-120631758D01*
X135174898Y-120570470D01*
X135041742Y-120481498D01*
X134928502Y-120368258D01*
X134839530Y-120235102D01*
X134778242Y-120087142D01*
X134747000Y-119930075D01*
X134747000Y-119769925D01*
X134778242Y-119612858D01*
X134839530Y-119464898D01*
X134928502Y-119331742D01*
X135041742Y-119218502D01*
X135174898Y-119129530D01*
X135322858Y-119068242D01*
X135479925Y-119037000D01*
X135640075Y-119037000D01*
X135797142Y-119068242D01*
X135797142Y-119068242D01*
G37*
G36*
X143417142Y-119068242D02*
X143565102Y-119129530D01*
X143698258Y-119218502D01*
X143811498Y-119331742D01*
X143900470Y-119464898D01*
X143961758Y-119612858D01*
X143993000Y-119769925D01*
X143993000Y-119930075D01*
X143961758Y-120087142D01*
X143900470Y-120235102D01*
X143811498Y-120368258D01*
X143698258Y-120481498D01*
X143565102Y-120570470D01*
X143417142Y-120631758D01*
X143260075Y-120663000D01*
X143099925Y-120663000D01*
X142942858Y-120631758D01*
X142794898Y-120570470D01*
X142661742Y-120481498D01*
X142548502Y-120368258D01*
X142459530Y-120235102D01*
X142398242Y-120087142D01*
X142367000Y-119930075D01*
X142367000Y-119769925D01*
X142398242Y-119612858D01*
X142459530Y-119464898D01*
X142548502Y-119331742D01*
X142661742Y-119218502D01*
X142794898Y-119129530D01*
X142942858Y-119068242D01*
X143099925Y-119037000D01*
X143260075Y-119037000D01*
X143417142Y-119068242D01*
X143417142Y-119068242D01*
G37*
G36*
X133257142Y-108908242D02*
X133405102Y-108969530D01*
X133538258Y-109058502D01*
X133651498Y-109171742D01*
X133740470Y-109304898D01*
X133801758Y-109452858D01*
X133833000Y-109609925D01*
X133833000Y-109770075D01*
X133801758Y-109927142D01*
X133740470Y-110075102D01*
X133651498Y-110208258D01*
X133538258Y-110321498D01*
X133405102Y-110410470D01*
X133257142Y-110471758D01*
X133100075Y-110503000D01*
X132939925Y-110503000D01*
X132782858Y-110471758D01*
X132634898Y-110410470D01*
X132501742Y-110321498D01*
X132388502Y-110208258D01*
X132299530Y-110075102D01*
X132238242Y-109927142D01*
X132207000Y-109770075D01*
X132207000Y-109609925D01*
X132238242Y-109452858D01*
X132299530Y-109304898D01*
X132388502Y-109171742D01*
X132501742Y-109058502D01*
X132634898Y-108969530D01*
X132782858Y-108908242D01*
X132939925Y-108877000D01*
X133100075Y-108877000D01*
X133257142Y-108908242D01*
X133257142Y-108908242D01*
G37*
G36*
X138337142Y-108908242D02*
X138485102Y-108969530D01*
X138618258Y-109058502D01*
X138731498Y-109171742D01*
X138820470Y-109304898D01*
X138881758Y-109452858D01*
X138913000Y-109609925D01*
X138913000Y-109770075D01*
X138881758Y-109927142D01*
X138820470Y-110075102D01*
X138731498Y-110208258D01*
X138618258Y-110321498D01*
X138485102Y-110410470D01*
X138337142Y-110471758D01*
X138180075Y-110503000D01*
X138019925Y-110503000D01*
X137862858Y-110471758D01*
X137714898Y-110410470D01*
X137581742Y-110321498D01*
X137468502Y-110208258D01*
X137379530Y-110075102D01*
X137318242Y-109927142D01*
X137287000Y-109770075D01*
X137287000Y-109609925D01*
X137318242Y-109452858D01*
X137379530Y-109304898D01*
X137468502Y-109171742D01*
X137581742Y-109058502D01*
X137714898Y-108969530D01*
X137862858Y-108908242D01*
X138019925Y-108877000D01*
X138180075Y-108877000D01*
X138337142Y-108908242D01*
X138337142Y-108908242D01*
G37*
G36*
X130717142Y-108908242D02*
X130865102Y-108969530D01*
X130998258Y-109058502D01*
X131111498Y-109171742D01*
X131200470Y-109304898D01*
X131261758Y-109452858D01*
X131293000Y-109609925D01*
X131293000Y-109770075D01*
X131261758Y-109927142D01*
X131200470Y-110075102D01*
X131111498Y-110208258D01*
X130998258Y-110321498D01*
X130865102Y-110410470D01*
X130717142Y-110471758D01*
X130560075Y-110503000D01*
X130399925Y-110503000D01*
X130242858Y-110471758D01*
X130094898Y-110410470D01*
X129961742Y-110321498D01*
X129848502Y-110208258D01*
X129759530Y-110075102D01*
X129698242Y-109927142D01*
X129667000Y-109770075D01*
X129667000Y-109609925D01*
X129698242Y-109452858D01*
X129759530Y-109304898D01*
X129848502Y-109171742D01*
X129961742Y-109058502D01*
X130094898Y-108969530D01*
X130242858Y-108908242D01*
X130399925Y-108877000D01*
X130560075Y-108877000D01*
X130717142Y-108908242D01*
X130717142Y-108908242D01*
G37*
G36*
X125637142Y-108908242D02*
X125785102Y-108969530D01*
X125918258Y-109058502D01*
X126031498Y-109171742D01*
X126120470Y-109304898D01*
X126181758Y-109452858D01*
X126213000Y-109609925D01*
X126213000Y-109770075D01*
X126181758Y-109927142D01*
X126120470Y-110075102D01*
X126031498Y-110208258D01*
X125918258Y-110321498D01*
X125785102Y-110410470D01*
X125637142Y-110471758D01*
X125480075Y-110503000D01*
X125319925Y-110503000D01*
X125162858Y-110471758D01*
X125014898Y-110410470D01*
X124881742Y-110321498D01*
X124768502Y-110208258D01*
X124679530Y-110075102D01*
X124618242Y-109927142D01*
X124587000Y-109770075D01*
X124587000Y-109609925D01*
X124618242Y-109452858D01*
X124679530Y-109304898D01*
X124768502Y-109171742D01*
X124881742Y-109058502D01*
X125014898Y-108969530D01*
X125162858Y-108908242D01*
X125319925Y-108877000D01*
X125480075Y-108877000D01*
X125637142Y-108908242D01*
X125637142Y-108908242D01*
G37*
G36*
X151037142Y-108908242D02*
X151185102Y-108969530D01*
X151318258Y-109058502D01*
X151431498Y-109171742D01*
X151520470Y-109304898D01*
X151581758Y-109452858D01*
X151613000Y-109609925D01*
X151613000Y-109770075D01*
X151581758Y-109927142D01*
X151520470Y-110075102D01*
X151431498Y-110208258D01*
X151318258Y-110321498D01*
X151185102Y-110410470D01*
X151037142Y-110471758D01*
X150880075Y-110503000D01*
X150719925Y-110503000D01*
X150562858Y-110471758D01*
X150414898Y-110410470D01*
X150281742Y-110321498D01*
X150168502Y-110208258D01*
X150079530Y-110075102D01*
X150018242Y-109927142D01*
X149987000Y-109770075D01*
X149987000Y-109609925D01*
X150018242Y-109452858D01*
X150079530Y-109304898D01*
X150168502Y-109171742D01*
X150281742Y-109058502D01*
X150414898Y-108969530D01*
X150562858Y-108908242D01*
X150719925Y-108877000D01*
X150880075Y-108877000D01*
X151037142Y-108908242D01*
X151037142Y-108908242D01*
G37*
G36*
X148497142Y-108908242D02*
X148645102Y-108969530D01*
X148778258Y-109058502D01*
X148891498Y-109171742D01*
X148980470Y-109304898D01*
X149041758Y-109452858D01*
X149073000Y-109609925D01*
X149073000Y-109770075D01*
X149041758Y-109927142D01*
X148980470Y-110075102D01*
X148891498Y-110208258D01*
X148778258Y-110321498D01*
X148645102Y-110410470D01*
X148497142Y-110471758D01*
X148340075Y-110503000D01*
X148179925Y-110503000D01*
X148022858Y-110471758D01*
X147874898Y-110410470D01*
X147741742Y-110321498D01*
X147628502Y-110208258D01*
X147539530Y-110075102D01*
X147478242Y-109927142D01*
X147447000Y-109770075D01*
X147447000Y-109609925D01*
X147478242Y-109452858D01*
X147539530Y-109304898D01*
X147628502Y-109171742D01*
X147741742Y-109058502D01*
X147874898Y-108969530D01*
X148022858Y-108908242D01*
X148179925Y-108877000D01*
X148340075Y-108877000D01*
X148497142Y-108908242D01*
X148497142Y-108908242D01*
G37*
G36*
X145957142Y-108908242D02*
X146105102Y-108969530D01*
X146238258Y-109058502D01*
X146351498Y-109171742D01*
X146440470Y-109304898D01*
X146501758Y-109452858D01*
X146533000Y-109609925D01*
X146533000Y-109770075D01*
X146501758Y-109927142D01*
X146440470Y-110075102D01*
X146351498Y-110208258D01*
X146238258Y-110321498D01*
X146105102Y-110410470D01*
X145957142Y-110471758D01*
X145800075Y-110503000D01*
X145639925Y-110503000D01*
X145482858Y-110471758D01*
X145334898Y-110410470D01*
X145201742Y-110321498D01*
X145088502Y-110208258D01*
X144999530Y-110075102D01*
X144938242Y-109927142D01*
X144907000Y-109770075D01*
X144907000Y-109609925D01*
X144938242Y-109452858D01*
X144999530Y-109304898D01*
X145088502Y-109171742D01*
X145201742Y-109058502D01*
X145334898Y-108969530D01*
X145482858Y-108908242D01*
X145639925Y-108877000D01*
X145800075Y-108877000D01*
X145957142Y-108908242D01*
X145957142Y-108908242D01*
G37*
G36*
X143417142Y-108908242D02*
X143565102Y-108969530D01*
X143698258Y-109058502D01*
X143811498Y-109171742D01*
X143900470Y-109304898D01*
X143961758Y-109452858D01*
X143993000Y-109609925D01*
X143993000Y-109770075D01*
X143961758Y-109927142D01*
X143900470Y-110075102D01*
X143811498Y-110208258D01*
X143698258Y-110321498D01*
X143565102Y-110410470D01*
X143417142Y-110471758D01*
X143260075Y-110503000D01*
X143099925Y-110503000D01*
X142942858Y-110471758D01*
X142794898Y-110410470D01*
X142661742Y-110321498D01*
X142548502Y-110208258D01*
X142459530Y-110075102D01*
X142398242Y-109927142D01*
X142367000Y-109770075D01*
X142367000Y-109609925D01*
X142398242Y-109452858D01*
X142459530Y-109304898D01*
X142548502Y-109171742D01*
X142661742Y-109058502D01*
X142794898Y-108969530D01*
X142942858Y-108908242D01*
X143099925Y-108877000D01*
X143260075Y-108877000D01*
X143417142Y-108908242D01*
X143417142Y-108908242D01*
G37*
G36*
X140877142Y-108908242D02*
X141025102Y-108969530D01*
X141158258Y-109058502D01*
X141271498Y-109171742D01*
X141360470Y-109304898D01*
X141421758Y-109452858D01*
X141453000Y-109609925D01*
X141453000Y-109770075D01*
X141421758Y-109927142D01*
X141360470Y-110075102D01*
X141271498Y-110208258D01*
X141158258Y-110321498D01*
X141025102Y-110410470D01*
X140877142Y-110471758D01*
X140720075Y-110503000D01*
X140559925Y-110503000D01*
X140402858Y-110471758D01*
X140254898Y-110410470D01*
X140121742Y-110321498D01*
X140008502Y-110208258D01*
X139919530Y-110075102D01*
X139858242Y-109927142D01*
X139827000Y-109770075D01*
X139827000Y-109609925D01*
X139858242Y-109452858D01*
X139919530Y-109304898D01*
X140008502Y-109171742D01*
X140121742Y-109058502D01*
X140254898Y-108969530D01*
X140402858Y-108908242D01*
X140559925Y-108877000D01*
X140720075Y-108877000D01*
X140877142Y-108908242D01*
X140877142Y-108908242D01*
G37*
G36*
X133257142Y-104463242D02*
X133405102Y-104524530D01*
X133538258Y-104613502D01*
X133651498Y-104726742D01*
X133740470Y-104859898D01*
X133801758Y-105007858D01*
X133833000Y-105164925D01*
X133833000Y-105325075D01*
X133801758Y-105482142D01*
X133740470Y-105630102D01*
X133651498Y-105763258D01*
X133538258Y-105876498D01*
X133405102Y-105965470D01*
X133257142Y-106026758D01*
X133100075Y-106058000D01*
X132939925Y-106058000D01*
X132782858Y-106026758D01*
X132634898Y-105965470D01*
X132501742Y-105876498D01*
X132388502Y-105763258D01*
X132299530Y-105630102D01*
X132238242Y-105482142D01*
X132207000Y-105325075D01*
X132207000Y-105164925D01*
X132238242Y-105007858D01*
X132299530Y-104859898D01*
X132388502Y-104726742D01*
X132501742Y-104613502D01*
X132634898Y-104524530D01*
X132782858Y-104463242D01*
X132939925Y-104432000D01*
X133100075Y-104432000D01*
X133257142Y-104463242D01*
X133257142Y-104463242D01*
G37*
G36*
X125637142Y-104463242D02*
X125785102Y-104524530D01*
X125918258Y-104613502D01*
X126031498Y-104726742D01*
X126120470Y-104859898D01*
X126181758Y-105007858D01*
X126213000Y-105164925D01*
X126213000Y-105325075D01*
X126181758Y-105482142D01*
X126120470Y-105630102D01*
X126031498Y-105763258D01*
X125918258Y-105876498D01*
X125785102Y-105965470D01*
X125637142Y-106026758D01*
X125480075Y-106058000D01*
X125319925Y-106058000D01*
X125162858Y-106026758D01*
X125014898Y-105965470D01*
X124881742Y-105876498D01*
X124768502Y-105763258D01*
X124679530Y-105630102D01*
X124618242Y-105482142D01*
X124587000Y-105325075D01*
X124587000Y-105164925D01*
X124618242Y-105007858D01*
X124679530Y-104859898D01*
X124768502Y-104726742D01*
X124881742Y-104613502D01*
X125014898Y-104524530D01*
X125162858Y-104463242D01*
X125319925Y-104432000D01*
X125480075Y-104432000D01*
X125637142Y-104463242D01*
X125637142Y-104463242D01*
G37*
G36*
X130717142Y-104463242D02*
X130865102Y-104524530D01*
X130998258Y-104613502D01*
X131111498Y-104726742D01*
X131200470Y-104859898D01*
X131261758Y-105007858D01*
X131293000Y-105164925D01*
X131293000Y-105325075D01*
X131261758Y-105482142D01*
X131200470Y-105630102D01*
X131111498Y-105763258D01*
X130998258Y-105876498D01*
X130865102Y-105965470D01*
X130717142Y-106026758D01*
X130560075Y-106058000D01*
X130399925Y-106058000D01*
X130242858Y-106026758D01*
X130094898Y-105965470D01*
X129961742Y-105876498D01*
X129848502Y-105763258D01*
X129759530Y-105630102D01*
X129698242Y-105482142D01*
X129667000Y-105325075D01*
X129667000Y-105164925D01*
X129698242Y-105007858D01*
X129759530Y-104859898D01*
X129848502Y-104726742D01*
X129961742Y-104613502D01*
X130094898Y-104524530D01*
X130242858Y-104463242D01*
X130399925Y-104432000D01*
X130560075Y-104432000D01*
X130717142Y-104463242D01*
X130717142Y-104463242D01*
G37*
G36*
X135797142Y-104463242D02*
X135945102Y-104524530D01*
X136078258Y-104613502D01*
X136191498Y-104726742D01*
X136280470Y-104859898D01*
X136341758Y-105007858D01*
X136373000Y-105164925D01*
X136373000Y-105325075D01*
X136341758Y-105482142D01*
X136280470Y-105630102D01*
X136191498Y-105763258D01*
X136078258Y-105876498D01*
X135945102Y-105965470D01*
X135797142Y-106026758D01*
X135640075Y-106058000D01*
X135479925Y-106058000D01*
X135322858Y-106026758D01*
X135174898Y-105965470D01*
X135041742Y-105876498D01*
X134928502Y-105763258D01*
X134839530Y-105630102D01*
X134778242Y-105482142D01*
X134747000Y-105325075D01*
X134747000Y-105164925D01*
X134778242Y-105007858D01*
X134839530Y-104859898D01*
X134928502Y-104726742D01*
X135041742Y-104613502D01*
X135174898Y-104524530D01*
X135322858Y-104463242D01*
X135479925Y-104432000D01*
X135640075Y-104432000D01*
X135797142Y-104463242D01*
X135797142Y-104463242D01*
G37*
G36*
X143417142Y-104463242D02*
X143565102Y-104524530D01*
X143698258Y-104613502D01*
X143811498Y-104726742D01*
X143900470Y-104859898D01*
X143961758Y-105007858D01*
X143993000Y-105164925D01*
X143993000Y-105325075D01*
X143961758Y-105482142D01*
X143900470Y-105630102D01*
X143811498Y-105763258D01*
X143698258Y-105876498D01*
X143565102Y-105965470D01*
X143417142Y-106026758D01*
X143260075Y-106058000D01*
X143099925Y-106058000D01*
X142942858Y-106026758D01*
X142794898Y-105965470D01*
X142661742Y-105876498D01*
X142548502Y-105763258D01*
X142459530Y-105630102D01*
X142398242Y-105482142D01*
X142367000Y-105325075D01*
X142367000Y-105164925D01*
X142398242Y-105007858D01*
X142459530Y-104859898D01*
X142548502Y-104726742D01*
X142661742Y-104613502D01*
X142794898Y-104524530D01*
X142942858Y-104463242D01*
X143099925Y-104432000D01*
X143260075Y-104432000D01*
X143417142Y-104463242D01*
X143417142Y-104463242D01*
G37*
G36*
X143417142Y-94303242D02*
X143565102Y-94364530D01*
X143698258Y-94453502D01*
X143811498Y-94566742D01*
X143900470Y-94699898D01*
X143961758Y-94847858D01*
X143993000Y-95004925D01*
X143993000Y-95165075D01*
X143961758Y-95322142D01*
X143900470Y-95470102D01*
X143811498Y-95603258D01*
X143698258Y-95716498D01*
X143565102Y-95805470D01*
X143417142Y-95866758D01*
X143260075Y-95898000D01*
X143099925Y-95898000D01*
X142942858Y-95866758D01*
X142794898Y-95805470D01*
X142661742Y-95716498D01*
X142548502Y-95603258D01*
X142459530Y-95470102D01*
X142398242Y-95322142D01*
X142367000Y-95165075D01*
X142367000Y-95004925D01*
X142398242Y-94847858D01*
X142459530Y-94699898D01*
X142548502Y-94566742D01*
X142661742Y-94453502D01*
X142794898Y-94364530D01*
X142942858Y-94303242D01*
X143099925Y-94272000D01*
X143260075Y-94272000D01*
X143417142Y-94303242D01*
X143417142Y-94303242D01*
G37*
G36*
X138337142Y-94303242D02*
X138485102Y-94364530D01*
X138618258Y-94453502D01*
X138731498Y-94566742D01*
X138820470Y-94699898D01*
X138881758Y-94847858D01*
X138913000Y-95004925D01*
X138913000Y-95165075D01*
X138881758Y-95322142D01*
X138820470Y-95470102D01*
X138731498Y-95603258D01*
X138618258Y-95716498D01*
X138485102Y-95805470D01*
X138337142Y-95866758D01*
X138180075Y-95898000D01*
X138019925Y-95898000D01*
X137862858Y-95866758D01*
X137714898Y-95805470D01*
X137581742Y-95716498D01*
X137468502Y-95603258D01*
X137379530Y-95470102D01*
X137318242Y-95322142D01*
X137287000Y-95165075D01*
X137287000Y-95004925D01*
X137318242Y-94847858D01*
X137379530Y-94699898D01*
X137468502Y-94566742D01*
X137581742Y-94453502D01*
X137714898Y-94364530D01*
X137862858Y-94303242D01*
X138019925Y-94272000D01*
X138180075Y-94272000D01*
X138337142Y-94303242D01*
X138337142Y-94303242D01*
G37*
G36*
X125637142Y-94303242D02*
X125785102Y-94364530D01*
X125918258Y-94453502D01*
X126031498Y-94566742D01*
X126120470Y-94699898D01*
X126181758Y-94847858D01*
X126213000Y-95004925D01*
X126213000Y-95165075D01*
X126181758Y-95322142D01*
X126120470Y-95470102D01*
X126031498Y-95603258D01*
X125918258Y-95716498D01*
X125785102Y-95805470D01*
X125637142Y-95866758D01*
X125480075Y-95898000D01*
X125319925Y-95898000D01*
X125162858Y-95866758D01*
X125014898Y-95805470D01*
X124881742Y-95716498D01*
X124768502Y-95603258D01*
X124679530Y-95470102D01*
X124618242Y-95322142D01*
X124587000Y-95165075D01*
X124587000Y-95004925D01*
X124618242Y-94847858D01*
X124679530Y-94699898D01*
X124768502Y-94566742D01*
X124881742Y-94453502D01*
X125014898Y-94364530D01*
X125162858Y-94303242D01*
X125319925Y-94272000D01*
X125480075Y-94272000D01*
X125637142Y-94303242D01*
X125637142Y-94303242D01*
G37*
G36*
X130717142Y-94303242D02*
X130865102Y-94364530D01*
X130998258Y-94453502D01*
X131111498Y-94566742D01*
X131200470Y-94699898D01*
X131261758Y-94847858D01*
X131293000Y-95004925D01*
X131293000Y-95165075D01*
X131261758Y-95322142D01*
X131200470Y-95470102D01*
X131111498Y-95603258D01*
X130998258Y-95716498D01*
X130865102Y-95805470D01*
X130717142Y-95866758D01*
X130560075Y-95898000D01*
X130399925Y-95898000D01*
X130242858Y-95866758D01*
X130094898Y-95805470D01*
X129961742Y-95716498D01*
X129848502Y-95603258D01*
X129759530Y-95470102D01*
X129698242Y-95322142D01*
X129667000Y-95165075D01*
X129667000Y-95004925D01*
X129698242Y-94847858D01*
X129759530Y-94699898D01*
X129848502Y-94566742D01*
X129961742Y-94453502D01*
X130094898Y-94364530D01*
X130242858Y-94303242D01*
X130399925Y-94272000D01*
X130560075Y-94272000D01*
X130717142Y-94303242D01*
X130717142Y-94303242D01*
G37*
G36*
X133257142Y-94303242D02*
X133405102Y-94364530D01*
X133538258Y-94453502D01*
X133651498Y-94566742D01*
X133740470Y-94699898D01*
X133801758Y-94847858D01*
X133833000Y-95004925D01*
X133833000Y-95165075D01*
X133801758Y-95322142D01*
X133740470Y-95470102D01*
X133651498Y-95603258D01*
X133538258Y-95716498D01*
X133405102Y-95805470D01*
X133257142Y-95866758D01*
X133100075Y-95898000D01*
X132939925Y-95898000D01*
X132782858Y-95866758D01*
X132634898Y-95805470D01*
X132501742Y-95716498D01*
X132388502Y-95603258D01*
X132299530Y-95470102D01*
X132238242Y-95322142D01*
X132207000Y-95165075D01*
X132207000Y-95004925D01*
X132238242Y-94847858D01*
X132299530Y-94699898D01*
X132388502Y-94566742D01*
X132501742Y-94453502D01*
X132634898Y-94364530D01*
X132782858Y-94303242D01*
X132939925Y-94272000D01*
X133100075Y-94272000D01*
X133257142Y-94303242D01*
X133257142Y-94303242D01*
G37*
G36*
X145957142Y-94303242D02*
X146105102Y-94364530D01*
X146238258Y-94453502D01*
X146351498Y-94566742D01*
X146440470Y-94699898D01*
X146501758Y-94847858D01*
X146533000Y-95004925D01*
X146533000Y-95165075D01*
X146501758Y-95322142D01*
X146440470Y-95470102D01*
X146351498Y-95603258D01*
X146238258Y-95716498D01*
X146105102Y-95805470D01*
X145957142Y-95866758D01*
X145800075Y-95898000D01*
X145639925Y-95898000D01*
X145482858Y-95866758D01*
X145334898Y-95805470D01*
X145201742Y-95716498D01*
X145088502Y-95603258D01*
X144999530Y-95470102D01*
X144938242Y-95322142D01*
X144907000Y-95165075D01*
X144907000Y-95004925D01*
X144938242Y-94847858D01*
X144999530Y-94699898D01*
X145088502Y-94566742D01*
X145201742Y-94453502D01*
X145334898Y-94364530D01*
X145482858Y-94303242D01*
X145639925Y-94272000D01*
X145800075Y-94272000D01*
X145957142Y-94303242D01*
X145957142Y-94303242D01*
G37*
G36*
X151037142Y-94303242D02*
X151185102Y-94364530D01*
X151318258Y-94453502D01*
X151431498Y-94566742D01*
X151520470Y-94699898D01*
X151581758Y-94847858D01*
X151613000Y-95004925D01*
X151613000Y-95165075D01*
X151581758Y-95322142D01*
X151520470Y-95470102D01*
X151431498Y-95603258D01*
X151318258Y-95716498D01*
X151185102Y-95805470D01*
X151037142Y-95866758D01*
X150880075Y-95898000D01*
X150719925Y-95898000D01*
X150562858Y-95866758D01*
X150414898Y-95805470D01*
X150281742Y-95716498D01*
X150168502Y-95603258D01*
X150079530Y-95470102D01*
X150018242Y-95322142D01*
X149987000Y-95165075D01*
X149987000Y-95004925D01*
X150018242Y-94847858D01*
X150079530Y-94699898D01*
X150168502Y-94566742D01*
X150281742Y-94453502D01*
X150414898Y-94364530D01*
X150562858Y-94303242D01*
X150719925Y-94272000D01*
X150880075Y-94272000D01*
X151037142Y-94303242D01*
X151037142Y-94303242D01*
G37*
G36*
X148497142Y-94303242D02*
X148645102Y-94364530D01*
X148778258Y-94453502D01*
X148891498Y-94566742D01*
X148980470Y-94699898D01*
X149041758Y-94847858D01*
X149073000Y-95004925D01*
X149073000Y-95165075D01*
X149041758Y-95322142D01*
X148980470Y-95470102D01*
X148891498Y-95603258D01*
X148778258Y-95716498D01*
X148645102Y-95805470D01*
X148497142Y-95866758D01*
X148340075Y-95898000D01*
X148179925Y-95898000D01*
X148022858Y-95866758D01*
X147874898Y-95805470D01*
X147741742Y-95716498D01*
X147628502Y-95603258D01*
X147539530Y-95470102D01*
X147478242Y-95322142D01*
X147447000Y-95165075D01*
X147447000Y-95004925D01*
X147478242Y-94847858D01*
X147539530Y-94699898D01*
X147628502Y-94566742D01*
X147741742Y-94453502D01*
X147874898Y-94364530D01*
X148022858Y-94303242D01*
X148179925Y-94272000D01*
X148340075Y-94272000D01*
X148497142Y-94303242D01*
X148497142Y-94303242D01*
G37*
G36*
X140877142Y-94303242D02*
X141025102Y-94364530D01*
X141158258Y-94453502D01*
X141271498Y-94566742D01*
X141360470Y-94699898D01*
X141421758Y-94847858D01*
X141453000Y-95004925D01*
X141453000Y-95165075D01*
X141421758Y-95322142D01*
X141360470Y-95470102D01*
X141271498Y-95603258D01*
X141158258Y-95716498D01*
X141025102Y-95805470D01*
X140877142Y-95866758D01*
X140720075Y-95898000D01*
X140559925Y-95898000D01*
X140402858Y-95866758D01*
X140254898Y-95805470D01*
X140121742Y-95716498D01*
X140008502Y-95603258D01*
X139919530Y-95470102D01*
X139858242Y-95322142D01*
X139827000Y-95165075D01*
X139827000Y-95004925D01*
X139858242Y-94847858D01*
X139919530Y-94699898D01*
X140008502Y-94566742D01*
X140121742Y-94453502D01*
X140254898Y-94364530D01*
X140402858Y-94303242D01*
X140559925Y-94272000D01*
X140720075Y-94272000D01*
X140877142Y-94303242D01*
X140877142Y-94303242D01*
G37*
G36*
X125637142Y-89858242D02*
X125785102Y-89919530D01*
X125918258Y-90008502D01*
X126031498Y-90121742D01*
X126120470Y-90254898D01*
X126181758Y-90402858D01*
X126213000Y-90559925D01*
X126213000Y-90720075D01*
X126181758Y-90877142D01*
X126120470Y-91025102D01*
X126031498Y-91158258D01*
X125918258Y-91271498D01*
X125785102Y-91360470D01*
X125637142Y-91421758D01*
X125480075Y-91453000D01*
X125319925Y-91453000D01*
X125162858Y-91421758D01*
X125014898Y-91360470D01*
X124881742Y-91271498D01*
X124768502Y-91158258D01*
X124679530Y-91025102D01*
X124618242Y-90877142D01*
X124587000Y-90720075D01*
X124587000Y-90559925D01*
X124618242Y-90402858D01*
X124679530Y-90254898D01*
X124768502Y-90121742D01*
X124881742Y-90008502D01*
X125014898Y-89919530D01*
X125162858Y-89858242D01*
X125319925Y-89827000D01*
X125480075Y-89827000D01*
X125637142Y-89858242D01*
X125637142Y-89858242D01*
G37*
G36*
X135797142Y-89858242D02*
X135945102Y-89919530D01*
X136078258Y-90008502D01*
X136191498Y-90121742D01*
X136280470Y-90254898D01*
X136341758Y-90402858D01*
X136373000Y-90559925D01*
X136373000Y-90720075D01*
X136341758Y-90877142D01*
X136280470Y-91025102D01*
X136191498Y-91158258D01*
X136078258Y-91271498D01*
X135945102Y-91360470D01*
X135797142Y-91421758D01*
X135640075Y-91453000D01*
X135479925Y-91453000D01*
X135322858Y-91421758D01*
X135174898Y-91360470D01*
X135041742Y-91271498D01*
X134928502Y-91158258D01*
X134839530Y-91025102D01*
X134778242Y-90877142D01*
X134747000Y-90720075D01*
X134747000Y-90559925D01*
X134778242Y-90402858D01*
X134839530Y-90254898D01*
X134928502Y-90121742D01*
X135041742Y-90008502D01*
X135174898Y-89919530D01*
X135322858Y-89858242D01*
X135479925Y-89827000D01*
X135640075Y-89827000D01*
X135797142Y-89858242D01*
X135797142Y-89858242D01*
G37*
G36*
X143417142Y-89858242D02*
X143565102Y-89919530D01*
X143698258Y-90008502D01*
X143811498Y-90121742D01*
X143900470Y-90254898D01*
X143961758Y-90402858D01*
X143993000Y-90559925D01*
X143993000Y-90720075D01*
X143961758Y-90877142D01*
X143900470Y-91025102D01*
X143811498Y-91158258D01*
X143698258Y-91271498D01*
X143565102Y-91360470D01*
X143417142Y-91421758D01*
X143260075Y-91453000D01*
X143099925Y-91453000D01*
X142942858Y-91421758D01*
X142794898Y-91360470D01*
X142661742Y-91271498D01*
X142548502Y-91158258D01*
X142459530Y-91025102D01*
X142398242Y-90877142D01*
X142367000Y-90720075D01*
X142367000Y-90559925D01*
X142398242Y-90402858D01*
X142459530Y-90254898D01*
X142548502Y-90121742D01*
X142661742Y-90008502D01*
X142794898Y-89919530D01*
X142942858Y-89858242D01*
X143099925Y-89827000D01*
X143260075Y-89827000D01*
X143417142Y-89858242D01*
X143417142Y-89858242D01*
G37*
G36*
X133257142Y-89858242D02*
X133405102Y-89919530D01*
X133538258Y-90008502D01*
X133651498Y-90121742D01*
X133740470Y-90254898D01*
X133801758Y-90402858D01*
X133833000Y-90559925D01*
X133833000Y-90720075D01*
X133801758Y-90877142D01*
X133740470Y-91025102D01*
X133651498Y-91158258D01*
X133538258Y-91271498D01*
X133405102Y-91360470D01*
X133257142Y-91421758D01*
X133100075Y-91453000D01*
X132939925Y-91453000D01*
X132782858Y-91421758D01*
X132634898Y-91360470D01*
X132501742Y-91271498D01*
X132388502Y-91158258D01*
X132299530Y-91025102D01*
X132238242Y-90877142D01*
X132207000Y-90720075D01*
X132207000Y-90559925D01*
X132238242Y-90402858D01*
X132299530Y-90254898D01*
X132388502Y-90121742D01*
X132501742Y-90008502D01*
X132634898Y-89919530D01*
X132782858Y-89858242D01*
X132939925Y-89827000D01*
X133100075Y-89827000D01*
X133257142Y-89858242D01*
X133257142Y-89858242D01*
G37*
G36*
X130717142Y-89858242D02*
X130865102Y-89919530D01*
X130998258Y-90008502D01*
X131111498Y-90121742D01*
X131200470Y-90254898D01*
X131261758Y-90402858D01*
X131293000Y-90559925D01*
X131293000Y-90720075D01*
X131261758Y-90877142D01*
X131200470Y-91025102D01*
X131111498Y-91158258D01*
X130998258Y-91271498D01*
X130865102Y-91360470D01*
X130717142Y-91421758D01*
X130560075Y-91453000D01*
X130399925Y-91453000D01*
X130242858Y-91421758D01*
X130094898Y-91360470D01*
X129961742Y-91271498D01*
X129848502Y-91158258D01*
X129759530Y-91025102D01*
X129698242Y-90877142D01*
X129667000Y-90720075D01*
X129667000Y-90559925D01*
X129698242Y-90402858D01*
X129759530Y-90254898D01*
X129848502Y-90121742D01*
X129961742Y-90008502D01*
X130094898Y-89919530D01*
X130242858Y-89858242D01*
X130399925Y-89827000D01*
X130560075Y-89827000D01*
X130717142Y-89858242D01*
X130717142Y-89858242D01*
G37*
G36*
X148497142Y-79698242D02*
X148645102Y-79759530D01*
X148778258Y-79848502D01*
X148891498Y-79961742D01*
X148980470Y-80094898D01*
X149041758Y-80242858D01*
X149073000Y-80399925D01*
X149073000Y-80560075D01*
X149041758Y-80717142D01*
X148980470Y-80865102D01*
X148891498Y-80998258D01*
X148778258Y-81111498D01*
X148645102Y-81200470D01*
X148497142Y-81261758D01*
X148340075Y-81293000D01*
X148179925Y-81293000D01*
X148022858Y-81261758D01*
X147874898Y-81200470D01*
X147741742Y-81111498D01*
X147628502Y-80998258D01*
X147539530Y-80865102D01*
X147478242Y-80717142D01*
X147447000Y-80560075D01*
X147447000Y-80399925D01*
X147478242Y-80242858D01*
X147539530Y-80094898D01*
X147628502Y-79961742D01*
X147741742Y-79848502D01*
X147874898Y-79759530D01*
X148022858Y-79698242D01*
X148179925Y-79667000D01*
X148340075Y-79667000D01*
X148497142Y-79698242D01*
X148497142Y-79698242D01*
G37*
G36*
X125637142Y-79698242D02*
X125785102Y-79759530D01*
X125918258Y-79848502D01*
X126031498Y-79961742D01*
X126120470Y-80094898D01*
X126181758Y-80242858D01*
X126213000Y-80399925D01*
X126213000Y-80560075D01*
X126181758Y-80717142D01*
X126120470Y-80865102D01*
X126031498Y-80998258D01*
X125918258Y-81111498D01*
X125785102Y-81200470D01*
X125637142Y-81261758D01*
X125480075Y-81293000D01*
X125319925Y-81293000D01*
X125162858Y-81261758D01*
X125014898Y-81200470D01*
X124881742Y-81111498D01*
X124768502Y-80998258D01*
X124679530Y-80865102D01*
X124618242Y-80717142D01*
X124587000Y-80560075D01*
X124587000Y-80399925D01*
X124618242Y-80242858D01*
X124679530Y-80094898D01*
X124768502Y-79961742D01*
X124881742Y-79848502D01*
X125014898Y-79759530D01*
X125162858Y-79698242D01*
X125319925Y-79667000D01*
X125480075Y-79667000D01*
X125637142Y-79698242D01*
X125637142Y-79698242D01*
G37*
G36*
X151037142Y-79698242D02*
X151185102Y-79759530D01*
X151318258Y-79848502D01*
X151431498Y-79961742D01*
X151520470Y-80094898D01*
X151581758Y-80242858D01*
X151613000Y-80399925D01*
X151613000Y-80560075D01*
X151581758Y-80717142D01*
X151520470Y-80865102D01*
X151431498Y-80998258D01*
X151318258Y-81111498D01*
X151185102Y-81200470D01*
X151037142Y-81261758D01*
X150880075Y-81293000D01*
X150719925Y-81293000D01*
X150562858Y-81261758D01*
X150414898Y-81200470D01*
X150281742Y-81111498D01*
X150168502Y-80998258D01*
X150079530Y-80865102D01*
X150018242Y-80717142D01*
X149987000Y-80560075D01*
X149987000Y-80399925D01*
X150018242Y-80242858D01*
X150079530Y-80094898D01*
X150168502Y-79961742D01*
X150281742Y-79848502D01*
X150414898Y-79759530D01*
X150562858Y-79698242D01*
X150719925Y-79667000D01*
X150880075Y-79667000D01*
X151037142Y-79698242D01*
X151037142Y-79698242D01*
G37*
G36*
X145957142Y-79698242D02*
X146105102Y-79759530D01*
X146238258Y-79848502D01*
X146351498Y-79961742D01*
X146440470Y-80094898D01*
X146501758Y-80242858D01*
X146533000Y-80399925D01*
X146533000Y-80560075D01*
X146501758Y-80717142D01*
X146440470Y-80865102D01*
X146351498Y-80998258D01*
X146238258Y-81111498D01*
X146105102Y-81200470D01*
X145957142Y-81261758D01*
X145800075Y-81293000D01*
X145639925Y-81293000D01*
X145482858Y-81261758D01*
X145334898Y-81200470D01*
X145201742Y-81111498D01*
X145088502Y-80998258D01*
X144999530Y-80865102D01*
X144938242Y-80717142D01*
X144907000Y-80560075D01*
X144907000Y-80399925D01*
X144938242Y-80242858D01*
X144999530Y-80094898D01*
X145088502Y-79961742D01*
X145201742Y-79848502D01*
X145334898Y-79759530D01*
X145482858Y-79698242D01*
X145639925Y-79667000D01*
X145800075Y-79667000D01*
X145957142Y-79698242D01*
X145957142Y-79698242D01*
G37*
G36*
X140877142Y-79698242D02*
X141025102Y-79759530D01*
X141158258Y-79848502D01*
X141271498Y-79961742D01*
X141360470Y-80094898D01*
X141421758Y-80242858D01*
X141453000Y-80399925D01*
X141453000Y-80560075D01*
X141421758Y-80717142D01*
X141360470Y-80865102D01*
X141271498Y-80998258D01*
X141158258Y-81111498D01*
X141025102Y-81200470D01*
X140877142Y-81261758D01*
X140720075Y-81293000D01*
X140559925Y-81293000D01*
X140402858Y-81261758D01*
X140254898Y-81200470D01*
X140121742Y-81111498D01*
X140008502Y-80998258D01*
X139919530Y-80865102D01*
X139858242Y-80717142D01*
X139827000Y-80560075D01*
X139827000Y-80399925D01*
X139858242Y-80242858D01*
X139919530Y-80094898D01*
X140008502Y-79961742D01*
X140121742Y-79848502D01*
X140254898Y-79759530D01*
X140402858Y-79698242D01*
X140559925Y-79667000D01*
X140720075Y-79667000D01*
X140877142Y-79698242D01*
X140877142Y-79698242D01*
G37*
G36*
X138337142Y-79698242D02*
X138485102Y-79759530D01*
X138618258Y-79848502D01*
X138731498Y-79961742D01*
X138820470Y-80094898D01*
X138881758Y-80242858D01*
X138913000Y-80399925D01*
X138913000Y-80560075D01*
X138881758Y-80717142D01*
X138820470Y-80865102D01*
X138731498Y-80998258D01*
X138618258Y-81111498D01*
X138485102Y-81200470D01*
X138337142Y-81261758D01*
X138180075Y-81293000D01*
X138019925Y-81293000D01*
X137862858Y-81261758D01*
X137714898Y-81200470D01*
X137581742Y-81111498D01*
X137468502Y-80998258D01*
X137379530Y-80865102D01*
X137318242Y-80717142D01*
X137287000Y-80560075D01*
X137287000Y-80399925D01*
X137318242Y-80242858D01*
X137379530Y-80094898D01*
X137468502Y-79961742D01*
X137581742Y-79848502D01*
X137714898Y-79759530D01*
X137862858Y-79698242D01*
X138019925Y-79667000D01*
X138180075Y-79667000D01*
X138337142Y-79698242D01*
X138337142Y-79698242D01*
G37*
G36*
X133257142Y-79698242D02*
X133405102Y-79759530D01*
X133538258Y-79848502D01*
X133651498Y-79961742D01*
X133740470Y-80094898D01*
X133801758Y-80242858D01*
X133833000Y-80399925D01*
X133833000Y-80560075D01*
X133801758Y-80717142D01*
X133740470Y-80865102D01*
X133651498Y-80998258D01*
X133538258Y-81111498D01*
X133405102Y-81200470D01*
X133257142Y-81261758D01*
X133100075Y-81293000D01*
X132939925Y-81293000D01*
X132782858Y-81261758D01*
X132634898Y-81200470D01*
X132501742Y-81111498D01*
X132388502Y-80998258D01*
X132299530Y-80865102D01*
X132238242Y-80717142D01*
X132207000Y-80560075D01*
X132207000Y-80399925D01*
X132238242Y-80242858D01*
X132299530Y-80094898D01*
X132388502Y-79961742D01*
X132501742Y-79848502D01*
X132634898Y-79759530D01*
X132782858Y-79698242D01*
X132939925Y-79667000D01*
X133100075Y-79667000D01*
X133257142Y-79698242D01*
X133257142Y-79698242D01*
G37*
G36*
X130717142Y-79698242D02*
X130865102Y-79759530D01*
X130998258Y-79848502D01*
X131111498Y-79961742D01*
X131200470Y-80094898D01*
X131261758Y-80242858D01*
X131293000Y-80399925D01*
X131293000Y-80560075D01*
X131261758Y-80717142D01*
X131200470Y-80865102D01*
X131111498Y-80998258D01*
X130998258Y-81111498D01*
X130865102Y-81200470D01*
X130717142Y-81261758D01*
X130560075Y-81293000D01*
X130399925Y-81293000D01*
X130242858Y-81261758D01*
X130094898Y-81200470D01*
X129961742Y-81111498D01*
X129848502Y-80998258D01*
X129759530Y-80865102D01*
X129698242Y-80717142D01*
X129667000Y-80560075D01*
X129667000Y-80399925D01*
X129698242Y-80242858D01*
X129759530Y-80094898D01*
X129848502Y-79961742D01*
X129961742Y-79848502D01*
X130094898Y-79759530D01*
X130242858Y-79698242D01*
X130399925Y-79667000D01*
X130560075Y-79667000D01*
X130717142Y-79698242D01*
X130717142Y-79698242D01*
G37*
G36*
X143417142Y-79698242D02*
X143565102Y-79759530D01*
X143698258Y-79848502D01*
X143811498Y-79961742D01*
X143900470Y-80094898D01*
X143961758Y-80242858D01*
X143993000Y-80399925D01*
X143993000Y-80560075D01*
X143961758Y-80717142D01*
X143900470Y-80865102D01*
X143811498Y-80998258D01*
X143698258Y-81111498D01*
X143565102Y-81200470D01*
X143417142Y-81261758D01*
X143260075Y-81293000D01*
X143099925Y-81293000D01*
X142942858Y-81261758D01*
X142794898Y-81200470D01*
X142661742Y-81111498D01*
X142548502Y-80998258D01*
X142459530Y-80865102D01*
X142398242Y-80717142D01*
X142367000Y-80560075D01*
X142367000Y-80399925D01*
X142398242Y-80242858D01*
X142459530Y-80094898D01*
X142548502Y-79961742D01*
X142661742Y-79848502D01*
X142794898Y-79759530D01*
X142942858Y-79698242D01*
X143099925Y-79667000D01*
X143260075Y-79667000D01*
X143417142Y-79698242D01*
X143417142Y-79698242D01*
G37*
G36*
X143417142Y-75253242D02*
X143565102Y-75314530D01*
X143698258Y-75403502D01*
X143811498Y-75516742D01*
X143900470Y-75649898D01*
X143961758Y-75797858D01*
X143993000Y-75954925D01*
X143993000Y-76115075D01*
X143961758Y-76272142D01*
X143900470Y-76420102D01*
X143811498Y-76553258D01*
X143698258Y-76666498D01*
X143565102Y-76755470D01*
X143417142Y-76816758D01*
X143260075Y-76848000D01*
X143099925Y-76848000D01*
X142942858Y-76816758D01*
X142794898Y-76755470D01*
X142661742Y-76666498D01*
X142548502Y-76553258D01*
X142459530Y-76420102D01*
X142398242Y-76272142D01*
X142367000Y-76115075D01*
X142367000Y-75954925D01*
X142398242Y-75797858D01*
X142459530Y-75649898D01*
X142548502Y-75516742D01*
X142661742Y-75403502D01*
X142794898Y-75314530D01*
X142942858Y-75253242D01*
X143099925Y-75222000D01*
X143260075Y-75222000D01*
X143417142Y-75253242D01*
X143417142Y-75253242D01*
G37*
G36*
X130717142Y-75253242D02*
X130865102Y-75314530D01*
X130998258Y-75403502D01*
X131111498Y-75516742D01*
X131200470Y-75649898D01*
X131261758Y-75797858D01*
X131293000Y-75954925D01*
X131293000Y-76115075D01*
X131261758Y-76272142D01*
X131200470Y-76420102D01*
X131111498Y-76553258D01*
X130998258Y-76666498D01*
X130865102Y-76755470D01*
X130717142Y-76816758D01*
X130560075Y-76848000D01*
X130399925Y-76848000D01*
X130242858Y-76816758D01*
X130094898Y-76755470D01*
X129961742Y-76666498D01*
X129848502Y-76553258D01*
X129759530Y-76420102D01*
X129698242Y-76272142D01*
X129667000Y-76115075D01*
X129667000Y-75954925D01*
X129698242Y-75797858D01*
X129759530Y-75649898D01*
X129848502Y-75516742D01*
X129961742Y-75403502D01*
X130094898Y-75314530D01*
X130242858Y-75253242D01*
X130399925Y-75222000D01*
X130560075Y-75222000D01*
X130717142Y-75253242D01*
X130717142Y-75253242D01*
G37*
G36*
X133257142Y-75253242D02*
X133405102Y-75314530D01*
X133538258Y-75403502D01*
X133651498Y-75516742D01*
X133740470Y-75649898D01*
X133801758Y-75797858D01*
X133833000Y-75954925D01*
X133833000Y-76115075D01*
X133801758Y-76272142D01*
X133740470Y-76420102D01*
X133651498Y-76553258D01*
X133538258Y-76666498D01*
X133405102Y-76755470D01*
X133257142Y-76816758D01*
X133100075Y-76848000D01*
X132939925Y-76848000D01*
X132782858Y-76816758D01*
X132634898Y-76755470D01*
X132501742Y-76666498D01*
X132388502Y-76553258D01*
X132299530Y-76420102D01*
X132238242Y-76272142D01*
X132207000Y-76115075D01*
X132207000Y-75954925D01*
X132238242Y-75797858D01*
X132299530Y-75649898D01*
X132388502Y-75516742D01*
X132501742Y-75403502D01*
X132634898Y-75314530D01*
X132782858Y-75253242D01*
X132939925Y-75222000D01*
X133100075Y-75222000D01*
X133257142Y-75253242D01*
X133257142Y-75253242D01*
G37*
G36*
X135797142Y-75253242D02*
X135945102Y-75314530D01*
X136078258Y-75403502D01*
X136191498Y-75516742D01*
X136280470Y-75649898D01*
X136341758Y-75797858D01*
X136373000Y-75954925D01*
X136373000Y-76115075D01*
X136341758Y-76272142D01*
X136280470Y-76420102D01*
X136191498Y-76553258D01*
X136078258Y-76666498D01*
X135945102Y-76755470D01*
X135797142Y-76816758D01*
X135640075Y-76848000D01*
X135479925Y-76848000D01*
X135322858Y-76816758D01*
X135174898Y-76755470D01*
X135041742Y-76666498D01*
X134928502Y-76553258D01*
X134839530Y-76420102D01*
X134778242Y-76272142D01*
X134747000Y-76115075D01*
X134747000Y-75954925D01*
X134778242Y-75797858D01*
X134839530Y-75649898D01*
X134928502Y-75516742D01*
X135041742Y-75403502D01*
X135174898Y-75314530D01*
X135322858Y-75253242D01*
X135479925Y-75222000D01*
X135640075Y-75222000D01*
X135797142Y-75253242D01*
X135797142Y-75253242D01*
G37*
G36*
X125637142Y-75253242D02*
X125785102Y-75314530D01*
X125918258Y-75403502D01*
X126031498Y-75516742D01*
X126120470Y-75649898D01*
X126181758Y-75797858D01*
X126213000Y-75954925D01*
X126213000Y-76115075D01*
X126181758Y-76272142D01*
X126120470Y-76420102D01*
X126031498Y-76553258D01*
X125918258Y-76666498D01*
X125785102Y-76755470D01*
X125637142Y-76816758D01*
X125480075Y-76848000D01*
X125319925Y-76848000D01*
X125162858Y-76816758D01*
X125014898Y-76755470D01*
X124881742Y-76666498D01*
X124768502Y-76553258D01*
X124679530Y-76420102D01*
X124618242Y-76272142D01*
X124587000Y-76115075D01*
X124587000Y-75954925D01*
X124618242Y-75797858D01*
X124679530Y-75649898D01*
X124768502Y-75516742D01*
X124881742Y-75403502D01*
X125014898Y-75314530D01*
X125162858Y-75253242D01*
X125319925Y-75222000D01*
X125480075Y-75222000D01*
X125637142Y-75253242D01*
X125637142Y-75253242D01*
G37*
G36*
X151037142Y-65093242D02*
X151185102Y-65154530D01*
X151318258Y-65243502D01*
X151431498Y-65356742D01*
X151520470Y-65489898D01*
X151581758Y-65637858D01*
X151613000Y-65794925D01*
X151613000Y-65955075D01*
X151581758Y-66112142D01*
X151520470Y-66260102D01*
X151431498Y-66393258D01*
X151318258Y-66506498D01*
X151185102Y-66595470D01*
X151037142Y-66656758D01*
X150880075Y-66688000D01*
X150719925Y-66688000D01*
X150562858Y-66656758D01*
X150414898Y-66595470D01*
X150281742Y-66506498D01*
X150168502Y-66393258D01*
X150079530Y-66260102D01*
X150018242Y-66112142D01*
X149987000Y-65955075D01*
X149987000Y-65794925D01*
X150018242Y-65637858D01*
X150079530Y-65489898D01*
X150168502Y-65356742D01*
X150281742Y-65243502D01*
X150414898Y-65154530D01*
X150562858Y-65093242D01*
X150719925Y-65062000D01*
X150880075Y-65062000D01*
X151037142Y-65093242D01*
X151037142Y-65093242D01*
G37*
G36*
X143417142Y-65093242D02*
X143565102Y-65154530D01*
X143698258Y-65243502D01*
X143811498Y-65356742D01*
X143900470Y-65489898D01*
X143961758Y-65637858D01*
X143993000Y-65794925D01*
X143993000Y-65955075D01*
X143961758Y-66112142D01*
X143900470Y-66260102D01*
X143811498Y-66393258D01*
X143698258Y-66506498D01*
X143565102Y-66595470D01*
X143417142Y-66656758D01*
X143260075Y-66688000D01*
X143099925Y-66688000D01*
X142942858Y-66656758D01*
X142794898Y-66595470D01*
X142661742Y-66506498D01*
X142548502Y-66393258D01*
X142459530Y-66260102D01*
X142398242Y-66112142D01*
X142367000Y-65955075D01*
X142367000Y-65794925D01*
X142398242Y-65637858D01*
X142459530Y-65489898D01*
X142548502Y-65356742D01*
X142661742Y-65243502D01*
X142794898Y-65154530D01*
X142942858Y-65093242D01*
X143099925Y-65062000D01*
X143260075Y-65062000D01*
X143417142Y-65093242D01*
X143417142Y-65093242D01*
G37*
G36*
X125637142Y-65093242D02*
X125785102Y-65154530D01*
X125918258Y-65243502D01*
X126031498Y-65356742D01*
X126120470Y-65489898D01*
X126181758Y-65637858D01*
X126213000Y-65794925D01*
X126213000Y-65955075D01*
X126181758Y-66112142D01*
X126120470Y-66260102D01*
X126031498Y-66393258D01*
X125918258Y-66506498D01*
X125785102Y-66595470D01*
X125637142Y-66656758D01*
X125480075Y-66688000D01*
X125319925Y-66688000D01*
X125162858Y-66656758D01*
X125014898Y-66595470D01*
X124881742Y-66506498D01*
X124768502Y-66393258D01*
X124679530Y-66260102D01*
X124618242Y-66112142D01*
X124587000Y-65955075D01*
X124587000Y-65794925D01*
X124618242Y-65637858D01*
X124679530Y-65489898D01*
X124768502Y-65356742D01*
X124881742Y-65243502D01*
X125014898Y-65154530D01*
X125162858Y-65093242D01*
X125319925Y-65062000D01*
X125480075Y-65062000D01*
X125637142Y-65093242D01*
X125637142Y-65093242D01*
G37*
G36*
X130717142Y-65093242D02*
X130865102Y-65154530D01*
X130998258Y-65243502D01*
X131111498Y-65356742D01*
X131200470Y-65489898D01*
X131261758Y-65637858D01*
X131293000Y-65794925D01*
X131293000Y-65955075D01*
X131261758Y-66112142D01*
X131200470Y-66260102D01*
X131111498Y-66393258D01*
X130998258Y-66506498D01*
X130865102Y-66595470D01*
X130717142Y-66656758D01*
X130560075Y-66688000D01*
X130399925Y-66688000D01*
X130242858Y-66656758D01*
X130094898Y-66595470D01*
X129961742Y-66506498D01*
X129848502Y-66393258D01*
X129759530Y-66260102D01*
X129698242Y-66112142D01*
X129667000Y-65955075D01*
X129667000Y-65794925D01*
X129698242Y-65637858D01*
X129759530Y-65489898D01*
X129848502Y-65356742D01*
X129961742Y-65243502D01*
X130094898Y-65154530D01*
X130242858Y-65093242D01*
X130399925Y-65062000D01*
X130560075Y-65062000D01*
X130717142Y-65093242D01*
X130717142Y-65093242D01*
G37*
G36*
X133257142Y-65093242D02*
X133405102Y-65154530D01*
X133538258Y-65243502D01*
X133651498Y-65356742D01*
X133740470Y-65489898D01*
X133801758Y-65637858D01*
X133833000Y-65794925D01*
X133833000Y-65955075D01*
X133801758Y-66112142D01*
X133740470Y-66260102D01*
X133651498Y-66393258D01*
X133538258Y-66506498D01*
X133405102Y-66595470D01*
X133257142Y-66656758D01*
X133100075Y-66688000D01*
X132939925Y-66688000D01*
X132782858Y-66656758D01*
X132634898Y-66595470D01*
X132501742Y-66506498D01*
X132388502Y-66393258D01*
X132299530Y-66260102D01*
X132238242Y-66112142D01*
X132207000Y-65955075D01*
X132207000Y-65794925D01*
X132238242Y-65637858D01*
X132299530Y-65489898D01*
X132388502Y-65356742D01*
X132501742Y-65243502D01*
X132634898Y-65154530D01*
X132782858Y-65093242D01*
X132939925Y-65062000D01*
X133100075Y-65062000D01*
X133257142Y-65093242D01*
X133257142Y-65093242D01*
G37*
G36*
X138337142Y-65093242D02*
X138485102Y-65154530D01*
X138618258Y-65243502D01*
X138731498Y-65356742D01*
X138820470Y-65489898D01*
X138881758Y-65637858D01*
X138913000Y-65794925D01*
X138913000Y-65955075D01*
X138881758Y-66112142D01*
X138820470Y-66260102D01*
X138731498Y-66393258D01*
X138618258Y-66506498D01*
X138485102Y-66595470D01*
X138337142Y-66656758D01*
X138180075Y-66688000D01*
X138019925Y-66688000D01*
X137862858Y-66656758D01*
X137714898Y-66595470D01*
X137581742Y-66506498D01*
X137468502Y-66393258D01*
X137379530Y-66260102D01*
X137318242Y-66112142D01*
X137287000Y-65955075D01*
X137287000Y-65794925D01*
X137318242Y-65637858D01*
X137379530Y-65489898D01*
X137468502Y-65356742D01*
X137581742Y-65243502D01*
X137714898Y-65154530D01*
X137862858Y-65093242D01*
X138019925Y-65062000D01*
X138180075Y-65062000D01*
X138337142Y-65093242D01*
X138337142Y-65093242D01*
G37*
G36*
X140877142Y-65093242D02*
X141025102Y-65154530D01*
X141158258Y-65243502D01*
X141271498Y-65356742D01*
X141360470Y-65489898D01*
X141421758Y-65637858D01*
X141453000Y-65794925D01*
X141453000Y-65955075D01*
X141421758Y-66112142D01*
X141360470Y-66260102D01*
X141271498Y-66393258D01*
X141158258Y-66506498D01*
X141025102Y-66595470D01*
X140877142Y-66656758D01*
X140720075Y-66688000D01*
X140559925Y-66688000D01*
X140402858Y-66656758D01*
X140254898Y-66595470D01*
X140121742Y-66506498D01*
X140008502Y-66393258D01*
X139919530Y-66260102D01*
X139858242Y-66112142D01*
X139827000Y-65955075D01*
X139827000Y-65794925D01*
X139858242Y-65637858D01*
X139919530Y-65489898D01*
X140008502Y-65356742D01*
X140121742Y-65243502D01*
X140254898Y-65154530D01*
X140402858Y-65093242D01*
X140559925Y-65062000D01*
X140720075Y-65062000D01*
X140877142Y-65093242D01*
X140877142Y-65093242D01*
G37*
G36*
X145957142Y-65093242D02*
X146105102Y-65154530D01*
X146238258Y-65243502D01*
X146351498Y-65356742D01*
X146440470Y-65489898D01*
X146501758Y-65637858D01*
X146533000Y-65794925D01*
X146533000Y-65955075D01*
X146501758Y-66112142D01*
X146440470Y-66260102D01*
X146351498Y-66393258D01*
X146238258Y-66506498D01*
X146105102Y-66595470D01*
X145957142Y-66656758D01*
X145800075Y-66688000D01*
X145639925Y-66688000D01*
X145482858Y-66656758D01*
X145334898Y-66595470D01*
X145201742Y-66506498D01*
X145088502Y-66393258D01*
X144999530Y-66260102D01*
X144938242Y-66112142D01*
X144907000Y-65955075D01*
X144907000Y-65794925D01*
X144938242Y-65637858D01*
X144999530Y-65489898D01*
X145088502Y-65356742D01*
X145201742Y-65243502D01*
X145334898Y-65154530D01*
X145482858Y-65093242D01*
X145639925Y-65062000D01*
X145800075Y-65062000D01*
X145957142Y-65093242D01*
X145957142Y-65093242D01*
G37*
G36*
X148497142Y-65093242D02*
X148645102Y-65154530D01*
X148778258Y-65243502D01*
X148891498Y-65356742D01*
X148980470Y-65489898D01*
X149041758Y-65637858D01*
X149073000Y-65794925D01*
X149073000Y-65955075D01*
X149041758Y-66112142D01*
X148980470Y-66260102D01*
X148891498Y-66393258D01*
X148778258Y-66506498D01*
X148645102Y-66595470D01*
X148497142Y-66656758D01*
X148340075Y-66688000D01*
X148179925Y-66688000D01*
X148022858Y-66656758D01*
X147874898Y-66595470D01*
X147741742Y-66506498D01*
X147628502Y-66393258D01*
X147539530Y-66260102D01*
X147478242Y-66112142D01*
X147447000Y-65955075D01*
X147447000Y-65794925D01*
X147478242Y-65637858D01*
X147539530Y-65489898D01*
X147628502Y-65356742D01*
X147741742Y-65243502D01*
X147874898Y-65154530D01*
X148022858Y-65093242D01*
X148179925Y-65062000D01*
X148340075Y-65062000D01*
X148497142Y-65093242D01*
X148497142Y-65093242D01*
G37*
G36*
X125637142Y-60648242D02*
X125785102Y-60709530D01*
X125918258Y-60798502D01*
X126031498Y-60911742D01*
X126120470Y-61044898D01*
X126181758Y-61192858D01*
X126213000Y-61349925D01*
X126213000Y-61510075D01*
X126181758Y-61667142D01*
X126120470Y-61815102D01*
X126031498Y-61948258D01*
X125918258Y-62061498D01*
X125785102Y-62150470D01*
X125637142Y-62211758D01*
X125480075Y-62243000D01*
X125319925Y-62243000D01*
X125162858Y-62211758D01*
X125014898Y-62150470D01*
X124881742Y-62061498D01*
X124768502Y-61948258D01*
X124679530Y-61815102D01*
X124618242Y-61667142D01*
X124587000Y-61510075D01*
X124587000Y-61349925D01*
X124618242Y-61192858D01*
X124679530Y-61044898D01*
X124768502Y-60911742D01*
X124881742Y-60798502D01*
X125014898Y-60709530D01*
X125162858Y-60648242D01*
X125319925Y-60617000D01*
X125480075Y-60617000D01*
X125637142Y-60648242D01*
X125637142Y-60648242D01*
G37*
G36*
X130717142Y-60648242D02*
X130865102Y-60709530D01*
X130998258Y-60798502D01*
X131111498Y-60911742D01*
X131200470Y-61044898D01*
X131261758Y-61192858D01*
X131293000Y-61349925D01*
X131293000Y-61510075D01*
X131261758Y-61667142D01*
X131200470Y-61815102D01*
X131111498Y-61948258D01*
X130998258Y-62061498D01*
X130865102Y-62150470D01*
X130717142Y-62211758D01*
X130560075Y-62243000D01*
X130399925Y-62243000D01*
X130242858Y-62211758D01*
X130094898Y-62150470D01*
X129961742Y-62061498D01*
X129848502Y-61948258D01*
X129759530Y-61815102D01*
X129698242Y-61667142D01*
X129667000Y-61510075D01*
X129667000Y-61349925D01*
X129698242Y-61192858D01*
X129759530Y-61044898D01*
X129848502Y-60911742D01*
X129961742Y-60798502D01*
X130094898Y-60709530D01*
X130242858Y-60648242D01*
X130399925Y-60617000D01*
X130560075Y-60617000D01*
X130717142Y-60648242D01*
X130717142Y-60648242D01*
G37*
G36*
X135797142Y-60648242D02*
X135945102Y-60709530D01*
X136078258Y-60798502D01*
X136191498Y-60911742D01*
X136280470Y-61044898D01*
X136341758Y-61192858D01*
X136373000Y-61349925D01*
X136373000Y-61510075D01*
X136341758Y-61667142D01*
X136280470Y-61815102D01*
X136191498Y-61948258D01*
X136078258Y-62061498D01*
X135945102Y-62150470D01*
X135797142Y-62211758D01*
X135640075Y-62243000D01*
X135479925Y-62243000D01*
X135322858Y-62211758D01*
X135174898Y-62150470D01*
X135041742Y-62061498D01*
X134928502Y-61948258D01*
X134839530Y-61815102D01*
X134778242Y-61667142D01*
X134747000Y-61510075D01*
X134747000Y-61349925D01*
X134778242Y-61192858D01*
X134839530Y-61044898D01*
X134928502Y-60911742D01*
X135041742Y-60798502D01*
X135174898Y-60709530D01*
X135322858Y-60648242D01*
X135479925Y-60617000D01*
X135640075Y-60617000D01*
X135797142Y-60648242D01*
X135797142Y-60648242D01*
G37*
G36*
X143417142Y-60648242D02*
X143565102Y-60709530D01*
X143698258Y-60798502D01*
X143811498Y-60911742D01*
X143900470Y-61044898D01*
X143961758Y-61192858D01*
X143993000Y-61349925D01*
X143993000Y-61510075D01*
X143961758Y-61667142D01*
X143900470Y-61815102D01*
X143811498Y-61948258D01*
X143698258Y-62061498D01*
X143565102Y-62150470D01*
X143417142Y-62211758D01*
X143260075Y-62243000D01*
X143099925Y-62243000D01*
X142942858Y-62211758D01*
X142794898Y-62150470D01*
X142661742Y-62061498D01*
X142548502Y-61948258D01*
X142459530Y-61815102D01*
X142398242Y-61667142D01*
X142367000Y-61510075D01*
X142367000Y-61349925D01*
X142398242Y-61192858D01*
X142459530Y-61044898D01*
X142548502Y-60911742D01*
X142661742Y-60798502D01*
X142794898Y-60709530D01*
X142942858Y-60648242D01*
X143099925Y-60617000D01*
X143260075Y-60617000D01*
X143417142Y-60648242D01*
X143417142Y-60648242D01*
G37*
G36*
X133257142Y-60648242D02*
X133405102Y-60709530D01*
X133538258Y-60798502D01*
X133651498Y-60911742D01*
X133740470Y-61044898D01*
X133801758Y-61192858D01*
X133833000Y-61349925D01*
X133833000Y-61510075D01*
X133801758Y-61667142D01*
X133740470Y-61815102D01*
X133651498Y-61948258D01*
X133538258Y-62061498D01*
X133405102Y-62150470D01*
X133257142Y-62211758D01*
X133100075Y-62243000D01*
X132939925Y-62243000D01*
X132782858Y-62211758D01*
X132634898Y-62150470D01*
X132501742Y-62061498D01*
X132388502Y-61948258D01*
X132299530Y-61815102D01*
X132238242Y-61667142D01*
X132207000Y-61510075D01*
X132207000Y-61349925D01*
X132238242Y-61192858D01*
X132299530Y-61044898D01*
X132388502Y-60911742D01*
X132501742Y-60798502D01*
X132634898Y-60709530D01*
X132782858Y-60648242D01*
X132939925Y-60617000D01*
X133100075Y-60617000D01*
X133257142Y-60648242D01*
X133257142Y-60648242D01*
G37*
G36*
X151037142Y-50488242D02*
X151185102Y-50549530D01*
X151318258Y-50638502D01*
X151431498Y-50751742D01*
X151520470Y-50884898D01*
X151581758Y-51032858D01*
X151613000Y-51189925D01*
X151613000Y-51350075D01*
X151581758Y-51507142D01*
X151520470Y-51655102D01*
X151431498Y-51788258D01*
X151318258Y-51901498D01*
X151185102Y-51990470D01*
X151037142Y-52051758D01*
X150880075Y-52083000D01*
X150719925Y-52083000D01*
X150562858Y-52051758D01*
X150414898Y-51990470D01*
X150281742Y-51901498D01*
X150168502Y-51788258D01*
X150079530Y-51655102D01*
X150018242Y-51507142D01*
X149987000Y-51350075D01*
X149987000Y-51189925D01*
X150018242Y-51032858D01*
X150079530Y-50884898D01*
X150168502Y-50751742D01*
X150281742Y-50638502D01*
X150414898Y-50549530D01*
X150562858Y-50488242D01*
X150719925Y-50457000D01*
X150880075Y-50457000D01*
X151037142Y-50488242D01*
X151037142Y-50488242D01*
G37*
G36*
X148497142Y-50488242D02*
X148645102Y-50549530D01*
X148778258Y-50638502D01*
X148891498Y-50751742D01*
X148980470Y-50884898D01*
X149041758Y-51032858D01*
X149073000Y-51189925D01*
X149073000Y-51350075D01*
X149041758Y-51507142D01*
X148980470Y-51655102D01*
X148891498Y-51788258D01*
X148778258Y-51901498D01*
X148645102Y-51990470D01*
X148497142Y-52051758D01*
X148340075Y-52083000D01*
X148179925Y-52083000D01*
X148022858Y-52051758D01*
X147874898Y-51990470D01*
X147741742Y-51901498D01*
X147628502Y-51788258D01*
X147539530Y-51655102D01*
X147478242Y-51507142D01*
X147447000Y-51350075D01*
X147447000Y-51189925D01*
X147478242Y-51032858D01*
X147539530Y-50884898D01*
X147628502Y-50751742D01*
X147741742Y-50638502D01*
X147874898Y-50549530D01*
X148022858Y-50488242D01*
X148179925Y-50457000D01*
X148340075Y-50457000D01*
X148497142Y-50488242D01*
X148497142Y-50488242D01*
G37*
G36*
X145957142Y-50488242D02*
X146105102Y-50549530D01*
X146238258Y-50638502D01*
X146351498Y-50751742D01*
X146440470Y-50884898D01*
X146501758Y-51032858D01*
X146533000Y-51189925D01*
X146533000Y-51350075D01*
X146501758Y-51507142D01*
X146440470Y-51655102D01*
X146351498Y-51788258D01*
X146238258Y-51901498D01*
X146105102Y-51990470D01*
X145957142Y-52051758D01*
X145800075Y-52083000D01*
X145639925Y-52083000D01*
X145482858Y-52051758D01*
X145334898Y-51990470D01*
X145201742Y-51901498D01*
X145088502Y-51788258D01*
X144999530Y-51655102D01*
X144938242Y-51507142D01*
X144907000Y-51350075D01*
X144907000Y-51189925D01*
X144938242Y-51032858D01*
X144999530Y-50884898D01*
X145088502Y-50751742D01*
X145201742Y-50638502D01*
X145334898Y-50549530D01*
X145482858Y-50488242D01*
X145639925Y-50457000D01*
X145800075Y-50457000D01*
X145957142Y-50488242D01*
X145957142Y-50488242D01*
G37*
G36*
X130717142Y-50488242D02*
X130865102Y-50549530D01*
X130998258Y-50638502D01*
X131111498Y-50751742D01*
X131200470Y-50884898D01*
X131261758Y-51032858D01*
X131293000Y-51189925D01*
X131293000Y-51350075D01*
X131261758Y-51507142D01*
X131200470Y-51655102D01*
X131111498Y-51788258D01*
X130998258Y-51901498D01*
X130865102Y-51990470D01*
X130717142Y-52051758D01*
X130560075Y-52083000D01*
X130399925Y-52083000D01*
X130242858Y-52051758D01*
X130094898Y-51990470D01*
X129961742Y-51901498D01*
X129848502Y-51788258D01*
X129759530Y-51655102D01*
X129698242Y-51507142D01*
X129667000Y-51350075D01*
X129667000Y-51189925D01*
X129698242Y-51032858D01*
X129759530Y-50884898D01*
X129848502Y-50751742D01*
X129961742Y-50638502D01*
X130094898Y-50549530D01*
X130242858Y-50488242D01*
X130399925Y-50457000D01*
X130560075Y-50457000D01*
X130717142Y-50488242D01*
X130717142Y-50488242D01*
G37*
G36*
X143417142Y-50488242D02*
X143565102Y-50549530D01*
X143698258Y-50638502D01*
X143811498Y-50751742D01*
X143900470Y-50884898D01*
X143961758Y-51032858D01*
X143993000Y-51189925D01*
X143993000Y-51350075D01*
X143961758Y-51507142D01*
X143900470Y-51655102D01*
X143811498Y-51788258D01*
X143698258Y-51901498D01*
X143565102Y-51990470D01*
X143417142Y-52051758D01*
X143260075Y-52083000D01*
X143099925Y-52083000D01*
X142942858Y-52051758D01*
X142794898Y-51990470D01*
X142661742Y-51901498D01*
X142548502Y-51788258D01*
X142459530Y-51655102D01*
X142398242Y-51507142D01*
X142367000Y-51350075D01*
X142367000Y-51189925D01*
X142398242Y-51032858D01*
X142459530Y-50884898D01*
X142548502Y-50751742D01*
X142661742Y-50638502D01*
X142794898Y-50549530D01*
X142942858Y-50488242D01*
X143099925Y-50457000D01*
X143260075Y-50457000D01*
X143417142Y-50488242D01*
X143417142Y-50488242D01*
G37*
G36*
X140877142Y-50488242D02*
X141025102Y-50549530D01*
X141158258Y-50638502D01*
X141271498Y-50751742D01*
X141360470Y-50884898D01*
X141421758Y-51032858D01*
X141453000Y-51189925D01*
X141453000Y-51350075D01*
X141421758Y-51507142D01*
X141360470Y-51655102D01*
X141271498Y-51788258D01*
X141158258Y-51901498D01*
X141025102Y-51990470D01*
X140877142Y-52051758D01*
X140720075Y-52083000D01*
X140559925Y-52083000D01*
X140402858Y-52051758D01*
X140254898Y-51990470D01*
X140121742Y-51901498D01*
X140008502Y-51788258D01*
X139919530Y-51655102D01*
X139858242Y-51507142D01*
X139827000Y-51350075D01*
X139827000Y-51189925D01*
X139858242Y-51032858D01*
X139919530Y-50884898D01*
X140008502Y-50751742D01*
X140121742Y-50638502D01*
X140254898Y-50549530D01*
X140402858Y-50488242D01*
X140559925Y-50457000D01*
X140720075Y-50457000D01*
X140877142Y-50488242D01*
X140877142Y-50488242D01*
G37*
G36*
X138337142Y-50488242D02*
X138485102Y-50549530D01*
X138618258Y-50638502D01*
X138731498Y-50751742D01*
X138820470Y-50884898D01*
X138881758Y-51032858D01*
X138913000Y-51189925D01*
X138913000Y-51350075D01*
X138881758Y-51507142D01*
X138820470Y-51655102D01*
X138731498Y-51788258D01*
X138618258Y-51901498D01*
X138485102Y-51990470D01*
X138337142Y-52051758D01*
X138180075Y-52083000D01*
X138019925Y-52083000D01*
X137862858Y-52051758D01*
X137714898Y-51990470D01*
X137581742Y-51901498D01*
X137468502Y-51788258D01*
X137379530Y-51655102D01*
X137318242Y-51507142D01*
X137287000Y-51350075D01*
X137287000Y-51189925D01*
X137318242Y-51032858D01*
X137379530Y-50884898D01*
X137468502Y-50751742D01*
X137581742Y-50638502D01*
X137714898Y-50549530D01*
X137862858Y-50488242D01*
X138019925Y-50457000D01*
X138180075Y-50457000D01*
X138337142Y-50488242D01*
X138337142Y-50488242D01*
G37*
G36*
X133257142Y-50488242D02*
X133405102Y-50549530D01*
X133538258Y-50638502D01*
X133651498Y-50751742D01*
X133740470Y-50884898D01*
X133801758Y-51032858D01*
X133833000Y-51189925D01*
X133833000Y-51350075D01*
X133801758Y-51507142D01*
X133740470Y-51655102D01*
X133651498Y-51788258D01*
X133538258Y-51901498D01*
X133405102Y-51990470D01*
X133257142Y-52051758D01*
X133100075Y-52083000D01*
X132939925Y-52083000D01*
X132782858Y-52051758D01*
X132634898Y-51990470D01*
X132501742Y-51901498D01*
X132388502Y-51788258D01*
X132299530Y-51655102D01*
X132238242Y-51507142D01*
X132207000Y-51350075D01*
X132207000Y-51189925D01*
X132238242Y-51032858D01*
X132299530Y-50884898D01*
X132388502Y-50751742D01*
X132501742Y-50638502D01*
X132634898Y-50549530D01*
X132782858Y-50488242D01*
X132939925Y-50457000D01*
X133100075Y-50457000D01*
X133257142Y-50488242D01*
X133257142Y-50488242D01*
G37*
G36*
X125637142Y-50488242D02*
X125785102Y-50549530D01*
X125918258Y-50638502D01*
X126031498Y-50751742D01*
X126120470Y-50884898D01*
X126181758Y-51032858D01*
X126213000Y-51189925D01*
X126213000Y-51350075D01*
X126181758Y-51507142D01*
X126120470Y-51655102D01*
X126031498Y-51788258D01*
X125918258Y-51901498D01*
X125785102Y-51990470D01*
X125637142Y-52051758D01*
X125480075Y-52083000D01*
X125319925Y-52083000D01*
X125162858Y-52051758D01*
X125014898Y-51990470D01*
X124881742Y-51901498D01*
X124768502Y-51788258D01*
X124679530Y-51655102D01*
X124618242Y-51507142D01*
X124587000Y-51350075D01*
X124587000Y-51189925D01*
X124618242Y-51032858D01*
X124679530Y-50884898D01*
X124768502Y-50751742D01*
X124881742Y-50638502D01*
X125014898Y-50549530D01*
X125162858Y-50488242D01*
X125319925Y-50457000D01*
X125480075Y-50457000D01*
X125637142Y-50488242D01*
X125637142Y-50488242D01*
G37*
G36*
X125637142Y-46043242D02*
X125785102Y-46104530D01*
X125918258Y-46193502D01*
X126031498Y-46306742D01*
X126120470Y-46439898D01*
X126181758Y-46587858D01*
X126213000Y-46744925D01*
X126213000Y-46905075D01*
X126181758Y-47062142D01*
X126120470Y-47210102D01*
X126031498Y-47343258D01*
X125918258Y-47456498D01*
X125785102Y-47545470D01*
X125637142Y-47606758D01*
X125480075Y-47638000D01*
X125319925Y-47638000D01*
X125162858Y-47606758D01*
X125014898Y-47545470D01*
X124881742Y-47456498D01*
X124768502Y-47343258D01*
X124679530Y-47210102D01*
X124618242Y-47062142D01*
X124587000Y-46905075D01*
X124587000Y-46744925D01*
X124618242Y-46587858D01*
X124679530Y-46439898D01*
X124768502Y-46306742D01*
X124881742Y-46193502D01*
X125014898Y-46104530D01*
X125162858Y-46043242D01*
X125319925Y-46012000D01*
X125480075Y-46012000D01*
X125637142Y-46043242D01*
X125637142Y-46043242D01*
G37*
G36*
X135797142Y-46043242D02*
X135945102Y-46104530D01*
X136078258Y-46193502D01*
X136191498Y-46306742D01*
X136280470Y-46439898D01*
X136341758Y-46587858D01*
X136373000Y-46744925D01*
X136373000Y-46905075D01*
X136341758Y-47062142D01*
X136280470Y-47210102D01*
X136191498Y-47343258D01*
X136078258Y-47456498D01*
X135945102Y-47545470D01*
X135797142Y-47606758D01*
X135640075Y-47638000D01*
X135479925Y-47638000D01*
X135322858Y-47606758D01*
X135174898Y-47545470D01*
X135041742Y-47456498D01*
X134928502Y-47343258D01*
X134839530Y-47210102D01*
X134778242Y-47062142D01*
X134747000Y-46905075D01*
X134747000Y-46744925D01*
X134778242Y-46587858D01*
X134839530Y-46439898D01*
X134928502Y-46306742D01*
X135041742Y-46193502D01*
X135174898Y-46104530D01*
X135322858Y-46043242D01*
X135479925Y-46012000D01*
X135640075Y-46012000D01*
X135797142Y-46043242D01*
X135797142Y-46043242D01*
G37*
G36*
X133257142Y-46043242D02*
X133405102Y-46104530D01*
X133538258Y-46193502D01*
X133651498Y-46306742D01*
X133740470Y-46439898D01*
X133801758Y-46587858D01*
X133833000Y-46744925D01*
X133833000Y-46905075D01*
X133801758Y-47062142D01*
X133740470Y-47210102D01*
X133651498Y-47343258D01*
X133538258Y-47456498D01*
X133405102Y-47545470D01*
X133257142Y-47606758D01*
X133100075Y-47638000D01*
X132939925Y-47638000D01*
X132782858Y-47606758D01*
X132634898Y-47545470D01*
X132501742Y-47456498D01*
X132388502Y-47343258D01*
X132299530Y-47210102D01*
X132238242Y-47062142D01*
X132207000Y-46905075D01*
X132207000Y-46744925D01*
X132238242Y-46587858D01*
X132299530Y-46439898D01*
X132388502Y-46306742D01*
X132501742Y-46193502D01*
X132634898Y-46104530D01*
X132782858Y-46043242D01*
X132939925Y-46012000D01*
X133100075Y-46012000D01*
X133257142Y-46043242D01*
X133257142Y-46043242D01*
G37*
G36*
X143417142Y-46043242D02*
X143565102Y-46104530D01*
X143698258Y-46193502D01*
X143811498Y-46306742D01*
X143900470Y-46439898D01*
X143961758Y-46587858D01*
X143993000Y-46744925D01*
X143993000Y-46905075D01*
X143961758Y-47062142D01*
X143900470Y-47210102D01*
X143811498Y-47343258D01*
X143698258Y-47456498D01*
X143565102Y-47545470D01*
X143417142Y-47606758D01*
X143260075Y-47638000D01*
X143099925Y-47638000D01*
X142942858Y-47606758D01*
X142794898Y-47545470D01*
X142661742Y-47456498D01*
X142548502Y-47343258D01*
X142459530Y-47210102D01*
X142398242Y-47062142D01*
X142367000Y-46905075D01*
X142367000Y-46744925D01*
X142398242Y-46587858D01*
X142459530Y-46439898D01*
X142548502Y-46306742D01*
X142661742Y-46193502D01*
X142794898Y-46104530D01*
X142942858Y-46043242D01*
X143099925Y-46012000D01*
X143260075Y-46012000D01*
X143417142Y-46043242D01*
X143417142Y-46043242D01*
G37*
G36*
X130717142Y-46043242D02*
X130865102Y-46104530D01*
X130998258Y-46193502D01*
X131111498Y-46306742D01*
X131200470Y-46439898D01*
X131261758Y-46587858D01*
X131293000Y-46744925D01*
X131293000Y-46905075D01*
X131261758Y-47062142D01*
X131200470Y-47210102D01*
X131111498Y-47343258D01*
X130998258Y-47456498D01*
X130865102Y-47545470D01*
X130717142Y-47606758D01*
X130560075Y-47638000D01*
X130399925Y-47638000D01*
X130242858Y-47606758D01*
X130094898Y-47545470D01*
X129961742Y-47456498D01*
X129848502Y-47343258D01*
X129759530Y-47210102D01*
X129698242Y-47062142D01*
X129667000Y-46905075D01*
X129667000Y-46744925D01*
X129698242Y-46587858D01*
X129759530Y-46439898D01*
X129848502Y-46306742D01*
X129961742Y-46193502D01*
X130094898Y-46104530D01*
X130242858Y-46043242D01*
X130399925Y-46012000D01*
X130560075Y-46012000D01*
X130717142Y-46043242D01*
X130717142Y-46043242D01*
G37*
G36*
X125637142Y-35883242D02*
X125785102Y-35944530D01*
X125918258Y-36033502D01*
X126031498Y-36146742D01*
X126120470Y-36279898D01*
X126181758Y-36427858D01*
X126213000Y-36584925D01*
X126213000Y-36745075D01*
X126181758Y-36902142D01*
X126120470Y-37050102D01*
X126031498Y-37183258D01*
X125918258Y-37296498D01*
X125785102Y-37385470D01*
X125637142Y-37446758D01*
X125480075Y-37478000D01*
X125319925Y-37478000D01*
X125162858Y-37446758D01*
X125014898Y-37385470D01*
X124881742Y-37296498D01*
X124768502Y-37183258D01*
X124679530Y-37050102D01*
X124618242Y-36902142D01*
X124587000Y-36745075D01*
X124587000Y-36584925D01*
X124618242Y-36427858D01*
X124679530Y-36279898D01*
X124768502Y-36146742D01*
X124881742Y-36033502D01*
X125014898Y-35944530D01*
X125162858Y-35883242D01*
X125319925Y-35852000D01*
X125480075Y-35852000D01*
X125637142Y-35883242D01*
X125637142Y-35883242D01*
G37*
G36*
X130717142Y-35883242D02*
X130865102Y-35944530D01*
X130998258Y-36033502D01*
X131111498Y-36146742D01*
X131200470Y-36279898D01*
X131261758Y-36427858D01*
X131293000Y-36584925D01*
X131293000Y-36745075D01*
X131261758Y-36902142D01*
X131200470Y-37050102D01*
X131111498Y-37183258D01*
X130998258Y-37296498D01*
X130865102Y-37385470D01*
X130717142Y-37446758D01*
X130560075Y-37478000D01*
X130399925Y-37478000D01*
X130242858Y-37446758D01*
X130094898Y-37385470D01*
X129961742Y-37296498D01*
X129848502Y-37183258D01*
X129759530Y-37050102D01*
X129698242Y-36902142D01*
X129667000Y-36745075D01*
X129667000Y-36584925D01*
X129698242Y-36427858D01*
X129759530Y-36279898D01*
X129848502Y-36146742D01*
X129961742Y-36033502D01*
X130094898Y-35944530D01*
X130242858Y-35883242D01*
X130399925Y-35852000D01*
X130560075Y-35852000D01*
X130717142Y-35883242D01*
X130717142Y-35883242D01*
G37*
G36*
X133257142Y-35883242D02*
X133405102Y-35944530D01*
X133538258Y-36033502D01*
X133651498Y-36146742D01*
X133740470Y-36279898D01*
X133801758Y-36427858D01*
X133833000Y-36584925D01*
X133833000Y-36745075D01*
X133801758Y-36902142D01*
X133740470Y-37050102D01*
X133651498Y-37183258D01*
X133538258Y-37296498D01*
X133405102Y-37385470D01*
X133257142Y-37446758D01*
X133100075Y-37478000D01*
X132939925Y-37478000D01*
X132782858Y-37446758D01*
X132634898Y-37385470D01*
X132501742Y-37296498D01*
X132388502Y-37183258D01*
X132299530Y-37050102D01*
X132238242Y-36902142D01*
X132207000Y-36745075D01*
X132207000Y-36584925D01*
X132238242Y-36427858D01*
X132299530Y-36279898D01*
X132388502Y-36146742D01*
X132501742Y-36033502D01*
X132634898Y-35944530D01*
X132782858Y-35883242D01*
X132939925Y-35852000D01*
X133100075Y-35852000D01*
X133257142Y-35883242D01*
X133257142Y-35883242D01*
G37*
G36*
X138337142Y-35883242D02*
X138485102Y-35944530D01*
X138618258Y-36033502D01*
X138731498Y-36146742D01*
X138820470Y-36279898D01*
X138881758Y-36427858D01*
X138913000Y-36584925D01*
X138913000Y-36745075D01*
X138881758Y-36902142D01*
X138820470Y-37050102D01*
X138731498Y-37183258D01*
X138618258Y-37296498D01*
X138485102Y-37385470D01*
X138337142Y-37446758D01*
X138180075Y-37478000D01*
X138019925Y-37478000D01*
X137862858Y-37446758D01*
X137714898Y-37385470D01*
X137581742Y-37296498D01*
X137468502Y-37183258D01*
X137379530Y-37050102D01*
X137318242Y-36902142D01*
X137287000Y-36745075D01*
X137287000Y-36584925D01*
X137318242Y-36427858D01*
X137379530Y-36279898D01*
X137468502Y-36146742D01*
X137581742Y-36033502D01*
X137714898Y-35944530D01*
X137862858Y-35883242D01*
X138019925Y-35852000D01*
X138180075Y-35852000D01*
X138337142Y-35883242D01*
X138337142Y-35883242D01*
G37*
G36*
X140877142Y-35883242D02*
X141025102Y-35944530D01*
X141158258Y-36033502D01*
X141271498Y-36146742D01*
X141360470Y-36279898D01*
X141421758Y-36427858D01*
X141453000Y-36584925D01*
X141453000Y-36745075D01*
X141421758Y-36902142D01*
X141360470Y-37050102D01*
X141271498Y-37183258D01*
X141158258Y-37296498D01*
X141025102Y-37385470D01*
X140877142Y-37446758D01*
X140720075Y-37478000D01*
X140559925Y-37478000D01*
X140402858Y-37446758D01*
X140254898Y-37385470D01*
X140121742Y-37296498D01*
X140008502Y-37183258D01*
X139919530Y-37050102D01*
X139858242Y-36902142D01*
X139827000Y-36745075D01*
X139827000Y-36584925D01*
X139858242Y-36427858D01*
X139919530Y-36279898D01*
X140008502Y-36146742D01*
X140121742Y-36033502D01*
X140254898Y-35944530D01*
X140402858Y-35883242D01*
X140559925Y-35852000D01*
X140720075Y-35852000D01*
X140877142Y-35883242D01*
X140877142Y-35883242D01*
G37*
G36*
X151037142Y-35883242D02*
X151185102Y-35944530D01*
X151318258Y-36033502D01*
X151431498Y-36146742D01*
X151520470Y-36279898D01*
X151581758Y-36427858D01*
X151613000Y-36584925D01*
X151613000Y-36745075D01*
X151581758Y-36902142D01*
X151520470Y-37050102D01*
X151431498Y-37183258D01*
X151318258Y-37296498D01*
X151185102Y-37385470D01*
X151037142Y-37446758D01*
X150880075Y-37478000D01*
X150719925Y-37478000D01*
X150562858Y-37446758D01*
X150414898Y-37385470D01*
X150281742Y-37296498D01*
X150168502Y-37183258D01*
X150079530Y-37050102D01*
X150018242Y-36902142D01*
X149987000Y-36745075D01*
X149987000Y-36584925D01*
X150018242Y-36427858D01*
X150079530Y-36279898D01*
X150168502Y-36146742D01*
X150281742Y-36033502D01*
X150414898Y-35944530D01*
X150562858Y-35883242D01*
X150719925Y-35852000D01*
X150880075Y-35852000D01*
X151037142Y-35883242D01*
X151037142Y-35883242D01*
G37*
G36*
X148497142Y-35883242D02*
X148645102Y-35944530D01*
X148778258Y-36033502D01*
X148891498Y-36146742D01*
X148980470Y-36279898D01*
X149041758Y-36427858D01*
X149073000Y-36584925D01*
X149073000Y-36745075D01*
X149041758Y-36902142D01*
X148980470Y-37050102D01*
X148891498Y-37183258D01*
X148778258Y-37296498D01*
X148645102Y-37385470D01*
X148497142Y-37446758D01*
X148340075Y-37478000D01*
X148179925Y-37478000D01*
X148022858Y-37446758D01*
X147874898Y-37385470D01*
X147741742Y-37296498D01*
X147628502Y-37183258D01*
X147539530Y-37050102D01*
X147478242Y-36902142D01*
X147447000Y-36745075D01*
X147447000Y-36584925D01*
X147478242Y-36427858D01*
X147539530Y-36279898D01*
X147628502Y-36146742D01*
X147741742Y-36033502D01*
X147874898Y-35944530D01*
X148022858Y-35883242D01*
X148179925Y-35852000D01*
X148340075Y-35852000D01*
X148497142Y-35883242D01*
X148497142Y-35883242D01*
G37*
G36*
X145957142Y-35883242D02*
X146105102Y-35944530D01*
X146238258Y-36033502D01*
X146351498Y-36146742D01*
X146440470Y-36279898D01*
X146501758Y-36427858D01*
X146533000Y-36584925D01*
X146533000Y-36745075D01*
X146501758Y-36902142D01*
X146440470Y-37050102D01*
X146351498Y-37183258D01*
X146238258Y-37296498D01*
X146105102Y-37385470D01*
X145957142Y-37446758D01*
X145800075Y-37478000D01*
X145639925Y-37478000D01*
X145482858Y-37446758D01*
X145334898Y-37385470D01*
X145201742Y-37296498D01*
X145088502Y-37183258D01*
X144999530Y-37050102D01*
X144938242Y-36902142D01*
X144907000Y-36745075D01*
X144907000Y-36584925D01*
X144938242Y-36427858D01*
X144999530Y-36279898D01*
X145088502Y-36146742D01*
X145201742Y-36033502D01*
X145334898Y-35944530D01*
X145482858Y-35883242D01*
X145639925Y-35852000D01*
X145800075Y-35852000D01*
X145957142Y-35883242D01*
X145957142Y-35883242D01*
G37*
G36*
X143417142Y-35883242D02*
X143565102Y-35944530D01*
X143698258Y-36033502D01*
X143811498Y-36146742D01*
X143900470Y-36279898D01*
X143961758Y-36427858D01*
X143993000Y-36584925D01*
X143993000Y-36745075D01*
X143961758Y-36902142D01*
X143900470Y-37050102D01*
X143811498Y-37183258D01*
X143698258Y-37296498D01*
X143565102Y-37385470D01*
X143417142Y-37446758D01*
X143260075Y-37478000D01*
X143099925Y-37478000D01*
X142942858Y-37446758D01*
X142794898Y-37385470D01*
X142661742Y-37296498D01*
X142548502Y-37183258D01*
X142459530Y-37050102D01*
X142398242Y-36902142D01*
X142367000Y-36745075D01*
X142367000Y-36584925D01*
X142398242Y-36427858D01*
X142459530Y-36279898D01*
X142548502Y-36146742D01*
X142661742Y-36033502D01*
X142794898Y-35944530D01*
X142942858Y-35883242D01*
X143099925Y-35852000D01*
X143260075Y-35852000D01*
X143417142Y-35883242D01*
X143417142Y-35883242D01*
G37*
M02*
