G04 #@! TF.GenerationSoftware,KiCad,Pcbnew,(5.0.2)-1*
G04 #@! TF.CreationDate,2020-05-10T00:06:34+09:00*
G04 #@! TF.ProjectId,Tile,54696c65-2e6b-4696-9361-645f70636258,rev?*
G04 #@! TF.SameCoordinates,Original*
G04 #@! TF.FileFunction,Legend,Top*
G04 #@! TF.FilePolarity,Positive*
%FSLAX46Y46*%
G04 Gerber Fmt 4.6, Leading zero omitted, Abs format (unit mm)*
G04 Created by KiCad (PCBNEW (5.0.2)-1) date 2020/05/10 0:06:34*
%MOMM*%
%LPD*%
G01*
G04 APERTURE LIST*
%ADD10C,0.150000*%
%ADD11C,0.120000*%
%ADD12C,0.010000*%
G04 APERTURE END LIST*
D10*
G04 #@! TO.C,D1*
X97825000Y-90747596D02*
X97358494Y-91055608D01*
X97825000Y-90747596D02*
X97791506Y-91305608D01*
X97791506Y-91305608D02*
X97358494Y-91055608D01*
D11*
X99031218Y-90058365D02*
X97581218Y-92569839D01*
X96368782Y-91869839D02*
X97818782Y-89358365D01*
X97581218Y-92569839D02*
X96368782Y-91869839D01*
X99031218Y-90058365D02*
X97818782Y-89358365D01*
D10*
G04 #@! TO.C,D2*
X93612500Y-111937840D02*
X93645994Y-112495852D01*
X93612500Y-111937840D02*
X94079006Y-112245852D01*
X94079006Y-112245852D02*
X93645994Y-112495852D01*
D11*
X93618718Y-110548609D02*
X95068718Y-113060083D01*
X93856282Y-113760083D02*
X92406282Y-111248609D01*
X95068718Y-113060083D02*
X93856282Y-113760083D01*
X93618718Y-110548609D02*
X92406282Y-111248609D01*
G04 #@! TO.C,D3*
X101593718Y-124361714D02*
X100381282Y-125061714D01*
X103043718Y-126873188D02*
X101831282Y-127573188D01*
X101831282Y-127573188D02*
X100381282Y-125061714D01*
X101593718Y-124361714D02*
X103043718Y-126873188D01*
D10*
X102054006Y-126058957D02*
X101620994Y-126308957D01*
X101587500Y-125750945D02*
X102054006Y-126058957D01*
X101587500Y-125750945D02*
X101620994Y-126308957D01*
D11*
G04 #@! TO.C,D4*
X116550000Y-139300000D02*
X116550000Y-140700000D01*
X119450000Y-139300000D02*
X119450000Y-140700000D01*
X119450000Y-140700000D02*
X116550000Y-140700000D01*
X116550000Y-139300000D02*
X119450000Y-139300000D01*
D10*
X118250000Y-139750000D02*
X118250000Y-140250000D01*
X117750000Y-140000000D02*
X118250000Y-139750000D01*
X117750000Y-140000000D02*
X118250000Y-140250000D01*
G04 #@! TO.C,D5*
X133750000Y-140000000D02*
X134250000Y-140250000D01*
X133750000Y-140000000D02*
X134250000Y-139750000D01*
X134250000Y-139750000D02*
X134250000Y-140250000D01*
D11*
X132550000Y-139300000D02*
X135450000Y-139300000D01*
X135450000Y-140700000D02*
X132550000Y-140700000D01*
X135450000Y-139300000D02*
X135450000Y-140700000D01*
X132550000Y-139300000D02*
X132550000Y-140700000D01*
D10*
G04 #@! TO.C,D6*
X154175000Y-133108811D02*
X154641506Y-132800799D01*
X154175000Y-133108811D02*
X154208494Y-132550799D01*
X154208494Y-132550799D02*
X154641506Y-132800799D01*
D11*
X152968782Y-133798042D02*
X154418782Y-131286568D01*
X155631218Y-131986568D02*
X154181218Y-134498042D01*
X154418782Y-131286568D02*
X155631218Y-131986568D01*
X152968782Y-133798042D02*
X154181218Y-134498042D01*
G04 #@! TO.C,D7*
X160968782Y-119941635D02*
X162181218Y-120641635D01*
X162418782Y-117430161D02*
X163631218Y-118130161D01*
X163631218Y-118130161D02*
X162181218Y-120641635D01*
X160968782Y-119941635D02*
X162418782Y-117430161D01*
D10*
X162208494Y-118694392D02*
X162641506Y-118944392D01*
X162175000Y-119252404D02*
X162208494Y-118694392D01*
X162175000Y-119252404D02*
X162641506Y-118944392D01*
D11*
G04 #@! TO.C,D8*
X166418782Y-99498042D02*
X167631218Y-98798042D01*
X164968782Y-96986568D02*
X166181218Y-96286568D01*
X166181218Y-96286568D02*
X167631218Y-98798042D01*
X166418782Y-99498042D02*
X164968782Y-96986568D01*
D10*
X165958494Y-97800799D02*
X166391506Y-97550799D01*
X166425000Y-98108811D02*
X165958494Y-97800799D01*
X166425000Y-98108811D02*
X166391506Y-97550799D01*
G04 #@! TO.C,D9*
X158175000Y-83819392D02*
X158208494Y-84377404D01*
X158175000Y-83819392D02*
X158641506Y-84127404D01*
X158641506Y-84127404D02*
X158208494Y-84377404D01*
D11*
X158181218Y-82430161D02*
X159631218Y-84941635D01*
X158418782Y-85641635D02*
X156968782Y-83130161D01*
X159631218Y-84941635D02*
X158418782Y-85641635D01*
X158181218Y-82430161D02*
X156968782Y-83130161D01*
D10*
G04 #@! TO.C,D10*
X154425000Y-77324201D02*
X154391506Y-76766189D01*
X154425000Y-77324201D02*
X153958494Y-77016189D01*
X153958494Y-77016189D02*
X154391506Y-76766189D01*
D11*
X154418782Y-78713432D02*
X152968782Y-76201958D01*
X154181218Y-75501958D02*
X155631218Y-78013432D01*
X152968782Y-76201958D02*
X154181218Y-75501958D01*
X154418782Y-78713432D02*
X155631218Y-78013432D01*
D10*
G04 #@! TO.C,D11*
X141750000Y-70000000D02*
X142250000Y-70250000D01*
X141750000Y-70000000D02*
X142250000Y-69750000D01*
X142250000Y-69750000D02*
X142250000Y-70250000D01*
D11*
X140550000Y-69300000D02*
X143450000Y-69300000D01*
X143450000Y-70700000D02*
X140550000Y-70700000D01*
X143450000Y-69300000D02*
X143450000Y-70700000D01*
X140550000Y-69300000D02*
X140550000Y-70700000D01*
G04 #@! TO.C,D12*
X135450000Y-70700000D02*
X135450000Y-69300000D01*
X132550000Y-70700000D02*
X132550000Y-69300000D01*
X132550000Y-69300000D02*
X135450000Y-69300000D01*
X135450000Y-70700000D02*
X132550000Y-70700000D01*
D10*
X133750000Y-70250000D02*
X133750000Y-69750000D01*
X134250000Y-70000000D02*
X133750000Y-70250000D01*
X134250000Y-70000000D02*
X133750000Y-69750000D01*
D11*
G04 #@! TO.C,D13*
X124550000Y-69300000D02*
X124550000Y-70700000D01*
X127450000Y-69300000D02*
X127450000Y-70700000D01*
X127450000Y-70700000D02*
X124550000Y-70700000D01*
X124550000Y-69300000D02*
X127450000Y-69300000D01*
D10*
X126250000Y-69750000D02*
X126250000Y-70250000D01*
X125750000Y-70000000D02*
X126250000Y-69750000D01*
X125750000Y-70000000D02*
X126250000Y-70250000D01*
G04 #@! TO.C,D14*
X118250000Y-70000000D02*
X117750000Y-69750000D01*
X118250000Y-70000000D02*
X117750000Y-70250000D01*
X117750000Y-70250000D02*
X117750000Y-69750000D01*
D11*
X119450000Y-70700000D02*
X116550000Y-70700000D01*
X116550000Y-69300000D02*
X119450000Y-69300000D01*
X116550000Y-70700000D02*
X116550000Y-69300000D01*
X119450000Y-70700000D02*
X119450000Y-69300000D01*
G04 #@! TO.C,D15*
X104368782Y-78013432D02*
X105581218Y-78713432D01*
X105818782Y-75501958D02*
X107031218Y-76201958D01*
X107031218Y-76201958D02*
X105581218Y-78713432D01*
X104368782Y-78013432D02*
X105818782Y-75501958D01*
D10*
X105608494Y-76766189D02*
X106041506Y-77016189D01*
X105575000Y-77324201D02*
X105608494Y-76766189D01*
X105575000Y-77324201D02*
X106041506Y-77016189D01*
D11*
G04 #@! TO.C,D16*
X103031218Y-83130161D02*
X101818782Y-82430161D01*
X101581218Y-85641635D02*
X100368782Y-84941635D01*
X100368782Y-84941635D02*
X101818782Y-82430161D01*
X103031218Y-83130161D02*
X101581218Y-85641635D01*
D10*
X101791506Y-84377404D02*
X101358494Y-84127404D01*
X101825000Y-83819392D02*
X101791506Y-84377404D01*
X101825000Y-83819392D02*
X101358494Y-84127404D01*
G04 #@! TO.C,D17*
X93575000Y-98108811D02*
X94041506Y-97800799D01*
X93575000Y-98108811D02*
X93608494Y-97550799D01*
X93608494Y-97550799D02*
X94041506Y-97800799D01*
D11*
X92368782Y-98798042D02*
X93818782Y-96286568D01*
X95031218Y-96986568D02*
X93581218Y-99498042D01*
X93818782Y-96286568D02*
X95031218Y-96986568D01*
X92368782Y-98798042D02*
X93581218Y-99498042D01*
D10*
G04 #@! TO.C,D18*
X97837500Y-119255754D02*
X97804006Y-118697742D01*
X97837500Y-119255754D02*
X97370994Y-118947742D01*
X97370994Y-118947742D02*
X97804006Y-118697742D01*
D11*
X97831282Y-120644985D02*
X96381282Y-118133511D01*
X97593718Y-117433511D02*
X99043718Y-119944985D01*
X96381282Y-118133511D02*
X97593718Y-117433511D01*
X97831282Y-120644985D02*
X99043718Y-119944985D01*
G04 #@! TO.C,D19*
X105831282Y-134501391D02*
X107043718Y-133801391D01*
X104381282Y-131989917D02*
X105593718Y-131289917D01*
X105593718Y-131289917D02*
X107043718Y-133801391D01*
X105831282Y-134501391D02*
X104381282Y-131989917D01*
D10*
X105370994Y-132804148D02*
X105804006Y-132554148D01*
X105837500Y-133112160D02*
X105370994Y-132804148D01*
X105837500Y-133112160D02*
X105804006Y-132554148D01*
D11*
G04 #@! TO.C,D20*
X127450000Y-140700000D02*
X127450000Y-139300000D01*
X124550000Y-140700000D02*
X124550000Y-139300000D01*
X124550000Y-139300000D02*
X127450000Y-139300000D01*
X127450000Y-140700000D02*
X124550000Y-140700000D01*
D10*
X125750000Y-140250000D02*
X125750000Y-139750000D01*
X126250000Y-140000000D02*
X125750000Y-140250000D01*
X126250000Y-140000000D02*
X125750000Y-139750000D01*
G04 #@! TO.C,D21*
X142250000Y-140000000D02*
X141750000Y-139750000D01*
X142250000Y-140000000D02*
X141750000Y-140250000D01*
X141750000Y-140250000D02*
X141750000Y-139750000D01*
D11*
X143450000Y-140700000D02*
X140550000Y-140700000D01*
X140550000Y-139300000D02*
X143450000Y-139300000D01*
X140550000Y-140700000D02*
X140550000Y-139300000D01*
X143450000Y-140700000D02*
X143450000Y-139300000D01*
D10*
G04 #@! TO.C,D22*
X158425000Y-125747596D02*
X157958494Y-126055608D01*
X158425000Y-125747596D02*
X158391506Y-126305608D01*
X158391506Y-126305608D02*
X157958494Y-126055608D01*
D11*
X159631218Y-125058365D02*
X158181218Y-127569839D01*
X156968782Y-126869839D02*
X158418782Y-124358365D01*
X158181218Y-127569839D02*
X156968782Y-126869839D01*
X159631218Y-125058365D02*
X158418782Y-124358365D01*
G04 #@! TO.C,D23*
X167631218Y-111201958D02*
X166418782Y-110501958D01*
X166181218Y-113713432D02*
X164968782Y-113013432D01*
X164968782Y-113013432D02*
X166418782Y-110501958D01*
X167631218Y-111201958D02*
X166181218Y-113713432D01*
D10*
X166391506Y-112449201D02*
X165958494Y-112199201D01*
X166425000Y-111891189D02*
X166391506Y-112449201D01*
X166425000Y-111891189D02*
X165958494Y-112199201D01*
D11*
G04 #@! TO.C,D24*
X162181218Y-89358365D02*
X160968782Y-90058365D01*
X163631218Y-91869839D02*
X162418782Y-92569839D01*
X162418782Y-92569839D02*
X160968782Y-90058365D01*
X162181218Y-89358365D02*
X163631218Y-91869839D01*
D10*
X162641506Y-91055608D02*
X162208494Y-91305608D01*
X162175000Y-90747596D02*
X162641506Y-91055608D01*
X162175000Y-90747596D02*
X162208494Y-91305608D01*
D12*
G04 #@! TO.C,G\002A\002A\002A*
G36*
X132133600Y-123727200D02*
X131185333Y-123727200D01*
X131185333Y-122812800D01*
X132133600Y-122812800D01*
X132133600Y-123727200D01*
X132133600Y-123727200D01*
G37*
X132133600Y-123727200D02*
X131185333Y-123727200D01*
X131185333Y-122812800D01*
X132133600Y-122812800D01*
X132133600Y-123727200D01*
G36*
X130508000Y-123727200D02*
X129559733Y-123727200D01*
X129559733Y-122812800D01*
X130508000Y-122812800D01*
X130508000Y-123727200D01*
X130508000Y-123727200D01*
G37*
X130508000Y-123727200D02*
X129559733Y-123727200D01*
X129559733Y-122812800D01*
X130508000Y-122812800D01*
X130508000Y-123727200D01*
G36*
X128882400Y-123727200D02*
X127934133Y-123727200D01*
X127934133Y-122812800D01*
X128882400Y-122812800D01*
X128882400Y-123727200D01*
X128882400Y-123727200D01*
G37*
X128882400Y-123727200D02*
X127934133Y-123727200D01*
X127934133Y-122812800D01*
X128882400Y-122812800D01*
X128882400Y-123727200D01*
G36*
X134945381Y-114628171D02*
X135056016Y-114691908D01*
X135064606Y-114700194D01*
X135135705Y-114808881D01*
X135145037Y-114919051D01*
X135096859Y-115017072D01*
X134995429Y-115089313D01*
X134936919Y-115108952D01*
X134864962Y-115113998D01*
X134798470Y-115080618D01*
X134742186Y-115029529D01*
X134660800Y-114917027D01*
X134646322Y-114810128D01*
X134698858Y-114710336D01*
X134718116Y-114690704D01*
X134827911Y-114627637D01*
X134945381Y-114628171D01*
X134945381Y-114628171D01*
G37*
X134945381Y-114628171D02*
X135056016Y-114691908D01*
X135064606Y-114700194D01*
X135135705Y-114808881D01*
X135145037Y-114919051D01*
X135096859Y-115017072D01*
X134995429Y-115089313D01*
X134936919Y-115108952D01*
X134864962Y-115113998D01*
X134798470Y-115080618D01*
X134742186Y-115029529D01*
X134660800Y-114917027D01*
X134646322Y-114810128D01*
X134698858Y-114710336D01*
X134718116Y-114690704D01*
X134827911Y-114627637D01*
X134945381Y-114628171D01*
G36*
X131207925Y-114015264D02*
X131409048Y-114070762D01*
X131578910Y-114157789D01*
X131632972Y-114200405D01*
X131698936Y-114297546D01*
X131736617Y-114427091D01*
X131738610Y-114557008D01*
X131726546Y-114605300D01*
X131688225Y-114681086D01*
X131627480Y-114747726D01*
X131535351Y-114810406D01*
X131402876Y-114874316D01*
X131221097Y-114944644D01*
X131022904Y-115012755D01*
X130536080Y-115174386D01*
X130623696Y-115249750D01*
X130781792Y-115343143D01*
X130973358Y-115387624D01*
X131182993Y-115381181D01*
X131338629Y-115343151D01*
X131497758Y-115305497D01*
X131618973Y-115310290D01*
X131696479Y-115354745D01*
X131724484Y-115436076D01*
X131708966Y-115521213D01*
X131644013Y-115613402D01*
X131526296Y-115689669D01*
X131369622Y-115746595D01*
X131187795Y-115780762D01*
X130994622Y-115788750D01*
X130803909Y-115767142D01*
X130758055Y-115756670D01*
X130511474Y-115667595D01*
X130320221Y-115541129D01*
X130185627Y-115379198D01*
X130109022Y-115183727D01*
X130091737Y-114956642D01*
X130108470Y-114816346D01*
X130142171Y-114703254D01*
X130598359Y-114703254D01*
X130625781Y-114714009D01*
X130692259Y-114702664D01*
X130806136Y-114669189D01*
X130973583Y-114614274D01*
X131106989Y-114567172D01*
X131212138Y-114524988D01*
X131275136Y-114493584D01*
X131286933Y-114482120D01*
X131257265Y-114451608D01*
X131183668Y-114419258D01*
X131089254Y-114392894D01*
X130997138Y-114380337D01*
X130985546Y-114380127D01*
X130864497Y-114408500D01*
X130742892Y-114481777D01*
X130647025Y-114582677D01*
X130627308Y-114615569D01*
X130601649Y-114670430D01*
X130598359Y-114703254D01*
X130142171Y-114703254D01*
X130184626Y-114560793D01*
X130310855Y-114339546D01*
X130480830Y-114161769D01*
X130626533Y-114065944D01*
X130795713Y-114010056D01*
X130996495Y-113994096D01*
X131207925Y-114015264D01*
X131207925Y-114015264D01*
G37*
X131207925Y-114015264D02*
X131409048Y-114070762D01*
X131578910Y-114157789D01*
X131632972Y-114200405D01*
X131698936Y-114297546D01*
X131736617Y-114427091D01*
X131738610Y-114557008D01*
X131726546Y-114605300D01*
X131688225Y-114681086D01*
X131627480Y-114747726D01*
X131535351Y-114810406D01*
X131402876Y-114874316D01*
X131221097Y-114944644D01*
X131022904Y-115012755D01*
X130536080Y-115174386D01*
X130623696Y-115249750D01*
X130781792Y-115343143D01*
X130973358Y-115387624D01*
X131182993Y-115381181D01*
X131338629Y-115343151D01*
X131497758Y-115305497D01*
X131618973Y-115310290D01*
X131696479Y-115354745D01*
X131724484Y-115436076D01*
X131708966Y-115521213D01*
X131644013Y-115613402D01*
X131526296Y-115689669D01*
X131369622Y-115746595D01*
X131187795Y-115780762D01*
X130994622Y-115788750D01*
X130803909Y-115767142D01*
X130758055Y-115756670D01*
X130511474Y-115667595D01*
X130320221Y-115541129D01*
X130185627Y-115379198D01*
X130109022Y-115183727D01*
X130091737Y-114956642D01*
X130108470Y-114816346D01*
X130142171Y-114703254D01*
X130598359Y-114703254D01*
X130625781Y-114714009D01*
X130692259Y-114702664D01*
X130806136Y-114669189D01*
X130973583Y-114614274D01*
X131106989Y-114567172D01*
X131212138Y-114524988D01*
X131275136Y-114493584D01*
X131286933Y-114482120D01*
X131257265Y-114451608D01*
X131183668Y-114419258D01*
X131089254Y-114392894D01*
X130997138Y-114380337D01*
X130985546Y-114380127D01*
X130864497Y-114408500D01*
X130742892Y-114481777D01*
X130647025Y-114582677D01*
X130627308Y-114615569D01*
X130601649Y-114670430D01*
X130598359Y-114703254D01*
X130142171Y-114703254D01*
X130184626Y-114560793D01*
X130310855Y-114339546D01*
X130480830Y-114161769D01*
X130626533Y-114065944D01*
X130795713Y-114010056D01*
X130996495Y-113994096D01*
X131207925Y-114015264D01*
G36*
X129407286Y-113077812D02*
X129470485Y-113135400D01*
X129492921Y-113176024D01*
X129511715Y-113225198D01*
X129528480Y-113292510D01*
X129544828Y-113387550D01*
X129562372Y-113519904D01*
X129582725Y-113699161D01*
X129607500Y-113934909D01*
X129611478Y-113973600D01*
X129648562Y-114294388D01*
X129692170Y-114603610D01*
X129740035Y-114888110D01*
X129789892Y-115134733D01*
X129839477Y-115330324D01*
X129852237Y-115371788D01*
X129881591Y-115472664D01*
X129886546Y-115536630D01*
X129866730Y-115590105D01*
X129848743Y-115619142D01*
X129769062Y-115706157D01*
X129677697Y-115730580D01*
X129591170Y-115710250D01*
X129521462Y-115694278D01*
X129446946Y-115706402D01*
X129342571Y-115751009D01*
X129333697Y-115755364D01*
X129126131Y-115827168D01*
X128898515Y-115855285D01*
X128678633Y-115837372D01*
X128600295Y-115817187D01*
X128402962Y-115720413D01*
X128243897Y-115572654D01*
X128127571Y-115381625D01*
X128058456Y-115155043D01*
X128042686Y-114924869D01*
X128456444Y-114924869D01*
X128484313Y-115091901D01*
X128551627Y-115240365D01*
X128651522Y-115352849D01*
X128727238Y-115397055D01*
X128864247Y-115425296D01*
X129013268Y-115415579D01*
X129112762Y-115382534D01*
X129204587Y-115321810D01*
X129268906Y-115263804D01*
X129299276Y-115225029D01*
X129315047Y-115181700D01*
X129317119Y-115117450D01*
X129306392Y-115015910D01*
X129289117Y-114896270D01*
X129246876Y-114691116D01*
X129187808Y-114547712D01*
X129106471Y-114461042D01*
X128997423Y-114426086D01*
X128855221Y-114437827D01*
X128804931Y-114449798D01*
X128640944Y-114519726D01*
X128529951Y-114630097D01*
X128474882Y-114756685D01*
X128456444Y-114924869D01*
X128042686Y-114924869D01*
X128041024Y-114900621D01*
X128043432Y-114856402D01*
X128078157Y-114637450D01*
X128153531Y-114456238D01*
X128278997Y-114290388D01*
X128285058Y-114283899D01*
X128440302Y-114149512D01*
X128611269Y-114067547D01*
X128815667Y-114030699D01*
X128907709Y-114026985D01*
X129012230Y-114026841D01*
X129083712Y-114021939D01*
X129126946Y-114001695D01*
X129146725Y-113955527D01*
X129147840Y-113872853D01*
X129135081Y-113743090D01*
X129114816Y-113569567D01*
X129098166Y-113410823D01*
X129091783Y-113303448D01*
X129096322Y-113231765D01*
X129112437Y-113180096D01*
X129132530Y-113145020D01*
X129210372Y-113077682D01*
X129310196Y-113055045D01*
X129407286Y-113077812D01*
X129407286Y-113077812D01*
G37*
X129407286Y-113077812D02*
X129470485Y-113135400D01*
X129492921Y-113176024D01*
X129511715Y-113225198D01*
X129528480Y-113292510D01*
X129544828Y-113387550D01*
X129562372Y-113519904D01*
X129582725Y-113699161D01*
X129607500Y-113934909D01*
X129611478Y-113973600D01*
X129648562Y-114294388D01*
X129692170Y-114603610D01*
X129740035Y-114888110D01*
X129789892Y-115134733D01*
X129839477Y-115330324D01*
X129852237Y-115371788D01*
X129881591Y-115472664D01*
X129886546Y-115536630D01*
X129866730Y-115590105D01*
X129848743Y-115619142D01*
X129769062Y-115706157D01*
X129677697Y-115730580D01*
X129591170Y-115710250D01*
X129521462Y-115694278D01*
X129446946Y-115706402D01*
X129342571Y-115751009D01*
X129333697Y-115755364D01*
X129126131Y-115827168D01*
X128898515Y-115855285D01*
X128678633Y-115837372D01*
X128600295Y-115817187D01*
X128402962Y-115720413D01*
X128243897Y-115572654D01*
X128127571Y-115381625D01*
X128058456Y-115155043D01*
X128042686Y-114924869D01*
X128456444Y-114924869D01*
X128484313Y-115091901D01*
X128551627Y-115240365D01*
X128651522Y-115352849D01*
X128727238Y-115397055D01*
X128864247Y-115425296D01*
X129013268Y-115415579D01*
X129112762Y-115382534D01*
X129204587Y-115321810D01*
X129268906Y-115263804D01*
X129299276Y-115225029D01*
X129315047Y-115181700D01*
X129317119Y-115117450D01*
X129306392Y-115015910D01*
X129289117Y-114896270D01*
X129246876Y-114691116D01*
X129187808Y-114547712D01*
X129106471Y-114461042D01*
X128997423Y-114426086D01*
X128855221Y-114437827D01*
X128804931Y-114449798D01*
X128640944Y-114519726D01*
X128529951Y-114630097D01*
X128474882Y-114756685D01*
X128456444Y-114924869D01*
X128042686Y-114924869D01*
X128041024Y-114900621D01*
X128043432Y-114856402D01*
X128078157Y-114637450D01*
X128153531Y-114456238D01*
X128278997Y-114290388D01*
X128285058Y-114283899D01*
X128440302Y-114149512D01*
X128611269Y-114067547D01*
X128815667Y-114030699D01*
X128907709Y-114026985D01*
X129012230Y-114026841D01*
X129083712Y-114021939D01*
X129126946Y-114001695D01*
X129146725Y-113955527D01*
X129147840Y-113872853D01*
X129135081Y-113743090D01*
X129114816Y-113569567D01*
X129098166Y-113410823D01*
X129091783Y-113303448D01*
X129096322Y-113231765D01*
X129112437Y-113180096D01*
X129132530Y-113145020D01*
X129210372Y-113077682D01*
X129310196Y-113055045D01*
X129407286Y-113077812D01*
G36*
X132741122Y-114272665D02*
X132816848Y-114352031D01*
X132844774Y-114475085D01*
X132844800Y-114479424D01*
X132850608Y-114553214D01*
X132874481Y-114573838D01*
X132904066Y-114565469D01*
X132971903Y-114547936D01*
X133076530Y-114531885D01*
X133132666Y-114526104D01*
X133323500Y-114538953D01*
X133483606Y-114611745D01*
X133610802Y-114743470D01*
X133614591Y-114749075D01*
X133666434Y-114851380D01*
X133686271Y-114964664D01*
X133673552Y-115102330D01*
X133627723Y-115277779D01*
X133587934Y-115396000D01*
X133527549Y-115575480D01*
X133463884Y-115779254D01*
X133409857Y-115965850D01*
X133405729Y-115981046D01*
X133350918Y-116169710D01*
X133301228Y-116301031D01*
X133250460Y-116384447D01*
X133192415Y-116429396D01*
X133120896Y-116445317D01*
X133100438Y-116445867D01*
X133005058Y-116430768D01*
X132933565Y-116394273D01*
X132931886Y-116392648D01*
X132892711Y-116320655D01*
X132878666Y-116238414D01*
X132890497Y-116137581D01*
X132922522Y-115991728D01*
X132969543Y-115818625D01*
X133026362Y-115636043D01*
X133087780Y-115461755D01*
X133148599Y-115313533D01*
X133150318Y-115309766D01*
X133215681Y-115157498D01*
X133246660Y-115054858D01*
X133242978Y-114992956D01*
X133204359Y-114962902D01*
X133139297Y-114955734D01*
X133022309Y-114980879D01*
X132884851Y-115048309D01*
X132746951Y-115146016D01*
X132628773Y-115261829D01*
X132572027Y-115341947D01*
X132498261Y-115463686D01*
X132419100Y-115607286D01*
X132375540Y-115692310D01*
X132291299Y-115852988D01*
X132221630Y-115958811D01*
X132156657Y-116018093D01*
X132086507Y-116039147D01*
X132001304Y-116030286D01*
X131980048Y-116025271D01*
X131902629Y-115991755D01*
X131856042Y-115933968D01*
X131841075Y-115846345D01*
X131858517Y-115723321D01*
X131909154Y-115559332D01*
X131993775Y-115348814D01*
X132112941Y-115086681D01*
X132189415Y-114920655D01*
X132260580Y-114759206D01*
X132318123Y-114621606D01*
X132351971Y-114532400D01*
X132412533Y-114384597D01*
X132478448Y-114294349D01*
X132559239Y-114251604D01*
X132624666Y-114244534D01*
X132741122Y-114272665D01*
X132741122Y-114272665D01*
G37*
X132741122Y-114272665D02*
X132816848Y-114352031D01*
X132844774Y-114475085D01*
X132844800Y-114479424D01*
X132850608Y-114553214D01*
X132874481Y-114573838D01*
X132904066Y-114565469D01*
X132971903Y-114547936D01*
X133076530Y-114531885D01*
X133132666Y-114526104D01*
X133323500Y-114538953D01*
X133483606Y-114611745D01*
X133610802Y-114743470D01*
X133614591Y-114749075D01*
X133666434Y-114851380D01*
X133686271Y-114964664D01*
X133673552Y-115102330D01*
X133627723Y-115277779D01*
X133587934Y-115396000D01*
X133527549Y-115575480D01*
X133463884Y-115779254D01*
X133409857Y-115965850D01*
X133405729Y-115981046D01*
X133350918Y-116169710D01*
X133301228Y-116301031D01*
X133250460Y-116384447D01*
X133192415Y-116429396D01*
X133120896Y-116445317D01*
X133100438Y-116445867D01*
X133005058Y-116430768D01*
X132933565Y-116394273D01*
X132931886Y-116392648D01*
X132892711Y-116320655D01*
X132878666Y-116238414D01*
X132890497Y-116137581D01*
X132922522Y-115991728D01*
X132969543Y-115818625D01*
X133026362Y-115636043D01*
X133087780Y-115461755D01*
X133148599Y-115313533D01*
X133150318Y-115309766D01*
X133215681Y-115157498D01*
X133246660Y-115054858D01*
X133242978Y-114992956D01*
X133204359Y-114962902D01*
X133139297Y-114955734D01*
X133022309Y-114980879D01*
X132884851Y-115048309D01*
X132746951Y-115146016D01*
X132628773Y-115261829D01*
X132572027Y-115341947D01*
X132498261Y-115463686D01*
X132419100Y-115607286D01*
X132375540Y-115692310D01*
X132291299Y-115852988D01*
X132221630Y-115958811D01*
X132156657Y-116018093D01*
X132086507Y-116039147D01*
X132001304Y-116030286D01*
X131980048Y-116025271D01*
X131902629Y-115991755D01*
X131856042Y-115933968D01*
X131841075Y-115846345D01*
X131858517Y-115723321D01*
X131909154Y-115559332D01*
X131993775Y-115348814D01*
X132112941Y-115086681D01*
X132189415Y-114920655D01*
X132260580Y-114759206D01*
X132318123Y-114621606D01*
X132351971Y-114532400D01*
X132412533Y-114384597D01*
X132478448Y-114294349D01*
X132559239Y-114251604D01*
X132624666Y-114244534D01*
X132741122Y-114272665D01*
G36*
X127397057Y-114515074D02*
X127510225Y-114614583D01*
X127613771Y-114778757D01*
X127628271Y-114808640D01*
X127679546Y-114945095D01*
X127683054Y-115046470D01*
X127637259Y-115127188D01*
X127589948Y-115168414D01*
X127482402Y-115216859D01*
X127383196Y-115198938D01*
X127296555Y-115115892D01*
X127271680Y-115074852D01*
X127223519Y-115002278D01*
X127181900Y-114967064D01*
X127172782Y-114966643D01*
X127116847Y-115009431D01*
X127048496Y-115094274D01*
X126980995Y-115200556D01*
X126927614Y-115307655D01*
X126902873Y-115386094D01*
X126897466Y-115448687D01*
X126905846Y-115516328D01*
X126932225Y-115602306D01*
X126980814Y-115719908D01*
X127055825Y-115882423D01*
X127068954Y-115910104D01*
X127140337Y-116066713D01*
X127199249Y-116208214D01*
X127239941Y-116319905D01*
X127256666Y-116387085D01*
X127256800Y-116390591D01*
X127227451Y-116481309D01*
X127153476Y-116546616D01*
X127055986Y-116577436D01*
X126956087Y-116564693D01*
X126911645Y-116539000D01*
X126882835Y-116497564D01*
X126831348Y-116405482D01*
X126762574Y-116273751D01*
X126681906Y-116113369D01*
X126594737Y-115935332D01*
X126506459Y-115750637D01*
X126422465Y-115570282D01*
X126348147Y-115405263D01*
X126295171Y-115281798D01*
X126248913Y-115134588D01*
X126251211Y-115027016D01*
X126302562Y-114950993D01*
X126316069Y-114940721D01*
X126429149Y-114892494D01*
X126533642Y-114907539D01*
X126579027Y-114938403D01*
X126614871Y-114961805D01*
X126649444Y-114951570D01*
X126696869Y-114898860D01*
X126742249Y-114836254D01*
X126852665Y-114709676D01*
X126986706Y-114600369D01*
X127125774Y-114520697D01*
X127251270Y-114483025D01*
X127275745Y-114481600D01*
X127397057Y-114515074D01*
X127397057Y-114515074D01*
G37*
X127397057Y-114515074D02*
X127510225Y-114614583D01*
X127613771Y-114778757D01*
X127628271Y-114808640D01*
X127679546Y-114945095D01*
X127683054Y-115046470D01*
X127637259Y-115127188D01*
X127589948Y-115168414D01*
X127482402Y-115216859D01*
X127383196Y-115198938D01*
X127296555Y-115115892D01*
X127271680Y-115074852D01*
X127223519Y-115002278D01*
X127181900Y-114967064D01*
X127172782Y-114966643D01*
X127116847Y-115009431D01*
X127048496Y-115094274D01*
X126980995Y-115200556D01*
X126927614Y-115307655D01*
X126902873Y-115386094D01*
X126897466Y-115448687D01*
X126905846Y-115516328D01*
X126932225Y-115602306D01*
X126980814Y-115719908D01*
X127055825Y-115882423D01*
X127068954Y-115910104D01*
X127140337Y-116066713D01*
X127199249Y-116208214D01*
X127239941Y-116319905D01*
X127256666Y-116387085D01*
X127256800Y-116390591D01*
X127227451Y-116481309D01*
X127153476Y-116546616D01*
X127055986Y-116577436D01*
X126956087Y-116564693D01*
X126911645Y-116539000D01*
X126882835Y-116497564D01*
X126831348Y-116405482D01*
X126762574Y-116273751D01*
X126681906Y-116113369D01*
X126594737Y-115935332D01*
X126506459Y-115750637D01*
X126422465Y-115570282D01*
X126348147Y-115405263D01*
X126295171Y-115281798D01*
X126248913Y-115134588D01*
X126251211Y-115027016D01*
X126302562Y-114950993D01*
X126316069Y-114940721D01*
X126429149Y-114892494D01*
X126533642Y-114907539D01*
X126579027Y-114938403D01*
X126614871Y-114961805D01*
X126649444Y-114951570D01*
X126696869Y-114898860D01*
X126742249Y-114836254D01*
X126852665Y-114709676D01*
X126986706Y-114600369D01*
X127125774Y-114520697D01*
X127251270Y-114483025D01*
X127275745Y-114481600D01*
X127397057Y-114515074D01*
G36*
X134532323Y-115237008D02*
X134626284Y-115298139D01*
X134670876Y-115400678D01*
X134673600Y-115439689D01*
X134655451Y-115517515D01*
X134598460Y-115627341D01*
X134498806Y-115776118D01*
X134457811Y-115832374D01*
X134339317Y-115996891D01*
X134209634Y-116183715D01*
X134090858Y-116360822D01*
X134053747Y-116418025D01*
X133937141Y-116588161D01*
X133838608Y-116707453D01*
X133761727Y-116772008D01*
X133719093Y-116781860D01*
X133682352Y-116769464D01*
X133657600Y-116760507D01*
X133555233Y-116695991D01*
X133496348Y-116603009D01*
X133488266Y-116552208D01*
X133507193Y-116484471D01*
X133559414Y-116376054D01*
X133638089Y-116236976D01*
X133736380Y-116077255D01*
X133847448Y-115906909D01*
X133964453Y-115735959D01*
X134080557Y-115574421D01*
X134188921Y-115432315D01*
X134282705Y-115319660D01*
X134355070Y-115246474D01*
X134395866Y-115222654D01*
X134532323Y-115237008D01*
X134532323Y-115237008D01*
G37*
X134532323Y-115237008D02*
X134626284Y-115298139D01*
X134670876Y-115400678D01*
X134673600Y-115439689D01*
X134655451Y-115517515D01*
X134598460Y-115627341D01*
X134498806Y-115776118D01*
X134457811Y-115832374D01*
X134339317Y-115996891D01*
X134209634Y-116183715D01*
X134090858Y-116360822D01*
X134053747Y-116418025D01*
X133937141Y-116588161D01*
X133838608Y-116707453D01*
X133761727Y-116772008D01*
X133719093Y-116781860D01*
X133682352Y-116769464D01*
X133657600Y-116760507D01*
X133555233Y-116695991D01*
X133496348Y-116603009D01*
X133488266Y-116552208D01*
X133507193Y-116484471D01*
X133559414Y-116376054D01*
X133638089Y-116236976D01*
X133736380Y-116077255D01*
X133847448Y-115906909D01*
X133964453Y-115735959D01*
X134080557Y-115574421D01*
X134188921Y-115432315D01*
X134282705Y-115319660D01*
X134355070Y-115246474D01*
X134395866Y-115222654D01*
X134532323Y-115237008D01*
G36*
X125681604Y-115537544D02*
X125762031Y-115550847D01*
X125817662Y-115585099D01*
X125869476Y-115656874D01*
X125899061Y-115709359D01*
X126034719Y-115916119D01*
X126205044Y-116112102D01*
X126391681Y-116278390D01*
X126554722Y-116385076D01*
X126670820Y-116451080D01*
X126737830Y-116504013D01*
X126769309Y-116556561D01*
X126776738Y-116592795D01*
X126760350Y-116703913D01*
X126690990Y-116783093D01*
X126580584Y-116817803D01*
X126562098Y-116818400D01*
X126499467Y-116825146D01*
X126448814Y-116854036D01*
X126395015Y-116918048D01*
X126331468Y-117016314D01*
X126183871Y-117206276D01*
X126011696Y-117345003D01*
X125823801Y-117429049D01*
X125629044Y-117454968D01*
X125436283Y-117419314D01*
X125369032Y-117390715D01*
X125210769Y-117285533D01*
X125058664Y-117137710D01*
X124930444Y-116968019D01*
X124843834Y-116797231D01*
X124832105Y-116761509D01*
X124795289Y-116518498D01*
X124798095Y-116491141D01*
X125240323Y-116491141D01*
X125291979Y-116673863D01*
X125406024Y-116843171D01*
X125463943Y-116900914D01*
X125593098Y-116992419D01*
X125712165Y-117019494D01*
X125830032Y-116982729D01*
X125904024Y-116930146D01*
X125986280Y-116844411D01*
X126049051Y-116750902D01*
X126056287Y-116735412D01*
X126074473Y-116685967D01*
X126075793Y-116643970D01*
X126053201Y-116596368D01*
X125999654Y-116530103D01*
X125908105Y-116432121D01*
X125872635Y-116395067D01*
X125765302Y-116280524D01*
X125668960Y-116173148D01*
X125598355Y-116089566D01*
X125578117Y-116063034D01*
X125510330Y-115997279D01*
X125442489Y-115995953D01*
X125370308Y-116060022D01*
X125329929Y-116119027D01*
X125252493Y-116303398D01*
X125240323Y-116491141D01*
X124798095Y-116491141D01*
X124820335Y-116274321D01*
X124903201Y-116043232D01*
X125039844Y-115839484D01*
X125115367Y-115762705D01*
X125280380Y-115644417D01*
X125461374Y-115566057D01*
X125636945Y-115536135D01*
X125681604Y-115537544D01*
X125681604Y-115537544D01*
G37*
X125681604Y-115537544D02*
X125762031Y-115550847D01*
X125817662Y-115585099D01*
X125869476Y-115656874D01*
X125899061Y-115709359D01*
X126034719Y-115916119D01*
X126205044Y-116112102D01*
X126391681Y-116278390D01*
X126554722Y-116385076D01*
X126670820Y-116451080D01*
X126737830Y-116504013D01*
X126769309Y-116556561D01*
X126776738Y-116592795D01*
X126760350Y-116703913D01*
X126690990Y-116783093D01*
X126580584Y-116817803D01*
X126562098Y-116818400D01*
X126499467Y-116825146D01*
X126448814Y-116854036D01*
X126395015Y-116918048D01*
X126331468Y-117016314D01*
X126183871Y-117206276D01*
X126011696Y-117345003D01*
X125823801Y-117429049D01*
X125629044Y-117454968D01*
X125436283Y-117419314D01*
X125369032Y-117390715D01*
X125210769Y-117285533D01*
X125058664Y-117137710D01*
X124930444Y-116968019D01*
X124843834Y-116797231D01*
X124832105Y-116761509D01*
X124795289Y-116518498D01*
X124798095Y-116491141D01*
X125240323Y-116491141D01*
X125291979Y-116673863D01*
X125406024Y-116843171D01*
X125463943Y-116900914D01*
X125593098Y-116992419D01*
X125712165Y-117019494D01*
X125830032Y-116982729D01*
X125904024Y-116930146D01*
X125986280Y-116844411D01*
X126049051Y-116750902D01*
X126056287Y-116735412D01*
X126074473Y-116685967D01*
X126075793Y-116643970D01*
X126053201Y-116596368D01*
X125999654Y-116530103D01*
X125908105Y-116432121D01*
X125872635Y-116395067D01*
X125765302Y-116280524D01*
X125668960Y-116173148D01*
X125598355Y-116089566D01*
X125578117Y-116063034D01*
X125510330Y-115997279D01*
X125442489Y-115995953D01*
X125370308Y-116060022D01*
X125329929Y-116119027D01*
X125252493Y-116303398D01*
X125240323Y-116491141D01*
X124798095Y-116491141D01*
X124820335Y-116274321D01*
X124903201Y-116043232D01*
X125039844Y-115839484D01*
X125115367Y-115762705D01*
X125280380Y-115644417D01*
X125461374Y-115566057D01*
X125636945Y-115536135D01*
X125681604Y-115537544D01*
G36*
X135440870Y-115795795D02*
X135526298Y-115867759D01*
X135564671Y-115969696D01*
X135546544Y-116086877D01*
X135536216Y-116109104D01*
X135484660Y-116208800D01*
X135593371Y-116208800D01*
X135729724Y-116233167D01*
X135876152Y-116296387D01*
X136003549Y-116383637D01*
X136063974Y-116448452D01*
X136132636Y-116573135D01*
X136157019Y-116699243D01*
X136134742Y-116834081D01*
X136063424Y-116984954D01*
X135940684Y-117159165D01*
X135766335Y-117361627D01*
X135644641Y-117497656D01*
X135525602Y-117636285D01*
X135425524Y-117758254D01*
X135376020Y-117822670D01*
X135301137Y-117917184D01*
X135234228Y-117988205D01*
X135195451Y-118017163D01*
X135067421Y-118036531D01*
X134958024Y-117993040D01*
X134913125Y-117948366D01*
X134864662Y-117875114D01*
X134843011Y-117819369D01*
X134842933Y-117817294D01*
X134864940Y-117759380D01*
X134925468Y-117662991D01*
X135016274Y-117538653D01*
X135129120Y-117396893D01*
X135255763Y-117248238D01*
X135387963Y-117103215D01*
X135460706Y-117028161D01*
X135740400Y-116746854D01*
X135656346Y-116677706D01*
X135591282Y-116635967D01*
X135516833Y-116621885D01*
X135405229Y-116630319D01*
X135402346Y-116630692D01*
X135194173Y-116679860D01*
X134987042Y-116775948D01*
X134769842Y-116924825D01*
X134639733Y-117033384D01*
X134485110Y-117160786D01*
X134370364Y-117235296D01*
X134298503Y-117257883D01*
X134206069Y-117230341D01*
X134122255Y-117161166D01*
X134070543Y-117072932D01*
X134064000Y-117032443D01*
X134090482Y-116953521D01*
X134166257Y-116841193D01*
X134285821Y-116701861D01*
X134443668Y-116541932D01*
X134634292Y-116367808D01*
X134638601Y-116364050D01*
X134776969Y-116240514D01*
X134913861Y-116113179D01*
X135030807Y-115999479D01*
X135092500Y-115935616D01*
X135190119Y-115841470D01*
X135273771Y-115782711D01*
X135317831Y-115768534D01*
X135440870Y-115795795D01*
X135440870Y-115795795D01*
G37*
X135440870Y-115795795D02*
X135526298Y-115867759D01*
X135564671Y-115969696D01*
X135546544Y-116086877D01*
X135536216Y-116109104D01*
X135484660Y-116208800D01*
X135593371Y-116208800D01*
X135729724Y-116233167D01*
X135876152Y-116296387D01*
X136003549Y-116383637D01*
X136063974Y-116448452D01*
X136132636Y-116573135D01*
X136157019Y-116699243D01*
X136134742Y-116834081D01*
X136063424Y-116984954D01*
X135940684Y-117159165D01*
X135766335Y-117361627D01*
X135644641Y-117497656D01*
X135525602Y-117636285D01*
X135425524Y-117758254D01*
X135376020Y-117822670D01*
X135301137Y-117917184D01*
X135234228Y-117988205D01*
X135195451Y-118017163D01*
X135067421Y-118036531D01*
X134958024Y-117993040D01*
X134913125Y-117948366D01*
X134864662Y-117875114D01*
X134843011Y-117819369D01*
X134842933Y-117817294D01*
X134864940Y-117759380D01*
X134925468Y-117662991D01*
X135016274Y-117538653D01*
X135129120Y-117396893D01*
X135255763Y-117248238D01*
X135387963Y-117103215D01*
X135460706Y-117028161D01*
X135740400Y-116746854D01*
X135656346Y-116677706D01*
X135591282Y-116635967D01*
X135516833Y-116621885D01*
X135405229Y-116630319D01*
X135402346Y-116630692D01*
X135194173Y-116679860D01*
X134987042Y-116775948D01*
X134769842Y-116924825D01*
X134639733Y-117033384D01*
X134485110Y-117160786D01*
X134370364Y-117235296D01*
X134298503Y-117257883D01*
X134206069Y-117230341D01*
X134122255Y-117161166D01*
X134070543Y-117072932D01*
X134064000Y-117032443D01*
X134090482Y-116953521D01*
X134166257Y-116841193D01*
X134285821Y-116701861D01*
X134443668Y-116541932D01*
X134634292Y-116367808D01*
X134638601Y-116364050D01*
X134776969Y-116240514D01*
X134913861Y-116113179D01*
X135030807Y-115999479D01*
X135092500Y-115935616D01*
X135190119Y-115841470D01*
X135273771Y-115782711D01*
X135317831Y-115768534D01*
X135440870Y-115795795D01*
G36*
X123524003Y-116638060D02*
X123551382Y-116657464D01*
X123623426Y-116745819D01*
X123630080Y-116842593D01*
X123572464Y-116943391D01*
X123453103Y-117042905D01*
X123300940Y-117148679D01*
X123201466Y-117235682D01*
X123145952Y-117313706D01*
X123125668Y-117392541D01*
X123125067Y-117410823D01*
X123148927Y-117596912D01*
X123214682Y-117809231D01*
X123313596Y-118029022D01*
X123436933Y-118237525D01*
X123575954Y-118415981D01*
X123609576Y-118451151D01*
X123744856Y-118569061D01*
X123892911Y-118669993D01*
X124036143Y-118743828D01*
X124156955Y-118780450D01*
X124186173Y-118782667D01*
X124296922Y-118751063D01*
X124404527Y-118664599D01*
X124498961Y-118535800D01*
X124570197Y-118377189D01*
X124598672Y-118267481D01*
X124600674Y-118138848D01*
X124572208Y-117983296D01*
X124520938Y-117829886D01*
X124454525Y-117707680D01*
X124449230Y-117700689D01*
X124384650Y-117617778D01*
X124328642Y-117751489D01*
X124265775Y-117918480D01*
X124206053Y-118105449D01*
X124161959Y-118273108D01*
X124159866Y-118282705D01*
X124108769Y-118387774D01*
X124021950Y-118449305D01*
X123918273Y-118463856D01*
X123816606Y-118427990D01*
X123747536Y-118357884D01*
X123716945Y-118298312D01*
X123708208Y-118231758D01*
X123719825Y-118134078D01*
X123730203Y-118079022D01*
X123764172Y-117960750D01*
X123823451Y-117805429D01*
X123900090Y-117629608D01*
X123986138Y-117449835D01*
X124073643Y-117282660D01*
X124154654Y-117144633D01*
X124221220Y-117052302D01*
X124226042Y-117047000D01*
X124333161Y-116966788D01*
X124438914Y-116953556D01*
X124539564Y-117006590D01*
X124630811Y-117124191D01*
X124666797Y-117181643D01*
X124728615Y-117275357D01*
X124803469Y-117385957D01*
X124810245Y-117395838D01*
X124949057Y-117637762D01*
X125027780Y-117878244D01*
X125051401Y-118134630D01*
X125048127Y-118223031D01*
X125007416Y-118466334D01*
X124922317Y-118692390D01*
X124800456Y-118892224D01*
X124649458Y-119056856D01*
X124476949Y-119177310D01*
X124290554Y-119244607D01*
X124171004Y-119255695D01*
X124093605Y-119244126D01*
X123983206Y-119215699D01*
X123911253Y-119192754D01*
X123653513Y-119070445D01*
X123409413Y-118891994D01*
X123187061Y-118668767D01*
X122994567Y-118412128D01*
X122840040Y-118133444D01*
X122731589Y-117844078D01*
X122677324Y-117555398D01*
X122672634Y-117456794D01*
X122693698Y-117252238D01*
X122764413Y-117075702D01*
X122890797Y-116916925D01*
X123077741Y-116766422D01*
X123231871Y-116669351D01*
X123349790Y-116617403D01*
X123443250Y-116607874D01*
X123524003Y-116638060D01*
X123524003Y-116638060D01*
G37*
X123524003Y-116638060D02*
X123551382Y-116657464D01*
X123623426Y-116745819D01*
X123630080Y-116842593D01*
X123572464Y-116943391D01*
X123453103Y-117042905D01*
X123300940Y-117148679D01*
X123201466Y-117235682D01*
X123145952Y-117313706D01*
X123125668Y-117392541D01*
X123125067Y-117410823D01*
X123148927Y-117596912D01*
X123214682Y-117809231D01*
X123313596Y-118029022D01*
X123436933Y-118237525D01*
X123575954Y-118415981D01*
X123609576Y-118451151D01*
X123744856Y-118569061D01*
X123892911Y-118669993D01*
X124036143Y-118743828D01*
X124156955Y-118780450D01*
X124186173Y-118782667D01*
X124296922Y-118751063D01*
X124404527Y-118664599D01*
X124498961Y-118535800D01*
X124570197Y-118377189D01*
X124598672Y-118267481D01*
X124600674Y-118138848D01*
X124572208Y-117983296D01*
X124520938Y-117829886D01*
X124454525Y-117707680D01*
X124449230Y-117700689D01*
X124384650Y-117617778D01*
X124328642Y-117751489D01*
X124265775Y-117918480D01*
X124206053Y-118105449D01*
X124161959Y-118273108D01*
X124159866Y-118282705D01*
X124108769Y-118387774D01*
X124021950Y-118449305D01*
X123918273Y-118463856D01*
X123816606Y-118427990D01*
X123747536Y-118357884D01*
X123716945Y-118298312D01*
X123708208Y-118231758D01*
X123719825Y-118134078D01*
X123730203Y-118079022D01*
X123764172Y-117960750D01*
X123823451Y-117805429D01*
X123900090Y-117629608D01*
X123986138Y-117449835D01*
X124073643Y-117282660D01*
X124154654Y-117144633D01*
X124221220Y-117052302D01*
X124226042Y-117047000D01*
X124333161Y-116966788D01*
X124438914Y-116953556D01*
X124539564Y-117006590D01*
X124630811Y-117124191D01*
X124666797Y-117181643D01*
X124728615Y-117275357D01*
X124803469Y-117385957D01*
X124810245Y-117395838D01*
X124949057Y-117637762D01*
X125027780Y-117878244D01*
X125051401Y-118134630D01*
X125048127Y-118223031D01*
X125007416Y-118466334D01*
X124922317Y-118692390D01*
X124800456Y-118892224D01*
X124649458Y-119056856D01*
X124476949Y-119177310D01*
X124290554Y-119244607D01*
X124171004Y-119255695D01*
X124093605Y-119244126D01*
X123983206Y-119215699D01*
X123911253Y-119192754D01*
X123653513Y-119070445D01*
X123409413Y-118891994D01*
X123187061Y-118668767D01*
X122994567Y-118412128D01*
X122840040Y-118133444D01*
X122731589Y-117844078D01*
X122677324Y-117555398D01*
X122672634Y-117456794D01*
X122693698Y-117252238D01*
X122764413Y-117075702D01*
X122890797Y-116916925D01*
X123077741Y-116766422D01*
X123231871Y-116669351D01*
X123349790Y-116617403D01*
X123443250Y-116607874D01*
X123524003Y-116638060D01*
G36*
X136449860Y-117549247D02*
X136555877Y-117560584D01*
X136640234Y-117585340D01*
X136725913Y-117628309D01*
X136745440Y-117639633D01*
X136953385Y-117799751D01*
X137113458Y-118003278D01*
X137219645Y-118240370D01*
X137265318Y-118490571D01*
X137270807Y-118611464D01*
X137264221Y-118686474D01*
X137239514Y-118737181D01*
X137190641Y-118785165D01*
X137180344Y-118793889D01*
X137099342Y-118847049D01*
X136979028Y-118908813D01*
X136844376Y-118966451D01*
X136834286Y-118970293D01*
X136704071Y-119023616D01*
X136536346Y-119098318D01*
X136353504Y-119184166D01*
X136190792Y-119264393D01*
X135980626Y-119365488D01*
X135784658Y-119449546D01*
X135614307Y-119512323D01*
X135480994Y-119549574D01*
X135401733Y-119557732D01*
X135346745Y-119548050D01*
X135266267Y-119529932D01*
X135068679Y-119452320D01*
X134893462Y-119319173D01*
X134736471Y-119126538D01*
X134609746Y-118903947D01*
X134538933Y-118730587D01*
X134505692Y-118580081D01*
X134510772Y-118462318D01*
X134554925Y-118387186D01*
X134569773Y-118377458D01*
X134671848Y-118341853D01*
X134758270Y-118357952D01*
X134835353Y-118430300D01*
X134909409Y-118563442D01*
X134944529Y-118647200D01*
X135041399Y-118853110D01*
X135148335Y-118995211D01*
X135271234Y-119077300D01*
X135415994Y-119103173D01*
X135588511Y-119076627D01*
X135604573Y-119072095D01*
X135705116Y-119038943D01*
X135772559Y-119009182D01*
X135790431Y-118993387D01*
X135762589Y-118963826D01*
X135695084Y-118922690D01*
X135680364Y-118915240D01*
X135598301Y-118854057D01*
X135511242Y-118757617D01*
X135469467Y-118697615D01*
X135407623Y-118583830D01*
X135377530Y-118479793D01*
X135370091Y-118359249D01*
X135761607Y-118359249D01*
X135793765Y-118477761D01*
X135812478Y-118507660D01*
X135926348Y-118614275D01*
X136079916Y-118667028D01*
X136271648Y-118665799D01*
X136500013Y-118610464D01*
X136606627Y-118571000D01*
X136737565Y-118516941D01*
X136816861Y-118478164D01*
X136855986Y-118445361D01*
X136866409Y-118409222D01*
X136860494Y-118364950D01*
X136797793Y-118203307D01*
X136687721Y-118080142D01*
X136541504Y-117999959D01*
X136370368Y-117967262D01*
X136185538Y-117986554D01*
X136044921Y-118037735D01*
X135889457Y-118134643D01*
X135794262Y-118243346D01*
X135761607Y-118359249D01*
X135370091Y-118359249D01*
X135369498Y-118349652D01*
X135369577Y-118327976D01*
X135388267Y-118138630D01*
X135447857Y-117984384D01*
X135558998Y-117840301D01*
X135592170Y-117806761D01*
X135751569Y-117677402D01*
X135923993Y-117595447D01*
X136127088Y-117554402D01*
X136299200Y-117546533D01*
X136449860Y-117549247D01*
X136449860Y-117549247D01*
G37*
X136449860Y-117549247D02*
X136555877Y-117560584D01*
X136640234Y-117585340D01*
X136725913Y-117628309D01*
X136745440Y-117639633D01*
X136953385Y-117799751D01*
X137113458Y-118003278D01*
X137219645Y-118240370D01*
X137265318Y-118490571D01*
X137270807Y-118611464D01*
X137264221Y-118686474D01*
X137239514Y-118737181D01*
X137190641Y-118785165D01*
X137180344Y-118793889D01*
X137099342Y-118847049D01*
X136979028Y-118908813D01*
X136844376Y-118966451D01*
X136834286Y-118970293D01*
X136704071Y-119023616D01*
X136536346Y-119098318D01*
X136353504Y-119184166D01*
X136190792Y-119264393D01*
X135980626Y-119365488D01*
X135784658Y-119449546D01*
X135614307Y-119512323D01*
X135480994Y-119549574D01*
X135401733Y-119557732D01*
X135346745Y-119548050D01*
X135266267Y-119529932D01*
X135068679Y-119452320D01*
X134893462Y-119319173D01*
X134736471Y-119126538D01*
X134609746Y-118903947D01*
X134538933Y-118730587D01*
X134505692Y-118580081D01*
X134510772Y-118462318D01*
X134554925Y-118387186D01*
X134569773Y-118377458D01*
X134671848Y-118341853D01*
X134758270Y-118357952D01*
X134835353Y-118430300D01*
X134909409Y-118563442D01*
X134944529Y-118647200D01*
X135041399Y-118853110D01*
X135148335Y-118995211D01*
X135271234Y-119077300D01*
X135415994Y-119103173D01*
X135588511Y-119076627D01*
X135604573Y-119072095D01*
X135705116Y-119038943D01*
X135772559Y-119009182D01*
X135790431Y-118993387D01*
X135762589Y-118963826D01*
X135695084Y-118922690D01*
X135680364Y-118915240D01*
X135598301Y-118854057D01*
X135511242Y-118757617D01*
X135469467Y-118697615D01*
X135407623Y-118583830D01*
X135377530Y-118479793D01*
X135370091Y-118359249D01*
X135761607Y-118359249D01*
X135793765Y-118477761D01*
X135812478Y-118507660D01*
X135926348Y-118614275D01*
X136079916Y-118667028D01*
X136271648Y-118665799D01*
X136500013Y-118610464D01*
X136606627Y-118571000D01*
X136737565Y-118516941D01*
X136816861Y-118478164D01*
X136855986Y-118445361D01*
X136866409Y-118409222D01*
X136860494Y-118364950D01*
X136797793Y-118203307D01*
X136687721Y-118080142D01*
X136541504Y-117999959D01*
X136370368Y-117967262D01*
X136185538Y-117986554D01*
X136044921Y-118037735D01*
X135889457Y-118134643D01*
X135794262Y-118243346D01*
X135761607Y-118359249D01*
X135370091Y-118359249D01*
X135369498Y-118349652D01*
X135369577Y-118327976D01*
X135388267Y-118138630D01*
X135447857Y-117984384D01*
X135558998Y-117840301D01*
X135592170Y-117806761D01*
X135751569Y-117677402D01*
X135923993Y-117595447D01*
X136127088Y-117554402D01*
X136299200Y-117546533D01*
X136449860Y-117549247D01*
G36*
X129981983Y-116949193D02*
X130029129Y-117032594D01*
X130101022Y-117164357D01*
X130194506Y-117338568D01*
X130306423Y-117549312D01*
X130433616Y-117790675D01*
X130572928Y-118056743D01*
X130708466Y-118317069D01*
X130869664Y-118627479D01*
X131032588Y-118941187D01*
X131192205Y-119248503D01*
X131343481Y-119539737D01*
X131481384Y-119805200D01*
X131600880Y-120035201D01*
X131696935Y-120220050D01*
X131737555Y-120298200D01*
X132041244Y-120882400D01*
X133119986Y-120882400D01*
X133980438Y-119131876D01*
X134186113Y-119524538D01*
X134280226Y-119704800D01*
X134393180Y-119922132D01*
X134522040Y-120170813D01*
X134663867Y-120445123D01*
X134815728Y-120739342D01*
X134974685Y-121047749D01*
X135137802Y-121364625D01*
X135302144Y-121684249D01*
X135464773Y-122000901D01*
X135622755Y-122308861D01*
X135773152Y-122602408D01*
X135913028Y-122875823D01*
X136039448Y-123123385D01*
X136149475Y-123339374D01*
X136240174Y-123518069D01*
X136308607Y-123653751D01*
X136351839Y-123740700D01*
X136366933Y-123773195D01*
X136366933Y-123773200D01*
X136334757Y-123779805D01*
X136244988Y-123785603D01*
X136107763Y-123790266D01*
X135933221Y-123793471D01*
X135731500Y-123794892D01*
X135689600Y-123794933D01*
X135012267Y-123794933D01*
X135012267Y-124995929D01*
X135350933Y-124658533D01*
X135689600Y-124321138D01*
X135689600Y-126572000D01*
X130880533Y-126572000D01*
X130880533Y-125691467D01*
X129153333Y-125691467D01*
X129153333Y-126572000D01*
X124344267Y-126572000D01*
X124344267Y-125640667D01*
X124615200Y-125640667D01*
X124615200Y-126301067D01*
X128882400Y-126301067D01*
X128882400Y-125640667D01*
X131151466Y-125640667D01*
X131151466Y-126301067D01*
X135418667Y-126301067D01*
X135418667Y-124964604D01*
X135079958Y-125302042D01*
X134741250Y-125639479D01*
X134359724Y-125259035D01*
X133978198Y-124878592D01*
X133269268Y-125589942D01*
X132887742Y-125209498D01*
X132506216Y-124829055D01*
X132175369Y-125158661D01*
X132053210Y-125278477D01*
X131947288Y-125378832D01*
X131867103Y-125450989D01*
X131822155Y-125486209D01*
X131817018Y-125488267D01*
X131781759Y-125467557D01*
X131706588Y-125411272D01*
X131602790Y-125328185D01*
X131490133Y-125234267D01*
X131370641Y-125134242D01*
X131270266Y-125052764D01*
X131199968Y-124998558D01*
X131171109Y-124980267D01*
X131165067Y-125012422D01*
X131159778Y-125102041D01*
X131155548Y-125238857D01*
X131152681Y-125412603D01*
X131151484Y-125613011D01*
X131151466Y-125640667D01*
X128882400Y-125640667D01*
X128882400Y-124964604D01*
X128543692Y-125302042D01*
X128204983Y-125639479D01*
X127823457Y-125259035D01*
X127441931Y-124878592D01*
X127087467Y-125234267D01*
X126733002Y-125589942D01*
X126351476Y-125209498D01*
X125969950Y-124829055D01*
X125639102Y-125158661D01*
X125516944Y-125278477D01*
X125411022Y-125378832D01*
X125330836Y-125450989D01*
X125285888Y-125486209D01*
X125280751Y-125488267D01*
X125245493Y-125467557D01*
X125170321Y-125411272D01*
X125066524Y-125328185D01*
X124953866Y-125234267D01*
X124834375Y-125134242D01*
X124734000Y-125052764D01*
X124663701Y-124998558D01*
X124634843Y-124980267D01*
X124628801Y-125012422D01*
X124623512Y-125102041D01*
X124619281Y-125238857D01*
X124616414Y-125412603D01*
X124615217Y-125613011D01*
X124615200Y-125640667D01*
X124344267Y-125640667D01*
X124344267Y-124367273D01*
X124627803Y-124606036D01*
X124744348Y-124702638D01*
X124841754Y-124780491D01*
X124908587Y-124830638D01*
X124932603Y-124844800D01*
X124940121Y-124812919D01*
X124946471Y-124725215D01*
X124951139Y-124593593D01*
X124953609Y-124429959D01*
X124953866Y-124353733D01*
X124953866Y-123862667D01*
X124256778Y-123862667D01*
X124007628Y-123861111D01*
X123810589Y-123856574D01*
X123669753Y-123849254D01*
X123589211Y-123839349D01*
X123570978Y-123829571D01*
X123589762Y-123787811D01*
X123635441Y-123692118D01*
X123695142Y-123568933D01*
X124005600Y-123568933D01*
X124037684Y-123576217D01*
X124126813Y-123582537D01*
X124262300Y-123587496D01*
X124433459Y-123590692D01*
X124615200Y-123591733D01*
X125224800Y-123591733D01*
X125224800Y-124336800D01*
X125225234Y-124581323D01*
X125226940Y-124766249D01*
X125230522Y-124899714D01*
X125236584Y-124989850D01*
X125245731Y-125044792D01*
X125258568Y-125072673D01*
X125275698Y-125081629D01*
X125280162Y-125081867D01*
X125323969Y-125059185D01*
X125404391Y-124997152D01*
X125510630Y-124904788D01*
X125631886Y-124791112D01*
X125653364Y-124770172D01*
X125971204Y-124458477D01*
X126207602Y-124693064D01*
X126444000Y-124927650D01*
X126444000Y-123016000D01*
X125969866Y-123016000D01*
X125799465Y-123014677D01*
X125656231Y-123011043D01*
X125552283Y-123005602D01*
X125499738Y-122998857D01*
X125495733Y-122996300D01*
X125510810Y-122962651D01*
X125553637Y-122876036D01*
X125620604Y-122743528D01*
X125641437Y-122702734D01*
X125945873Y-122702734D01*
X125954255Y-122721691D01*
X126002951Y-122734420D01*
X126100134Y-122741841D01*
X126253977Y-122744872D01*
X126321843Y-122745067D01*
X126714933Y-122745067D01*
X126714933Y-123964267D01*
X126715629Y-124244043D01*
X126717611Y-124501211D01*
X126720716Y-124728213D01*
X126724783Y-124917494D01*
X126729651Y-125061497D01*
X126735159Y-125152664D01*
X126740969Y-125183467D01*
X126772996Y-125160712D01*
X126843119Y-125098220D01*
X126942046Y-125004650D01*
X127060485Y-124888661D01*
X127104452Y-124844747D01*
X127441901Y-124506028D01*
X127823533Y-124886578D01*
X128205165Y-125267127D01*
X128679249Y-124793951D01*
X129153333Y-124320774D01*
X129153333Y-125420533D01*
X130880533Y-125420533D01*
X130880533Y-124368801D01*
X131346200Y-124758324D01*
X131811866Y-125147846D01*
X132158985Y-124802210D01*
X132506103Y-124456574D01*
X132844785Y-124793985D01*
X133183466Y-125131396D01*
X133183680Y-124505498D01*
X133184615Y-124336069D01*
X133187127Y-124138321D01*
X133190930Y-123922723D01*
X133195738Y-123699750D01*
X133201265Y-123479873D01*
X133207227Y-123273563D01*
X133213337Y-123091293D01*
X133219309Y-122943535D01*
X133224858Y-122840761D01*
X133229697Y-122793443D01*
X133230436Y-122791660D01*
X133263576Y-122787955D01*
X133350497Y-122781128D01*
X133477373Y-122772206D01*
X133606508Y-122763730D01*
X133757393Y-122753257D01*
X133880945Y-122743060D01*
X133962993Y-122734415D01*
X133989484Y-122729271D01*
X133977868Y-122697390D01*
X133939609Y-122613146D01*
X133878597Y-122484639D01*
X133798721Y-122319971D01*
X133703868Y-122127240D01*
X133608550Y-121935765D01*
X133216881Y-121152993D01*
X129978011Y-121161630D01*
X126739140Y-121170267D01*
X126351066Y-121915334D01*
X126243309Y-122122587D01*
X126145663Y-122311094D01*
X126062601Y-122472166D01*
X125998594Y-122597113D01*
X125958114Y-122677246D01*
X125945873Y-122702734D01*
X125641437Y-122702734D01*
X125708103Y-122572198D01*
X125812527Y-122369119D01*
X125930267Y-122141364D01*
X126026344Y-121956292D01*
X126556955Y-120935985D01*
X126548779Y-120920161D01*
X133406062Y-120920161D01*
X133923130Y-121954959D01*
X134044583Y-122198877D01*
X134155296Y-122422878D01*
X134251868Y-122619949D01*
X134330894Y-122783077D01*
X134388973Y-122905247D01*
X134422702Y-122979446D01*
X134429899Y-122999528D01*
X134394146Y-123003996D01*
X134303554Y-123009327D01*
X134171002Y-123014911D01*
X134009367Y-123020140D01*
X133973668Y-123021116D01*
X133806131Y-123027231D01*
X133663558Y-123035594D01*
X133559350Y-123045186D01*
X133506905Y-123054989D01*
X133503887Y-123056804D01*
X133497227Y-123095548D01*
X133490137Y-123193294D01*
X133482972Y-123341316D01*
X133476082Y-123530887D01*
X133469820Y-123753281D01*
X133464539Y-123999770D01*
X133463552Y-124055870D01*
X133447066Y-125031067D01*
X133980830Y-124506135D01*
X134267201Y-124794001D01*
X134401380Y-124925060D01*
X134500664Y-125011856D01*
X134574367Y-125061440D01*
X134631803Y-125080866D01*
X134647452Y-125081867D01*
X134741333Y-125081867D01*
X134741333Y-123524000D01*
X135334000Y-123524000D01*
X135525856Y-123522962D01*
X135691823Y-123520083D01*
X135821062Y-123515712D01*
X135902735Y-123510202D01*
X135926667Y-123504815D01*
X135911628Y-123471967D01*
X135868670Y-123385261D01*
X135801026Y-123250983D01*
X135711930Y-123075416D01*
X135604616Y-122864846D01*
X135482319Y-122625559D01*
X135348273Y-122363839D01*
X135205712Y-122085972D01*
X135057870Y-121798242D01*
X134907981Y-121506934D01*
X134759280Y-121218335D01*
X134615001Y-120938728D01*
X134478378Y-120674400D01*
X134352645Y-120431634D01*
X134241037Y-120216716D01*
X134146787Y-120035932D01*
X134073130Y-119895566D01*
X134023300Y-119801904D01*
X134000532Y-119761230D01*
X133999744Y-119760179D01*
X133979474Y-119782366D01*
X133934998Y-119856889D01*
X133871105Y-119974869D01*
X133792584Y-120127427D01*
X133704225Y-120305685D01*
X133692698Y-120329393D01*
X133406062Y-120920161D01*
X126548779Y-120920161D01*
X126238011Y-120318744D01*
X126141495Y-120134787D01*
X126054807Y-119974914D01*
X125982799Y-119847639D01*
X125930320Y-119761471D01*
X125902222Y-119724924D01*
X125899430Y-119724685D01*
X125880414Y-119759478D01*
X125834888Y-119848499D01*
X125765950Y-119985460D01*
X125676698Y-120164073D01*
X125570230Y-120378050D01*
X125449643Y-120621102D01*
X125318036Y-120886942D01*
X125178505Y-121169282D01*
X125034149Y-121461832D01*
X124888066Y-121758306D01*
X124743354Y-122052416D01*
X124603109Y-122337872D01*
X124470430Y-122608387D01*
X124348415Y-122857673D01*
X124240161Y-123079442D01*
X124148767Y-123267406D01*
X124077330Y-123415276D01*
X124028947Y-123516764D01*
X124006716Y-123565583D01*
X124005600Y-123568933D01*
X123695142Y-123568933D01*
X123705224Y-123548132D01*
X123796319Y-123361491D01*
X123905931Y-123137833D01*
X124031271Y-122882796D01*
X124169543Y-122602020D01*
X124317958Y-122301143D01*
X124473722Y-121985803D01*
X124634042Y-121661638D01*
X124796127Y-121334287D01*
X124957183Y-121009389D01*
X125114420Y-120692581D01*
X125265043Y-120389503D01*
X125406262Y-120105793D01*
X125535283Y-119847089D01*
X125649314Y-119619030D01*
X125745563Y-119427253D01*
X125821237Y-119277399D01*
X125873544Y-119175104D01*
X125899692Y-119126008D01*
X125902133Y-119122435D01*
X125921421Y-119151091D01*
X125967712Y-119232513D01*
X126036992Y-119359256D01*
X126125244Y-119523873D01*
X126228453Y-119718918D01*
X126342604Y-119936944D01*
X126376266Y-120001647D01*
X126833467Y-120881657D01*
X127415813Y-120882029D01*
X127998160Y-120882400D01*
X128308885Y-120882400D01*
X130020865Y-120882400D01*
X130353764Y-120881873D01*
X130664867Y-120880361D01*
X130947851Y-120877965D01*
X131196396Y-120874789D01*
X131404181Y-120870934D01*
X131564885Y-120866504D01*
X131672185Y-120861599D01*
X131719762Y-120856323D01*
X131721555Y-120854864D01*
X131704263Y-120820422D01*
X131659309Y-120732814D01*
X131590131Y-120598660D01*
X131500165Y-120424581D01*
X131392845Y-120217198D01*
X131271609Y-119983131D01*
X131139893Y-119729001D01*
X131001132Y-119461428D01*
X130858763Y-119187033D01*
X130716221Y-118912437D01*
X130576942Y-118644260D01*
X130444364Y-118389123D01*
X130321920Y-118153647D01*
X130213048Y-117944452D01*
X130121184Y-117768158D01*
X130049764Y-117631387D01*
X130002223Y-117540759D01*
X129981997Y-117502895D01*
X129981578Y-117502223D01*
X129965568Y-117529373D01*
X129923069Y-117610464D01*
X129857481Y-117738652D01*
X129772208Y-117907098D01*
X129670651Y-118108960D01*
X129556213Y-118337398D01*
X129432297Y-118585571D01*
X129302304Y-118846637D01*
X129169638Y-119113756D01*
X129037699Y-119380087D01*
X128909892Y-119638789D01*
X128789617Y-119883020D01*
X128680277Y-120105941D01*
X128585275Y-120300710D01*
X128508013Y-120460486D01*
X128456257Y-120569134D01*
X128308885Y-120882400D01*
X127998160Y-120882400D01*
X128781346Y-119299134D01*
X128939476Y-118979149D01*
X129094447Y-118664964D01*
X129242495Y-118364248D01*
X129379857Y-118084672D01*
X129502770Y-117833906D01*
X129607470Y-117619621D01*
X129690192Y-117449486D01*
X129747174Y-117331172D01*
X129753475Y-117317933D01*
X129825358Y-117169644D01*
X129887885Y-117046450D01*
X129935045Y-116959780D01*
X129960825Y-116921063D01*
X129962742Y-116920069D01*
X129981983Y-116949193D01*
X129981983Y-116949193D01*
G37*
X129981983Y-116949193D02*
X130029129Y-117032594D01*
X130101022Y-117164357D01*
X130194506Y-117338568D01*
X130306423Y-117549312D01*
X130433616Y-117790675D01*
X130572928Y-118056743D01*
X130708466Y-118317069D01*
X130869664Y-118627479D01*
X131032588Y-118941187D01*
X131192205Y-119248503D01*
X131343481Y-119539737D01*
X131481384Y-119805200D01*
X131600880Y-120035201D01*
X131696935Y-120220050D01*
X131737555Y-120298200D01*
X132041244Y-120882400D01*
X133119986Y-120882400D01*
X133980438Y-119131876D01*
X134186113Y-119524538D01*
X134280226Y-119704800D01*
X134393180Y-119922132D01*
X134522040Y-120170813D01*
X134663867Y-120445123D01*
X134815728Y-120739342D01*
X134974685Y-121047749D01*
X135137802Y-121364625D01*
X135302144Y-121684249D01*
X135464773Y-122000901D01*
X135622755Y-122308861D01*
X135773152Y-122602408D01*
X135913028Y-122875823D01*
X136039448Y-123123385D01*
X136149475Y-123339374D01*
X136240174Y-123518069D01*
X136308607Y-123653751D01*
X136351839Y-123740700D01*
X136366933Y-123773195D01*
X136366933Y-123773200D01*
X136334757Y-123779805D01*
X136244988Y-123785603D01*
X136107763Y-123790266D01*
X135933221Y-123793471D01*
X135731500Y-123794892D01*
X135689600Y-123794933D01*
X135012267Y-123794933D01*
X135012267Y-124995929D01*
X135350933Y-124658533D01*
X135689600Y-124321138D01*
X135689600Y-126572000D01*
X130880533Y-126572000D01*
X130880533Y-125691467D01*
X129153333Y-125691467D01*
X129153333Y-126572000D01*
X124344267Y-126572000D01*
X124344267Y-125640667D01*
X124615200Y-125640667D01*
X124615200Y-126301067D01*
X128882400Y-126301067D01*
X128882400Y-125640667D01*
X131151466Y-125640667D01*
X131151466Y-126301067D01*
X135418667Y-126301067D01*
X135418667Y-124964604D01*
X135079958Y-125302042D01*
X134741250Y-125639479D01*
X134359724Y-125259035D01*
X133978198Y-124878592D01*
X133269268Y-125589942D01*
X132887742Y-125209498D01*
X132506216Y-124829055D01*
X132175369Y-125158661D01*
X132053210Y-125278477D01*
X131947288Y-125378832D01*
X131867103Y-125450989D01*
X131822155Y-125486209D01*
X131817018Y-125488267D01*
X131781759Y-125467557D01*
X131706588Y-125411272D01*
X131602790Y-125328185D01*
X131490133Y-125234267D01*
X131370641Y-125134242D01*
X131270266Y-125052764D01*
X131199968Y-124998558D01*
X131171109Y-124980267D01*
X131165067Y-125012422D01*
X131159778Y-125102041D01*
X131155548Y-125238857D01*
X131152681Y-125412603D01*
X131151484Y-125613011D01*
X131151466Y-125640667D01*
X128882400Y-125640667D01*
X128882400Y-124964604D01*
X128543692Y-125302042D01*
X128204983Y-125639479D01*
X127823457Y-125259035D01*
X127441931Y-124878592D01*
X127087467Y-125234267D01*
X126733002Y-125589942D01*
X126351476Y-125209498D01*
X125969950Y-124829055D01*
X125639102Y-125158661D01*
X125516944Y-125278477D01*
X125411022Y-125378832D01*
X125330836Y-125450989D01*
X125285888Y-125486209D01*
X125280751Y-125488267D01*
X125245493Y-125467557D01*
X125170321Y-125411272D01*
X125066524Y-125328185D01*
X124953866Y-125234267D01*
X124834375Y-125134242D01*
X124734000Y-125052764D01*
X124663701Y-124998558D01*
X124634843Y-124980267D01*
X124628801Y-125012422D01*
X124623512Y-125102041D01*
X124619281Y-125238857D01*
X124616414Y-125412603D01*
X124615217Y-125613011D01*
X124615200Y-125640667D01*
X124344267Y-125640667D01*
X124344267Y-124367273D01*
X124627803Y-124606036D01*
X124744348Y-124702638D01*
X124841754Y-124780491D01*
X124908587Y-124830638D01*
X124932603Y-124844800D01*
X124940121Y-124812919D01*
X124946471Y-124725215D01*
X124951139Y-124593593D01*
X124953609Y-124429959D01*
X124953866Y-124353733D01*
X124953866Y-123862667D01*
X124256778Y-123862667D01*
X124007628Y-123861111D01*
X123810589Y-123856574D01*
X123669753Y-123849254D01*
X123589211Y-123839349D01*
X123570978Y-123829571D01*
X123589762Y-123787811D01*
X123635441Y-123692118D01*
X123695142Y-123568933D01*
X124005600Y-123568933D01*
X124037684Y-123576217D01*
X124126813Y-123582537D01*
X124262300Y-123587496D01*
X124433459Y-123590692D01*
X124615200Y-123591733D01*
X125224800Y-123591733D01*
X125224800Y-124336800D01*
X125225234Y-124581323D01*
X125226940Y-124766249D01*
X125230522Y-124899714D01*
X125236584Y-124989850D01*
X125245731Y-125044792D01*
X125258568Y-125072673D01*
X125275698Y-125081629D01*
X125280162Y-125081867D01*
X125323969Y-125059185D01*
X125404391Y-124997152D01*
X125510630Y-124904788D01*
X125631886Y-124791112D01*
X125653364Y-124770172D01*
X125971204Y-124458477D01*
X126207602Y-124693064D01*
X126444000Y-124927650D01*
X126444000Y-123016000D01*
X125969866Y-123016000D01*
X125799465Y-123014677D01*
X125656231Y-123011043D01*
X125552283Y-123005602D01*
X125499738Y-122998857D01*
X125495733Y-122996300D01*
X125510810Y-122962651D01*
X125553637Y-122876036D01*
X125620604Y-122743528D01*
X125641437Y-122702734D01*
X125945873Y-122702734D01*
X125954255Y-122721691D01*
X126002951Y-122734420D01*
X126100134Y-122741841D01*
X126253977Y-122744872D01*
X126321843Y-122745067D01*
X126714933Y-122745067D01*
X126714933Y-123964267D01*
X126715629Y-124244043D01*
X126717611Y-124501211D01*
X126720716Y-124728213D01*
X126724783Y-124917494D01*
X126729651Y-125061497D01*
X126735159Y-125152664D01*
X126740969Y-125183467D01*
X126772996Y-125160712D01*
X126843119Y-125098220D01*
X126942046Y-125004650D01*
X127060485Y-124888661D01*
X127104452Y-124844747D01*
X127441901Y-124506028D01*
X127823533Y-124886578D01*
X128205165Y-125267127D01*
X128679249Y-124793951D01*
X129153333Y-124320774D01*
X129153333Y-125420533D01*
X130880533Y-125420533D01*
X130880533Y-124368801D01*
X131346200Y-124758324D01*
X131811866Y-125147846D01*
X132158985Y-124802210D01*
X132506103Y-124456574D01*
X132844785Y-124793985D01*
X133183466Y-125131396D01*
X133183680Y-124505498D01*
X133184615Y-124336069D01*
X133187127Y-124138321D01*
X133190930Y-123922723D01*
X133195738Y-123699750D01*
X133201265Y-123479873D01*
X133207227Y-123273563D01*
X133213337Y-123091293D01*
X133219309Y-122943535D01*
X133224858Y-122840761D01*
X133229697Y-122793443D01*
X133230436Y-122791660D01*
X133263576Y-122787955D01*
X133350497Y-122781128D01*
X133477373Y-122772206D01*
X133606508Y-122763730D01*
X133757393Y-122753257D01*
X133880945Y-122743060D01*
X133962993Y-122734415D01*
X133989484Y-122729271D01*
X133977868Y-122697390D01*
X133939609Y-122613146D01*
X133878597Y-122484639D01*
X133798721Y-122319971D01*
X133703868Y-122127240D01*
X133608550Y-121935765D01*
X133216881Y-121152993D01*
X129978011Y-121161630D01*
X126739140Y-121170267D01*
X126351066Y-121915334D01*
X126243309Y-122122587D01*
X126145663Y-122311094D01*
X126062601Y-122472166D01*
X125998594Y-122597113D01*
X125958114Y-122677246D01*
X125945873Y-122702734D01*
X125641437Y-122702734D01*
X125708103Y-122572198D01*
X125812527Y-122369119D01*
X125930267Y-122141364D01*
X126026344Y-121956292D01*
X126556955Y-120935985D01*
X126548779Y-120920161D01*
X133406062Y-120920161D01*
X133923130Y-121954959D01*
X134044583Y-122198877D01*
X134155296Y-122422878D01*
X134251868Y-122619949D01*
X134330894Y-122783077D01*
X134388973Y-122905247D01*
X134422702Y-122979446D01*
X134429899Y-122999528D01*
X134394146Y-123003996D01*
X134303554Y-123009327D01*
X134171002Y-123014911D01*
X134009367Y-123020140D01*
X133973668Y-123021116D01*
X133806131Y-123027231D01*
X133663558Y-123035594D01*
X133559350Y-123045186D01*
X133506905Y-123054989D01*
X133503887Y-123056804D01*
X133497227Y-123095548D01*
X133490137Y-123193294D01*
X133482972Y-123341316D01*
X133476082Y-123530887D01*
X133469820Y-123753281D01*
X133464539Y-123999770D01*
X133463552Y-124055870D01*
X133447066Y-125031067D01*
X133980830Y-124506135D01*
X134267201Y-124794001D01*
X134401380Y-124925060D01*
X134500664Y-125011856D01*
X134574367Y-125061440D01*
X134631803Y-125080866D01*
X134647452Y-125081867D01*
X134741333Y-125081867D01*
X134741333Y-123524000D01*
X135334000Y-123524000D01*
X135525856Y-123522962D01*
X135691823Y-123520083D01*
X135821062Y-123515712D01*
X135902735Y-123510202D01*
X135926667Y-123504815D01*
X135911628Y-123471967D01*
X135868670Y-123385261D01*
X135801026Y-123250983D01*
X135711930Y-123075416D01*
X135604616Y-122864846D01*
X135482319Y-122625559D01*
X135348273Y-122363839D01*
X135205712Y-122085972D01*
X135057870Y-121798242D01*
X134907981Y-121506934D01*
X134759280Y-121218335D01*
X134615001Y-120938728D01*
X134478378Y-120674400D01*
X134352645Y-120431634D01*
X134241037Y-120216716D01*
X134146787Y-120035932D01*
X134073130Y-119895566D01*
X134023300Y-119801904D01*
X134000532Y-119761230D01*
X133999744Y-119760179D01*
X133979474Y-119782366D01*
X133934998Y-119856889D01*
X133871105Y-119974869D01*
X133792584Y-120127427D01*
X133704225Y-120305685D01*
X133692698Y-120329393D01*
X133406062Y-120920161D01*
X126548779Y-120920161D01*
X126238011Y-120318744D01*
X126141495Y-120134787D01*
X126054807Y-119974914D01*
X125982799Y-119847639D01*
X125930320Y-119761471D01*
X125902222Y-119724924D01*
X125899430Y-119724685D01*
X125880414Y-119759478D01*
X125834888Y-119848499D01*
X125765950Y-119985460D01*
X125676698Y-120164073D01*
X125570230Y-120378050D01*
X125449643Y-120621102D01*
X125318036Y-120886942D01*
X125178505Y-121169282D01*
X125034149Y-121461832D01*
X124888066Y-121758306D01*
X124743354Y-122052416D01*
X124603109Y-122337872D01*
X124470430Y-122608387D01*
X124348415Y-122857673D01*
X124240161Y-123079442D01*
X124148767Y-123267406D01*
X124077330Y-123415276D01*
X124028947Y-123516764D01*
X124006716Y-123565583D01*
X124005600Y-123568933D01*
X123695142Y-123568933D01*
X123705224Y-123548132D01*
X123796319Y-123361491D01*
X123905931Y-123137833D01*
X124031271Y-122882796D01*
X124169543Y-122602020D01*
X124317958Y-122301143D01*
X124473722Y-121985803D01*
X124634042Y-121661638D01*
X124796127Y-121334287D01*
X124957183Y-121009389D01*
X125114420Y-120692581D01*
X125265043Y-120389503D01*
X125406262Y-120105793D01*
X125535283Y-119847089D01*
X125649314Y-119619030D01*
X125745563Y-119427253D01*
X125821237Y-119277399D01*
X125873544Y-119175104D01*
X125899692Y-119126008D01*
X125902133Y-119122435D01*
X125921421Y-119151091D01*
X125967712Y-119232513D01*
X126036992Y-119359256D01*
X126125244Y-119523873D01*
X126228453Y-119718918D01*
X126342604Y-119936944D01*
X126376266Y-120001647D01*
X126833467Y-120881657D01*
X127415813Y-120882029D01*
X127998160Y-120882400D01*
X128308885Y-120882400D01*
X130020865Y-120882400D01*
X130353764Y-120881873D01*
X130664867Y-120880361D01*
X130947851Y-120877965D01*
X131196396Y-120874789D01*
X131404181Y-120870934D01*
X131564885Y-120866504D01*
X131672185Y-120861599D01*
X131719762Y-120856323D01*
X131721555Y-120854864D01*
X131704263Y-120820422D01*
X131659309Y-120732814D01*
X131590131Y-120598660D01*
X131500165Y-120424581D01*
X131392845Y-120217198D01*
X131271609Y-119983131D01*
X131139893Y-119729001D01*
X131001132Y-119461428D01*
X130858763Y-119187033D01*
X130716221Y-118912437D01*
X130576942Y-118644260D01*
X130444364Y-118389123D01*
X130321920Y-118153647D01*
X130213048Y-117944452D01*
X130121184Y-117768158D01*
X130049764Y-117631387D01*
X130002223Y-117540759D01*
X129981997Y-117502895D01*
X129981578Y-117502223D01*
X129965568Y-117529373D01*
X129923069Y-117610464D01*
X129857481Y-117738652D01*
X129772208Y-117907098D01*
X129670651Y-118108960D01*
X129556213Y-118337398D01*
X129432297Y-118585571D01*
X129302304Y-118846637D01*
X129169638Y-119113756D01*
X129037699Y-119380087D01*
X128909892Y-119638789D01*
X128789617Y-119883020D01*
X128680277Y-120105941D01*
X128585275Y-120300710D01*
X128508013Y-120460486D01*
X128456257Y-120569134D01*
X128308885Y-120882400D01*
X127998160Y-120882400D01*
X128781346Y-119299134D01*
X128939476Y-118979149D01*
X129094447Y-118664964D01*
X129242495Y-118364248D01*
X129379857Y-118084672D01*
X129502770Y-117833906D01*
X129607470Y-117619621D01*
X129690192Y-117449486D01*
X129747174Y-117331172D01*
X129753475Y-117317933D01*
X129825358Y-117169644D01*
X129887885Y-117046450D01*
X129935045Y-116959780D01*
X129960825Y-116921063D01*
X129962742Y-116920069D01*
X129981983Y-116949193D01*
G36*
X126545723Y-127236584D02*
X126767782Y-127269437D01*
X126980014Y-127351971D01*
X127174400Y-127475277D01*
X127342917Y-127630444D01*
X127477543Y-127808561D01*
X127570256Y-128000717D01*
X127613034Y-128198001D01*
X127597857Y-128391504D01*
X127595085Y-128402218D01*
X127532761Y-128541431D01*
X127430599Y-128677644D01*
X127308094Y-128788747D01*
X127203088Y-128846731D01*
X127123305Y-128879158D01*
X127093970Y-128913216D01*
X127107833Y-128970602D01*
X127139587Y-129036738D01*
X127175636Y-129135717D01*
X127204485Y-129260699D01*
X127211412Y-129307598D01*
X127207233Y-129492490D01*
X127145495Y-129642471D01*
X127024669Y-129760690D01*
X126976978Y-129790260D01*
X126833796Y-129844068D01*
X126648518Y-129875713D01*
X126443486Y-129883898D01*
X126241043Y-129867325D01*
X126113235Y-129840410D01*
X125948085Y-129787974D01*
X125778952Y-129723864D01*
X125621528Y-129655126D01*
X125491505Y-129588804D01*
X125404574Y-129531943D01*
X125385666Y-129513765D01*
X125339669Y-129425241D01*
X125326400Y-129352297D01*
X125341435Y-129300873D01*
X125356437Y-129264402D01*
X125840296Y-129264402D01*
X125883508Y-129285298D01*
X125973714Y-129317713D01*
X126092400Y-129355946D01*
X126221054Y-129394296D01*
X126341161Y-129427060D01*
X126434208Y-129448538D01*
X126444000Y-129450316D01*
X126561856Y-129470022D01*
X126632430Y-129477674D01*
X126675220Y-129472548D01*
X126709721Y-129453921D01*
X126729400Y-129439725D01*
X126773286Y-129371347D01*
X126765003Y-129277568D01*
X126710701Y-129167434D01*
X126616532Y-129049988D01*
X126488649Y-128934275D01*
X126333203Y-128829337D01*
X126302537Y-128812164D01*
X126110275Y-128707810D01*
X125969767Y-128980712D01*
X125909123Y-129101800D01*
X125864219Y-129197863D01*
X125841437Y-129254914D01*
X125840296Y-129264402D01*
X125356437Y-129264402D01*
X125384154Y-129197020D01*
X125450978Y-129048396D01*
X125538328Y-128862658D01*
X125642626Y-128647465D01*
X125760293Y-128410475D01*
X125807772Y-128316569D01*
X126354814Y-128316569D01*
X126397526Y-128356021D01*
X126486148Y-128401707D01*
X126600295Y-128445964D01*
X126719585Y-128481133D01*
X126823632Y-128499551D01*
X126844538Y-128500636D01*
X126950043Y-128480808D01*
X127049581Y-128409806D01*
X127060381Y-128399229D01*
X127126861Y-128321667D01*
X127149972Y-128252590D01*
X127144520Y-128178774D01*
X127083927Y-128011108D01*
X126961811Y-127869556D01*
X126810193Y-127771054D01*
X126716336Y-127726022D01*
X126650665Y-127699278D01*
X126630836Y-127695790D01*
X126597609Y-127747738D01*
X126549835Y-127840008D01*
X126495002Y-127955759D01*
X126440600Y-128078146D01*
X126394118Y-128190328D01*
X126363045Y-128275462D01*
X126354814Y-128316569D01*
X125807772Y-128316569D01*
X125842990Y-128246915D01*
X126359580Y-127232400D01*
X126545723Y-127236584D01*
X126545723Y-127236584D01*
G37*
X126545723Y-127236584D02*
X126767782Y-127269437D01*
X126980014Y-127351971D01*
X127174400Y-127475277D01*
X127342917Y-127630444D01*
X127477543Y-127808561D01*
X127570256Y-128000717D01*
X127613034Y-128198001D01*
X127597857Y-128391504D01*
X127595085Y-128402218D01*
X127532761Y-128541431D01*
X127430599Y-128677644D01*
X127308094Y-128788747D01*
X127203088Y-128846731D01*
X127123305Y-128879158D01*
X127093970Y-128913216D01*
X127107833Y-128970602D01*
X127139587Y-129036738D01*
X127175636Y-129135717D01*
X127204485Y-129260699D01*
X127211412Y-129307598D01*
X127207233Y-129492490D01*
X127145495Y-129642471D01*
X127024669Y-129760690D01*
X126976978Y-129790260D01*
X126833796Y-129844068D01*
X126648518Y-129875713D01*
X126443486Y-129883898D01*
X126241043Y-129867325D01*
X126113235Y-129840410D01*
X125948085Y-129787974D01*
X125778952Y-129723864D01*
X125621528Y-129655126D01*
X125491505Y-129588804D01*
X125404574Y-129531943D01*
X125385666Y-129513765D01*
X125339669Y-129425241D01*
X125326400Y-129352297D01*
X125341435Y-129300873D01*
X125356437Y-129264402D01*
X125840296Y-129264402D01*
X125883508Y-129285298D01*
X125973714Y-129317713D01*
X126092400Y-129355946D01*
X126221054Y-129394296D01*
X126341161Y-129427060D01*
X126434208Y-129448538D01*
X126444000Y-129450316D01*
X126561856Y-129470022D01*
X126632430Y-129477674D01*
X126675220Y-129472548D01*
X126709721Y-129453921D01*
X126729400Y-129439725D01*
X126773286Y-129371347D01*
X126765003Y-129277568D01*
X126710701Y-129167434D01*
X126616532Y-129049988D01*
X126488649Y-128934275D01*
X126333203Y-128829337D01*
X126302537Y-128812164D01*
X126110275Y-128707810D01*
X125969767Y-128980712D01*
X125909123Y-129101800D01*
X125864219Y-129197863D01*
X125841437Y-129254914D01*
X125840296Y-129264402D01*
X125356437Y-129264402D01*
X125384154Y-129197020D01*
X125450978Y-129048396D01*
X125538328Y-128862658D01*
X125642626Y-128647465D01*
X125760293Y-128410475D01*
X125807772Y-128316569D01*
X126354814Y-128316569D01*
X126397526Y-128356021D01*
X126486148Y-128401707D01*
X126600295Y-128445964D01*
X126719585Y-128481133D01*
X126823632Y-128499551D01*
X126844538Y-128500636D01*
X126950043Y-128480808D01*
X127049581Y-128409806D01*
X127060381Y-128399229D01*
X127126861Y-128321667D01*
X127149972Y-128252590D01*
X127144520Y-128178774D01*
X127083927Y-128011108D01*
X126961811Y-127869556D01*
X126810193Y-127771054D01*
X126716336Y-127726022D01*
X126650665Y-127699278D01*
X126630836Y-127695790D01*
X126597609Y-127747738D01*
X126549835Y-127840008D01*
X126495002Y-127955759D01*
X126440600Y-128078146D01*
X126394118Y-128190328D01*
X126363045Y-128275462D01*
X126354814Y-128316569D01*
X125807772Y-128316569D01*
X125842990Y-128246915D01*
X126359580Y-127232400D01*
X126545723Y-127236584D01*
G36*
X133138959Y-127295617D02*
X133211355Y-127344955D01*
X133241917Y-127395116D01*
X133290375Y-127498156D01*
X133352065Y-127643084D01*
X133422323Y-127818913D01*
X133496487Y-128014654D01*
X133502416Y-128030755D01*
X133593336Y-128268741D01*
X133697581Y-128526313D01*
X133805542Y-128780656D01*
X133907611Y-129008958D01*
X133967737Y-129135624D01*
X134058453Y-129323143D01*
X134120999Y-129460355D01*
X134158849Y-129556841D01*
X134175475Y-129622181D01*
X134174351Y-129665955D01*
X134166966Y-129685181D01*
X134088913Y-129771957D01*
X133984355Y-129813290D01*
X133913199Y-129809694D01*
X133826600Y-129818035D01*
X133772420Y-129861318D01*
X133649277Y-129961397D01*
X133484532Y-130046093D01*
X133298796Y-130109235D01*
X133112681Y-130144650D01*
X132946802Y-130146167D01*
X132872786Y-130130683D01*
X132646492Y-130024313D01*
X132463638Y-129866206D01*
X132325114Y-129657322D01*
X132246685Y-129453870D01*
X132208567Y-129214281D01*
X132208685Y-129213054D01*
X132635741Y-129213054D01*
X132670897Y-129373386D01*
X132739302Y-129518865D01*
X132835436Y-129629239D01*
X132887194Y-129662519D01*
X133046414Y-129713530D01*
X133202250Y-129701084D01*
X133313440Y-129656669D01*
X133416071Y-129582113D01*
X133497476Y-129485564D01*
X133504240Y-129473779D01*
X133567765Y-129355821D01*
X133439667Y-129068335D01*
X133359502Y-128904192D01*
X133286610Y-128795896D01*
X133211316Y-128733718D01*
X133123941Y-128707928D01*
X133078924Y-128705600D01*
X132979836Y-128727814D01*
X132862445Y-128783924D01*
X132754469Y-128858130D01*
X132687251Y-128928839D01*
X132639352Y-129058121D01*
X132635741Y-129213054D01*
X132208685Y-129213054D01*
X132230742Y-128984471D01*
X132307455Y-128773617D01*
X132432951Y-128590900D01*
X132601477Y-128445499D01*
X132807277Y-128346592D01*
X132963225Y-128310897D01*
X133053982Y-128294301D01*
X133108585Y-128276294D01*
X133115733Y-128268964D01*
X133104102Y-128230248D01*
X133072864Y-128143564D01*
X133027502Y-128023862D01*
X132998044Y-127948153D01*
X132925591Y-127758327D01*
X132879335Y-127619493D01*
X132858042Y-127520713D01*
X132860476Y-127451049D01*
X132885402Y-127399563D01*
X132931151Y-127355659D01*
X133042210Y-127293422D01*
X133138959Y-127295617D01*
X133138959Y-127295617D01*
G37*
X133138959Y-127295617D02*
X133211355Y-127344955D01*
X133241917Y-127395116D01*
X133290375Y-127498156D01*
X133352065Y-127643084D01*
X133422323Y-127818913D01*
X133496487Y-128014654D01*
X133502416Y-128030755D01*
X133593336Y-128268741D01*
X133697581Y-128526313D01*
X133805542Y-128780656D01*
X133907611Y-129008958D01*
X133967737Y-129135624D01*
X134058453Y-129323143D01*
X134120999Y-129460355D01*
X134158849Y-129556841D01*
X134175475Y-129622181D01*
X134174351Y-129665955D01*
X134166966Y-129685181D01*
X134088913Y-129771957D01*
X133984355Y-129813290D01*
X133913199Y-129809694D01*
X133826600Y-129818035D01*
X133772420Y-129861318D01*
X133649277Y-129961397D01*
X133484532Y-130046093D01*
X133298796Y-130109235D01*
X133112681Y-130144650D01*
X132946802Y-130146167D01*
X132872786Y-130130683D01*
X132646492Y-130024313D01*
X132463638Y-129866206D01*
X132325114Y-129657322D01*
X132246685Y-129453870D01*
X132208567Y-129214281D01*
X132208685Y-129213054D01*
X132635741Y-129213054D01*
X132670897Y-129373386D01*
X132739302Y-129518865D01*
X132835436Y-129629239D01*
X132887194Y-129662519D01*
X133046414Y-129713530D01*
X133202250Y-129701084D01*
X133313440Y-129656669D01*
X133416071Y-129582113D01*
X133497476Y-129485564D01*
X133504240Y-129473779D01*
X133567765Y-129355821D01*
X133439667Y-129068335D01*
X133359502Y-128904192D01*
X133286610Y-128795896D01*
X133211316Y-128733718D01*
X133123941Y-128707928D01*
X133078924Y-128705600D01*
X132979836Y-128727814D01*
X132862445Y-128783924D01*
X132754469Y-128858130D01*
X132687251Y-128928839D01*
X132639352Y-129058121D01*
X132635741Y-129213054D01*
X132208685Y-129213054D01*
X132230742Y-128984471D01*
X132307455Y-128773617D01*
X132432951Y-128590900D01*
X132601477Y-128445499D01*
X132807277Y-128346592D01*
X132963225Y-128310897D01*
X133053982Y-128294301D01*
X133108585Y-128276294D01*
X133115733Y-128268964D01*
X133104102Y-128230248D01*
X133072864Y-128143564D01*
X133027502Y-128023862D01*
X132998044Y-127948153D01*
X132925591Y-127758327D01*
X132879335Y-127619493D01*
X132858042Y-127520713D01*
X132860476Y-127451049D01*
X132885402Y-127399563D01*
X132931151Y-127355659D01*
X133042210Y-127293422D01*
X133138959Y-127295617D01*
G36*
X128290710Y-128828549D02*
X128456082Y-128859990D01*
X128563589Y-128903454D01*
X128720294Y-129029792D01*
X128830808Y-129196258D01*
X128894430Y-129392796D01*
X128910458Y-129609348D01*
X128878189Y-129835856D01*
X128796923Y-130062264D01*
X128665956Y-130278513D01*
X128660103Y-130286247D01*
X128506923Y-130433921D01*
X128316741Y-130534502D01*
X128105549Y-130583080D01*
X127889341Y-130574743D01*
X127796116Y-130551578D01*
X127624234Y-130465108D01*
X127469326Y-130329051D01*
X127351409Y-130161484D01*
X127340829Y-130140394D01*
X127282006Y-129943720D01*
X127278862Y-129777477D01*
X127734083Y-129777477D01*
X127741087Y-129919852D01*
X127785357Y-130021296D01*
X127888924Y-130116302D01*
X128017517Y-130156574D01*
X128153779Y-130140215D01*
X128270108Y-130074269D01*
X128368646Y-129949662D01*
X128428811Y-129798858D01*
X128464805Y-129607135D01*
X128453606Y-129450873D01*
X128397559Y-129335416D01*
X128299009Y-129266111D01*
X128186980Y-129247467D01*
X128057534Y-129278759D01*
X127939664Y-129362545D01*
X127841228Y-129483685D01*
X127770082Y-129627042D01*
X127734083Y-129777477D01*
X127278862Y-129777477D01*
X127277935Y-129728466D01*
X127323624Y-129507960D01*
X127414076Y-129295528D01*
X127544297Y-129104499D01*
X127709293Y-128948197D01*
X127812346Y-128882247D01*
X127943367Y-128838958D01*
X128111314Y-128821298D01*
X128290710Y-128828549D01*
X128290710Y-128828549D01*
G37*
X128290710Y-128828549D02*
X128456082Y-128859990D01*
X128563589Y-128903454D01*
X128720294Y-129029792D01*
X128830808Y-129196258D01*
X128894430Y-129392796D01*
X128910458Y-129609348D01*
X128878189Y-129835856D01*
X128796923Y-130062264D01*
X128665956Y-130278513D01*
X128660103Y-130286247D01*
X128506923Y-130433921D01*
X128316741Y-130534502D01*
X128105549Y-130583080D01*
X127889341Y-130574743D01*
X127796116Y-130551578D01*
X127624234Y-130465108D01*
X127469326Y-130329051D01*
X127351409Y-130161484D01*
X127340829Y-130140394D01*
X127282006Y-129943720D01*
X127278862Y-129777477D01*
X127734083Y-129777477D01*
X127741087Y-129919852D01*
X127785357Y-130021296D01*
X127888924Y-130116302D01*
X128017517Y-130156574D01*
X128153779Y-130140215D01*
X128270108Y-130074269D01*
X128368646Y-129949662D01*
X128428811Y-129798858D01*
X128464805Y-129607135D01*
X128453606Y-129450873D01*
X128397559Y-129335416D01*
X128299009Y-129266111D01*
X128186980Y-129247467D01*
X128057534Y-129278759D01*
X127939664Y-129362545D01*
X127841228Y-129483685D01*
X127770082Y-129627042D01*
X127734083Y-129777477D01*
X127278862Y-129777477D01*
X127277935Y-129728466D01*
X127323624Y-129507960D01*
X127414076Y-129295528D01*
X127544297Y-129104499D01*
X127709293Y-128948197D01*
X127812346Y-128882247D01*
X127943367Y-128838958D01*
X128111314Y-128821298D01*
X128290710Y-128828549D01*
G36*
X131920463Y-128803297D02*
X132026542Y-128888494D01*
X132097627Y-129022642D01*
X132129650Y-129199124D01*
X132127593Y-129333383D01*
X132109468Y-129430324D01*
X132064813Y-129487465D01*
X132019695Y-129513380D01*
X131905321Y-129540272D01*
X131812242Y-129503522D01*
X131743179Y-129404626D01*
X131723665Y-129350625D01*
X131693404Y-129266328D01*
X131666373Y-129218044D01*
X131659114Y-129213600D01*
X131600830Y-129236429D01*
X131517306Y-129294366D01*
X131427954Y-129371584D01*
X131352183Y-129452258D01*
X131330072Y-129481881D01*
X131288724Y-129552028D01*
X131264727Y-129623092D01*
X131257919Y-129708949D01*
X131268134Y-129823473D01*
X131295207Y-129980539D01*
X131322556Y-130115805D01*
X131362061Y-130313689D01*
X131385322Y-130457178D01*
X131392334Y-130557636D01*
X131383094Y-130626426D01*
X131357598Y-130674911D01*
X131322359Y-130709281D01*
X131218170Y-130764724D01*
X131118507Y-130753886D01*
X131052950Y-130712200D01*
X131025280Y-130679795D01*
X130998447Y-130624317D01*
X130970046Y-130537184D01*
X130937672Y-130409814D01*
X130898919Y-130233625D01*
X130851382Y-130000034D01*
X130846531Y-129975600D01*
X130793308Y-129702008D01*
X130754347Y-129486985D01*
X130729104Y-129323008D01*
X130717033Y-129202552D01*
X130717589Y-129118091D01*
X130730227Y-129062102D01*
X130754403Y-129027058D01*
X130776707Y-129011592D01*
X130895814Y-128978355D01*
X131010188Y-128998041D01*
X131076487Y-129044291D01*
X131120832Y-129086712D01*
X131154803Y-129087488D01*
X131203157Y-129042971D01*
X131221740Y-129022876D01*
X131339965Y-128927798D01*
X131495743Y-128846027D01*
X131659873Y-128790520D01*
X131783456Y-128773664D01*
X131920463Y-128803297D01*
X131920463Y-128803297D01*
G37*
X131920463Y-128803297D02*
X132026542Y-128888494D01*
X132097627Y-129022642D01*
X132129650Y-129199124D01*
X132127593Y-129333383D01*
X132109468Y-129430324D01*
X132064813Y-129487465D01*
X132019695Y-129513380D01*
X131905321Y-129540272D01*
X131812242Y-129503522D01*
X131743179Y-129404626D01*
X131723665Y-129350625D01*
X131693404Y-129266328D01*
X131666373Y-129218044D01*
X131659114Y-129213600D01*
X131600830Y-129236429D01*
X131517306Y-129294366D01*
X131427954Y-129371584D01*
X131352183Y-129452258D01*
X131330072Y-129481881D01*
X131288724Y-129552028D01*
X131264727Y-129623092D01*
X131257919Y-129708949D01*
X131268134Y-129823473D01*
X131295207Y-129980539D01*
X131322556Y-130115805D01*
X131362061Y-130313689D01*
X131385322Y-130457178D01*
X131392334Y-130557636D01*
X131383094Y-130626426D01*
X131357598Y-130674911D01*
X131322359Y-130709281D01*
X131218170Y-130764724D01*
X131118507Y-130753886D01*
X131052950Y-130712200D01*
X131025280Y-130679795D01*
X130998447Y-130624317D01*
X130970046Y-130537184D01*
X130937672Y-130409814D01*
X130898919Y-130233625D01*
X130851382Y-130000034D01*
X130846531Y-129975600D01*
X130793308Y-129702008D01*
X130754347Y-129486985D01*
X130729104Y-129323008D01*
X130717033Y-129202552D01*
X130717589Y-129118091D01*
X130730227Y-129062102D01*
X130754403Y-129027058D01*
X130776707Y-129011592D01*
X130895814Y-128978355D01*
X131010188Y-128998041D01*
X131076487Y-129044291D01*
X131120832Y-129086712D01*
X131154803Y-129087488D01*
X131203157Y-129042971D01*
X131221740Y-129022876D01*
X131339965Y-128927798D01*
X131495743Y-128846027D01*
X131659873Y-128790520D01*
X131783456Y-128773664D01*
X131920463Y-128803297D01*
G36*
X130104577Y-129032226D02*
X130296406Y-129072939D01*
X130383697Y-129107860D01*
X130516240Y-129190089D01*
X130585857Y-129279330D01*
X130597338Y-129384014D01*
X130579966Y-129453081D01*
X130563326Y-129534628D01*
X130550371Y-129662470D01*
X130542939Y-129815194D01*
X130541867Y-129897008D01*
X130544817Y-130069443D01*
X130556131Y-130197545D01*
X130579500Y-130304554D01*
X130618619Y-130413708D01*
X130627298Y-130434618D01*
X130674430Y-130558721D01*
X130691055Y-130640848D01*
X130680299Y-130697819D01*
X130677322Y-130703754D01*
X130631449Y-130759852D01*
X130567291Y-130811013D01*
X130511999Y-130836705D01*
X130501760Y-130836526D01*
X130465136Y-130823832D01*
X130440267Y-130814536D01*
X130376406Y-130779945D01*
X130311301Y-130734589D01*
X130260564Y-130700039D01*
X130214622Y-130692012D01*
X130148653Y-130711051D01*
X130079893Y-130739646D01*
X129870439Y-130798843D01*
X129658725Y-130804134D01*
X129457856Y-130759348D01*
X129280933Y-130668315D01*
X129141061Y-130534862D01*
X129087103Y-130449550D01*
X129027593Y-130279827D01*
X128998849Y-130078038D01*
X128999503Y-130017183D01*
X129458133Y-130017183D01*
X129479704Y-130201011D01*
X129542406Y-130331623D01*
X129643225Y-130407064D01*
X129779147Y-130425378D01*
X129947158Y-130384608D01*
X129993992Y-130364878D01*
X130083478Y-130318289D01*
X130120901Y-130278118D01*
X130118898Y-130230750D01*
X130118798Y-130230436D01*
X130109877Y-130169628D01*
X130102627Y-130058369D01*
X130097925Y-129913934D01*
X130096592Y-129792157D01*
X130094693Y-129615949D01*
X130085973Y-129498104D01*
X130064842Y-129429264D01*
X130025710Y-129400071D01*
X129962990Y-129401165D01*
X129875526Y-129421988D01*
X129701706Y-129501076D01*
X129571187Y-129629241D01*
X129488505Y-129800015D01*
X129458193Y-130006932D01*
X129458133Y-130017183D01*
X128999503Y-130017183D01*
X129001099Y-129868832D01*
X129034570Y-129676860D01*
X129078919Y-129561633D01*
X129214208Y-129365693D01*
X129393618Y-129196211D01*
X129535233Y-129104682D01*
X129698996Y-129048003D01*
X129897109Y-129023882D01*
X130104577Y-129032226D01*
X130104577Y-129032226D01*
G37*
X130104577Y-129032226D02*
X130296406Y-129072939D01*
X130383697Y-129107860D01*
X130516240Y-129190089D01*
X130585857Y-129279330D01*
X130597338Y-129384014D01*
X130579966Y-129453081D01*
X130563326Y-129534628D01*
X130550371Y-129662470D01*
X130542939Y-129815194D01*
X130541867Y-129897008D01*
X130544817Y-130069443D01*
X130556131Y-130197545D01*
X130579500Y-130304554D01*
X130618619Y-130413708D01*
X130627298Y-130434618D01*
X130674430Y-130558721D01*
X130691055Y-130640848D01*
X130680299Y-130697819D01*
X130677322Y-130703754D01*
X130631449Y-130759852D01*
X130567291Y-130811013D01*
X130511999Y-130836705D01*
X130501760Y-130836526D01*
X130465136Y-130823832D01*
X130440267Y-130814536D01*
X130376406Y-130779945D01*
X130311301Y-130734589D01*
X130260564Y-130700039D01*
X130214622Y-130692012D01*
X130148653Y-130711051D01*
X130079893Y-130739646D01*
X129870439Y-130798843D01*
X129658725Y-130804134D01*
X129457856Y-130759348D01*
X129280933Y-130668315D01*
X129141061Y-130534862D01*
X129087103Y-130449550D01*
X129027593Y-130279827D01*
X128998849Y-130078038D01*
X128999503Y-130017183D01*
X129458133Y-130017183D01*
X129479704Y-130201011D01*
X129542406Y-130331623D01*
X129643225Y-130407064D01*
X129779147Y-130425378D01*
X129947158Y-130384608D01*
X129993992Y-130364878D01*
X130083478Y-130318289D01*
X130120901Y-130278118D01*
X130118898Y-130230750D01*
X130118798Y-130230436D01*
X130109877Y-130169628D01*
X130102627Y-130058369D01*
X130097925Y-129913934D01*
X130096592Y-129792157D01*
X130094693Y-129615949D01*
X130085973Y-129498104D01*
X130064842Y-129429264D01*
X130025710Y-129400071D01*
X129962990Y-129401165D01*
X129875526Y-129421988D01*
X129701706Y-129501076D01*
X129571187Y-129629241D01*
X129488505Y-129800015D01*
X129458193Y-130006932D01*
X129458133Y-130017183D01*
X128999503Y-130017183D01*
X129001099Y-129868832D01*
X129034570Y-129676860D01*
X129078919Y-129561633D01*
X129214208Y-129365693D01*
X129393618Y-129196211D01*
X129535233Y-129104682D01*
X129698996Y-129048003D01*
X129897109Y-129023882D01*
X130104577Y-129032226D01*
G36*
X130987929Y-112440711D02*
X131766833Y-112558530D01*
X132540562Y-112741722D01*
X133023266Y-112890952D01*
X133770722Y-113178414D01*
X134485303Y-113523120D01*
X135164353Y-113922102D01*
X135805215Y-114372393D01*
X136405233Y-114871027D01*
X136961750Y-115415037D01*
X137472108Y-116001457D01*
X137933652Y-116627319D01*
X138343723Y-117289657D01*
X138699666Y-117985504D01*
X138998824Y-118711893D01*
X139238539Y-119465857D01*
X139360936Y-119968000D01*
X139426629Y-120288672D01*
X139477153Y-120575940D01*
X139514294Y-120847599D01*
X139539838Y-121121448D01*
X139555571Y-121415284D01*
X139563279Y-121746903D01*
X139564844Y-122000000D01*
X139563529Y-122329280D01*
X139557665Y-122607726D01*
X139545728Y-122852169D01*
X139526195Y-123079441D01*
X139497542Y-123306373D01*
X139458246Y-123549797D01*
X139406784Y-123826545D01*
X139393261Y-123895688D01*
X139206361Y-124671534D01*
X138956508Y-125425368D01*
X138645904Y-126153703D01*
X138276746Y-126853052D01*
X137851236Y-127519928D01*
X137371571Y-128150843D01*
X136839952Y-128742310D01*
X136258577Y-129290843D01*
X135712501Y-129731565D01*
X135049003Y-130187198D01*
X134355842Y-130582110D01*
X133632646Y-130916454D01*
X132879044Y-131190384D01*
X132094666Y-131404052D01*
X131303866Y-131553908D01*
X131129630Y-131575036D01*
X130906714Y-131594283D01*
X130649984Y-131611086D01*
X130374307Y-131624884D01*
X130094549Y-131635114D01*
X129825575Y-131641214D01*
X129582253Y-131642621D01*
X129379447Y-131638774D01*
X129254933Y-131631406D01*
X128416995Y-131523985D01*
X127609260Y-131356288D01*
X126832289Y-131128572D01*
X126086640Y-130841094D01*
X125372875Y-130494111D01*
X124691552Y-130087881D01*
X124043232Y-129622659D01*
X123428473Y-129098705D01*
X123142451Y-128823396D01*
X122589449Y-128224314D01*
X122095981Y-127593291D01*
X121661848Y-126929925D01*
X121286853Y-126233818D01*
X120970799Y-125504569D01*
X120713489Y-124741776D01*
X120514723Y-123945041D01*
X120393406Y-123253067D01*
X120370412Y-123044642D01*
X120352616Y-122785826D01*
X120340125Y-122491838D01*
X120333048Y-122177891D01*
X120332775Y-122121784D01*
X120669627Y-122121784D01*
X120678279Y-122491535D01*
X120696477Y-122842461D01*
X120724112Y-123157401D01*
X120748834Y-123346100D01*
X120873629Y-124016347D01*
X121036062Y-124646428D01*
X121242363Y-125256186D01*
X121498759Y-125865466D01*
X121618748Y-126117581D01*
X121980400Y-126788044D01*
X122385397Y-127411369D01*
X122841039Y-127997767D01*
X123354628Y-128557447D01*
X123386295Y-128589251D01*
X123970751Y-129126534D01*
X124593117Y-129608359D01*
X125250635Y-130033432D01*
X125940547Y-130400459D01*
X126660093Y-130708147D01*
X127406516Y-130955203D01*
X128177058Y-131140334D01*
X128968960Y-131262245D01*
X129120570Y-131278054D01*
X129352774Y-131293189D01*
X129634582Y-131300052D01*
X129948438Y-131299170D01*
X130276787Y-131291065D01*
X130602073Y-131276262D01*
X130906741Y-131255287D01*
X131173233Y-131228662D01*
X131286933Y-131213356D01*
X132069899Y-131062420D01*
X132828443Y-130849776D01*
X133559653Y-130577548D01*
X134260616Y-130247857D01*
X134928422Y-129862825D01*
X135560157Y-129424575D01*
X136152910Y-128935227D01*
X136703769Y-128396906D01*
X137209822Y-127811732D01*
X137668156Y-127181827D01*
X138075860Y-126509314D01*
X138279651Y-126117581D01*
X138559570Y-125499478D01*
X138786318Y-124888974D01*
X138966130Y-124266202D01*
X139105240Y-123611293D01*
X139149309Y-123346100D01*
X139188319Y-123022070D01*
X139214550Y-122650071D01*
X139228008Y-122248651D01*
X139228702Y-121836356D01*
X139216637Y-121431733D01*
X139191823Y-121053328D01*
X139154266Y-120719689D01*
X139148237Y-120679200D01*
X138992634Y-119881835D01*
X138776108Y-119113429D01*
X138499204Y-118375060D01*
X138162465Y-117667807D01*
X137766433Y-116992749D01*
X137311651Y-116350964D01*
X136798664Y-115743532D01*
X136512105Y-115444616D01*
X135925112Y-114904403D01*
X135302285Y-114421495D01*
X134644894Y-113996531D01*
X133954209Y-113630149D01*
X133231500Y-113322987D01*
X132478039Y-113075686D01*
X131695096Y-112888883D01*
X131286933Y-112817435D01*
X130955180Y-112777481D01*
X130575850Y-112750743D01*
X130167801Y-112737221D01*
X129749887Y-112736915D01*
X129340964Y-112749825D01*
X128959887Y-112775950D01*
X128625513Y-112815292D01*
X128611467Y-112817435D01*
X127823623Y-112972063D01*
X127061292Y-113187753D01*
X126327267Y-113462483D01*
X125624342Y-113794231D01*
X124955312Y-114180975D01*
X124322970Y-114620692D01*
X123730111Y-115111360D01*
X123179529Y-115650957D01*
X122674018Y-116237461D01*
X122216371Y-116868850D01*
X121809384Y-117543102D01*
X121643170Y-117860643D01*
X121382843Y-118420199D01*
X121168011Y-118970248D01*
X120993107Y-119528740D01*
X120852568Y-120113627D01*
X120740827Y-120742861D01*
X120732660Y-120797734D01*
X120702038Y-121071181D01*
X120681398Y-121394446D01*
X120670630Y-121750367D01*
X120669627Y-122121784D01*
X120332775Y-122121784D01*
X120331492Y-121859202D01*
X120335566Y-121550987D01*
X120345378Y-121268461D01*
X120361035Y-121026841D01*
X120376573Y-120882400D01*
X120521139Y-120052594D01*
X120725056Y-119254952D01*
X120988110Y-118489909D01*
X121310090Y-117757902D01*
X121690783Y-117059367D01*
X122129977Y-116394739D01*
X122627458Y-115764454D01*
X123142000Y-115209734D01*
X123732388Y-114666047D01*
X124358509Y-114178133D01*
X125016643Y-113746866D01*
X125703071Y-113373118D01*
X126414075Y-113057761D01*
X127145936Y-112801668D01*
X127894934Y-112605712D01*
X128657352Y-112470766D01*
X129429469Y-112397702D01*
X130207568Y-112387393D01*
X130987929Y-112440711D01*
X130987929Y-112440711D01*
G37*
X130987929Y-112440711D02*
X131766833Y-112558530D01*
X132540562Y-112741722D01*
X133023266Y-112890952D01*
X133770722Y-113178414D01*
X134485303Y-113523120D01*
X135164353Y-113922102D01*
X135805215Y-114372393D01*
X136405233Y-114871027D01*
X136961750Y-115415037D01*
X137472108Y-116001457D01*
X137933652Y-116627319D01*
X138343723Y-117289657D01*
X138699666Y-117985504D01*
X138998824Y-118711893D01*
X139238539Y-119465857D01*
X139360936Y-119968000D01*
X139426629Y-120288672D01*
X139477153Y-120575940D01*
X139514294Y-120847599D01*
X139539838Y-121121448D01*
X139555571Y-121415284D01*
X139563279Y-121746903D01*
X139564844Y-122000000D01*
X139563529Y-122329280D01*
X139557665Y-122607726D01*
X139545728Y-122852169D01*
X139526195Y-123079441D01*
X139497542Y-123306373D01*
X139458246Y-123549797D01*
X139406784Y-123826545D01*
X139393261Y-123895688D01*
X139206361Y-124671534D01*
X138956508Y-125425368D01*
X138645904Y-126153703D01*
X138276746Y-126853052D01*
X137851236Y-127519928D01*
X137371571Y-128150843D01*
X136839952Y-128742310D01*
X136258577Y-129290843D01*
X135712501Y-129731565D01*
X135049003Y-130187198D01*
X134355842Y-130582110D01*
X133632646Y-130916454D01*
X132879044Y-131190384D01*
X132094666Y-131404052D01*
X131303866Y-131553908D01*
X131129630Y-131575036D01*
X130906714Y-131594283D01*
X130649984Y-131611086D01*
X130374307Y-131624884D01*
X130094549Y-131635114D01*
X129825575Y-131641214D01*
X129582253Y-131642621D01*
X129379447Y-131638774D01*
X129254933Y-131631406D01*
X128416995Y-131523985D01*
X127609260Y-131356288D01*
X126832289Y-131128572D01*
X126086640Y-130841094D01*
X125372875Y-130494111D01*
X124691552Y-130087881D01*
X124043232Y-129622659D01*
X123428473Y-129098705D01*
X123142451Y-128823396D01*
X122589449Y-128224314D01*
X122095981Y-127593291D01*
X121661848Y-126929925D01*
X121286853Y-126233818D01*
X120970799Y-125504569D01*
X120713489Y-124741776D01*
X120514723Y-123945041D01*
X120393406Y-123253067D01*
X120370412Y-123044642D01*
X120352616Y-122785826D01*
X120340125Y-122491838D01*
X120333048Y-122177891D01*
X120332775Y-122121784D01*
X120669627Y-122121784D01*
X120678279Y-122491535D01*
X120696477Y-122842461D01*
X120724112Y-123157401D01*
X120748834Y-123346100D01*
X120873629Y-124016347D01*
X121036062Y-124646428D01*
X121242363Y-125256186D01*
X121498759Y-125865466D01*
X121618748Y-126117581D01*
X121980400Y-126788044D01*
X122385397Y-127411369D01*
X122841039Y-127997767D01*
X123354628Y-128557447D01*
X123386295Y-128589251D01*
X123970751Y-129126534D01*
X124593117Y-129608359D01*
X125250635Y-130033432D01*
X125940547Y-130400459D01*
X126660093Y-130708147D01*
X127406516Y-130955203D01*
X128177058Y-131140334D01*
X128968960Y-131262245D01*
X129120570Y-131278054D01*
X129352774Y-131293189D01*
X129634582Y-131300052D01*
X129948438Y-131299170D01*
X130276787Y-131291065D01*
X130602073Y-131276262D01*
X130906741Y-131255287D01*
X131173233Y-131228662D01*
X131286933Y-131213356D01*
X132069899Y-131062420D01*
X132828443Y-130849776D01*
X133559653Y-130577548D01*
X134260616Y-130247857D01*
X134928422Y-129862825D01*
X135560157Y-129424575D01*
X136152910Y-128935227D01*
X136703769Y-128396906D01*
X137209822Y-127811732D01*
X137668156Y-127181827D01*
X138075860Y-126509314D01*
X138279651Y-126117581D01*
X138559570Y-125499478D01*
X138786318Y-124888974D01*
X138966130Y-124266202D01*
X139105240Y-123611293D01*
X139149309Y-123346100D01*
X139188319Y-123022070D01*
X139214550Y-122650071D01*
X139228008Y-122248651D01*
X139228702Y-121836356D01*
X139216637Y-121431733D01*
X139191823Y-121053328D01*
X139154266Y-120719689D01*
X139148237Y-120679200D01*
X138992634Y-119881835D01*
X138776108Y-119113429D01*
X138499204Y-118375060D01*
X138162465Y-117667807D01*
X137766433Y-116992749D01*
X137311651Y-116350964D01*
X136798664Y-115743532D01*
X136512105Y-115444616D01*
X135925112Y-114904403D01*
X135302285Y-114421495D01*
X134644894Y-113996531D01*
X133954209Y-113630149D01*
X133231500Y-113322987D01*
X132478039Y-113075686D01*
X131695096Y-112888883D01*
X131286933Y-112817435D01*
X130955180Y-112777481D01*
X130575850Y-112750743D01*
X130167801Y-112737221D01*
X129749887Y-112736915D01*
X129340964Y-112749825D01*
X128959887Y-112775950D01*
X128625513Y-112815292D01*
X128611467Y-112817435D01*
X127823623Y-112972063D01*
X127061292Y-113187753D01*
X126327267Y-113462483D01*
X125624342Y-113794231D01*
X124955312Y-114180975D01*
X124322970Y-114620692D01*
X123730111Y-115111360D01*
X123179529Y-115650957D01*
X122674018Y-116237461D01*
X122216371Y-116868850D01*
X121809384Y-117543102D01*
X121643170Y-117860643D01*
X121382843Y-118420199D01*
X121168011Y-118970248D01*
X120993107Y-119528740D01*
X120852568Y-120113627D01*
X120740827Y-120742861D01*
X120732660Y-120797734D01*
X120702038Y-121071181D01*
X120681398Y-121394446D01*
X120670630Y-121750367D01*
X120669627Y-122121784D01*
X120332775Y-122121784D01*
X120331492Y-121859202D01*
X120335566Y-121550987D01*
X120345378Y-121268461D01*
X120361035Y-121026841D01*
X120376573Y-120882400D01*
X120521139Y-120052594D01*
X120725056Y-119254952D01*
X120988110Y-118489909D01*
X121310090Y-117757902D01*
X121690783Y-117059367D01*
X122129977Y-116394739D01*
X122627458Y-115764454D01*
X123142000Y-115209734D01*
X123732388Y-114666047D01*
X124358509Y-114178133D01*
X125016643Y-113746866D01*
X125703071Y-113373118D01*
X126414075Y-113057761D01*
X127145936Y-112801668D01*
X127894934Y-112605712D01*
X128657352Y-112470766D01*
X129429469Y-112397702D01*
X130207568Y-112387393D01*
X130987929Y-112440711D01*
D11*
G04 #@! TO.C,CN1*
X136490000Y-93830000D02*
X136490000Y-91170000D01*
X126270000Y-93830000D02*
X136490000Y-93830000D01*
X126270000Y-91170000D02*
X136490000Y-91170000D01*
X126270000Y-93830000D02*
X126270000Y-91170000D01*
X125000000Y-93830000D02*
X123670000Y-93830000D01*
X123670000Y-93830000D02*
X123670000Y-92500000D01*
G04 #@! TD*
M02*
