G04 #@! TF.GenerationSoftware,KiCad,Pcbnew,(5.0.2)-1*
G04 #@! TF.CreationDate,2020-09-09T21:47:35+09:00*
G04 #@! TF.ProjectId,Tile,54696c65-2e6b-4696-9361-645f70636258,rev?*
G04 #@! TF.SameCoordinates,Original*
G04 #@! TF.FileFunction,Paste,Top*
G04 #@! TF.FilePolarity,Positive*
%FSLAX46Y46*%
G04 Gerber Fmt 4.6, Leading zero omitted, Abs format (unit mm)*
G04 Created by KiCad (PCBNEW (5.0.2)-1) date 2020/09/09 21:47:35*
%MOMM*%
%LPD*%
G01*
G04 APERTURE LIST*
%ADD10C,0.800000*%
%ADD11C,0.100000*%
%ADD12R,0.800000X0.800000*%
G04 APERTURE END LIST*
D10*
G04 #@! TO.C,D1*
X97300000Y-91656922D03*
D11*
G36*
X97153590Y-91110512D02*
X97846410Y-91510512D01*
X97446410Y-92203332D01*
X96753590Y-91803332D01*
X97153590Y-91110512D01*
X97153590Y-91110512D01*
G37*
D10*
X98100000Y-90271282D03*
D11*
G36*
X97953590Y-89724872D02*
X98646410Y-90124872D01*
X98246410Y-90817692D01*
X97553590Y-90417692D01*
X97953590Y-89724872D01*
X97953590Y-89724872D01*
G37*
G04 #@! TD*
D10*
G04 #@! TO.C,D2*
X94137500Y-112847166D03*
D11*
G36*
X93591090Y-112700756D02*
X94283910Y-112300756D01*
X94683910Y-112993576D01*
X93991090Y-113393576D01*
X93591090Y-112700756D01*
X93591090Y-112700756D01*
G37*
D10*
X93337500Y-111461526D03*
D11*
G36*
X92791090Y-111315116D02*
X93483910Y-110915116D01*
X93883910Y-111607936D01*
X93191090Y-112007936D01*
X92791090Y-111315116D01*
X92791090Y-111315116D01*
G37*
G04 #@! TD*
D10*
G04 #@! TO.C,D3*
X101312500Y-125274631D03*
D11*
G36*
X100766090Y-125128221D02*
X101458910Y-124728221D01*
X101858910Y-125421041D01*
X101166090Y-125821041D01*
X100766090Y-125128221D01*
X100766090Y-125128221D01*
G37*
D10*
X102112500Y-126660271D03*
D11*
G36*
X101566090Y-126513861D02*
X102258910Y-126113861D01*
X102658910Y-126806681D01*
X101966090Y-127206681D01*
X101566090Y-126513861D01*
X101566090Y-126513861D01*
G37*
G04 #@! TD*
D12*
G04 #@! TO.C,D4*
X117200000Y-140000000D03*
X118800000Y-140000000D03*
G04 #@! TD*
G04 #@! TO.C,D5*
X134800000Y-140000000D03*
X133200000Y-140000000D03*
G04 #@! TD*
D10*
G04 #@! TO.C,D6*
X154700000Y-132199485D03*
D11*
G36*
X154846410Y-132745895D02*
X154153590Y-132345895D01*
X154553590Y-131653075D01*
X155246410Y-132053075D01*
X154846410Y-132745895D01*
X154846410Y-132745895D01*
G37*
D10*
X153900000Y-133585125D03*
D11*
G36*
X154046410Y-134131535D02*
X153353590Y-133731535D01*
X153753590Y-133038715D01*
X154446410Y-133438715D01*
X154046410Y-134131535D01*
X154046410Y-134131535D01*
G37*
G04 #@! TD*
D10*
G04 #@! TO.C,D7*
X161900000Y-119728718D03*
D11*
G36*
X162046410Y-120275128D02*
X161353590Y-119875128D01*
X161753590Y-119182308D01*
X162446410Y-119582308D01*
X162046410Y-120275128D01*
X162046410Y-120275128D01*
G37*
D10*
X162700000Y-118343078D03*
D11*
G36*
X162846410Y-118889488D02*
X162153590Y-118489488D01*
X162553590Y-117796668D01*
X163246410Y-118196668D01*
X162846410Y-118889488D01*
X162846410Y-118889488D01*
G37*
G04 #@! TD*
D10*
G04 #@! TO.C,D8*
X166700000Y-98585125D03*
D11*
G36*
X167246410Y-98731535D02*
X166553590Y-99131535D01*
X166153590Y-98438715D01*
X166846410Y-98038715D01*
X167246410Y-98731535D01*
X167246410Y-98731535D01*
G37*
D10*
X165900000Y-97199485D03*
D11*
G36*
X166446410Y-97345895D02*
X165753590Y-97745895D01*
X165353590Y-97053075D01*
X166046410Y-96653075D01*
X166446410Y-97345895D01*
X166446410Y-97345895D01*
G37*
G04 #@! TD*
D10*
G04 #@! TO.C,D9*
X158700000Y-84728718D03*
D11*
G36*
X158153590Y-84582308D02*
X158846410Y-84182308D01*
X159246410Y-84875128D01*
X158553590Y-85275128D01*
X158153590Y-84582308D01*
X158153590Y-84582308D01*
G37*
D10*
X157900000Y-83343078D03*
D11*
G36*
X157353590Y-83196668D02*
X158046410Y-82796668D01*
X158446410Y-83489488D01*
X157753590Y-83889488D01*
X157353590Y-83196668D01*
X157353590Y-83196668D01*
G37*
G04 #@! TD*
D10*
G04 #@! TO.C,D10*
X153900000Y-76414875D03*
D11*
G36*
X154446410Y-76561285D02*
X153753590Y-76961285D01*
X153353590Y-76268465D01*
X154046410Y-75868465D01*
X154446410Y-76561285D01*
X154446410Y-76561285D01*
G37*
D10*
X154700000Y-77800515D03*
D11*
G36*
X155246410Y-77946925D02*
X154553590Y-78346925D01*
X154153590Y-77654105D01*
X154846410Y-77254105D01*
X155246410Y-77946925D01*
X155246410Y-77946925D01*
G37*
G04 #@! TD*
D12*
G04 #@! TO.C,D11*
X142800000Y-70000000D03*
X141200000Y-70000000D03*
G04 #@! TD*
G04 #@! TO.C,D12*
X134800000Y-70000000D03*
X133200000Y-70000000D03*
G04 #@! TD*
G04 #@! TO.C,D13*
X125200000Y-70000000D03*
X126800000Y-70000000D03*
G04 #@! TD*
G04 #@! TO.C,D14*
X117200000Y-70000000D03*
X118800000Y-70000000D03*
G04 #@! TD*
D10*
G04 #@! TO.C,D15*
X105300000Y-77800515D03*
D11*
G36*
X105446410Y-78346925D02*
X104753590Y-77946925D01*
X105153590Y-77254105D01*
X105846410Y-77654105D01*
X105446410Y-78346925D01*
X105446410Y-78346925D01*
G37*
D10*
X106100000Y-76414875D03*
D11*
G36*
X106246410Y-76961285D02*
X105553590Y-76561285D01*
X105953590Y-75868465D01*
X106646410Y-76268465D01*
X106246410Y-76961285D01*
X106246410Y-76961285D01*
G37*
G04 #@! TD*
D10*
G04 #@! TO.C,D16*
X102100000Y-83343078D03*
D11*
G36*
X101953590Y-82796668D02*
X102646410Y-83196668D01*
X102246410Y-83889488D01*
X101553590Y-83489488D01*
X101953590Y-82796668D01*
X101953590Y-82796668D01*
G37*
D10*
X101300000Y-84728718D03*
D11*
G36*
X101153590Y-84182308D02*
X101846410Y-84582308D01*
X101446410Y-85275128D01*
X100753590Y-84875128D01*
X101153590Y-84182308D01*
X101153590Y-84182308D01*
G37*
G04 #@! TD*
D10*
G04 #@! TO.C,D17*
X94100000Y-97199485D03*
D11*
G36*
X94246410Y-97745895D02*
X93553590Y-97345895D01*
X93953590Y-96653075D01*
X94646410Y-97053075D01*
X94246410Y-97745895D01*
X94246410Y-97745895D01*
G37*
D10*
X93300000Y-98585125D03*
D11*
G36*
X93446410Y-99131535D02*
X92753590Y-98731535D01*
X93153590Y-98038715D01*
X93846410Y-98438715D01*
X93446410Y-99131535D01*
X93446410Y-99131535D01*
G37*
G04 #@! TD*
D10*
G04 #@! TO.C,D18*
X97312500Y-118346428D03*
D11*
G36*
X97858910Y-118492838D02*
X97166090Y-118892838D01*
X96766090Y-118200018D01*
X97458910Y-117800018D01*
X97858910Y-118492838D01*
X97858910Y-118492838D01*
G37*
D10*
X98112500Y-119732068D03*
D11*
G36*
X98658910Y-119878478D02*
X97966090Y-120278478D01*
X97566090Y-119585658D01*
X98258910Y-119185658D01*
X98658910Y-119878478D01*
X98658910Y-119878478D01*
G37*
G04 #@! TD*
D10*
G04 #@! TO.C,D19*
X106112500Y-133588474D03*
D11*
G36*
X106658910Y-133734884D02*
X105966090Y-134134884D01*
X105566090Y-133442064D01*
X106258910Y-133042064D01*
X106658910Y-133734884D01*
X106658910Y-133734884D01*
G37*
D10*
X105312500Y-132202834D03*
D11*
G36*
X105858910Y-132349244D02*
X105166090Y-132749244D01*
X104766090Y-132056424D01*
X105458910Y-131656424D01*
X105858910Y-132349244D01*
X105858910Y-132349244D01*
G37*
G04 #@! TD*
D12*
G04 #@! TO.C,D20*
X126800000Y-140000000D03*
X125200000Y-140000000D03*
G04 #@! TD*
G04 #@! TO.C,D21*
X141200000Y-140000000D03*
X142800000Y-140000000D03*
G04 #@! TD*
D10*
G04 #@! TO.C,D22*
X157900000Y-126656922D03*
D11*
G36*
X157753590Y-126110512D02*
X158446410Y-126510512D01*
X158046410Y-127203332D01*
X157353590Y-126803332D01*
X157753590Y-126110512D01*
X157753590Y-126110512D01*
G37*
D10*
X158700000Y-125271282D03*
D11*
G36*
X158553590Y-124724872D02*
X159246410Y-125124872D01*
X158846410Y-125817692D01*
X158153590Y-125417692D01*
X158553590Y-124724872D01*
X158553590Y-124724872D01*
G37*
G04 #@! TD*
D10*
G04 #@! TO.C,D23*
X166700000Y-111414875D03*
D11*
G36*
X166553590Y-110868465D02*
X167246410Y-111268465D01*
X166846410Y-111961285D01*
X166153590Y-111561285D01*
X166553590Y-110868465D01*
X166553590Y-110868465D01*
G37*
D10*
X165900000Y-112800515D03*
D11*
G36*
X165753590Y-112254105D02*
X166446410Y-112654105D01*
X166046410Y-113346925D01*
X165353590Y-112946925D01*
X165753590Y-112254105D01*
X165753590Y-112254105D01*
G37*
G04 #@! TD*
D10*
G04 #@! TO.C,D24*
X161900000Y-90271282D03*
D11*
G36*
X161353590Y-90124872D02*
X162046410Y-89724872D01*
X162446410Y-90417692D01*
X161753590Y-90817692D01*
X161353590Y-90124872D01*
X161353590Y-90124872D01*
G37*
D10*
X162700000Y-91656922D03*
D11*
G36*
X162153590Y-91510512D02*
X162846410Y-91110512D01*
X163246410Y-91803332D01*
X162553590Y-92203332D01*
X162153590Y-91510512D01*
X162153590Y-91510512D01*
G37*
G04 #@! TD*
M02*
