G04 #@! TF.GenerationSoftware,KiCad,Pcbnew,(5.0.2)-1*
G04 #@! TF.CreationDate,2020-09-09T23:39:05+09:00*
G04 #@! TF.ProjectId,Tile,54696c65-2e6b-4696-9361-645f70636258,rev?*
G04 #@! TF.SameCoordinates,Original*
G04 #@! TF.FileFunction,Legend,Top*
G04 #@! TF.FilePolarity,Positive*
%FSLAX46Y46*%
G04 Gerber Fmt 4.6, Leading zero omitted, Abs format (unit mm)*
G04 Created by KiCad (PCBNEW (5.0.2)-1) date 2020/09/09 23:39:05*
%MOMM*%
%LPD*%
G01*
G04 APERTURE LIST*
%ADD10C,0.150000*%
%ADD11C,0.120000*%
G04 APERTURE END LIST*
D10*
G04 #@! TO.C,D1*
X97825000Y-90747596D02*
X97358494Y-91055608D01*
X97825000Y-90747596D02*
X97791506Y-91305608D01*
X97791506Y-91305608D02*
X97358494Y-91055608D01*
D11*
X99031218Y-90058365D02*
X97581218Y-92569839D01*
X96368782Y-91869839D02*
X97818782Y-89358365D01*
X97581218Y-92569839D02*
X96368782Y-91869839D01*
X99031218Y-90058365D02*
X97818782Y-89358365D01*
D10*
G04 #@! TO.C,D2*
X93612500Y-111937840D02*
X93645994Y-112495852D01*
X93612500Y-111937840D02*
X94079006Y-112245852D01*
X94079006Y-112245852D02*
X93645994Y-112495852D01*
D11*
X93618718Y-110548609D02*
X95068718Y-113060083D01*
X93856282Y-113760083D02*
X92406282Y-111248609D01*
X95068718Y-113060083D02*
X93856282Y-113760083D01*
X93618718Y-110548609D02*
X92406282Y-111248609D01*
G04 #@! TO.C,D3*
X101593718Y-124361714D02*
X100381282Y-125061714D01*
X103043718Y-126873188D02*
X101831282Y-127573188D01*
X101831282Y-127573188D02*
X100381282Y-125061714D01*
X101593718Y-124361714D02*
X103043718Y-126873188D01*
D10*
X102054006Y-126058957D02*
X101620994Y-126308957D01*
X101587500Y-125750945D02*
X102054006Y-126058957D01*
X101587500Y-125750945D02*
X101620994Y-126308957D01*
D11*
G04 #@! TO.C,D4*
X116550000Y-139300000D02*
X116550000Y-140700000D01*
X119450000Y-139300000D02*
X119450000Y-140700000D01*
X119450000Y-140700000D02*
X116550000Y-140700000D01*
X116550000Y-139300000D02*
X119450000Y-139300000D01*
D10*
X118250000Y-139750000D02*
X118250000Y-140250000D01*
X117750000Y-140000000D02*
X118250000Y-139750000D01*
X117750000Y-140000000D02*
X118250000Y-140250000D01*
G04 #@! TO.C,D5*
X133750000Y-140000000D02*
X134250000Y-140250000D01*
X133750000Y-140000000D02*
X134250000Y-139750000D01*
X134250000Y-139750000D02*
X134250000Y-140250000D01*
D11*
X132550000Y-139300000D02*
X135450000Y-139300000D01*
X135450000Y-140700000D02*
X132550000Y-140700000D01*
X135450000Y-139300000D02*
X135450000Y-140700000D01*
X132550000Y-139300000D02*
X132550000Y-140700000D01*
D10*
G04 #@! TO.C,D6*
X154175000Y-133108811D02*
X154641506Y-132800799D01*
X154175000Y-133108811D02*
X154208494Y-132550799D01*
X154208494Y-132550799D02*
X154641506Y-132800799D01*
D11*
X152968782Y-133798042D02*
X154418782Y-131286568D01*
X155631218Y-131986568D02*
X154181218Y-134498042D01*
X154418782Y-131286568D02*
X155631218Y-131986568D01*
X152968782Y-133798042D02*
X154181218Y-134498042D01*
G04 #@! TO.C,D7*
X160968782Y-119941635D02*
X162181218Y-120641635D01*
X162418782Y-117430161D02*
X163631218Y-118130161D01*
X163631218Y-118130161D02*
X162181218Y-120641635D01*
X160968782Y-119941635D02*
X162418782Y-117430161D01*
D10*
X162208494Y-118694392D02*
X162641506Y-118944392D01*
X162175000Y-119252404D02*
X162208494Y-118694392D01*
X162175000Y-119252404D02*
X162641506Y-118944392D01*
D11*
G04 #@! TO.C,D8*
X166418782Y-99498042D02*
X167631218Y-98798042D01*
X164968782Y-96986568D02*
X166181218Y-96286568D01*
X166181218Y-96286568D02*
X167631218Y-98798042D01*
X166418782Y-99498042D02*
X164968782Y-96986568D01*
D10*
X165958494Y-97800799D02*
X166391506Y-97550799D01*
X166425000Y-98108811D02*
X165958494Y-97800799D01*
X166425000Y-98108811D02*
X166391506Y-97550799D01*
G04 #@! TO.C,D9*
X158175000Y-83819392D02*
X158208494Y-84377404D01*
X158175000Y-83819392D02*
X158641506Y-84127404D01*
X158641506Y-84127404D02*
X158208494Y-84377404D01*
D11*
X158181218Y-82430161D02*
X159631218Y-84941635D01*
X158418782Y-85641635D02*
X156968782Y-83130161D01*
X159631218Y-84941635D02*
X158418782Y-85641635D01*
X158181218Y-82430161D02*
X156968782Y-83130161D01*
D10*
G04 #@! TO.C,D10*
X154425000Y-77324201D02*
X154391506Y-76766189D01*
X154425000Y-77324201D02*
X153958494Y-77016189D01*
X153958494Y-77016189D02*
X154391506Y-76766189D01*
D11*
X154418782Y-78713432D02*
X152968782Y-76201958D01*
X154181218Y-75501958D02*
X155631218Y-78013432D01*
X152968782Y-76201958D02*
X154181218Y-75501958D01*
X154418782Y-78713432D02*
X155631218Y-78013432D01*
D10*
G04 #@! TO.C,D11*
X141750000Y-70000000D02*
X142250000Y-70250000D01*
X141750000Y-70000000D02*
X142250000Y-69750000D01*
X142250000Y-69750000D02*
X142250000Y-70250000D01*
D11*
X140550000Y-69300000D02*
X143450000Y-69300000D01*
X143450000Y-70700000D02*
X140550000Y-70700000D01*
X143450000Y-69300000D02*
X143450000Y-70700000D01*
X140550000Y-69300000D02*
X140550000Y-70700000D01*
G04 #@! TO.C,D12*
X135450000Y-70700000D02*
X135450000Y-69300000D01*
X132550000Y-70700000D02*
X132550000Y-69300000D01*
X132550000Y-69300000D02*
X135450000Y-69300000D01*
X135450000Y-70700000D02*
X132550000Y-70700000D01*
D10*
X133750000Y-70250000D02*
X133750000Y-69750000D01*
X134250000Y-70000000D02*
X133750000Y-70250000D01*
X134250000Y-70000000D02*
X133750000Y-69750000D01*
D11*
G04 #@! TO.C,D13*
X124550000Y-69300000D02*
X124550000Y-70700000D01*
X127450000Y-69300000D02*
X127450000Y-70700000D01*
X127450000Y-70700000D02*
X124550000Y-70700000D01*
X124550000Y-69300000D02*
X127450000Y-69300000D01*
D10*
X126250000Y-69750000D02*
X126250000Y-70250000D01*
X125750000Y-70000000D02*
X126250000Y-69750000D01*
X125750000Y-70000000D02*
X126250000Y-70250000D01*
G04 #@! TO.C,D14*
X118250000Y-70000000D02*
X117750000Y-69750000D01*
X118250000Y-70000000D02*
X117750000Y-70250000D01*
X117750000Y-70250000D02*
X117750000Y-69750000D01*
D11*
X119450000Y-70700000D02*
X116550000Y-70700000D01*
X116550000Y-69300000D02*
X119450000Y-69300000D01*
X116550000Y-70700000D02*
X116550000Y-69300000D01*
X119450000Y-70700000D02*
X119450000Y-69300000D01*
G04 #@! TO.C,D15*
X104368782Y-78013432D02*
X105581218Y-78713432D01*
X105818782Y-75501958D02*
X107031218Y-76201958D01*
X107031218Y-76201958D02*
X105581218Y-78713432D01*
X104368782Y-78013432D02*
X105818782Y-75501958D01*
D10*
X105608494Y-76766189D02*
X106041506Y-77016189D01*
X105575000Y-77324201D02*
X105608494Y-76766189D01*
X105575000Y-77324201D02*
X106041506Y-77016189D01*
D11*
G04 #@! TO.C,D16*
X103031218Y-83130161D02*
X101818782Y-82430161D01*
X101581218Y-85641635D02*
X100368782Y-84941635D01*
X100368782Y-84941635D02*
X101818782Y-82430161D01*
X103031218Y-83130161D02*
X101581218Y-85641635D01*
D10*
X101791506Y-84377404D02*
X101358494Y-84127404D01*
X101825000Y-83819392D02*
X101791506Y-84377404D01*
X101825000Y-83819392D02*
X101358494Y-84127404D01*
G04 #@! TO.C,D17*
X93575000Y-98108811D02*
X94041506Y-97800799D01*
X93575000Y-98108811D02*
X93608494Y-97550799D01*
X93608494Y-97550799D02*
X94041506Y-97800799D01*
D11*
X92368782Y-98798042D02*
X93818782Y-96286568D01*
X95031218Y-96986568D02*
X93581218Y-99498042D01*
X93818782Y-96286568D02*
X95031218Y-96986568D01*
X92368782Y-98798042D02*
X93581218Y-99498042D01*
D10*
G04 #@! TO.C,D18*
X97837500Y-119255754D02*
X97804006Y-118697742D01*
X97837500Y-119255754D02*
X97370994Y-118947742D01*
X97370994Y-118947742D02*
X97804006Y-118697742D01*
D11*
X97831282Y-120644985D02*
X96381282Y-118133511D01*
X97593718Y-117433511D02*
X99043718Y-119944985D01*
X96381282Y-118133511D02*
X97593718Y-117433511D01*
X97831282Y-120644985D02*
X99043718Y-119944985D01*
G04 #@! TO.C,D19*
X105831282Y-134501391D02*
X107043718Y-133801391D01*
X104381282Y-131989917D02*
X105593718Y-131289917D01*
X105593718Y-131289917D02*
X107043718Y-133801391D01*
X105831282Y-134501391D02*
X104381282Y-131989917D01*
D10*
X105370994Y-132804148D02*
X105804006Y-132554148D01*
X105837500Y-133112160D02*
X105370994Y-132804148D01*
X105837500Y-133112160D02*
X105804006Y-132554148D01*
D11*
G04 #@! TO.C,D20*
X127450000Y-140700000D02*
X127450000Y-139300000D01*
X124550000Y-140700000D02*
X124550000Y-139300000D01*
X124550000Y-139300000D02*
X127450000Y-139300000D01*
X127450000Y-140700000D02*
X124550000Y-140700000D01*
D10*
X125750000Y-140250000D02*
X125750000Y-139750000D01*
X126250000Y-140000000D02*
X125750000Y-140250000D01*
X126250000Y-140000000D02*
X125750000Y-139750000D01*
G04 #@! TO.C,D21*
X142250000Y-140000000D02*
X141750000Y-139750000D01*
X142250000Y-140000000D02*
X141750000Y-140250000D01*
X141750000Y-140250000D02*
X141750000Y-139750000D01*
D11*
X143450000Y-140700000D02*
X140550000Y-140700000D01*
X140550000Y-139300000D02*
X143450000Y-139300000D01*
X140550000Y-140700000D02*
X140550000Y-139300000D01*
X143450000Y-140700000D02*
X143450000Y-139300000D01*
D10*
G04 #@! TO.C,D22*
X158425000Y-125747596D02*
X157958494Y-126055608D01*
X158425000Y-125747596D02*
X158391506Y-126305608D01*
X158391506Y-126305608D02*
X157958494Y-126055608D01*
D11*
X159631218Y-125058365D02*
X158181218Y-127569839D01*
X156968782Y-126869839D02*
X158418782Y-124358365D01*
X158181218Y-127569839D02*
X156968782Y-126869839D01*
X159631218Y-125058365D02*
X158418782Y-124358365D01*
G04 #@! TO.C,D23*
X167631218Y-111201958D02*
X166418782Y-110501958D01*
X166181218Y-113713432D02*
X164968782Y-113013432D01*
X164968782Y-113013432D02*
X166418782Y-110501958D01*
X167631218Y-111201958D02*
X166181218Y-113713432D01*
D10*
X166391506Y-112449201D02*
X165958494Y-112199201D01*
X166425000Y-111891189D02*
X166391506Y-112449201D01*
X166425000Y-111891189D02*
X165958494Y-112199201D01*
D11*
G04 #@! TO.C,D24*
X162181218Y-89358365D02*
X160968782Y-90058365D01*
X163631218Y-91869839D02*
X162418782Y-92569839D01*
X162418782Y-92569839D02*
X160968782Y-90058365D01*
X162181218Y-89358365D02*
X163631218Y-91869839D01*
D10*
X162641506Y-91055608D02*
X162208494Y-91305608D01*
X162175000Y-90747596D02*
X162641506Y-91055608D01*
X162175000Y-90747596D02*
X162208494Y-91305608D01*
D11*
G04 #@! TO.C,CN1*
X136490000Y-93830000D02*
X136490000Y-91170000D01*
X126270000Y-93830000D02*
X136490000Y-93830000D01*
X126270000Y-91170000D02*
X136490000Y-91170000D01*
X126270000Y-93830000D02*
X126270000Y-91170000D01*
X125000000Y-93830000D02*
X123670000Y-93830000D01*
X123670000Y-93830000D02*
X123670000Y-92500000D01*
G04 #@! TD*
M02*
