G04 #@! TF.GenerationSoftware,KiCad,Pcbnew,(5.0.2)-1*
G04 #@! TF.CreationDate,2020-09-09T23:39:04+09:00*
G04 #@! TF.ProjectId,Tile,54696c65-2e6b-4696-9361-645f70636258,rev?*
G04 #@! TF.SameCoordinates,Original*
G04 #@! TF.FileFunction,Copper,L2,Bot*
G04 #@! TF.FilePolarity,Positive*
%FSLAX46Y46*%
G04 Gerber Fmt 4.6, Leading zero omitted, Abs format (unit mm)*
G04 Created by KiCad (PCBNEW (5.0.2)-1) date 2020/09/09 23:39:04*
%MOMM*%
%LPD*%
G01*
G04 APERTURE LIST*
G04 #@! TA.AperFunction,SMDPad,CuDef*
%ADD10R,0.600000X2.000000*%
G04 #@! TD*
G04 #@! TA.AperFunction,SMDPad,CuDef*
%ADD11R,0.800000X0.800000*%
G04 #@! TD*
G04 #@! TA.AperFunction,SMDPad,CuDef*
%ADD12C,0.500000*%
G04 #@! TD*
G04 #@! TA.AperFunction,Conductor*
%ADD13C,0.100000*%
G04 #@! TD*
G04 #@! TA.AperFunction,ComponentPad*
%ADD14R,1.700000X1.700000*%
G04 #@! TD*
G04 #@! TA.AperFunction,ComponentPad*
%ADD15O,1.700000X1.700000*%
G04 #@! TD*
G04 #@! TA.AperFunction,ViaPad*
%ADD16C,0.800000*%
G04 #@! TD*
G04 #@! TA.AperFunction,Conductor*
%ADD17C,0.250000*%
G04 #@! TD*
G04 #@! TA.AperFunction,Conductor*
%ADD18C,0.500000*%
G04 #@! TD*
G04 APERTURE END LIST*
D10*
G04 #@! TO.P,U1,1*
G04 #@! TO.N,GND*
X128745000Y-77300000D03*
G04 #@! TO.P,U1,2*
G04 #@! TO.N,Net-(D1-Pad1)*
X130015000Y-77300000D03*
G04 #@! TO.P,U1,3*
G04 #@! TO.N,Net-(D17-Pad1)*
X131285000Y-77300000D03*
G04 #@! TO.P,U1,4*
G04 #@! TO.N,Net-(U1-Pad4)*
X132555000Y-77300000D03*
G04 #@! TO.P,U1,5*
G04 #@! TO.N,Net-(U1-Pad5)*
X133825000Y-77300000D03*
G04 #@! TO.P,U1,6*
G04 #@! TO.N,Net-(U1-Pad6)*
X135095000Y-77300000D03*
G04 #@! TO.P,U1,7*
G04 #@! TO.N,Net-(U1-Pad7)*
X136365000Y-77300000D03*
G04 #@! TO.P,U1,8*
G04 #@! TO.N,Net-(U1-Pad8)*
X137635000Y-77300000D03*
G04 #@! TO.P,U1,9*
G04 #@! TO.N,Net-(U1-Pad9)*
X138905000Y-77300000D03*
G04 #@! TO.P,U1,10*
G04 #@! TO.N,Net-(D16-Pad2)*
X140175000Y-77300000D03*
G04 #@! TO.P,U1,11*
G04 #@! TO.N,Net-(D15-Pad2)*
X141445000Y-77300000D03*
G04 #@! TO.P,U1,12*
G04 #@! TO.N,Net-(D14-Pad2)*
X142715000Y-77300000D03*
G04 #@! TO.P,U1,13*
G04 #@! TO.N,Net-(D13-Pad2)*
X143985000Y-77300000D03*
G04 #@! TO.P,U1,14*
G04 #@! TO.N,Net-(D12-Pad2)*
X145255000Y-77300000D03*
G04 #@! TO.P,U1,15*
G04 #@! TO.N,Net-(D11-Pad2)*
X145255000Y-86700000D03*
G04 #@! TO.P,U1,16*
G04 #@! TO.N,Net-(D10-Pad2)*
X143985000Y-86700000D03*
G04 #@! TO.P,U1,17*
G04 #@! TO.N,Net-(D9-Pad2)*
X142715000Y-86700000D03*
G04 #@! TO.P,U1,18*
G04 #@! TO.N,Net-(D24-Pad2)*
X141445000Y-86700000D03*
G04 #@! TO.P,U1,19*
G04 #@! TO.N,Net-(D23-Pad2)*
X140175000Y-86700000D03*
G04 #@! TO.P,U1,20*
G04 #@! TO.N,Net-(D22-Pad2)*
X138905000Y-86700000D03*
G04 #@! TO.P,U1,21*
G04 #@! TO.N,Net-(D21-Pad2)*
X137635000Y-86700000D03*
G04 #@! TO.P,U1,22*
G04 #@! TO.N,Net-(D20-Pad2)*
X136365000Y-86700000D03*
G04 #@! TO.P,U1,23*
G04 #@! TO.N,Net-(D19-Pad2)*
X135095000Y-86700000D03*
G04 #@! TO.P,U1,24*
G04 #@! TO.N,Net-(D18-Pad2)*
X133825000Y-86700000D03*
G04 #@! TO.P,U1,25*
G04 #@! TO.N,Net-(D1-Pad2)*
X132555000Y-86700000D03*
G04 #@! TO.P,U1,26*
G04 #@! TO.N,SCL*
X131285000Y-86700000D03*
G04 #@! TO.P,U1,27*
G04 #@! TO.N,SDA*
X130015000Y-86700000D03*
G04 #@! TO.P,U1,28*
G04 #@! TO.N,+5V*
X128745000Y-86700000D03*
G04 #@! TD*
D11*
G04 #@! TO.P,C1,1*
G04 #@! TO.N,+5V*
X122900000Y-86750000D03*
G04 #@! TO.P,C1,2*
G04 #@! TO.N,GND*
X121300000Y-86750000D03*
G04 #@! TD*
G04 #@! TO.P,D25,1*
G04 #@! TO.N,Net-(D25-Pad1)*
X111240130Y-81746186D03*
G04 #@! TO.P,D25,2*
G04 #@! TO.N,Net-(D1-Pad1)*
X109640130Y-81746186D03*
G04 #@! TD*
D12*
G04 #@! TO.P,A2,2*
G04 #@! TO.N,Net-(D1-Pad2)*
X122730130Y-84253186D03*
D13*
G04 #@! TD*
G04 #@! TO.N,Net-(D1-Pad2)*
G04 #@! TO.C,A2*
G36*
X122730130Y-83503788D02*
X122754664Y-83503788D01*
X122803495Y-83508598D01*
X122851620Y-83518170D01*
X122898575Y-83532414D01*
X122943908Y-83551191D01*
X122987181Y-83574322D01*
X123027980Y-83601582D01*
X123065909Y-83632710D01*
X123100606Y-83667407D01*
X123131734Y-83705336D01*
X123158994Y-83746135D01*
X123182125Y-83789408D01*
X123200902Y-83834741D01*
X123215146Y-83881696D01*
X123224718Y-83929821D01*
X123229528Y-83978652D01*
X123229528Y-84003186D01*
X123230130Y-84003186D01*
X123230130Y-84503186D01*
X123229528Y-84503186D01*
X123229528Y-84527720D01*
X123224718Y-84576551D01*
X123215146Y-84624676D01*
X123200902Y-84671631D01*
X123182125Y-84716964D01*
X123158994Y-84760237D01*
X123131734Y-84801036D01*
X123100606Y-84838965D01*
X123065909Y-84873662D01*
X123027980Y-84904790D01*
X122987181Y-84932050D01*
X122943908Y-84955181D01*
X122898575Y-84973958D01*
X122851620Y-84988202D01*
X122803495Y-84997774D01*
X122754664Y-85002584D01*
X122730130Y-85002584D01*
X122730130Y-85003186D01*
X122230130Y-85003186D01*
X122230130Y-83503186D01*
X122730130Y-83503186D01*
X122730130Y-83503788D01*
X122730130Y-83503788D01*
G37*
D12*
G04 #@! TO.P,A2,1*
G04 #@! TO.N,Net-(JP1-Pad1)*
X121430130Y-84253186D03*
D13*
G04 #@! TD*
G04 #@! TO.N,Net-(JP1-Pad1)*
G04 #@! TO.C,A2*
G36*
X121930130Y-85003186D02*
X121430130Y-85003186D01*
X121430130Y-85002584D01*
X121405596Y-85002584D01*
X121356765Y-84997774D01*
X121308640Y-84988202D01*
X121261685Y-84973958D01*
X121216352Y-84955181D01*
X121173079Y-84932050D01*
X121132280Y-84904790D01*
X121094351Y-84873662D01*
X121059654Y-84838965D01*
X121028526Y-84801036D01*
X121001266Y-84760237D01*
X120978135Y-84716964D01*
X120959358Y-84671631D01*
X120945114Y-84624676D01*
X120935542Y-84576551D01*
X120930732Y-84527720D01*
X120930732Y-84503186D01*
X120930130Y-84503186D01*
X120930130Y-84003186D01*
X120930732Y-84003186D01*
X120930732Y-83978652D01*
X120935542Y-83929821D01*
X120945114Y-83881696D01*
X120959358Y-83834741D01*
X120978135Y-83789408D01*
X121001266Y-83746135D01*
X121028526Y-83705336D01*
X121059654Y-83667407D01*
X121094351Y-83632710D01*
X121132280Y-83601582D01*
X121173079Y-83574322D01*
X121216352Y-83551191D01*
X121261685Y-83532414D01*
X121308640Y-83518170D01*
X121356765Y-83508598D01*
X121405596Y-83503788D01*
X121430130Y-83503788D01*
X121430130Y-83503186D01*
X121930130Y-83503186D01*
X121930130Y-85003186D01*
X121930130Y-85003186D01*
G37*
D12*
G04 #@! TO.P,A1,1*
G04 #@! TO.N,Net-(JP2-Pad1)*
X121430130Y-81753186D03*
D13*
G04 #@! TD*
G04 #@! TO.N,Net-(JP2-Pad1)*
G04 #@! TO.C,A1*
G36*
X121930130Y-82503186D02*
X121430130Y-82503186D01*
X121430130Y-82502584D01*
X121405596Y-82502584D01*
X121356765Y-82497774D01*
X121308640Y-82488202D01*
X121261685Y-82473958D01*
X121216352Y-82455181D01*
X121173079Y-82432050D01*
X121132280Y-82404790D01*
X121094351Y-82373662D01*
X121059654Y-82338965D01*
X121028526Y-82301036D01*
X121001266Y-82260237D01*
X120978135Y-82216964D01*
X120959358Y-82171631D01*
X120945114Y-82124676D01*
X120935542Y-82076551D01*
X120930732Y-82027720D01*
X120930732Y-82003186D01*
X120930130Y-82003186D01*
X120930130Y-81503186D01*
X120930732Y-81503186D01*
X120930732Y-81478652D01*
X120935542Y-81429821D01*
X120945114Y-81381696D01*
X120959358Y-81334741D01*
X120978135Y-81289408D01*
X121001266Y-81246135D01*
X121028526Y-81205336D01*
X121059654Y-81167407D01*
X121094351Y-81132710D01*
X121132280Y-81101582D01*
X121173079Y-81074322D01*
X121216352Y-81051191D01*
X121261685Y-81032414D01*
X121308640Y-81018170D01*
X121356765Y-81008598D01*
X121405596Y-81003788D01*
X121430130Y-81003788D01*
X121430130Y-81003186D01*
X121930130Y-81003186D01*
X121930130Y-82503186D01*
X121930130Y-82503186D01*
G37*
D12*
G04 #@! TO.P,A1,2*
G04 #@! TO.N,Net-(D18-Pad2)*
X122730130Y-81753186D03*
D13*
G04 #@! TD*
G04 #@! TO.N,Net-(D18-Pad2)*
G04 #@! TO.C,A1*
G36*
X122730130Y-81003788D02*
X122754664Y-81003788D01*
X122803495Y-81008598D01*
X122851620Y-81018170D01*
X122898575Y-81032414D01*
X122943908Y-81051191D01*
X122987181Y-81074322D01*
X123027980Y-81101582D01*
X123065909Y-81132710D01*
X123100606Y-81167407D01*
X123131734Y-81205336D01*
X123158994Y-81246135D01*
X123182125Y-81289408D01*
X123200902Y-81334741D01*
X123215146Y-81381696D01*
X123224718Y-81429821D01*
X123229528Y-81478652D01*
X123229528Y-81503186D01*
X123230130Y-81503186D01*
X123230130Y-82003186D01*
X123229528Y-82003186D01*
X123229528Y-82027720D01*
X123224718Y-82076551D01*
X123215146Y-82124676D01*
X123200902Y-82171631D01*
X123182125Y-82216964D01*
X123158994Y-82260237D01*
X123131734Y-82301036D01*
X123100606Y-82338965D01*
X123065909Y-82373662D01*
X123027980Y-82404790D01*
X122987181Y-82432050D01*
X122943908Y-82455181D01*
X122898575Y-82473958D01*
X122851620Y-82488202D01*
X122803495Y-82497774D01*
X122754664Y-82502584D01*
X122730130Y-82502584D01*
X122730130Y-82503186D01*
X122230130Y-82503186D01*
X122230130Y-81003186D01*
X122730130Y-81003186D01*
X122730130Y-81003788D01*
X122730130Y-81003788D01*
G37*
D12*
G04 #@! TO.P,A0,2*
G04 #@! TO.N,Net-(D19-Pad2)*
X122730130Y-79253186D03*
D13*
G04 #@! TD*
G04 #@! TO.N,Net-(D19-Pad2)*
G04 #@! TO.C,A0*
G36*
X122730130Y-78503788D02*
X122754664Y-78503788D01*
X122803495Y-78508598D01*
X122851620Y-78518170D01*
X122898575Y-78532414D01*
X122943908Y-78551191D01*
X122987181Y-78574322D01*
X123027980Y-78601582D01*
X123065909Y-78632710D01*
X123100606Y-78667407D01*
X123131734Y-78705336D01*
X123158994Y-78746135D01*
X123182125Y-78789408D01*
X123200902Y-78834741D01*
X123215146Y-78881696D01*
X123224718Y-78929821D01*
X123229528Y-78978652D01*
X123229528Y-79003186D01*
X123230130Y-79003186D01*
X123230130Y-79503186D01*
X123229528Y-79503186D01*
X123229528Y-79527720D01*
X123224718Y-79576551D01*
X123215146Y-79624676D01*
X123200902Y-79671631D01*
X123182125Y-79716964D01*
X123158994Y-79760237D01*
X123131734Y-79801036D01*
X123100606Y-79838965D01*
X123065909Y-79873662D01*
X123027980Y-79904790D01*
X122987181Y-79932050D01*
X122943908Y-79955181D01*
X122898575Y-79973958D01*
X122851620Y-79988202D01*
X122803495Y-79997774D01*
X122754664Y-80002584D01*
X122730130Y-80002584D01*
X122730130Y-80003186D01*
X122230130Y-80003186D01*
X122230130Y-78503186D01*
X122730130Y-78503186D01*
X122730130Y-78503788D01*
X122730130Y-78503788D01*
G37*
D12*
G04 #@! TO.P,A0,1*
G04 #@! TO.N,Net-(JP3-Pad1)*
X121430130Y-79253186D03*
D13*
G04 #@! TD*
G04 #@! TO.N,Net-(JP3-Pad1)*
G04 #@! TO.C,A0*
G36*
X121930130Y-80003186D02*
X121430130Y-80003186D01*
X121430130Y-80002584D01*
X121405596Y-80002584D01*
X121356765Y-79997774D01*
X121308640Y-79988202D01*
X121261685Y-79973958D01*
X121216352Y-79955181D01*
X121173079Y-79932050D01*
X121132280Y-79904790D01*
X121094351Y-79873662D01*
X121059654Y-79838965D01*
X121028526Y-79801036D01*
X121001266Y-79760237D01*
X120978135Y-79716964D01*
X120959358Y-79671631D01*
X120945114Y-79624676D01*
X120935542Y-79576551D01*
X120930732Y-79527720D01*
X120930732Y-79503186D01*
X120930130Y-79503186D01*
X120930130Y-79003186D01*
X120930732Y-79003186D01*
X120930732Y-78978652D01*
X120935542Y-78929821D01*
X120945114Y-78881696D01*
X120959358Y-78834741D01*
X120978135Y-78789408D01*
X121001266Y-78746135D01*
X121028526Y-78705336D01*
X121059654Y-78667407D01*
X121094351Y-78632710D01*
X121132280Y-78601582D01*
X121173079Y-78574322D01*
X121216352Y-78551191D01*
X121261685Y-78532414D01*
X121308640Y-78518170D01*
X121356765Y-78508598D01*
X121405596Y-78503788D01*
X121430130Y-78503788D01*
X121430130Y-78503186D01*
X121930130Y-78503186D01*
X121930130Y-80003186D01*
X121930130Y-80003186D01*
G37*
D11*
G04 #@! TO.P,R1,2*
G04 #@! TO.N,Net-(D25-Pad1)*
X115030130Y-83253186D03*
G04 #@! TO.P,R1,1*
G04 #@! TO.N,Net-(JP1-Pad1)*
X116630130Y-83253186D03*
G04 #@! TD*
G04 #@! TO.P,R2,2*
G04 #@! TO.N,Net-(D25-Pad1)*
X115030130Y-81753186D03*
G04 #@! TO.P,R2,1*
G04 #@! TO.N,Net-(JP2-Pad1)*
X116630130Y-81753186D03*
G04 #@! TD*
G04 #@! TO.P,R3,1*
G04 #@! TO.N,Net-(JP3-Pad1)*
X116630130Y-80253186D03*
G04 #@! TO.P,R3,2*
G04 #@! TO.N,Net-(D25-Pad1)*
X115030130Y-80253186D03*
G04 #@! TD*
D14*
G04 #@! TO.P,CN1,1*
G04 #@! TO.N,+5V*
X125000000Y-92500000D03*
D15*
G04 #@! TO.P,CN1,2*
G04 #@! TO.N,SDA*
X127540000Y-92500000D03*
G04 #@! TO.P,CN1,3*
G04 #@! TO.N,SCL*
X130080000Y-92500000D03*
G04 #@! TO.P,CN1,4*
G04 #@! TO.N,Net-(CN1-Pad4)*
X132620000Y-92500000D03*
G04 #@! TO.P,CN1,5*
G04 #@! TO.N,GND*
X135160000Y-92500000D03*
G04 #@! TD*
D16*
G04 #@! TO.N,Net-(D1-Pad1)*
X132000000Y-140000000D03*
X116000000Y-140000000D03*
X100600000Y-124050000D03*
X92750000Y-110450000D03*
X153200000Y-134740046D03*
X136000000Y-70000000D03*
X140000000Y-70000000D03*
X98706317Y-89250000D03*
X102759957Y-82200000D03*
X120000000Y-70000000D03*
X104607477Y-79000000D03*
X155392523Y-79000000D03*
X167400000Y-99800000D03*
X161200000Y-121000000D03*
X124000000Y-70000000D03*
G04 #@! TO.N,Net-(D1-Pad2)*
X94734787Y-96100000D03*
G04 #@! TO.N,Net-(D10-Pad2)*
X153100000Y-75100000D03*
G04 #@! TO.N,Net-(D11-Pad2)*
X144000000Y-70000000D03*
G04 #@! TO.N,Net-(D18-Pad2)*
X94803088Y-114000000D03*
G04 #@! TO.N,Net-(D19-Pad2)*
X104618043Y-131000000D03*
G04 #@! TO.N,Net-(D12-Pad2)*
X132000000Y-70000000D03*
G04 #@! TO.N,Net-(D13-Pad2)*
X128000000Y-70000000D03*
G04 #@! TO.N,Net-(D14-Pad2)*
X116000000Y-70000000D03*
G04 #@! TO.N,Net-(D15-Pad2)*
X106881179Y-75100000D03*
G04 #@! TO.N,Net-(D20-Pad2)*
X124000000Y-140000000D03*
G04 #@! TO.N,Net-(D21-Pad2)*
X140000000Y-140000000D03*
G04 #@! TO.N,Net-(D22-Pad2)*
X157268911Y-127750000D03*
G04 #@! TO.N,Net-(D23-Pad2)*
X163400000Y-117130643D03*
G04 #@! TO.N,Net-(D24-Pad2)*
X165207477Y-96000000D03*
G04 #@! TO.N,Net-(D16-Pad2)*
X100700000Y-85800000D03*
G04 #@! TO.N,Net-(D17-Pad1)*
X167400000Y-110200000D03*
X159329734Y-124200000D03*
X144200000Y-140000000D03*
X128000000Y-140000000D03*
X106800000Y-134700000D03*
X98800000Y-120900000D03*
X92700000Y-99700000D03*
X161300000Y-89250000D03*
G04 #@! TO.N,Net-(D9-Pad2)*
X159350000Y-85850000D03*
G04 #@! TD*
D17*
G04 #@! TO.N,GND*
X118741942Y-86750000D02*
X115755131Y-83763189D01*
X121300000Y-86750000D02*
X118741942Y-86750000D01*
X128245000Y-75250000D02*
X128745000Y-75750000D01*
X118750000Y-75250000D02*
X128245000Y-75250000D01*
X128745000Y-75750000D02*
X128745000Y-77300000D01*
X115755131Y-78244869D02*
X118750000Y-75250000D01*
X115755131Y-83763189D02*
X115755131Y-81000000D01*
X115755131Y-81000000D02*
X115755131Y-78244869D01*
X132750000Y-81000000D02*
X123750000Y-81000000D01*
X135160000Y-91297919D02*
X134469999Y-90607918D01*
X123750000Y-81000000D02*
X123250000Y-80500000D01*
X120819726Y-80500000D02*
X120319726Y-81000000D01*
X123250000Y-80500000D02*
X120819726Y-80500000D01*
X134469999Y-90607918D02*
X134469999Y-82719999D01*
X134469999Y-82719999D02*
X132750000Y-81000000D01*
X120319726Y-81000000D02*
X115755131Y-81000000D01*
X135160000Y-92500000D02*
X135160000Y-91297919D01*
G04 #@! TO.N,Net-(D1-Pad1)*
X94100000Y-112900000D02*
X92750000Y-110450000D01*
X93800000Y-114200000D02*
X94100000Y-112900000D01*
X99500000Y-122100000D02*
X99900000Y-120900000D01*
X94200000Y-114900000D02*
X93800000Y-114200000D01*
X100600000Y-124050000D02*
X99500000Y-122100000D01*
X99900000Y-120900000D02*
X99300000Y-119900000D01*
X99300000Y-119900000D02*
X98100000Y-119700000D01*
X98100000Y-119700000D02*
X95500000Y-115200000D01*
X95500000Y-115200000D02*
X94200000Y-114900000D01*
X167750000Y-98500000D02*
X167400000Y-99800000D01*
X165800000Y-95200000D02*
X167750000Y-98500000D01*
X164600000Y-95000000D02*
X165800000Y-95200000D01*
X160800000Y-90300000D02*
X162000000Y-90600000D01*
X156700000Y-79300000D02*
X160400000Y-85800000D01*
X155392523Y-79000000D02*
X156700000Y-79300000D01*
X162000000Y-90600000D02*
X164600000Y-95000000D01*
X160400000Y-85800000D02*
X160000000Y-86900000D01*
X160000000Y-86900000D02*
X160700000Y-88200000D01*
X160700000Y-88200000D02*
X160200000Y-89300000D01*
X160200000Y-89300000D02*
X160800000Y-90300000D01*
X163500000Y-88800000D02*
X160700000Y-88200000D01*
X167300000Y-93300000D02*
X165800000Y-93000000D01*
X170000000Y-98000000D02*
X167300000Y-93300000D01*
X168600000Y-101800000D02*
X169000000Y-101400000D01*
X165800000Y-93000000D02*
X163500000Y-88800000D01*
X168600000Y-110100000D02*
X168600000Y-101800000D01*
X161200000Y-121000000D02*
X162400000Y-120800000D01*
X169000000Y-101400000D02*
X170000000Y-98000000D01*
X163400000Y-119000000D02*
X164600000Y-118800000D01*
X164600000Y-118800000D02*
X165400000Y-117200000D01*
X162400000Y-120800000D02*
X163400000Y-119000000D01*
X165400000Y-117200000D02*
X165000000Y-116200000D01*
X165000000Y-116200000D02*
X168600000Y-110100000D01*
X161600000Y-122100000D02*
X161200000Y-121000000D01*
X153200000Y-134740046D02*
X154500000Y-134500000D01*
X156100000Y-131700000D02*
X157200000Y-129700000D01*
X159000000Y-126700000D02*
X161600000Y-122100000D01*
X157200000Y-129700000D02*
X158500000Y-129600000D01*
X158500000Y-129600000D02*
X159500000Y-127700000D01*
X154500000Y-134500000D02*
X156100000Y-131700000D01*
X159500000Y-127700000D02*
X159000000Y-126700000D01*
X100000000Y-86900000D02*
X99600000Y-85500000D01*
X98706317Y-89250000D02*
X100000000Y-86900000D01*
X99600000Y-85500000D02*
X101300000Y-82500000D01*
X101300000Y-82500000D02*
X102759957Y-82200000D01*
X119000000Y-69000000D02*
X120000000Y-70000000D01*
X115900000Y-69000000D02*
X119000000Y-69000000D01*
X111100000Y-71700000D02*
X115900000Y-69000000D01*
X106100000Y-74400000D02*
X111100000Y-71700000D01*
X104607477Y-79000000D02*
X104200000Y-77600000D01*
X104200000Y-77600000D02*
X106100000Y-74400000D01*
X130015000Y-76050000D02*
X130015000Y-77300000D01*
X124000000Y-70000000D02*
X125000000Y-69000000D01*
X125000000Y-69000000D02*
X135000000Y-69000000D01*
X135000000Y-69000000D02*
X136000000Y-70000000D01*
X145500000Y-139400000D02*
X153200000Y-134740046D01*
X144300000Y-142000000D02*
X145500000Y-139400000D01*
X137500000Y-142000000D02*
X144300000Y-142000000D01*
X132000000Y-140000000D02*
X135500000Y-140000000D01*
X135500000Y-140000000D02*
X137500000Y-142000000D01*
X131000000Y-140000000D02*
X132000000Y-140000000D01*
X129500000Y-140000000D02*
X131000000Y-140000000D01*
X127500000Y-142000000D02*
X129500000Y-140000000D01*
X116000000Y-140000000D02*
X118000000Y-142000000D01*
X118000000Y-142000000D02*
X127500000Y-142000000D01*
X155600000Y-77400000D02*
X155392523Y-79000000D01*
X153800000Y-74300000D02*
X155600000Y-77400000D01*
X145200000Y-69000000D02*
X153800000Y-74300000D01*
X140000000Y-70000000D02*
X141000000Y-69000000D01*
X141000000Y-69000000D02*
X145200000Y-69000000D01*
X130465000Y-79000000D02*
X146000000Y-79000000D01*
X140725001Y-70725001D02*
X140000000Y-70000000D01*
X144725001Y-70725001D02*
X140725001Y-70725001D01*
X130015000Y-78550000D02*
X130465000Y-79000000D01*
X130015000Y-77300000D02*
X130015000Y-78550000D01*
X146600000Y-72600000D02*
X146600000Y-78400000D01*
X146000000Y-79000000D02*
X146600000Y-78400000D01*
X146600000Y-72600000D02*
X144725001Y-70725001D01*
X93750000Y-109450000D02*
X92750000Y-110450000D01*
X93750000Y-96011785D02*
X93750000Y-109450000D01*
X94761785Y-95000000D02*
X93750000Y-96011785D01*
X103000000Y-87600000D02*
X101750000Y-87800000D01*
X101750000Y-87800000D02*
X100100000Y-91000000D01*
X100100000Y-91000000D02*
X98600000Y-91350000D01*
X98600000Y-91350000D02*
X96550000Y-95000000D01*
X96550000Y-95000000D02*
X94761785Y-95000000D01*
X106425798Y-81746186D02*
X106379612Y-81700000D01*
X109640130Y-81746186D02*
X106425798Y-81746186D01*
X106379612Y-81700000D02*
X103000000Y-87600000D01*
X108900000Y-77300000D02*
X106379612Y-81700000D01*
X112378788Y-74500000D02*
X108900000Y-77300000D01*
X129015000Y-74500000D02*
X112378788Y-74500000D01*
X130015000Y-75500000D02*
X129015000Y-74500000D01*
X130015000Y-77300000D02*
X130015000Y-75500000D01*
G04 #@! TO.N,Net-(D1-Pad2)*
X132555000Y-89945000D02*
X131350000Y-91150000D01*
X130500000Y-96100000D02*
X94734787Y-96100000D01*
X131350000Y-91150000D02*
X131350000Y-95250000D01*
X131350000Y-95250000D02*
X130500000Y-96100000D01*
X132555000Y-86700000D02*
X132555000Y-89945000D01*
X132055000Y-83250000D02*
X132555000Y-83750000D01*
X123733316Y-83250000D02*
X132055000Y-83250000D01*
X132555000Y-83750000D02*
X132555000Y-86700000D01*
X122730130Y-84253186D02*
X123733316Y-83250000D01*
G04 #@! TO.N,Net-(D10-Pad2)*
X143985000Y-88485000D02*
X144500000Y-89000000D01*
X144500000Y-89000000D02*
X147000000Y-89000000D01*
X143985000Y-86700000D02*
X143985000Y-88485000D01*
X149250000Y-73000000D02*
X149750000Y-73000000D01*
X149750000Y-73000000D02*
X153100000Y-75100000D01*
X149000000Y-87000000D02*
X149000000Y-73250000D01*
X149000000Y-73250000D02*
X149250000Y-73000000D01*
X147000000Y-89000000D02*
X149000000Y-87000000D01*
G04 #@! TO.N,Net-(D11-Pad2)*
X145305000Y-88000000D02*
X145255000Y-87950000D01*
X146500000Y-88000000D02*
X145305000Y-88000000D01*
X144000000Y-70000000D02*
X145250000Y-70000000D01*
X148000000Y-72250000D02*
X148000000Y-86500000D01*
X145250000Y-70000000D02*
X148000000Y-72250000D01*
X148000000Y-86500000D02*
X146500000Y-88000000D01*
X145255000Y-87950000D02*
X145255000Y-86700000D01*
G04 #@! TO.N,Net-(JP1-Pad1)*
X120430130Y-83253186D02*
X121430130Y-84253186D01*
X116630130Y-83253186D02*
X120430130Y-83253186D01*
G04 #@! TO.N,Net-(JP2-Pad1)*
X120830130Y-81753186D02*
X116630130Y-81753186D01*
X121430130Y-81753186D02*
X120830130Y-81753186D01*
G04 #@! TO.N,Net-(JP3-Pad1)*
X120430130Y-80253186D02*
X121430130Y-79253186D01*
X116630130Y-80253186D02*
X120430130Y-80253186D01*
D18*
G04 #@! TO.N,SCL*
X131250000Y-86735000D02*
X131285000Y-86700000D01*
X130080000Y-92500000D02*
X130080000Y-90205000D01*
X130080000Y-90205000D02*
X131285000Y-89000000D01*
X131285000Y-89000000D02*
X131285000Y-86700000D01*
G04 #@! TO.N,SDA*
X130000000Y-86715000D02*
X130015000Y-86700000D01*
X127540000Y-92500000D02*
X127540000Y-91297919D01*
X127540000Y-91297919D02*
X130015000Y-88822919D01*
X130015000Y-88750000D02*
X130015000Y-86700000D01*
X130015000Y-88822919D02*
X130015000Y-88750000D01*
D17*
G04 #@! TO.N,Net-(D18-Pad2)*
X133825000Y-82825000D02*
X133825000Y-86700000D01*
X122730130Y-81753186D02*
X132753186Y-81753186D01*
X132753186Y-81753186D02*
X133825000Y-82825000D01*
X120000000Y-111000000D02*
X119000000Y-112000000D01*
X119000000Y-112000000D02*
X96803088Y-112000000D01*
X120000000Y-98000000D02*
X120000000Y-111000000D01*
X121000000Y-97000000D02*
X120000000Y-98000000D01*
X131000000Y-97000000D02*
X121000000Y-97000000D01*
X133825000Y-94175000D02*
X131000000Y-97000000D01*
X133825000Y-86700000D02*
X133825000Y-94175000D01*
X96803088Y-112000000D02*
X94803088Y-114000000D01*
G04 #@! TO.N,Net-(D19-Pad2)*
X138000000Y-93000000D02*
X135095000Y-90095000D01*
X137000000Y-103000000D02*
X138000000Y-102000000D01*
X105500000Y-127500000D02*
X120000000Y-127500000D01*
X121000000Y-126500000D02*
X121000000Y-104000000D01*
X104618043Y-131000000D02*
X104618043Y-128381957D01*
X138000000Y-102000000D02*
X138000000Y-93000000D01*
X104618043Y-128381957D02*
X105500000Y-127500000D01*
X121000000Y-104000000D02*
X122000000Y-103000000D01*
X122000000Y-103000000D02*
X137000000Y-103000000D01*
X120000000Y-127500000D02*
X121000000Y-126500000D01*
X135095000Y-90095000D02*
X135095000Y-86700000D01*
X135095000Y-82500000D02*
X135095000Y-86700000D01*
X122730130Y-79253186D02*
X123726944Y-80250000D01*
X132845000Y-80250000D02*
X135095000Y-82500000D01*
X123726944Y-80250000D02*
X132845000Y-80250000D01*
G04 #@! TO.N,Net-(D12-Pad2)*
X133500000Y-71500000D02*
X132000000Y-70000000D01*
X144255000Y-71500000D02*
X133500000Y-71500000D01*
X145255000Y-72500000D02*
X144255000Y-71500000D01*
X145255000Y-77300000D02*
X145255000Y-72500000D01*
G04 #@! TO.N,Net-(D13-Pad2)*
X142985000Y-72000000D02*
X143985000Y-73000000D01*
X132500000Y-72000000D02*
X142985000Y-72000000D01*
X128000000Y-70000000D02*
X130500000Y-70000000D01*
X130500000Y-70000000D02*
X132500000Y-72000000D01*
X143985000Y-73000000D02*
X143985000Y-77300000D01*
G04 #@! TO.N,Net-(D14-Pad2)*
X118500000Y-72500000D02*
X116000000Y-70000000D01*
X141715000Y-72500000D02*
X118500000Y-72500000D01*
X142715000Y-77300000D02*
X142715000Y-73500000D01*
X142715000Y-73500000D02*
X141715000Y-72500000D01*
G04 #@! TO.N,Net-(D15-Pad2)*
X110692534Y-73000000D02*
X106881179Y-75100000D01*
X140445000Y-73000000D02*
X110692534Y-73000000D01*
X141445000Y-74000000D02*
X140445000Y-73000000D01*
X141445000Y-77300000D02*
X141445000Y-74000000D01*
G04 #@! TO.N,Net-(D20-Pad2)*
X124000000Y-140000000D02*
X123000000Y-140000000D01*
X136365000Y-89865000D02*
X136365000Y-86700000D01*
X139000000Y-92500000D02*
X136365000Y-89865000D01*
X123000000Y-140000000D02*
X122000000Y-139000000D01*
X123000000Y-107000000D02*
X138000000Y-107000000D01*
X139000000Y-106000000D02*
X139000000Y-92500000D01*
X122000000Y-108000000D02*
X123000000Y-107000000D01*
X138000000Y-107000000D02*
X139000000Y-106000000D01*
X122000000Y-139000000D02*
X122000000Y-108000000D01*
G04 #@! TO.N,Net-(D21-Pad2)*
X140000000Y-140000000D02*
X140000000Y-92000000D01*
X137635000Y-89635000D02*
X137635000Y-86700000D01*
X140000000Y-92000000D02*
X137635000Y-89635000D01*
G04 #@! TO.N,Net-(D22-Pad2)*
X138905000Y-86700000D02*
X138905000Y-89405000D01*
X138905000Y-89405000D02*
X141000000Y-91500000D01*
X157018911Y-127500000D02*
X157268911Y-127750000D01*
X141000000Y-126250000D02*
X142250000Y-127500000D01*
X142250000Y-127500000D02*
X157018911Y-127500000D01*
X141000000Y-91500000D02*
X141000000Y-126200000D01*
G04 #@! TO.N,Net-(D23-Pad2)*
X140175000Y-89175000D02*
X140175000Y-86700000D01*
X142000000Y-91000000D02*
X140175000Y-89175000D01*
X163400000Y-112900000D02*
X162500000Y-112000000D01*
X163400000Y-117130643D02*
X163400000Y-112900000D01*
X143000000Y-112000000D02*
X142000000Y-111000000D01*
X162500000Y-112000000D02*
X143000000Y-112000000D01*
X142000000Y-111000000D02*
X142000000Y-91000000D01*
G04 #@! TO.N,Net-(D24-Pad2)*
X141445000Y-86700000D02*
X141445000Y-88945000D01*
X141445000Y-88945000D02*
X143000000Y-90500000D01*
X143000000Y-95500000D02*
X143500000Y-96000000D01*
X143500000Y-96000000D02*
X144500000Y-96000000D01*
X143000000Y-90500000D02*
X143000000Y-95400000D01*
X144500000Y-96000000D02*
X165207477Y-96000000D01*
G04 #@! TO.N,Net-(D16-Pad2)*
X101900000Y-85650000D02*
X100700000Y-85800000D01*
X140175000Y-77300000D02*
X140175000Y-74175000D01*
X140175000Y-74175000D02*
X139500000Y-73500000D01*
X139500000Y-73500000D02*
X111214286Y-73500000D01*
X111214286Y-73500000D02*
X107600000Y-75800000D01*
X107600000Y-75800000D02*
X107500000Y-75900000D01*
X107500000Y-75900000D02*
X101900000Y-85650000D01*
G04 #@! TO.N,Net-(D17-Pad1)*
X160500000Y-122200000D02*
X159329734Y-124200000D01*
X160100000Y-121200000D02*
X160500000Y-122200000D01*
X160800000Y-120000000D02*
X160100000Y-121200000D01*
X164050000Y-116000000D02*
X164450000Y-117150000D01*
X167400000Y-110200000D02*
X164050000Y-116000000D01*
X164450000Y-117150000D02*
X163950000Y-118050000D01*
X163950000Y-118050000D02*
X162788420Y-118200000D01*
X162788420Y-118200000D02*
X161900000Y-119800000D01*
X161900000Y-119800000D02*
X160800000Y-120000000D01*
X98400000Y-122200000D02*
X98800000Y-120900000D01*
X106800000Y-134700000D02*
X105400000Y-134400000D01*
X105400000Y-134400000D02*
X98400000Y-122200000D01*
X127000000Y-141000000D02*
X128000000Y-140000000D01*
X118600000Y-141000000D02*
X127000000Y-141000000D01*
X116800000Y-139200000D02*
X118600000Y-141000000D01*
X106800000Y-134700000D02*
X115000000Y-139200000D01*
X115000000Y-139200000D02*
X116800000Y-139200000D01*
X162700000Y-89600000D02*
X161300000Y-89250000D01*
X167400000Y-101300000D02*
X168200000Y-100500000D01*
X167400000Y-110200000D02*
X167400000Y-101300000D01*
X168200000Y-100500000D02*
X168800000Y-98200000D01*
X168800000Y-98200000D02*
X166400000Y-94200000D01*
X166400000Y-94200000D02*
X165200000Y-94000000D01*
X165200000Y-94000000D02*
X162700000Y-89600000D01*
X152800000Y-133900000D02*
X144800000Y-138600000D01*
X157900000Y-126600000D02*
X158400000Y-127700000D01*
X159329734Y-124200000D02*
X157900000Y-126600000D01*
X144800000Y-138600000D02*
X144200000Y-140000000D01*
X157900000Y-128600000D02*
X156700000Y-128700000D01*
X158400000Y-127700000D02*
X157900000Y-128600000D01*
X156700000Y-128700000D02*
X153800000Y-133700000D01*
X153800000Y-133700000D02*
X152800000Y-133900000D01*
X92700000Y-108900000D02*
X92700000Y-99700000D01*
X91800000Y-109800000D02*
X92700000Y-108900000D01*
X91700000Y-110443750D02*
X91800000Y-109800000D01*
X98800000Y-120900000D02*
X97500000Y-120750000D01*
X94750000Y-116000000D02*
X93500000Y-115750000D01*
X97500000Y-120750000D02*
X94750000Y-116000000D01*
X93500000Y-115750000D02*
X92600000Y-114200000D01*
X92600000Y-114200000D02*
X93000000Y-112800000D01*
X93000000Y-112800000D02*
X91700000Y-110443750D01*
X143700000Y-141000000D02*
X144200000Y-140000000D01*
X138000000Y-141000000D02*
X143700000Y-141000000D01*
X128000000Y-140000000D02*
X129000000Y-139000000D01*
X129000000Y-139000000D02*
X136000000Y-139000000D01*
X136000000Y-139000000D02*
X138000000Y-141000000D01*
X131285000Y-77300000D02*
X131285000Y-75785000D01*
X95900000Y-94000000D02*
X94500000Y-94000000D01*
X99200000Y-90200000D02*
X98000000Y-90400000D01*
X101100000Y-86800000D02*
X99200000Y-90200000D01*
X94500000Y-94000000D02*
X92700000Y-95800000D01*
X102400000Y-86600000D02*
X101100000Y-86800000D01*
X131285000Y-75500000D02*
X129785000Y-74000000D01*
X129785000Y-74000000D02*
X111806451Y-74000000D01*
X92700000Y-95800000D02*
X92700000Y-99700000D01*
X111806451Y-74000000D02*
X108200000Y-76600000D01*
X108200000Y-76600000D02*
X108100000Y-76700000D01*
X98000000Y-90400000D02*
X95900000Y-94000000D01*
X131285000Y-77300000D02*
X131285000Y-75500000D01*
X108100000Y-76700000D02*
X102400000Y-86600000D01*
D18*
G04 #@! TO.N,+5V*
X128695000Y-86750000D02*
X128745000Y-86700000D01*
X122900000Y-86750000D02*
X128695000Y-86750000D01*
X125000000Y-92500000D02*
X128745000Y-88755000D01*
X128745000Y-88755000D02*
X128745000Y-88255000D01*
X128745000Y-88255000D02*
X128745000Y-86700000D01*
D17*
G04 #@! TO.N,Net-(D9-Pad2)*
X142715000Y-88785000D02*
X142715000Y-86700000D01*
X143930000Y-90000000D02*
X142715000Y-88785000D01*
X147500000Y-90000000D02*
X143930000Y-90000000D01*
X152000000Y-85850000D02*
X151650000Y-85850000D01*
X159350000Y-85850000D02*
X152000000Y-85850000D01*
X147500000Y-90000000D02*
X151650000Y-85850000D01*
G04 #@! TO.N,Net-(D25-Pad1)*
X111247130Y-81753186D02*
X111240130Y-81746186D01*
X115030130Y-81753186D02*
X111247130Y-81753186D01*
X115030130Y-80253186D02*
X115030130Y-83253186D01*
G04 #@! TD*
M02*
