G04 #@! TF.GenerationSoftware,KiCad,Pcbnew,(5.0.2)-1*
G04 #@! TF.CreationDate,2020-05-10T00:06:34+09:00*
G04 #@! TF.ProjectId,Tile,54696c65-2e6b-4696-9361-645f70636258,rev?*
G04 #@! TF.SameCoordinates,Original*
G04 #@! TF.FileFunction,Copper,L2,Bot*
G04 #@! TF.FilePolarity,Positive*
%FSLAX46Y46*%
G04 Gerber Fmt 4.6, Leading zero omitted, Abs format (unit mm)*
G04 Created by KiCad (PCBNEW (5.0.2)-1) date 2020/05/10 0:06:34*
%MOMM*%
%LPD*%
G01*
G04 APERTURE LIST*
G04 #@! TA.AperFunction,SMDPad,CuDef*
%ADD10R,0.600000X2.000000*%
G04 #@! TD*
G04 #@! TA.AperFunction,SMDPad,CuDef*
%ADD11R,0.800000X0.800000*%
G04 #@! TD*
G04 #@! TA.AperFunction,SMDPad,CuDef*
%ADD12C,0.500000*%
G04 #@! TD*
G04 #@! TA.AperFunction,Conductor*
%ADD13C,0.100000*%
G04 #@! TD*
G04 #@! TA.AperFunction,ComponentPad*
%ADD14R,1.700000X1.700000*%
G04 #@! TD*
G04 #@! TA.AperFunction,ComponentPad*
%ADD15O,1.700000X1.700000*%
G04 #@! TD*
G04 #@! TA.AperFunction,ViaPad*
%ADD16C,0.800000*%
G04 #@! TD*
G04 #@! TA.AperFunction,Conductor*
%ADD17C,0.250000*%
G04 #@! TD*
G04 #@! TA.AperFunction,Conductor*
%ADD18C,0.500000*%
G04 #@! TD*
G04 #@! TA.AperFunction,Conductor*
%ADD19C,0.254000*%
G04 #@! TD*
G04 APERTURE END LIST*
D10*
G04 #@! TO.P,U1,1*
G04 #@! TO.N,GND*
X128745000Y-77300000D03*
G04 #@! TO.P,U1,2*
G04 #@! TO.N,Net-(D1-Pad1)*
X130015000Y-77300000D03*
G04 #@! TO.P,U1,3*
G04 #@! TO.N,Net-(D17-Pad1)*
X131285000Y-77300000D03*
G04 #@! TO.P,U1,4*
G04 #@! TO.N,Net-(U1-Pad4)*
X132555000Y-77300000D03*
G04 #@! TO.P,U1,5*
G04 #@! TO.N,Net-(U1-Pad5)*
X133825000Y-77300000D03*
G04 #@! TO.P,U1,6*
G04 #@! TO.N,Net-(U1-Pad6)*
X135095000Y-77300000D03*
G04 #@! TO.P,U1,7*
G04 #@! TO.N,Net-(U1-Pad7)*
X136365000Y-77300000D03*
G04 #@! TO.P,U1,8*
G04 #@! TO.N,Net-(U1-Pad8)*
X137635000Y-77300000D03*
G04 #@! TO.P,U1,9*
G04 #@! TO.N,Net-(U1-Pad9)*
X138905000Y-77300000D03*
G04 #@! TO.P,U1,10*
G04 #@! TO.N,Net-(D16-Pad2)*
X140175000Y-77300000D03*
G04 #@! TO.P,U1,11*
G04 #@! TO.N,Net-(D15-Pad2)*
X141445000Y-77300000D03*
G04 #@! TO.P,U1,12*
G04 #@! TO.N,Net-(D14-Pad2)*
X142715000Y-77300000D03*
G04 #@! TO.P,U1,13*
G04 #@! TO.N,Net-(D13-Pad2)*
X143985000Y-77300000D03*
G04 #@! TO.P,U1,14*
G04 #@! TO.N,Net-(D12-Pad2)*
X145255000Y-77300000D03*
G04 #@! TO.P,U1,15*
G04 #@! TO.N,Net-(D11-Pad2)*
X145255000Y-86700000D03*
G04 #@! TO.P,U1,16*
G04 #@! TO.N,Net-(D10-Pad2)*
X143985000Y-86700000D03*
G04 #@! TO.P,U1,17*
G04 #@! TO.N,Net-(D9-Pad2)*
X142715000Y-86700000D03*
G04 #@! TO.P,U1,18*
G04 #@! TO.N,Net-(D24-Pad2)*
X141445000Y-86700000D03*
G04 #@! TO.P,U1,19*
G04 #@! TO.N,Net-(D23-Pad2)*
X140175000Y-86700000D03*
G04 #@! TO.P,U1,20*
G04 #@! TO.N,Net-(D22-Pad2)*
X138905000Y-86700000D03*
G04 #@! TO.P,U1,21*
G04 #@! TO.N,Net-(D21-Pad2)*
X137635000Y-86700000D03*
G04 #@! TO.P,U1,22*
G04 #@! TO.N,Net-(D20-Pad2)*
X136365000Y-86700000D03*
G04 #@! TO.P,U1,23*
G04 #@! TO.N,Net-(D19-Pad2)*
X135095000Y-86700000D03*
G04 #@! TO.P,U1,24*
G04 #@! TO.N,Net-(D18-Pad2)*
X133825000Y-86700000D03*
G04 #@! TO.P,U1,25*
G04 #@! TO.N,Net-(D1-Pad2)*
X132555000Y-86700000D03*
G04 #@! TO.P,U1,26*
G04 #@! TO.N,SCL*
X131285000Y-86700000D03*
G04 #@! TO.P,U1,27*
G04 #@! TO.N,SDA*
X130015000Y-86700000D03*
G04 #@! TO.P,U1,28*
G04 #@! TO.N,+5V*
X128745000Y-86700000D03*
G04 #@! TD*
D11*
G04 #@! TO.P,C1,1*
G04 #@! TO.N,+5V*
X122900000Y-86750000D03*
G04 #@! TO.P,C1,2*
G04 #@! TO.N,GND*
X121300000Y-86750000D03*
G04 #@! TD*
G04 #@! TO.P,D26,1*
G04 #@! TO.N,Net-(D26-Pad1)*
X111240130Y-81746186D03*
G04 #@! TO.P,D26,2*
G04 #@! TO.N,Net-(D1-Pad1)*
X109640130Y-81746186D03*
G04 #@! TD*
D12*
G04 #@! TO.P,JP1,2*
G04 #@! TO.N,Net-(D1-Pad2)*
X122730130Y-84253186D03*
D13*
G04 #@! TD*
G04 #@! TO.N,Net-(D1-Pad2)*
G04 #@! TO.C,JP1*
G36*
X122730130Y-83503788D02*
X122754664Y-83503788D01*
X122803495Y-83508598D01*
X122851620Y-83518170D01*
X122898575Y-83532414D01*
X122943908Y-83551191D01*
X122987181Y-83574322D01*
X123027980Y-83601582D01*
X123065909Y-83632710D01*
X123100606Y-83667407D01*
X123131734Y-83705336D01*
X123158994Y-83746135D01*
X123182125Y-83789408D01*
X123200902Y-83834741D01*
X123215146Y-83881696D01*
X123224718Y-83929821D01*
X123229528Y-83978652D01*
X123229528Y-84003186D01*
X123230130Y-84003186D01*
X123230130Y-84503186D01*
X123229528Y-84503186D01*
X123229528Y-84527720D01*
X123224718Y-84576551D01*
X123215146Y-84624676D01*
X123200902Y-84671631D01*
X123182125Y-84716964D01*
X123158994Y-84760237D01*
X123131734Y-84801036D01*
X123100606Y-84838965D01*
X123065909Y-84873662D01*
X123027980Y-84904790D01*
X122987181Y-84932050D01*
X122943908Y-84955181D01*
X122898575Y-84973958D01*
X122851620Y-84988202D01*
X122803495Y-84997774D01*
X122754664Y-85002584D01*
X122730130Y-85002584D01*
X122730130Y-85003186D01*
X122230130Y-85003186D01*
X122230130Y-83503186D01*
X122730130Y-83503186D01*
X122730130Y-83503788D01*
X122730130Y-83503788D01*
G37*
D12*
G04 #@! TO.P,JP1,1*
G04 #@! TO.N,Net-(JP1-Pad1)*
X121430130Y-84253186D03*
D13*
G04 #@! TD*
G04 #@! TO.N,Net-(JP1-Pad1)*
G04 #@! TO.C,JP1*
G36*
X121930130Y-85003186D02*
X121430130Y-85003186D01*
X121430130Y-85002584D01*
X121405596Y-85002584D01*
X121356765Y-84997774D01*
X121308640Y-84988202D01*
X121261685Y-84973958D01*
X121216352Y-84955181D01*
X121173079Y-84932050D01*
X121132280Y-84904790D01*
X121094351Y-84873662D01*
X121059654Y-84838965D01*
X121028526Y-84801036D01*
X121001266Y-84760237D01*
X120978135Y-84716964D01*
X120959358Y-84671631D01*
X120945114Y-84624676D01*
X120935542Y-84576551D01*
X120930732Y-84527720D01*
X120930732Y-84503186D01*
X120930130Y-84503186D01*
X120930130Y-84003186D01*
X120930732Y-84003186D01*
X120930732Y-83978652D01*
X120935542Y-83929821D01*
X120945114Y-83881696D01*
X120959358Y-83834741D01*
X120978135Y-83789408D01*
X121001266Y-83746135D01*
X121028526Y-83705336D01*
X121059654Y-83667407D01*
X121094351Y-83632710D01*
X121132280Y-83601582D01*
X121173079Y-83574322D01*
X121216352Y-83551191D01*
X121261685Y-83532414D01*
X121308640Y-83518170D01*
X121356765Y-83508598D01*
X121405596Y-83503788D01*
X121430130Y-83503788D01*
X121430130Y-83503186D01*
X121930130Y-83503186D01*
X121930130Y-85003186D01*
X121930130Y-85003186D01*
G37*
D12*
G04 #@! TO.P,JP2,1*
G04 #@! TO.N,Net-(JP2-Pad1)*
X121430130Y-81753186D03*
D13*
G04 #@! TD*
G04 #@! TO.N,Net-(JP2-Pad1)*
G04 #@! TO.C,JP2*
G36*
X121930130Y-82503186D02*
X121430130Y-82503186D01*
X121430130Y-82502584D01*
X121405596Y-82502584D01*
X121356765Y-82497774D01*
X121308640Y-82488202D01*
X121261685Y-82473958D01*
X121216352Y-82455181D01*
X121173079Y-82432050D01*
X121132280Y-82404790D01*
X121094351Y-82373662D01*
X121059654Y-82338965D01*
X121028526Y-82301036D01*
X121001266Y-82260237D01*
X120978135Y-82216964D01*
X120959358Y-82171631D01*
X120945114Y-82124676D01*
X120935542Y-82076551D01*
X120930732Y-82027720D01*
X120930732Y-82003186D01*
X120930130Y-82003186D01*
X120930130Y-81503186D01*
X120930732Y-81503186D01*
X120930732Y-81478652D01*
X120935542Y-81429821D01*
X120945114Y-81381696D01*
X120959358Y-81334741D01*
X120978135Y-81289408D01*
X121001266Y-81246135D01*
X121028526Y-81205336D01*
X121059654Y-81167407D01*
X121094351Y-81132710D01*
X121132280Y-81101582D01*
X121173079Y-81074322D01*
X121216352Y-81051191D01*
X121261685Y-81032414D01*
X121308640Y-81018170D01*
X121356765Y-81008598D01*
X121405596Y-81003788D01*
X121430130Y-81003788D01*
X121430130Y-81003186D01*
X121930130Y-81003186D01*
X121930130Y-82503186D01*
X121930130Y-82503186D01*
G37*
D12*
G04 #@! TO.P,JP2,2*
G04 #@! TO.N,Net-(D18-Pad2)*
X122730130Y-81753186D03*
D13*
G04 #@! TD*
G04 #@! TO.N,Net-(D18-Pad2)*
G04 #@! TO.C,JP2*
G36*
X122730130Y-81003788D02*
X122754664Y-81003788D01*
X122803495Y-81008598D01*
X122851620Y-81018170D01*
X122898575Y-81032414D01*
X122943908Y-81051191D01*
X122987181Y-81074322D01*
X123027980Y-81101582D01*
X123065909Y-81132710D01*
X123100606Y-81167407D01*
X123131734Y-81205336D01*
X123158994Y-81246135D01*
X123182125Y-81289408D01*
X123200902Y-81334741D01*
X123215146Y-81381696D01*
X123224718Y-81429821D01*
X123229528Y-81478652D01*
X123229528Y-81503186D01*
X123230130Y-81503186D01*
X123230130Y-82003186D01*
X123229528Y-82003186D01*
X123229528Y-82027720D01*
X123224718Y-82076551D01*
X123215146Y-82124676D01*
X123200902Y-82171631D01*
X123182125Y-82216964D01*
X123158994Y-82260237D01*
X123131734Y-82301036D01*
X123100606Y-82338965D01*
X123065909Y-82373662D01*
X123027980Y-82404790D01*
X122987181Y-82432050D01*
X122943908Y-82455181D01*
X122898575Y-82473958D01*
X122851620Y-82488202D01*
X122803495Y-82497774D01*
X122754664Y-82502584D01*
X122730130Y-82502584D01*
X122730130Y-82503186D01*
X122230130Y-82503186D01*
X122230130Y-81003186D01*
X122730130Y-81003186D01*
X122730130Y-81003788D01*
X122730130Y-81003788D01*
G37*
D12*
G04 #@! TO.P,JP3,2*
G04 #@! TO.N,Net-(D19-Pad2)*
X122730130Y-79253186D03*
D13*
G04 #@! TD*
G04 #@! TO.N,Net-(D19-Pad2)*
G04 #@! TO.C,JP3*
G36*
X122730130Y-78503788D02*
X122754664Y-78503788D01*
X122803495Y-78508598D01*
X122851620Y-78518170D01*
X122898575Y-78532414D01*
X122943908Y-78551191D01*
X122987181Y-78574322D01*
X123027980Y-78601582D01*
X123065909Y-78632710D01*
X123100606Y-78667407D01*
X123131734Y-78705336D01*
X123158994Y-78746135D01*
X123182125Y-78789408D01*
X123200902Y-78834741D01*
X123215146Y-78881696D01*
X123224718Y-78929821D01*
X123229528Y-78978652D01*
X123229528Y-79003186D01*
X123230130Y-79003186D01*
X123230130Y-79503186D01*
X123229528Y-79503186D01*
X123229528Y-79527720D01*
X123224718Y-79576551D01*
X123215146Y-79624676D01*
X123200902Y-79671631D01*
X123182125Y-79716964D01*
X123158994Y-79760237D01*
X123131734Y-79801036D01*
X123100606Y-79838965D01*
X123065909Y-79873662D01*
X123027980Y-79904790D01*
X122987181Y-79932050D01*
X122943908Y-79955181D01*
X122898575Y-79973958D01*
X122851620Y-79988202D01*
X122803495Y-79997774D01*
X122754664Y-80002584D01*
X122730130Y-80002584D01*
X122730130Y-80003186D01*
X122230130Y-80003186D01*
X122230130Y-78503186D01*
X122730130Y-78503186D01*
X122730130Y-78503788D01*
X122730130Y-78503788D01*
G37*
D12*
G04 #@! TO.P,JP3,1*
G04 #@! TO.N,Net-(JP3-Pad1)*
X121430130Y-79253186D03*
D13*
G04 #@! TD*
G04 #@! TO.N,Net-(JP3-Pad1)*
G04 #@! TO.C,JP3*
G36*
X121930130Y-80003186D02*
X121430130Y-80003186D01*
X121430130Y-80002584D01*
X121405596Y-80002584D01*
X121356765Y-79997774D01*
X121308640Y-79988202D01*
X121261685Y-79973958D01*
X121216352Y-79955181D01*
X121173079Y-79932050D01*
X121132280Y-79904790D01*
X121094351Y-79873662D01*
X121059654Y-79838965D01*
X121028526Y-79801036D01*
X121001266Y-79760237D01*
X120978135Y-79716964D01*
X120959358Y-79671631D01*
X120945114Y-79624676D01*
X120935542Y-79576551D01*
X120930732Y-79527720D01*
X120930732Y-79503186D01*
X120930130Y-79503186D01*
X120930130Y-79003186D01*
X120930732Y-79003186D01*
X120930732Y-78978652D01*
X120935542Y-78929821D01*
X120945114Y-78881696D01*
X120959358Y-78834741D01*
X120978135Y-78789408D01*
X121001266Y-78746135D01*
X121028526Y-78705336D01*
X121059654Y-78667407D01*
X121094351Y-78632710D01*
X121132280Y-78601582D01*
X121173079Y-78574322D01*
X121216352Y-78551191D01*
X121261685Y-78532414D01*
X121308640Y-78518170D01*
X121356765Y-78508598D01*
X121405596Y-78503788D01*
X121430130Y-78503788D01*
X121430130Y-78503186D01*
X121930130Y-78503186D01*
X121930130Y-80003186D01*
X121930130Y-80003186D01*
G37*
D11*
G04 #@! TO.P,R1,2*
G04 #@! TO.N,Net-(D26-Pad1)*
X115030130Y-83253186D03*
G04 #@! TO.P,R1,1*
G04 #@! TO.N,Net-(JP1-Pad1)*
X116630130Y-83253186D03*
G04 #@! TD*
G04 #@! TO.P,R2,2*
G04 #@! TO.N,Net-(D26-Pad1)*
X115030130Y-81753186D03*
G04 #@! TO.P,R2,1*
G04 #@! TO.N,Net-(JP2-Pad1)*
X116630130Y-81753186D03*
G04 #@! TD*
G04 #@! TO.P,R3,1*
G04 #@! TO.N,Net-(JP3-Pad1)*
X116630130Y-80253186D03*
G04 #@! TO.P,R3,2*
G04 #@! TO.N,Net-(D26-Pad1)*
X115030130Y-80253186D03*
G04 #@! TD*
D14*
G04 #@! TO.P,CN1,1*
G04 #@! TO.N,+5V*
X125000000Y-92500000D03*
D15*
G04 #@! TO.P,CN1,2*
G04 #@! TO.N,SDA*
X127540000Y-92500000D03*
G04 #@! TO.P,CN1,3*
G04 #@! TO.N,SCL*
X130080000Y-92500000D03*
G04 #@! TO.P,CN1,4*
G04 #@! TO.N,Net-(CN1-Pad4)*
X132620000Y-92500000D03*
G04 #@! TO.P,CN1,5*
G04 #@! TO.N,GND*
X135160000Y-92500000D03*
G04 #@! TD*
D16*
G04 #@! TO.N,GND*
X145000000Y-145000000D03*
X135000000Y-145000000D03*
X125000000Y-145000000D03*
X115000000Y-145000000D03*
X145000000Y-135000000D03*
X135000000Y-135000000D03*
X125000000Y-135000000D03*
X115000000Y-135000000D03*
X125000000Y-125000000D03*
X115000000Y-125000000D03*
X145000000Y-125000000D03*
X135000000Y-125000000D03*
X145000000Y-115000000D03*
X115000000Y-115000000D03*
X125000000Y-115000000D03*
X135000000Y-115000000D03*
X155000000Y-125000000D03*
X155000000Y-115000000D03*
X155000000Y-105000000D03*
X145000000Y-105000000D03*
X145000000Y-95000000D03*
X155000000Y-95000000D03*
X165000000Y-105000000D03*
X115000000Y-105000000D03*
X105000000Y-105000000D03*
X105000000Y-115000000D03*
X105000000Y-125000000D03*
X95000000Y-105000000D03*
X105000000Y-95000000D03*
X115000000Y-95000000D03*
X115000000Y-85000000D03*
X105000000Y-85000000D03*
X115000000Y-65000000D03*
X125000000Y-65000000D03*
X135000000Y-65000000D03*
X145000000Y-65000000D03*
X155000000Y-85000000D03*
X125000000Y-95000000D03*
X135000000Y-95000000D03*
X125000000Y-75000000D03*
X115000000Y-75000000D03*
X145000000Y-85000000D03*
X135000000Y-75000000D03*
X145000000Y-75000000D03*
X125000000Y-85000000D03*
X135000000Y-85000000D03*
G04 #@! TO.N,Net-(D1-Pad1)*
X132000000Y-140000000D03*
X116000000Y-140000000D03*
X100600000Y-124050000D03*
X92750000Y-110450000D03*
X153200000Y-134740046D03*
X136000000Y-70000000D03*
X140000000Y-70000000D03*
X98706317Y-89250000D03*
X102759957Y-82200000D03*
X120000000Y-70000000D03*
X104607477Y-79000000D03*
X155392523Y-79000000D03*
X167400000Y-99800000D03*
X161200000Y-121000000D03*
X124000000Y-70000000D03*
G04 #@! TO.N,Net-(D1-Pad2)*
X94734787Y-96100000D03*
G04 #@! TO.N,Net-(D10-Pad2)*
X153100000Y-75100000D03*
G04 #@! TO.N,Net-(D11-Pad2)*
X144000000Y-70000000D03*
G04 #@! TO.N,Net-(D18-Pad2)*
X94803088Y-114000000D03*
G04 #@! TO.N,Net-(D19-Pad2)*
X104618043Y-131000000D03*
G04 #@! TO.N,Net-(D12-Pad2)*
X132000000Y-70000000D03*
G04 #@! TO.N,Net-(D13-Pad2)*
X128000000Y-70000000D03*
G04 #@! TO.N,Net-(D14-Pad2)*
X116000000Y-70000000D03*
G04 #@! TO.N,Net-(D15-Pad2)*
X106881179Y-75100000D03*
G04 #@! TO.N,Net-(D20-Pad2)*
X124000000Y-140000000D03*
G04 #@! TO.N,Net-(D21-Pad2)*
X140000000Y-140000000D03*
G04 #@! TO.N,Net-(D22-Pad2)*
X157268911Y-127750000D03*
G04 #@! TO.N,Net-(D23-Pad2)*
X163400000Y-117130643D03*
G04 #@! TO.N,Net-(D24-Pad2)*
X165207477Y-96000000D03*
G04 #@! TO.N,Net-(D16-Pad2)*
X100700000Y-85800000D03*
G04 #@! TO.N,Net-(D17-Pad1)*
X167400000Y-110200000D03*
X159329734Y-124200000D03*
X144200000Y-140000000D03*
X128000000Y-140000000D03*
X106800000Y-134700000D03*
X98800000Y-120900000D03*
X92700000Y-99700000D03*
X161300000Y-89250000D03*
G04 #@! TO.N,Net-(D9-Pad2)*
X159350000Y-85850000D03*
G04 #@! TD*
D17*
G04 #@! TO.N,Net-(D1-Pad1)*
X94100000Y-112900000D02*
X92750000Y-110450000D01*
X93800000Y-114200000D02*
X94100000Y-112900000D01*
X99500000Y-122100000D02*
X99900000Y-120900000D01*
X94200000Y-114900000D02*
X93800000Y-114200000D01*
X100600000Y-124050000D02*
X99500000Y-122100000D01*
X99900000Y-120900000D02*
X99300000Y-119900000D01*
X99300000Y-119900000D02*
X98100000Y-119700000D01*
X98100000Y-119700000D02*
X95500000Y-115200000D01*
X95500000Y-115200000D02*
X94200000Y-114900000D01*
X167750000Y-98500000D02*
X167400000Y-99800000D01*
X165800000Y-95200000D02*
X167750000Y-98500000D01*
X164600000Y-95000000D02*
X165800000Y-95200000D01*
X160800000Y-90300000D02*
X162000000Y-90600000D01*
X156700000Y-79300000D02*
X160400000Y-85800000D01*
X155392523Y-79000000D02*
X156700000Y-79300000D01*
X162000000Y-90600000D02*
X164600000Y-95000000D01*
X160400000Y-85800000D02*
X160000000Y-86900000D01*
X160000000Y-86900000D02*
X160700000Y-88200000D01*
X160700000Y-88200000D02*
X160200000Y-89300000D01*
X160200000Y-89300000D02*
X160800000Y-90300000D01*
X163500000Y-88800000D02*
X160700000Y-88200000D01*
X167300000Y-93300000D02*
X165800000Y-93000000D01*
X170000000Y-98000000D02*
X167300000Y-93300000D01*
X168600000Y-101800000D02*
X169000000Y-101400000D01*
X165800000Y-93000000D02*
X163500000Y-88800000D01*
X168600000Y-110100000D02*
X168600000Y-101800000D01*
X161200000Y-121000000D02*
X162400000Y-120800000D01*
X169000000Y-101400000D02*
X170000000Y-98000000D01*
X163400000Y-119000000D02*
X164600000Y-118800000D01*
X164600000Y-118800000D02*
X165400000Y-117200000D01*
X162400000Y-120800000D02*
X163400000Y-119000000D01*
X165400000Y-117200000D02*
X165000000Y-116200000D01*
X165000000Y-116200000D02*
X168600000Y-110100000D01*
X161600000Y-122100000D02*
X161200000Y-121000000D01*
X153200000Y-134740046D02*
X154500000Y-134500000D01*
X156100000Y-131700000D02*
X157200000Y-129700000D01*
X159000000Y-126700000D02*
X161600000Y-122100000D01*
X157200000Y-129700000D02*
X158500000Y-129600000D01*
X158500000Y-129600000D02*
X159500000Y-127700000D01*
X154500000Y-134500000D02*
X156100000Y-131700000D01*
X159500000Y-127700000D02*
X159000000Y-126700000D01*
X100000000Y-86900000D02*
X99600000Y-85500000D01*
X98706317Y-89250000D02*
X100000000Y-86900000D01*
X99600000Y-85500000D02*
X101300000Y-82500000D01*
X101300000Y-82500000D02*
X102759957Y-82200000D01*
X119000000Y-69000000D02*
X120000000Y-70000000D01*
X115900000Y-69000000D02*
X119000000Y-69000000D01*
X111100000Y-71700000D02*
X115900000Y-69000000D01*
X106100000Y-74400000D02*
X111100000Y-71700000D01*
X104607477Y-79000000D02*
X104200000Y-77600000D01*
X104200000Y-77600000D02*
X106100000Y-74400000D01*
X98600000Y-91350000D02*
X96550000Y-95000000D01*
X100100000Y-91000000D02*
X98600000Y-91350000D01*
X96550000Y-95000000D02*
X94761785Y-95000000D01*
X93750000Y-96011785D02*
X93750000Y-109450000D01*
X94761785Y-95000000D02*
X93750000Y-96011785D01*
X103000000Y-87600000D02*
X101750000Y-87800000D01*
X93750000Y-109450000D02*
X92750000Y-110450000D01*
X101750000Y-87800000D02*
X100100000Y-91000000D01*
X130015000Y-76050000D02*
X130015000Y-77300000D01*
X124000000Y-70000000D02*
X125000000Y-69000000D01*
X125000000Y-69000000D02*
X135000000Y-69000000D01*
X135000000Y-69000000D02*
X136000000Y-70000000D01*
X145500000Y-139400000D02*
X153200000Y-134740046D01*
X144300000Y-142000000D02*
X145500000Y-139400000D01*
X137500000Y-142000000D02*
X144300000Y-142000000D01*
X132000000Y-140000000D02*
X135500000Y-140000000D01*
X135500000Y-140000000D02*
X137500000Y-142000000D01*
X131000000Y-140000000D02*
X132000000Y-140000000D01*
X129500000Y-140000000D02*
X131000000Y-140000000D01*
X127500000Y-142000000D02*
X129500000Y-140000000D01*
X116000000Y-140000000D02*
X118000000Y-142000000D01*
X118000000Y-142000000D02*
X127500000Y-142000000D01*
X109640130Y-81746186D02*
X109640130Y-85250000D01*
X130015000Y-74765000D02*
X130015000Y-77300000D01*
X109650000Y-76750000D02*
X113000000Y-74000000D01*
X109640130Y-81746186D02*
X109650000Y-76750000D01*
X127000000Y-74000000D02*
X127500000Y-74500000D01*
X127500000Y-74500000D02*
X129750000Y-74500000D01*
X113000000Y-74000000D02*
X127000000Y-74000000D01*
X129750000Y-74500000D02*
X130015000Y-74765000D01*
X130015000Y-78550000D02*
X130465000Y-79000000D01*
X144725001Y-70725001D02*
X140725001Y-70725001D01*
X130015000Y-77300000D02*
X130015000Y-78550000D01*
X130465000Y-79000000D02*
X146000000Y-79000000D01*
X140725001Y-70725001D02*
X140000000Y-70000000D01*
X147000000Y-78000000D02*
X147000000Y-73000000D01*
X146000000Y-79000000D02*
X147000000Y-78000000D01*
X147000000Y-73000000D02*
X144725001Y-70725001D01*
X108750000Y-86000000D02*
X103900000Y-86000000D01*
X103900000Y-86000000D02*
X103000000Y-87600000D01*
X108890130Y-86000000D02*
X109640130Y-85250000D01*
X108750000Y-86000000D02*
X108890130Y-86000000D01*
X155600000Y-77400000D02*
X155392523Y-79000000D01*
X153800000Y-74300000D02*
X155600000Y-77400000D01*
X145200000Y-69000000D02*
X153800000Y-74300000D01*
X140000000Y-70000000D02*
X141000000Y-69000000D01*
X141000000Y-69000000D02*
X145200000Y-69000000D01*
G04 #@! TO.N,Net-(D1-Pad2)*
X132555000Y-83055000D02*
X132555000Y-86700000D01*
X132000000Y-82500000D02*
X132555000Y-83055000D01*
X124500000Y-82500000D02*
X132000000Y-82500000D01*
X124000000Y-83000000D02*
X124500000Y-82500000D01*
X122730130Y-84253186D02*
X123983316Y-83000000D01*
X123983316Y-83000000D02*
X124000000Y-83000000D01*
X132555000Y-89945000D02*
X131350000Y-91150000D01*
X130500000Y-96100000D02*
X94734787Y-96100000D01*
X131350000Y-91150000D02*
X131350000Y-95250000D01*
X131350000Y-95250000D02*
X130500000Y-96100000D01*
X132555000Y-86700000D02*
X132555000Y-89945000D01*
G04 #@! TO.N,Net-(D10-Pad2)*
X149750000Y-73000000D02*
X153100000Y-75100000D01*
X149250000Y-73000000D02*
X149750000Y-73000000D01*
X143985000Y-86700000D02*
X143985000Y-88485000D01*
X144500000Y-89000000D02*
X147000000Y-89000000D01*
X147000000Y-89000000D02*
X149000000Y-87000000D01*
X149000000Y-87000000D02*
X149000000Y-73250000D01*
X143985000Y-88485000D02*
X144500000Y-89000000D01*
X149000000Y-73250000D02*
X149250000Y-73000000D01*
G04 #@! TO.N,Net-(D11-Pad2)*
X145255000Y-87950000D02*
X145255000Y-86700000D01*
X145250000Y-70000000D02*
X148000000Y-72250000D01*
X144000000Y-70000000D02*
X145250000Y-70000000D01*
X148000000Y-72250000D02*
X148000000Y-86500000D01*
X148000000Y-86500000D02*
X146500000Y-88000000D01*
X146500000Y-88000000D02*
X145305000Y-88000000D01*
X145305000Y-88000000D02*
X145255000Y-87950000D01*
G04 #@! TO.N,Net-(JP1-Pad1)*
X120430130Y-83253186D02*
X121430130Y-84253186D01*
X116630130Y-83253186D02*
X120430130Y-83253186D01*
G04 #@! TO.N,Net-(JP2-Pad1)*
X120830130Y-81753186D02*
X116630130Y-81753186D01*
X121430130Y-81753186D02*
X120830130Y-81753186D01*
G04 #@! TO.N,Net-(JP3-Pad1)*
X120430130Y-80253186D02*
X121430130Y-79253186D01*
X116630130Y-80253186D02*
X120430130Y-80253186D01*
D18*
G04 #@! TO.N,SCL*
X131250000Y-86735000D02*
X131285000Y-86700000D01*
X130080000Y-92500000D02*
X130080000Y-90205000D01*
X130080000Y-90205000D02*
X131285000Y-89000000D01*
X131285000Y-89000000D02*
X131285000Y-86700000D01*
G04 #@! TO.N,SDA*
X130000000Y-86715000D02*
X130015000Y-86700000D01*
X127540000Y-92500000D02*
X127540000Y-91297919D01*
X127540000Y-91297919D02*
X130015000Y-88822919D01*
X130015000Y-88750000D02*
X130015000Y-86700000D01*
X130015000Y-88822919D02*
X130015000Y-88750000D01*
D17*
G04 #@! TO.N,Net-(D18-Pad2)*
X133825000Y-82825000D02*
X133825000Y-86700000D01*
X122730130Y-81753186D02*
X132753186Y-81753186D01*
X132753186Y-81753186D02*
X133825000Y-82825000D01*
X96803088Y-112000000D02*
X94803088Y-114000000D01*
X119000000Y-112000000D02*
X96803088Y-112000000D01*
X133825000Y-86700000D02*
X133825000Y-94175000D01*
X133825000Y-94175000D02*
X131000000Y-97000000D01*
X131000000Y-97000000D02*
X121000000Y-97000000D01*
X120000000Y-98000000D02*
X120000000Y-111000000D01*
X121000000Y-97000000D02*
X120000000Y-98000000D01*
X120000000Y-111000000D02*
X119000000Y-112000000D01*
G04 #@! TO.N,Net-(D19-Pad2)*
X124476944Y-81000000D02*
X122730130Y-79253186D01*
X133595000Y-81000000D02*
X124476944Y-81000000D01*
X136000000Y-83405000D02*
X133595000Y-81000000D01*
X136000000Y-85095000D02*
X136000000Y-83405000D01*
X135095000Y-86700000D02*
X135095000Y-86000000D01*
X135095000Y-86000000D02*
X136000000Y-85095000D01*
X138000000Y-93000000D02*
X135095000Y-90095000D01*
X138000000Y-102000000D02*
X138000000Y-93000000D01*
X122000000Y-103000000D02*
X137000000Y-103000000D01*
X104618043Y-128381957D02*
X105500000Y-127500000D01*
X104618043Y-131000000D02*
X104618043Y-128381957D01*
X137000000Y-103000000D02*
X138000000Y-102000000D01*
X105500000Y-127500000D02*
X120000000Y-127500000D01*
X120000000Y-127500000D02*
X121000000Y-126500000D01*
X121000000Y-126500000D02*
X121000000Y-104000000D01*
X135095000Y-90095000D02*
X135095000Y-86700000D01*
X121000000Y-104000000D02*
X122000000Y-103000000D01*
G04 #@! TO.N,Net-(D12-Pad2)*
X145255000Y-76495000D02*
X145255000Y-77300000D01*
X145750000Y-76000000D02*
X145255000Y-76495000D01*
X145750000Y-72995000D02*
X145750000Y-76000000D01*
X144255000Y-71500000D02*
X145750000Y-72995000D01*
X132000000Y-70000000D02*
X133500000Y-71500000D01*
X133500000Y-71500000D02*
X144255000Y-71500000D01*
G04 #@! TO.N,Net-(D13-Pad2)*
X142985000Y-72000000D02*
X143985000Y-73000000D01*
X143985000Y-73000000D02*
X143985000Y-77300000D01*
X130500000Y-70000000D02*
X132500000Y-72000000D01*
X128000000Y-70000000D02*
X130500000Y-70000000D01*
X132500000Y-72000000D02*
X142985000Y-72000000D01*
G04 #@! TO.N,Net-(D14-Pad2)*
X113750000Y-71250000D02*
X116000000Y-70000000D01*
X113600000Y-71700000D02*
X113750000Y-71250000D01*
X142715000Y-73500000D02*
X141715000Y-72500000D01*
X142715000Y-77300000D02*
X142715000Y-73500000D01*
X141715000Y-72500000D02*
X129500000Y-72500000D01*
X129500000Y-72500000D02*
X129000000Y-72000000D01*
X129000000Y-72000000D02*
X114000000Y-72000000D01*
X114000000Y-72000000D02*
X113600000Y-71700000D01*
G04 #@! TO.N,Net-(D15-Pad2)*
X111600000Y-72500000D02*
X106881179Y-75100000D01*
X128500000Y-72500000D02*
X111600000Y-72500000D01*
X129000000Y-73000000D02*
X128500000Y-72500000D01*
X140445000Y-73000000D02*
X129000000Y-73000000D01*
X141445000Y-77300000D02*
X141445000Y-74000000D01*
X141445000Y-74000000D02*
X140445000Y-73000000D01*
G04 #@! TO.N,Net-(D20-Pad2)*
X139000000Y-106000000D02*
X139000000Y-92500000D01*
X124000000Y-140000000D02*
X123000000Y-140000000D01*
X136365000Y-89865000D02*
X136365000Y-86700000D01*
X122000000Y-139000000D02*
X122000000Y-108000000D01*
X139000000Y-92500000D02*
X136365000Y-89865000D01*
X122000000Y-108000000D02*
X123000000Y-107000000D01*
X123000000Y-140000000D02*
X122000000Y-139000000D01*
X123000000Y-107000000D02*
X138000000Y-107000000D01*
X138000000Y-107000000D02*
X139000000Y-106000000D01*
G04 #@! TO.N,Net-(D21-Pad2)*
X137635000Y-89635000D02*
X137635000Y-86700000D01*
X140000000Y-140000000D02*
X140000000Y-92000000D01*
X140000000Y-92000000D02*
X137635000Y-89635000D01*
G04 #@! TO.N,Net-(D22-Pad2)*
X141000000Y-91500000D02*
X141000000Y-126200000D01*
X138905000Y-86700000D02*
X138905000Y-89405000D01*
X138905000Y-89405000D02*
X141000000Y-91500000D01*
X157018911Y-127500000D02*
X157268911Y-127750000D01*
X141000000Y-126250000D02*
X142250000Y-127500000D01*
X142250000Y-127500000D02*
X157018911Y-127500000D01*
G04 #@! TO.N,Net-(D23-Pad2)*
X163400000Y-112900000D02*
X162500000Y-112000000D01*
X143000000Y-112000000D02*
X142000000Y-111000000D01*
X140175000Y-89175000D02*
X140175000Y-86700000D01*
X163400000Y-117130643D02*
X163400000Y-112900000D01*
X162500000Y-112000000D02*
X143000000Y-112000000D01*
X142000000Y-111000000D02*
X142000000Y-91000000D01*
X142000000Y-91000000D02*
X140175000Y-89175000D01*
G04 #@! TO.N,Net-(D24-Pad2)*
X144500000Y-96000000D02*
X165207477Y-96000000D01*
X143500000Y-96000000D02*
X144500000Y-96000000D01*
X143000000Y-95500000D02*
X143500000Y-96000000D01*
X143000000Y-90500000D02*
X143000000Y-95400000D01*
X141445000Y-86700000D02*
X141445000Y-88945000D01*
X141445000Y-88945000D02*
X143000000Y-90500000D01*
G04 #@! TO.N,Net-(D16-Pad2)*
X140175000Y-74175000D02*
X140175000Y-77300000D01*
X139500000Y-73500000D02*
X140175000Y-74175000D01*
X101900000Y-85650000D02*
X107500000Y-75900000D01*
X100700000Y-85800000D02*
X101900000Y-85650000D01*
X107500000Y-75900000D02*
X107600000Y-75800000D01*
X107600000Y-75800000D02*
X112000000Y-73000000D01*
X112000000Y-73000000D02*
X128000000Y-73000000D01*
X128500000Y-73500000D02*
X139500000Y-73500000D01*
X128000000Y-73000000D02*
X128500000Y-73500000D01*
G04 #@! TO.N,Net-(D17-Pad1)*
X160500000Y-122200000D02*
X159329734Y-124200000D01*
X160100000Y-121200000D02*
X160500000Y-122200000D01*
X160800000Y-120000000D02*
X160100000Y-121200000D01*
X164050000Y-116000000D02*
X164450000Y-117150000D01*
X167400000Y-110200000D02*
X164050000Y-116000000D01*
X164450000Y-117150000D02*
X163950000Y-118050000D01*
X163950000Y-118050000D02*
X162788420Y-118200000D01*
X162788420Y-118200000D02*
X161900000Y-119800000D01*
X161900000Y-119800000D02*
X160800000Y-120000000D01*
X98400000Y-122200000D02*
X98800000Y-120900000D01*
X106800000Y-134700000D02*
X105400000Y-134400000D01*
X105400000Y-134400000D02*
X98400000Y-122200000D01*
X127000000Y-141000000D02*
X128000000Y-140000000D01*
X118600000Y-141000000D02*
X127000000Y-141000000D01*
X116800000Y-139200000D02*
X118600000Y-141000000D01*
X106800000Y-134700000D02*
X115000000Y-139200000D01*
X115000000Y-139200000D02*
X116800000Y-139200000D01*
X162700000Y-89600000D02*
X161300000Y-89250000D01*
X167400000Y-101300000D02*
X168200000Y-100500000D01*
X167400000Y-110200000D02*
X167400000Y-101300000D01*
X168200000Y-100500000D02*
X168800000Y-98200000D01*
X168800000Y-98200000D02*
X166400000Y-94200000D01*
X166400000Y-94200000D02*
X165200000Y-94000000D01*
X165200000Y-94000000D02*
X162700000Y-89600000D01*
X152800000Y-133900000D02*
X144800000Y-138600000D01*
X157900000Y-126600000D02*
X158400000Y-127700000D01*
X159329734Y-124200000D02*
X157900000Y-126600000D01*
X144800000Y-138600000D02*
X144200000Y-140000000D01*
X157900000Y-128600000D02*
X156700000Y-128700000D01*
X158400000Y-127700000D02*
X157900000Y-128600000D01*
X156700000Y-128700000D02*
X153800000Y-133700000D01*
X153800000Y-133700000D02*
X152800000Y-133900000D01*
X92700000Y-108900000D02*
X92700000Y-99700000D01*
X91800000Y-109800000D02*
X92700000Y-108900000D01*
X91700000Y-110443750D02*
X91800000Y-109800000D01*
X98800000Y-120900000D02*
X97500000Y-120750000D01*
X94750000Y-116000000D02*
X93500000Y-115750000D01*
X97500000Y-120750000D02*
X94750000Y-116000000D01*
X93500000Y-115750000D02*
X92600000Y-114200000D01*
X92600000Y-114200000D02*
X93000000Y-112800000D01*
X93000000Y-112800000D02*
X91700000Y-110443750D01*
X131285000Y-77300000D02*
X131285000Y-75785000D01*
X131285000Y-74785000D02*
X131285000Y-77300000D01*
X128000000Y-74000000D02*
X130500000Y-74000000D01*
X127500000Y-73500000D02*
X128000000Y-74000000D01*
X112500000Y-73500000D02*
X127500000Y-73500000D01*
X108200000Y-76600000D02*
X112500000Y-73500000D01*
X108100000Y-76700000D02*
X108200000Y-76600000D01*
X102400000Y-86600000D02*
X108100000Y-76700000D01*
X130500000Y-74000000D02*
X131285000Y-74785000D01*
X92700000Y-95800000D02*
X94500000Y-94000000D01*
X92700000Y-99700000D02*
X92700000Y-95800000D01*
X94500000Y-94000000D02*
X95900000Y-94000000D01*
X95900000Y-94000000D02*
X98000000Y-90400000D01*
X98000000Y-90400000D02*
X99200000Y-90200000D01*
X101100000Y-86800000D02*
X102400000Y-86600000D01*
X99200000Y-90200000D02*
X101100000Y-86800000D01*
X143700000Y-141000000D02*
X144200000Y-140000000D01*
X138000000Y-141000000D02*
X143700000Y-141000000D01*
X128000000Y-140000000D02*
X129000000Y-139000000D01*
X129000000Y-139000000D02*
X136000000Y-139000000D01*
X136000000Y-139000000D02*
X138000000Y-141000000D01*
G04 #@! TO.N,Net-(D26-Pad1)*
X111247130Y-81753186D02*
X111240130Y-81746186D01*
X115030130Y-81753186D02*
X111247130Y-81753186D01*
X115030130Y-80253186D02*
X115030130Y-83253186D01*
D18*
G04 #@! TO.N,+5V*
X128695000Y-86750000D02*
X128745000Y-86700000D01*
X122900000Y-86750000D02*
X128695000Y-86750000D01*
X128745000Y-88755000D02*
X128745000Y-88255000D01*
X125000000Y-92500000D02*
X128745000Y-88755000D01*
X128745000Y-88255000D02*
X128745000Y-86700000D01*
D17*
G04 #@! TO.N,Net-(D9-Pad2)*
X142715000Y-88785000D02*
X142715000Y-86700000D01*
X143930000Y-90000000D02*
X142715000Y-88785000D01*
X147500000Y-90000000D02*
X143930000Y-90000000D01*
X152000000Y-85850000D02*
X151650000Y-85850000D01*
X159350000Y-85850000D02*
X152000000Y-85850000D01*
X147500000Y-90000000D02*
X151650000Y-85850000D01*
G04 #@! TD*
D19*
G04 #@! TO.N,GND*
G36*
X179180163Y-105000000D02*
X154590082Y-147591270D01*
X105409919Y-147591270D01*
X102502476Y-142555431D01*
X105765000Y-142555431D01*
X105765000Y-143444569D01*
X106105259Y-144266026D01*
X106733974Y-144894741D01*
X107555431Y-145235000D01*
X108444569Y-145235000D01*
X109266026Y-144894741D01*
X109894741Y-144266026D01*
X110235000Y-143444569D01*
X110235000Y-142555431D01*
X109894741Y-141733974D01*
X109266026Y-141105259D01*
X108444569Y-140765000D01*
X107555431Y-140765000D01*
X106733974Y-141105259D01*
X106105259Y-141733974D01*
X105765000Y-142555431D01*
X102502476Y-142555431D01*
X84012553Y-110529945D01*
X90929921Y-110529945D01*
X90944966Y-110577269D01*
X90947063Y-110626882D01*
X90990377Y-110720107D01*
X90998402Y-110745350D01*
X91021857Y-110787863D01*
X91074459Y-110901078D01*
X91094462Y-110919459D01*
X92183118Y-112892648D01*
X91887808Y-113926234D01*
X91851023Y-114001292D01*
X91841962Y-114144966D01*
X91830177Y-114288453D01*
X91832464Y-114295573D01*
X91831993Y-114303038D01*
X91878609Y-114439259D01*
X91922626Y-114576319D01*
X91976695Y-114640065D01*
X92817078Y-116087393D01*
X92855254Y-116179830D01*
X92945393Y-116270157D01*
X93029795Y-116365922D01*
X93051642Y-116376629D01*
X93068822Y-116393845D01*
X93186677Y-116442807D01*
X93301291Y-116498977D01*
X93401109Y-116505272D01*
X94264295Y-116677910D01*
X96832651Y-121114164D01*
X96892877Y-121231511D01*
X96965822Y-121293443D01*
X97029013Y-121365325D01*
X97080028Y-121390407D01*
X97123358Y-121427195D01*
X97214457Y-121456499D01*
X97300340Y-121498724D01*
X97432005Y-121507196D01*
X97804774Y-121550208D01*
X97691789Y-121917410D01*
X97652058Y-121997433D01*
X97642646Y-122135348D01*
X97628547Y-122272886D01*
X97632384Y-122285717D01*
X97631472Y-122299077D01*
X97675559Y-122430110D01*
X97715163Y-122562560D01*
X97771568Y-122631850D01*
X104713726Y-134731043D01*
X104749427Y-134820959D01*
X104840582Y-134914843D01*
X104926626Y-135013490D01*
X104945425Y-135022824D01*
X104960043Y-135037879D01*
X105080201Y-135089739D01*
X105197432Y-135147943D01*
X105293962Y-135154530D01*
X105926326Y-135290037D01*
X106213720Y-135577431D01*
X106594126Y-135735000D01*
X107005874Y-135735000D01*
X107063093Y-135711299D01*
X114605322Y-139850328D01*
X114703463Y-139915904D01*
X114810992Y-139937293D01*
X114915544Y-139970272D01*
X114965000Y-139965951D01*
X114965000Y-140205874D01*
X115122569Y-140586280D01*
X115413720Y-140877431D01*
X115794126Y-141035000D01*
X115960199Y-141035000D01*
X117409671Y-142484473D01*
X117452071Y-142547929D01*
X117703463Y-142715904D01*
X117925148Y-142760000D01*
X117925152Y-142760000D01*
X117999999Y-142774888D01*
X118074846Y-142760000D01*
X127425153Y-142760000D01*
X127500000Y-142774888D01*
X127574847Y-142760000D01*
X127574852Y-142760000D01*
X127796537Y-142715904D01*
X128047929Y-142547929D01*
X128090331Y-142484470D01*
X129814802Y-140760000D01*
X131296289Y-140760000D01*
X131413720Y-140877431D01*
X131794126Y-141035000D01*
X132205874Y-141035000D01*
X132586280Y-140877431D01*
X132703711Y-140760000D01*
X135185199Y-140760000D01*
X136909671Y-142484473D01*
X136952071Y-142547929D01*
X137203463Y-142715904D01*
X137425148Y-142760000D01*
X137425152Y-142760000D01*
X137499999Y-142774888D01*
X137574846Y-142760000D01*
X144209882Y-142760000D01*
X144269239Y-142774278D01*
X144359642Y-142760000D01*
X144374852Y-142760000D01*
X144433478Y-142748339D01*
X144567883Y-142727111D01*
X144581209Y-142718953D01*
X144596537Y-142715904D01*
X144709702Y-142640290D01*
X144825745Y-142569248D01*
X144834934Y-142556612D01*
X144836701Y-142555431D01*
X149765000Y-142555431D01*
X149765000Y-143444569D01*
X150105259Y-144266026D01*
X150733974Y-144894741D01*
X151555431Y-145235000D01*
X152444569Y-145235000D01*
X153266026Y-144894741D01*
X153894741Y-144266026D01*
X154235000Y-143444569D01*
X154235000Y-142555431D01*
X153894741Y-141733974D01*
X153266026Y-141105259D01*
X152444569Y-140765000D01*
X151555431Y-140765000D01*
X150733974Y-141105259D01*
X150105259Y-141733974D01*
X149765000Y-142555431D01*
X144836701Y-142555431D01*
X144847929Y-142547929D01*
X144923544Y-142434764D01*
X144958681Y-142386446D01*
X144965052Y-142372643D01*
X145015904Y-142296537D01*
X145027815Y-142236655D01*
X146092548Y-139929736D01*
X152972479Y-135766079D01*
X152994126Y-135775046D01*
X153405874Y-135775046D01*
X153786280Y-135617477D01*
X154047323Y-135356434D01*
X154595846Y-135255149D01*
X154703886Y-135247584D01*
X154810705Y-135194315D01*
X154921602Y-135150157D01*
X154945108Y-135127289D01*
X154974455Y-135112654D01*
X155052757Y-135022561D01*
X155138314Y-134939326D01*
X155181133Y-134839844D01*
X156725829Y-132136627D01*
X156729851Y-132131844D01*
X156762933Y-132071696D01*
X156797001Y-132012076D01*
X156798984Y-132006148D01*
X157667928Y-130426250D01*
X158418483Y-130368515D01*
X158428982Y-130371627D01*
X158568808Y-130356952D01*
X158632920Y-130352020D01*
X158643179Y-130349146D01*
X158729676Y-130340068D01*
X158787366Y-130308756D01*
X158850570Y-130291051D01*
X158918963Y-130237330D01*
X158995405Y-130195840D01*
X159036723Y-130144833D01*
X159088338Y-130104290D01*
X159130966Y-130028487D01*
X159137675Y-130020205D01*
X159167631Y-129963289D01*
X159236538Y-129840756D01*
X159237844Y-129829883D01*
X160166600Y-128065249D01*
X160235123Y-127945041D01*
X160246279Y-127856544D01*
X160271627Y-127771019D01*
X160265010Y-127707968D01*
X160272939Y-127645068D01*
X160249378Y-127559034D01*
X160240068Y-127470324D01*
X160174061Y-127348712D01*
X159860638Y-126721867D01*
X162239445Y-122513211D01*
X162302191Y-122427689D01*
X162331124Y-122309600D01*
X162369152Y-122194112D01*
X162366877Y-122163675D01*
X162374141Y-122134028D01*
X162355680Y-122013848D01*
X162346619Y-121892606D01*
X162298836Y-121797905D01*
X162226643Y-121599375D01*
X162493748Y-121554858D01*
X162612878Y-121545073D01*
X162709052Y-121495656D01*
X162810196Y-121457412D01*
X162842445Y-121427115D01*
X162881801Y-121406893D01*
X162951747Y-121324430D01*
X163030553Y-121250394D01*
X163079720Y-121141439D01*
X163886400Y-119689416D01*
X164710054Y-119552140D01*
X164845041Y-119535123D01*
X164924568Y-119489789D01*
X165010196Y-119457412D01*
X165054682Y-119415619D01*
X165107708Y-119385392D01*
X165163833Y-119313075D01*
X165230553Y-119250394D01*
X165286527Y-119126355D01*
X166056349Y-117586715D01*
X166112235Y-117505243D01*
X166138908Y-117379201D01*
X166172939Y-117254932D01*
X166170052Y-117232030D01*
X166174831Y-117209447D01*
X166151236Y-117082775D01*
X166135123Y-116954960D01*
X166086196Y-116869130D01*
X165844373Y-116264572D01*
X169243723Y-110504564D01*
X169315904Y-110396537D01*
X169334967Y-110300700D01*
X169367257Y-110208482D01*
X169360000Y-110078778D01*
X169360000Y-104555431D01*
X171765000Y-104555431D01*
X171765000Y-105444569D01*
X172105259Y-106266026D01*
X172733974Y-106894741D01*
X173555431Y-107235000D01*
X174444569Y-107235000D01*
X175266026Y-106894741D01*
X175894741Y-106266026D01*
X176235000Y-105444569D01*
X176235000Y-104555431D01*
X175894741Y-103733974D01*
X175266026Y-103105259D01*
X174444569Y-102765000D01*
X173555431Y-102765000D01*
X172733974Y-103105259D01*
X172105259Y-103733974D01*
X171765000Y-104555431D01*
X169360000Y-104555431D01*
X169360000Y-102114802D01*
X169513288Y-101961514D01*
X169603140Y-101886491D01*
X169654451Y-101788508D01*
X169715903Y-101696538D01*
X169738739Y-101581732D01*
X170710387Y-98278132D01*
X170748049Y-98202175D01*
X170757695Y-98059734D01*
X170770486Y-97917517D01*
X170767888Y-97909206D01*
X170768476Y-97900519D01*
X170722872Y-97765212D01*
X170680271Y-97628943D01*
X170625933Y-97563864D01*
X167983599Y-92964246D01*
X167944746Y-92870170D01*
X167855842Y-92781080D01*
X167773051Y-92686262D01*
X167749637Y-92674652D01*
X167731178Y-92656155D01*
X167614947Y-92607868D01*
X167502175Y-92551951D01*
X167400622Y-92545074D01*
X166296434Y-92324237D01*
X164189081Y-88476028D01*
X164150573Y-88379040D01*
X164064670Y-88290566D01*
X163985485Y-88196050D01*
X163959989Y-88182753D01*
X163939957Y-88162121D01*
X163826734Y-88113255D01*
X163717408Y-88056236D01*
X163613469Y-88047062D01*
X161202652Y-87530459D01*
X160830651Y-86839601D01*
X161099232Y-86101006D01*
X161147245Y-86005126D01*
X161155855Y-85885010D01*
X161174141Y-85765972D01*
X161166596Y-85735177D01*
X161168863Y-85703553D01*
X161130849Y-85589278D01*
X161102191Y-85472311D01*
X161038758Y-85385854D01*
X157389491Y-78974978D01*
X157356589Y-78888487D01*
X157263916Y-78790239D01*
X157175470Y-78688134D01*
X157160565Y-78680670D01*
X157149129Y-78668546D01*
X157025897Y-78613233D01*
X156905126Y-78552755D01*
X156812824Y-78546138D01*
X156273550Y-78422403D01*
X156269954Y-78413720D01*
X156238933Y-78382699D01*
X156337580Y-77621963D01*
X156348977Y-77598708D01*
X156356913Y-77472875D01*
X156363315Y-77423503D01*
X156361615Y-77398316D01*
X156368007Y-77296961D01*
X156351522Y-77248788D01*
X156348093Y-77197988D01*
X156302998Y-77106992D01*
X156294825Y-77083108D01*
X156269826Y-77040054D01*
X156213841Y-76927083D01*
X156194337Y-76910045D01*
X154475691Y-73950156D01*
X154428046Y-73846115D01*
X154345076Y-73769030D01*
X154270204Y-73684078D01*
X154167461Y-73633726D01*
X145610638Y-68360336D01*
X145496537Y-68284096D01*
X145407875Y-68266460D01*
X145323151Y-68234960D01*
X145186061Y-68240000D01*
X141074848Y-68240000D01*
X141000000Y-68225112D01*
X140925152Y-68240000D01*
X140925148Y-68240000D01*
X140703463Y-68284096D01*
X140452071Y-68452071D01*
X140409671Y-68515527D01*
X139960199Y-68965000D01*
X139794126Y-68965000D01*
X139413720Y-69122569D01*
X139122569Y-69413720D01*
X138965000Y-69794126D01*
X138965000Y-70205874D01*
X139122569Y-70586280D01*
X139276289Y-70740000D01*
X136723711Y-70740000D01*
X136877431Y-70586280D01*
X137035000Y-70205874D01*
X137035000Y-69794126D01*
X136877431Y-69413720D01*
X136586280Y-69122569D01*
X136205874Y-68965000D01*
X136039802Y-68965000D01*
X135590331Y-68515530D01*
X135547929Y-68452071D01*
X135296537Y-68284096D01*
X135074852Y-68240000D01*
X135074847Y-68240000D01*
X135000000Y-68225112D01*
X134925153Y-68240000D01*
X125074848Y-68240000D01*
X125000000Y-68225112D01*
X124925152Y-68240000D01*
X124925148Y-68240000D01*
X124703463Y-68284096D01*
X124452071Y-68452071D01*
X124409671Y-68515527D01*
X123960199Y-68965000D01*
X123794126Y-68965000D01*
X123413720Y-69122569D01*
X123122569Y-69413720D01*
X122965000Y-69794126D01*
X122965000Y-70205874D01*
X123122569Y-70586280D01*
X123413720Y-70877431D01*
X123794126Y-71035000D01*
X124205874Y-71035000D01*
X124586280Y-70877431D01*
X124877431Y-70586280D01*
X125035000Y-70205874D01*
X125035000Y-70039801D01*
X125314802Y-69760000D01*
X126979135Y-69760000D01*
X126965000Y-69794126D01*
X126965000Y-70205874D01*
X127122569Y-70586280D01*
X127413720Y-70877431D01*
X127794126Y-71035000D01*
X128205874Y-71035000D01*
X128586280Y-70877431D01*
X128703711Y-70760000D01*
X130185199Y-70760000D01*
X131165198Y-71740000D01*
X129814802Y-71740000D01*
X129590331Y-71515529D01*
X129547929Y-71452071D01*
X129296537Y-71284096D01*
X129074852Y-71240000D01*
X129074847Y-71240000D01*
X129000000Y-71225112D01*
X128925153Y-71240000D01*
X115332935Y-71240000D01*
X115741312Y-71013124D01*
X115794126Y-71035000D01*
X116205874Y-71035000D01*
X116586280Y-70877431D01*
X116877431Y-70586280D01*
X117035000Y-70205874D01*
X117035000Y-69794126D01*
X117020865Y-69760000D01*
X118685199Y-69760000D01*
X118965000Y-70039802D01*
X118965000Y-70205874D01*
X119122569Y-70586280D01*
X119413720Y-70877431D01*
X119794126Y-71035000D01*
X120205874Y-71035000D01*
X120586280Y-70877431D01*
X120877431Y-70586280D01*
X121035000Y-70205874D01*
X121035000Y-69794126D01*
X120877431Y-69413720D01*
X120586280Y-69122569D01*
X120205874Y-68965000D01*
X120039802Y-68965000D01*
X119590331Y-68515530D01*
X119547929Y-68452071D01*
X119296537Y-68284096D01*
X119074852Y-68240000D01*
X119074847Y-68240000D01*
X119000000Y-68225112D01*
X118925153Y-68240000D01*
X115929133Y-68240000D01*
X115807474Y-68230655D01*
X115707070Y-68263487D01*
X115603463Y-68284096D01*
X115502005Y-68351888D01*
X110733121Y-71034386D01*
X105755338Y-73722389D01*
X105635820Y-73779525D01*
X105572209Y-73850297D01*
X105498915Y-73910972D01*
X105436978Y-74028045D01*
X103578143Y-77158715D01*
X103520779Y-77227026D01*
X103479119Y-77358976D01*
X103433033Y-77489483D01*
X103433738Y-77502713D01*
X103429750Y-77515344D01*
X103441757Y-77653198D01*
X103449122Y-77791400D01*
X103487598Y-77871884D01*
X103680275Y-78533879D01*
X103572477Y-78794126D01*
X103572477Y-79205874D01*
X103730046Y-79586280D01*
X104021197Y-79877431D01*
X104277995Y-79983800D01*
X103449660Y-81425992D01*
X103346237Y-81322569D01*
X102965831Y-81165000D01*
X102554083Y-81165000D01*
X102173677Y-81322569D01*
X101894230Y-81602016D01*
X101195170Y-81745662D01*
X101093425Y-81753154D01*
X100981198Y-81809626D01*
X100865435Y-81858435D01*
X100846904Y-81877202D01*
X100823344Y-81889057D01*
X100741267Y-81984182D01*
X100652998Y-82073573D01*
X100614554Y-82168067D01*
X98974089Y-85063007D01*
X98922626Y-85123681D01*
X98877381Y-85264564D01*
X98830952Y-85405045D01*
X98831197Y-85408371D01*
X98830177Y-85411547D01*
X98842289Y-85559021D01*
X98853154Y-85706574D01*
X98888915Y-85777642D01*
X99183232Y-86807752D01*
X98381391Y-88264313D01*
X98120037Y-88372569D01*
X97828886Y-88663720D01*
X97671317Y-89044126D01*
X97671317Y-89455874D01*
X97760523Y-89671237D01*
X97698417Y-89701520D01*
X97589804Y-89742588D01*
X97563490Y-89767309D01*
X97531033Y-89783135D01*
X97454069Y-89870107D01*
X97369448Y-89949606D01*
X97323573Y-90051267D01*
X95463479Y-93240000D01*
X94574846Y-93240000D01*
X94499999Y-93225112D01*
X94425152Y-93240000D01*
X94425148Y-93240000D01*
X94203463Y-93284096D01*
X94140902Y-93325898D01*
X94015526Y-93409671D01*
X94015524Y-93409673D01*
X93952071Y-93452071D01*
X93909673Y-93515524D01*
X92215528Y-95209671D01*
X92152072Y-95252071D01*
X92109672Y-95315527D01*
X92109671Y-95315528D01*
X91984097Y-95503463D01*
X91925112Y-95800000D01*
X91940001Y-95874852D01*
X91940000Y-98996289D01*
X91822569Y-99113720D01*
X91665000Y-99494126D01*
X91665000Y-99905874D01*
X91822569Y-100286280D01*
X91940001Y-100403712D01*
X91940000Y-108585198D01*
X91357743Y-109167456D01*
X91342672Y-109174458D01*
X91251251Y-109273948D01*
X91209671Y-109315528D01*
X91200684Y-109328978D01*
X91138099Y-109397087D01*
X91117473Y-109453513D01*
X91084097Y-109503463D01*
X91066053Y-109594178D01*
X91060497Y-109609376D01*
X91051468Y-109667497D01*
X91025112Y-109800000D01*
X91028354Y-109816298D01*
X90968042Y-110204559D01*
X90955554Y-110228688D01*
X90944969Y-110353090D01*
X90937518Y-110401056D01*
X90938636Y-110427516D01*
X90929921Y-110529945D01*
X84012553Y-110529945D01*
X80819837Y-105000000D01*
X81076509Y-104555431D01*
X83765000Y-104555431D01*
X83765000Y-105444569D01*
X84105259Y-106266026D01*
X84733974Y-106894741D01*
X85555431Y-107235000D01*
X86444569Y-107235000D01*
X87266026Y-106894741D01*
X87894741Y-106266026D01*
X88235000Y-105444569D01*
X88235000Y-104555431D01*
X87894741Y-103733974D01*
X87266026Y-103105259D01*
X86444569Y-102765000D01*
X85555431Y-102765000D01*
X84733974Y-103105259D01*
X84105259Y-103733974D01*
X83765000Y-104555431D01*
X81076509Y-104555431D01*
X103015819Y-66555431D01*
X105765000Y-66555431D01*
X105765000Y-67444569D01*
X106105259Y-68266026D01*
X106733974Y-68894741D01*
X107555431Y-69235000D01*
X108444569Y-69235000D01*
X109266026Y-68894741D01*
X109894741Y-68266026D01*
X110235000Y-67444569D01*
X110235000Y-66555431D01*
X149765000Y-66555431D01*
X149765000Y-67444569D01*
X150105259Y-68266026D01*
X150733974Y-68894741D01*
X151555431Y-69235000D01*
X152444569Y-69235000D01*
X153266026Y-68894741D01*
X153894741Y-68266026D01*
X154235000Y-67444569D01*
X154235000Y-66555431D01*
X153894741Y-65733974D01*
X153266026Y-65105259D01*
X152444569Y-64765000D01*
X151555431Y-64765000D01*
X150733974Y-65105259D01*
X150105259Y-65733974D01*
X149765000Y-66555431D01*
X110235000Y-66555431D01*
X109894741Y-65733974D01*
X109266026Y-65105259D01*
X108444569Y-64765000D01*
X107555431Y-64765000D01*
X106733974Y-65105259D01*
X106105259Y-65733974D01*
X105765000Y-66555431D01*
X103015819Y-66555431D01*
X105409919Y-62408730D01*
X154590082Y-62408730D01*
X179180163Y-105000000D01*
X179180163Y-105000000D01*
G37*
X179180163Y-105000000D02*
X154590082Y-147591270D01*
X105409919Y-147591270D01*
X102502476Y-142555431D01*
X105765000Y-142555431D01*
X105765000Y-143444569D01*
X106105259Y-144266026D01*
X106733974Y-144894741D01*
X107555431Y-145235000D01*
X108444569Y-145235000D01*
X109266026Y-144894741D01*
X109894741Y-144266026D01*
X110235000Y-143444569D01*
X110235000Y-142555431D01*
X109894741Y-141733974D01*
X109266026Y-141105259D01*
X108444569Y-140765000D01*
X107555431Y-140765000D01*
X106733974Y-141105259D01*
X106105259Y-141733974D01*
X105765000Y-142555431D01*
X102502476Y-142555431D01*
X84012553Y-110529945D01*
X90929921Y-110529945D01*
X90944966Y-110577269D01*
X90947063Y-110626882D01*
X90990377Y-110720107D01*
X90998402Y-110745350D01*
X91021857Y-110787863D01*
X91074459Y-110901078D01*
X91094462Y-110919459D01*
X92183118Y-112892648D01*
X91887808Y-113926234D01*
X91851023Y-114001292D01*
X91841962Y-114144966D01*
X91830177Y-114288453D01*
X91832464Y-114295573D01*
X91831993Y-114303038D01*
X91878609Y-114439259D01*
X91922626Y-114576319D01*
X91976695Y-114640065D01*
X92817078Y-116087393D01*
X92855254Y-116179830D01*
X92945393Y-116270157D01*
X93029795Y-116365922D01*
X93051642Y-116376629D01*
X93068822Y-116393845D01*
X93186677Y-116442807D01*
X93301291Y-116498977D01*
X93401109Y-116505272D01*
X94264295Y-116677910D01*
X96832651Y-121114164D01*
X96892877Y-121231511D01*
X96965822Y-121293443D01*
X97029013Y-121365325D01*
X97080028Y-121390407D01*
X97123358Y-121427195D01*
X97214457Y-121456499D01*
X97300340Y-121498724D01*
X97432005Y-121507196D01*
X97804774Y-121550208D01*
X97691789Y-121917410D01*
X97652058Y-121997433D01*
X97642646Y-122135348D01*
X97628547Y-122272886D01*
X97632384Y-122285717D01*
X97631472Y-122299077D01*
X97675559Y-122430110D01*
X97715163Y-122562560D01*
X97771568Y-122631850D01*
X104713726Y-134731043D01*
X104749427Y-134820959D01*
X104840582Y-134914843D01*
X104926626Y-135013490D01*
X104945425Y-135022824D01*
X104960043Y-135037879D01*
X105080201Y-135089739D01*
X105197432Y-135147943D01*
X105293962Y-135154530D01*
X105926326Y-135290037D01*
X106213720Y-135577431D01*
X106594126Y-135735000D01*
X107005874Y-135735000D01*
X107063093Y-135711299D01*
X114605322Y-139850328D01*
X114703463Y-139915904D01*
X114810992Y-139937293D01*
X114915544Y-139970272D01*
X114965000Y-139965951D01*
X114965000Y-140205874D01*
X115122569Y-140586280D01*
X115413720Y-140877431D01*
X115794126Y-141035000D01*
X115960199Y-141035000D01*
X117409671Y-142484473D01*
X117452071Y-142547929D01*
X117703463Y-142715904D01*
X117925148Y-142760000D01*
X117925152Y-142760000D01*
X117999999Y-142774888D01*
X118074846Y-142760000D01*
X127425153Y-142760000D01*
X127500000Y-142774888D01*
X127574847Y-142760000D01*
X127574852Y-142760000D01*
X127796537Y-142715904D01*
X128047929Y-142547929D01*
X128090331Y-142484470D01*
X129814802Y-140760000D01*
X131296289Y-140760000D01*
X131413720Y-140877431D01*
X131794126Y-141035000D01*
X132205874Y-141035000D01*
X132586280Y-140877431D01*
X132703711Y-140760000D01*
X135185199Y-140760000D01*
X136909671Y-142484473D01*
X136952071Y-142547929D01*
X137203463Y-142715904D01*
X137425148Y-142760000D01*
X137425152Y-142760000D01*
X137499999Y-142774888D01*
X137574846Y-142760000D01*
X144209882Y-142760000D01*
X144269239Y-142774278D01*
X144359642Y-142760000D01*
X144374852Y-142760000D01*
X144433478Y-142748339D01*
X144567883Y-142727111D01*
X144581209Y-142718953D01*
X144596537Y-142715904D01*
X144709702Y-142640290D01*
X144825745Y-142569248D01*
X144834934Y-142556612D01*
X144836701Y-142555431D01*
X149765000Y-142555431D01*
X149765000Y-143444569D01*
X150105259Y-144266026D01*
X150733974Y-144894741D01*
X151555431Y-145235000D01*
X152444569Y-145235000D01*
X153266026Y-144894741D01*
X153894741Y-144266026D01*
X154235000Y-143444569D01*
X154235000Y-142555431D01*
X153894741Y-141733974D01*
X153266026Y-141105259D01*
X152444569Y-140765000D01*
X151555431Y-140765000D01*
X150733974Y-141105259D01*
X150105259Y-141733974D01*
X149765000Y-142555431D01*
X144836701Y-142555431D01*
X144847929Y-142547929D01*
X144923544Y-142434764D01*
X144958681Y-142386446D01*
X144965052Y-142372643D01*
X145015904Y-142296537D01*
X145027815Y-142236655D01*
X146092548Y-139929736D01*
X152972479Y-135766079D01*
X152994126Y-135775046D01*
X153405874Y-135775046D01*
X153786280Y-135617477D01*
X154047323Y-135356434D01*
X154595846Y-135255149D01*
X154703886Y-135247584D01*
X154810705Y-135194315D01*
X154921602Y-135150157D01*
X154945108Y-135127289D01*
X154974455Y-135112654D01*
X155052757Y-135022561D01*
X155138314Y-134939326D01*
X155181133Y-134839844D01*
X156725829Y-132136627D01*
X156729851Y-132131844D01*
X156762933Y-132071696D01*
X156797001Y-132012076D01*
X156798984Y-132006148D01*
X157667928Y-130426250D01*
X158418483Y-130368515D01*
X158428982Y-130371627D01*
X158568808Y-130356952D01*
X158632920Y-130352020D01*
X158643179Y-130349146D01*
X158729676Y-130340068D01*
X158787366Y-130308756D01*
X158850570Y-130291051D01*
X158918963Y-130237330D01*
X158995405Y-130195840D01*
X159036723Y-130144833D01*
X159088338Y-130104290D01*
X159130966Y-130028487D01*
X159137675Y-130020205D01*
X159167631Y-129963289D01*
X159236538Y-129840756D01*
X159237844Y-129829883D01*
X160166600Y-128065249D01*
X160235123Y-127945041D01*
X160246279Y-127856544D01*
X160271627Y-127771019D01*
X160265010Y-127707968D01*
X160272939Y-127645068D01*
X160249378Y-127559034D01*
X160240068Y-127470324D01*
X160174061Y-127348712D01*
X159860638Y-126721867D01*
X162239445Y-122513211D01*
X162302191Y-122427689D01*
X162331124Y-122309600D01*
X162369152Y-122194112D01*
X162366877Y-122163675D01*
X162374141Y-122134028D01*
X162355680Y-122013848D01*
X162346619Y-121892606D01*
X162298836Y-121797905D01*
X162226643Y-121599375D01*
X162493748Y-121554858D01*
X162612878Y-121545073D01*
X162709052Y-121495656D01*
X162810196Y-121457412D01*
X162842445Y-121427115D01*
X162881801Y-121406893D01*
X162951747Y-121324430D01*
X163030553Y-121250394D01*
X163079720Y-121141439D01*
X163886400Y-119689416D01*
X164710054Y-119552140D01*
X164845041Y-119535123D01*
X164924568Y-119489789D01*
X165010196Y-119457412D01*
X165054682Y-119415619D01*
X165107708Y-119385392D01*
X165163833Y-119313075D01*
X165230553Y-119250394D01*
X165286527Y-119126355D01*
X166056349Y-117586715D01*
X166112235Y-117505243D01*
X166138908Y-117379201D01*
X166172939Y-117254932D01*
X166170052Y-117232030D01*
X166174831Y-117209447D01*
X166151236Y-117082775D01*
X166135123Y-116954960D01*
X166086196Y-116869130D01*
X165844373Y-116264572D01*
X169243723Y-110504564D01*
X169315904Y-110396537D01*
X169334967Y-110300700D01*
X169367257Y-110208482D01*
X169360000Y-110078778D01*
X169360000Y-104555431D01*
X171765000Y-104555431D01*
X171765000Y-105444569D01*
X172105259Y-106266026D01*
X172733974Y-106894741D01*
X173555431Y-107235000D01*
X174444569Y-107235000D01*
X175266026Y-106894741D01*
X175894741Y-106266026D01*
X176235000Y-105444569D01*
X176235000Y-104555431D01*
X175894741Y-103733974D01*
X175266026Y-103105259D01*
X174444569Y-102765000D01*
X173555431Y-102765000D01*
X172733974Y-103105259D01*
X172105259Y-103733974D01*
X171765000Y-104555431D01*
X169360000Y-104555431D01*
X169360000Y-102114802D01*
X169513288Y-101961514D01*
X169603140Y-101886491D01*
X169654451Y-101788508D01*
X169715903Y-101696538D01*
X169738739Y-101581732D01*
X170710387Y-98278132D01*
X170748049Y-98202175D01*
X170757695Y-98059734D01*
X170770486Y-97917517D01*
X170767888Y-97909206D01*
X170768476Y-97900519D01*
X170722872Y-97765212D01*
X170680271Y-97628943D01*
X170625933Y-97563864D01*
X167983599Y-92964246D01*
X167944746Y-92870170D01*
X167855842Y-92781080D01*
X167773051Y-92686262D01*
X167749637Y-92674652D01*
X167731178Y-92656155D01*
X167614947Y-92607868D01*
X167502175Y-92551951D01*
X167400622Y-92545074D01*
X166296434Y-92324237D01*
X164189081Y-88476028D01*
X164150573Y-88379040D01*
X164064670Y-88290566D01*
X163985485Y-88196050D01*
X163959989Y-88182753D01*
X163939957Y-88162121D01*
X163826734Y-88113255D01*
X163717408Y-88056236D01*
X163613469Y-88047062D01*
X161202652Y-87530459D01*
X160830651Y-86839601D01*
X161099232Y-86101006D01*
X161147245Y-86005126D01*
X161155855Y-85885010D01*
X161174141Y-85765972D01*
X161166596Y-85735177D01*
X161168863Y-85703553D01*
X161130849Y-85589278D01*
X161102191Y-85472311D01*
X161038758Y-85385854D01*
X157389491Y-78974978D01*
X157356589Y-78888487D01*
X157263916Y-78790239D01*
X157175470Y-78688134D01*
X157160565Y-78680670D01*
X157149129Y-78668546D01*
X157025897Y-78613233D01*
X156905126Y-78552755D01*
X156812824Y-78546138D01*
X156273550Y-78422403D01*
X156269954Y-78413720D01*
X156238933Y-78382699D01*
X156337580Y-77621963D01*
X156348977Y-77598708D01*
X156356913Y-77472875D01*
X156363315Y-77423503D01*
X156361615Y-77398316D01*
X156368007Y-77296961D01*
X156351522Y-77248788D01*
X156348093Y-77197988D01*
X156302998Y-77106992D01*
X156294825Y-77083108D01*
X156269826Y-77040054D01*
X156213841Y-76927083D01*
X156194337Y-76910045D01*
X154475691Y-73950156D01*
X154428046Y-73846115D01*
X154345076Y-73769030D01*
X154270204Y-73684078D01*
X154167461Y-73633726D01*
X145610638Y-68360336D01*
X145496537Y-68284096D01*
X145407875Y-68266460D01*
X145323151Y-68234960D01*
X145186061Y-68240000D01*
X141074848Y-68240000D01*
X141000000Y-68225112D01*
X140925152Y-68240000D01*
X140925148Y-68240000D01*
X140703463Y-68284096D01*
X140452071Y-68452071D01*
X140409671Y-68515527D01*
X139960199Y-68965000D01*
X139794126Y-68965000D01*
X139413720Y-69122569D01*
X139122569Y-69413720D01*
X138965000Y-69794126D01*
X138965000Y-70205874D01*
X139122569Y-70586280D01*
X139276289Y-70740000D01*
X136723711Y-70740000D01*
X136877431Y-70586280D01*
X137035000Y-70205874D01*
X137035000Y-69794126D01*
X136877431Y-69413720D01*
X136586280Y-69122569D01*
X136205874Y-68965000D01*
X136039802Y-68965000D01*
X135590331Y-68515530D01*
X135547929Y-68452071D01*
X135296537Y-68284096D01*
X135074852Y-68240000D01*
X135074847Y-68240000D01*
X135000000Y-68225112D01*
X134925153Y-68240000D01*
X125074848Y-68240000D01*
X125000000Y-68225112D01*
X124925152Y-68240000D01*
X124925148Y-68240000D01*
X124703463Y-68284096D01*
X124452071Y-68452071D01*
X124409671Y-68515527D01*
X123960199Y-68965000D01*
X123794126Y-68965000D01*
X123413720Y-69122569D01*
X123122569Y-69413720D01*
X122965000Y-69794126D01*
X122965000Y-70205874D01*
X123122569Y-70586280D01*
X123413720Y-70877431D01*
X123794126Y-71035000D01*
X124205874Y-71035000D01*
X124586280Y-70877431D01*
X124877431Y-70586280D01*
X125035000Y-70205874D01*
X125035000Y-70039801D01*
X125314802Y-69760000D01*
X126979135Y-69760000D01*
X126965000Y-69794126D01*
X126965000Y-70205874D01*
X127122569Y-70586280D01*
X127413720Y-70877431D01*
X127794126Y-71035000D01*
X128205874Y-71035000D01*
X128586280Y-70877431D01*
X128703711Y-70760000D01*
X130185199Y-70760000D01*
X131165198Y-71740000D01*
X129814802Y-71740000D01*
X129590331Y-71515529D01*
X129547929Y-71452071D01*
X129296537Y-71284096D01*
X129074852Y-71240000D01*
X129074847Y-71240000D01*
X129000000Y-71225112D01*
X128925153Y-71240000D01*
X115332935Y-71240000D01*
X115741312Y-71013124D01*
X115794126Y-71035000D01*
X116205874Y-71035000D01*
X116586280Y-70877431D01*
X116877431Y-70586280D01*
X117035000Y-70205874D01*
X117035000Y-69794126D01*
X117020865Y-69760000D01*
X118685199Y-69760000D01*
X118965000Y-70039802D01*
X118965000Y-70205874D01*
X119122569Y-70586280D01*
X119413720Y-70877431D01*
X119794126Y-71035000D01*
X120205874Y-71035000D01*
X120586280Y-70877431D01*
X120877431Y-70586280D01*
X121035000Y-70205874D01*
X121035000Y-69794126D01*
X120877431Y-69413720D01*
X120586280Y-69122569D01*
X120205874Y-68965000D01*
X120039802Y-68965000D01*
X119590331Y-68515530D01*
X119547929Y-68452071D01*
X119296537Y-68284096D01*
X119074852Y-68240000D01*
X119074847Y-68240000D01*
X119000000Y-68225112D01*
X118925153Y-68240000D01*
X115929133Y-68240000D01*
X115807474Y-68230655D01*
X115707070Y-68263487D01*
X115603463Y-68284096D01*
X115502005Y-68351888D01*
X110733121Y-71034386D01*
X105755338Y-73722389D01*
X105635820Y-73779525D01*
X105572209Y-73850297D01*
X105498915Y-73910972D01*
X105436978Y-74028045D01*
X103578143Y-77158715D01*
X103520779Y-77227026D01*
X103479119Y-77358976D01*
X103433033Y-77489483D01*
X103433738Y-77502713D01*
X103429750Y-77515344D01*
X103441757Y-77653198D01*
X103449122Y-77791400D01*
X103487598Y-77871884D01*
X103680275Y-78533879D01*
X103572477Y-78794126D01*
X103572477Y-79205874D01*
X103730046Y-79586280D01*
X104021197Y-79877431D01*
X104277995Y-79983800D01*
X103449660Y-81425992D01*
X103346237Y-81322569D01*
X102965831Y-81165000D01*
X102554083Y-81165000D01*
X102173677Y-81322569D01*
X101894230Y-81602016D01*
X101195170Y-81745662D01*
X101093425Y-81753154D01*
X100981198Y-81809626D01*
X100865435Y-81858435D01*
X100846904Y-81877202D01*
X100823344Y-81889057D01*
X100741267Y-81984182D01*
X100652998Y-82073573D01*
X100614554Y-82168067D01*
X98974089Y-85063007D01*
X98922626Y-85123681D01*
X98877381Y-85264564D01*
X98830952Y-85405045D01*
X98831197Y-85408371D01*
X98830177Y-85411547D01*
X98842289Y-85559021D01*
X98853154Y-85706574D01*
X98888915Y-85777642D01*
X99183232Y-86807752D01*
X98381391Y-88264313D01*
X98120037Y-88372569D01*
X97828886Y-88663720D01*
X97671317Y-89044126D01*
X97671317Y-89455874D01*
X97760523Y-89671237D01*
X97698417Y-89701520D01*
X97589804Y-89742588D01*
X97563490Y-89767309D01*
X97531033Y-89783135D01*
X97454069Y-89870107D01*
X97369448Y-89949606D01*
X97323573Y-90051267D01*
X95463479Y-93240000D01*
X94574846Y-93240000D01*
X94499999Y-93225112D01*
X94425152Y-93240000D01*
X94425148Y-93240000D01*
X94203463Y-93284096D01*
X94140902Y-93325898D01*
X94015526Y-93409671D01*
X94015524Y-93409673D01*
X93952071Y-93452071D01*
X93909673Y-93515524D01*
X92215528Y-95209671D01*
X92152072Y-95252071D01*
X92109672Y-95315527D01*
X92109671Y-95315528D01*
X91984097Y-95503463D01*
X91925112Y-95800000D01*
X91940001Y-95874852D01*
X91940000Y-98996289D01*
X91822569Y-99113720D01*
X91665000Y-99494126D01*
X91665000Y-99905874D01*
X91822569Y-100286280D01*
X91940001Y-100403712D01*
X91940000Y-108585198D01*
X91357743Y-109167456D01*
X91342672Y-109174458D01*
X91251251Y-109273948D01*
X91209671Y-109315528D01*
X91200684Y-109328978D01*
X91138099Y-109397087D01*
X91117473Y-109453513D01*
X91084097Y-109503463D01*
X91066053Y-109594178D01*
X91060497Y-109609376D01*
X91051468Y-109667497D01*
X91025112Y-109800000D01*
X91028354Y-109816298D01*
X90968042Y-110204559D01*
X90955554Y-110228688D01*
X90944969Y-110353090D01*
X90937518Y-110401056D01*
X90938636Y-110427516D01*
X90929921Y-110529945D01*
X84012553Y-110529945D01*
X80819837Y-105000000D01*
X81076509Y-104555431D01*
X83765000Y-104555431D01*
X83765000Y-105444569D01*
X84105259Y-106266026D01*
X84733974Y-106894741D01*
X85555431Y-107235000D01*
X86444569Y-107235000D01*
X87266026Y-106894741D01*
X87894741Y-106266026D01*
X88235000Y-105444569D01*
X88235000Y-104555431D01*
X87894741Y-103733974D01*
X87266026Y-103105259D01*
X86444569Y-102765000D01*
X85555431Y-102765000D01*
X84733974Y-103105259D01*
X84105259Y-103733974D01*
X83765000Y-104555431D01*
X81076509Y-104555431D01*
X103015819Y-66555431D01*
X105765000Y-66555431D01*
X105765000Y-67444569D01*
X106105259Y-68266026D01*
X106733974Y-68894741D01*
X107555431Y-69235000D01*
X108444569Y-69235000D01*
X109266026Y-68894741D01*
X109894741Y-68266026D01*
X110235000Y-67444569D01*
X110235000Y-66555431D01*
X149765000Y-66555431D01*
X149765000Y-67444569D01*
X150105259Y-68266026D01*
X150733974Y-68894741D01*
X151555431Y-69235000D01*
X152444569Y-69235000D01*
X153266026Y-68894741D01*
X153894741Y-68266026D01*
X154235000Y-67444569D01*
X154235000Y-66555431D01*
X153894741Y-65733974D01*
X153266026Y-65105259D01*
X152444569Y-64765000D01*
X151555431Y-64765000D01*
X150733974Y-65105259D01*
X150105259Y-65733974D01*
X149765000Y-66555431D01*
X110235000Y-66555431D01*
X109894741Y-65733974D01*
X109266026Y-65105259D01*
X108444569Y-64765000D01*
X107555431Y-64765000D01*
X106733974Y-65105259D01*
X106105259Y-65733974D01*
X105765000Y-66555431D01*
X103015819Y-66555431D01*
X105409919Y-62408730D01*
X154590082Y-62408730D01*
X179180163Y-105000000D01*
G36*
X121240000Y-138925153D02*
X121225112Y-139000000D01*
X121240000Y-139074847D01*
X121240000Y-139074851D01*
X121284096Y-139296536D01*
X121452071Y-139547929D01*
X121515530Y-139590331D01*
X122165198Y-140240000D01*
X118914803Y-140240000D01*
X117390331Y-138715530D01*
X117347929Y-138652071D01*
X117096537Y-138484096D01*
X116874852Y-138440000D01*
X116874847Y-138440000D01*
X116800000Y-138425112D01*
X116725153Y-138440000D01*
X115194832Y-138440000D01*
X107785115Y-134373693D01*
X107677431Y-134113720D01*
X107386280Y-133822569D01*
X107005874Y-133665000D01*
X106594126Y-133665000D01*
X106254218Y-133805794D01*
X105890566Y-133727869D01*
X104900942Y-132003095D01*
X105204323Y-131877431D01*
X105495474Y-131586280D01*
X105653043Y-131205874D01*
X105653043Y-130794126D01*
X105495474Y-130413720D01*
X105378043Y-130296289D01*
X105378043Y-128696758D01*
X105814802Y-128260000D01*
X119925153Y-128260000D01*
X120000000Y-128274888D01*
X120074847Y-128260000D01*
X120074852Y-128260000D01*
X120296537Y-128215904D01*
X120547929Y-128047929D01*
X120590331Y-127984470D01*
X121240000Y-127334801D01*
X121240000Y-138925153D01*
X121240000Y-138925153D01*
G37*
X121240000Y-138925153D02*
X121225112Y-139000000D01*
X121240000Y-139074847D01*
X121240000Y-139074851D01*
X121284096Y-139296536D01*
X121452071Y-139547929D01*
X121515530Y-139590331D01*
X122165198Y-140240000D01*
X118914803Y-140240000D01*
X117390331Y-138715530D01*
X117347929Y-138652071D01*
X117096537Y-138484096D01*
X116874852Y-138440000D01*
X116874847Y-138440000D01*
X116800000Y-138425112D01*
X116725153Y-138440000D01*
X115194832Y-138440000D01*
X107785115Y-134373693D01*
X107677431Y-134113720D01*
X107386280Y-133822569D01*
X107005874Y-133665000D01*
X106594126Y-133665000D01*
X106254218Y-133805794D01*
X105890566Y-133727869D01*
X104900942Y-132003095D01*
X105204323Y-131877431D01*
X105495474Y-131586280D01*
X105653043Y-131205874D01*
X105653043Y-130794126D01*
X105495474Y-130413720D01*
X105378043Y-130296289D01*
X105378043Y-128696758D01*
X105814802Y-128260000D01*
X119925153Y-128260000D01*
X120000000Y-128274888D01*
X120074847Y-128260000D01*
X120074852Y-128260000D01*
X120296537Y-128215904D01*
X120547929Y-128047929D01*
X120590331Y-127984470D01*
X121240000Y-127334801D01*
X121240000Y-138925153D01*
G36*
X139240000Y-139296289D02*
X139122569Y-139413720D01*
X138965000Y-139794126D01*
X138965000Y-140205874D01*
X138979135Y-140240000D01*
X138314802Y-140240000D01*
X136590331Y-138515530D01*
X136547929Y-138452071D01*
X136296537Y-138284096D01*
X136074852Y-138240000D01*
X136074847Y-138240000D01*
X136000000Y-138225112D01*
X135925153Y-138240000D01*
X129074848Y-138240000D01*
X129000000Y-138225112D01*
X128925152Y-138240000D01*
X128925148Y-138240000D01*
X128703463Y-138284096D01*
X128452071Y-138452071D01*
X128409671Y-138515527D01*
X127960199Y-138965000D01*
X127794126Y-138965000D01*
X127413720Y-139122569D01*
X127122569Y-139413720D01*
X126965000Y-139794126D01*
X126965000Y-139960198D01*
X126685199Y-140240000D01*
X125020865Y-140240000D01*
X125035000Y-140205874D01*
X125035000Y-139794126D01*
X124877431Y-139413720D01*
X124586280Y-139122569D01*
X124205874Y-138965000D01*
X123794126Y-138965000D01*
X123413720Y-139122569D01*
X123305545Y-139230744D01*
X122760000Y-138685199D01*
X122760000Y-108314801D01*
X123314802Y-107760000D01*
X137925153Y-107760000D01*
X138000000Y-107774888D01*
X138074847Y-107760000D01*
X138074852Y-107760000D01*
X138296537Y-107715904D01*
X138547929Y-107547929D01*
X138590331Y-107484470D01*
X139240001Y-106834801D01*
X139240000Y-139296289D01*
X139240000Y-139296289D01*
G37*
X139240000Y-139296289D02*
X139122569Y-139413720D01*
X138965000Y-139794126D01*
X138965000Y-140205874D01*
X138979135Y-140240000D01*
X138314802Y-140240000D01*
X136590331Y-138515530D01*
X136547929Y-138452071D01*
X136296537Y-138284096D01*
X136074852Y-138240000D01*
X136074847Y-138240000D01*
X136000000Y-138225112D01*
X135925153Y-138240000D01*
X129074848Y-138240000D01*
X129000000Y-138225112D01*
X128925152Y-138240000D01*
X128925148Y-138240000D01*
X128703463Y-138284096D01*
X128452071Y-138452071D01*
X128409671Y-138515527D01*
X127960199Y-138965000D01*
X127794126Y-138965000D01*
X127413720Y-139122569D01*
X127122569Y-139413720D01*
X126965000Y-139794126D01*
X126965000Y-139960198D01*
X126685199Y-140240000D01*
X125020865Y-140240000D01*
X125035000Y-140205874D01*
X125035000Y-139794126D01*
X124877431Y-139413720D01*
X124586280Y-139122569D01*
X124205874Y-138965000D01*
X123794126Y-138965000D01*
X123413720Y-139122569D01*
X123305545Y-139230744D01*
X122760000Y-138685199D01*
X122760000Y-108314801D01*
X123314802Y-107760000D01*
X137925153Y-107760000D01*
X138000000Y-107774888D01*
X138074847Y-107760000D01*
X138074852Y-107760000D01*
X138296537Y-107715904D01*
X138547929Y-107547929D01*
X138590331Y-107484470D01*
X139240001Y-106834801D01*
X139240000Y-139296289D01*
G36*
X141659670Y-127984472D02*
X141702071Y-128047929D01*
X141953463Y-128215904D01*
X142175148Y-128260000D01*
X142175153Y-128260000D01*
X142250000Y-128274888D01*
X142324847Y-128260000D01*
X156074926Y-128260000D01*
X156038853Y-128325114D01*
X153314648Y-133022020D01*
X152746590Y-133135632D01*
X152693037Y-133132529D01*
X152599660Y-133165018D01*
X152577554Y-133169439D01*
X152529115Y-133189563D01*
X152479561Y-133206804D01*
X152460118Y-133218227D01*
X152368822Y-133256155D01*
X152330934Y-133294122D01*
X144529876Y-137877244D01*
X144512213Y-137880534D01*
X144400052Y-137953516D01*
X144350485Y-137982636D01*
X144337425Y-137994266D01*
X144258792Y-138045431D01*
X144225556Y-138093883D01*
X144181683Y-138132951D01*
X144140832Y-138217395D01*
X144130936Y-138231822D01*
X144108283Y-138284679D01*
X144050017Y-138405123D01*
X144048978Y-138423058D01*
X143778426Y-139054346D01*
X143613720Y-139122569D01*
X143322569Y-139413720D01*
X143165000Y-139794126D01*
X143165000Y-140205874D01*
X143179135Y-140240000D01*
X141020865Y-140240000D01*
X141035000Y-140205874D01*
X141035000Y-139794126D01*
X140877431Y-139413720D01*
X140760000Y-139296289D01*
X140760000Y-127084801D01*
X141659670Y-127984472D01*
X141659670Y-127984472D01*
G37*
X141659670Y-127984472D02*
X141702071Y-128047929D01*
X141953463Y-128215904D01*
X142175148Y-128260000D01*
X142175153Y-128260000D01*
X142250000Y-128274888D01*
X142324847Y-128260000D01*
X156074926Y-128260000D01*
X156038853Y-128325114D01*
X153314648Y-133022020D01*
X152746590Y-133135632D01*
X152693037Y-133132529D01*
X152599660Y-133165018D01*
X152577554Y-133169439D01*
X152529115Y-133189563D01*
X152479561Y-133206804D01*
X152460118Y-133218227D01*
X152368822Y-133256155D01*
X152330934Y-133294122D01*
X144529876Y-137877244D01*
X144512213Y-137880534D01*
X144400052Y-137953516D01*
X144350485Y-137982636D01*
X144337425Y-137994266D01*
X144258792Y-138045431D01*
X144225556Y-138093883D01*
X144181683Y-138132951D01*
X144140832Y-138217395D01*
X144130936Y-138231822D01*
X144108283Y-138284679D01*
X144050017Y-138405123D01*
X144048978Y-138423058D01*
X143778426Y-139054346D01*
X143613720Y-139122569D01*
X143322569Y-139413720D01*
X143165000Y-139794126D01*
X143165000Y-140205874D01*
X143179135Y-140240000D01*
X141020865Y-140240000D01*
X141035000Y-140205874D01*
X141035000Y-139794126D01*
X140877431Y-139413720D01*
X140760000Y-139296289D01*
X140760000Y-127084801D01*
X141659670Y-127984472D01*
G36*
X120240000Y-126185198D02*
X119685199Y-126740000D01*
X105574848Y-126740000D01*
X105500000Y-126725112D01*
X105425152Y-126740000D01*
X105425148Y-126740000D01*
X105203463Y-126784096D01*
X104952071Y-126952071D01*
X104909671Y-127015527D01*
X104133571Y-127791628D01*
X104070115Y-127834028D01*
X104027715Y-127897484D01*
X104027714Y-127897485D01*
X103902140Y-128085420D01*
X103843155Y-128381957D01*
X103858044Y-128456809D01*
X103858043Y-130185472D01*
X100907411Y-125042942D01*
X101186280Y-124927431D01*
X101477431Y-124636280D01*
X101635000Y-124255874D01*
X101635000Y-123844126D01*
X101477431Y-123463720D01*
X101186280Y-123172569D01*
X100913999Y-123059787D01*
X100327656Y-122020361D01*
X100606616Y-121183483D01*
X100651752Y-121087937D01*
X100657681Y-120966102D01*
X100672939Y-120845070D01*
X100664985Y-120816026D01*
X100666449Y-120785948D01*
X100625298Y-120671105D01*
X100593081Y-120553460D01*
X100528294Y-120469983D01*
X99974502Y-119546997D01*
X99930553Y-119449606D01*
X99842493Y-119366877D01*
X99761315Y-119277393D01*
X99733011Y-119264022D01*
X99710196Y-119242588D01*
X99597182Y-119199856D01*
X99487938Y-119148248D01*
X99381221Y-119143054D01*
X98578660Y-119009294D01*
X96188856Y-114873096D01*
X96157103Y-114789310D01*
X96062548Y-114688814D01*
X95971525Y-114585089D01*
X95959277Y-114579054D01*
X95949920Y-114569109D01*
X95824091Y-114512441D01*
X95730256Y-114466204D01*
X95838088Y-114205874D01*
X95838088Y-114039801D01*
X97117890Y-112760000D01*
X118925153Y-112760000D01*
X119000000Y-112774888D01*
X119074847Y-112760000D01*
X119074852Y-112760000D01*
X119296537Y-112715904D01*
X119547929Y-112547929D01*
X119590331Y-112484470D01*
X120240001Y-111834801D01*
X120240000Y-126185198D01*
X120240000Y-126185198D01*
G37*
X120240000Y-126185198D02*
X119685199Y-126740000D01*
X105574848Y-126740000D01*
X105500000Y-126725112D01*
X105425152Y-126740000D01*
X105425148Y-126740000D01*
X105203463Y-126784096D01*
X104952071Y-126952071D01*
X104909671Y-127015527D01*
X104133571Y-127791628D01*
X104070115Y-127834028D01*
X104027715Y-127897484D01*
X104027714Y-127897485D01*
X103902140Y-128085420D01*
X103843155Y-128381957D01*
X103858044Y-128456809D01*
X103858043Y-130185472D01*
X100907411Y-125042942D01*
X101186280Y-124927431D01*
X101477431Y-124636280D01*
X101635000Y-124255874D01*
X101635000Y-123844126D01*
X101477431Y-123463720D01*
X101186280Y-123172569D01*
X100913999Y-123059787D01*
X100327656Y-122020361D01*
X100606616Y-121183483D01*
X100651752Y-121087937D01*
X100657681Y-120966102D01*
X100672939Y-120845070D01*
X100664985Y-120816026D01*
X100666449Y-120785948D01*
X100625298Y-120671105D01*
X100593081Y-120553460D01*
X100528294Y-120469983D01*
X99974502Y-119546997D01*
X99930553Y-119449606D01*
X99842493Y-119366877D01*
X99761315Y-119277393D01*
X99733011Y-119264022D01*
X99710196Y-119242588D01*
X99597182Y-119199856D01*
X99487938Y-119148248D01*
X99381221Y-119143054D01*
X98578660Y-119009294D01*
X96188856Y-114873096D01*
X96157103Y-114789310D01*
X96062548Y-114688814D01*
X95971525Y-114585089D01*
X95959277Y-114579054D01*
X95949920Y-114569109D01*
X95824091Y-114512441D01*
X95730256Y-114466204D01*
X95838088Y-114205874D01*
X95838088Y-114039801D01*
X97117890Y-112760000D01*
X118925153Y-112760000D01*
X119000000Y-112774888D01*
X119074847Y-112760000D01*
X119074852Y-112760000D01*
X119296537Y-112715904D01*
X119547929Y-112547929D01*
X119590331Y-112484470D01*
X120240001Y-111834801D01*
X120240000Y-126185198D01*
G36*
X142409670Y-112484472D02*
X142452071Y-112547929D01*
X142703463Y-112715904D01*
X142925148Y-112760000D01*
X142925152Y-112760000D01*
X143000000Y-112774888D01*
X143074848Y-112760000D01*
X162185199Y-112760000D01*
X162640001Y-113214803D01*
X162640000Y-116426932D01*
X162522569Y-116544363D01*
X162365000Y-116924769D01*
X162365000Y-117336517D01*
X162439203Y-117515659D01*
X162402639Y-117527970D01*
X162358542Y-117566450D01*
X162306482Y-117593214D01*
X162245669Y-117664943D01*
X162174830Y-117726758D01*
X162115461Y-117846399D01*
X161410166Y-119116601D01*
X160708534Y-119244171D01*
X160602795Y-119250626D01*
X160493392Y-119303970D01*
X160380182Y-119348690D01*
X160358346Y-119369818D01*
X160331033Y-119383135D01*
X160250362Y-119474297D01*
X160162893Y-119558926D01*
X160120745Y-119656114D01*
X159457542Y-120793035D01*
X159387765Y-120894757D01*
X159366170Y-120996802D01*
X159332201Y-121095420D01*
X159335134Y-121143463D01*
X159325169Y-121190553D01*
X159344269Y-121293093D01*
X159350625Y-121397203D01*
X159404687Y-121508078D01*
X159656281Y-122137063D01*
X159032710Y-123202756D01*
X158743454Y-123322569D01*
X158452303Y-123613720D01*
X158294734Y-123994126D01*
X158294734Y-124405874D01*
X158306103Y-124433321D01*
X157250516Y-126205265D01*
X157174450Y-126327919D01*
X157161002Y-126409983D01*
X157133195Y-126488365D01*
X157136790Y-126557738D01*
X157125558Y-126626285D01*
X157144539Y-126707252D01*
X157144941Y-126715000D01*
X157063037Y-126715000D01*
X157032229Y-126727761D01*
X157018911Y-126725112D01*
X156944064Y-126740000D01*
X142564802Y-126740000D01*
X141760000Y-125935199D01*
X141760000Y-111834801D01*
X142409670Y-112484472D01*
X142409670Y-112484472D01*
G37*
X142409670Y-112484472D02*
X142452071Y-112547929D01*
X142703463Y-112715904D01*
X142925148Y-112760000D01*
X142925152Y-112760000D01*
X143000000Y-112774888D01*
X143074848Y-112760000D01*
X162185199Y-112760000D01*
X162640001Y-113214803D01*
X162640000Y-116426932D01*
X162522569Y-116544363D01*
X162365000Y-116924769D01*
X162365000Y-117336517D01*
X162439203Y-117515659D01*
X162402639Y-117527970D01*
X162358542Y-117566450D01*
X162306482Y-117593214D01*
X162245669Y-117664943D01*
X162174830Y-117726758D01*
X162115461Y-117846399D01*
X161410166Y-119116601D01*
X160708534Y-119244171D01*
X160602795Y-119250626D01*
X160493392Y-119303970D01*
X160380182Y-119348690D01*
X160358346Y-119369818D01*
X160331033Y-119383135D01*
X160250362Y-119474297D01*
X160162893Y-119558926D01*
X160120745Y-119656114D01*
X159457542Y-120793035D01*
X159387765Y-120894757D01*
X159366170Y-120996802D01*
X159332201Y-121095420D01*
X159335134Y-121143463D01*
X159325169Y-121190553D01*
X159344269Y-121293093D01*
X159350625Y-121397203D01*
X159404687Y-121508078D01*
X159656281Y-122137063D01*
X159032710Y-123202756D01*
X158743454Y-123322569D01*
X158452303Y-123613720D01*
X158294734Y-123994126D01*
X158294734Y-124405874D01*
X158306103Y-124433321D01*
X157250516Y-126205265D01*
X157174450Y-126327919D01*
X157161002Y-126409983D01*
X157133195Y-126488365D01*
X157136790Y-126557738D01*
X157125558Y-126626285D01*
X157144539Y-126707252D01*
X157144941Y-126715000D01*
X157063037Y-126715000D01*
X157032229Y-126727761D01*
X157018911Y-126725112D01*
X156944064Y-126740000D01*
X142564802Y-126740000D01*
X141760000Y-125935199D01*
X141760000Y-111834801D01*
X142409670Y-112484472D01*
G36*
X142909671Y-96484472D02*
X142952071Y-96547929D01*
X143015527Y-96590329D01*
X143203462Y-96715904D01*
X143251605Y-96725480D01*
X143425148Y-96760000D01*
X143425152Y-96760000D01*
X143500000Y-96774888D01*
X143574848Y-96760000D01*
X164503766Y-96760000D01*
X164621197Y-96877431D01*
X165001603Y-97035000D01*
X165413351Y-97035000D01*
X165793757Y-96877431D01*
X165865843Y-96805345D01*
X166932981Y-98611270D01*
X166853619Y-98906042D01*
X166813720Y-98922569D01*
X166522569Y-99213720D01*
X166365000Y-99594126D01*
X166365000Y-100005874D01*
X166522569Y-100386280D01*
X166813720Y-100677431D01*
X166906354Y-100715801D01*
X166852072Y-100752071D01*
X166809672Y-100815527D01*
X166809671Y-100815528D01*
X166684097Y-101003463D01*
X166625112Y-101300000D01*
X166640001Y-101374852D01*
X166640000Y-109496289D01*
X166522569Y-109613720D01*
X166365000Y-109994126D01*
X166365000Y-110405874D01*
X166381049Y-110444620D01*
X164160000Y-114290019D01*
X164160000Y-112974846D01*
X164174888Y-112899999D01*
X164160000Y-112825152D01*
X164160000Y-112825148D01*
X164115904Y-112603463D01*
X163947929Y-112352071D01*
X163884473Y-112309671D01*
X163090331Y-111515530D01*
X163047929Y-111452071D01*
X162796537Y-111284096D01*
X162574852Y-111240000D01*
X162574847Y-111240000D01*
X162500000Y-111225112D01*
X162425153Y-111240000D01*
X143314802Y-111240000D01*
X142760000Y-110685199D01*
X142760000Y-96334802D01*
X142909671Y-96484472D01*
X142909671Y-96484472D01*
G37*
X142909671Y-96484472D02*
X142952071Y-96547929D01*
X143015527Y-96590329D01*
X143203462Y-96715904D01*
X143251605Y-96725480D01*
X143425148Y-96760000D01*
X143425152Y-96760000D01*
X143500000Y-96774888D01*
X143574848Y-96760000D01*
X164503766Y-96760000D01*
X164621197Y-96877431D01*
X165001603Y-97035000D01*
X165413351Y-97035000D01*
X165793757Y-96877431D01*
X165865843Y-96805345D01*
X166932981Y-98611270D01*
X166853619Y-98906042D01*
X166813720Y-98922569D01*
X166522569Y-99213720D01*
X166365000Y-99594126D01*
X166365000Y-100005874D01*
X166522569Y-100386280D01*
X166813720Y-100677431D01*
X166906354Y-100715801D01*
X166852072Y-100752071D01*
X166809672Y-100815527D01*
X166809671Y-100815528D01*
X166684097Y-101003463D01*
X166625112Y-101300000D01*
X166640001Y-101374852D01*
X166640000Y-109496289D01*
X166522569Y-109613720D01*
X166365000Y-109994126D01*
X166365000Y-110405874D01*
X166381049Y-110444620D01*
X164160000Y-114290019D01*
X164160000Y-112974846D01*
X164174888Y-112899999D01*
X164160000Y-112825152D01*
X164160000Y-112825148D01*
X164115904Y-112603463D01*
X163947929Y-112352071D01*
X163884473Y-112309671D01*
X163090331Y-111515530D01*
X163047929Y-111452071D01*
X162796537Y-111284096D01*
X162574852Y-111240000D01*
X162574847Y-111240000D01*
X162500000Y-111225112D01*
X162425153Y-111240000D01*
X143314802Y-111240000D01*
X142760000Y-110685199D01*
X142760000Y-96334802D01*
X142909671Y-96484472D01*
G36*
X119515530Y-97409669D02*
X119452071Y-97452071D01*
X119284096Y-97703464D01*
X119240000Y-97925149D01*
X119240000Y-97925153D01*
X119225112Y-98000000D01*
X119240000Y-98074847D01*
X119240001Y-110685197D01*
X118685199Y-111240000D01*
X96877934Y-111240000D01*
X96803087Y-111225112D01*
X96728240Y-111240000D01*
X96728236Y-111240000D01*
X96506551Y-111284096D01*
X96255159Y-111452071D01*
X96212759Y-111515527D01*
X94866011Y-112862276D01*
X94870126Y-112814219D01*
X94863591Y-112793627D01*
X94864249Y-112772036D01*
X94818084Y-112650220D01*
X94801760Y-112598778D01*
X94791604Y-112580347D01*
X94757104Y-112489311D01*
X94719305Y-112449137D01*
X93761904Y-110711632D01*
X93785000Y-110655874D01*
X93785000Y-110489801D01*
X94234473Y-110040329D01*
X94297929Y-109997929D01*
X94465904Y-109746537D01*
X94510000Y-109524852D01*
X94510000Y-109524848D01*
X94524888Y-109450000D01*
X94510000Y-109375152D01*
X94510000Y-97127166D01*
X94528913Y-97135000D01*
X94940661Y-97135000D01*
X95321067Y-96977431D01*
X95438498Y-96860000D01*
X120065198Y-96860000D01*
X119515530Y-97409669D01*
X119515530Y-97409669D01*
G37*
X119515530Y-97409669D02*
X119452071Y-97452071D01*
X119284096Y-97703464D01*
X119240000Y-97925149D01*
X119240000Y-97925153D01*
X119225112Y-98000000D01*
X119240000Y-98074847D01*
X119240001Y-110685197D01*
X118685199Y-111240000D01*
X96877934Y-111240000D01*
X96803087Y-111225112D01*
X96728240Y-111240000D01*
X96728236Y-111240000D01*
X96506551Y-111284096D01*
X96255159Y-111452071D01*
X96212759Y-111515527D01*
X94866011Y-112862276D01*
X94870126Y-112814219D01*
X94863591Y-112793627D01*
X94864249Y-112772036D01*
X94818084Y-112650220D01*
X94801760Y-112598778D01*
X94791604Y-112580347D01*
X94757104Y-112489311D01*
X94719305Y-112449137D01*
X93761904Y-110711632D01*
X93785000Y-110655874D01*
X93785000Y-110489801D01*
X94234473Y-110040329D01*
X94297929Y-109997929D01*
X94465904Y-109746537D01*
X94510000Y-109524852D01*
X94510000Y-109524848D01*
X94524888Y-109450000D01*
X94510000Y-109375152D01*
X94510000Y-97127166D01*
X94528913Y-97135000D01*
X94940661Y-97135000D01*
X95321067Y-96977431D01*
X95438498Y-96860000D01*
X120065198Y-96860000D01*
X119515530Y-97409669D01*
G36*
X135287000Y-92373000D02*
X135307000Y-92373000D01*
X135307000Y-92627000D01*
X135287000Y-92627000D01*
X135287000Y-93820155D01*
X135516890Y-93941476D01*
X135926924Y-93771645D01*
X136355183Y-93381358D01*
X136601486Y-92856892D01*
X136480820Y-92627002D01*
X136552200Y-92627002D01*
X137240001Y-93314804D01*
X137240000Y-101685198D01*
X136685199Y-102240000D01*
X122074848Y-102240000D01*
X122000000Y-102225112D01*
X121925152Y-102240000D01*
X121925148Y-102240000D01*
X121703463Y-102284096D01*
X121452071Y-102452071D01*
X121409671Y-102515527D01*
X120760000Y-103165199D01*
X120760000Y-98314801D01*
X121314802Y-97760000D01*
X130925153Y-97760000D01*
X131000000Y-97774888D01*
X131074847Y-97760000D01*
X131074852Y-97760000D01*
X131296537Y-97715904D01*
X131547929Y-97547929D01*
X131590331Y-97484470D01*
X134309476Y-94765327D01*
X134372929Y-94722929D01*
X134415327Y-94659476D01*
X134415329Y-94659474D01*
X134503958Y-94526831D01*
X134540904Y-94471537D01*
X134585000Y-94249852D01*
X134585000Y-94249848D01*
X134599888Y-94175001D01*
X134585000Y-94100154D01*
X134585000Y-93851138D01*
X134803110Y-93941476D01*
X135033000Y-93820155D01*
X135033000Y-92627000D01*
X135013000Y-92627000D01*
X135013000Y-92373000D01*
X135033000Y-92373000D01*
X135033000Y-92353000D01*
X135287000Y-92353000D01*
X135287000Y-92373000D01*
X135287000Y-92373000D01*
G37*
X135287000Y-92373000D02*
X135307000Y-92373000D01*
X135307000Y-92627000D01*
X135287000Y-92627000D01*
X135287000Y-93820155D01*
X135516890Y-93941476D01*
X135926924Y-93771645D01*
X136355183Y-93381358D01*
X136601486Y-92856892D01*
X136480820Y-92627002D01*
X136552200Y-92627002D01*
X137240001Y-93314804D01*
X137240000Y-101685198D01*
X136685199Y-102240000D01*
X122074848Y-102240000D01*
X122000000Y-102225112D01*
X121925152Y-102240000D01*
X121925148Y-102240000D01*
X121703463Y-102284096D01*
X121452071Y-102452071D01*
X121409671Y-102515527D01*
X120760000Y-103165199D01*
X120760000Y-98314801D01*
X121314802Y-97760000D01*
X130925153Y-97760000D01*
X131000000Y-97774888D01*
X131074847Y-97760000D01*
X131074852Y-97760000D01*
X131296537Y-97715904D01*
X131547929Y-97547929D01*
X131590331Y-97484470D01*
X134309476Y-94765327D01*
X134372929Y-94722929D01*
X134415327Y-94659476D01*
X134415329Y-94659474D01*
X134503958Y-94526831D01*
X134540904Y-94471537D01*
X134585000Y-94249852D01*
X134585000Y-94249848D01*
X134599888Y-94175001D01*
X134585000Y-94100154D01*
X134585000Y-93851138D01*
X134803110Y-93941476D01*
X135033000Y-93820155D01*
X135033000Y-92627000D01*
X135013000Y-92627000D01*
X135013000Y-92373000D01*
X135033000Y-92373000D01*
X135033000Y-92353000D01*
X135287000Y-92353000D01*
X135287000Y-92373000D01*
G36*
X114031973Y-82605421D02*
X113982690Y-82853186D01*
X113982690Y-83653186D01*
X114031973Y-83900951D01*
X114172321Y-84110995D01*
X114382365Y-84251343D01*
X114630130Y-84300626D01*
X115430130Y-84300626D01*
X115677895Y-84251343D01*
X115830130Y-84149622D01*
X115982365Y-84251343D01*
X116230130Y-84300626D01*
X117030130Y-84300626D01*
X117277895Y-84251343D01*
X117487939Y-84110995D01*
X117553293Y-84013186D01*
X120115329Y-84013186D01*
X120282690Y-84180547D01*
X120282690Y-84503186D01*
X120285098Y-84515292D01*
X120285098Y-84552195D01*
X120297538Y-84678504D01*
X120316660Y-84774637D01*
X120353502Y-84896090D01*
X120391011Y-84986646D01*
X120450843Y-85098583D01*
X120505299Y-85180082D01*
X120585816Y-85278192D01*
X120655124Y-85347500D01*
X120753234Y-85428017D01*
X120834733Y-85482473D01*
X120946670Y-85542305D01*
X121037226Y-85579814D01*
X121158679Y-85616656D01*
X121254812Y-85635778D01*
X121381121Y-85648218D01*
X121418024Y-85648218D01*
X121430130Y-85650626D01*
X121930130Y-85650626D01*
X122080130Y-85620789D01*
X122230130Y-85650626D01*
X122730130Y-85650626D01*
X122742236Y-85648218D01*
X122779139Y-85648218D01*
X122905448Y-85635778D01*
X123001581Y-85616656D01*
X123123034Y-85579814D01*
X123213590Y-85542305D01*
X123325527Y-85482473D01*
X123407026Y-85428017D01*
X123505136Y-85347500D01*
X123574444Y-85278192D01*
X123654961Y-85180082D01*
X123709417Y-85098583D01*
X123769249Y-84986646D01*
X123806758Y-84896090D01*
X123843600Y-84774637D01*
X123862722Y-84678504D01*
X123875162Y-84552195D01*
X123875162Y-84515292D01*
X123877570Y-84503186D01*
X123877570Y-84180547D01*
X124434192Y-83623925D01*
X124547929Y-83547929D01*
X124590331Y-83484471D01*
X124814802Y-83260000D01*
X131685199Y-83260000D01*
X131795000Y-83369802D01*
X131795001Y-85094331D01*
X131585000Y-85052560D01*
X130985000Y-85052560D01*
X130737235Y-85101843D01*
X130650000Y-85160132D01*
X130562765Y-85101843D01*
X130315000Y-85052560D01*
X129715000Y-85052560D01*
X129467235Y-85101843D01*
X129380000Y-85160132D01*
X129292765Y-85101843D01*
X129045000Y-85052560D01*
X128445000Y-85052560D01*
X128197235Y-85101843D01*
X127987191Y-85242191D01*
X127846843Y-85452235D01*
X127797560Y-85700000D01*
X127797560Y-85865000D01*
X123717115Y-85865000D01*
X123547765Y-85751843D01*
X123300000Y-85702560D01*
X122500000Y-85702560D01*
X122252235Y-85751843D01*
X122100953Y-85852927D01*
X122059698Y-85811673D01*
X121826309Y-85715000D01*
X121585750Y-85715000D01*
X121427000Y-85873750D01*
X121427000Y-86623000D01*
X121447000Y-86623000D01*
X121447000Y-86877000D01*
X121427000Y-86877000D01*
X121427000Y-87626250D01*
X121585750Y-87785000D01*
X121826309Y-87785000D01*
X122059698Y-87688327D01*
X122100953Y-87647073D01*
X122252235Y-87748157D01*
X122500000Y-87797440D01*
X123300000Y-87797440D01*
X123547765Y-87748157D01*
X123717115Y-87635000D01*
X127797560Y-87635000D01*
X127797560Y-87700000D01*
X127846843Y-87947765D01*
X127860000Y-87967456D01*
X127860000Y-88388421D01*
X125245862Y-91002560D01*
X124150000Y-91002560D01*
X123902235Y-91051843D01*
X123692191Y-91192191D01*
X123551843Y-91402235D01*
X123502560Y-91650000D01*
X123502560Y-93350000D01*
X123551843Y-93597765D01*
X123692191Y-93807809D01*
X123902235Y-93948157D01*
X124150000Y-93997440D01*
X125850000Y-93997440D01*
X126097765Y-93948157D01*
X126307809Y-93807809D01*
X126448157Y-93597765D01*
X126457184Y-93552381D01*
X126469375Y-93570625D01*
X126960582Y-93898839D01*
X127393744Y-93985000D01*
X127686256Y-93985000D01*
X128119418Y-93898839D01*
X128610625Y-93570625D01*
X128810000Y-93272239D01*
X129009375Y-93570625D01*
X129500582Y-93898839D01*
X129933744Y-93985000D01*
X130226256Y-93985000D01*
X130590001Y-93912647D01*
X130590001Y-94935197D01*
X130185199Y-95340000D01*
X97236863Y-95340000D01*
X97265904Y-95296537D01*
X97271819Y-95266798D01*
X99098706Y-92014049D01*
X100229629Y-91750167D01*
X100335891Y-91738110D01*
X100441504Y-91679633D01*
X100551454Y-91629794D01*
X100572919Y-91606869D01*
X100600398Y-91591654D01*
X100675596Y-91497208D01*
X100758101Y-91409090D01*
X100795756Y-91308995D01*
X102249426Y-88489757D01*
X103089288Y-88355379D01*
X103208933Y-88346189D01*
X103304961Y-88297488D01*
X103405918Y-88260062D01*
X103438704Y-88229659D01*
X103478583Y-88209434D01*
X103548665Y-88127691D01*
X103627615Y-88054479D01*
X103677679Y-87945429D01*
X104189374Y-87035750D01*
X120265000Y-87035750D01*
X120265000Y-87276310D01*
X120361673Y-87509699D01*
X120540302Y-87688327D01*
X120773691Y-87785000D01*
X121014250Y-87785000D01*
X121173000Y-87626250D01*
X121173000Y-86877000D01*
X120423750Y-86877000D01*
X120265000Y-87035750D01*
X104189374Y-87035750D01*
X104344484Y-86760000D01*
X108815283Y-86760000D01*
X108890130Y-86774888D01*
X108964977Y-86760000D01*
X108964982Y-86760000D01*
X109186667Y-86715904D01*
X109438059Y-86547929D01*
X109480461Y-86484470D01*
X109741241Y-86223690D01*
X120265000Y-86223690D01*
X120265000Y-86464250D01*
X120423750Y-86623000D01*
X121173000Y-86623000D01*
X121173000Y-85873750D01*
X121014250Y-85715000D01*
X120773691Y-85715000D01*
X120540302Y-85811673D01*
X120361673Y-85990301D01*
X120265000Y-86223690D01*
X109741241Y-86223690D01*
X110124603Y-85840329D01*
X110188059Y-85797929D01*
X110356034Y-85546537D01*
X110400130Y-85324852D01*
X110400130Y-85324848D01*
X110415018Y-85250001D01*
X110400130Y-85175154D01*
X110400130Y-82669349D01*
X110440130Y-82642622D01*
X110592365Y-82744343D01*
X110840130Y-82793626D01*
X111640130Y-82793626D01*
X111887895Y-82744343D01*
X112097939Y-82603995D01*
X112158616Y-82513186D01*
X114093603Y-82513186D01*
X114031973Y-82605421D01*
X114031973Y-82605421D01*
G37*
X114031973Y-82605421D02*
X113982690Y-82853186D01*
X113982690Y-83653186D01*
X114031973Y-83900951D01*
X114172321Y-84110995D01*
X114382365Y-84251343D01*
X114630130Y-84300626D01*
X115430130Y-84300626D01*
X115677895Y-84251343D01*
X115830130Y-84149622D01*
X115982365Y-84251343D01*
X116230130Y-84300626D01*
X117030130Y-84300626D01*
X117277895Y-84251343D01*
X117487939Y-84110995D01*
X117553293Y-84013186D01*
X120115329Y-84013186D01*
X120282690Y-84180547D01*
X120282690Y-84503186D01*
X120285098Y-84515292D01*
X120285098Y-84552195D01*
X120297538Y-84678504D01*
X120316660Y-84774637D01*
X120353502Y-84896090D01*
X120391011Y-84986646D01*
X120450843Y-85098583D01*
X120505299Y-85180082D01*
X120585816Y-85278192D01*
X120655124Y-85347500D01*
X120753234Y-85428017D01*
X120834733Y-85482473D01*
X120946670Y-85542305D01*
X121037226Y-85579814D01*
X121158679Y-85616656D01*
X121254812Y-85635778D01*
X121381121Y-85648218D01*
X121418024Y-85648218D01*
X121430130Y-85650626D01*
X121930130Y-85650626D01*
X122080130Y-85620789D01*
X122230130Y-85650626D01*
X122730130Y-85650626D01*
X122742236Y-85648218D01*
X122779139Y-85648218D01*
X122905448Y-85635778D01*
X123001581Y-85616656D01*
X123123034Y-85579814D01*
X123213590Y-85542305D01*
X123325527Y-85482473D01*
X123407026Y-85428017D01*
X123505136Y-85347500D01*
X123574444Y-85278192D01*
X123654961Y-85180082D01*
X123709417Y-85098583D01*
X123769249Y-84986646D01*
X123806758Y-84896090D01*
X123843600Y-84774637D01*
X123862722Y-84678504D01*
X123875162Y-84552195D01*
X123875162Y-84515292D01*
X123877570Y-84503186D01*
X123877570Y-84180547D01*
X124434192Y-83623925D01*
X124547929Y-83547929D01*
X124590331Y-83484471D01*
X124814802Y-83260000D01*
X131685199Y-83260000D01*
X131795000Y-83369802D01*
X131795001Y-85094331D01*
X131585000Y-85052560D01*
X130985000Y-85052560D01*
X130737235Y-85101843D01*
X130650000Y-85160132D01*
X130562765Y-85101843D01*
X130315000Y-85052560D01*
X129715000Y-85052560D01*
X129467235Y-85101843D01*
X129380000Y-85160132D01*
X129292765Y-85101843D01*
X129045000Y-85052560D01*
X128445000Y-85052560D01*
X128197235Y-85101843D01*
X127987191Y-85242191D01*
X127846843Y-85452235D01*
X127797560Y-85700000D01*
X127797560Y-85865000D01*
X123717115Y-85865000D01*
X123547765Y-85751843D01*
X123300000Y-85702560D01*
X122500000Y-85702560D01*
X122252235Y-85751843D01*
X122100953Y-85852927D01*
X122059698Y-85811673D01*
X121826309Y-85715000D01*
X121585750Y-85715000D01*
X121427000Y-85873750D01*
X121427000Y-86623000D01*
X121447000Y-86623000D01*
X121447000Y-86877000D01*
X121427000Y-86877000D01*
X121427000Y-87626250D01*
X121585750Y-87785000D01*
X121826309Y-87785000D01*
X122059698Y-87688327D01*
X122100953Y-87647073D01*
X122252235Y-87748157D01*
X122500000Y-87797440D01*
X123300000Y-87797440D01*
X123547765Y-87748157D01*
X123717115Y-87635000D01*
X127797560Y-87635000D01*
X127797560Y-87700000D01*
X127846843Y-87947765D01*
X127860000Y-87967456D01*
X127860000Y-88388421D01*
X125245862Y-91002560D01*
X124150000Y-91002560D01*
X123902235Y-91051843D01*
X123692191Y-91192191D01*
X123551843Y-91402235D01*
X123502560Y-91650000D01*
X123502560Y-93350000D01*
X123551843Y-93597765D01*
X123692191Y-93807809D01*
X123902235Y-93948157D01*
X124150000Y-93997440D01*
X125850000Y-93997440D01*
X126097765Y-93948157D01*
X126307809Y-93807809D01*
X126448157Y-93597765D01*
X126457184Y-93552381D01*
X126469375Y-93570625D01*
X126960582Y-93898839D01*
X127393744Y-93985000D01*
X127686256Y-93985000D01*
X128119418Y-93898839D01*
X128610625Y-93570625D01*
X128810000Y-93272239D01*
X129009375Y-93570625D01*
X129500582Y-93898839D01*
X129933744Y-93985000D01*
X130226256Y-93985000D01*
X130590001Y-93912647D01*
X130590001Y-94935197D01*
X130185199Y-95340000D01*
X97236863Y-95340000D01*
X97265904Y-95296537D01*
X97271819Y-95266798D01*
X99098706Y-92014049D01*
X100229629Y-91750167D01*
X100335891Y-91738110D01*
X100441504Y-91679633D01*
X100551454Y-91629794D01*
X100572919Y-91606869D01*
X100600398Y-91591654D01*
X100675596Y-91497208D01*
X100758101Y-91409090D01*
X100795756Y-91308995D01*
X102249426Y-88489757D01*
X103089288Y-88355379D01*
X103208933Y-88346189D01*
X103304961Y-88297488D01*
X103405918Y-88260062D01*
X103438704Y-88229659D01*
X103478583Y-88209434D01*
X103548665Y-88127691D01*
X103627615Y-88054479D01*
X103677679Y-87945429D01*
X104189374Y-87035750D01*
X120265000Y-87035750D01*
X120265000Y-87276310D01*
X120361673Y-87509699D01*
X120540302Y-87688327D01*
X120773691Y-87785000D01*
X121014250Y-87785000D01*
X121173000Y-87626250D01*
X121173000Y-86877000D01*
X120423750Y-86877000D01*
X120265000Y-87035750D01*
X104189374Y-87035750D01*
X104344484Y-86760000D01*
X108815283Y-86760000D01*
X108890130Y-86774888D01*
X108964977Y-86760000D01*
X108964982Y-86760000D01*
X109186667Y-86715904D01*
X109438059Y-86547929D01*
X109480461Y-86484470D01*
X109741241Y-86223690D01*
X120265000Y-86223690D01*
X120265000Y-86464250D01*
X120423750Y-86623000D01*
X121173000Y-86623000D01*
X121173000Y-85873750D01*
X121014250Y-85715000D01*
X120773691Y-85715000D01*
X120540302Y-85811673D01*
X120361673Y-85990301D01*
X120265000Y-86223690D01*
X109741241Y-86223690D01*
X110124603Y-85840329D01*
X110188059Y-85797929D01*
X110356034Y-85546537D01*
X110400130Y-85324852D01*
X110400130Y-85324848D01*
X110415018Y-85250001D01*
X110400130Y-85175154D01*
X110400130Y-82669349D01*
X110440130Y-82642622D01*
X110592365Y-82744343D01*
X110840130Y-82793626D01*
X111640130Y-82793626D01*
X111887895Y-82744343D01*
X112097939Y-82603995D01*
X112158616Y-82513186D01*
X114093603Y-82513186D01*
X114031973Y-82605421D01*
G36*
X158763720Y-86727431D02*
X159144126Y-86885000D01*
X159233390Y-86885000D01*
X159225859Y-86934028D01*
X159231218Y-86955902D01*
X159229080Y-86978317D01*
X159267017Y-87102012D01*
X159297809Y-87227689D01*
X159355930Y-87306907D01*
X159852197Y-88228545D01*
X159510416Y-88980464D01*
X159448248Y-89112062D01*
X159444264Y-89193923D01*
X159425558Y-89273715D01*
X159436987Y-89343458D01*
X159433551Y-89414051D01*
X159461197Y-89491206D01*
X159474450Y-89572081D01*
X159551167Y-89695784D01*
X160109796Y-90626832D01*
X160135539Y-90698676D01*
X160186817Y-90755200D01*
X160186817Y-90755201D01*
X160296797Y-90876434D01*
X160338685Y-90922608D01*
X160543056Y-91019154D01*
X160543058Y-91019154D01*
X160612061Y-91051752D01*
X160688287Y-91055462D01*
X161507368Y-91260232D01*
X163859048Y-95240000D01*
X143814802Y-95240000D01*
X143760000Y-95185199D01*
X143760000Y-90741074D01*
X143855148Y-90760000D01*
X143855152Y-90760000D01*
X143929999Y-90774888D01*
X144004846Y-90760000D01*
X147425153Y-90760000D01*
X147500000Y-90774888D01*
X147574847Y-90760000D01*
X147574852Y-90760000D01*
X147796537Y-90715904D01*
X148047929Y-90547929D01*
X148090331Y-90484470D01*
X151964802Y-86610000D01*
X158646289Y-86610000D01*
X158763720Y-86727431D01*
X158763720Y-86727431D01*
G37*
X158763720Y-86727431D02*
X159144126Y-86885000D01*
X159233390Y-86885000D01*
X159225859Y-86934028D01*
X159231218Y-86955902D01*
X159229080Y-86978317D01*
X159267017Y-87102012D01*
X159297809Y-87227689D01*
X159355930Y-87306907D01*
X159852197Y-88228545D01*
X159510416Y-88980464D01*
X159448248Y-89112062D01*
X159444264Y-89193923D01*
X159425558Y-89273715D01*
X159436987Y-89343458D01*
X159433551Y-89414051D01*
X159461197Y-89491206D01*
X159474450Y-89572081D01*
X159551167Y-89695784D01*
X160109796Y-90626832D01*
X160135539Y-90698676D01*
X160186817Y-90755200D01*
X160186817Y-90755201D01*
X160296797Y-90876434D01*
X160338685Y-90922608D01*
X160543056Y-91019154D01*
X160543058Y-91019154D01*
X160612061Y-91051752D01*
X160688287Y-91055462D01*
X161507368Y-91260232D01*
X163859048Y-95240000D01*
X143814802Y-95240000D01*
X143760000Y-95185199D01*
X143760000Y-90741074D01*
X143855148Y-90760000D01*
X143855152Y-90760000D01*
X143929999Y-90774888D01*
X144004846Y-90760000D01*
X147425153Y-90760000D01*
X147500000Y-90774888D01*
X147574847Y-90760000D01*
X147574852Y-90760000D01*
X147796537Y-90715904D01*
X148047929Y-90547929D01*
X148090331Y-90484470D01*
X151964802Y-86610000D01*
X158646289Y-86610000D01*
X158763720Y-86727431D01*
G36*
X126909671Y-74984472D02*
X126952071Y-75047929D01*
X127015527Y-75090329D01*
X127203462Y-75215904D01*
X127249755Y-75225112D01*
X127425148Y-75260000D01*
X127425152Y-75260000D01*
X127500000Y-75274888D01*
X127574848Y-75260000D01*
X129255000Y-75260000D01*
X129255000Y-75699666D01*
X129171310Y-75665000D01*
X129030750Y-75665000D01*
X128872000Y-75823750D01*
X128872000Y-77173000D01*
X128892000Y-77173000D01*
X128892000Y-77427000D01*
X128872000Y-77427000D01*
X128872000Y-78776250D01*
X129030750Y-78935000D01*
X129171310Y-78935000D01*
X129317692Y-78874366D01*
X129403767Y-79003186D01*
X129467072Y-79097929D01*
X129530528Y-79140329D01*
X129874669Y-79484470D01*
X129917071Y-79547929D01*
X130168463Y-79715904D01*
X130390148Y-79760000D01*
X130390152Y-79760000D01*
X130464999Y-79774888D01*
X130539846Y-79760000D01*
X145925153Y-79760000D01*
X146000000Y-79774888D01*
X146074847Y-79760000D01*
X146074852Y-79760000D01*
X146296537Y-79715904D01*
X146547929Y-79547929D01*
X146590331Y-79484470D01*
X147240000Y-78834801D01*
X147240001Y-86185196D01*
X146202440Y-87222759D01*
X146202440Y-85700000D01*
X146153157Y-85452235D01*
X146012809Y-85242191D01*
X145802765Y-85101843D01*
X145555000Y-85052560D01*
X144955000Y-85052560D01*
X144707235Y-85101843D01*
X144620000Y-85160132D01*
X144532765Y-85101843D01*
X144285000Y-85052560D01*
X143685000Y-85052560D01*
X143437235Y-85101843D01*
X143350000Y-85160132D01*
X143262765Y-85101843D01*
X143015000Y-85052560D01*
X142415000Y-85052560D01*
X142167235Y-85101843D01*
X142080000Y-85160132D01*
X141992765Y-85101843D01*
X141745000Y-85052560D01*
X141145000Y-85052560D01*
X140897235Y-85101843D01*
X140810000Y-85160132D01*
X140722765Y-85101843D01*
X140475000Y-85052560D01*
X139875000Y-85052560D01*
X139627235Y-85101843D01*
X139540000Y-85160132D01*
X139452765Y-85101843D01*
X139205000Y-85052560D01*
X138605000Y-85052560D01*
X138357235Y-85101843D01*
X138270000Y-85160132D01*
X138182765Y-85101843D01*
X137935000Y-85052560D01*
X137335000Y-85052560D01*
X137087235Y-85101843D01*
X137000000Y-85160132D01*
X136912765Y-85101843D01*
X136770625Y-85073570D01*
X136760000Y-85020154D01*
X136760000Y-83479848D01*
X136774888Y-83405000D01*
X136760000Y-83330152D01*
X136760000Y-83330148D01*
X136715904Y-83108463D01*
X136547929Y-82857071D01*
X136484473Y-82814671D01*
X134185331Y-80515530D01*
X134142929Y-80452071D01*
X133891537Y-80284096D01*
X133669852Y-80240000D01*
X133669847Y-80240000D01*
X133595000Y-80225112D01*
X133520153Y-80240000D01*
X124791746Y-80240000D01*
X123877570Y-79325825D01*
X123877570Y-79003186D01*
X123875162Y-78991080D01*
X123875162Y-78954177D01*
X123862722Y-78827868D01*
X123843600Y-78731735D01*
X123806758Y-78610282D01*
X123769249Y-78519726D01*
X123709417Y-78407789D01*
X123654961Y-78326290D01*
X123574444Y-78228180D01*
X123505136Y-78158872D01*
X123407026Y-78078355D01*
X123325527Y-78023899D01*
X123213590Y-77964067D01*
X123123034Y-77926558D01*
X123001581Y-77889716D01*
X122905448Y-77870594D01*
X122779139Y-77858154D01*
X122742236Y-77858154D01*
X122730130Y-77855746D01*
X122230130Y-77855746D01*
X122080130Y-77885583D01*
X121930130Y-77855746D01*
X121430130Y-77855746D01*
X121418024Y-77858154D01*
X121381121Y-77858154D01*
X121254812Y-77870594D01*
X121158679Y-77889716D01*
X121037226Y-77926558D01*
X120946670Y-77964067D01*
X120834733Y-78023899D01*
X120753234Y-78078355D01*
X120655124Y-78158872D01*
X120585816Y-78228180D01*
X120505299Y-78326290D01*
X120450843Y-78407789D01*
X120391011Y-78519726D01*
X120353502Y-78610282D01*
X120316660Y-78731735D01*
X120297538Y-78827868D01*
X120285098Y-78954177D01*
X120285098Y-78991080D01*
X120282690Y-79003186D01*
X120282690Y-79325825D01*
X120115329Y-79493186D01*
X117553293Y-79493186D01*
X117487939Y-79395377D01*
X117277895Y-79255029D01*
X117030130Y-79205746D01*
X116230130Y-79205746D01*
X115982365Y-79255029D01*
X115830130Y-79356750D01*
X115677895Y-79255029D01*
X115430130Y-79205746D01*
X114630130Y-79205746D01*
X114382365Y-79255029D01*
X114172321Y-79395377D01*
X114031973Y-79605421D01*
X113982690Y-79853186D01*
X113982690Y-80653186D01*
X114031973Y-80900951D01*
X114093603Y-80993186D01*
X112167971Y-80993186D01*
X112097939Y-80888377D01*
X111887895Y-80748029D01*
X111640130Y-80698746D01*
X110840130Y-80698746D01*
X110592365Y-80748029D01*
X110440130Y-80849750D01*
X110401952Y-80824240D01*
X110408350Y-77585750D01*
X127810000Y-77585750D01*
X127810000Y-78426309D01*
X127906673Y-78659698D01*
X128085301Y-78838327D01*
X128318690Y-78935000D01*
X128459250Y-78935000D01*
X128618000Y-78776250D01*
X128618000Y-77427000D01*
X127968750Y-77427000D01*
X127810000Y-77585750D01*
X110408350Y-77585750D01*
X110409290Y-77109975D01*
X111549854Y-76173691D01*
X127810000Y-76173691D01*
X127810000Y-77014250D01*
X127968750Y-77173000D01*
X128618000Y-77173000D01*
X128618000Y-75823750D01*
X128459250Y-75665000D01*
X128318690Y-75665000D01*
X128085301Y-75761673D01*
X127906673Y-75940302D01*
X127810000Y-76173691D01*
X111549854Y-76173691D01*
X113271988Y-74760000D01*
X126685199Y-74760000D01*
X126909671Y-74984472D01*
X126909671Y-74984472D01*
G37*
X126909671Y-74984472D02*
X126952071Y-75047929D01*
X127015527Y-75090329D01*
X127203462Y-75215904D01*
X127249755Y-75225112D01*
X127425148Y-75260000D01*
X127425152Y-75260000D01*
X127500000Y-75274888D01*
X127574848Y-75260000D01*
X129255000Y-75260000D01*
X129255000Y-75699666D01*
X129171310Y-75665000D01*
X129030750Y-75665000D01*
X128872000Y-75823750D01*
X128872000Y-77173000D01*
X128892000Y-77173000D01*
X128892000Y-77427000D01*
X128872000Y-77427000D01*
X128872000Y-78776250D01*
X129030750Y-78935000D01*
X129171310Y-78935000D01*
X129317692Y-78874366D01*
X129403767Y-79003186D01*
X129467072Y-79097929D01*
X129530528Y-79140329D01*
X129874669Y-79484470D01*
X129917071Y-79547929D01*
X130168463Y-79715904D01*
X130390148Y-79760000D01*
X130390152Y-79760000D01*
X130464999Y-79774888D01*
X130539846Y-79760000D01*
X145925153Y-79760000D01*
X146000000Y-79774888D01*
X146074847Y-79760000D01*
X146074852Y-79760000D01*
X146296537Y-79715904D01*
X146547929Y-79547929D01*
X146590331Y-79484470D01*
X147240000Y-78834801D01*
X147240001Y-86185196D01*
X146202440Y-87222759D01*
X146202440Y-85700000D01*
X146153157Y-85452235D01*
X146012809Y-85242191D01*
X145802765Y-85101843D01*
X145555000Y-85052560D01*
X144955000Y-85052560D01*
X144707235Y-85101843D01*
X144620000Y-85160132D01*
X144532765Y-85101843D01*
X144285000Y-85052560D01*
X143685000Y-85052560D01*
X143437235Y-85101843D01*
X143350000Y-85160132D01*
X143262765Y-85101843D01*
X143015000Y-85052560D01*
X142415000Y-85052560D01*
X142167235Y-85101843D01*
X142080000Y-85160132D01*
X141992765Y-85101843D01*
X141745000Y-85052560D01*
X141145000Y-85052560D01*
X140897235Y-85101843D01*
X140810000Y-85160132D01*
X140722765Y-85101843D01*
X140475000Y-85052560D01*
X139875000Y-85052560D01*
X139627235Y-85101843D01*
X139540000Y-85160132D01*
X139452765Y-85101843D01*
X139205000Y-85052560D01*
X138605000Y-85052560D01*
X138357235Y-85101843D01*
X138270000Y-85160132D01*
X138182765Y-85101843D01*
X137935000Y-85052560D01*
X137335000Y-85052560D01*
X137087235Y-85101843D01*
X137000000Y-85160132D01*
X136912765Y-85101843D01*
X136770625Y-85073570D01*
X136760000Y-85020154D01*
X136760000Y-83479848D01*
X136774888Y-83405000D01*
X136760000Y-83330152D01*
X136760000Y-83330148D01*
X136715904Y-83108463D01*
X136547929Y-82857071D01*
X136484473Y-82814671D01*
X134185331Y-80515530D01*
X134142929Y-80452071D01*
X133891537Y-80284096D01*
X133669852Y-80240000D01*
X133669847Y-80240000D01*
X133595000Y-80225112D01*
X133520153Y-80240000D01*
X124791746Y-80240000D01*
X123877570Y-79325825D01*
X123877570Y-79003186D01*
X123875162Y-78991080D01*
X123875162Y-78954177D01*
X123862722Y-78827868D01*
X123843600Y-78731735D01*
X123806758Y-78610282D01*
X123769249Y-78519726D01*
X123709417Y-78407789D01*
X123654961Y-78326290D01*
X123574444Y-78228180D01*
X123505136Y-78158872D01*
X123407026Y-78078355D01*
X123325527Y-78023899D01*
X123213590Y-77964067D01*
X123123034Y-77926558D01*
X123001581Y-77889716D01*
X122905448Y-77870594D01*
X122779139Y-77858154D01*
X122742236Y-77858154D01*
X122730130Y-77855746D01*
X122230130Y-77855746D01*
X122080130Y-77885583D01*
X121930130Y-77855746D01*
X121430130Y-77855746D01*
X121418024Y-77858154D01*
X121381121Y-77858154D01*
X121254812Y-77870594D01*
X121158679Y-77889716D01*
X121037226Y-77926558D01*
X120946670Y-77964067D01*
X120834733Y-78023899D01*
X120753234Y-78078355D01*
X120655124Y-78158872D01*
X120585816Y-78228180D01*
X120505299Y-78326290D01*
X120450843Y-78407789D01*
X120391011Y-78519726D01*
X120353502Y-78610282D01*
X120316660Y-78731735D01*
X120297538Y-78827868D01*
X120285098Y-78954177D01*
X120285098Y-78991080D01*
X120282690Y-79003186D01*
X120282690Y-79325825D01*
X120115329Y-79493186D01*
X117553293Y-79493186D01*
X117487939Y-79395377D01*
X117277895Y-79255029D01*
X117030130Y-79205746D01*
X116230130Y-79205746D01*
X115982365Y-79255029D01*
X115830130Y-79356750D01*
X115677895Y-79255029D01*
X115430130Y-79205746D01*
X114630130Y-79205746D01*
X114382365Y-79255029D01*
X114172321Y-79395377D01*
X114031973Y-79605421D01*
X113982690Y-79853186D01*
X113982690Y-80653186D01*
X114031973Y-80900951D01*
X114093603Y-80993186D01*
X112167971Y-80993186D01*
X112097939Y-80888377D01*
X111887895Y-80748029D01*
X111640130Y-80698746D01*
X110840130Y-80698746D01*
X110592365Y-80748029D01*
X110440130Y-80849750D01*
X110401952Y-80824240D01*
X110408350Y-77585750D01*
X127810000Y-77585750D01*
X127810000Y-78426309D01*
X127906673Y-78659698D01*
X128085301Y-78838327D01*
X128318690Y-78935000D01*
X128459250Y-78935000D01*
X128618000Y-78776250D01*
X128618000Y-77427000D01*
X127968750Y-77427000D01*
X127810000Y-77585750D01*
X110408350Y-77585750D01*
X110409290Y-77109975D01*
X111549854Y-76173691D01*
X127810000Y-76173691D01*
X127810000Y-77014250D01*
X127968750Y-77173000D01*
X128618000Y-77173000D01*
X128618000Y-75823750D01*
X128459250Y-75665000D01*
X128318690Y-75665000D01*
X128085301Y-75761673D01*
X127906673Y-75940302D01*
X127810000Y-76173691D01*
X111549854Y-76173691D01*
X113271988Y-74760000D01*
X126685199Y-74760000D01*
X126909671Y-74984472D01*
G36*
X152088666Y-75363009D02*
X152222569Y-75686280D01*
X152513720Y-75977431D01*
X152894126Y-76135000D01*
X153305874Y-76135000D01*
X153686280Y-75977431D01*
X153818432Y-75845279D01*
X154813106Y-77558329D01*
X154730061Y-78198751D01*
X154515092Y-78413720D01*
X154357523Y-78794126D01*
X154357523Y-79205874D01*
X154515092Y-79586280D01*
X154806243Y-79877431D01*
X155186649Y-80035000D01*
X155598397Y-80035000D01*
X155921569Y-79901138D01*
X156204658Y-79966093D01*
X158999018Y-84875105D01*
X158763720Y-84972569D01*
X158646289Y-85090000D01*
X151724846Y-85090000D01*
X151649999Y-85075112D01*
X151575152Y-85090000D01*
X151575148Y-85090000D01*
X151353463Y-85134096D01*
X151102071Y-85302071D01*
X151059671Y-85365527D01*
X149760000Y-86665198D01*
X149760000Y-73903248D01*
X152088666Y-75363009D01*
X152088666Y-75363009D01*
G37*
X152088666Y-75363009D02*
X152222569Y-75686280D01*
X152513720Y-75977431D01*
X152894126Y-76135000D01*
X153305874Y-76135000D01*
X153686280Y-75977431D01*
X153818432Y-75845279D01*
X154813106Y-77558329D01*
X154730061Y-78198751D01*
X154515092Y-78413720D01*
X154357523Y-78794126D01*
X154357523Y-79205874D01*
X154515092Y-79586280D01*
X154806243Y-79877431D01*
X155186649Y-80035000D01*
X155598397Y-80035000D01*
X155921569Y-79901138D01*
X156204658Y-79966093D01*
X158999018Y-84875105D01*
X158763720Y-84972569D01*
X158646289Y-85090000D01*
X151724846Y-85090000D01*
X151649999Y-85075112D01*
X151575152Y-85090000D01*
X151575148Y-85090000D01*
X151353463Y-85134096D01*
X151102071Y-85302071D01*
X151059671Y-85365527D01*
X149760000Y-86665198D01*
X149760000Y-73903248D01*
X152088666Y-75363009D01*
G36*
X108881955Y-80821803D02*
X108782321Y-80888377D01*
X108641973Y-81098421D01*
X108592690Y-81346186D01*
X108592690Y-82146186D01*
X108641973Y-82393951D01*
X108782321Y-82603995D01*
X108880130Y-82669350D01*
X108880131Y-84935197D01*
X108575329Y-85240000D01*
X104059997Y-85240000D01*
X108704532Y-77173178D01*
X108889426Y-77039882D01*
X108881955Y-80821803D01*
X108881955Y-80821803D01*
G37*
X108881955Y-80821803D02*
X108782321Y-80888377D01*
X108641973Y-81098421D01*
X108592690Y-81346186D01*
X108592690Y-82146186D01*
X108641973Y-82393951D01*
X108782321Y-82603995D01*
X108880130Y-82669350D01*
X108880131Y-84935197D01*
X108575329Y-85240000D01*
X104059997Y-85240000D01*
X108704532Y-77173178D01*
X108889426Y-77039882D01*
X108881955Y-80821803D01*
G36*
X135240001Y-83719803D02*
X135240000Y-84780198D01*
X134967639Y-85052560D01*
X134795000Y-85052560D01*
X134585000Y-85094331D01*
X134585000Y-83064802D01*
X135240001Y-83719803D01*
X135240001Y-83719803D01*
G37*
X135240001Y-83719803D02*
X135240000Y-84780198D01*
X134967639Y-85052560D01*
X134795000Y-85052560D01*
X134585000Y-85094331D01*
X134585000Y-83064802D01*
X135240001Y-83719803D01*
G36*
X139415000Y-74489802D02*
X139415000Y-75694331D01*
X139205000Y-75652560D01*
X138605000Y-75652560D01*
X138357235Y-75701843D01*
X138270000Y-75760132D01*
X138182765Y-75701843D01*
X137935000Y-75652560D01*
X137335000Y-75652560D01*
X137087235Y-75701843D01*
X137000000Y-75760132D01*
X136912765Y-75701843D01*
X136665000Y-75652560D01*
X136065000Y-75652560D01*
X135817235Y-75701843D01*
X135730000Y-75760132D01*
X135642765Y-75701843D01*
X135395000Y-75652560D01*
X134795000Y-75652560D01*
X134547235Y-75701843D01*
X134460000Y-75760132D01*
X134372765Y-75701843D01*
X134125000Y-75652560D01*
X133525000Y-75652560D01*
X133277235Y-75701843D01*
X133190000Y-75760132D01*
X133102765Y-75701843D01*
X132855000Y-75652560D01*
X132255000Y-75652560D01*
X132045000Y-75694331D01*
X132045000Y-74859848D01*
X132059888Y-74785000D01*
X132045000Y-74710152D01*
X132045000Y-74710148D01*
X132000904Y-74488463D01*
X131848250Y-74260000D01*
X139185199Y-74260000D01*
X139415000Y-74489802D01*
X139415000Y-74489802D01*
G37*
X139415000Y-74489802D02*
X139415000Y-75694331D01*
X139205000Y-75652560D01*
X138605000Y-75652560D01*
X138357235Y-75701843D01*
X138270000Y-75760132D01*
X138182765Y-75701843D01*
X137935000Y-75652560D01*
X137335000Y-75652560D01*
X137087235Y-75701843D01*
X137000000Y-75760132D01*
X136912765Y-75701843D01*
X136665000Y-75652560D01*
X136065000Y-75652560D01*
X135817235Y-75701843D01*
X135730000Y-75760132D01*
X135642765Y-75701843D01*
X135395000Y-75652560D01*
X134795000Y-75652560D01*
X134547235Y-75701843D01*
X134460000Y-75760132D01*
X134372765Y-75701843D01*
X134125000Y-75652560D01*
X133525000Y-75652560D01*
X133277235Y-75701843D01*
X133190000Y-75760132D01*
X133102765Y-75701843D01*
X132855000Y-75652560D01*
X132255000Y-75652560D01*
X132045000Y-75694331D01*
X132045000Y-74859848D01*
X132059888Y-74785000D01*
X132045000Y-74710152D01*
X132045000Y-74710148D01*
X132000904Y-74488463D01*
X131848250Y-74260000D01*
X139185199Y-74260000D01*
X139415000Y-74489802D01*
G36*
X144990000Y-73309802D02*
X144990001Y-75652560D01*
X144955000Y-75652560D01*
X144745000Y-75694331D01*
X144745000Y-73074848D01*
X144746667Y-73066468D01*
X144990000Y-73309802D01*
X144990000Y-73309802D01*
G37*
X144990000Y-73309802D02*
X144990001Y-75652560D01*
X144955000Y-75652560D01*
X144745000Y-75694331D01*
X144745000Y-73074848D01*
X144746667Y-73066468D01*
X144990000Y-73309802D01*
G04 #@! TD*
M02*
