G04 #@! TF.GenerationSoftware,KiCad,Pcbnew,(5.0.2)-1*
G04 #@! TF.CreationDate,2020-05-10T00:06:34+09:00*
G04 #@! TF.ProjectId,Tile,54696c65-2e6b-4696-9361-645f70636258,rev?*
G04 #@! TF.SameCoordinates,Original*
G04 #@! TF.FileFunction,Copper,L1,Top*
G04 #@! TF.FilePolarity,Positive*
%FSLAX46Y46*%
G04 Gerber Fmt 4.6, Leading zero omitted, Abs format (unit mm)*
G04 Created by KiCad (PCBNEW (5.0.2)-1) date 2020/05/10 0:06:34*
%MOMM*%
%LPD*%
G01*
G04 APERTURE LIST*
G04 #@! TA.AperFunction,SMDPad,CuDef*
%ADD10C,0.800000*%
G04 #@! TD*
G04 #@! TA.AperFunction,Conductor*
%ADD11C,0.100000*%
G04 #@! TD*
G04 #@! TA.AperFunction,SMDPad,CuDef*
%ADD12R,0.800000X0.800000*%
G04 #@! TD*
G04 #@! TA.AperFunction,ComponentPad*
%ADD13R,1.700000X1.700000*%
G04 #@! TD*
G04 #@! TA.AperFunction,ComponentPad*
%ADD14O,1.700000X1.700000*%
G04 #@! TD*
G04 #@! TA.AperFunction,ViaPad*
%ADD15C,0.800000*%
G04 #@! TD*
G04 #@! TA.AperFunction,Conductor*
%ADD16C,0.250000*%
G04 #@! TD*
G04 #@! TA.AperFunction,Conductor*
%ADD17C,0.254000*%
G04 #@! TD*
G04 APERTURE END LIST*
D10*
G04 #@! TO.P,D1,2*
G04 #@! TO.N,Net-(D1-Pad2)*
X97300000Y-91656922D03*
D11*
G04 #@! TD*
G04 #@! TO.N,Net-(D1-Pad2)*
G04 #@! TO.C,D1*
G36*
X97153590Y-91110512D02*
X97846410Y-91510512D01*
X97446410Y-92203332D01*
X96753590Y-91803332D01*
X97153590Y-91110512D01*
X97153590Y-91110512D01*
G37*
D10*
G04 #@! TO.P,D1,1*
G04 #@! TO.N,Net-(D1-Pad1)*
X98100000Y-90271282D03*
D11*
G04 #@! TD*
G04 #@! TO.N,Net-(D1-Pad1)*
G04 #@! TO.C,D1*
G36*
X97953590Y-89724872D02*
X98646410Y-90124872D01*
X98246410Y-90817692D01*
X97553590Y-90417692D01*
X97953590Y-89724872D01*
X97953590Y-89724872D01*
G37*
D10*
G04 #@! TO.P,D2,2*
G04 #@! TO.N,Net-(D18-Pad2)*
X94137500Y-112847166D03*
D11*
G04 #@! TD*
G04 #@! TO.N,Net-(D18-Pad2)*
G04 #@! TO.C,D2*
G36*
X93591090Y-112700756D02*
X94283910Y-112300756D01*
X94683910Y-112993576D01*
X93991090Y-113393576D01*
X93591090Y-112700756D01*
X93591090Y-112700756D01*
G37*
D10*
G04 #@! TO.P,D2,1*
G04 #@! TO.N,Net-(D1-Pad1)*
X93337500Y-111461526D03*
D11*
G04 #@! TD*
G04 #@! TO.N,Net-(D1-Pad1)*
G04 #@! TO.C,D2*
G36*
X92791090Y-111315116D02*
X93483910Y-110915116D01*
X93883910Y-111607936D01*
X93191090Y-112007936D01*
X92791090Y-111315116D01*
X92791090Y-111315116D01*
G37*
D10*
G04 #@! TO.P,D3,1*
G04 #@! TO.N,Net-(D1-Pad1)*
X101312500Y-125274631D03*
D11*
G04 #@! TD*
G04 #@! TO.N,Net-(D1-Pad1)*
G04 #@! TO.C,D3*
G36*
X100766090Y-125128221D02*
X101458910Y-124728221D01*
X101858910Y-125421041D01*
X101166090Y-125821041D01*
X100766090Y-125128221D01*
X100766090Y-125128221D01*
G37*
D10*
G04 #@! TO.P,D3,2*
G04 #@! TO.N,Net-(D19-Pad2)*
X102112500Y-126660271D03*
D11*
G04 #@! TD*
G04 #@! TO.N,Net-(D19-Pad2)*
G04 #@! TO.C,D3*
G36*
X101566090Y-126513861D02*
X102258910Y-126113861D01*
X102658910Y-126806681D01*
X101966090Y-127206681D01*
X101566090Y-126513861D01*
X101566090Y-126513861D01*
G37*
D12*
G04 #@! TO.P,D4,1*
G04 #@! TO.N,Net-(D1-Pad1)*
X117200000Y-140000000D03*
G04 #@! TO.P,D4,2*
G04 #@! TO.N,Net-(D20-Pad2)*
X118800000Y-140000000D03*
G04 #@! TD*
G04 #@! TO.P,D5,2*
G04 #@! TO.N,Net-(D21-Pad2)*
X134800000Y-140000000D03*
G04 #@! TO.P,D5,1*
G04 #@! TO.N,Net-(D1-Pad1)*
X133200000Y-140000000D03*
G04 #@! TD*
D10*
G04 #@! TO.P,D6,2*
G04 #@! TO.N,Net-(D22-Pad2)*
X154700000Y-132199485D03*
D11*
G04 #@! TD*
G04 #@! TO.N,Net-(D22-Pad2)*
G04 #@! TO.C,D6*
G36*
X154846410Y-132745895D02*
X154153590Y-132345895D01*
X154553590Y-131653075D01*
X155246410Y-132053075D01*
X154846410Y-132745895D01*
X154846410Y-132745895D01*
G37*
D10*
G04 #@! TO.P,D6,1*
G04 #@! TO.N,Net-(D1-Pad1)*
X153900000Y-133585125D03*
D11*
G04 #@! TD*
G04 #@! TO.N,Net-(D1-Pad1)*
G04 #@! TO.C,D6*
G36*
X154046410Y-134131535D02*
X153353590Y-133731535D01*
X153753590Y-133038715D01*
X154446410Y-133438715D01*
X154046410Y-134131535D01*
X154046410Y-134131535D01*
G37*
D10*
G04 #@! TO.P,D7,1*
G04 #@! TO.N,Net-(D1-Pad1)*
X161900000Y-119728718D03*
D11*
G04 #@! TD*
G04 #@! TO.N,Net-(D1-Pad1)*
G04 #@! TO.C,D7*
G36*
X162046410Y-120275128D02*
X161353590Y-119875128D01*
X161753590Y-119182308D01*
X162446410Y-119582308D01*
X162046410Y-120275128D01*
X162046410Y-120275128D01*
G37*
D10*
G04 #@! TO.P,D7,2*
G04 #@! TO.N,Net-(D23-Pad2)*
X162700000Y-118343078D03*
D11*
G04 #@! TD*
G04 #@! TO.N,Net-(D23-Pad2)*
G04 #@! TO.C,D7*
G36*
X162846410Y-118889488D02*
X162153590Y-118489488D01*
X162553590Y-117796668D01*
X163246410Y-118196668D01*
X162846410Y-118889488D01*
X162846410Y-118889488D01*
G37*
D10*
G04 #@! TO.P,D8,1*
G04 #@! TO.N,Net-(D1-Pad1)*
X166700000Y-98585125D03*
D11*
G04 #@! TD*
G04 #@! TO.N,Net-(D1-Pad1)*
G04 #@! TO.C,D8*
G36*
X167246410Y-98731535D02*
X166553590Y-99131535D01*
X166153590Y-98438715D01*
X166846410Y-98038715D01*
X167246410Y-98731535D01*
X167246410Y-98731535D01*
G37*
D10*
G04 #@! TO.P,D8,2*
G04 #@! TO.N,Net-(D24-Pad2)*
X165900000Y-97199485D03*
D11*
G04 #@! TD*
G04 #@! TO.N,Net-(D24-Pad2)*
G04 #@! TO.C,D8*
G36*
X166446410Y-97345895D02*
X165753590Y-97745895D01*
X165353590Y-97053075D01*
X166046410Y-96653075D01*
X166446410Y-97345895D01*
X166446410Y-97345895D01*
G37*
D10*
G04 #@! TO.P,D9,2*
G04 #@! TO.N,Net-(D9-Pad2)*
X158700000Y-84728718D03*
D11*
G04 #@! TD*
G04 #@! TO.N,Net-(D9-Pad2)*
G04 #@! TO.C,D9*
G36*
X158153590Y-84582308D02*
X158846410Y-84182308D01*
X159246410Y-84875128D01*
X158553590Y-85275128D01*
X158153590Y-84582308D01*
X158153590Y-84582308D01*
G37*
D10*
G04 #@! TO.P,D9,1*
G04 #@! TO.N,Net-(D1-Pad1)*
X157900000Y-83343078D03*
D11*
G04 #@! TD*
G04 #@! TO.N,Net-(D1-Pad1)*
G04 #@! TO.C,D9*
G36*
X157353590Y-83196668D02*
X158046410Y-82796668D01*
X158446410Y-83489488D01*
X157753590Y-83889488D01*
X157353590Y-83196668D01*
X157353590Y-83196668D01*
G37*
D10*
G04 #@! TO.P,D10,2*
G04 #@! TO.N,Net-(D10-Pad2)*
X153900000Y-76414875D03*
D11*
G04 #@! TD*
G04 #@! TO.N,Net-(D10-Pad2)*
G04 #@! TO.C,D10*
G36*
X154446410Y-76561285D02*
X153753590Y-76961285D01*
X153353590Y-76268465D01*
X154046410Y-75868465D01*
X154446410Y-76561285D01*
X154446410Y-76561285D01*
G37*
D10*
G04 #@! TO.P,D10,1*
G04 #@! TO.N,Net-(D1-Pad1)*
X154700000Y-77800515D03*
D11*
G04 #@! TD*
G04 #@! TO.N,Net-(D1-Pad1)*
G04 #@! TO.C,D10*
G36*
X155246410Y-77946925D02*
X154553590Y-78346925D01*
X154153590Y-77654105D01*
X154846410Y-77254105D01*
X155246410Y-77946925D01*
X155246410Y-77946925D01*
G37*
D12*
G04 #@! TO.P,D11,2*
G04 #@! TO.N,Net-(D11-Pad2)*
X142800000Y-70000000D03*
G04 #@! TO.P,D11,1*
G04 #@! TO.N,Net-(D1-Pad1)*
X141200000Y-70000000D03*
G04 #@! TD*
G04 #@! TO.P,D12,1*
G04 #@! TO.N,Net-(D1-Pad1)*
X134800000Y-70000000D03*
G04 #@! TO.P,D12,2*
G04 #@! TO.N,Net-(D12-Pad2)*
X133200000Y-70000000D03*
G04 #@! TD*
G04 #@! TO.P,D13,1*
G04 #@! TO.N,Net-(D1-Pad1)*
X125200000Y-70000000D03*
G04 #@! TO.P,D13,2*
G04 #@! TO.N,Net-(D13-Pad2)*
X126800000Y-70000000D03*
G04 #@! TD*
G04 #@! TO.P,D14,2*
G04 #@! TO.N,Net-(D14-Pad2)*
X117200000Y-70000000D03*
G04 #@! TO.P,D14,1*
G04 #@! TO.N,Net-(D1-Pad1)*
X118800000Y-70000000D03*
G04 #@! TD*
D10*
G04 #@! TO.P,D15,1*
G04 #@! TO.N,Net-(D1-Pad1)*
X105300000Y-77800515D03*
D11*
G04 #@! TD*
G04 #@! TO.N,Net-(D1-Pad1)*
G04 #@! TO.C,D15*
G36*
X105446410Y-78346925D02*
X104753590Y-77946925D01*
X105153590Y-77254105D01*
X105846410Y-77654105D01*
X105446410Y-78346925D01*
X105446410Y-78346925D01*
G37*
D10*
G04 #@! TO.P,D15,2*
G04 #@! TO.N,Net-(D15-Pad2)*
X106100000Y-76414875D03*
D11*
G04 #@! TD*
G04 #@! TO.N,Net-(D15-Pad2)*
G04 #@! TO.C,D15*
G36*
X106246410Y-76961285D02*
X105553590Y-76561285D01*
X105953590Y-75868465D01*
X106646410Y-76268465D01*
X106246410Y-76961285D01*
X106246410Y-76961285D01*
G37*
D10*
G04 #@! TO.P,D16,1*
G04 #@! TO.N,Net-(D1-Pad1)*
X102100000Y-83343078D03*
D11*
G04 #@! TD*
G04 #@! TO.N,Net-(D1-Pad1)*
G04 #@! TO.C,D16*
G36*
X101953590Y-82796668D02*
X102646410Y-83196668D01*
X102246410Y-83889488D01*
X101553590Y-83489488D01*
X101953590Y-82796668D01*
X101953590Y-82796668D01*
G37*
D10*
G04 #@! TO.P,D16,2*
G04 #@! TO.N,Net-(D16-Pad2)*
X101300000Y-84728718D03*
D11*
G04 #@! TD*
G04 #@! TO.N,Net-(D16-Pad2)*
G04 #@! TO.C,D16*
G36*
X101153590Y-84182308D02*
X101846410Y-84582308D01*
X101446410Y-85275128D01*
X100753590Y-84875128D01*
X101153590Y-84182308D01*
X101153590Y-84182308D01*
G37*
D10*
G04 #@! TO.P,D17,2*
G04 #@! TO.N,Net-(D1-Pad2)*
X94100000Y-97199485D03*
D11*
G04 #@! TD*
G04 #@! TO.N,Net-(D1-Pad2)*
G04 #@! TO.C,D17*
G36*
X94246410Y-97745895D02*
X93553590Y-97345895D01*
X93953590Y-96653075D01*
X94646410Y-97053075D01*
X94246410Y-97745895D01*
X94246410Y-97745895D01*
G37*
D10*
G04 #@! TO.P,D17,1*
G04 #@! TO.N,Net-(D17-Pad1)*
X93300000Y-98585125D03*
D11*
G04 #@! TD*
G04 #@! TO.N,Net-(D17-Pad1)*
G04 #@! TO.C,D17*
G36*
X93446410Y-99131535D02*
X92753590Y-98731535D01*
X93153590Y-98038715D01*
X93846410Y-98438715D01*
X93446410Y-99131535D01*
X93446410Y-99131535D01*
G37*
D10*
G04 #@! TO.P,D18,2*
G04 #@! TO.N,Net-(D18-Pad2)*
X97312500Y-118346428D03*
D11*
G04 #@! TD*
G04 #@! TO.N,Net-(D18-Pad2)*
G04 #@! TO.C,D18*
G36*
X97858910Y-118492838D02*
X97166090Y-118892838D01*
X96766090Y-118200018D01*
X97458910Y-117800018D01*
X97858910Y-118492838D01*
X97858910Y-118492838D01*
G37*
D10*
G04 #@! TO.P,D18,1*
G04 #@! TO.N,Net-(D17-Pad1)*
X98112500Y-119732068D03*
D11*
G04 #@! TD*
G04 #@! TO.N,Net-(D17-Pad1)*
G04 #@! TO.C,D18*
G36*
X98658910Y-119878478D02*
X97966090Y-120278478D01*
X97566090Y-119585658D01*
X98258910Y-119185658D01*
X98658910Y-119878478D01*
X98658910Y-119878478D01*
G37*
D10*
G04 #@! TO.P,D19,1*
G04 #@! TO.N,Net-(D17-Pad1)*
X106112500Y-133588474D03*
D11*
G04 #@! TD*
G04 #@! TO.N,Net-(D17-Pad1)*
G04 #@! TO.C,D19*
G36*
X106658910Y-133734884D02*
X105966090Y-134134884D01*
X105566090Y-133442064D01*
X106258910Y-133042064D01*
X106658910Y-133734884D01*
X106658910Y-133734884D01*
G37*
D10*
G04 #@! TO.P,D19,2*
G04 #@! TO.N,Net-(D19-Pad2)*
X105312500Y-132202834D03*
D11*
G04 #@! TD*
G04 #@! TO.N,Net-(D19-Pad2)*
G04 #@! TO.C,D19*
G36*
X105858910Y-132349244D02*
X105166090Y-132749244D01*
X104766090Y-132056424D01*
X105458910Y-131656424D01*
X105858910Y-132349244D01*
X105858910Y-132349244D01*
G37*
D12*
G04 #@! TO.P,D20,1*
G04 #@! TO.N,Net-(D17-Pad1)*
X126800000Y-140000000D03*
G04 #@! TO.P,D20,2*
G04 #@! TO.N,Net-(D20-Pad2)*
X125200000Y-140000000D03*
G04 #@! TD*
G04 #@! TO.P,D21,2*
G04 #@! TO.N,Net-(D21-Pad2)*
X141200000Y-140000000D03*
G04 #@! TO.P,D21,1*
G04 #@! TO.N,Net-(D17-Pad1)*
X142800000Y-140000000D03*
G04 #@! TD*
D10*
G04 #@! TO.P,D22,2*
G04 #@! TO.N,Net-(D22-Pad2)*
X157900000Y-126656922D03*
D11*
G04 #@! TD*
G04 #@! TO.N,Net-(D22-Pad2)*
G04 #@! TO.C,D22*
G36*
X157753590Y-126110512D02*
X158446410Y-126510512D01*
X158046410Y-127203332D01*
X157353590Y-126803332D01*
X157753590Y-126110512D01*
X157753590Y-126110512D01*
G37*
D10*
G04 #@! TO.P,D22,1*
G04 #@! TO.N,Net-(D17-Pad1)*
X158700000Y-125271282D03*
D11*
G04 #@! TD*
G04 #@! TO.N,Net-(D17-Pad1)*
G04 #@! TO.C,D22*
G36*
X158553590Y-124724872D02*
X159246410Y-125124872D01*
X158846410Y-125817692D01*
X158153590Y-125417692D01*
X158553590Y-124724872D01*
X158553590Y-124724872D01*
G37*
D10*
G04 #@! TO.P,D23,1*
G04 #@! TO.N,Net-(D17-Pad1)*
X166700000Y-111414875D03*
D11*
G04 #@! TD*
G04 #@! TO.N,Net-(D17-Pad1)*
G04 #@! TO.C,D23*
G36*
X166553590Y-110868465D02*
X167246410Y-111268465D01*
X166846410Y-111961285D01*
X166153590Y-111561285D01*
X166553590Y-110868465D01*
X166553590Y-110868465D01*
G37*
D10*
G04 #@! TO.P,D23,2*
G04 #@! TO.N,Net-(D23-Pad2)*
X165900000Y-112800515D03*
D11*
G04 #@! TD*
G04 #@! TO.N,Net-(D23-Pad2)*
G04 #@! TO.C,D23*
G36*
X165753590Y-112254105D02*
X166446410Y-112654105D01*
X166046410Y-113346925D01*
X165353590Y-112946925D01*
X165753590Y-112254105D01*
X165753590Y-112254105D01*
G37*
D10*
G04 #@! TO.P,D24,1*
G04 #@! TO.N,Net-(D17-Pad1)*
X161900000Y-90271282D03*
D11*
G04 #@! TD*
G04 #@! TO.N,Net-(D17-Pad1)*
G04 #@! TO.C,D24*
G36*
X161353590Y-90124872D02*
X162046410Y-89724872D01*
X162446410Y-90417692D01*
X161753590Y-90817692D01*
X161353590Y-90124872D01*
X161353590Y-90124872D01*
G37*
D10*
G04 #@! TO.P,D24,2*
G04 #@! TO.N,Net-(D24-Pad2)*
X162700000Y-91656922D03*
D11*
G04 #@! TD*
G04 #@! TO.N,Net-(D24-Pad2)*
G04 #@! TO.C,D24*
G36*
X162153590Y-91510512D02*
X162846410Y-91110512D01*
X163246410Y-91803332D01*
X162553590Y-92203332D01*
X162153590Y-91510512D01*
X162153590Y-91510512D01*
G37*
D13*
G04 #@! TO.P,CN1,1*
G04 #@! TO.N,+5V*
X125000000Y-92500000D03*
D14*
G04 #@! TO.P,CN1,2*
G04 #@! TO.N,SDA*
X127540000Y-92500000D03*
G04 #@! TO.P,CN1,3*
G04 #@! TO.N,SCL*
X130080000Y-92500000D03*
G04 #@! TO.P,CN1,4*
G04 #@! TO.N,Net-(CN1-Pad4)*
X132620000Y-92500000D03*
G04 #@! TO.P,CN1,5*
G04 #@! TO.N,GND*
X135160000Y-92500000D03*
G04 #@! TD*
D15*
G04 #@! TO.N,GND*
X145000000Y-145000000D03*
X135000000Y-145000000D03*
X125000000Y-145000000D03*
X115000000Y-145000000D03*
X145000000Y-135000000D03*
X135000000Y-135000000D03*
X125000000Y-135000000D03*
X115000000Y-135000000D03*
X125000000Y-125000000D03*
X115000000Y-125000000D03*
X145000000Y-125000000D03*
X135000000Y-125000000D03*
X145000000Y-115000000D03*
X115000000Y-115000000D03*
X125000000Y-115000000D03*
X135000000Y-115000000D03*
X155000000Y-125000000D03*
X155000000Y-115000000D03*
X155000000Y-105000000D03*
X145000000Y-105000000D03*
X145000000Y-95000000D03*
X155000000Y-95000000D03*
X165000000Y-105000000D03*
X115000000Y-105000000D03*
X105000000Y-105000000D03*
X105000000Y-115000000D03*
X105000000Y-125000000D03*
X95000000Y-105000000D03*
X105000000Y-95000000D03*
X115000000Y-95000000D03*
X115000000Y-85000000D03*
X105000000Y-85000000D03*
X115000000Y-65000000D03*
X125000000Y-65000000D03*
X135000000Y-65000000D03*
X145000000Y-65000000D03*
X155000000Y-85000000D03*
X125000000Y-95000000D03*
X135000000Y-95000000D03*
X125000000Y-75000000D03*
X115000000Y-75000000D03*
X145000000Y-85000000D03*
X135000000Y-75000000D03*
X145000000Y-75000000D03*
X125000000Y-85000000D03*
X135000000Y-85000000D03*
G04 #@! TO.N,Net-(D1-Pad1)*
X132000000Y-140000000D03*
X116000000Y-140000000D03*
X100600000Y-124050000D03*
X92750000Y-110450000D03*
X153200000Y-134740046D03*
X136000000Y-70000000D03*
X140000000Y-70000000D03*
X98706317Y-89250000D03*
X102759957Y-82200000D03*
X120000000Y-70000000D03*
X104607477Y-79000000D03*
X155392523Y-79000000D03*
X167400000Y-99800000D03*
X161200000Y-121000000D03*
X124000000Y-70000000D03*
G04 #@! TO.N,Net-(D1-Pad2)*
X94734787Y-96100000D03*
G04 #@! TO.N,Net-(D10-Pad2)*
X153100000Y-75100000D03*
G04 #@! TO.N,Net-(D11-Pad2)*
X144000000Y-70000000D03*
G04 #@! TO.N,Net-(D18-Pad2)*
X94803088Y-114000000D03*
G04 #@! TO.N,Net-(D19-Pad2)*
X104618043Y-131000000D03*
G04 #@! TO.N,Net-(D12-Pad2)*
X132000000Y-70000000D03*
G04 #@! TO.N,Net-(D13-Pad2)*
X128000000Y-70000000D03*
G04 #@! TO.N,Net-(D14-Pad2)*
X116000000Y-70000000D03*
G04 #@! TO.N,Net-(D15-Pad2)*
X106881179Y-75100000D03*
G04 #@! TO.N,Net-(D20-Pad2)*
X124000000Y-140000000D03*
G04 #@! TO.N,Net-(D21-Pad2)*
X140000000Y-140000000D03*
G04 #@! TO.N,Net-(D22-Pad2)*
X157268911Y-127750000D03*
G04 #@! TO.N,Net-(D23-Pad2)*
X163400000Y-117130643D03*
G04 #@! TO.N,Net-(D24-Pad2)*
X165207477Y-96000000D03*
G04 #@! TO.N,Net-(D16-Pad2)*
X100700000Y-85800000D03*
G04 #@! TO.N,Net-(D17-Pad1)*
X167400000Y-110200000D03*
X159329734Y-124200000D03*
X144200000Y-140000000D03*
X128000000Y-140000000D03*
X106800000Y-134700000D03*
X98800000Y-120900000D03*
X92700000Y-99700000D03*
X161300000Y-89250000D03*
G04 #@! TO.N,Net-(D9-Pad2)*
X159350000Y-85850000D03*
G04 #@! TD*
D16*
G04 #@! TO.N,Net-(D1-Pad1)*
X133200000Y-140000000D02*
X132000000Y-140000000D01*
X116000000Y-140000000D02*
X117200000Y-140000000D01*
X101312500Y-125274631D02*
X100600000Y-124050000D01*
X93337500Y-111461526D02*
X92750000Y-110450000D01*
X153900000Y-133585125D02*
X153200000Y-134740046D01*
X125200000Y-70000000D02*
X124000000Y-70000000D01*
X136000000Y-70000000D02*
X134800000Y-70000000D01*
X140000000Y-70000000D02*
X136000000Y-70000000D01*
X141200000Y-70000000D02*
X140000000Y-70000000D01*
X98100000Y-90271282D02*
X98706317Y-89250000D01*
X102100000Y-83343078D02*
X102759957Y-82200000D01*
X120000000Y-70000000D02*
X118800000Y-70000000D01*
X124000000Y-70000000D02*
X120000000Y-70000000D01*
X104607477Y-79000000D02*
X105300000Y-77800515D01*
X102759957Y-82200000D02*
X104607477Y-79000000D01*
X155392523Y-79000000D02*
X157900000Y-83343078D01*
X154700000Y-77800515D02*
X155392523Y-79000000D01*
X166700000Y-98585125D02*
X167400000Y-99800000D01*
X161900000Y-119728718D02*
X161200000Y-121000000D01*
G04 #@! TO.N,Net-(D1-Pad2)*
X94734787Y-96100000D02*
X97300000Y-91656922D01*
X94100000Y-97199485D02*
X94734787Y-96100000D01*
G04 #@! TO.N,Net-(D10-Pad2)*
X153900000Y-76414875D02*
X153100000Y-75100000D01*
G04 #@! TO.N,Net-(D11-Pad2)*
X142800000Y-70000000D02*
X144000000Y-70000000D01*
G04 #@! TO.N,Net-(D18-Pad2)*
X94803088Y-114000000D02*
X94137500Y-112847166D01*
X97312500Y-118346428D02*
X94803088Y-114000000D01*
G04 #@! TO.N,Net-(D19-Pad2)*
X104618043Y-131000000D02*
X102112500Y-126660271D01*
X105312500Y-132202834D02*
X104618043Y-131000000D01*
G04 #@! TO.N,Net-(D12-Pad2)*
X133200000Y-70000000D02*
X132000000Y-70000000D01*
G04 #@! TO.N,Net-(D13-Pad2)*
X126800000Y-70000000D02*
X128000000Y-70000000D01*
G04 #@! TO.N,Net-(D14-Pad2)*
X117200000Y-70000000D02*
X116000000Y-70000000D01*
G04 #@! TO.N,Net-(D15-Pad2)*
X106100000Y-76414875D02*
X106881179Y-75100000D01*
G04 #@! TO.N,Net-(D20-Pad2)*
X124000000Y-140000000D02*
X125200000Y-140000000D01*
X118800000Y-140000000D02*
X124000000Y-140000000D01*
G04 #@! TO.N,Net-(D21-Pad2)*
X141200000Y-140000000D02*
X140000000Y-140000000D01*
X140000000Y-140000000D02*
X134800000Y-140000000D01*
G04 #@! TO.N,Net-(D22-Pad2)*
X157900000Y-126656922D02*
X157268911Y-127750000D01*
X157268911Y-127750000D02*
X154700000Y-132199485D01*
G04 #@! TO.N,Net-(D23-Pad2)*
X163400000Y-117130643D02*
X162700000Y-118343078D01*
X165900000Y-112800515D02*
X163400000Y-117130643D01*
G04 #@! TO.N,Net-(D24-Pad2)*
X165207477Y-96000000D02*
X165900000Y-97199485D01*
X162700000Y-91656922D02*
X165207477Y-96000000D01*
G04 #@! TO.N,Net-(D16-Pad2)*
X101300000Y-84728718D02*
X100700000Y-85800000D01*
G04 #@! TO.N,Net-(D17-Pad1)*
X166700000Y-111414875D02*
X167400000Y-110200000D01*
X158700000Y-125271282D02*
X159329734Y-124200000D01*
X142800000Y-140000000D02*
X144200000Y-140000000D01*
X126800000Y-140000000D02*
X128000000Y-140000000D01*
X106112500Y-133588474D02*
X106800000Y-134700000D01*
X98112500Y-119732068D02*
X98800000Y-120900000D01*
X93300000Y-98585125D02*
X92700000Y-99700000D01*
X161900000Y-90271282D02*
X161300000Y-89250000D01*
G04 #@! TO.N,Net-(D9-Pad2)*
X158700000Y-84728718D02*
X159350000Y-85850000D01*
G04 #@! TD*
D17*
G04 #@! TO.N,GND*
G36*
X179180163Y-105000000D02*
X154590082Y-147591270D01*
X105409919Y-147591270D01*
X102502476Y-142555431D01*
X105765000Y-142555431D01*
X105765000Y-143444569D01*
X106105259Y-144266026D01*
X106733974Y-144894741D01*
X107555431Y-145235000D01*
X108444569Y-145235000D01*
X109266026Y-144894741D01*
X109894741Y-144266026D01*
X110235000Y-143444569D01*
X110235000Y-142555431D01*
X149765000Y-142555431D01*
X149765000Y-143444569D01*
X150105259Y-144266026D01*
X150733974Y-144894741D01*
X151555431Y-145235000D01*
X152444569Y-145235000D01*
X153266026Y-144894741D01*
X153894741Y-144266026D01*
X154235000Y-143444569D01*
X154235000Y-142555431D01*
X153894741Y-141733974D01*
X153266026Y-141105259D01*
X152444569Y-140765000D01*
X151555431Y-140765000D01*
X150733974Y-141105259D01*
X150105259Y-141733974D01*
X149765000Y-142555431D01*
X110235000Y-142555431D01*
X109894741Y-141733974D01*
X109266026Y-141105259D01*
X108444569Y-140765000D01*
X107555431Y-140765000D01*
X106733974Y-141105259D01*
X106105259Y-141733974D01*
X105765000Y-142555431D01*
X102502476Y-142555431D01*
X100908236Y-139794126D01*
X114965000Y-139794126D01*
X114965000Y-140205874D01*
X115122569Y-140586280D01*
X115413720Y-140877431D01*
X115794126Y-141035000D01*
X116205874Y-141035000D01*
X116453728Y-140932336D01*
X116552235Y-140998157D01*
X116800000Y-141047440D01*
X117600000Y-141047440D01*
X117847765Y-140998157D01*
X118000000Y-140896436D01*
X118152235Y-140998157D01*
X118400000Y-141047440D01*
X119200000Y-141047440D01*
X119447765Y-140998157D01*
X119657809Y-140857809D01*
X119723163Y-140760000D01*
X123296289Y-140760000D01*
X123413720Y-140877431D01*
X123794126Y-141035000D01*
X124205874Y-141035000D01*
X124453728Y-140932336D01*
X124552235Y-140998157D01*
X124800000Y-141047440D01*
X125600000Y-141047440D01*
X125847765Y-140998157D01*
X126000000Y-140896436D01*
X126152235Y-140998157D01*
X126400000Y-141047440D01*
X127200000Y-141047440D01*
X127447765Y-140998157D01*
X127546272Y-140932336D01*
X127794126Y-141035000D01*
X128205874Y-141035000D01*
X128586280Y-140877431D01*
X128877431Y-140586280D01*
X129035000Y-140205874D01*
X129035000Y-139794126D01*
X130965000Y-139794126D01*
X130965000Y-140205874D01*
X131122569Y-140586280D01*
X131413720Y-140877431D01*
X131794126Y-141035000D01*
X132205874Y-141035000D01*
X132453728Y-140932336D01*
X132552235Y-140998157D01*
X132800000Y-141047440D01*
X133600000Y-141047440D01*
X133847765Y-140998157D01*
X134000000Y-140896436D01*
X134152235Y-140998157D01*
X134400000Y-141047440D01*
X135200000Y-141047440D01*
X135447765Y-140998157D01*
X135657809Y-140857809D01*
X135723163Y-140760000D01*
X139296289Y-140760000D01*
X139413720Y-140877431D01*
X139794126Y-141035000D01*
X140205874Y-141035000D01*
X140453728Y-140932336D01*
X140552235Y-140998157D01*
X140800000Y-141047440D01*
X141600000Y-141047440D01*
X141847765Y-140998157D01*
X142000000Y-140896436D01*
X142152235Y-140998157D01*
X142400000Y-141047440D01*
X143200000Y-141047440D01*
X143447765Y-140998157D01*
X143622809Y-140881196D01*
X143994126Y-141035000D01*
X144405874Y-141035000D01*
X144786280Y-140877431D01*
X145077431Y-140586280D01*
X145235000Y-140205874D01*
X145235000Y-139794126D01*
X145077431Y-139413720D01*
X144786280Y-139122569D01*
X144405874Y-138965000D01*
X143994126Y-138965000D01*
X143622809Y-139118804D01*
X143447765Y-139001843D01*
X143200000Y-138952560D01*
X142400000Y-138952560D01*
X142152235Y-139001843D01*
X142000000Y-139103564D01*
X141847765Y-139001843D01*
X141600000Y-138952560D01*
X140800000Y-138952560D01*
X140552235Y-139001843D01*
X140453728Y-139067664D01*
X140205874Y-138965000D01*
X139794126Y-138965000D01*
X139413720Y-139122569D01*
X139296289Y-139240000D01*
X135723163Y-139240000D01*
X135657809Y-139142191D01*
X135447765Y-139001843D01*
X135200000Y-138952560D01*
X134400000Y-138952560D01*
X134152235Y-139001843D01*
X134000000Y-139103564D01*
X133847765Y-139001843D01*
X133600000Y-138952560D01*
X132800000Y-138952560D01*
X132552235Y-139001843D01*
X132453728Y-139067664D01*
X132205874Y-138965000D01*
X131794126Y-138965000D01*
X131413720Y-139122569D01*
X131122569Y-139413720D01*
X130965000Y-139794126D01*
X129035000Y-139794126D01*
X128877431Y-139413720D01*
X128586280Y-139122569D01*
X128205874Y-138965000D01*
X127794126Y-138965000D01*
X127546272Y-139067664D01*
X127447765Y-139001843D01*
X127200000Y-138952560D01*
X126400000Y-138952560D01*
X126152235Y-139001843D01*
X126000000Y-139103564D01*
X125847765Y-139001843D01*
X125600000Y-138952560D01*
X124800000Y-138952560D01*
X124552235Y-139001843D01*
X124453728Y-139067664D01*
X124205874Y-138965000D01*
X123794126Y-138965000D01*
X123413720Y-139122569D01*
X123296289Y-139240000D01*
X119723163Y-139240000D01*
X119657809Y-139142191D01*
X119447765Y-139001843D01*
X119200000Y-138952560D01*
X118400000Y-138952560D01*
X118152235Y-139001843D01*
X118000000Y-139103564D01*
X117847765Y-139001843D01*
X117600000Y-138952560D01*
X116800000Y-138952560D01*
X116552235Y-139001843D01*
X116453728Y-139067664D01*
X116205874Y-138965000D01*
X115794126Y-138965000D01*
X115413720Y-139122569D01*
X115122569Y-139413720D01*
X114965000Y-139794126D01*
X100908236Y-139794126D01*
X91699499Y-123844126D01*
X99565000Y-123844126D01*
X99565000Y-124255874D01*
X99722569Y-124636280D01*
X100013720Y-124927431D01*
X100139474Y-124979520D01*
X100124189Y-125212729D01*
X100205391Y-125451941D01*
X100605391Y-126144761D01*
X100771954Y-126334690D01*
X100936164Y-126415669D01*
X100924189Y-126598369D01*
X101005391Y-126837581D01*
X101405391Y-127530401D01*
X101571954Y-127720330D01*
X101798520Y-127832060D01*
X101915902Y-127839754D01*
X103599154Y-130755232D01*
X103583043Y-130794126D01*
X103583043Y-131205874D01*
X103740612Y-131586280D01*
X104031763Y-131877431D01*
X104138560Y-131921668D01*
X104124189Y-132140932D01*
X104205391Y-132380144D01*
X104605391Y-133072964D01*
X104771954Y-133262893D01*
X104936164Y-133343872D01*
X104924189Y-133526572D01*
X105005391Y-133765784D01*
X105405391Y-134458604D01*
X105571954Y-134648533D01*
X105765000Y-134743733D01*
X105765000Y-134905874D01*
X105922569Y-135286280D01*
X106213720Y-135577431D01*
X106594126Y-135735000D01*
X107005874Y-135735000D01*
X107386280Y-135577431D01*
X107677431Y-135286280D01*
X107835000Y-134905874D01*
X107835000Y-134534172D01*
X152165000Y-134534172D01*
X152165000Y-134945920D01*
X152322569Y-135326326D01*
X152613720Y-135617477D01*
X152994126Y-135775046D01*
X153405874Y-135775046D01*
X153786280Y-135617477D01*
X154077431Y-135326326D01*
X154235000Y-134945920D01*
X154235000Y-134746548D01*
X154440546Y-134645184D01*
X154607109Y-134455255D01*
X155007109Y-133762435D01*
X155088311Y-133523223D01*
X155076336Y-133340523D01*
X155240546Y-133259544D01*
X155407109Y-133069615D01*
X155807109Y-132376795D01*
X155888311Y-132137583D01*
X155871789Y-131885505D01*
X155819760Y-131780002D01*
X157572229Y-128744638D01*
X157855191Y-128627431D01*
X158146342Y-128336280D01*
X158303911Y-127955874D01*
X158303911Y-127784362D01*
X158440546Y-127716981D01*
X158607109Y-127527052D01*
X159007109Y-126834232D01*
X159088311Y-126595020D01*
X159076336Y-126412320D01*
X159240546Y-126331341D01*
X159407109Y-126141412D01*
X159807109Y-125448592D01*
X159888311Y-125209380D01*
X159880623Y-125092090D01*
X159916014Y-125077431D01*
X160207165Y-124786280D01*
X160364734Y-124405874D01*
X160364734Y-123994126D01*
X160207165Y-123613720D01*
X159916014Y-123322569D01*
X159535608Y-123165000D01*
X159123860Y-123165000D01*
X158743454Y-123322569D01*
X158452303Y-123613720D01*
X158294734Y-123994126D01*
X158294734Y-124144510D01*
X158159454Y-124211223D01*
X157992891Y-124401152D01*
X157592891Y-125093972D01*
X157511689Y-125333184D01*
X157523664Y-125515884D01*
X157359454Y-125596863D01*
X157192891Y-125786792D01*
X156792891Y-126479612D01*
X156711689Y-126718824D01*
X156720732Y-126856787D01*
X156682631Y-126872569D01*
X156391480Y-127163720D01*
X156233911Y-127544126D01*
X156233911Y-127955874D01*
X156250021Y-127994768D01*
X154503402Y-131020002D01*
X154386020Y-131027696D01*
X154159454Y-131139426D01*
X153992891Y-131329355D01*
X153592891Y-132022175D01*
X153511689Y-132261387D01*
X153523664Y-132444087D01*
X153359454Y-132525066D01*
X153192891Y-132714995D01*
X152792891Y-133407815D01*
X152711689Y-133647027D01*
X152722856Y-133817409D01*
X152613720Y-133862615D01*
X152322569Y-134153766D01*
X152165000Y-134534172D01*
X107835000Y-134534172D01*
X107835000Y-134494126D01*
X107677431Y-134113720D01*
X107386280Y-133822569D01*
X107292082Y-133783551D01*
X107300811Y-133650376D01*
X107219609Y-133411164D01*
X106819609Y-132718344D01*
X106653046Y-132528415D01*
X106488836Y-132447436D01*
X106500811Y-132264736D01*
X106419609Y-132025524D01*
X106019609Y-131332704D01*
X105853046Y-131142775D01*
X105653043Y-131044144D01*
X105653043Y-130794126D01*
X105495474Y-130413720D01*
X105204323Y-130122569D01*
X104921361Y-130005363D01*
X103232261Y-127079754D01*
X103284289Y-126974251D01*
X103300811Y-126722173D01*
X103219609Y-126482961D01*
X102819609Y-125790141D01*
X102653046Y-125600212D01*
X102488836Y-125519233D01*
X102500811Y-125336533D01*
X102419609Y-125097321D01*
X102019609Y-124404501D01*
X101853046Y-124214572D01*
X101635000Y-124107044D01*
X101635000Y-123844126D01*
X101477431Y-123463720D01*
X101186280Y-123172569D01*
X100805874Y-123015000D01*
X100394126Y-123015000D01*
X100013720Y-123172569D01*
X99722569Y-123463720D01*
X99565000Y-123844126D01*
X91699499Y-123844126D01*
X83847535Y-110244126D01*
X91715000Y-110244126D01*
X91715000Y-110655874D01*
X91872569Y-111036280D01*
X92154524Y-111318235D01*
X92149189Y-111399624D01*
X92230391Y-111638836D01*
X92630391Y-112331656D01*
X92796954Y-112521585D01*
X92961164Y-112602564D01*
X92949189Y-112785264D01*
X93030391Y-113024476D01*
X93430391Y-113717296D01*
X93596954Y-113907225D01*
X93768088Y-113991619D01*
X93768088Y-114205874D01*
X93925657Y-114586280D01*
X94216808Y-114877431D01*
X94499770Y-114994638D01*
X96192739Y-117926946D01*
X96140711Y-118032448D01*
X96124189Y-118284526D01*
X96205391Y-118523738D01*
X96605391Y-119216558D01*
X96771954Y-119406487D01*
X96936164Y-119487466D01*
X96924189Y-119670166D01*
X97005391Y-119909378D01*
X97405391Y-120602198D01*
X97571954Y-120792127D01*
X97765000Y-120887327D01*
X97765000Y-121105874D01*
X97922569Y-121486280D01*
X98213720Y-121777431D01*
X98594126Y-121935000D01*
X99005874Y-121935000D01*
X99386280Y-121777431D01*
X99677431Y-121486280D01*
X99835000Y-121105874D01*
X99835000Y-120794126D01*
X160165000Y-120794126D01*
X160165000Y-121205874D01*
X160322569Y-121586280D01*
X160613720Y-121877431D01*
X160994126Y-122035000D01*
X161405874Y-122035000D01*
X161786280Y-121877431D01*
X162077431Y-121586280D01*
X162235000Y-121205874D01*
X162235000Y-120890141D01*
X162440546Y-120788777D01*
X162607109Y-120598848D01*
X163007109Y-119906028D01*
X163088311Y-119666816D01*
X163076336Y-119484116D01*
X163240546Y-119403137D01*
X163407109Y-119213208D01*
X163807109Y-118520388D01*
X163888311Y-118281176D01*
X163873474Y-118054800D01*
X163986280Y-118008074D01*
X164277431Y-117716923D01*
X164435000Y-117336517D01*
X164435000Y-116924769D01*
X164418889Y-116885874D01*
X166096598Y-113979998D01*
X166213980Y-113972304D01*
X166440546Y-113860574D01*
X166607109Y-113670645D01*
X167007109Y-112977825D01*
X167088311Y-112738613D01*
X167076336Y-112555913D01*
X167240546Y-112474934D01*
X167407109Y-112285005D01*
X167807109Y-111592185D01*
X167888311Y-111352973D01*
X167873318Y-111124221D01*
X167986280Y-111077431D01*
X168277431Y-110786280D01*
X168435000Y-110405874D01*
X168435000Y-109994126D01*
X168277431Y-109613720D01*
X167986280Y-109322569D01*
X167605874Y-109165000D01*
X167194126Y-109165000D01*
X166813720Y-109322569D01*
X166522569Y-109613720D01*
X166365000Y-109994126D01*
X166365000Y-110253452D01*
X166159454Y-110354816D01*
X165992891Y-110544745D01*
X165592891Y-111237565D01*
X165511689Y-111476777D01*
X165523664Y-111659477D01*
X165359454Y-111740456D01*
X165192891Y-111930385D01*
X164792891Y-112623205D01*
X164711689Y-112862417D01*
X164728211Y-113114495D01*
X164780239Y-113219998D01*
X163096682Y-116136006D01*
X162813720Y-116253212D01*
X162522569Y-116544363D01*
X162365000Y-116924769D01*
X162365000Y-117181655D01*
X162159454Y-117283019D01*
X161992891Y-117472948D01*
X161592891Y-118165768D01*
X161511689Y-118404980D01*
X161523664Y-118587680D01*
X161359454Y-118668659D01*
X161192891Y-118858588D01*
X160792891Y-119551408D01*
X160711689Y-119790620D01*
X160728211Y-120042698D01*
X160741498Y-120069642D01*
X160613720Y-120122569D01*
X160322569Y-120413720D01*
X160165000Y-120794126D01*
X99835000Y-120794126D01*
X99835000Y-120694126D01*
X99677431Y-120313720D01*
X99386280Y-120022569D01*
X99288483Y-119982060D01*
X99300811Y-119793970D01*
X99219609Y-119554758D01*
X98819609Y-118861938D01*
X98653046Y-118672009D01*
X98488836Y-118591030D01*
X98500811Y-118408330D01*
X98419609Y-118169118D01*
X98019609Y-117476298D01*
X97853046Y-117286369D01*
X97626480Y-117174639D01*
X97509098Y-117166945D01*
X95821977Y-114244769D01*
X95838088Y-114205874D01*
X95838088Y-113794126D01*
X95680519Y-113413720D01*
X95389368Y-113122569D01*
X95313867Y-113091296D01*
X95325811Y-112909068D01*
X95244609Y-112669856D01*
X94844609Y-111977036D01*
X94678046Y-111787107D01*
X94513836Y-111706128D01*
X94525811Y-111523428D01*
X94444609Y-111284216D01*
X94044609Y-110591396D01*
X93878046Y-110401467D01*
X93785000Y-110355582D01*
X93785000Y-110244126D01*
X93627431Y-109863720D01*
X93336280Y-109572569D01*
X92955874Y-109415000D01*
X92544126Y-109415000D01*
X92163720Y-109572569D01*
X91872569Y-109863720D01*
X91715000Y-110244126D01*
X83847535Y-110244126D01*
X80819837Y-105000000D01*
X81076509Y-104555431D01*
X83765000Y-104555431D01*
X83765000Y-105444569D01*
X84105259Y-106266026D01*
X84733974Y-106894741D01*
X85555431Y-107235000D01*
X86444569Y-107235000D01*
X87266026Y-106894741D01*
X87894741Y-106266026D01*
X88235000Y-105444569D01*
X88235000Y-104555431D01*
X88004933Y-104000000D01*
X121276091Y-104000000D01*
X121290000Y-104069926D01*
X121290001Y-105930070D01*
X121276091Y-106000000D01*
X121331195Y-106277028D01*
X121488119Y-106511881D01*
X121722972Y-106668805D01*
X121930074Y-106710000D01*
X121930075Y-106710000D01*
X122000000Y-106723909D01*
X122069926Y-106710000D01*
X137930074Y-106710000D01*
X138000000Y-106723909D01*
X138069925Y-106710000D01*
X138069926Y-106710000D01*
X138277028Y-106668805D01*
X138511881Y-106511881D01*
X138668805Y-106277028D01*
X138723909Y-106000000D01*
X138710000Y-105930074D01*
X138710000Y-104555431D01*
X171765000Y-104555431D01*
X171765000Y-105444569D01*
X172105259Y-106266026D01*
X172733974Y-106894741D01*
X173555431Y-107235000D01*
X174444569Y-107235000D01*
X175266026Y-106894741D01*
X175894741Y-106266026D01*
X176235000Y-105444569D01*
X176235000Y-104555431D01*
X175894741Y-103733974D01*
X175266026Y-103105259D01*
X174444569Y-102765000D01*
X173555431Y-102765000D01*
X172733974Y-103105259D01*
X172105259Y-103733974D01*
X171765000Y-104555431D01*
X138710000Y-104555431D01*
X138710000Y-104069926D01*
X138723909Y-104000000D01*
X138668805Y-103722972D01*
X138511881Y-103488119D01*
X138277028Y-103331195D01*
X138069926Y-103290000D01*
X138000000Y-103276091D01*
X137930075Y-103290000D01*
X122069925Y-103290000D01*
X122000000Y-103276091D01*
X121930074Y-103290000D01*
X121722972Y-103331195D01*
X121488119Y-103488119D01*
X121331195Y-103722972D01*
X121276091Y-104000000D01*
X88004933Y-104000000D01*
X87894741Y-103733974D01*
X87266026Y-103105259D01*
X86444569Y-102765000D01*
X85555431Y-102765000D01*
X84733974Y-103105259D01*
X84105259Y-103733974D01*
X83765000Y-104555431D01*
X81076509Y-104555431D01*
X83998654Y-99494126D01*
X91665000Y-99494126D01*
X91665000Y-99905874D01*
X91822569Y-100286280D01*
X92113720Y-100577431D01*
X92494126Y-100735000D01*
X92905874Y-100735000D01*
X93286280Y-100577431D01*
X93577431Y-100286280D01*
X93735000Y-99905874D01*
X93735000Y-99697234D01*
X93840546Y-99645184D01*
X94007109Y-99455255D01*
X94407109Y-98762435D01*
X94488311Y-98523223D01*
X94476336Y-98340523D01*
X94640546Y-98259544D01*
X94807109Y-98069615D01*
X95207109Y-97376795D01*
X95288311Y-97137583D01*
X95278957Y-96994873D01*
X95321067Y-96977431D01*
X95612218Y-96686280D01*
X95769787Y-96305874D01*
X95769787Y-95894126D01*
X95753676Y-95855231D01*
X97496598Y-92836405D01*
X97613980Y-92828711D01*
X97840546Y-92716981D01*
X98007109Y-92527052D01*
X98407109Y-91834232D01*
X98469647Y-91650000D01*
X123502560Y-91650000D01*
X123502560Y-93350000D01*
X123551843Y-93597765D01*
X123692191Y-93807809D01*
X123902235Y-93948157D01*
X124150000Y-93997440D01*
X125850000Y-93997440D01*
X126097765Y-93948157D01*
X126307809Y-93807809D01*
X126448157Y-93597765D01*
X126457184Y-93552381D01*
X126469375Y-93570625D01*
X126960582Y-93898839D01*
X127393744Y-93985000D01*
X127686256Y-93985000D01*
X128119418Y-93898839D01*
X128610625Y-93570625D01*
X128810000Y-93272239D01*
X129009375Y-93570625D01*
X129500582Y-93898839D01*
X129933744Y-93985000D01*
X130226256Y-93985000D01*
X130659418Y-93898839D01*
X131150625Y-93570625D01*
X131350000Y-93272239D01*
X131549375Y-93570625D01*
X132040582Y-93898839D01*
X132473744Y-93985000D01*
X132766256Y-93985000D01*
X133199418Y-93898839D01*
X133690625Y-93570625D01*
X133903843Y-93251522D01*
X133964817Y-93381358D01*
X134393076Y-93771645D01*
X134803110Y-93941476D01*
X135033000Y-93820155D01*
X135033000Y-92627000D01*
X135287000Y-92627000D01*
X135287000Y-93820155D01*
X135516890Y-93941476D01*
X135926924Y-93771645D01*
X136355183Y-93381358D01*
X136601486Y-92856892D01*
X136480819Y-92627000D01*
X135287000Y-92627000D01*
X135033000Y-92627000D01*
X135013000Y-92627000D01*
X135013000Y-92373000D01*
X135033000Y-92373000D01*
X135033000Y-91179845D01*
X135287000Y-91179845D01*
X135287000Y-92373000D01*
X136480819Y-92373000D01*
X136601486Y-92143108D01*
X136355183Y-91618642D01*
X135926924Y-91228355D01*
X135516890Y-91058524D01*
X135287000Y-91179845D01*
X135033000Y-91179845D01*
X134803110Y-91058524D01*
X134393076Y-91228355D01*
X133964817Y-91618642D01*
X133903843Y-91748478D01*
X133690625Y-91429375D01*
X133199418Y-91101161D01*
X132766256Y-91015000D01*
X132473744Y-91015000D01*
X132040582Y-91101161D01*
X131549375Y-91429375D01*
X131350000Y-91727761D01*
X131150625Y-91429375D01*
X130659418Y-91101161D01*
X130226256Y-91015000D01*
X129933744Y-91015000D01*
X129500582Y-91101161D01*
X129009375Y-91429375D01*
X128810000Y-91727761D01*
X128610625Y-91429375D01*
X128119418Y-91101161D01*
X127686256Y-91015000D01*
X127393744Y-91015000D01*
X126960582Y-91101161D01*
X126469375Y-91429375D01*
X126457184Y-91447619D01*
X126448157Y-91402235D01*
X126307809Y-91192191D01*
X126097765Y-91051843D01*
X125850000Y-91002560D01*
X124150000Y-91002560D01*
X123902235Y-91051843D01*
X123692191Y-91192191D01*
X123551843Y-91402235D01*
X123502560Y-91650000D01*
X98469647Y-91650000D01*
X98488311Y-91595020D01*
X98476336Y-91412320D01*
X98640546Y-91331341D01*
X98807109Y-91141412D01*
X99207109Y-90448592D01*
X99288311Y-90209380D01*
X99283195Y-90131325D01*
X99292597Y-90127431D01*
X99583748Y-89836280D01*
X99741317Y-89455874D01*
X99741317Y-89044126D01*
X160265000Y-89044126D01*
X160265000Y-89455874D01*
X160422569Y-89836280D01*
X160713720Y-90127431D01*
X160716972Y-90128778D01*
X160711689Y-90209380D01*
X160792891Y-90448592D01*
X161192891Y-91141412D01*
X161359454Y-91331341D01*
X161523664Y-91412320D01*
X161511689Y-91595020D01*
X161592891Y-91834232D01*
X161992891Y-92527052D01*
X162159454Y-92716981D01*
X162386020Y-92828711D01*
X162503402Y-92836405D01*
X164188587Y-95755232D01*
X164172477Y-95794126D01*
X164172477Y-96205874D01*
X164330046Y-96586280D01*
X164621197Y-96877431D01*
X164725898Y-96920799D01*
X164711689Y-97137583D01*
X164792891Y-97376795D01*
X165192891Y-98069615D01*
X165359454Y-98259544D01*
X165523664Y-98340523D01*
X165511689Y-98523223D01*
X165592891Y-98762435D01*
X165992891Y-99455255D01*
X166159454Y-99645184D01*
X166365000Y-99746548D01*
X166365000Y-100005874D01*
X166522569Y-100386280D01*
X166813720Y-100677431D01*
X167194126Y-100835000D01*
X167605874Y-100835000D01*
X167986280Y-100677431D01*
X168277431Y-100386280D01*
X168435000Y-100005874D01*
X168435000Y-99594126D01*
X168277431Y-99213720D01*
X167986280Y-98922569D01*
X167873318Y-98875779D01*
X167888311Y-98647027D01*
X167807109Y-98407815D01*
X167407109Y-97714995D01*
X167240546Y-97525066D01*
X167076336Y-97444087D01*
X167088311Y-97261387D01*
X167007109Y-97022175D01*
X166607109Y-96329355D01*
X166440546Y-96139426D01*
X166242477Y-96041749D01*
X166242477Y-95794126D01*
X166084908Y-95413720D01*
X165793757Y-95122569D01*
X165510795Y-95005363D01*
X163819761Y-92076405D01*
X163871789Y-91970902D01*
X163888311Y-91718824D01*
X163807109Y-91479612D01*
X163407109Y-90786792D01*
X163240546Y-90596863D01*
X163076336Y-90515884D01*
X163088311Y-90333184D01*
X163007109Y-90093972D01*
X162607109Y-89401152D01*
X162440546Y-89211223D01*
X162335000Y-89159173D01*
X162335000Y-89044126D01*
X162177431Y-88663720D01*
X161886280Y-88372569D01*
X161505874Y-88215000D01*
X161094126Y-88215000D01*
X160713720Y-88372569D01*
X160422569Y-88663720D01*
X160265000Y-89044126D01*
X99741317Y-89044126D01*
X99583748Y-88663720D01*
X99292597Y-88372569D01*
X98912191Y-88215000D01*
X98500443Y-88215000D01*
X98120037Y-88372569D01*
X97828886Y-88663720D01*
X97671317Y-89044126D01*
X97671317Y-89156058D01*
X97559454Y-89211223D01*
X97392891Y-89401152D01*
X96992891Y-90093972D01*
X96911689Y-90333184D01*
X96923664Y-90515884D01*
X96759454Y-90596863D01*
X96592891Y-90786792D01*
X96192891Y-91479612D01*
X96111689Y-91718824D01*
X96128211Y-91970902D01*
X96180239Y-92076404D01*
X94431469Y-95105362D01*
X94148507Y-95222569D01*
X93857356Y-95513720D01*
X93699787Y-95894126D01*
X93699787Y-96070221D01*
X93559454Y-96139426D01*
X93392891Y-96329355D01*
X92992891Y-97022175D01*
X92911689Y-97261387D01*
X92923664Y-97444087D01*
X92759454Y-97525066D01*
X92592891Y-97714995D01*
X92192891Y-98407815D01*
X92111689Y-98647027D01*
X92122944Y-98818748D01*
X92113720Y-98822569D01*
X91822569Y-99113720D01*
X91665000Y-99494126D01*
X83998654Y-99494126D01*
X92023823Y-85594126D01*
X99665000Y-85594126D01*
X99665000Y-86005874D01*
X99822569Y-86386280D01*
X100113720Y-86677431D01*
X100494126Y-86835000D01*
X100905874Y-86835000D01*
X101286280Y-86677431D01*
X101577431Y-86386280D01*
X101735000Y-86005874D01*
X101735000Y-85840827D01*
X101840546Y-85788777D01*
X102007109Y-85598848D01*
X102407109Y-84906028D01*
X102488311Y-84666816D01*
X102476336Y-84484116D01*
X102640546Y-84403137D01*
X102807109Y-84213208D01*
X103207109Y-83520388D01*
X103288311Y-83281176D01*
X103276841Y-83106176D01*
X103346237Y-83077431D01*
X103637388Y-82786280D01*
X103794957Y-82405874D01*
X103794957Y-81994126D01*
X103778846Y-81955231D01*
X104910795Y-79994637D01*
X105193757Y-79877431D01*
X105484908Y-79586280D01*
X105642477Y-79205874D01*
X105642477Y-78958251D01*
X105840546Y-78860574D01*
X106007109Y-78670645D01*
X106407109Y-77977825D01*
X106488311Y-77738613D01*
X106476336Y-77555913D01*
X106640546Y-77474934D01*
X106807109Y-77285005D01*
X107207109Y-76592185D01*
X107288311Y-76352973D01*
X107271789Y-76100895D01*
X107254420Y-76065674D01*
X107467459Y-75977431D01*
X107758610Y-75686280D01*
X107916179Y-75305874D01*
X107916179Y-74894126D01*
X152065000Y-74894126D01*
X152065000Y-75305874D01*
X152222569Y-75686280D01*
X152513720Y-75977431D01*
X152742387Y-76072148D01*
X152728211Y-76100895D01*
X152711689Y-76352973D01*
X152792891Y-76592185D01*
X153192891Y-77285005D01*
X153359454Y-77474934D01*
X153523664Y-77555913D01*
X153511689Y-77738613D01*
X153592891Y-77977825D01*
X153992891Y-78670645D01*
X154159454Y-78860574D01*
X154357523Y-78958251D01*
X154357523Y-79205874D01*
X154515092Y-79586280D01*
X154806243Y-79877431D01*
X155089205Y-79994638D01*
X156780239Y-82923595D01*
X156728211Y-83029098D01*
X156711689Y-83281176D01*
X156792891Y-83520388D01*
X157192891Y-84213208D01*
X157359454Y-84403137D01*
X157523664Y-84484116D01*
X157511689Y-84666816D01*
X157592891Y-84906028D01*
X157992891Y-85598848D01*
X158159454Y-85788777D01*
X158315000Y-85865484D01*
X158315000Y-86055874D01*
X158472569Y-86436280D01*
X158763720Y-86727431D01*
X159144126Y-86885000D01*
X159555874Y-86885000D01*
X159936280Y-86727431D01*
X160227431Y-86436280D01*
X160385000Y-86055874D01*
X160385000Y-85644126D01*
X160227431Y-85263720D01*
X159936280Y-84972569D01*
X159877969Y-84948416D01*
X159888311Y-84790620D01*
X159807109Y-84551408D01*
X159407109Y-83858588D01*
X159240546Y-83668659D01*
X159076336Y-83587680D01*
X159088311Y-83404980D01*
X159007109Y-83165768D01*
X158607109Y-82472948D01*
X158440546Y-82283019D01*
X158213980Y-82171289D01*
X158096598Y-82163595D01*
X156411412Y-79244769D01*
X156427523Y-79205874D01*
X156427523Y-78794126D01*
X156269954Y-78413720D01*
X155978803Y-78122569D01*
X155874102Y-78079201D01*
X155888311Y-77862417D01*
X155807109Y-77623205D01*
X155407109Y-76930385D01*
X155240546Y-76740456D01*
X155076336Y-76659477D01*
X155088311Y-76476777D01*
X155007109Y-76237565D01*
X154607109Y-75544745D01*
X154440546Y-75354816D01*
X154213980Y-75243086D01*
X154135000Y-75237909D01*
X154135000Y-74894126D01*
X153977431Y-74513720D01*
X153686280Y-74222569D01*
X153305874Y-74065000D01*
X152894126Y-74065000D01*
X152513720Y-74222569D01*
X152222569Y-74513720D01*
X152065000Y-74894126D01*
X107916179Y-74894126D01*
X107758610Y-74513720D01*
X107467459Y-74222569D01*
X107087053Y-74065000D01*
X106675305Y-74065000D01*
X106294899Y-74222569D01*
X106003748Y-74513720D01*
X105846179Y-74894126D01*
X105846179Y-75239143D01*
X105786020Y-75243086D01*
X105559454Y-75354816D01*
X105392891Y-75544745D01*
X104992891Y-76237565D01*
X104911689Y-76476777D01*
X104923664Y-76659477D01*
X104759454Y-76740456D01*
X104592891Y-76930385D01*
X104192891Y-77623205D01*
X104111689Y-77862417D01*
X104125898Y-78079201D01*
X104021197Y-78122569D01*
X103730046Y-78413720D01*
X103572477Y-78794126D01*
X103572477Y-79205874D01*
X103588588Y-79244768D01*
X102456639Y-81205363D01*
X102173677Y-81322569D01*
X101882526Y-81613720D01*
X101724957Y-81994126D01*
X101724957Y-82201402D01*
X101559454Y-82283019D01*
X101392891Y-82472948D01*
X100992891Y-83165768D01*
X100911689Y-83404980D01*
X100923664Y-83587680D01*
X100759454Y-83668659D01*
X100592891Y-83858588D01*
X100192891Y-84551408D01*
X100111689Y-84790620D01*
X100120162Y-84919900D01*
X100113720Y-84922569D01*
X99822569Y-85213720D01*
X99665000Y-85594126D01*
X92023823Y-85594126D01*
X101145957Y-69794126D01*
X114965000Y-69794126D01*
X114965000Y-70205874D01*
X115122569Y-70586280D01*
X115413720Y-70877431D01*
X115794126Y-71035000D01*
X116205874Y-71035000D01*
X116453728Y-70932336D01*
X116552235Y-70998157D01*
X116800000Y-71047440D01*
X117600000Y-71047440D01*
X117847765Y-70998157D01*
X118000000Y-70896436D01*
X118152235Y-70998157D01*
X118400000Y-71047440D01*
X119200000Y-71047440D01*
X119447765Y-70998157D01*
X119546272Y-70932336D01*
X119794126Y-71035000D01*
X120205874Y-71035000D01*
X120586280Y-70877431D01*
X120703711Y-70760000D01*
X123296289Y-70760000D01*
X123413720Y-70877431D01*
X123794126Y-71035000D01*
X124205874Y-71035000D01*
X124453728Y-70932336D01*
X124552235Y-70998157D01*
X124800000Y-71047440D01*
X125600000Y-71047440D01*
X125847765Y-70998157D01*
X126000000Y-70896436D01*
X126152235Y-70998157D01*
X126400000Y-71047440D01*
X127200000Y-71047440D01*
X127447765Y-70998157D01*
X127546272Y-70932336D01*
X127794126Y-71035000D01*
X128205874Y-71035000D01*
X128586280Y-70877431D01*
X128877431Y-70586280D01*
X129035000Y-70205874D01*
X129035000Y-69794126D01*
X130965000Y-69794126D01*
X130965000Y-70205874D01*
X131122569Y-70586280D01*
X131413720Y-70877431D01*
X131794126Y-71035000D01*
X132205874Y-71035000D01*
X132453728Y-70932336D01*
X132552235Y-70998157D01*
X132800000Y-71047440D01*
X133600000Y-71047440D01*
X133847765Y-70998157D01*
X134000000Y-70896436D01*
X134152235Y-70998157D01*
X134400000Y-71047440D01*
X135200000Y-71047440D01*
X135447765Y-70998157D01*
X135546272Y-70932336D01*
X135794126Y-71035000D01*
X136205874Y-71035000D01*
X136586280Y-70877431D01*
X136703711Y-70760000D01*
X139296289Y-70760000D01*
X139413720Y-70877431D01*
X139794126Y-71035000D01*
X140205874Y-71035000D01*
X140453728Y-70932336D01*
X140552235Y-70998157D01*
X140800000Y-71047440D01*
X141600000Y-71047440D01*
X141847765Y-70998157D01*
X142000000Y-70896436D01*
X142152235Y-70998157D01*
X142400000Y-71047440D01*
X143200000Y-71047440D01*
X143447765Y-70998157D01*
X143546272Y-70932336D01*
X143794126Y-71035000D01*
X144205874Y-71035000D01*
X144586280Y-70877431D01*
X144877431Y-70586280D01*
X145035000Y-70205874D01*
X145035000Y-69794126D01*
X144877431Y-69413720D01*
X144586280Y-69122569D01*
X144205874Y-68965000D01*
X143794126Y-68965000D01*
X143546272Y-69067664D01*
X143447765Y-69001843D01*
X143200000Y-68952560D01*
X142400000Y-68952560D01*
X142152235Y-69001843D01*
X142000000Y-69103564D01*
X141847765Y-69001843D01*
X141600000Y-68952560D01*
X140800000Y-68952560D01*
X140552235Y-69001843D01*
X140453728Y-69067664D01*
X140205874Y-68965000D01*
X139794126Y-68965000D01*
X139413720Y-69122569D01*
X139296289Y-69240000D01*
X136703711Y-69240000D01*
X136586280Y-69122569D01*
X136205874Y-68965000D01*
X135794126Y-68965000D01*
X135546272Y-69067664D01*
X135447765Y-69001843D01*
X135200000Y-68952560D01*
X134400000Y-68952560D01*
X134152235Y-69001843D01*
X134000000Y-69103564D01*
X133847765Y-69001843D01*
X133600000Y-68952560D01*
X132800000Y-68952560D01*
X132552235Y-69001843D01*
X132453728Y-69067664D01*
X132205874Y-68965000D01*
X131794126Y-68965000D01*
X131413720Y-69122569D01*
X131122569Y-69413720D01*
X130965000Y-69794126D01*
X129035000Y-69794126D01*
X128877431Y-69413720D01*
X128586280Y-69122569D01*
X128205874Y-68965000D01*
X127794126Y-68965000D01*
X127546272Y-69067664D01*
X127447765Y-69001843D01*
X127200000Y-68952560D01*
X126400000Y-68952560D01*
X126152235Y-69001843D01*
X126000000Y-69103564D01*
X125847765Y-69001843D01*
X125600000Y-68952560D01*
X124800000Y-68952560D01*
X124552235Y-69001843D01*
X124453728Y-69067664D01*
X124205874Y-68965000D01*
X123794126Y-68965000D01*
X123413720Y-69122569D01*
X123296289Y-69240000D01*
X120703711Y-69240000D01*
X120586280Y-69122569D01*
X120205874Y-68965000D01*
X119794126Y-68965000D01*
X119546272Y-69067664D01*
X119447765Y-69001843D01*
X119200000Y-68952560D01*
X118400000Y-68952560D01*
X118152235Y-69001843D01*
X118000000Y-69103564D01*
X117847765Y-69001843D01*
X117600000Y-68952560D01*
X116800000Y-68952560D01*
X116552235Y-69001843D01*
X116453728Y-69067664D01*
X116205874Y-68965000D01*
X115794126Y-68965000D01*
X115413720Y-69122569D01*
X115122569Y-69413720D01*
X114965000Y-69794126D01*
X101145957Y-69794126D01*
X103015819Y-66555431D01*
X105765000Y-66555431D01*
X105765000Y-67444569D01*
X106105259Y-68266026D01*
X106733974Y-68894741D01*
X107555431Y-69235000D01*
X108444569Y-69235000D01*
X109266026Y-68894741D01*
X109894741Y-68266026D01*
X110235000Y-67444569D01*
X110235000Y-66555431D01*
X149765000Y-66555431D01*
X149765000Y-67444569D01*
X150105259Y-68266026D01*
X150733974Y-68894741D01*
X151555431Y-69235000D01*
X152444569Y-69235000D01*
X153266026Y-68894741D01*
X153894741Y-68266026D01*
X154235000Y-67444569D01*
X154235000Y-66555431D01*
X153894741Y-65733974D01*
X153266026Y-65105259D01*
X152444569Y-64765000D01*
X151555431Y-64765000D01*
X150733974Y-65105259D01*
X150105259Y-65733974D01*
X149765000Y-66555431D01*
X110235000Y-66555431D01*
X109894741Y-65733974D01*
X109266026Y-65105259D01*
X108444569Y-64765000D01*
X107555431Y-64765000D01*
X106733974Y-65105259D01*
X106105259Y-65733974D01*
X105765000Y-66555431D01*
X103015819Y-66555431D01*
X105409919Y-62408730D01*
X154590082Y-62408730D01*
X179180163Y-105000000D01*
X179180163Y-105000000D01*
G37*
X179180163Y-105000000D02*
X154590082Y-147591270D01*
X105409919Y-147591270D01*
X102502476Y-142555431D01*
X105765000Y-142555431D01*
X105765000Y-143444569D01*
X106105259Y-144266026D01*
X106733974Y-144894741D01*
X107555431Y-145235000D01*
X108444569Y-145235000D01*
X109266026Y-144894741D01*
X109894741Y-144266026D01*
X110235000Y-143444569D01*
X110235000Y-142555431D01*
X149765000Y-142555431D01*
X149765000Y-143444569D01*
X150105259Y-144266026D01*
X150733974Y-144894741D01*
X151555431Y-145235000D01*
X152444569Y-145235000D01*
X153266026Y-144894741D01*
X153894741Y-144266026D01*
X154235000Y-143444569D01*
X154235000Y-142555431D01*
X153894741Y-141733974D01*
X153266026Y-141105259D01*
X152444569Y-140765000D01*
X151555431Y-140765000D01*
X150733974Y-141105259D01*
X150105259Y-141733974D01*
X149765000Y-142555431D01*
X110235000Y-142555431D01*
X109894741Y-141733974D01*
X109266026Y-141105259D01*
X108444569Y-140765000D01*
X107555431Y-140765000D01*
X106733974Y-141105259D01*
X106105259Y-141733974D01*
X105765000Y-142555431D01*
X102502476Y-142555431D01*
X100908236Y-139794126D01*
X114965000Y-139794126D01*
X114965000Y-140205874D01*
X115122569Y-140586280D01*
X115413720Y-140877431D01*
X115794126Y-141035000D01*
X116205874Y-141035000D01*
X116453728Y-140932336D01*
X116552235Y-140998157D01*
X116800000Y-141047440D01*
X117600000Y-141047440D01*
X117847765Y-140998157D01*
X118000000Y-140896436D01*
X118152235Y-140998157D01*
X118400000Y-141047440D01*
X119200000Y-141047440D01*
X119447765Y-140998157D01*
X119657809Y-140857809D01*
X119723163Y-140760000D01*
X123296289Y-140760000D01*
X123413720Y-140877431D01*
X123794126Y-141035000D01*
X124205874Y-141035000D01*
X124453728Y-140932336D01*
X124552235Y-140998157D01*
X124800000Y-141047440D01*
X125600000Y-141047440D01*
X125847765Y-140998157D01*
X126000000Y-140896436D01*
X126152235Y-140998157D01*
X126400000Y-141047440D01*
X127200000Y-141047440D01*
X127447765Y-140998157D01*
X127546272Y-140932336D01*
X127794126Y-141035000D01*
X128205874Y-141035000D01*
X128586280Y-140877431D01*
X128877431Y-140586280D01*
X129035000Y-140205874D01*
X129035000Y-139794126D01*
X130965000Y-139794126D01*
X130965000Y-140205874D01*
X131122569Y-140586280D01*
X131413720Y-140877431D01*
X131794126Y-141035000D01*
X132205874Y-141035000D01*
X132453728Y-140932336D01*
X132552235Y-140998157D01*
X132800000Y-141047440D01*
X133600000Y-141047440D01*
X133847765Y-140998157D01*
X134000000Y-140896436D01*
X134152235Y-140998157D01*
X134400000Y-141047440D01*
X135200000Y-141047440D01*
X135447765Y-140998157D01*
X135657809Y-140857809D01*
X135723163Y-140760000D01*
X139296289Y-140760000D01*
X139413720Y-140877431D01*
X139794126Y-141035000D01*
X140205874Y-141035000D01*
X140453728Y-140932336D01*
X140552235Y-140998157D01*
X140800000Y-141047440D01*
X141600000Y-141047440D01*
X141847765Y-140998157D01*
X142000000Y-140896436D01*
X142152235Y-140998157D01*
X142400000Y-141047440D01*
X143200000Y-141047440D01*
X143447765Y-140998157D01*
X143622809Y-140881196D01*
X143994126Y-141035000D01*
X144405874Y-141035000D01*
X144786280Y-140877431D01*
X145077431Y-140586280D01*
X145235000Y-140205874D01*
X145235000Y-139794126D01*
X145077431Y-139413720D01*
X144786280Y-139122569D01*
X144405874Y-138965000D01*
X143994126Y-138965000D01*
X143622809Y-139118804D01*
X143447765Y-139001843D01*
X143200000Y-138952560D01*
X142400000Y-138952560D01*
X142152235Y-139001843D01*
X142000000Y-139103564D01*
X141847765Y-139001843D01*
X141600000Y-138952560D01*
X140800000Y-138952560D01*
X140552235Y-139001843D01*
X140453728Y-139067664D01*
X140205874Y-138965000D01*
X139794126Y-138965000D01*
X139413720Y-139122569D01*
X139296289Y-139240000D01*
X135723163Y-139240000D01*
X135657809Y-139142191D01*
X135447765Y-139001843D01*
X135200000Y-138952560D01*
X134400000Y-138952560D01*
X134152235Y-139001843D01*
X134000000Y-139103564D01*
X133847765Y-139001843D01*
X133600000Y-138952560D01*
X132800000Y-138952560D01*
X132552235Y-139001843D01*
X132453728Y-139067664D01*
X132205874Y-138965000D01*
X131794126Y-138965000D01*
X131413720Y-139122569D01*
X131122569Y-139413720D01*
X130965000Y-139794126D01*
X129035000Y-139794126D01*
X128877431Y-139413720D01*
X128586280Y-139122569D01*
X128205874Y-138965000D01*
X127794126Y-138965000D01*
X127546272Y-139067664D01*
X127447765Y-139001843D01*
X127200000Y-138952560D01*
X126400000Y-138952560D01*
X126152235Y-139001843D01*
X126000000Y-139103564D01*
X125847765Y-139001843D01*
X125600000Y-138952560D01*
X124800000Y-138952560D01*
X124552235Y-139001843D01*
X124453728Y-139067664D01*
X124205874Y-138965000D01*
X123794126Y-138965000D01*
X123413720Y-139122569D01*
X123296289Y-139240000D01*
X119723163Y-139240000D01*
X119657809Y-139142191D01*
X119447765Y-139001843D01*
X119200000Y-138952560D01*
X118400000Y-138952560D01*
X118152235Y-139001843D01*
X118000000Y-139103564D01*
X117847765Y-139001843D01*
X117600000Y-138952560D01*
X116800000Y-138952560D01*
X116552235Y-139001843D01*
X116453728Y-139067664D01*
X116205874Y-138965000D01*
X115794126Y-138965000D01*
X115413720Y-139122569D01*
X115122569Y-139413720D01*
X114965000Y-139794126D01*
X100908236Y-139794126D01*
X91699499Y-123844126D01*
X99565000Y-123844126D01*
X99565000Y-124255874D01*
X99722569Y-124636280D01*
X100013720Y-124927431D01*
X100139474Y-124979520D01*
X100124189Y-125212729D01*
X100205391Y-125451941D01*
X100605391Y-126144761D01*
X100771954Y-126334690D01*
X100936164Y-126415669D01*
X100924189Y-126598369D01*
X101005391Y-126837581D01*
X101405391Y-127530401D01*
X101571954Y-127720330D01*
X101798520Y-127832060D01*
X101915902Y-127839754D01*
X103599154Y-130755232D01*
X103583043Y-130794126D01*
X103583043Y-131205874D01*
X103740612Y-131586280D01*
X104031763Y-131877431D01*
X104138560Y-131921668D01*
X104124189Y-132140932D01*
X104205391Y-132380144D01*
X104605391Y-133072964D01*
X104771954Y-133262893D01*
X104936164Y-133343872D01*
X104924189Y-133526572D01*
X105005391Y-133765784D01*
X105405391Y-134458604D01*
X105571954Y-134648533D01*
X105765000Y-134743733D01*
X105765000Y-134905874D01*
X105922569Y-135286280D01*
X106213720Y-135577431D01*
X106594126Y-135735000D01*
X107005874Y-135735000D01*
X107386280Y-135577431D01*
X107677431Y-135286280D01*
X107835000Y-134905874D01*
X107835000Y-134534172D01*
X152165000Y-134534172D01*
X152165000Y-134945920D01*
X152322569Y-135326326D01*
X152613720Y-135617477D01*
X152994126Y-135775046D01*
X153405874Y-135775046D01*
X153786280Y-135617477D01*
X154077431Y-135326326D01*
X154235000Y-134945920D01*
X154235000Y-134746548D01*
X154440546Y-134645184D01*
X154607109Y-134455255D01*
X155007109Y-133762435D01*
X155088311Y-133523223D01*
X155076336Y-133340523D01*
X155240546Y-133259544D01*
X155407109Y-133069615D01*
X155807109Y-132376795D01*
X155888311Y-132137583D01*
X155871789Y-131885505D01*
X155819760Y-131780002D01*
X157572229Y-128744638D01*
X157855191Y-128627431D01*
X158146342Y-128336280D01*
X158303911Y-127955874D01*
X158303911Y-127784362D01*
X158440546Y-127716981D01*
X158607109Y-127527052D01*
X159007109Y-126834232D01*
X159088311Y-126595020D01*
X159076336Y-126412320D01*
X159240546Y-126331341D01*
X159407109Y-126141412D01*
X159807109Y-125448592D01*
X159888311Y-125209380D01*
X159880623Y-125092090D01*
X159916014Y-125077431D01*
X160207165Y-124786280D01*
X160364734Y-124405874D01*
X160364734Y-123994126D01*
X160207165Y-123613720D01*
X159916014Y-123322569D01*
X159535608Y-123165000D01*
X159123860Y-123165000D01*
X158743454Y-123322569D01*
X158452303Y-123613720D01*
X158294734Y-123994126D01*
X158294734Y-124144510D01*
X158159454Y-124211223D01*
X157992891Y-124401152D01*
X157592891Y-125093972D01*
X157511689Y-125333184D01*
X157523664Y-125515884D01*
X157359454Y-125596863D01*
X157192891Y-125786792D01*
X156792891Y-126479612D01*
X156711689Y-126718824D01*
X156720732Y-126856787D01*
X156682631Y-126872569D01*
X156391480Y-127163720D01*
X156233911Y-127544126D01*
X156233911Y-127955874D01*
X156250021Y-127994768D01*
X154503402Y-131020002D01*
X154386020Y-131027696D01*
X154159454Y-131139426D01*
X153992891Y-131329355D01*
X153592891Y-132022175D01*
X153511689Y-132261387D01*
X153523664Y-132444087D01*
X153359454Y-132525066D01*
X153192891Y-132714995D01*
X152792891Y-133407815D01*
X152711689Y-133647027D01*
X152722856Y-133817409D01*
X152613720Y-133862615D01*
X152322569Y-134153766D01*
X152165000Y-134534172D01*
X107835000Y-134534172D01*
X107835000Y-134494126D01*
X107677431Y-134113720D01*
X107386280Y-133822569D01*
X107292082Y-133783551D01*
X107300811Y-133650376D01*
X107219609Y-133411164D01*
X106819609Y-132718344D01*
X106653046Y-132528415D01*
X106488836Y-132447436D01*
X106500811Y-132264736D01*
X106419609Y-132025524D01*
X106019609Y-131332704D01*
X105853046Y-131142775D01*
X105653043Y-131044144D01*
X105653043Y-130794126D01*
X105495474Y-130413720D01*
X105204323Y-130122569D01*
X104921361Y-130005363D01*
X103232261Y-127079754D01*
X103284289Y-126974251D01*
X103300811Y-126722173D01*
X103219609Y-126482961D01*
X102819609Y-125790141D01*
X102653046Y-125600212D01*
X102488836Y-125519233D01*
X102500811Y-125336533D01*
X102419609Y-125097321D01*
X102019609Y-124404501D01*
X101853046Y-124214572D01*
X101635000Y-124107044D01*
X101635000Y-123844126D01*
X101477431Y-123463720D01*
X101186280Y-123172569D01*
X100805874Y-123015000D01*
X100394126Y-123015000D01*
X100013720Y-123172569D01*
X99722569Y-123463720D01*
X99565000Y-123844126D01*
X91699499Y-123844126D01*
X83847535Y-110244126D01*
X91715000Y-110244126D01*
X91715000Y-110655874D01*
X91872569Y-111036280D01*
X92154524Y-111318235D01*
X92149189Y-111399624D01*
X92230391Y-111638836D01*
X92630391Y-112331656D01*
X92796954Y-112521585D01*
X92961164Y-112602564D01*
X92949189Y-112785264D01*
X93030391Y-113024476D01*
X93430391Y-113717296D01*
X93596954Y-113907225D01*
X93768088Y-113991619D01*
X93768088Y-114205874D01*
X93925657Y-114586280D01*
X94216808Y-114877431D01*
X94499770Y-114994638D01*
X96192739Y-117926946D01*
X96140711Y-118032448D01*
X96124189Y-118284526D01*
X96205391Y-118523738D01*
X96605391Y-119216558D01*
X96771954Y-119406487D01*
X96936164Y-119487466D01*
X96924189Y-119670166D01*
X97005391Y-119909378D01*
X97405391Y-120602198D01*
X97571954Y-120792127D01*
X97765000Y-120887327D01*
X97765000Y-121105874D01*
X97922569Y-121486280D01*
X98213720Y-121777431D01*
X98594126Y-121935000D01*
X99005874Y-121935000D01*
X99386280Y-121777431D01*
X99677431Y-121486280D01*
X99835000Y-121105874D01*
X99835000Y-120794126D01*
X160165000Y-120794126D01*
X160165000Y-121205874D01*
X160322569Y-121586280D01*
X160613720Y-121877431D01*
X160994126Y-122035000D01*
X161405874Y-122035000D01*
X161786280Y-121877431D01*
X162077431Y-121586280D01*
X162235000Y-121205874D01*
X162235000Y-120890141D01*
X162440546Y-120788777D01*
X162607109Y-120598848D01*
X163007109Y-119906028D01*
X163088311Y-119666816D01*
X163076336Y-119484116D01*
X163240546Y-119403137D01*
X163407109Y-119213208D01*
X163807109Y-118520388D01*
X163888311Y-118281176D01*
X163873474Y-118054800D01*
X163986280Y-118008074D01*
X164277431Y-117716923D01*
X164435000Y-117336517D01*
X164435000Y-116924769D01*
X164418889Y-116885874D01*
X166096598Y-113979998D01*
X166213980Y-113972304D01*
X166440546Y-113860574D01*
X166607109Y-113670645D01*
X167007109Y-112977825D01*
X167088311Y-112738613D01*
X167076336Y-112555913D01*
X167240546Y-112474934D01*
X167407109Y-112285005D01*
X167807109Y-111592185D01*
X167888311Y-111352973D01*
X167873318Y-111124221D01*
X167986280Y-111077431D01*
X168277431Y-110786280D01*
X168435000Y-110405874D01*
X168435000Y-109994126D01*
X168277431Y-109613720D01*
X167986280Y-109322569D01*
X167605874Y-109165000D01*
X167194126Y-109165000D01*
X166813720Y-109322569D01*
X166522569Y-109613720D01*
X166365000Y-109994126D01*
X166365000Y-110253452D01*
X166159454Y-110354816D01*
X165992891Y-110544745D01*
X165592891Y-111237565D01*
X165511689Y-111476777D01*
X165523664Y-111659477D01*
X165359454Y-111740456D01*
X165192891Y-111930385D01*
X164792891Y-112623205D01*
X164711689Y-112862417D01*
X164728211Y-113114495D01*
X164780239Y-113219998D01*
X163096682Y-116136006D01*
X162813720Y-116253212D01*
X162522569Y-116544363D01*
X162365000Y-116924769D01*
X162365000Y-117181655D01*
X162159454Y-117283019D01*
X161992891Y-117472948D01*
X161592891Y-118165768D01*
X161511689Y-118404980D01*
X161523664Y-118587680D01*
X161359454Y-118668659D01*
X161192891Y-118858588D01*
X160792891Y-119551408D01*
X160711689Y-119790620D01*
X160728211Y-120042698D01*
X160741498Y-120069642D01*
X160613720Y-120122569D01*
X160322569Y-120413720D01*
X160165000Y-120794126D01*
X99835000Y-120794126D01*
X99835000Y-120694126D01*
X99677431Y-120313720D01*
X99386280Y-120022569D01*
X99288483Y-119982060D01*
X99300811Y-119793970D01*
X99219609Y-119554758D01*
X98819609Y-118861938D01*
X98653046Y-118672009D01*
X98488836Y-118591030D01*
X98500811Y-118408330D01*
X98419609Y-118169118D01*
X98019609Y-117476298D01*
X97853046Y-117286369D01*
X97626480Y-117174639D01*
X97509098Y-117166945D01*
X95821977Y-114244769D01*
X95838088Y-114205874D01*
X95838088Y-113794126D01*
X95680519Y-113413720D01*
X95389368Y-113122569D01*
X95313867Y-113091296D01*
X95325811Y-112909068D01*
X95244609Y-112669856D01*
X94844609Y-111977036D01*
X94678046Y-111787107D01*
X94513836Y-111706128D01*
X94525811Y-111523428D01*
X94444609Y-111284216D01*
X94044609Y-110591396D01*
X93878046Y-110401467D01*
X93785000Y-110355582D01*
X93785000Y-110244126D01*
X93627431Y-109863720D01*
X93336280Y-109572569D01*
X92955874Y-109415000D01*
X92544126Y-109415000D01*
X92163720Y-109572569D01*
X91872569Y-109863720D01*
X91715000Y-110244126D01*
X83847535Y-110244126D01*
X80819837Y-105000000D01*
X81076509Y-104555431D01*
X83765000Y-104555431D01*
X83765000Y-105444569D01*
X84105259Y-106266026D01*
X84733974Y-106894741D01*
X85555431Y-107235000D01*
X86444569Y-107235000D01*
X87266026Y-106894741D01*
X87894741Y-106266026D01*
X88235000Y-105444569D01*
X88235000Y-104555431D01*
X88004933Y-104000000D01*
X121276091Y-104000000D01*
X121290000Y-104069926D01*
X121290001Y-105930070D01*
X121276091Y-106000000D01*
X121331195Y-106277028D01*
X121488119Y-106511881D01*
X121722972Y-106668805D01*
X121930074Y-106710000D01*
X121930075Y-106710000D01*
X122000000Y-106723909D01*
X122069926Y-106710000D01*
X137930074Y-106710000D01*
X138000000Y-106723909D01*
X138069925Y-106710000D01*
X138069926Y-106710000D01*
X138277028Y-106668805D01*
X138511881Y-106511881D01*
X138668805Y-106277028D01*
X138723909Y-106000000D01*
X138710000Y-105930074D01*
X138710000Y-104555431D01*
X171765000Y-104555431D01*
X171765000Y-105444569D01*
X172105259Y-106266026D01*
X172733974Y-106894741D01*
X173555431Y-107235000D01*
X174444569Y-107235000D01*
X175266026Y-106894741D01*
X175894741Y-106266026D01*
X176235000Y-105444569D01*
X176235000Y-104555431D01*
X175894741Y-103733974D01*
X175266026Y-103105259D01*
X174444569Y-102765000D01*
X173555431Y-102765000D01*
X172733974Y-103105259D01*
X172105259Y-103733974D01*
X171765000Y-104555431D01*
X138710000Y-104555431D01*
X138710000Y-104069926D01*
X138723909Y-104000000D01*
X138668805Y-103722972D01*
X138511881Y-103488119D01*
X138277028Y-103331195D01*
X138069926Y-103290000D01*
X138000000Y-103276091D01*
X137930075Y-103290000D01*
X122069925Y-103290000D01*
X122000000Y-103276091D01*
X121930074Y-103290000D01*
X121722972Y-103331195D01*
X121488119Y-103488119D01*
X121331195Y-103722972D01*
X121276091Y-104000000D01*
X88004933Y-104000000D01*
X87894741Y-103733974D01*
X87266026Y-103105259D01*
X86444569Y-102765000D01*
X85555431Y-102765000D01*
X84733974Y-103105259D01*
X84105259Y-103733974D01*
X83765000Y-104555431D01*
X81076509Y-104555431D01*
X83998654Y-99494126D01*
X91665000Y-99494126D01*
X91665000Y-99905874D01*
X91822569Y-100286280D01*
X92113720Y-100577431D01*
X92494126Y-100735000D01*
X92905874Y-100735000D01*
X93286280Y-100577431D01*
X93577431Y-100286280D01*
X93735000Y-99905874D01*
X93735000Y-99697234D01*
X93840546Y-99645184D01*
X94007109Y-99455255D01*
X94407109Y-98762435D01*
X94488311Y-98523223D01*
X94476336Y-98340523D01*
X94640546Y-98259544D01*
X94807109Y-98069615D01*
X95207109Y-97376795D01*
X95288311Y-97137583D01*
X95278957Y-96994873D01*
X95321067Y-96977431D01*
X95612218Y-96686280D01*
X95769787Y-96305874D01*
X95769787Y-95894126D01*
X95753676Y-95855231D01*
X97496598Y-92836405D01*
X97613980Y-92828711D01*
X97840546Y-92716981D01*
X98007109Y-92527052D01*
X98407109Y-91834232D01*
X98469647Y-91650000D01*
X123502560Y-91650000D01*
X123502560Y-93350000D01*
X123551843Y-93597765D01*
X123692191Y-93807809D01*
X123902235Y-93948157D01*
X124150000Y-93997440D01*
X125850000Y-93997440D01*
X126097765Y-93948157D01*
X126307809Y-93807809D01*
X126448157Y-93597765D01*
X126457184Y-93552381D01*
X126469375Y-93570625D01*
X126960582Y-93898839D01*
X127393744Y-93985000D01*
X127686256Y-93985000D01*
X128119418Y-93898839D01*
X128610625Y-93570625D01*
X128810000Y-93272239D01*
X129009375Y-93570625D01*
X129500582Y-93898839D01*
X129933744Y-93985000D01*
X130226256Y-93985000D01*
X130659418Y-93898839D01*
X131150625Y-93570625D01*
X131350000Y-93272239D01*
X131549375Y-93570625D01*
X132040582Y-93898839D01*
X132473744Y-93985000D01*
X132766256Y-93985000D01*
X133199418Y-93898839D01*
X133690625Y-93570625D01*
X133903843Y-93251522D01*
X133964817Y-93381358D01*
X134393076Y-93771645D01*
X134803110Y-93941476D01*
X135033000Y-93820155D01*
X135033000Y-92627000D01*
X135287000Y-92627000D01*
X135287000Y-93820155D01*
X135516890Y-93941476D01*
X135926924Y-93771645D01*
X136355183Y-93381358D01*
X136601486Y-92856892D01*
X136480819Y-92627000D01*
X135287000Y-92627000D01*
X135033000Y-92627000D01*
X135013000Y-92627000D01*
X135013000Y-92373000D01*
X135033000Y-92373000D01*
X135033000Y-91179845D01*
X135287000Y-91179845D01*
X135287000Y-92373000D01*
X136480819Y-92373000D01*
X136601486Y-92143108D01*
X136355183Y-91618642D01*
X135926924Y-91228355D01*
X135516890Y-91058524D01*
X135287000Y-91179845D01*
X135033000Y-91179845D01*
X134803110Y-91058524D01*
X134393076Y-91228355D01*
X133964817Y-91618642D01*
X133903843Y-91748478D01*
X133690625Y-91429375D01*
X133199418Y-91101161D01*
X132766256Y-91015000D01*
X132473744Y-91015000D01*
X132040582Y-91101161D01*
X131549375Y-91429375D01*
X131350000Y-91727761D01*
X131150625Y-91429375D01*
X130659418Y-91101161D01*
X130226256Y-91015000D01*
X129933744Y-91015000D01*
X129500582Y-91101161D01*
X129009375Y-91429375D01*
X128810000Y-91727761D01*
X128610625Y-91429375D01*
X128119418Y-91101161D01*
X127686256Y-91015000D01*
X127393744Y-91015000D01*
X126960582Y-91101161D01*
X126469375Y-91429375D01*
X126457184Y-91447619D01*
X126448157Y-91402235D01*
X126307809Y-91192191D01*
X126097765Y-91051843D01*
X125850000Y-91002560D01*
X124150000Y-91002560D01*
X123902235Y-91051843D01*
X123692191Y-91192191D01*
X123551843Y-91402235D01*
X123502560Y-91650000D01*
X98469647Y-91650000D01*
X98488311Y-91595020D01*
X98476336Y-91412320D01*
X98640546Y-91331341D01*
X98807109Y-91141412D01*
X99207109Y-90448592D01*
X99288311Y-90209380D01*
X99283195Y-90131325D01*
X99292597Y-90127431D01*
X99583748Y-89836280D01*
X99741317Y-89455874D01*
X99741317Y-89044126D01*
X160265000Y-89044126D01*
X160265000Y-89455874D01*
X160422569Y-89836280D01*
X160713720Y-90127431D01*
X160716972Y-90128778D01*
X160711689Y-90209380D01*
X160792891Y-90448592D01*
X161192891Y-91141412D01*
X161359454Y-91331341D01*
X161523664Y-91412320D01*
X161511689Y-91595020D01*
X161592891Y-91834232D01*
X161992891Y-92527052D01*
X162159454Y-92716981D01*
X162386020Y-92828711D01*
X162503402Y-92836405D01*
X164188587Y-95755232D01*
X164172477Y-95794126D01*
X164172477Y-96205874D01*
X164330046Y-96586280D01*
X164621197Y-96877431D01*
X164725898Y-96920799D01*
X164711689Y-97137583D01*
X164792891Y-97376795D01*
X165192891Y-98069615D01*
X165359454Y-98259544D01*
X165523664Y-98340523D01*
X165511689Y-98523223D01*
X165592891Y-98762435D01*
X165992891Y-99455255D01*
X166159454Y-99645184D01*
X166365000Y-99746548D01*
X166365000Y-100005874D01*
X166522569Y-100386280D01*
X166813720Y-100677431D01*
X167194126Y-100835000D01*
X167605874Y-100835000D01*
X167986280Y-100677431D01*
X168277431Y-100386280D01*
X168435000Y-100005874D01*
X168435000Y-99594126D01*
X168277431Y-99213720D01*
X167986280Y-98922569D01*
X167873318Y-98875779D01*
X167888311Y-98647027D01*
X167807109Y-98407815D01*
X167407109Y-97714995D01*
X167240546Y-97525066D01*
X167076336Y-97444087D01*
X167088311Y-97261387D01*
X167007109Y-97022175D01*
X166607109Y-96329355D01*
X166440546Y-96139426D01*
X166242477Y-96041749D01*
X166242477Y-95794126D01*
X166084908Y-95413720D01*
X165793757Y-95122569D01*
X165510795Y-95005363D01*
X163819761Y-92076405D01*
X163871789Y-91970902D01*
X163888311Y-91718824D01*
X163807109Y-91479612D01*
X163407109Y-90786792D01*
X163240546Y-90596863D01*
X163076336Y-90515884D01*
X163088311Y-90333184D01*
X163007109Y-90093972D01*
X162607109Y-89401152D01*
X162440546Y-89211223D01*
X162335000Y-89159173D01*
X162335000Y-89044126D01*
X162177431Y-88663720D01*
X161886280Y-88372569D01*
X161505874Y-88215000D01*
X161094126Y-88215000D01*
X160713720Y-88372569D01*
X160422569Y-88663720D01*
X160265000Y-89044126D01*
X99741317Y-89044126D01*
X99583748Y-88663720D01*
X99292597Y-88372569D01*
X98912191Y-88215000D01*
X98500443Y-88215000D01*
X98120037Y-88372569D01*
X97828886Y-88663720D01*
X97671317Y-89044126D01*
X97671317Y-89156058D01*
X97559454Y-89211223D01*
X97392891Y-89401152D01*
X96992891Y-90093972D01*
X96911689Y-90333184D01*
X96923664Y-90515884D01*
X96759454Y-90596863D01*
X96592891Y-90786792D01*
X96192891Y-91479612D01*
X96111689Y-91718824D01*
X96128211Y-91970902D01*
X96180239Y-92076404D01*
X94431469Y-95105362D01*
X94148507Y-95222569D01*
X93857356Y-95513720D01*
X93699787Y-95894126D01*
X93699787Y-96070221D01*
X93559454Y-96139426D01*
X93392891Y-96329355D01*
X92992891Y-97022175D01*
X92911689Y-97261387D01*
X92923664Y-97444087D01*
X92759454Y-97525066D01*
X92592891Y-97714995D01*
X92192891Y-98407815D01*
X92111689Y-98647027D01*
X92122944Y-98818748D01*
X92113720Y-98822569D01*
X91822569Y-99113720D01*
X91665000Y-99494126D01*
X83998654Y-99494126D01*
X92023823Y-85594126D01*
X99665000Y-85594126D01*
X99665000Y-86005874D01*
X99822569Y-86386280D01*
X100113720Y-86677431D01*
X100494126Y-86835000D01*
X100905874Y-86835000D01*
X101286280Y-86677431D01*
X101577431Y-86386280D01*
X101735000Y-86005874D01*
X101735000Y-85840827D01*
X101840546Y-85788777D01*
X102007109Y-85598848D01*
X102407109Y-84906028D01*
X102488311Y-84666816D01*
X102476336Y-84484116D01*
X102640546Y-84403137D01*
X102807109Y-84213208D01*
X103207109Y-83520388D01*
X103288311Y-83281176D01*
X103276841Y-83106176D01*
X103346237Y-83077431D01*
X103637388Y-82786280D01*
X103794957Y-82405874D01*
X103794957Y-81994126D01*
X103778846Y-81955231D01*
X104910795Y-79994637D01*
X105193757Y-79877431D01*
X105484908Y-79586280D01*
X105642477Y-79205874D01*
X105642477Y-78958251D01*
X105840546Y-78860574D01*
X106007109Y-78670645D01*
X106407109Y-77977825D01*
X106488311Y-77738613D01*
X106476336Y-77555913D01*
X106640546Y-77474934D01*
X106807109Y-77285005D01*
X107207109Y-76592185D01*
X107288311Y-76352973D01*
X107271789Y-76100895D01*
X107254420Y-76065674D01*
X107467459Y-75977431D01*
X107758610Y-75686280D01*
X107916179Y-75305874D01*
X107916179Y-74894126D01*
X152065000Y-74894126D01*
X152065000Y-75305874D01*
X152222569Y-75686280D01*
X152513720Y-75977431D01*
X152742387Y-76072148D01*
X152728211Y-76100895D01*
X152711689Y-76352973D01*
X152792891Y-76592185D01*
X153192891Y-77285005D01*
X153359454Y-77474934D01*
X153523664Y-77555913D01*
X153511689Y-77738613D01*
X153592891Y-77977825D01*
X153992891Y-78670645D01*
X154159454Y-78860574D01*
X154357523Y-78958251D01*
X154357523Y-79205874D01*
X154515092Y-79586280D01*
X154806243Y-79877431D01*
X155089205Y-79994638D01*
X156780239Y-82923595D01*
X156728211Y-83029098D01*
X156711689Y-83281176D01*
X156792891Y-83520388D01*
X157192891Y-84213208D01*
X157359454Y-84403137D01*
X157523664Y-84484116D01*
X157511689Y-84666816D01*
X157592891Y-84906028D01*
X157992891Y-85598848D01*
X158159454Y-85788777D01*
X158315000Y-85865484D01*
X158315000Y-86055874D01*
X158472569Y-86436280D01*
X158763720Y-86727431D01*
X159144126Y-86885000D01*
X159555874Y-86885000D01*
X159936280Y-86727431D01*
X160227431Y-86436280D01*
X160385000Y-86055874D01*
X160385000Y-85644126D01*
X160227431Y-85263720D01*
X159936280Y-84972569D01*
X159877969Y-84948416D01*
X159888311Y-84790620D01*
X159807109Y-84551408D01*
X159407109Y-83858588D01*
X159240546Y-83668659D01*
X159076336Y-83587680D01*
X159088311Y-83404980D01*
X159007109Y-83165768D01*
X158607109Y-82472948D01*
X158440546Y-82283019D01*
X158213980Y-82171289D01*
X158096598Y-82163595D01*
X156411412Y-79244769D01*
X156427523Y-79205874D01*
X156427523Y-78794126D01*
X156269954Y-78413720D01*
X155978803Y-78122569D01*
X155874102Y-78079201D01*
X155888311Y-77862417D01*
X155807109Y-77623205D01*
X155407109Y-76930385D01*
X155240546Y-76740456D01*
X155076336Y-76659477D01*
X155088311Y-76476777D01*
X155007109Y-76237565D01*
X154607109Y-75544745D01*
X154440546Y-75354816D01*
X154213980Y-75243086D01*
X154135000Y-75237909D01*
X154135000Y-74894126D01*
X153977431Y-74513720D01*
X153686280Y-74222569D01*
X153305874Y-74065000D01*
X152894126Y-74065000D01*
X152513720Y-74222569D01*
X152222569Y-74513720D01*
X152065000Y-74894126D01*
X107916179Y-74894126D01*
X107758610Y-74513720D01*
X107467459Y-74222569D01*
X107087053Y-74065000D01*
X106675305Y-74065000D01*
X106294899Y-74222569D01*
X106003748Y-74513720D01*
X105846179Y-74894126D01*
X105846179Y-75239143D01*
X105786020Y-75243086D01*
X105559454Y-75354816D01*
X105392891Y-75544745D01*
X104992891Y-76237565D01*
X104911689Y-76476777D01*
X104923664Y-76659477D01*
X104759454Y-76740456D01*
X104592891Y-76930385D01*
X104192891Y-77623205D01*
X104111689Y-77862417D01*
X104125898Y-78079201D01*
X104021197Y-78122569D01*
X103730046Y-78413720D01*
X103572477Y-78794126D01*
X103572477Y-79205874D01*
X103588588Y-79244768D01*
X102456639Y-81205363D01*
X102173677Y-81322569D01*
X101882526Y-81613720D01*
X101724957Y-81994126D01*
X101724957Y-82201402D01*
X101559454Y-82283019D01*
X101392891Y-82472948D01*
X100992891Y-83165768D01*
X100911689Y-83404980D01*
X100923664Y-83587680D01*
X100759454Y-83668659D01*
X100592891Y-83858588D01*
X100192891Y-84551408D01*
X100111689Y-84790620D01*
X100120162Y-84919900D01*
X100113720Y-84922569D01*
X99822569Y-85213720D01*
X99665000Y-85594126D01*
X92023823Y-85594126D01*
X101145957Y-69794126D01*
X114965000Y-69794126D01*
X114965000Y-70205874D01*
X115122569Y-70586280D01*
X115413720Y-70877431D01*
X115794126Y-71035000D01*
X116205874Y-71035000D01*
X116453728Y-70932336D01*
X116552235Y-70998157D01*
X116800000Y-71047440D01*
X117600000Y-71047440D01*
X117847765Y-70998157D01*
X118000000Y-70896436D01*
X118152235Y-70998157D01*
X118400000Y-71047440D01*
X119200000Y-71047440D01*
X119447765Y-70998157D01*
X119546272Y-70932336D01*
X119794126Y-71035000D01*
X120205874Y-71035000D01*
X120586280Y-70877431D01*
X120703711Y-70760000D01*
X123296289Y-70760000D01*
X123413720Y-70877431D01*
X123794126Y-71035000D01*
X124205874Y-71035000D01*
X124453728Y-70932336D01*
X124552235Y-70998157D01*
X124800000Y-71047440D01*
X125600000Y-71047440D01*
X125847765Y-70998157D01*
X126000000Y-70896436D01*
X126152235Y-70998157D01*
X126400000Y-71047440D01*
X127200000Y-71047440D01*
X127447765Y-70998157D01*
X127546272Y-70932336D01*
X127794126Y-71035000D01*
X128205874Y-71035000D01*
X128586280Y-70877431D01*
X128877431Y-70586280D01*
X129035000Y-70205874D01*
X129035000Y-69794126D01*
X130965000Y-69794126D01*
X130965000Y-70205874D01*
X131122569Y-70586280D01*
X131413720Y-70877431D01*
X131794126Y-71035000D01*
X132205874Y-71035000D01*
X132453728Y-70932336D01*
X132552235Y-70998157D01*
X132800000Y-71047440D01*
X133600000Y-71047440D01*
X133847765Y-70998157D01*
X134000000Y-70896436D01*
X134152235Y-70998157D01*
X134400000Y-71047440D01*
X135200000Y-71047440D01*
X135447765Y-70998157D01*
X135546272Y-70932336D01*
X135794126Y-71035000D01*
X136205874Y-71035000D01*
X136586280Y-70877431D01*
X136703711Y-70760000D01*
X139296289Y-70760000D01*
X139413720Y-70877431D01*
X139794126Y-71035000D01*
X140205874Y-71035000D01*
X140453728Y-70932336D01*
X140552235Y-70998157D01*
X140800000Y-71047440D01*
X141600000Y-71047440D01*
X141847765Y-70998157D01*
X142000000Y-70896436D01*
X142152235Y-70998157D01*
X142400000Y-71047440D01*
X143200000Y-71047440D01*
X143447765Y-70998157D01*
X143546272Y-70932336D01*
X143794126Y-71035000D01*
X144205874Y-71035000D01*
X144586280Y-70877431D01*
X144877431Y-70586280D01*
X145035000Y-70205874D01*
X145035000Y-69794126D01*
X144877431Y-69413720D01*
X144586280Y-69122569D01*
X144205874Y-68965000D01*
X143794126Y-68965000D01*
X143546272Y-69067664D01*
X143447765Y-69001843D01*
X143200000Y-68952560D01*
X142400000Y-68952560D01*
X142152235Y-69001843D01*
X142000000Y-69103564D01*
X141847765Y-69001843D01*
X141600000Y-68952560D01*
X140800000Y-68952560D01*
X140552235Y-69001843D01*
X140453728Y-69067664D01*
X140205874Y-68965000D01*
X139794126Y-68965000D01*
X139413720Y-69122569D01*
X139296289Y-69240000D01*
X136703711Y-69240000D01*
X136586280Y-69122569D01*
X136205874Y-68965000D01*
X135794126Y-68965000D01*
X135546272Y-69067664D01*
X135447765Y-69001843D01*
X135200000Y-68952560D01*
X134400000Y-68952560D01*
X134152235Y-69001843D01*
X134000000Y-69103564D01*
X133847765Y-69001843D01*
X133600000Y-68952560D01*
X132800000Y-68952560D01*
X132552235Y-69001843D01*
X132453728Y-69067664D01*
X132205874Y-68965000D01*
X131794126Y-68965000D01*
X131413720Y-69122569D01*
X131122569Y-69413720D01*
X130965000Y-69794126D01*
X129035000Y-69794126D01*
X128877431Y-69413720D01*
X128586280Y-69122569D01*
X128205874Y-68965000D01*
X127794126Y-68965000D01*
X127546272Y-69067664D01*
X127447765Y-69001843D01*
X127200000Y-68952560D01*
X126400000Y-68952560D01*
X126152235Y-69001843D01*
X126000000Y-69103564D01*
X125847765Y-69001843D01*
X125600000Y-68952560D01*
X124800000Y-68952560D01*
X124552235Y-69001843D01*
X124453728Y-69067664D01*
X124205874Y-68965000D01*
X123794126Y-68965000D01*
X123413720Y-69122569D01*
X123296289Y-69240000D01*
X120703711Y-69240000D01*
X120586280Y-69122569D01*
X120205874Y-68965000D01*
X119794126Y-68965000D01*
X119546272Y-69067664D01*
X119447765Y-69001843D01*
X119200000Y-68952560D01*
X118400000Y-68952560D01*
X118152235Y-69001843D01*
X118000000Y-69103564D01*
X117847765Y-69001843D01*
X117600000Y-68952560D01*
X116800000Y-68952560D01*
X116552235Y-69001843D01*
X116453728Y-69067664D01*
X116205874Y-68965000D01*
X115794126Y-68965000D01*
X115413720Y-69122569D01*
X115122569Y-69413720D01*
X114965000Y-69794126D01*
X101145957Y-69794126D01*
X103015819Y-66555431D01*
X105765000Y-66555431D01*
X105765000Y-67444569D01*
X106105259Y-68266026D01*
X106733974Y-68894741D01*
X107555431Y-69235000D01*
X108444569Y-69235000D01*
X109266026Y-68894741D01*
X109894741Y-68266026D01*
X110235000Y-67444569D01*
X110235000Y-66555431D01*
X149765000Y-66555431D01*
X149765000Y-67444569D01*
X150105259Y-68266026D01*
X150733974Y-68894741D01*
X151555431Y-69235000D01*
X152444569Y-69235000D01*
X153266026Y-68894741D01*
X153894741Y-68266026D01*
X154235000Y-67444569D01*
X154235000Y-66555431D01*
X153894741Y-65733974D01*
X153266026Y-65105259D01*
X152444569Y-64765000D01*
X151555431Y-64765000D01*
X150733974Y-65105259D01*
X150105259Y-65733974D01*
X149765000Y-66555431D01*
X110235000Y-66555431D01*
X109894741Y-65733974D01*
X109266026Y-65105259D01*
X108444569Y-64765000D01*
X107555431Y-64765000D01*
X106733974Y-65105259D01*
X106105259Y-65733974D01*
X105765000Y-66555431D01*
X103015819Y-66555431D01*
X105409919Y-62408730D01*
X154590082Y-62408730D01*
X179180163Y-105000000D01*
G04 #@! TD*
M02*
