M48
;DRILL file {KiCad (5.0.2)-1} date 2020/09/09 23:39:07
;FORMAT={-:-/ absolute / metric / decimal}
FMAT,2
METRIC,TZ
T1C0.400
T2C1.000
T3C3.200
%
G90
G05
T1
X92.7Y-99.7
X92.75Y-110.45
X94.735Y-96.1
X94.803Y-114.
X98.706Y-89.25
X98.8Y-120.9
X100.6Y-124.05
X100.7Y-85.8
X102.76Y-82.2
X104.607Y-79.
X104.618Y-131.
X106.8Y-134.7
X106.881Y-75.1
X116.Y-70.
X116.Y-140.
X120.Y-70.
X124.Y-70.
X124.Y-140.
X128.Y-70.
X128.Y-140.
X132.Y-70.
X132.Y-140.
X136.Y-70.
X140.Y-70.
X140.Y-140.
X144.Y-70.
X144.2Y-140.
X153.1Y-75.1
X153.2Y-134.74
X155.393Y-79.
X157.269Y-127.75
X159.33Y-124.2
X159.35Y-85.85
X161.2Y-121.
X161.3Y-89.25
X163.4Y-117.131
X165.207Y-96.
X167.4Y-99.8
X167.4Y-110.2
T2
X125.Y-92.5
X127.54Y-92.5
X130.08Y-92.5
X132.62Y-92.5
X135.16Y-92.5
T3
X174.Y-105.
X108.Y-143.
X152.Y-143.
X108.Y-67.
X152.Y-67.
X86.Y-105.
T0
M30
