G04 #@! TF.GenerationSoftware,KiCad,Pcbnew,(5.0.2)-1*
G04 #@! TF.CreationDate,2021-09-11T16:33:57+09:00*
G04 #@! TF.ProjectId,Pillar,50696c6c-6172-42e6-9b69-6361645f7063,rev?*
G04 #@! TF.SameCoordinates,Original*
G04 #@! TF.FileFunction,Legend,Top*
G04 #@! TF.FilePolarity,Positive*
%FSLAX46Y46*%
G04 Gerber Fmt 4.6, Leading zero omitted, Abs format (unit mm)*
G04 Created by KiCad (PCBNEW (5.0.2)-1) date 2021/09/11 16:33:57*
%MOMM*%
%LPD*%
G01*
G04 APERTURE LIST*
%ADD10C,0.150000*%
%ADD11C,0.200000*%
%ADD12C,0.250000*%
%ADD13C,0.120000*%
%ADD14C,0.254000*%
%ADD15C,0.152400*%
G04 APERTURE END LIST*
D10*
X119914404Y-75000000D02*
X119819166Y-74952380D01*
X119676309Y-74952380D01*
X119533452Y-75000000D01*
X119438214Y-75095238D01*
X119390595Y-75190476D01*
X119342976Y-75380952D01*
X119342976Y-75523809D01*
X119390595Y-75714285D01*
X119438214Y-75809523D01*
X119533452Y-75904761D01*
X119676309Y-75952380D01*
X119771547Y-75952380D01*
X119914404Y-75904761D01*
X119962023Y-75857142D01*
X119962023Y-75523809D01*
X119771547Y-75523809D01*
D11*
X171611149Y-101491739D02*
X171795558Y-101454002D01*
X172053304Y-101305192D01*
X172126640Y-101194119D01*
X172148428Y-101112808D01*
X172140453Y-100979948D01*
X172080929Y-100876850D01*
X171969856Y-100803514D01*
X171888545Y-100781726D01*
X171755685Y-100789701D01*
X171519727Y-100857200D01*
X171386866Y-100865174D01*
X171305555Y-100843387D01*
X171194482Y-100770051D01*
X171134959Y-100666952D01*
X171126984Y-100534092D01*
X171148771Y-100452781D01*
X171222108Y-100341708D01*
X171479853Y-100192899D01*
X171664263Y-100155162D01*
X172723443Y-100918288D02*
X172098443Y-99835756D01*
X172510836Y-99597661D01*
X172643696Y-99589686D01*
X172725007Y-99611473D01*
X172836080Y-99684810D01*
X172925366Y-99839457D01*
X172933340Y-99972317D01*
X172911553Y-100053628D01*
X172838217Y-100164701D01*
X172425824Y-100402796D01*
X173805975Y-100293288D02*
X173180975Y-99210756D01*
X174424564Y-99936145D02*
X173603479Y-99585412D01*
X173799564Y-98853613D02*
X173538117Y-99829345D01*
X148096678Y-131508026D02*
X148721678Y-130425494D01*
X149134071Y-130663589D01*
X149207407Y-130774662D01*
X149229194Y-130855973D01*
X149221220Y-130988833D01*
X149131934Y-131143481D01*
X149020861Y-131216817D01*
X148939550Y-131238604D01*
X148806690Y-131230630D01*
X148394297Y-130992534D01*
X149797799Y-132490169D02*
X149734574Y-131766344D01*
X149179209Y-132133026D02*
X149804209Y-131050494D01*
X150216602Y-131288589D01*
X150289939Y-131399662D01*
X150311726Y-131480973D01*
X150303751Y-131613833D01*
X150214466Y-131768481D01*
X150103393Y-131841817D01*
X150022082Y-131863604D01*
X149889222Y-131855630D01*
X149476828Y-131617534D01*
X150589122Y-132190985D02*
X150949966Y-132399319D01*
X150777232Y-133055645D02*
X150261741Y-132758026D01*
X150886741Y-131675494D01*
X151402232Y-131973113D01*
X151711527Y-132151684D02*
X151447371Y-133442550D01*
X152433215Y-132568351D01*
X152407154Y-133446823D02*
X153231940Y-133923014D01*
X154752227Y-135347788D02*
X155377227Y-134265256D01*
X155370816Y-135704931D01*
X155995816Y-134622399D01*
X156213689Y-135435509D02*
X156574533Y-135643842D01*
X156401799Y-136300169D02*
X155886308Y-136002550D01*
X156511308Y-134920018D01*
X157026799Y-135217637D01*
X157387643Y-135425970D02*
X157484331Y-136925169D01*
X158109331Y-135842637D02*
X156762643Y-136508502D01*
X158367076Y-135991446D02*
X158985666Y-136348589D01*
X158051371Y-137252550D02*
X158676371Y-136170018D01*
X158959605Y-137227061D02*
X159784391Y-137703252D01*
X159133903Y-137877550D02*
X159610093Y-137052763D01*
X138488095Y-135815476D02*
X138904761Y-137065476D01*
X139321428Y-135815476D01*
X139976190Y-135815476D02*
X140214285Y-135815476D01*
X140333333Y-135875000D01*
X140452380Y-135994047D01*
X140511904Y-136232142D01*
X140511904Y-136648809D01*
X140452380Y-136886904D01*
X140333333Y-137005952D01*
X140214285Y-137065476D01*
X139976190Y-137065476D01*
X139857142Y-137005952D01*
X139738095Y-136886904D01*
X139678571Y-136648809D01*
X139678571Y-136232142D01*
X139738095Y-135994047D01*
X139857142Y-135875000D01*
X139976190Y-135815476D01*
X141642857Y-137065476D02*
X141047619Y-137065476D01*
X141047619Y-135815476D01*
X142059523Y-135815476D02*
X142059523Y-136827380D01*
X142119047Y-136946428D01*
X142178571Y-137005952D01*
X142297619Y-137065476D01*
X142535714Y-137065476D01*
X142654761Y-137005952D01*
X142714285Y-136946428D01*
X142773809Y-136827380D01*
X142773809Y-135815476D01*
X143369047Y-137065476D02*
X143369047Y-135815476D01*
X143785714Y-136708333D01*
X144202380Y-135815476D01*
X144202380Y-137065476D01*
X144797619Y-136410714D02*
X145214285Y-136410714D01*
X145392857Y-137065476D02*
X144797619Y-137065476D01*
X144797619Y-135815476D01*
X145392857Y-135815476D01*
X113000000Y-136410714D02*
X113178571Y-136470238D01*
X113238095Y-136529761D01*
X113297619Y-136648809D01*
X113297619Y-136827380D01*
X113238095Y-136946428D01*
X113178571Y-137005952D01*
X113059523Y-137065476D01*
X112583333Y-137065476D01*
X112583333Y-135815476D01*
X113000000Y-135815476D01*
X113119047Y-135875000D01*
X113178571Y-135934523D01*
X113238095Y-136053571D01*
X113238095Y-136172619D01*
X113178571Y-136291666D01*
X113119047Y-136351190D01*
X113000000Y-136410714D01*
X112583333Y-136410714D01*
X114547619Y-137065476D02*
X114130952Y-136470238D01*
X113833333Y-137065476D02*
X113833333Y-135815476D01*
X114309523Y-135815476D01*
X114428571Y-135875000D01*
X114488095Y-135934523D01*
X114547619Y-136053571D01*
X114547619Y-136232142D01*
X114488095Y-136351190D01*
X114428571Y-136410714D01*
X114309523Y-136470238D01*
X113833333Y-136470238D01*
X115083333Y-137065476D02*
X115083333Y-135815476D01*
X116333333Y-135875000D02*
X116214285Y-135815476D01*
X116035714Y-135815476D01*
X115857142Y-135875000D01*
X115738095Y-135994047D01*
X115678571Y-136113095D01*
X115619047Y-136351190D01*
X115619047Y-136529761D01*
X115678571Y-136767857D01*
X115738095Y-136886904D01*
X115857142Y-137005952D01*
X116035714Y-137065476D01*
X116154761Y-137065476D01*
X116333333Y-137005952D01*
X116392857Y-136946428D01*
X116392857Y-136529761D01*
X116154761Y-136529761D01*
X116928571Y-137065476D02*
X116928571Y-135815476D01*
X116928571Y-136410714D02*
X117642857Y-136410714D01*
X117642857Y-137065476D02*
X117642857Y-135815476D01*
X118059523Y-135815476D02*
X118773809Y-135815476D01*
X118416666Y-137065476D02*
X118416666Y-135815476D01*
X119190476Y-137065476D02*
X119190476Y-135815476D01*
X119904761Y-137065476D01*
X119904761Y-135815476D01*
X120500000Y-136410714D02*
X120916666Y-136410714D01*
X121095238Y-137065476D02*
X120500000Y-137065476D01*
X120500000Y-135815476D01*
X121095238Y-135815476D01*
X121571428Y-137005952D02*
X121750000Y-137065476D01*
X122047619Y-137065476D01*
X122166666Y-137005952D01*
X122226190Y-136946428D01*
X122285714Y-136827380D01*
X122285714Y-136708333D01*
X122226190Y-136589285D01*
X122166666Y-136529761D01*
X122047619Y-136470238D01*
X121809523Y-136410714D01*
X121690476Y-136351190D01*
X121630952Y-136291666D01*
X121571428Y-136172619D01*
X121571428Y-136053571D01*
X121630952Y-135934523D01*
X121690476Y-135875000D01*
X121809523Y-135815476D01*
X122107142Y-135815476D01*
X122285714Y-135875000D01*
X122761904Y-137005952D02*
X122940476Y-137065476D01*
X123238095Y-137065476D01*
X123357142Y-137005952D01*
X123416666Y-136946428D01*
X123476190Y-136827380D01*
X123476190Y-136708333D01*
X123416666Y-136589285D01*
X123357142Y-136529761D01*
X123238095Y-136470238D01*
X123000000Y-136410714D01*
X122880952Y-136351190D01*
X122821428Y-136291666D01*
X122761904Y-136172619D01*
X122761904Y-136053571D01*
X122821428Y-135934523D01*
X122880952Y-135875000D01*
X123000000Y-135815476D01*
X123297619Y-135815476D01*
X123476190Y-135875000D01*
D10*
X126414404Y-96074000D02*
X126319166Y-96026380D01*
X126176309Y-96026380D01*
X126033452Y-96074000D01*
X125938214Y-96169238D01*
X125890595Y-96264476D01*
X125842976Y-96454952D01*
X125842976Y-96597809D01*
X125890595Y-96788285D01*
X125938214Y-96883523D01*
X126033452Y-96978761D01*
X126176309Y-97026380D01*
X126271547Y-97026380D01*
X126414404Y-96978761D01*
X126462023Y-96931142D01*
X126462023Y-96597809D01*
X126271547Y-96597809D01*
X131462023Y-96931142D02*
X131414404Y-96978761D01*
X131271547Y-97026380D01*
X131176309Y-97026380D01*
X131033452Y-96978761D01*
X130938214Y-96883523D01*
X130890595Y-96788285D01*
X130842976Y-96597809D01*
X130842976Y-96454952D01*
X130890595Y-96264476D01*
X130938214Y-96169238D01*
X131033452Y-96074000D01*
X131176309Y-96026380D01*
X131271547Y-96026380D01*
X131414404Y-96074000D01*
X131462023Y-96121619D01*
X128390595Y-96026380D02*
X128723928Y-97026380D01*
X129057261Y-96026380D01*
X133390595Y-97026380D02*
X133390595Y-96026380D01*
X133628690Y-96026380D01*
X133771547Y-96074000D01*
X133866785Y-96169238D01*
X133914404Y-96264476D01*
X133962023Y-96454952D01*
X133962023Y-96597809D01*
X133914404Y-96788285D01*
X133866785Y-96883523D01*
X133771547Y-96978761D01*
X133628690Y-97026380D01*
X133390595Y-97026380D01*
D12*
X119276562Y-126178571D02*
X119464062Y-124678571D01*
X120035491Y-124678571D01*
X120169419Y-124750000D01*
X120231919Y-124821428D01*
X120285491Y-124964285D01*
X120258705Y-125178571D01*
X120169419Y-125321428D01*
X120089062Y-125392857D01*
X119937276Y-125464285D01*
X119365848Y-125464285D01*
X120776562Y-126178571D02*
X120901562Y-125178571D01*
X120964062Y-124678571D02*
X120883705Y-124750000D01*
X120946205Y-124821428D01*
X121026562Y-124750000D01*
X120964062Y-124678571D01*
X120946205Y-124821428D01*
X121705133Y-126178571D02*
X121571205Y-126107142D01*
X121517633Y-125964285D01*
X121678348Y-124678571D01*
X122490848Y-126178571D02*
X122356919Y-126107142D01*
X122303348Y-125964285D01*
X122464062Y-124678571D01*
X123705133Y-126178571D02*
X123803348Y-125392857D01*
X123749776Y-125250000D01*
X123615848Y-125178571D01*
X123330133Y-125178571D01*
X123178348Y-125250000D01*
X123714062Y-126107142D02*
X123562276Y-126178571D01*
X123205133Y-126178571D01*
X123071205Y-126107142D01*
X123017633Y-125964285D01*
X123035491Y-125821428D01*
X123124776Y-125678571D01*
X123276562Y-125607142D01*
X123633705Y-125607142D01*
X123785491Y-125535714D01*
X124419419Y-126178571D02*
X124544419Y-125178571D01*
X124508705Y-125464285D02*
X124597991Y-125321428D01*
X124678348Y-125250000D01*
X124830133Y-125178571D01*
X124972991Y-125178571D01*
X127455133Y-124750000D02*
X127321205Y-124678571D01*
X127106919Y-124678571D01*
X126883705Y-124750000D01*
X126722991Y-124892857D01*
X126633705Y-125035714D01*
X126526562Y-125321428D01*
X126499776Y-125535714D01*
X126535491Y-125821428D01*
X126589062Y-125964285D01*
X126714062Y-126107142D01*
X126919419Y-126178571D01*
X127062276Y-126178571D01*
X127285491Y-126107142D01*
X127365848Y-126035714D01*
X127428348Y-125535714D01*
X127142633Y-125535714D01*
X127990848Y-126178571D02*
X128115848Y-125178571D01*
X128080133Y-125464285D02*
X128169419Y-125321428D01*
X128249776Y-125250000D01*
X128401562Y-125178571D01*
X128544419Y-125178571D01*
X129133705Y-126178571D02*
X128999776Y-126107142D01*
X128937276Y-126035714D01*
X128883705Y-125892857D01*
X128937276Y-125464285D01*
X129026562Y-125321428D01*
X129106919Y-125250000D01*
X129258705Y-125178571D01*
X129472991Y-125178571D01*
X129606919Y-125250000D01*
X129669419Y-125321428D01*
X129722991Y-125464285D01*
X129669419Y-125892857D01*
X129580133Y-126035714D01*
X129499776Y-126107142D01*
X129347991Y-126178571D01*
X129133705Y-126178571D01*
X130258705Y-125178571D02*
X130419419Y-126178571D01*
X130794419Y-125464285D01*
X130990848Y-126178571D01*
X131401562Y-125178571D01*
X131847991Y-126178571D02*
X131972991Y-125178571D01*
X132035491Y-124678571D02*
X131955133Y-124750000D01*
X132017633Y-124821428D01*
X132097991Y-124750000D01*
X132035491Y-124678571D01*
X132017633Y-124821428D01*
X132687276Y-125178571D02*
X132562276Y-126178571D01*
X132669419Y-125321428D02*
X132749776Y-125250000D01*
X132901562Y-125178571D01*
X133115848Y-125178571D01*
X133249776Y-125250000D01*
X133303348Y-125392857D01*
X133205133Y-126178571D01*
X134687276Y-125178571D02*
X134535491Y-126392857D01*
X134446205Y-126535714D01*
X134365848Y-126607142D01*
X134214062Y-126678571D01*
X133999776Y-126678571D01*
X133865848Y-126607142D01*
X134571205Y-126107142D02*
X134419419Y-126178571D01*
X134133705Y-126178571D01*
X133999776Y-126107142D01*
X133937276Y-126035714D01*
X133883705Y-125892857D01*
X133937276Y-125464285D01*
X134026562Y-125321428D01*
X134106919Y-125250000D01*
X134258705Y-125178571D01*
X134544419Y-125178571D01*
X134678348Y-125250000D01*
X136401562Y-125178571D02*
X136633705Y-126178571D01*
X137115848Y-125178571D01*
X138347991Y-126178571D02*
X137490848Y-126178571D01*
X137919419Y-126178571D02*
X138106919Y-124678571D01*
X137937276Y-124892857D01*
X137776562Y-125035714D01*
X137624776Y-125107142D01*
X139008705Y-126035714D02*
X139071205Y-126107142D01*
X138990848Y-126178571D01*
X138928348Y-126107142D01*
X139008705Y-126035714D01*
X138990848Y-126178571D01*
X140178348Y-124678571D02*
X140321205Y-124678571D01*
X140455133Y-124750000D01*
X140517633Y-124821428D01*
X140571205Y-124964285D01*
X140606919Y-125250000D01*
X140562276Y-125607142D01*
X140455133Y-125892857D01*
X140365848Y-126035714D01*
X140285491Y-126107142D01*
X140133705Y-126178571D01*
X139990848Y-126178571D01*
X139856919Y-126107142D01*
X139794419Y-126035714D01*
X139740848Y-125892857D01*
X139705133Y-125607142D01*
X139749776Y-125250000D01*
X139856919Y-124964285D01*
X139946205Y-124821428D01*
X140026562Y-124750000D01*
X140178348Y-124678571D01*
D11*
X118000000Y-127500000D02*
X142000000Y-127500000D01*
X127738095Y-139220476D02*
X127738095Y-137970476D01*
X128154761Y-138863333D01*
X128571428Y-137970476D01*
X128571428Y-139220476D01*
X129404761Y-137970476D02*
X129642857Y-137970476D01*
X129761904Y-138030000D01*
X129880952Y-138149047D01*
X129940476Y-138387142D01*
X129940476Y-138803809D01*
X129880952Y-139041904D01*
X129761904Y-139160952D01*
X129642857Y-139220476D01*
X129404761Y-139220476D01*
X129285714Y-139160952D01*
X129166666Y-139041904D01*
X129107142Y-138803809D01*
X129107142Y-138387142D01*
X129166666Y-138149047D01*
X129285714Y-138030000D01*
X129404761Y-137970476D01*
X130476190Y-139220476D02*
X130476190Y-137970476D01*
X130773809Y-137970476D01*
X130952380Y-138030000D01*
X131071428Y-138149047D01*
X131130952Y-138268095D01*
X131190476Y-138506190D01*
X131190476Y-138684761D01*
X131130952Y-138922857D01*
X131071428Y-139041904D01*
X130952380Y-139160952D01*
X130773809Y-139220476D01*
X130476190Y-139220476D01*
X131726190Y-138565714D02*
X132142857Y-138565714D01*
X132321428Y-139220476D02*
X131726190Y-139220476D01*
X131726190Y-137970476D01*
X132321428Y-137970476D01*
D12*
X121151562Y-129464285D02*
X121089062Y-129392857D01*
X120955133Y-129321428D01*
X120812276Y-129321428D01*
X120660491Y-129392857D01*
X120580133Y-129464285D01*
X120490848Y-129607142D01*
X120472991Y-129750000D01*
X120526562Y-129892857D01*
X120589062Y-129964285D01*
X120722991Y-130035714D01*
X120865848Y-130035714D01*
X121017633Y-129964285D01*
X121097991Y-129892857D01*
X121169419Y-129321428D02*
X121097991Y-129892857D01*
X121160491Y-129964285D01*
X121231919Y-129964285D01*
X121383705Y-129892857D01*
X121472991Y-129750000D01*
X121517633Y-129392857D01*
X121401562Y-129178571D01*
X121205133Y-129035714D01*
X120928348Y-128964285D01*
X120633705Y-129035714D01*
X120401562Y-129178571D01*
X120231919Y-129392857D01*
X120124776Y-129678571D01*
X120160491Y-129964285D01*
X120276562Y-130178571D01*
X120472991Y-130321428D01*
X120749776Y-130392857D01*
X121044419Y-130321428D01*
X121276562Y-130178571D01*
X122642633Y-130107142D02*
X122490848Y-130178571D01*
X122205133Y-130178571D01*
X122071205Y-130107142D01*
X122017633Y-129964285D01*
X122089062Y-129392857D01*
X122178348Y-129250000D01*
X122330133Y-129178571D01*
X122615848Y-129178571D01*
X122749776Y-129250000D01*
X122803348Y-129392857D01*
X122785491Y-129535714D01*
X122053348Y-129678571D01*
X123205133Y-130178571D02*
X124115848Y-129178571D01*
X123330133Y-129178571D02*
X123990848Y-130178571D01*
X124472991Y-129178571D02*
X125044419Y-129178571D01*
X124749776Y-128678571D02*
X124589062Y-129964285D01*
X124642633Y-130107142D01*
X124776562Y-130178571D01*
X124919419Y-130178571D01*
X125044419Y-130321428D02*
X126187276Y-130321428D01*
X126499776Y-130107142D02*
X126633705Y-130178571D01*
X126919419Y-130178571D01*
X127071205Y-130107142D01*
X127160491Y-129964285D01*
X127169419Y-129892857D01*
X127115848Y-129750000D01*
X126981919Y-129678571D01*
X126767633Y-129678571D01*
X126633705Y-129607142D01*
X126580133Y-129464285D01*
X126589062Y-129392857D01*
X126678348Y-129250000D01*
X126830133Y-129178571D01*
X127044419Y-129178571D01*
X127178348Y-129250000D01*
X128544419Y-129178571D02*
X128419419Y-130178571D01*
X127901562Y-129178571D02*
X127803348Y-129964285D01*
X127856919Y-130107142D01*
X127990848Y-130178571D01*
X128205133Y-130178571D01*
X128356919Y-130107142D01*
X128437276Y-130035714D01*
X129133705Y-130178571D02*
X129258705Y-129178571D01*
X129321205Y-128678571D02*
X129240848Y-128750000D01*
X129303348Y-128821428D01*
X129383705Y-128750000D01*
X129321205Y-128678571D01*
X129303348Y-128821428D01*
X131089062Y-128821428D02*
X131169419Y-128750000D01*
X131321205Y-128678571D01*
X131678348Y-128678571D01*
X131812276Y-128750000D01*
X131874776Y-128821428D01*
X131928348Y-128964285D01*
X131910491Y-129107142D01*
X131812276Y-129321428D01*
X130847991Y-130178571D01*
X131776562Y-130178571D01*
X132892633Y-128678571D02*
X133035491Y-128678571D01*
X133169419Y-128750000D01*
X133231919Y-128821428D01*
X133285491Y-128964285D01*
X133321205Y-129250000D01*
X133276562Y-129607142D01*
X133169419Y-129892857D01*
X133080133Y-130035714D01*
X132999776Y-130107142D01*
X132847991Y-130178571D01*
X132705133Y-130178571D01*
X132571205Y-130107142D01*
X132508705Y-130035714D01*
X132455133Y-129892857D01*
X132419419Y-129607142D01*
X132464062Y-129250000D01*
X132571205Y-128964285D01*
X132660491Y-128821428D01*
X132740848Y-128750000D01*
X132892633Y-128678571D01*
X133946205Y-128821428D02*
X134026562Y-128750000D01*
X134178348Y-128678571D01*
X134535491Y-128678571D01*
X134669419Y-128750000D01*
X134731919Y-128821428D01*
X134785491Y-128964285D01*
X134767633Y-129107142D01*
X134669419Y-129321428D01*
X133705133Y-130178571D01*
X134633705Y-130178571D01*
X136062276Y-130178571D02*
X135205133Y-130178571D01*
X135633705Y-130178571D02*
X135821205Y-128678571D01*
X135651562Y-128892857D01*
X135490848Y-129035714D01*
X135339062Y-129107142D01*
X136722991Y-130035714D02*
X136785491Y-130107142D01*
X136705133Y-130178571D01*
X136642633Y-130107142D01*
X136722991Y-130035714D01*
X136705133Y-130178571D01*
X137892633Y-128678571D02*
X138035491Y-128678571D01*
X138169419Y-128750000D01*
X138231919Y-128821428D01*
X138285491Y-128964285D01*
X138321205Y-129250000D01*
X138276562Y-129607142D01*
X138169419Y-129892857D01*
X138080133Y-130035714D01*
X137999776Y-130107142D01*
X137847991Y-130178571D01*
X137705133Y-130178571D01*
X137571205Y-130107142D01*
X137508705Y-130035714D01*
X137455133Y-129892857D01*
X137419419Y-129607142D01*
X137464062Y-129250000D01*
X137571205Y-128964285D01*
X137660491Y-128821428D01*
X137740848Y-128750000D01*
X137892633Y-128678571D01*
X138919419Y-130178571D02*
X139205133Y-130178571D01*
X139356919Y-130107142D01*
X139437276Y-130035714D01*
X139606919Y-129821428D01*
X139714062Y-129535714D01*
X139785491Y-128964285D01*
X139731919Y-128821428D01*
X139669419Y-128750000D01*
X139535491Y-128678571D01*
X139249776Y-128678571D01*
X139097991Y-128750000D01*
X139017633Y-128821428D01*
X138928348Y-128964285D01*
X138883705Y-129321428D01*
X138937276Y-129464285D01*
X138999776Y-129535714D01*
X139133705Y-129607142D01*
X139419419Y-129607142D01*
X139571205Y-129535714D01*
X139651562Y-129464285D01*
X139740848Y-129321428D01*
D10*
G04 #@! TO.C,U3*
X117400000Y-93324000D02*
X117400000Y-119324000D01*
X137500000Y-119324000D02*
X142600000Y-119324000D01*
X117400000Y-93324000D02*
X142600000Y-93324000D01*
X142600000Y-93324000D02*
X142600000Y-119324000D01*
X120500000Y-117224000D02*
G75*
G03X120500000Y-117224000I-1000000J0D01*
G01*
X120500000Y-95424000D02*
G75*
G03X120500000Y-95424000I-1000000J0D01*
G01*
X141500000Y-95424000D02*
G75*
G03X141500000Y-95424000I-1000000J0D01*
G01*
X141500000Y-117224000D02*
G75*
G03X141500000Y-117224000I-1000000J0D01*
G01*
X121100000Y-95424000D02*
G75*
G03X121100000Y-95424000I-1600000J0D01*
G01*
X121100000Y-117224000D02*
G75*
G03X121100000Y-117224000I-1600000J0D01*
G01*
X142100000Y-117224000D02*
G75*
G03X142100000Y-117224000I-1600000J0D01*
G01*
X142100000Y-95424000D02*
G75*
G03X142100000Y-95424000I-1600000J0D01*
G01*
X117500000Y-97574000D02*
X142500000Y-97574000D01*
X117500000Y-115074000D02*
X142500000Y-115074000D01*
X117500000Y-112324000D02*
X142500000Y-112324000D01*
X122500000Y-119324000D02*
X122500000Y-117324000D01*
X137500000Y-119324000D02*
X137500000Y-117324000D01*
X137000000Y-116824000D02*
X123000000Y-116824000D01*
X122500000Y-117324000D02*
G75*
G02X123000000Y-116824000I500000J0D01*
G01*
X137000000Y-116824000D02*
G75*
G02X137500000Y-117324000I0J-500000D01*
G01*
X117400000Y-119324000D02*
X122500000Y-119324000D01*
D13*
G04 #@! TO.C,C1*
X112564759Y-80846000D02*
X112564759Y-81476000D01*
X112249759Y-81161000D02*
X112879759Y-81161000D01*
X118991000Y-82598000D02*
X118991000Y-83402000D01*
X118951000Y-82367000D02*
X118951000Y-83633000D01*
X118911000Y-82198000D02*
X118911000Y-83802000D01*
X118871000Y-82060000D02*
X118871000Y-83940000D01*
X118831000Y-81941000D02*
X118831000Y-84059000D01*
X118791000Y-81835000D02*
X118791000Y-84165000D01*
X118751000Y-81738000D02*
X118751000Y-84262000D01*
X118711000Y-81650000D02*
X118711000Y-84350000D01*
X118671000Y-81568000D02*
X118671000Y-84432000D01*
X118631000Y-81491000D02*
X118631000Y-84509000D01*
X118591000Y-81419000D02*
X118591000Y-84581000D01*
X118551000Y-81350000D02*
X118551000Y-84650000D01*
X118511000Y-81286000D02*
X118511000Y-84714000D01*
X118471000Y-81224000D02*
X118471000Y-84776000D01*
X118431000Y-81166000D02*
X118431000Y-84834000D01*
X118391000Y-81110000D02*
X118391000Y-84890000D01*
X118351000Y-81056000D02*
X118351000Y-84944000D01*
X118311000Y-81005000D02*
X118311000Y-84995000D01*
X118271000Y-80956000D02*
X118271000Y-85044000D01*
X118231000Y-80908000D02*
X118231000Y-85092000D01*
X118191000Y-80863000D02*
X118191000Y-85137000D01*
X118151000Y-80818000D02*
X118151000Y-85182000D01*
X118111000Y-80776000D02*
X118111000Y-85224000D01*
X118071000Y-80735000D02*
X118071000Y-85265000D01*
X118031000Y-84040000D02*
X118031000Y-85305000D01*
X118031000Y-80695000D02*
X118031000Y-81960000D01*
X117991000Y-84040000D02*
X117991000Y-85343000D01*
X117991000Y-80657000D02*
X117991000Y-81960000D01*
X117951000Y-84040000D02*
X117951000Y-85380000D01*
X117951000Y-80620000D02*
X117951000Y-81960000D01*
X117911000Y-84040000D02*
X117911000Y-85416000D01*
X117911000Y-80584000D02*
X117911000Y-81960000D01*
X117871000Y-84040000D02*
X117871000Y-85450000D01*
X117871000Y-80550000D02*
X117871000Y-81960000D01*
X117831000Y-84040000D02*
X117831000Y-85484000D01*
X117831000Y-80516000D02*
X117831000Y-81960000D01*
X117791000Y-84040000D02*
X117791000Y-85516000D01*
X117791000Y-80484000D02*
X117791000Y-81960000D01*
X117751000Y-84040000D02*
X117751000Y-85548000D01*
X117751000Y-80452000D02*
X117751000Y-81960000D01*
X117711000Y-84040000D02*
X117711000Y-85578000D01*
X117711000Y-80422000D02*
X117711000Y-81960000D01*
X117671000Y-84040000D02*
X117671000Y-85607000D01*
X117671000Y-80393000D02*
X117671000Y-81960000D01*
X117631000Y-84040000D02*
X117631000Y-85636000D01*
X117631000Y-80364000D02*
X117631000Y-81960000D01*
X117591000Y-84040000D02*
X117591000Y-85664000D01*
X117591000Y-80336000D02*
X117591000Y-81960000D01*
X117551000Y-84040000D02*
X117551000Y-85690000D01*
X117551000Y-80310000D02*
X117551000Y-81960000D01*
X117511000Y-84040000D02*
X117511000Y-85716000D01*
X117511000Y-80284000D02*
X117511000Y-81960000D01*
X117471000Y-84040000D02*
X117471000Y-85742000D01*
X117471000Y-80258000D02*
X117471000Y-81960000D01*
X117431000Y-84040000D02*
X117431000Y-85766000D01*
X117431000Y-80234000D02*
X117431000Y-81960000D01*
X117391000Y-84040000D02*
X117391000Y-85790000D01*
X117391000Y-80210000D02*
X117391000Y-81960000D01*
X117351000Y-84040000D02*
X117351000Y-85812000D01*
X117351000Y-80188000D02*
X117351000Y-81960000D01*
X117311000Y-84040000D02*
X117311000Y-85834000D01*
X117311000Y-80166000D02*
X117311000Y-81960000D01*
X117271000Y-84040000D02*
X117271000Y-85856000D01*
X117271000Y-80144000D02*
X117271000Y-81960000D01*
X117231000Y-84040000D02*
X117231000Y-85876000D01*
X117231000Y-80124000D02*
X117231000Y-81960000D01*
X117191000Y-84040000D02*
X117191000Y-85896000D01*
X117191000Y-80104000D02*
X117191000Y-81960000D01*
X117151000Y-84040000D02*
X117151000Y-85916000D01*
X117151000Y-80084000D02*
X117151000Y-81960000D01*
X117111000Y-84040000D02*
X117111000Y-85934000D01*
X117111000Y-80066000D02*
X117111000Y-81960000D01*
X117071000Y-84040000D02*
X117071000Y-85952000D01*
X117071000Y-80048000D02*
X117071000Y-81960000D01*
X117031000Y-84040000D02*
X117031000Y-85970000D01*
X117031000Y-80030000D02*
X117031000Y-81960000D01*
X116991000Y-84040000D02*
X116991000Y-85986000D01*
X116991000Y-80014000D02*
X116991000Y-81960000D01*
X116951000Y-84040000D02*
X116951000Y-86002000D01*
X116951000Y-79998000D02*
X116951000Y-81960000D01*
X116911000Y-84040000D02*
X116911000Y-86018000D01*
X116911000Y-79982000D02*
X116911000Y-81960000D01*
X116871000Y-84040000D02*
X116871000Y-86033000D01*
X116871000Y-79967000D02*
X116871000Y-81960000D01*
X116831000Y-84040000D02*
X116831000Y-86047000D01*
X116831000Y-79953000D02*
X116831000Y-81960000D01*
X116791000Y-84040000D02*
X116791000Y-86061000D01*
X116791000Y-79939000D02*
X116791000Y-81960000D01*
X116751000Y-84040000D02*
X116751000Y-86074000D01*
X116751000Y-79926000D02*
X116751000Y-81960000D01*
X116711000Y-84040000D02*
X116711000Y-86086000D01*
X116711000Y-79914000D02*
X116711000Y-81960000D01*
X116671000Y-84040000D02*
X116671000Y-86098000D01*
X116671000Y-79902000D02*
X116671000Y-81960000D01*
X116631000Y-84040000D02*
X116631000Y-86110000D01*
X116631000Y-79890000D02*
X116631000Y-81960000D01*
X116591000Y-84040000D02*
X116591000Y-86121000D01*
X116591000Y-79879000D02*
X116591000Y-81960000D01*
X116551000Y-84040000D02*
X116551000Y-86131000D01*
X116551000Y-79869000D02*
X116551000Y-81960000D01*
X116511000Y-84040000D02*
X116511000Y-86141000D01*
X116511000Y-79859000D02*
X116511000Y-81960000D01*
X116471000Y-84040000D02*
X116471000Y-86150000D01*
X116471000Y-79850000D02*
X116471000Y-81960000D01*
X116430000Y-84040000D02*
X116430000Y-86159000D01*
X116430000Y-79841000D02*
X116430000Y-81960000D01*
X116390000Y-84040000D02*
X116390000Y-86167000D01*
X116390000Y-79833000D02*
X116390000Y-81960000D01*
X116350000Y-84040000D02*
X116350000Y-86175000D01*
X116350000Y-79825000D02*
X116350000Y-81960000D01*
X116310000Y-84040000D02*
X116310000Y-86182000D01*
X116310000Y-79818000D02*
X116310000Y-81960000D01*
X116270000Y-84040000D02*
X116270000Y-86189000D01*
X116270000Y-79811000D02*
X116270000Y-81960000D01*
X116230000Y-84040000D02*
X116230000Y-86195000D01*
X116230000Y-79805000D02*
X116230000Y-81960000D01*
X116190000Y-84040000D02*
X116190000Y-86201000D01*
X116190000Y-79799000D02*
X116190000Y-81960000D01*
X116150000Y-84040000D02*
X116150000Y-86206000D01*
X116150000Y-79794000D02*
X116150000Y-81960000D01*
X116110000Y-84040000D02*
X116110000Y-86211000D01*
X116110000Y-79789000D02*
X116110000Y-81960000D01*
X116070000Y-84040000D02*
X116070000Y-86215000D01*
X116070000Y-79785000D02*
X116070000Y-81960000D01*
X116030000Y-84040000D02*
X116030000Y-86218000D01*
X116030000Y-79782000D02*
X116030000Y-81960000D01*
X115990000Y-84040000D02*
X115990000Y-86222000D01*
X115990000Y-79778000D02*
X115990000Y-81960000D01*
X115950000Y-79776000D02*
X115950000Y-86224000D01*
X115910000Y-79773000D02*
X115910000Y-86227000D01*
X115870000Y-79772000D02*
X115870000Y-86228000D01*
X115830000Y-79770000D02*
X115830000Y-86230000D01*
X115790000Y-79770000D02*
X115790000Y-86230000D01*
X115750000Y-79770000D02*
X115750000Y-86230000D01*
X119020000Y-83000000D02*
G75*
G03X119020000Y-83000000I-3270000J0D01*
G01*
G04 #@! TO.C,RV1*
X121120000Y-163120000D02*
X114880000Y-163120000D01*
X121120000Y-153120000D02*
X114880000Y-153120000D01*
X114880000Y-153120000D02*
X114880000Y-163120000D01*
X121120000Y-153120000D02*
X121120000Y-163120000D01*
X121620000Y-153120000D02*
X114380000Y-153120000D01*
X121620000Y-148120000D02*
X114380000Y-148120000D01*
X114380000Y-148120000D02*
X114380000Y-153120000D01*
X121620000Y-148120000D02*
X121620000Y-153120000D01*
X122870000Y-148120000D02*
X113130000Y-148120000D01*
X122870000Y-138329000D02*
X113130000Y-138329000D01*
X113130000Y-138329000D02*
X113130000Y-148120000D01*
X122870000Y-138329000D02*
X122870000Y-148120000D01*
G04 #@! TO.C,RV2*
X146870000Y-138329000D02*
X146870000Y-148120000D01*
X137130000Y-138329000D02*
X137130000Y-148120000D01*
X146870000Y-138329000D02*
X137130000Y-138329000D01*
X146870000Y-148120000D02*
X137130000Y-148120000D01*
X145620000Y-148120000D02*
X145620000Y-153120000D01*
X138380000Y-148120000D02*
X138380000Y-153120000D01*
X145620000Y-148120000D02*
X138380000Y-148120000D01*
X145620000Y-153120000D02*
X138380000Y-153120000D01*
X145120000Y-153120000D02*
X145120000Y-163120000D01*
X138880000Y-153120000D02*
X138880000Y-163120000D01*
X145120000Y-153120000D02*
X138880000Y-153120000D01*
X145120000Y-163120000D02*
X138880000Y-163120000D01*
D10*
G04 #@! TO.C,U2*
X154679852Y-102413818D02*
X172277488Y-92253818D01*
X172277488Y-92253818D02*
X162117488Y-74656182D01*
X162117488Y-74656182D02*
X144519852Y-84816182D01*
X144519852Y-84816182D02*
X148964852Y-92515148D01*
X148964852Y-92515148D02*
G75*
G02X150234852Y-94714852I635000J-1099852D01*
G01*
X150234852Y-94714852D02*
X154679852Y-102413818D01*
X171007488Y-90054114D02*
X157809261Y-97674114D01*
X157809261Y-97674114D02*
X150189261Y-84475886D01*
X150189261Y-84475886D02*
X163387488Y-76855886D01*
D13*
G04 #@! TO.C,SW1*
X127825000Y-147330000D02*
X132325000Y-147330000D01*
X126575000Y-143330000D02*
X126575000Y-144830000D01*
X132325000Y-140830000D02*
X127825000Y-140830000D01*
X133575000Y-144830000D02*
X133575000Y-143330000D01*
G04 #@! TO.C,CN1*
X119000000Y-66500000D02*
X119000000Y-69500000D01*
X116000000Y-66500000D02*
X119000000Y-66500000D01*
X112700000Y-74500000D02*
X112700000Y-75100000D01*
X112700000Y-69900000D02*
X112700000Y-70500000D01*
X118550000Y-67000000D02*
X118550000Y-78050000D01*
X112700000Y-67000000D02*
X118550000Y-67000000D01*
X112700000Y-70750000D02*
X112700000Y-74250000D01*
X112700000Y-78050000D02*
X118550000Y-78050000D01*
X112700000Y-67000000D02*
X112700000Y-69650000D01*
X112700000Y-75400000D02*
X112700000Y-78050000D01*
G04 #@! TO.C,CN2*
X141700000Y-75400000D02*
X141700000Y-78050000D01*
X141700000Y-67000000D02*
X141700000Y-69650000D01*
X141700000Y-78050000D02*
X147550000Y-78050000D01*
X141700000Y-70750000D02*
X141700000Y-74250000D01*
X141700000Y-67000000D02*
X147550000Y-67000000D01*
X147550000Y-67000000D02*
X147550000Y-78050000D01*
X141700000Y-69900000D02*
X141700000Y-70500000D01*
X141700000Y-74500000D02*
X141700000Y-75100000D01*
X145000000Y-66500000D02*
X148000000Y-66500000D01*
X148000000Y-66500000D02*
X148000000Y-69500000D01*
D14*
G04 #@! TO.C,CN3*
X96267696Y-76893211D02*
X103454131Y-81042301D01*
X96055111Y-93857779D02*
X88868676Y-89708689D01*
X101250813Y-96857519D02*
X99345869Y-95757699D01*
X102801483Y-94171680D02*
X101250813Y-96857519D01*
X104051163Y-92007171D02*
X103550783Y-92873854D01*
X105100183Y-90190215D02*
X104800463Y-90709345D01*
X106349863Y-88025706D02*
X105849483Y-88892389D01*
X108649833Y-84042041D02*
X106656901Y-82891421D01*
X107099163Y-86727880D02*
X108649833Y-84042041D01*
D15*
X91943414Y-87339647D02*
X96376534Y-91365579D01*
X92578414Y-86239795D02*
X91943414Y-87339647D01*
X98281534Y-88066022D02*
X92578414Y-86239795D01*
X95118413Y-81840385D02*
X99551534Y-85866318D01*
X95753414Y-80740533D02*
X95118413Y-81840385D01*
X101456534Y-82566761D02*
X95753414Y-80740533D01*
D14*
X96276495Y-76898291D02*
X88877475Y-89713769D01*
D13*
G04 #@! TO.C,CN4*
X167246987Y-113914648D02*
X167405000Y-114640962D01*
X168113013Y-114414648D02*
X167246987Y-113914648D01*
X167405000Y-114640962D02*
X168113013Y-114414648D01*
D10*
X166277947Y-128193074D02*
X159566250Y-124318074D01*
X155799040Y-122143074D02*
X153720579Y-120943074D01*
X153720579Y-120943074D02*
X159620579Y-110723975D01*
X159620579Y-110723975D02*
X159707182Y-110773975D01*
X161958848Y-112073975D02*
X165206443Y-113948975D01*
X169103557Y-116198975D02*
X172177947Y-117973975D01*
X172177947Y-117973975D02*
X166277947Y-128193074D01*
X167827947Y-125508396D02*
X170945639Y-127308396D01*
X170945639Y-127308396D02*
X174045639Y-121939038D01*
X174045639Y-121939038D02*
X170927947Y-120139038D01*
D13*
G04 #@! TO.C,CN5*
X94240877Y-129194906D02*
X94288986Y-128578233D01*
X95669082Y-131268630D02*
X95799082Y-131493797D01*
X95395877Y-131195425D02*
X95669082Y-131268630D01*
X90695877Y-123054786D02*
X90974082Y-123136652D01*
X91103986Y-123061652D02*
X90974082Y-123136652D01*
X91103986Y-123061652D02*
X94288986Y-128578233D01*
X93546363Y-118071973D02*
X91987517Y-118971973D01*
X98742515Y-115071973D02*
X94672196Y-117421973D01*
X89765877Y-121443979D02*
X89839082Y-121170774D01*
X89765877Y-121443979D02*
X90695877Y-123054786D01*
X95395877Y-131195425D02*
X94240877Y-129194906D01*
X103341110Y-112416973D02*
X100214759Y-114221973D01*
X103566110Y-112806684D02*
X103341110Y-112416973D01*
X110326110Y-124515348D02*
X98193094Y-131520348D01*
X109366110Y-122852579D02*
X110326110Y-124515348D01*
G04 #@! TO.C,J1*
X174016518Y-97466814D02*
X172686518Y-95163186D01*
X171764852Y-98766814D02*
X174016518Y-97466814D01*
X170434852Y-96463186D02*
X172686518Y-95163186D01*
X171764852Y-98766814D02*
X170434852Y-96463186D01*
X170665000Y-99401814D02*
X169513186Y-100066814D01*
X169513186Y-100066814D02*
X168848186Y-98915000D01*
G04 #@! TO.C,R1*
X133270000Y-87236000D02*
X133270000Y-87566000D01*
X133270000Y-87566000D02*
X126730000Y-87566000D01*
X126730000Y-87566000D02*
X126730000Y-87236000D01*
X133270000Y-85156000D02*
X133270000Y-84826000D01*
X133270000Y-84826000D02*
X126730000Y-84826000D01*
X126730000Y-84826000D02*
X126730000Y-85156000D01*
G04 #@! TO.C,R2*
X126730000Y-87874000D02*
X126730000Y-88204000D01*
X133270000Y-87874000D02*
X126730000Y-87874000D01*
X133270000Y-88204000D02*
X133270000Y-87874000D01*
X126730000Y-90614000D02*
X126730000Y-90284000D01*
X133270000Y-90614000D02*
X126730000Y-90614000D01*
X133270000Y-90284000D02*
X133270000Y-90614000D01*
G04 #@! TO.C,R3*
X110215000Y-108174057D02*
X110545000Y-108174057D01*
X110215000Y-101634057D02*
X110215000Y-108174057D01*
X110545000Y-101634057D02*
X110215000Y-101634057D01*
X112955000Y-108174057D02*
X112625000Y-108174057D01*
X112955000Y-101634057D02*
X112955000Y-108174057D01*
X112625000Y-101634057D02*
X112955000Y-101634057D01*
G04 #@! TO.C,R4*
X109450000Y-101634057D02*
X109780000Y-101634057D01*
X109780000Y-101634057D02*
X109780000Y-108174057D01*
X109780000Y-108174057D02*
X109450000Y-108174057D01*
X107370000Y-101634057D02*
X107040000Y-101634057D01*
X107040000Y-101634057D02*
X107040000Y-108174057D01*
X107040000Y-108174057D02*
X107370000Y-108174057D01*
G04 #@! TO.C,R5*
X106275000Y-101634057D02*
X106605000Y-101634057D01*
X106605000Y-101634057D02*
X106605000Y-108174057D01*
X106605000Y-108174057D02*
X106275000Y-108174057D01*
X104195000Y-101634057D02*
X103865000Y-101634057D01*
X103865000Y-101634057D02*
X103865000Y-108174057D01*
X103865000Y-108174057D02*
X104195000Y-108174057D01*
G04 #@! TO.C,R6*
X154225000Y-107310000D02*
X154225000Y-107640000D01*
X154225000Y-107640000D02*
X147685000Y-107640000D01*
X147685000Y-107640000D02*
X147685000Y-107310000D01*
X154225000Y-105230000D02*
X154225000Y-104900000D01*
X154225000Y-104900000D02*
X147685000Y-104900000D01*
X147685000Y-104900000D02*
X147685000Y-105230000D01*
G04 #@! TO.C,R7*
X147685000Y-108075000D02*
X147685000Y-108405000D01*
X154225000Y-108075000D02*
X147685000Y-108075000D01*
X154225000Y-108405000D02*
X154225000Y-108075000D01*
X147685000Y-110815000D02*
X147685000Y-110485000D01*
X154225000Y-110815000D02*
X147685000Y-110815000D01*
X154225000Y-110485000D02*
X154225000Y-110815000D01*
G04 #@! TO.C,C2*
X99595000Y-105000000D02*
G75*
G03X99595000Y-105000000I-3270000J0D01*
G01*
X96325000Y-101770000D02*
X96325000Y-108230000D01*
X96365000Y-101770000D02*
X96365000Y-108230000D01*
X96405000Y-101770000D02*
X96405000Y-108230000D01*
X96445000Y-101772000D02*
X96445000Y-108228000D01*
X96485000Y-101773000D02*
X96485000Y-108227000D01*
X96525000Y-101776000D02*
X96525000Y-108224000D01*
X96565000Y-101778000D02*
X96565000Y-103960000D01*
X96565000Y-106040000D02*
X96565000Y-108222000D01*
X96605000Y-101782000D02*
X96605000Y-103960000D01*
X96605000Y-106040000D02*
X96605000Y-108218000D01*
X96645000Y-101785000D02*
X96645000Y-103960000D01*
X96645000Y-106040000D02*
X96645000Y-108215000D01*
X96685000Y-101789000D02*
X96685000Y-103960000D01*
X96685000Y-106040000D02*
X96685000Y-108211000D01*
X96725000Y-101794000D02*
X96725000Y-103960000D01*
X96725000Y-106040000D02*
X96725000Y-108206000D01*
X96765000Y-101799000D02*
X96765000Y-103960000D01*
X96765000Y-106040000D02*
X96765000Y-108201000D01*
X96805000Y-101805000D02*
X96805000Y-103960000D01*
X96805000Y-106040000D02*
X96805000Y-108195000D01*
X96845000Y-101811000D02*
X96845000Y-103960000D01*
X96845000Y-106040000D02*
X96845000Y-108189000D01*
X96885000Y-101818000D02*
X96885000Y-103960000D01*
X96885000Y-106040000D02*
X96885000Y-108182000D01*
X96925000Y-101825000D02*
X96925000Y-103960000D01*
X96925000Y-106040000D02*
X96925000Y-108175000D01*
X96965000Y-101833000D02*
X96965000Y-103960000D01*
X96965000Y-106040000D02*
X96965000Y-108167000D01*
X97005000Y-101841000D02*
X97005000Y-103960000D01*
X97005000Y-106040000D02*
X97005000Y-108159000D01*
X97046000Y-101850000D02*
X97046000Y-103960000D01*
X97046000Y-106040000D02*
X97046000Y-108150000D01*
X97086000Y-101859000D02*
X97086000Y-103960000D01*
X97086000Y-106040000D02*
X97086000Y-108141000D01*
X97126000Y-101869000D02*
X97126000Y-103960000D01*
X97126000Y-106040000D02*
X97126000Y-108131000D01*
X97166000Y-101879000D02*
X97166000Y-103960000D01*
X97166000Y-106040000D02*
X97166000Y-108121000D01*
X97206000Y-101890000D02*
X97206000Y-103960000D01*
X97206000Y-106040000D02*
X97206000Y-108110000D01*
X97246000Y-101902000D02*
X97246000Y-103960000D01*
X97246000Y-106040000D02*
X97246000Y-108098000D01*
X97286000Y-101914000D02*
X97286000Y-103960000D01*
X97286000Y-106040000D02*
X97286000Y-108086000D01*
X97326000Y-101926000D02*
X97326000Y-103960000D01*
X97326000Y-106040000D02*
X97326000Y-108074000D01*
X97366000Y-101939000D02*
X97366000Y-103960000D01*
X97366000Y-106040000D02*
X97366000Y-108061000D01*
X97406000Y-101953000D02*
X97406000Y-103960000D01*
X97406000Y-106040000D02*
X97406000Y-108047000D01*
X97446000Y-101967000D02*
X97446000Y-103960000D01*
X97446000Y-106040000D02*
X97446000Y-108033000D01*
X97486000Y-101982000D02*
X97486000Y-103960000D01*
X97486000Y-106040000D02*
X97486000Y-108018000D01*
X97526000Y-101998000D02*
X97526000Y-103960000D01*
X97526000Y-106040000D02*
X97526000Y-108002000D01*
X97566000Y-102014000D02*
X97566000Y-103960000D01*
X97566000Y-106040000D02*
X97566000Y-107986000D01*
X97606000Y-102030000D02*
X97606000Y-103960000D01*
X97606000Y-106040000D02*
X97606000Y-107970000D01*
X97646000Y-102048000D02*
X97646000Y-103960000D01*
X97646000Y-106040000D02*
X97646000Y-107952000D01*
X97686000Y-102066000D02*
X97686000Y-103960000D01*
X97686000Y-106040000D02*
X97686000Y-107934000D01*
X97726000Y-102084000D02*
X97726000Y-103960000D01*
X97726000Y-106040000D02*
X97726000Y-107916000D01*
X97766000Y-102104000D02*
X97766000Y-103960000D01*
X97766000Y-106040000D02*
X97766000Y-107896000D01*
X97806000Y-102124000D02*
X97806000Y-103960000D01*
X97806000Y-106040000D02*
X97806000Y-107876000D01*
X97846000Y-102144000D02*
X97846000Y-103960000D01*
X97846000Y-106040000D02*
X97846000Y-107856000D01*
X97886000Y-102166000D02*
X97886000Y-103960000D01*
X97886000Y-106040000D02*
X97886000Y-107834000D01*
X97926000Y-102188000D02*
X97926000Y-103960000D01*
X97926000Y-106040000D02*
X97926000Y-107812000D01*
X97966000Y-102210000D02*
X97966000Y-103960000D01*
X97966000Y-106040000D02*
X97966000Y-107790000D01*
X98006000Y-102234000D02*
X98006000Y-103960000D01*
X98006000Y-106040000D02*
X98006000Y-107766000D01*
X98046000Y-102258000D02*
X98046000Y-103960000D01*
X98046000Y-106040000D02*
X98046000Y-107742000D01*
X98086000Y-102284000D02*
X98086000Y-103960000D01*
X98086000Y-106040000D02*
X98086000Y-107716000D01*
X98126000Y-102310000D02*
X98126000Y-103960000D01*
X98126000Y-106040000D02*
X98126000Y-107690000D01*
X98166000Y-102336000D02*
X98166000Y-103960000D01*
X98166000Y-106040000D02*
X98166000Y-107664000D01*
X98206000Y-102364000D02*
X98206000Y-103960000D01*
X98206000Y-106040000D02*
X98206000Y-107636000D01*
X98246000Y-102393000D02*
X98246000Y-103960000D01*
X98246000Y-106040000D02*
X98246000Y-107607000D01*
X98286000Y-102422000D02*
X98286000Y-103960000D01*
X98286000Y-106040000D02*
X98286000Y-107578000D01*
X98326000Y-102452000D02*
X98326000Y-103960000D01*
X98326000Y-106040000D02*
X98326000Y-107548000D01*
X98366000Y-102484000D02*
X98366000Y-103960000D01*
X98366000Y-106040000D02*
X98366000Y-107516000D01*
X98406000Y-102516000D02*
X98406000Y-103960000D01*
X98406000Y-106040000D02*
X98406000Y-107484000D01*
X98446000Y-102550000D02*
X98446000Y-103960000D01*
X98446000Y-106040000D02*
X98446000Y-107450000D01*
X98486000Y-102584000D02*
X98486000Y-103960000D01*
X98486000Y-106040000D02*
X98486000Y-107416000D01*
X98526000Y-102620000D02*
X98526000Y-103960000D01*
X98526000Y-106040000D02*
X98526000Y-107380000D01*
X98566000Y-102657000D02*
X98566000Y-103960000D01*
X98566000Y-106040000D02*
X98566000Y-107343000D01*
X98606000Y-102695000D02*
X98606000Y-103960000D01*
X98606000Y-106040000D02*
X98606000Y-107305000D01*
X98646000Y-102735000D02*
X98646000Y-107265000D01*
X98686000Y-102776000D02*
X98686000Y-107224000D01*
X98726000Y-102818000D02*
X98726000Y-107182000D01*
X98766000Y-102863000D02*
X98766000Y-107137000D01*
X98806000Y-102908000D02*
X98806000Y-107092000D01*
X98846000Y-102956000D02*
X98846000Y-107044000D01*
X98886000Y-103005000D02*
X98886000Y-106995000D01*
X98926000Y-103056000D02*
X98926000Y-106944000D01*
X98966000Y-103110000D02*
X98966000Y-106890000D01*
X99006000Y-103166000D02*
X99006000Y-106834000D01*
X99046000Y-103224000D02*
X99046000Y-106776000D01*
X99086000Y-103286000D02*
X99086000Y-106714000D01*
X99126000Y-103350000D02*
X99126000Y-106650000D01*
X99166000Y-103419000D02*
X99166000Y-106581000D01*
X99206000Y-103491000D02*
X99206000Y-106509000D01*
X99246000Y-103568000D02*
X99246000Y-106432000D01*
X99286000Y-103650000D02*
X99286000Y-106350000D01*
X99326000Y-103738000D02*
X99326000Y-106262000D01*
X99366000Y-103835000D02*
X99366000Y-106165000D01*
X99406000Y-103941000D02*
X99406000Y-106059000D01*
X99446000Y-104060000D02*
X99446000Y-105940000D01*
X99486000Y-104198000D02*
X99486000Y-105802000D01*
X99526000Y-104367000D02*
X99526000Y-105633000D01*
X99566000Y-104598000D02*
X99566000Y-105402000D01*
X92824759Y-103161000D02*
X93454759Y-103161000D01*
X93139759Y-102846000D02*
X93139759Y-103476000D01*
G04 #@! TO.C,SW2*
X161933140Y-134823975D02*
X164183140Y-130926860D01*
X157844038Y-133906506D02*
X159143076Y-134656506D01*
X158553975Y-127676860D02*
X156303975Y-131573975D01*
X162643076Y-128594329D02*
X161344038Y-127844329D01*
G04 #@! TO.C,SW3*
X156039076Y-124784329D02*
X154740038Y-124034329D01*
X151949975Y-123866860D02*
X149699975Y-127763975D01*
X151240038Y-130096506D02*
X152539076Y-130846506D01*
X155329140Y-131013975D02*
X157579140Y-127116860D01*
D10*
G04 #@! TO.C,U1*
X138890000Y-81050000D02*
G75*
G02X137620000Y-82320000I-1270000J0D01*
G01*
X122380000Y-82320000D02*
G75*
G02X121110000Y-81050000I0J1270000D01*
G01*
X121110000Y-63270000D02*
G75*
G02X122380000Y-62000000I1270000J0D01*
G01*
X137620000Y-62000000D02*
G75*
G02X138890000Y-63270000I0J-1270000D01*
G01*
X122380000Y-62000000D02*
X137620000Y-62000000D01*
X122380000Y-82320000D02*
X137620000Y-82320000D01*
X138890000Y-63270000D02*
X138890000Y-81050000D01*
X121110000Y-81050000D02*
X121110000Y-63270000D01*
X126190000Y-62000000D02*
X126190000Y-67080000D01*
X126190000Y-67080000D02*
X133810000Y-67080000D01*
X133810000Y-67080000D02*
X133810000Y-62000000D01*
G04 #@! TO.C,U3*
X129238095Y-91776380D02*
X129238095Y-92585904D01*
X129285714Y-92681142D01*
X129333333Y-92728761D01*
X129428571Y-92776380D01*
X129619047Y-92776380D01*
X129714285Y-92728761D01*
X129761904Y-92681142D01*
X129809523Y-92585904D01*
X129809523Y-91776380D01*
X130190476Y-91776380D02*
X130809523Y-91776380D01*
X130476190Y-92157333D01*
X130619047Y-92157333D01*
X130714285Y-92204952D01*
X130761904Y-92252571D01*
X130809523Y-92347809D01*
X130809523Y-92585904D01*
X130761904Y-92681142D01*
X130714285Y-92728761D01*
X130619047Y-92776380D01*
X130333333Y-92776380D01*
X130238095Y-92728761D01*
X130190476Y-92681142D01*
G04 #@! TO.C,C1*
X115583333Y-87857142D02*
X115535714Y-87904761D01*
X115392857Y-87952380D01*
X115297619Y-87952380D01*
X115154761Y-87904761D01*
X115059523Y-87809523D01*
X115011904Y-87714285D01*
X114964285Y-87523809D01*
X114964285Y-87380952D01*
X115011904Y-87190476D01*
X115059523Y-87095238D01*
X115154761Y-87000000D01*
X115297619Y-86952380D01*
X115392857Y-86952380D01*
X115535714Y-87000000D01*
X115583333Y-87047619D01*
X116535714Y-87952380D02*
X115964285Y-87952380D01*
X116250000Y-87952380D02*
X116250000Y-86952380D01*
X116154761Y-87095238D01*
X116059523Y-87190476D01*
X115964285Y-87238095D01*
G04 #@! TO.C,U2*
X148693300Y-93266361D02*
X147992232Y-93671123D01*
X147933563Y-93759981D01*
X147916133Y-93825030D01*
X147922513Y-93931318D01*
X148017751Y-94096276D01*
X148106609Y-94154945D01*
X148171658Y-94172374D01*
X148277946Y-94165995D01*
X148979014Y-93761233D01*
X149110822Y-94180006D02*
X149175870Y-94197435D01*
X149264729Y-94256104D01*
X149383776Y-94462301D01*
X149390156Y-94568589D01*
X149372726Y-94633638D01*
X149314057Y-94722496D01*
X149231579Y-94770115D01*
X149084051Y-94800305D01*
X148303465Y-94591147D01*
X148612989Y-95127258D01*
X149695804Y-88335956D02*
X150561830Y-87835956D01*
X150680877Y-88042153D01*
X150711067Y-88189680D01*
X150676207Y-88319778D01*
X150617538Y-88408636D01*
X150476390Y-88545113D01*
X150352672Y-88616542D01*
X150163906Y-88670541D01*
X150057617Y-88676920D01*
X149927520Y-88642061D01*
X149814852Y-88542153D01*
X149695804Y-88335956D01*
X150816103Y-89228752D02*
X150649437Y-88940077D01*
X150195804Y-89201981D02*
X151061830Y-88701981D01*
X151299925Y-89114374D01*
X150624376Y-89944289D02*
X151490401Y-89444289D01*
X151680877Y-89774203D01*
X151687257Y-89880491D01*
X151669827Y-89945540D01*
X151611158Y-90034399D01*
X151487440Y-90105827D01*
X151381152Y-90112207D01*
X151316103Y-90094777D01*
X151227245Y-90036108D01*
X151036769Y-89706194D01*
X151195804Y-90934032D02*
X151189425Y-90827744D01*
X151248094Y-90738886D01*
X151990401Y-90310314D01*
X151600566Y-91635100D02*
X152054199Y-91373196D01*
X152112868Y-91284337D01*
X152106488Y-91178049D01*
X152011250Y-91013092D01*
X151922391Y-90954423D01*
X151641806Y-91611291D02*
X151552947Y-91552622D01*
X151433900Y-91346425D01*
X151427520Y-91240137D01*
X151486189Y-91151279D01*
X151568668Y-91103660D01*
X151674956Y-91097280D01*
X151763814Y-91155949D01*
X151882862Y-91362146D01*
X151971720Y-91420815D01*
X152368393Y-91631682D02*
X151910090Y-92171211D01*
X152606488Y-92044075D02*
X151910090Y-92171211D01*
X151656274Y-92207780D01*
X151591226Y-92190351D01*
X151502367Y-92131682D01*
X152451329Y-93013427D02*
X152362471Y-92954758D01*
X152267233Y-92789801D01*
X152260853Y-92683513D01*
X152319522Y-92594654D01*
X152649437Y-92404178D01*
X152755725Y-92397799D01*
X152844583Y-92456468D01*
X152939821Y-92621425D01*
X152946201Y-92727713D01*
X152887532Y-92816571D01*
X152805053Y-92864190D01*
X152484479Y-92499416D01*
X152648185Y-93449630D02*
X153225536Y-93116296D01*
X153060578Y-93211535D02*
X153166866Y-93205155D01*
X153231915Y-93222585D01*
X153320774Y-93281254D01*
X153368393Y-93363732D01*
X152957709Y-93985741D02*
X153823735Y-93485741D01*
X153371812Y-94131559D01*
X154157068Y-94063091D01*
X153291042Y-94563091D01*
X153529138Y-94975484D02*
X154106488Y-94642151D01*
X154395163Y-94475484D02*
X154330114Y-94458054D01*
X154312684Y-94523103D01*
X154377733Y-94540533D01*
X154395163Y-94475484D01*
X154312684Y-94523103D01*
X154344583Y-95054544D02*
X153767233Y-95387877D01*
X154262105Y-95102163D02*
X154327153Y-95119593D01*
X154416012Y-95178262D01*
X154487440Y-95301980D01*
X154493820Y-95408268D01*
X154435151Y-95497126D01*
X153981519Y-95759031D01*
X154219614Y-96171424D02*
X154796964Y-95838091D01*
X155085639Y-95671424D02*
X155020590Y-95653994D01*
X155003161Y-95719043D01*
X155068209Y-95736473D01*
X155085639Y-95671424D01*
X155003161Y-95719043D01*
G04 #@! TO.C,CN1*
X115059523Y-65857142D02*
X115011904Y-65904761D01*
X114869047Y-65952380D01*
X114773809Y-65952380D01*
X114630952Y-65904761D01*
X114535714Y-65809523D01*
X114488095Y-65714285D01*
X114440476Y-65523809D01*
X114440476Y-65380952D01*
X114488095Y-65190476D01*
X114535714Y-65095238D01*
X114630952Y-65000000D01*
X114773809Y-64952380D01*
X114869047Y-64952380D01*
X115011904Y-65000000D01*
X115059523Y-65047619D01*
X115488095Y-65952380D02*
X115488095Y-64952380D01*
X116059523Y-65952380D01*
X116059523Y-64952380D01*
X117059523Y-65952380D02*
X116488095Y-65952380D01*
X116773809Y-65952380D02*
X116773809Y-64952380D01*
X116678571Y-65095238D01*
X116583333Y-65190476D01*
X116488095Y-65238095D01*
G04 #@! TO.C,CN2*
X144059523Y-65857142D02*
X144011904Y-65904761D01*
X143869047Y-65952380D01*
X143773809Y-65952380D01*
X143630952Y-65904761D01*
X143535714Y-65809523D01*
X143488095Y-65714285D01*
X143440476Y-65523809D01*
X143440476Y-65380952D01*
X143488095Y-65190476D01*
X143535714Y-65095238D01*
X143630952Y-65000000D01*
X143773809Y-64952380D01*
X143869047Y-64952380D01*
X144011904Y-65000000D01*
X144059523Y-65047619D01*
X144488095Y-65952380D02*
X144488095Y-64952380D01*
X145059523Y-65952380D01*
X145059523Y-64952380D01*
X145488095Y-65047619D02*
X145535714Y-65000000D01*
X145630952Y-64952380D01*
X145869047Y-64952380D01*
X145964285Y-65000000D01*
X146011904Y-65047619D01*
X146059523Y-65142857D01*
X146059523Y-65238095D01*
X146011904Y-65380952D01*
X145440476Y-65952380D01*
X146059523Y-65952380D01*
G04 #@! TO.C,CN3*
X106064056Y-91976541D02*
X106081486Y-92041590D01*
X106051297Y-92189117D01*
X106003678Y-92271596D01*
X105891010Y-92371504D01*
X105760912Y-92406364D01*
X105654624Y-92399984D01*
X105465857Y-92345985D01*
X105342139Y-92274557D01*
X105200992Y-92138079D01*
X105142323Y-92049221D01*
X105107463Y-91919123D01*
X105137652Y-91771596D01*
X105185271Y-91689117D01*
X105297939Y-91589209D01*
X105362988Y-91571779D01*
X106360821Y-91653006D02*
X105494795Y-91153006D01*
X106646535Y-91158134D01*
X105780509Y-90658134D01*
X105970986Y-90328220D02*
X106280509Y-89792109D01*
X106443757Y-90271260D01*
X106515186Y-90147543D01*
X106604044Y-90088873D01*
X106669093Y-90071444D01*
X106775381Y-90077823D01*
X106981578Y-90196871D01*
X107040247Y-90285729D01*
X107057676Y-90350778D01*
X107051297Y-90457066D01*
X106908440Y-90704502D01*
X106819581Y-90763171D01*
X106754532Y-90780601D01*
D15*
X98765672Y-90398597D02*
X98706065Y-90308317D01*
X98580367Y-90235745D01*
X98430479Y-90205073D01*
X98298300Y-90240490D01*
X98208020Y-90300098D01*
X98069359Y-90443504D01*
X97996788Y-90569202D01*
X97941925Y-90760989D01*
X97935443Y-90868977D01*
X97970860Y-91001157D01*
X98072367Y-91115627D01*
X98156165Y-91164008D01*
X98306053Y-91194681D01*
X98372143Y-91176972D01*
X98541476Y-90883678D01*
X98373880Y-90786916D01*
X98700854Y-91478484D02*
X99208854Y-90598603D01*
X99203644Y-91768770D01*
X99711644Y-90888888D01*
X99622635Y-92010675D02*
X100130635Y-91130793D01*
X100340131Y-91251745D01*
X100441638Y-91366216D01*
X100477055Y-91498395D01*
X100470573Y-91606384D01*
X100415710Y-91798171D01*
X100343139Y-91923868D01*
X100204478Y-92067274D01*
X100114198Y-92126882D01*
X99982019Y-92162300D01*
X99832131Y-92131627D01*
X99622635Y-92010675D01*
X99887056Y-89230399D02*
X100395056Y-88350518D01*
X100604552Y-88471470D01*
X100706059Y-88585941D01*
X100741476Y-88718120D01*
X100734994Y-88826109D01*
X100680131Y-89017896D01*
X100607560Y-89143593D01*
X100468899Y-89286999D01*
X100378619Y-89346607D01*
X100246440Y-89382024D01*
X100096552Y-89351352D01*
X99887056Y-89230399D01*
X100960462Y-89403206D02*
X101630848Y-89790254D01*
X101102131Y-89931923D02*
X101489179Y-89261537D01*
X100903056Y-87470635D02*
X101411056Y-86590754D01*
X101620552Y-86711706D01*
X101722059Y-86826177D01*
X101757476Y-86958356D01*
X101750994Y-87066345D01*
X101696131Y-87258132D01*
X101623560Y-87383829D01*
X101484899Y-87527235D01*
X101394619Y-87586843D01*
X101262440Y-87622260D01*
X101112552Y-87591588D01*
X100903056Y-87470635D01*
X101976462Y-87643442D02*
X102646848Y-88030490D01*
X101843073Y-83907240D02*
X101628367Y-84956455D01*
X102429661Y-84245907D01*
X102766126Y-85501609D02*
X102700036Y-85519318D01*
X102550148Y-85488646D01*
X102466350Y-85440265D01*
X102364843Y-85325794D01*
X102329426Y-85193615D01*
X102335907Y-85085626D01*
X102390770Y-84893839D01*
X102463342Y-84768142D01*
X102602003Y-84624736D01*
X102692283Y-84565128D01*
X102824462Y-84529711D01*
X102974350Y-84560383D01*
X103058148Y-84608764D01*
X103159655Y-84723234D01*
X103177364Y-84789324D01*
X103646007Y-86009609D02*
X103579918Y-86027318D01*
X103430030Y-85996646D01*
X103346232Y-85948265D01*
X103244725Y-85833794D01*
X103209307Y-85701615D01*
X103215789Y-85593626D01*
X103270652Y-85401839D01*
X103343223Y-85276142D01*
X103481884Y-85132736D01*
X103572165Y-85073128D01*
X103704344Y-85037711D01*
X103854232Y-85068383D01*
X103938030Y-85116764D01*
X104039537Y-85231234D01*
X104057246Y-85297324D01*
G04 #@! TO.C,CN4*
D10*
X155619056Y-115716542D02*
X155636486Y-115781591D01*
X155606297Y-115929118D01*
X155558678Y-116011597D01*
X155446010Y-116111505D01*
X155315912Y-116146365D01*
X155209624Y-116139985D01*
X155020857Y-116085986D01*
X154897139Y-116014558D01*
X154755992Y-115878080D01*
X154697323Y-115789222D01*
X154662463Y-115659124D01*
X154692652Y-115511597D01*
X154740271Y-115429118D01*
X154852939Y-115329210D01*
X154917988Y-115311780D01*
X155915821Y-115393007D02*
X155049795Y-114893007D01*
X156201535Y-114898135D01*
X155335509Y-114398135D01*
X156076565Y-113781255D02*
X156653916Y-114114589D01*
X155627603Y-113796976D02*
X156127145Y-114360315D01*
X156436669Y-113824204D01*
G04 #@! TO.C,CN5*
X108015467Y-116930601D02*
X107950418Y-116913171D01*
X107837750Y-116813263D01*
X107790131Y-116730784D01*
X107759942Y-116583257D01*
X107794801Y-116453159D01*
X107853470Y-116364301D01*
X107994618Y-116227823D01*
X108118336Y-116156395D01*
X108307103Y-116102396D01*
X108413391Y-116096016D01*
X108543488Y-116130876D01*
X108656156Y-116230784D01*
X108703775Y-116313263D01*
X108733965Y-116460790D01*
X108716535Y-116525839D01*
X108147274Y-117349374D02*
X109013299Y-116849374D01*
X108432988Y-117844245D01*
X109299013Y-117344245D01*
X109775204Y-118169032D02*
X109537109Y-117756639D01*
X109100906Y-117953494D01*
X109165955Y-117970924D01*
X109254813Y-118029593D01*
X109373861Y-118235790D01*
X109380241Y-118342078D01*
X109362811Y-118407127D01*
X109304142Y-118495985D01*
X109097945Y-118615033D01*
X108991657Y-118621413D01*
X108926608Y-118603983D01*
X108837750Y-118545314D01*
X108718702Y-118339117D01*
X108712323Y-118232829D01*
X108729752Y-118167780D01*
G04 #@! TO.C,R1*
X136183333Y-86648380D02*
X135850000Y-86172190D01*
X135611904Y-86648380D02*
X135611904Y-85648380D01*
X135992857Y-85648380D01*
X136088095Y-85696000D01*
X136135714Y-85743619D01*
X136183333Y-85838857D01*
X136183333Y-85981714D01*
X136135714Y-86076952D01*
X136088095Y-86124571D01*
X135992857Y-86172190D01*
X135611904Y-86172190D01*
X137135714Y-86648380D02*
X136564285Y-86648380D01*
X136850000Y-86648380D02*
X136850000Y-85648380D01*
X136754761Y-85791238D01*
X136659523Y-85886476D01*
X136564285Y-85934095D01*
G04 #@! TO.C,R2*
X136183333Y-89696380D02*
X135850000Y-89220190D01*
X135611904Y-89696380D02*
X135611904Y-88696380D01*
X135992857Y-88696380D01*
X136088095Y-88744000D01*
X136135714Y-88791619D01*
X136183333Y-88886857D01*
X136183333Y-89029714D01*
X136135714Y-89124952D01*
X136088095Y-89172571D01*
X135992857Y-89220190D01*
X135611904Y-89220190D01*
X136564285Y-88791619D02*
X136611904Y-88744000D01*
X136707142Y-88696380D01*
X136945238Y-88696380D01*
X137040476Y-88744000D01*
X137088095Y-88791619D01*
X137135714Y-88886857D01*
X137135714Y-88982095D01*
X137088095Y-89124952D01*
X136516666Y-89696380D01*
X137135714Y-89696380D01*
G04 #@! TO.C,R3*
X112037380Y-98720723D02*
X111561190Y-99054057D01*
X112037380Y-99292152D02*
X111037380Y-99292152D01*
X111037380Y-98911199D01*
X111085000Y-98815961D01*
X111132619Y-98768342D01*
X111227857Y-98720723D01*
X111370714Y-98720723D01*
X111465952Y-98768342D01*
X111513571Y-98815961D01*
X111561190Y-98911199D01*
X111561190Y-99292152D01*
X111037380Y-98387390D02*
X111037380Y-97768342D01*
X111418333Y-98101676D01*
X111418333Y-97958818D01*
X111465952Y-97863580D01*
X111513571Y-97815961D01*
X111608809Y-97768342D01*
X111846904Y-97768342D01*
X111942142Y-97815961D01*
X111989761Y-97863580D01*
X112037380Y-97958818D01*
X112037380Y-98244533D01*
X111989761Y-98339771D01*
X111942142Y-98387390D01*
G04 #@! TO.C,R4*
X108862380Y-98720723D02*
X108386190Y-99054057D01*
X108862380Y-99292152D02*
X107862380Y-99292152D01*
X107862380Y-98911199D01*
X107910000Y-98815961D01*
X107957619Y-98768342D01*
X108052857Y-98720723D01*
X108195714Y-98720723D01*
X108290952Y-98768342D01*
X108338571Y-98815961D01*
X108386190Y-98911199D01*
X108386190Y-99292152D01*
X108195714Y-97863580D02*
X108862380Y-97863580D01*
X107814761Y-98101676D02*
X108529047Y-98339771D01*
X108529047Y-97720723D01*
G04 #@! TO.C,R5*
X105687380Y-98720723D02*
X105211190Y-99054057D01*
X105687380Y-99292152D02*
X104687380Y-99292152D01*
X104687380Y-98911199D01*
X104735000Y-98815961D01*
X104782619Y-98768342D01*
X104877857Y-98720723D01*
X105020714Y-98720723D01*
X105115952Y-98768342D01*
X105163571Y-98815961D01*
X105211190Y-98911199D01*
X105211190Y-99292152D01*
X104687380Y-97815961D02*
X104687380Y-98292152D01*
X105163571Y-98339771D01*
X105115952Y-98292152D01*
X105068333Y-98196914D01*
X105068333Y-97958818D01*
X105115952Y-97863580D01*
X105163571Y-97815961D01*
X105258809Y-97768342D01*
X105496904Y-97768342D01*
X105592142Y-97815961D01*
X105639761Y-97863580D01*
X105687380Y-97958818D01*
X105687380Y-98196914D01*
X105639761Y-98292152D01*
X105592142Y-98339771D01*
G04 #@! TO.C,R6*
X157011333Y-106722380D02*
X156678000Y-106246190D01*
X156439904Y-106722380D02*
X156439904Y-105722380D01*
X156820857Y-105722380D01*
X156916095Y-105770000D01*
X156963714Y-105817619D01*
X157011333Y-105912857D01*
X157011333Y-106055714D01*
X156963714Y-106150952D01*
X156916095Y-106198571D01*
X156820857Y-106246190D01*
X156439904Y-106246190D01*
X157868476Y-105722380D02*
X157678000Y-105722380D01*
X157582761Y-105770000D01*
X157535142Y-105817619D01*
X157439904Y-105960476D01*
X157392285Y-106150952D01*
X157392285Y-106531904D01*
X157439904Y-106627142D01*
X157487523Y-106674761D01*
X157582761Y-106722380D01*
X157773238Y-106722380D01*
X157868476Y-106674761D01*
X157916095Y-106627142D01*
X157963714Y-106531904D01*
X157963714Y-106293809D01*
X157916095Y-106198571D01*
X157868476Y-106150952D01*
X157773238Y-106103333D01*
X157582761Y-106103333D01*
X157487523Y-106150952D01*
X157439904Y-106198571D01*
X157392285Y-106293809D01*
G04 #@! TO.C,R7*
X157011333Y-109897380D02*
X156678000Y-109421190D01*
X156439904Y-109897380D02*
X156439904Y-108897380D01*
X156820857Y-108897380D01*
X156916095Y-108945000D01*
X156963714Y-108992619D01*
X157011333Y-109087857D01*
X157011333Y-109230714D01*
X156963714Y-109325952D01*
X156916095Y-109373571D01*
X156820857Y-109421190D01*
X156439904Y-109421190D01*
X157344666Y-108897380D02*
X158011333Y-108897380D01*
X157582761Y-109897380D01*
G04 #@! TO.C,C2*
X96158333Y-100957142D02*
X96110714Y-101004761D01*
X95967857Y-101052380D01*
X95872619Y-101052380D01*
X95729761Y-101004761D01*
X95634523Y-100909523D01*
X95586904Y-100814285D01*
X95539285Y-100623809D01*
X95539285Y-100480952D01*
X95586904Y-100290476D01*
X95634523Y-100195238D01*
X95729761Y-100100000D01*
X95872619Y-100052380D01*
X95967857Y-100052380D01*
X96110714Y-100100000D01*
X96158333Y-100147619D01*
X96539285Y-100147619D02*
X96586904Y-100100000D01*
X96682142Y-100052380D01*
X96920238Y-100052380D01*
X97015476Y-100100000D01*
X97063095Y-100147619D01*
X97110714Y-100242857D01*
X97110714Y-100338095D01*
X97063095Y-100480952D01*
X96491666Y-101052380D01*
X97110714Y-101052380D01*
G04 #@! TO.C,U1*
X139738095Y-80452380D02*
X139738095Y-81261904D01*
X139785714Y-81357142D01*
X139833333Y-81404761D01*
X139928571Y-81452380D01*
X140119047Y-81452380D01*
X140214285Y-81404761D01*
X140261904Y-81357142D01*
X140309523Y-81261904D01*
X140309523Y-80452380D01*
X141309523Y-81452380D02*
X140738095Y-81452380D01*
X141023809Y-81452380D02*
X141023809Y-80452380D01*
X140928571Y-80595238D01*
X140833333Y-80690476D01*
X140738095Y-80738095D01*
X124333333Y-83814761D02*
X124476190Y-83862380D01*
X124714285Y-83862380D01*
X124809523Y-83814761D01*
X124857142Y-83767142D01*
X124904761Y-83671904D01*
X124904761Y-83576666D01*
X124857142Y-83481428D01*
X124809523Y-83433809D01*
X124714285Y-83386190D01*
X124523809Y-83338571D01*
X124428571Y-83290952D01*
X124380952Y-83243333D01*
X124333333Y-83148095D01*
X124333333Y-83052857D01*
X124380952Y-82957619D01*
X124428571Y-82910000D01*
X124523809Y-82862380D01*
X124761904Y-82862380D01*
X124904761Y-82910000D01*
X125714285Y-83814761D02*
X125619047Y-83862380D01*
X125428571Y-83862380D01*
X125333333Y-83814761D01*
X125285714Y-83719523D01*
X125285714Y-83338571D01*
X125333333Y-83243333D01*
X125428571Y-83195714D01*
X125619047Y-83195714D01*
X125714285Y-83243333D01*
X125761904Y-83338571D01*
X125761904Y-83433809D01*
X125285714Y-83529047D01*
X126571428Y-83814761D02*
X126476190Y-83862380D01*
X126285714Y-83862380D01*
X126190476Y-83814761D01*
X126142857Y-83719523D01*
X126142857Y-83338571D01*
X126190476Y-83243333D01*
X126285714Y-83195714D01*
X126476190Y-83195714D01*
X126571428Y-83243333D01*
X126619047Y-83338571D01*
X126619047Y-83433809D01*
X126142857Y-83529047D01*
X127428571Y-83814761D02*
X127333333Y-83862380D01*
X127142857Y-83862380D01*
X127047619Y-83814761D01*
X126999999Y-83719523D01*
X126999999Y-83338571D01*
X127047619Y-83243333D01*
X127142857Y-83195714D01*
X127333333Y-83195714D01*
X127428571Y-83243333D01*
X127476190Y-83338571D01*
X127476190Y-83433809D01*
X126999999Y-83529047D01*
X128333333Y-83862380D02*
X128333333Y-82862380D01*
X128333333Y-83814761D02*
X128238095Y-83862380D01*
X128047619Y-83862380D01*
X127952380Y-83814761D01*
X127904761Y-83767142D01*
X127857142Y-83671904D01*
X127857142Y-83386190D01*
X127904761Y-83290952D01*
X127952380Y-83243333D01*
X128047619Y-83195714D01*
X128238095Y-83195714D01*
X128333333Y-83243333D01*
X129238095Y-83195714D02*
X129238095Y-83862380D01*
X128809523Y-83195714D02*
X128809523Y-83719523D01*
X128857142Y-83814761D01*
X128952380Y-83862380D01*
X129095238Y-83862380D01*
X129190476Y-83814761D01*
X129238095Y-83767142D01*
X129714285Y-83862380D02*
X129714285Y-83195714D01*
X129714285Y-82862380D02*
X129666666Y-82910000D01*
X129714285Y-82957619D01*
X129761904Y-82910000D01*
X129714285Y-82862380D01*
X129714285Y-82957619D01*
X130190476Y-83195714D02*
X130190476Y-83862380D01*
X130190476Y-83290952D02*
X130238095Y-83243333D01*
X130333333Y-83195714D01*
X130476190Y-83195714D01*
X130571428Y-83243333D01*
X130619047Y-83338571D01*
X130619047Y-83862380D01*
X131238095Y-83862380D02*
X131142857Y-83814761D01*
X131095238Y-83767142D01*
X131047619Y-83671904D01*
X131047619Y-83386190D01*
X131095238Y-83290952D01*
X131142857Y-83243333D01*
X131238095Y-83195714D01*
X131380952Y-83195714D01*
X131476190Y-83243333D01*
X131523809Y-83290952D01*
X131571428Y-83386190D01*
X131571428Y-83671904D01*
X131523809Y-83767142D01*
X131476190Y-83814761D01*
X131380952Y-83862380D01*
X131238095Y-83862380D01*
X132666666Y-82862380D02*
X133333333Y-83862380D01*
X133333333Y-82862380D02*
X132666666Y-83862380D01*
X133714285Y-83862380D02*
X133714285Y-82862380D01*
X134142857Y-83576666D02*
X134619047Y-83576666D01*
X134047619Y-83862380D02*
X134380952Y-82862380D01*
X134714285Y-83862380D01*
X135238095Y-82862380D02*
X135428571Y-82862380D01*
X135523809Y-82910000D01*
X135619047Y-83005238D01*
X135666666Y-83195714D01*
X135666666Y-83529047D01*
X135619047Y-83719523D01*
X135523809Y-83814761D01*
X135428571Y-83862380D01*
X135238095Y-83862380D01*
X135142857Y-83814761D01*
X135047619Y-83719523D01*
X135000000Y-83529047D01*
X135000000Y-83195714D01*
X135047619Y-83005238D01*
X135142857Y-82910000D01*
X135238095Y-82862380D01*
G04 #@! TD*
M02*
