M48
;DRILL file {KiCad (5.0.2)-1} date 2021/09/11 16:33:53
;FORMAT={-:-/ absolute / metric / decimal}
FMAT,2
METRIC,TZ
T1C0.400
T2C0.762
T3C0.800
T4C0.950
T5C1.000
T6C1.100
T7C1.300
T8C2.299
T9C3.200
%
G90
G05
T1
X81.232Y-105.
X83.518Y-100.936
X83.518Y-109.064
X86.058Y-96.618
X86.058Y-113.382
X88.598Y-92.3
X88.598Y-117.7
X90.Y-95.
X90.Y-100.
X90.Y-105.
X90.Y-110.
X90.Y-115.
X91.138Y-87.728
X91.392Y-122.78
X93.678Y-83.41
X93.678Y-126.59
X95.Y-85.
X95.Y-90.
X95.Y-95.
X95.Y-100.
X95.Y-120.
X95.964Y-130.654
X96.218Y-79.092
X98.758Y-74.774
X98.758Y-135.226
X100.Y-80.
X100.Y-85.
X100.Y-90.
X100.Y-105.
X100.Y-110.
X100.Y-120.
X100.Y-125.
X100.Y-130.
X101.044Y-70.71
X101.044Y-139.036
X103.33Y-66.9
X103.33Y-143.1
X105.Y-70.
X105.Y-75.
X105.Y-80.
X105.Y-95.
X105.Y-105.
X105.Y-120.
X105.Y-125.
X105.Y-130.
X105.Y-135.
X105.616Y-62.836
X105.616Y-147.164
X107.25Y-113.75
X107.455Y-116.25
X110.Y-70.
X110.Y-75.
X110.Y-80.
X110.Y-85.
X110.Y-90.
X110.Y-95.
X110.Y-105.
X110.Y-112.5
X110.Y-115.
X110.Y-120.
X110.Y-125.
X110.Y-130.
X110.Y-135.
X110.696Y-62.836
X111.204Y-147.164
X115.Y-90.
X115.Y-95.
X115.Y-100.
X115.Y-105.
X115.Y-110.
X115.Y-112.5
X115.Y-115.
X115.Y-117.5
X115.Y-120.
X115.Y-125.
X115.Y-130.
X115.Y-135.
X115.268Y-62.836
X117.5Y-110.
X117.5Y-112.5
X117.5Y-115.
X117.5Y-117.5
X118.25Y-99.25
X119.332Y-62.836
X119.332Y-99.285
X119.332Y-103.095
X119.75Y-67.
X119.75Y-69.5
X120.348Y-99.285
X120.348Y-103.095
X121.364Y-99.285
X121.364Y-103.095
X121.618Y-137.512
X122.5Y-110.
X122.5Y-112.5
X122.5Y-115.
X122.5Y-117.5
X124.412Y-140.306
X124.412Y-147.164
X125.Y-100.
X125.Y-105.
X125.Y-110.
X125.Y-112.5
X125.Y-115.
X125.Y-117.5
X125.Y-120.
X125.Y-125.
X125.Y-130.
X125.Y-135.
X125.428Y-62.836
X126.21Y-79.5
X126.21Y-82.
X126.21Y-84.5
X126.25Y-67.
X126.25Y-69.5
X126.25Y-72.
X126.25Y-74.5
X126.25Y-77.
X127.5Y-72.
X127.5Y-110.
X127.5Y-112.5
X127.5Y-115.
X127.5Y-117.5
X128.75Y-67.
X128.75Y-69.5
X128.75Y-72.
X128.75Y-74.5
X128.75Y-77.
X128.75Y-79.5
X128.75Y-82.
X128.75Y-84.5
X130.Y-62.836
X130.Y-69.5
X130.Y-105.
X130.Y-110.
X130.Y-112.5
X130.Y-115.
X130.Y-117.5
X130.Y-120.
X130.Y-125.
X130.Y-130.
X130.Y-135.
X130.Y-140.306
X130.Y-147.164
X131.25Y-67.
X131.25Y-69.5
X131.25Y-72.
X131.25Y-74.5
X131.25Y-77.
X131.25Y-79.5
X131.25Y-82.
X131.25Y-84.5
X131.25Y-87.
X132.5Y-110.
X132.5Y-112.5
X132.5Y-115.
X132.5Y-117.5
X133.75Y-67.
X133.75Y-69.5
X134.826Y-62.836
X135.Y-92.5
X135.Y-97.5
X135.Y-100.
X135.Y-102.5
X135.Y-105.
X135.Y-107.5
X135.Y-110.
X135.Y-112.5
X135.Y-115.
X135.Y-117.5
X135.Y-120.
X135.Y-125.
X135.Y-130.
X135.Y-135.
X135.08Y-96.25
X135.842Y-140.306
X135.842Y-147.164
X137.5Y-85.
X137.5Y-87.5
X137.5Y-90.
X137.5Y-92.5
X137.5Y-95.
X137.5Y-97.5
X137.5Y-100.
X137.5Y-102.5
X137.5Y-105.
X137.5Y-107.5
X137.5Y-110.
X137.5Y-112.5
X137.5Y-115.
X137.5Y-117.5
X139.906Y-62.836
X140.Y-85.
X140.Y-87.5
X140.Y-90.
X140.Y-92.5
X140.Y-95.
X140.Y-97.5
X140.Y-100.
X140.Y-102.5
X140.Y-105.
X140.Y-107.5
X140.Y-110.
X140.Y-112.5
X140.Y-115.
X140.Y-117.5
X140.Y-120.
X140.Y-125.
X140.Y-130.
X140.Y-135.
X140.25Y-67.
X140.25Y-69.5
X140.25Y-71.98
X142.5Y-85.
X142.5Y-87.5
X142.5Y-90.
X142.5Y-92.5
X142.5Y-95.
X142.5Y-100.
X142.5Y-105.
X142.5Y-107.5
X142.5Y-110.
X142.5Y-112.5
X142.5Y-115.
X142.5Y-117.5
X144.478Y-62.836
X145.Y-105.
X145.Y-110.
X145.Y-115.
X145.Y-120.
X145.Y-125.
X145.Y-130.
X145.Y-135.
X149.304Y-62.836
X149.558Y-147.164
X150.Y-70.
X150.Y-75.
X150.Y-80.
X150.Y-90.
X150.Y-95.
X150.Y-105.
X150.Y-115.
X150.Y-120.
X150.Y-125.
X150.Y-135.
X154.13Y-111.604
X154.13Y-116.938
X154.384Y-62.836
X154.384Y-147.164
X155.Y-70.
X155.Y-75.
X155.Y-90.
X155.Y-95.
X155.Y-140.
X155.908Y-102.714
X156.67Y-66.646
X156.67Y-112.366
X156.67Y-116.938
X156.67Y-143.1
X157.432Y-108.302
X158.448Y-101.19
X158.448Y-103.984
X158.956Y-70.456
X158.956Y-139.036
X159.718Y-109.318
X160.Y-85.
X160.Y-90.
X160.Y-95.
X160.734Y-99.92
X160.734Y-105.
X160.988Y-74.012
X162.004Y-110.334
X162.766Y-98.65
X162.766Y-106.016
X162.766Y-132.686
X163.274Y-78.33
X165.Y-90.
X165.Y-120.
X165.052Y-97.38
X165.052Y-107.032
X165.56Y-82.14
X166.322Y-126.336
X167.592Y-85.696
X169.624Y-89.252
X170.Y-105.
X170.Y-110.
X170.132Y-95.856
X170.386Y-119.478
X172.164Y-93.57
X172.672Y-115.668
X174.704Y-97.888
X174.704Y-112.112
X176.736Y-101.444
X176.736Y-108.556
X178.768Y-105.
T2
X122.38Y-64.54
X122.38Y-67.08
X122.38Y-69.62
X122.38Y-72.16
X122.38Y-74.7
X122.38Y-77.24
X122.38Y-79.78
X137.62Y-64.54
X137.62Y-67.08
X137.62Y-69.62
X137.62Y-72.16
X137.62Y-74.7
X137.62Y-77.24
X137.62Y-79.78
X145.Y-69.5
X145.Y-71.5
X145.Y-73.5
X145.Y-75.5
X116.Y-69.5
X116.Y-71.5
X116.Y-73.5
X116.Y-75.5
X126.19Y-94.664
X128.73Y-94.664
X131.27Y-94.664
X133.81Y-94.664
X146.255Y-85.281
X148.454Y-84.011
X150.654Y-82.741
X152.854Y-81.471
X155.054Y-80.201
X155.145Y-100.679
X157.253Y-78.931
X157.344Y-99.409
X159.453Y-77.661
X159.544Y-98.139
X161.653Y-76.391
X161.744Y-96.869
X163.944Y-95.599
X166.143Y-94.329
X168.343Y-93.059
X170.543Y-91.789
T3
X114.5Y-83.
X117.Y-83.
X95.075Y-105.
X97.575Y-105.
X111.585Y-101.094
X111.585Y-108.714
X108.41Y-101.094
X108.41Y-108.714
X147.145Y-109.445
X154.765Y-109.445
X126.19Y-89.244
X133.81Y-89.244
X105.235Y-101.094
X105.235Y-108.714
X147.145Y-106.27
X154.765Y-106.27
X126.19Y-86.196
X133.81Y-86.196
T4
X101.997Y-92.786
X103.247Y-90.621
X104.247Y-88.889
X105.497Y-86.724
T5
X170.Y-98.25
X172.2Y-96.98
X115.5Y-140.5
X115.5Y-143.
X118.Y-140.5
X118.Y-143.
X120.5Y-140.5
X120.5Y-143.
X139.5Y-140.5
X139.5Y-143.
X142.Y-140.5
X142.Y-143.
X144.5Y-140.5
X144.5Y-143.
T6
X156.67Y-132.94
X159.92Y-127.311
X160.567Y-135.19
X163.817Y-129.561
X150.066Y-129.13
X153.316Y-123.501
X153.963Y-131.38
X157.213Y-125.751
X126.825Y-141.83
X126.825Y-146.33
X133.325Y-141.83
X133.325Y-146.33
T7
X158.204Y-122.377
X160.083Y-112.723
X160.594Y-120.639
X166.655Y-115.94
X167.732Y-121.874
T8
X98.1Y-94.116
X104.7Y-82.684
T9
X86.Y-105.
X108.Y-67.
X152.Y-67.
X174.Y-105.
X108.Y-143.
X152.Y-143.
T0
M30
