G04 #@! TF.GenerationSoftware,KiCad,Pcbnew,(5.0.2)-1*
G04 #@! TF.CreationDate,2021-09-11T16:33:57+09:00*
G04 #@! TF.ProjectId,Pillar,50696c6c-6172-42e6-9b69-6361645f7063,rev?*
G04 #@! TF.SameCoordinates,Original*
G04 #@! TF.FileFunction,Paste,Top*
G04 #@! TF.FilePolarity,Positive*
%FSLAX46Y46*%
G04 Gerber Fmt 4.6, Leading zero omitted, Abs format (unit mm)*
G04 Created by KiCad (PCBNEW (5.0.2)-1) date 2021/09/11 16:33:57*
%MOMM*%
%LPD*%
G01*
G04 APERTURE LIST*
%ADD10C,0.700000*%
%ADD11C,0.100000*%
%ADD12C,1.000000*%
%ADD13C,0.800000*%
%ADD14C,1.300000*%
G04 APERTURE END LIST*
D10*
G04 #@! TO.C,CN5*
X103752546Y-113449601D03*
D11*
G36*
X103057931Y-113446492D02*
X104097161Y-112846492D01*
X104447161Y-113452710D01*
X103407931Y-114052710D01*
X103057931Y-113446492D01*
X103057931Y-113446492D01*
G37*
D10*
X104227546Y-114272325D03*
D11*
G36*
X103532931Y-114269216D02*
X104572161Y-113669216D01*
X104922161Y-114275434D01*
X103882931Y-114875434D01*
X103532931Y-114269216D01*
X103532931Y-114269216D01*
G37*
D10*
X108077546Y-120940720D03*
D11*
G36*
X107382931Y-120937611D02*
X108422161Y-120337611D01*
X108772161Y-120943829D01*
X107732931Y-121543829D01*
X107382931Y-120937611D01*
X107382931Y-120937611D01*
G37*
D10*
X107527546Y-119988093D03*
D11*
G36*
X106832931Y-119984984D02*
X107872161Y-119384984D01*
X108222161Y-119991202D01*
X107182931Y-120591202D01*
X106832931Y-119984984D01*
X106832931Y-119984984D01*
G37*
D10*
X106977546Y-119035465D03*
D11*
G36*
X106282931Y-119032356D02*
X107322161Y-118432356D01*
X107672161Y-119038574D01*
X106632931Y-119638574D01*
X106282931Y-119032356D01*
X106282931Y-119032356D01*
G37*
D10*
X106427546Y-118082837D03*
D11*
G36*
X105732931Y-118079728D02*
X106772161Y-117479728D01*
X107122161Y-118085946D01*
X106082931Y-118685946D01*
X105732931Y-118079728D01*
X105732931Y-118079728D01*
G37*
D10*
X105877546Y-117130209D03*
D11*
G36*
X105182931Y-117127100D02*
X106222161Y-116527100D01*
X106572161Y-117133318D01*
X105532931Y-117733318D01*
X105182931Y-117127100D01*
X105182931Y-117127100D01*
G37*
D10*
X105327546Y-116177581D03*
D11*
G36*
X104632931Y-116174472D02*
X105672161Y-115574472D01*
X106022161Y-116180690D01*
X104982931Y-116780690D01*
X104632931Y-116174472D01*
X104632931Y-116174472D01*
G37*
D10*
X104777546Y-115224953D03*
D11*
G36*
X104082931Y-115221844D02*
X105122161Y-114621844D01*
X105472161Y-115228062D01*
X104432931Y-115828062D01*
X104082931Y-115221844D01*
X104082931Y-115221844D01*
G37*
D12*
X108852546Y-122283060D03*
D11*
G36*
X108082931Y-122150047D02*
X109122161Y-121550047D01*
X109622161Y-122416073D01*
X108582931Y-123016073D01*
X108082931Y-122150047D01*
X108082931Y-122150047D01*
G37*
D12*
X99553637Y-114776877D03*
D11*
G36*
X98784022Y-114643864D02*
X99823252Y-114043864D01*
X100323252Y-114909890D01*
X99284022Y-115509890D01*
X98784022Y-114643864D01*
X98784022Y-114643864D01*
G37*
D13*
X94184280Y-117876877D03*
D11*
G36*
X93587870Y-117643864D02*
X94280690Y-117243864D01*
X94780690Y-118109890D01*
X94087870Y-118509890D01*
X93587870Y-117643864D01*
X93587870Y-117643864D01*
G37*
D12*
X90590274Y-119951877D03*
D11*
G36*
X89127838Y-120218864D02*
X91552710Y-118818864D01*
X92052710Y-119684890D01*
X89627838Y-121084890D01*
X89127838Y-120218864D01*
X89127838Y-120218864D01*
G37*
D14*
X96950563Y-131868220D03*
D11*
G36*
X95802839Y-131780303D02*
X97448287Y-130830303D01*
X98098287Y-131956137D01*
X96452839Y-132906137D01*
X95802839Y-131780303D01*
X95802839Y-131780303D01*
G37*
G04 #@! TD*
M02*
