G04 #@! TF.GenerationSoftware,KiCad,Pcbnew,(5.0.2)-1*
G04 #@! TF.CreationDate,2019-11-10T22:05:31+09:00*
G04 #@! TF.ProjectId,Base,42617365-2e6b-4696-9361-645f70636258,rev?*
G04 #@! TF.SameCoordinates,Original*
G04 #@! TF.FileFunction,Soldermask,Bot*
G04 #@! TF.FilePolarity,Negative*
%FSLAX46Y46*%
G04 Gerber Fmt 4.6, Leading zero omitted, Abs format (unit mm)*
G04 Created by KiCad (PCBNEW (5.0.2)-1) date 2019/11/10 22:05:31*
%MOMM*%
%LPD*%
G01*
G04 APERTURE LIST*
%ADD10C,0.100000*%
G04 APERTURE END LIST*
D10*
G36*
X170375256Y-143391298D02*
X170481579Y-143412447D01*
X170782042Y-143536903D01*
X171048852Y-143715180D01*
X171052454Y-143717587D01*
X171282413Y-143947546D01*
X171463098Y-144217960D01*
X171587553Y-144518422D01*
X171651000Y-144837389D01*
X171651000Y-145162611D01*
X171587553Y-145481578D01*
X171463098Y-145782040D01*
X171282413Y-146052454D01*
X171052454Y-146282413D01*
X171052451Y-146282415D01*
X170782042Y-146463097D01*
X170481579Y-146587553D01*
X170375256Y-146608702D01*
X170162611Y-146651000D01*
X169837389Y-146651000D01*
X169624744Y-146608702D01*
X169518421Y-146587553D01*
X169217958Y-146463097D01*
X168947549Y-146282415D01*
X168947546Y-146282413D01*
X168717587Y-146052454D01*
X168536902Y-145782040D01*
X168412447Y-145481578D01*
X168349000Y-145162611D01*
X168349000Y-144837389D01*
X168412447Y-144518422D01*
X168536902Y-144217960D01*
X168717587Y-143947546D01*
X168947546Y-143717587D01*
X168951148Y-143715180D01*
X169217958Y-143536903D01*
X169518421Y-143412447D01*
X169624744Y-143391298D01*
X169837389Y-143349000D01*
X170162611Y-143349000D01*
X170375256Y-143391298D01*
X170375256Y-143391298D01*
G37*
G36*
X90375256Y-143391298D02*
X90481579Y-143412447D01*
X90782042Y-143536903D01*
X91048852Y-143715180D01*
X91052454Y-143717587D01*
X91282413Y-143947546D01*
X91463098Y-144217960D01*
X91587553Y-144518422D01*
X91651000Y-144837389D01*
X91651000Y-145162611D01*
X91587553Y-145481578D01*
X91463098Y-145782040D01*
X91282413Y-146052454D01*
X91052454Y-146282413D01*
X91052451Y-146282415D01*
X90782042Y-146463097D01*
X90481579Y-146587553D01*
X90375256Y-146608702D01*
X90162611Y-146651000D01*
X89837389Y-146651000D01*
X89624744Y-146608702D01*
X89518421Y-146587553D01*
X89217958Y-146463097D01*
X88947549Y-146282415D01*
X88947546Y-146282413D01*
X88717587Y-146052454D01*
X88536902Y-145782040D01*
X88412447Y-145481578D01*
X88349000Y-145162611D01*
X88349000Y-144837389D01*
X88412447Y-144518422D01*
X88536902Y-144217960D01*
X88717587Y-143947546D01*
X88947546Y-143717587D01*
X88951148Y-143715180D01*
X89217958Y-143536903D01*
X89518421Y-143412447D01*
X89624744Y-143391298D01*
X89837389Y-143349000D01*
X90162611Y-143349000D01*
X90375256Y-143391298D01*
X90375256Y-143391298D01*
G37*
G36*
X117697142Y-131758242D02*
X117845102Y-131819530D01*
X117978258Y-131908502D01*
X118091498Y-132021742D01*
X118180470Y-132154898D01*
X118241758Y-132302858D01*
X118273000Y-132459925D01*
X118273000Y-132620075D01*
X118241758Y-132777142D01*
X118180470Y-132925102D01*
X118091498Y-133058258D01*
X117978258Y-133171498D01*
X117845102Y-133260470D01*
X117697142Y-133321758D01*
X117540075Y-133353000D01*
X117379925Y-133353000D01*
X117222858Y-133321758D01*
X117074898Y-133260470D01*
X116941742Y-133171498D01*
X116828502Y-133058258D01*
X116739530Y-132925102D01*
X116678242Y-132777142D01*
X116647000Y-132620075D01*
X116647000Y-132459925D01*
X116678242Y-132302858D01*
X116739530Y-132154898D01*
X116828502Y-132021742D01*
X116941742Y-131908502D01*
X117074898Y-131819530D01*
X117222858Y-131758242D01*
X117379925Y-131727000D01*
X117540075Y-131727000D01*
X117697142Y-131758242D01*
X117697142Y-131758242D01*
G37*
G36*
X115157142Y-131758242D02*
X115305102Y-131819530D01*
X115438258Y-131908502D01*
X115551498Y-132021742D01*
X115640470Y-132154898D01*
X115701758Y-132302858D01*
X115733000Y-132459925D01*
X115733000Y-132620075D01*
X115701758Y-132777142D01*
X115640470Y-132925102D01*
X115551498Y-133058258D01*
X115438258Y-133171498D01*
X115305102Y-133260470D01*
X115157142Y-133321758D01*
X115000075Y-133353000D01*
X114839925Y-133353000D01*
X114682858Y-133321758D01*
X114534898Y-133260470D01*
X114401742Y-133171498D01*
X114288502Y-133058258D01*
X114199530Y-132925102D01*
X114138242Y-132777142D01*
X114107000Y-132620075D01*
X114107000Y-132459925D01*
X114138242Y-132302858D01*
X114199530Y-132154898D01*
X114288502Y-132021742D01*
X114401742Y-131908502D01*
X114534898Y-131819530D01*
X114682858Y-131758242D01*
X114839925Y-131727000D01*
X115000075Y-131727000D01*
X115157142Y-131758242D01*
X115157142Y-131758242D01*
G37*
G36*
X122777142Y-131758242D02*
X122925102Y-131819530D01*
X123058258Y-131908502D01*
X123171498Y-132021742D01*
X123260470Y-132154898D01*
X123321758Y-132302858D01*
X123353000Y-132459925D01*
X123353000Y-132620075D01*
X123321758Y-132777142D01*
X123260470Y-132925102D01*
X123171498Y-133058258D01*
X123058258Y-133171498D01*
X122925102Y-133260470D01*
X122777142Y-133321758D01*
X122620075Y-133353000D01*
X122459925Y-133353000D01*
X122302858Y-133321758D01*
X122154898Y-133260470D01*
X122021742Y-133171498D01*
X121908502Y-133058258D01*
X121819530Y-132925102D01*
X121758242Y-132777142D01*
X121727000Y-132620075D01*
X121727000Y-132459925D01*
X121758242Y-132302858D01*
X121819530Y-132154898D01*
X121908502Y-132021742D01*
X122021742Y-131908502D01*
X122154898Y-131819530D01*
X122302858Y-131758242D01*
X122459925Y-131727000D01*
X122620075Y-131727000D01*
X122777142Y-131758242D01*
X122777142Y-131758242D01*
G37*
G36*
X125317142Y-131758242D02*
X125465102Y-131819530D01*
X125598258Y-131908502D01*
X125711498Y-132021742D01*
X125800470Y-132154898D01*
X125861758Y-132302858D01*
X125893000Y-132459925D01*
X125893000Y-132620075D01*
X125861758Y-132777142D01*
X125800470Y-132925102D01*
X125711498Y-133058258D01*
X125598258Y-133171498D01*
X125465102Y-133260470D01*
X125317142Y-133321758D01*
X125160075Y-133353000D01*
X124999925Y-133353000D01*
X124842858Y-133321758D01*
X124694898Y-133260470D01*
X124561742Y-133171498D01*
X124448502Y-133058258D01*
X124359530Y-132925102D01*
X124298242Y-132777142D01*
X124267000Y-132620075D01*
X124267000Y-132459925D01*
X124298242Y-132302858D01*
X124359530Y-132154898D01*
X124448502Y-132021742D01*
X124561742Y-131908502D01*
X124694898Y-131819530D01*
X124842858Y-131758242D01*
X124999925Y-131727000D01*
X125160075Y-131727000D01*
X125317142Y-131758242D01*
X125317142Y-131758242D01*
G37*
G36*
X120237142Y-131758242D02*
X120385102Y-131819530D01*
X120518258Y-131908502D01*
X120631498Y-132021742D01*
X120720470Y-132154898D01*
X120781758Y-132302858D01*
X120813000Y-132459925D01*
X120813000Y-132620075D01*
X120781758Y-132777142D01*
X120720470Y-132925102D01*
X120631498Y-133058258D01*
X120518258Y-133171498D01*
X120385102Y-133260470D01*
X120237142Y-133321758D01*
X120080075Y-133353000D01*
X119919925Y-133353000D01*
X119762858Y-133321758D01*
X119614898Y-133260470D01*
X119481742Y-133171498D01*
X119368502Y-133058258D01*
X119279530Y-132925102D01*
X119218242Y-132777142D01*
X119187000Y-132620075D01*
X119187000Y-132459925D01*
X119218242Y-132302858D01*
X119279530Y-132154898D01*
X119368502Y-132021742D01*
X119481742Y-131908502D01*
X119614898Y-131819530D01*
X119762858Y-131758242D01*
X119919925Y-131727000D01*
X120080075Y-131727000D01*
X120237142Y-131758242D01*
X120237142Y-131758242D01*
G37*
G36*
X117697142Y-126678242D02*
X117845102Y-126739530D01*
X117978258Y-126828502D01*
X118091498Y-126941742D01*
X118180470Y-127074898D01*
X118241758Y-127222858D01*
X118273000Y-127379925D01*
X118273000Y-127540075D01*
X118241758Y-127697142D01*
X118180470Y-127845102D01*
X118091498Y-127978258D01*
X117978258Y-128091498D01*
X117845102Y-128180470D01*
X117697142Y-128241758D01*
X117540075Y-128273000D01*
X117379925Y-128273000D01*
X117222858Y-128241758D01*
X117074898Y-128180470D01*
X116941742Y-128091498D01*
X116828502Y-127978258D01*
X116739530Y-127845102D01*
X116678242Y-127697142D01*
X116647000Y-127540075D01*
X116647000Y-127379925D01*
X116678242Y-127222858D01*
X116739530Y-127074898D01*
X116828502Y-126941742D01*
X116941742Y-126828502D01*
X117074898Y-126739530D01*
X117222858Y-126678242D01*
X117379925Y-126647000D01*
X117540075Y-126647000D01*
X117697142Y-126678242D01*
X117697142Y-126678242D01*
G37*
G36*
X115157142Y-126678242D02*
X115305102Y-126739530D01*
X115438258Y-126828502D01*
X115551498Y-126941742D01*
X115640470Y-127074898D01*
X115701758Y-127222858D01*
X115733000Y-127379925D01*
X115733000Y-127540075D01*
X115701758Y-127697142D01*
X115640470Y-127845102D01*
X115551498Y-127978258D01*
X115438258Y-128091498D01*
X115305102Y-128180470D01*
X115157142Y-128241758D01*
X115000075Y-128273000D01*
X114839925Y-128273000D01*
X114682858Y-128241758D01*
X114534898Y-128180470D01*
X114401742Y-128091498D01*
X114288502Y-127978258D01*
X114199530Y-127845102D01*
X114138242Y-127697142D01*
X114107000Y-127540075D01*
X114107000Y-127379925D01*
X114138242Y-127222858D01*
X114199530Y-127074898D01*
X114288502Y-126941742D01*
X114401742Y-126828502D01*
X114534898Y-126739530D01*
X114682858Y-126678242D01*
X114839925Y-126647000D01*
X115000075Y-126647000D01*
X115157142Y-126678242D01*
X115157142Y-126678242D01*
G37*
G36*
X120237142Y-126678242D02*
X120385102Y-126739530D01*
X120518258Y-126828502D01*
X120631498Y-126941742D01*
X120720470Y-127074898D01*
X120781758Y-127222858D01*
X120813000Y-127379925D01*
X120813000Y-127540075D01*
X120781758Y-127697142D01*
X120720470Y-127845102D01*
X120631498Y-127978258D01*
X120518258Y-128091498D01*
X120385102Y-128180470D01*
X120237142Y-128241758D01*
X120080075Y-128273000D01*
X119919925Y-128273000D01*
X119762858Y-128241758D01*
X119614898Y-128180470D01*
X119481742Y-128091498D01*
X119368502Y-127978258D01*
X119279530Y-127845102D01*
X119218242Y-127697142D01*
X119187000Y-127540075D01*
X119187000Y-127379925D01*
X119218242Y-127222858D01*
X119279530Y-127074898D01*
X119368502Y-126941742D01*
X119481742Y-126828502D01*
X119614898Y-126739530D01*
X119762858Y-126678242D01*
X119919925Y-126647000D01*
X120080075Y-126647000D01*
X120237142Y-126678242D01*
X120237142Y-126678242D01*
G37*
G36*
X122777142Y-126678242D02*
X122925102Y-126739530D01*
X123058258Y-126828502D01*
X123171498Y-126941742D01*
X123260470Y-127074898D01*
X123321758Y-127222858D01*
X123353000Y-127379925D01*
X123353000Y-127540075D01*
X123321758Y-127697142D01*
X123260470Y-127845102D01*
X123171498Y-127978258D01*
X123058258Y-128091498D01*
X122925102Y-128180470D01*
X122777142Y-128241758D01*
X122620075Y-128273000D01*
X122459925Y-128273000D01*
X122302858Y-128241758D01*
X122154898Y-128180470D01*
X122021742Y-128091498D01*
X121908502Y-127978258D01*
X121819530Y-127845102D01*
X121758242Y-127697142D01*
X121727000Y-127540075D01*
X121727000Y-127379925D01*
X121758242Y-127222858D01*
X121819530Y-127074898D01*
X121908502Y-126941742D01*
X122021742Y-126828502D01*
X122154898Y-126739530D01*
X122302858Y-126678242D01*
X122459925Y-126647000D01*
X122620075Y-126647000D01*
X122777142Y-126678242D01*
X122777142Y-126678242D01*
G37*
G36*
X125317142Y-126678242D02*
X125465102Y-126739530D01*
X125598258Y-126828502D01*
X125711498Y-126941742D01*
X125800470Y-127074898D01*
X125861758Y-127222858D01*
X125893000Y-127379925D01*
X125893000Y-127540075D01*
X125861758Y-127697142D01*
X125800470Y-127845102D01*
X125711498Y-127978258D01*
X125598258Y-128091498D01*
X125465102Y-128180470D01*
X125317142Y-128241758D01*
X125160075Y-128273000D01*
X124999925Y-128273000D01*
X124842858Y-128241758D01*
X124694898Y-128180470D01*
X124561742Y-128091498D01*
X124448502Y-127978258D01*
X124359530Y-127845102D01*
X124298242Y-127697142D01*
X124267000Y-127540075D01*
X124267000Y-127379925D01*
X124298242Y-127222858D01*
X124359530Y-127074898D01*
X124448502Y-126941742D01*
X124561742Y-126828502D01*
X124694898Y-126739530D01*
X124842858Y-126678242D01*
X124999925Y-126647000D01*
X125160075Y-126647000D01*
X125317142Y-126678242D01*
X125317142Y-126678242D01*
G37*
G36*
X140237142Y-101758242D02*
X140385102Y-101819530D01*
X140518258Y-101908502D01*
X140631498Y-102021742D01*
X140720470Y-102154898D01*
X140781758Y-102302858D01*
X140813000Y-102459925D01*
X140813000Y-102620075D01*
X140781758Y-102777142D01*
X140720470Y-102925102D01*
X140631498Y-103058258D01*
X140518258Y-103171498D01*
X140385102Y-103260470D01*
X140237142Y-103321758D01*
X140080075Y-103353000D01*
X139919925Y-103353000D01*
X139762858Y-103321758D01*
X139614898Y-103260470D01*
X139481742Y-103171498D01*
X139368502Y-103058258D01*
X139279530Y-102925102D01*
X139218242Y-102777142D01*
X139187000Y-102620075D01*
X139187000Y-102459925D01*
X139218242Y-102302858D01*
X139279530Y-102154898D01*
X139368502Y-102021742D01*
X139481742Y-101908502D01*
X139614898Y-101819530D01*
X139762858Y-101758242D01*
X139919925Y-101727000D01*
X140080075Y-101727000D01*
X140237142Y-101758242D01*
X140237142Y-101758242D01*
G37*
G36*
X145317142Y-101758242D02*
X145465102Y-101819530D01*
X145598258Y-101908502D01*
X145711498Y-102021742D01*
X145800470Y-102154898D01*
X145861758Y-102302858D01*
X145893000Y-102459925D01*
X145893000Y-102620075D01*
X145861758Y-102777142D01*
X145800470Y-102925102D01*
X145711498Y-103058258D01*
X145598258Y-103171498D01*
X145465102Y-103260470D01*
X145317142Y-103321758D01*
X145160075Y-103353000D01*
X144999925Y-103353000D01*
X144842858Y-103321758D01*
X144694898Y-103260470D01*
X144561742Y-103171498D01*
X144448502Y-103058258D01*
X144359530Y-102925102D01*
X144298242Y-102777142D01*
X144267000Y-102620075D01*
X144267000Y-102459925D01*
X144298242Y-102302858D01*
X144359530Y-102154898D01*
X144448502Y-102021742D01*
X144561742Y-101908502D01*
X144694898Y-101819530D01*
X144842858Y-101758242D01*
X144999925Y-101727000D01*
X145160075Y-101727000D01*
X145317142Y-101758242D01*
X145317142Y-101758242D01*
G37*
G36*
X142777142Y-101758242D02*
X142925102Y-101819530D01*
X143058258Y-101908502D01*
X143171498Y-102021742D01*
X143260470Y-102154898D01*
X143321758Y-102302858D01*
X143353000Y-102459925D01*
X143353000Y-102620075D01*
X143321758Y-102777142D01*
X143260470Y-102925102D01*
X143171498Y-103058258D01*
X143058258Y-103171498D01*
X142925102Y-103260470D01*
X142777142Y-103321758D01*
X142620075Y-103353000D01*
X142459925Y-103353000D01*
X142302858Y-103321758D01*
X142154898Y-103260470D01*
X142021742Y-103171498D01*
X141908502Y-103058258D01*
X141819530Y-102925102D01*
X141758242Y-102777142D01*
X141727000Y-102620075D01*
X141727000Y-102459925D01*
X141758242Y-102302858D01*
X141819530Y-102154898D01*
X141908502Y-102021742D01*
X142021742Y-101908502D01*
X142154898Y-101819530D01*
X142302858Y-101758242D01*
X142459925Y-101727000D01*
X142620075Y-101727000D01*
X142777142Y-101758242D01*
X142777142Y-101758242D01*
G37*
G36*
X137697142Y-101758242D02*
X137845102Y-101819530D01*
X137978258Y-101908502D01*
X138091498Y-102021742D01*
X138180470Y-102154898D01*
X138241758Y-102302858D01*
X138273000Y-102459925D01*
X138273000Y-102620075D01*
X138241758Y-102777142D01*
X138180470Y-102925102D01*
X138091498Y-103058258D01*
X137978258Y-103171498D01*
X137845102Y-103260470D01*
X137697142Y-103321758D01*
X137540075Y-103353000D01*
X137379925Y-103353000D01*
X137222858Y-103321758D01*
X137074898Y-103260470D01*
X136941742Y-103171498D01*
X136828502Y-103058258D01*
X136739530Y-102925102D01*
X136678242Y-102777142D01*
X136647000Y-102620075D01*
X136647000Y-102459925D01*
X136678242Y-102302858D01*
X136739530Y-102154898D01*
X136828502Y-102021742D01*
X136941742Y-101908502D01*
X137074898Y-101819530D01*
X137222858Y-101758242D01*
X137379925Y-101727000D01*
X137540075Y-101727000D01*
X137697142Y-101758242D01*
X137697142Y-101758242D01*
G37*
G36*
X135157142Y-101758242D02*
X135305102Y-101819530D01*
X135438258Y-101908502D01*
X135551498Y-102021742D01*
X135640470Y-102154898D01*
X135701758Y-102302858D01*
X135733000Y-102459925D01*
X135733000Y-102620075D01*
X135701758Y-102777142D01*
X135640470Y-102925102D01*
X135551498Y-103058258D01*
X135438258Y-103171498D01*
X135305102Y-103260470D01*
X135157142Y-103321758D01*
X135000075Y-103353000D01*
X134839925Y-103353000D01*
X134682858Y-103321758D01*
X134534898Y-103260470D01*
X134401742Y-103171498D01*
X134288502Y-103058258D01*
X134199530Y-102925102D01*
X134138242Y-102777142D01*
X134107000Y-102620075D01*
X134107000Y-102459925D01*
X134138242Y-102302858D01*
X134199530Y-102154898D01*
X134288502Y-102021742D01*
X134401742Y-101908502D01*
X134534898Y-101819530D01*
X134682858Y-101758242D01*
X134839925Y-101727000D01*
X135000075Y-101727000D01*
X135157142Y-101758242D01*
X135157142Y-101758242D01*
G37*
G36*
X135157142Y-96678242D02*
X135305102Y-96739530D01*
X135438258Y-96828502D01*
X135551498Y-96941742D01*
X135640470Y-97074898D01*
X135701758Y-97222858D01*
X135733000Y-97379925D01*
X135733000Y-97540075D01*
X135701758Y-97697142D01*
X135640470Y-97845102D01*
X135551498Y-97978258D01*
X135438258Y-98091498D01*
X135305102Y-98180470D01*
X135157142Y-98241758D01*
X135000075Y-98273000D01*
X134839925Y-98273000D01*
X134682858Y-98241758D01*
X134534898Y-98180470D01*
X134401742Y-98091498D01*
X134288502Y-97978258D01*
X134199530Y-97845102D01*
X134138242Y-97697142D01*
X134107000Y-97540075D01*
X134107000Y-97379925D01*
X134138242Y-97222858D01*
X134199530Y-97074898D01*
X134288502Y-96941742D01*
X134401742Y-96828502D01*
X134534898Y-96739530D01*
X134682858Y-96678242D01*
X134839925Y-96647000D01*
X135000075Y-96647000D01*
X135157142Y-96678242D01*
X135157142Y-96678242D01*
G37*
G36*
X140237142Y-96678242D02*
X140385102Y-96739530D01*
X140518258Y-96828502D01*
X140631498Y-96941742D01*
X140720470Y-97074898D01*
X140781758Y-97222858D01*
X140813000Y-97379925D01*
X140813000Y-97540075D01*
X140781758Y-97697142D01*
X140720470Y-97845102D01*
X140631498Y-97978258D01*
X140518258Y-98091498D01*
X140385102Y-98180470D01*
X140237142Y-98241758D01*
X140080075Y-98273000D01*
X139919925Y-98273000D01*
X139762858Y-98241758D01*
X139614898Y-98180470D01*
X139481742Y-98091498D01*
X139368502Y-97978258D01*
X139279530Y-97845102D01*
X139218242Y-97697142D01*
X139187000Y-97540075D01*
X139187000Y-97379925D01*
X139218242Y-97222858D01*
X139279530Y-97074898D01*
X139368502Y-96941742D01*
X139481742Y-96828502D01*
X139614898Y-96739530D01*
X139762858Y-96678242D01*
X139919925Y-96647000D01*
X140080075Y-96647000D01*
X140237142Y-96678242D01*
X140237142Y-96678242D01*
G37*
G36*
X137697142Y-96678242D02*
X137845102Y-96739530D01*
X137978258Y-96828502D01*
X138091498Y-96941742D01*
X138180470Y-97074898D01*
X138241758Y-97222858D01*
X138273000Y-97379925D01*
X138273000Y-97540075D01*
X138241758Y-97697142D01*
X138180470Y-97845102D01*
X138091498Y-97978258D01*
X137978258Y-98091498D01*
X137845102Y-98180470D01*
X137697142Y-98241758D01*
X137540075Y-98273000D01*
X137379925Y-98273000D01*
X137222858Y-98241758D01*
X137074898Y-98180470D01*
X136941742Y-98091498D01*
X136828502Y-97978258D01*
X136739530Y-97845102D01*
X136678242Y-97697142D01*
X136647000Y-97540075D01*
X136647000Y-97379925D01*
X136678242Y-97222858D01*
X136739530Y-97074898D01*
X136828502Y-96941742D01*
X136941742Y-96828502D01*
X137074898Y-96739530D01*
X137222858Y-96678242D01*
X137379925Y-96647000D01*
X137540075Y-96647000D01*
X137697142Y-96678242D01*
X137697142Y-96678242D01*
G37*
G36*
X145317142Y-96678242D02*
X145465102Y-96739530D01*
X145598258Y-96828502D01*
X145711498Y-96941742D01*
X145800470Y-97074898D01*
X145861758Y-97222858D01*
X145893000Y-97379925D01*
X145893000Y-97540075D01*
X145861758Y-97697142D01*
X145800470Y-97845102D01*
X145711498Y-97978258D01*
X145598258Y-98091498D01*
X145465102Y-98180470D01*
X145317142Y-98241758D01*
X145160075Y-98273000D01*
X144999925Y-98273000D01*
X144842858Y-98241758D01*
X144694898Y-98180470D01*
X144561742Y-98091498D01*
X144448502Y-97978258D01*
X144359530Y-97845102D01*
X144298242Y-97697142D01*
X144267000Y-97540075D01*
X144267000Y-97379925D01*
X144298242Y-97222858D01*
X144359530Y-97074898D01*
X144448502Y-96941742D01*
X144561742Y-96828502D01*
X144694898Y-96739530D01*
X144842858Y-96678242D01*
X144999925Y-96647000D01*
X145160075Y-96647000D01*
X145317142Y-96678242D01*
X145317142Y-96678242D01*
G37*
G36*
X142777142Y-96678242D02*
X142925102Y-96739530D01*
X143058258Y-96828502D01*
X143171498Y-96941742D01*
X143260470Y-97074898D01*
X143321758Y-97222858D01*
X143353000Y-97379925D01*
X143353000Y-97540075D01*
X143321758Y-97697142D01*
X143260470Y-97845102D01*
X143171498Y-97978258D01*
X143058258Y-98091498D01*
X142925102Y-98180470D01*
X142777142Y-98241758D01*
X142620075Y-98273000D01*
X142459925Y-98273000D01*
X142302858Y-98241758D01*
X142154898Y-98180470D01*
X142021742Y-98091498D01*
X141908502Y-97978258D01*
X141819530Y-97845102D01*
X141758242Y-97697142D01*
X141727000Y-97540075D01*
X141727000Y-97379925D01*
X141758242Y-97222858D01*
X141819530Y-97074898D01*
X141908502Y-96941742D01*
X142021742Y-96828502D01*
X142154898Y-96739530D01*
X142302858Y-96678242D01*
X142459925Y-96647000D01*
X142620075Y-96647000D01*
X142777142Y-96678242D01*
X142777142Y-96678242D01*
G37*
G36*
X115157142Y-71758242D02*
X115305102Y-71819530D01*
X115438258Y-71908502D01*
X115551498Y-72021742D01*
X115640470Y-72154898D01*
X115701758Y-72302858D01*
X115733000Y-72459925D01*
X115733000Y-72620075D01*
X115701758Y-72777142D01*
X115640470Y-72925102D01*
X115551498Y-73058258D01*
X115438258Y-73171498D01*
X115305102Y-73260470D01*
X115157142Y-73321758D01*
X115000075Y-73353000D01*
X114839925Y-73353000D01*
X114682858Y-73321758D01*
X114534898Y-73260470D01*
X114401742Y-73171498D01*
X114288502Y-73058258D01*
X114199530Y-72925102D01*
X114138242Y-72777142D01*
X114107000Y-72620075D01*
X114107000Y-72459925D01*
X114138242Y-72302858D01*
X114199530Y-72154898D01*
X114288502Y-72021742D01*
X114401742Y-71908502D01*
X114534898Y-71819530D01*
X114682858Y-71758242D01*
X114839925Y-71727000D01*
X115000075Y-71727000D01*
X115157142Y-71758242D01*
X115157142Y-71758242D01*
G37*
G36*
X117697142Y-71758242D02*
X117845102Y-71819530D01*
X117978258Y-71908502D01*
X118091498Y-72021742D01*
X118180470Y-72154898D01*
X118241758Y-72302858D01*
X118273000Y-72459925D01*
X118273000Y-72620075D01*
X118241758Y-72777142D01*
X118180470Y-72925102D01*
X118091498Y-73058258D01*
X117978258Y-73171498D01*
X117845102Y-73260470D01*
X117697142Y-73321758D01*
X117540075Y-73353000D01*
X117379925Y-73353000D01*
X117222858Y-73321758D01*
X117074898Y-73260470D01*
X116941742Y-73171498D01*
X116828502Y-73058258D01*
X116739530Y-72925102D01*
X116678242Y-72777142D01*
X116647000Y-72620075D01*
X116647000Y-72459925D01*
X116678242Y-72302858D01*
X116739530Y-72154898D01*
X116828502Y-72021742D01*
X116941742Y-71908502D01*
X117074898Y-71819530D01*
X117222858Y-71758242D01*
X117379925Y-71727000D01*
X117540075Y-71727000D01*
X117697142Y-71758242D01*
X117697142Y-71758242D01*
G37*
G36*
X120237142Y-71758242D02*
X120385102Y-71819530D01*
X120518258Y-71908502D01*
X120631498Y-72021742D01*
X120720470Y-72154898D01*
X120781758Y-72302858D01*
X120813000Y-72459925D01*
X120813000Y-72620075D01*
X120781758Y-72777142D01*
X120720470Y-72925102D01*
X120631498Y-73058258D01*
X120518258Y-73171498D01*
X120385102Y-73260470D01*
X120237142Y-73321758D01*
X120080075Y-73353000D01*
X119919925Y-73353000D01*
X119762858Y-73321758D01*
X119614898Y-73260470D01*
X119481742Y-73171498D01*
X119368502Y-73058258D01*
X119279530Y-72925102D01*
X119218242Y-72777142D01*
X119187000Y-72620075D01*
X119187000Y-72459925D01*
X119218242Y-72302858D01*
X119279530Y-72154898D01*
X119368502Y-72021742D01*
X119481742Y-71908502D01*
X119614898Y-71819530D01*
X119762858Y-71758242D01*
X119919925Y-71727000D01*
X120080075Y-71727000D01*
X120237142Y-71758242D01*
X120237142Y-71758242D01*
G37*
G36*
X122777142Y-71758242D02*
X122925102Y-71819530D01*
X123058258Y-71908502D01*
X123171498Y-72021742D01*
X123260470Y-72154898D01*
X123321758Y-72302858D01*
X123353000Y-72459925D01*
X123353000Y-72620075D01*
X123321758Y-72777142D01*
X123260470Y-72925102D01*
X123171498Y-73058258D01*
X123058258Y-73171498D01*
X122925102Y-73260470D01*
X122777142Y-73321758D01*
X122620075Y-73353000D01*
X122459925Y-73353000D01*
X122302858Y-73321758D01*
X122154898Y-73260470D01*
X122021742Y-73171498D01*
X121908502Y-73058258D01*
X121819530Y-72925102D01*
X121758242Y-72777142D01*
X121727000Y-72620075D01*
X121727000Y-72459925D01*
X121758242Y-72302858D01*
X121819530Y-72154898D01*
X121908502Y-72021742D01*
X122021742Y-71908502D01*
X122154898Y-71819530D01*
X122302858Y-71758242D01*
X122459925Y-71727000D01*
X122620075Y-71727000D01*
X122777142Y-71758242D01*
X122777142Y-71758242D01*
G37*
G36*
X125317142Y-71758242D02*
X125465102Y-71819530D01*
X125598258Y-71908502D01*
X125711498Y-72021742D01*
X125800470Y-72154898D01*
X125861758Y-72302858D01*
X125893000Y-72459925D01*
X125893000Y-72620075D01*
X125861758Y-72777142D01*
X125800470Y-72925102D01*
X125711498Y-73058258D01*
X125598258Y-73171498D01*
X125465102Y-73260470D01*
X125317142Y-73321758D01*
X125160075Y-73353000D01*
X124999925Y-73353000D01*
X124842858Y-73321758D01*
X124694898Y-73260470D01*
X124561742Y-73171498D01*
X124448502Y-73058258D01*
X124359530Y-72925102D01*
X124298242Y-72777142D01*
X124267000Y-72620075D01*
X124267000Y-72459925D01*
X124298242Y-72302858D01*
X124359530Y-72154898D01*
X124448502Y-72021742D01*
X124561742Y-71908502D01*
X124694898Y-71819530D01*
X124842858Y-71758242D01*
X124999925Y-71727000D01*
X125160075Y-71727000D01*
X125317142Y-71758242D01*
X125317142Y-71758242D01*
G37*
G36*
X98351000Y-70851000D02*
X96649000Y-70851000D01*
X96649000Y-69149000D01*
X98351000Y-69149000D01*
X98351000Y-70851000D01*
X98351000Y-70851000D01*
G37*
G36*
X95248228Y-69181703D02*
X95403100Y-69245853D01*
X95542481Y-69338985D01*
X95661015Y-69457519D01*
X95754147Y-69596900D01*
X95818297Y-69751772D01*
X95851000Y-69916184D01*
X95851000Y-70083816D01*
X95818297Y-70248228D01*
X95754147Y-70403100D01*
X95661015Y-70542481D01*
X95542481Y-70661015D01*
X95403100Y-70754147D01*
X95248228Y-70818297D01*
X95083816Y-70851000D01*
X94916184Y-70851000D01*
X94751772Y-70818297D01*
X94596900Y-70754147D01*
X94457519Y-70661015D01*
X94338985Y-70542481D01*
X94245853Y-70403100D01*
X94181703Y-70248228D01*
X94149000Y-70083816D01*
X94149000Y-69916184D01*
X94181703Y-69751772D01*
X94245853Y-69596900D01*
X94338985Y-69457519D01*
X94457519Y-69338985D01*
X94596900Y-69245853D01*
X94751772Y-69181703D01*
X94916184Y-69149000D01*
X95083816Y-69149000D01*
X95248228Y-69181703D01*
X95248228Y-69181703D01*
G37*
G36*
X120237142Y-66678242D02*
X120385102Y-66739530D01*
X120518258Y-66828502D01*
X120631498Y-66941742D01*
X120720470Y-67074898D01*
X120781758Y-67222858D01*
X120813000Y-67379925D01*
X120813000Y-67540075D01*
X120781758Y-67697142D01*
X120720470Y-67845102D01*
X120631498Y-67978258D01*
X120518258Y-68091498D01*
X120385102Y-68180470D01*
X120237142Y-68241758D01*
X120080075Y-68273000D01*
X119919925Y-68273000D01*
X119762858Y-68241758D01*
X119614898Y-68180470D01*
X119481742Y-68091498D01*
X119368502Y-67978258D01*
X119279530Y-67845102D01*
X119218242Y-67697142D01*
X119187000Y-67540075D01*
X119187000Y-67379925D01*
X119218242Y-67222858D01*
X119279530Y-67074898D01*
X119368502Y-66941742D01*
X119481742Y-66828502D01*
X119614898Y-66739530D01*
X119762858Y-66678242D01*
X119919925Y-66647000D01*
X120080075Y-66647000D01*
X120237142Y-66678242D01*
X120237142Y-66678242D01*
G37*
G36*
X125317142Y-66678242D02*
X125465102Y-66739530D01*
X125598258Y-66828502D01*
X125711498Y-66941742D01*
X125800470Y-67074898D01*
X125861758Y-67222858D01*
X125893000Y-67379925D01*
X125893000Y-67540075D01*
X125861758Y-67697142D01*
X125800470Y-67845102D01*
X125711498Y-67978258D01*
X125598258Y-68091498D01*
X125465102Y-68180470D01*
X125317142Y-68241758D01*
X125160075Y-68273000D01*
X124999925Y-68273000D01*
X124842858Y-68241758D01*
X124694898Y-68180470D01*
X124561742Y-68091498D01*
X124448502Y-67978258D01*
X124359530Y-67845102D01*
X124298242Y-67697142D01*
X124267000Y-67540075D01*
X124267000Y-67379925D01*
X124298242Y-67222858D01*
X124359530Y-67074898D01*
X124448502Y-66941742D01*
X124561742Y-66828502D01*
X124694898Y-66739530D01*
X124842858Y-66678242D01*
X124999925Y-66647000D01*
X125160075Y-66647000D01*
X125317142Y-66678242D01*
X125317142Y-66678242D01*
G37*
G36*
X122777142Y-66678242D02*
X122925102Y-66739530D01*
X123058258Y-66828502D01*
X123171498Y-66941742D01*
X123260470Y-67074898D01*
X123321758Y-67222858D01*
X123353000Y-67379925D01*
X123353000Y-67540075D01*
X123321758Y-67697142D01*
X123260470Y-67845102D01*
X123171498Y-67978258D01*
X123058258Y-68091498D01*
X122925102Y-68180470D01*
X122777142Y-68241758D01*
X122620075Y-68273000D01*
X122459925Y-68273000D01*
X122302858Y-68241758D01*
X122154898Y-68180470D01*
X122021742Y-68091498D01*
X121908502Y-67978258D01*
X121819530Y-67845102D01*
X121758242Y-67697142D01*
X121727000Y-67540075D01*
X121727000Y-67379925D01*
X121758242Y-67222858D01*
X121819530Y-67074898D01*
X121908502Y-66941742D01*
X122021742Y-66828502D01*
X122154898Y-66739530D01*
X122302858Y-66678242D01*
X122459925Y-66647000D01*
X122620075Y-66647000D01*
X122777142Y-66678242D01*
X122777142Y-66678242D01*
G37*
G36*
X115157142Y-66678242D02*
X115305102Y-66739530D01*
X115438258Y-66828502D01*
X115551498Y-66941742D01*
X115640470Y-67074898D01*
X115701758Y-67222858D01*
X115733000Y-67379925D01*
X115733000Y-67540075D01*
X115701758Y-67697142D01*
X115640470Y-67845102D01*
X115551498Y-67978258D01*
X115438258Y-68091498D01*
X115305102Y-68180470D01*
X115157142Y-68241758D01*
X115000075Y-68273000D01*
X114839925Y-68273000D01*
X114682858Y-68241758D01*
X114534898Y-68180470D01*
X114401742Y-68091498D01*
X114288502Y-67978258D01*
X114199530Y-67845102D01*
X114138242Y-67697142D01*
X114107000Y-67540075D01*
X114107000Y-67379925D01*
X114138242Y-67222858D01*
X114199530Y-67074898D01*
X114288502Y-66941742D01*
X114401742Y-66828502D01*
X114534898Y-66739530D01*
X114682858Y-66678242D01*
X114839925Y-66647000D01*
X115000075Y-66647000D01*
X115157142Y-66678242D01*
X115157142Y-66678242D01*
G37*
G36*
X117697142Y-66678242D02*
X117845102Y-66739530D01*
X117978258Y-66828502D01*
X118091498Y-66941742D01*
X118180470Y-67074898D01*
X118241758Y-67222858D01*
X118273000Y-67379925D01*
X118273000Y-67540075D01*
X118241758Y-67697142D01*
X118180470Y-67845102D01*
X118091498Y-67978258D01*
X117978258Y-68091498D01*
X117845102Y-68180470D01*
X117697142Y-68241758D01*
X117540075Y-68273000D01*
X117379925Y-68273000D01*
X117222858Y-68241758D01*
X117074898Y-68180470D01*
X116941742Y-68091498D01*
X116828502Y-67978258D01*
X116739530Y-67845102D01*
X116678242Y-67697142D01*
X116647000Y-67540075D01*
X116647000Y-67379925D01*
X116678242Y-67222858D01*
X116739530Y-67074898D01*
X116828502Y-66941742D01*
X116941742Y-66828502D01*
X117074898Y-66739530D01*
X117222858Y-66678242D01*
X117379925Y-66647000D01*
X117540075Y-66647000D01*
X117697142Y-66678242D01*
X117697142Y-66678242D01*
G37*
G36*
X170375256Y-63391298D02*
X170481579Y-63412447D01*
X170782042Y-63536903D01*
X171048852Y-63715180D01*
X171052454Y-63717587D01*
X171282413Y-63947546D01*
X171463098Y-64217960D01*
X171587553Y-64518422D01*
X171651000Y-64837389D01*
X171651000Y-65162611D01*
X171587553Y-65481578D01*
X171463098Y-65782040D01*
X171282413Y-66052454D01*
X171052454Y-66282413D01*
X171052451Y-66282415D01*
X170782042Y-66463097D01*
X170481579Y-66587553D01*
X170375256Y-66608702D01*
X170162611Y-66651000D01*
X169837389Y-66651000D01*
X169624744Y-66608702D01*
X169518421Y-66587553D01*
X169217958Y-66463097D01*
X168947549Y-66282415D01*
X168947546Y-66282413D01*
X168717587Y-66052454D01*
X168536902Y-65782040D01*
X168412447Y-65481578D01*
X168349000Y-65162611D01*
X168349000Y-64837389D01*
X168412447Y-64518422D01*
X168536902Y-64217960D01*
X168717587Y-63947546D01*
X168947546Y-63717587D01*
X168951148Y-63715180D01*
X169217958Y-63536903D01*
X169518421Y-63412447D01*
X169624744Y-63391298D01*
X169837389Y-63349000D01*
X170162611Y-63349000D01*
X170375256Y-63391298D01*
X170375256Y-63391298D01*
G37*
G36*
X90375256Y-63391298D02*
X90481579Y-63412447D01*
X90782042Y-63536903D01*
X91048852Y-63715180D01*
X91052454Y-63717587D01*
X91282413Y-63947546D01*
X91463098Y-64217960D01*
X91587553Y-64518422D01*
X91651000Y-64837389D01*
X91651000Y-65162611D01*
X91587553Y-65481578D01*
X91463098Y-65782040D01*
X91282413Y-66052454D01*
X91052454Y-66282413D01*
X91052451Y-66282415D01*
X90782042Y-66463097D01*
X90481579Y-66587553D01*
X90375256Y-66608702D01*
X90162611Y-66651000D01*
X89837389Y-66651000D01*
X89624744Y-66608702D01*
X89518421Y-66587553D01*
X89217958Y-66463097D01*
X88947549Y-66282415D01*
X88947546Y-66282413D01*
X88717587Y-66052454D01*
X88536902Y-65782040D01*
X88412447Y-65481578D01*
X88349000Y-65162611D01*
X88349000Y-64837389D01*
X88412447Y-64518422D01*
X88536902Y-64217960D01*
X88717587Y-63947546D01*
X88947546Y-63717587D01*
X88951148Y-63715180D01*
X89217958Y-63536903D01*
X89518421Y-63412447D01*
X89624744Y-63391298D01*
X89837389Y-63349000D01*
X90162611Y-63349000D01*
X90375256Y-63391298D01*
X90375256Y-63391298D01*
G37*
G36*
X117237142Y-59218242D02*
X117385102Y-59279530D01*
X117518258Y-59368502D01*
X117631498Y-59481742D01*
X117720470Y-59614898D01*
X117781758Y-59762858D01*
X117813000Y-59919925D01*
X117813000Y-60080075D01*
X117781758Y-60237142D01*
X117720470Y-60385102D01*
X117631498Y-60518258D01*
X117518258Y-60631498D01*
X117385102Y-60720470D01*
X117237142Y-60781758D01*
X117080075Y-60813000D01*
X116919925Y-60813000D01*
X116762858Y-60781758D01*
X116614898Y-60720470D01*
X116481742Y-60631498D01*
X116368502Y-60518258D01*
X116279530Y-60385102D01*
X116218242Y-60237142D01*
X116187000Y-60080075D01*
X116187000Y-59919925D01*
X116218242Y-59762858D01*
X116279530Y-59614898D01*
X116368502Y-59481742D01*
X116481742Y-59368502D01*
X116614898Y-59279530D01*
X116762858Y-59218242D01*
X116919925Y-59187000D01*
X117080075Y-59187000D01*
X117237142Y-59218242D01*
X117237142Y-59218242D01*
G37*
G36*
X119237142Y-59218242D02*
X119385102Y-59279530D01*
X119518258Y-59368502D01*
X119631498Y-59481742D01*
X119720470Y-59614898D01*
X119781758Y-59762858D01*
X119813000Y-59919925D01*
X119813000Y-60080075D01*
X119781758Y-60237142D01*
X119720470Y-60385102D01*
X119631498Y-60518258D01*
X119518258Y-60631498D01*
X119385102Y-60720470D01*
X119237142Y-60781758D01*
X119080075Y-60813000D01*
X118919925Y-60813000D01*
X118762858Y-60781758D01*
X118614898Y-60720470D01*
X118481742Y-60631498D01*
X118368502Y-60518258D01*
X118279530Y-60385102D01*
X118218242Y-60237142D01*
X118187000Y-60080075D01*
X118187000Y-59919925D01*
X118218242Y-59762858D01*
X118279530Y-59614898D01*
X118368502Y-59481742D01*
X118481742Y-59368502D01*
X118614898Y-59279530D01*
X118762858Y-59218242D01*
X118919925Y-59187000D01*
X119080075Y-59187000D01*
X119237142Y-59218242D01*
X119237142Y-59218242D01*
G37*
G36*
X121237142Y-59218242D02*
X121385102Y-59279530D01*
X121518258Y-59368502D01*
X121631498Y-59481742D01*
X121720470Y-59614898D01*
X121781758Y-59762858D01*
X121813000Y-59919925D01*
X121813000Y-60080075D01*
X121781758Y-60237142D01*
X121720470Y-60385102D01*
X121631498Y-60518258D01*
X121518258Y-60631498D01*
X121385102Y-60720470D01*
X121237142Y-60781758D01*
X121080075Y-60813000D01*
X120919925Y-60813000D01*
X120762858Y-60781758D01*
X120614898Y-60720470D01*
X120481742Y-60631498D01*
X120368502Y-60518258D01*
X120279530Y-60385102D01*
X120218242Y-60237142D01*
X120187000Y-60080075D01*
X120187000Y-59919925D01*
X120218242Y-59762858D01*
X120279530Y-59614898D01*
X120368502Y-59481742D01*
X120481742Y-59368502D01*
X120614898Y-59279530D01*
X120762858Y-59218242D01*
X120919925Y-59187000D01*
X121080075Y-59187000D01*
X121237142Y-59218242D01*
X121237142Y-59218242D01*
G37*
G36*
X123813000Y-60813000D02*
X122187000Y-60813000D01*
X122187000Y-59187000D01*
X123813000Y-59187000D01*
X123813000Y-60813000D01*
X123813000Y-60813000D01*
G37*
M02*
