M48
;DRILL file {KiCad (5.0.2)-1} date 2019/11/10 22:05:28
;FORMAT={-:-/ absolute / metric / decimal}
FMAT,2
METRIC,TZ
T1C0.400
T2C0.762
T3C0.800
T4C3.200
%
G90
G05
T1
X90.Y-85.
X90.Y-105.
X90.Y-125.
X110.Y-65.
X110.Y-85.
X110.Y-105.
X110.Y-125.
X110.Y-145.
X130.Y-65.
X130.Y-105.
X130.Y-125.
X130.Y-145.
X150.Y-65.
X150.Y-85.
X150.Y-105.
X150.Y-125.
X150.Y-145.
X170.Y-85.
X170.Y-105.
X170.Y-125.
T2
X134.92Y-97.46
X134.92Y-102.54
X137.46Y-97.46
X137.46Y-102.54
X140.Y-97.46
X140.Y-102.54
X142.54Y-97.46
X142.54Y-102.54
X145.08Y-97.46
X145.08Y-102.54
X114.92Y-67.46
X114.92Y-72.54
X117.46Y-67.46
X117.46Y-72.54
X120.Y-67.46
X120.Y-72.54
X122.54Y-67.46
X122.54Y-72.54
X125.08Y-67.46
X125.08Y-72.54
X114.92Y-127.46
X114.92Y-132.54
X117.46Y-127.46
X117.46Y-132.54
X120.Y-127.46
X120.Y-132.54
X122.54Y-127.46
X122.54Y-132.54
X125.08Y-127.46
X125.08Y-132.54
X117.Y-60.
X119.Y-60.
X121.Y-60.
X123.Y-60.
T3
X95.Y-70.
X97.5Y-70.
T4
X170.Y-65.
X90.Y-145.
X90.Y-65.
X170.Y-145.
T0
M30
