G04 #@! TF.GenerationSoftware,KiCad,Pcbnew,(5.0.2)-1*
G04 #@! TF.CreationDate,2019-11-10T22:05:31+09:00*
G04 #@! TF.ProjectId,Base,42617365-2e6b-4696-9361-645f70636258,rev?*
G04 #@! TF.SameCoordinates,Original*
G04 #@! TF.FileFunction,Copper,L1,Top*
G04 #@! TF.FilePolarity,Positive*
%FSLAX46Y46*%
G04 Gerber Fmt 4.6, Leading zero omitted, Abs format (unit mm)*
G04 Created by KiCad (PCBNEW (5.0.2)-1) date 2019/11/10 22:05:31*
%MOMM*%
%LPD*%
G01*
G04 APERTURE LIST*
G04 #@! TA.AperFunction,ComponentPad*
%ADD10C,1.524000*%
G04 #@! TD*
G04 #@! TA.AperFunction,ComponentPad*
%ADD11R,1.600000X1.600000*%
G04 #@! TD*
G04 #@! TA.AperFunction,ComponentPad*
%ADD12C,1.600000*%
G04 #@! TD*
G04 #@! TA.AperFunction,ComponentPad*
%ADD13R,1.524000X1.524000*%
G04 #@! TD*
G04 #@! TA.AperFunction,ViaPad*
%ADD14C,0.800000*%
G04 #@! TD*
G04 #@! TA.AperFunction,Conductor*
%ADD15C,1.000000*%
G04 #@! TD*
G04 #@! TA.AperFunction,Conductor*
%ADD16C,0.500000*%
G04 #@! TD*
G04 #@! TA.AperFunction,Conductor*
%ADD17C,0.250000*%
G04 #@! TD*
G04 #@! TA.AperFunction,Conductor*
%ADD18C,0.254000*%
G04 #@! TD*
G04 APERTURE END LIST*
D10*
G04 #@! TO.P,J4,1*
G04 #@! TO.N,+5V*
X114920000Y-127460000D03*
G04 #@! TO.P,J4,2*
G04 #@! TO.N,SDA*
X117460000Y-127460000D03*
G04 #@! TO.P,J4,3*
G04 #@! TO.N,SCL*
X120000000Y-127460000D03*
G04 #@! TO.P,J4,4*
G04 #@! TO.N,Net-(J4-Pad4)*
X122540000Y-127460000D03*
G04 #@! TO.P,J4,5*
G04 #@! TO.N,GND*
X125080000Y-127460000D03*
G04 #@! TO.P,J4,1*
G04 #@! TO.N,+5V*
X114920000Y-132540000D03*
G04 #@! TO.P,J4,2*
G04 #@! TO.N,SDA*
X117460000Y-132540000D03*
G04 #@! TO.P,J4,3*
G04 #@! TO.N,SCL*
X120000000Y-132540000D03*
G04 #@! TO.P,J4,4*
G04 #@! TO.N,Net-(J4-Pad4)*
X122540000Y-132540000D03*
G04 #@! TO.P,J4,5*
G04 #@! TO.N,GND*
X125080000Y-132540000D03*
G04 #@! TD*
D11*
G04 #@! TO.P,C1,1*
G04 #@! TO.N,+5V*
X97500000Y-70000000D03*
D12*
G04 #@! TO.P,C1,2*
G04 #@! TO.N,GND*
X95000000Y-70000000D03*
G04 #@! TD*
D13*
G04 #@! TO.P,J1,1*
G04 #@! TO.N,SCL*
X123000000Y-60000000D03*
D10*
G04 #@! TO.P,J1,2*
G04 #@! TO.N,SDA*
X121000000Y-60000000D03*
G04 #@! TO.P,J1,3*
G04 #@! TO.N,+5V*
X119000000Y-60000000D03*
G04 #@! TO.P,J1,4*
G04 #@! TO.N,GND*
X117000000Y-60000000D03*
G04 #@! TD*
G04 #@! TO.P,J3,5*
G04 #@! TO.N,GND*
X145080000Y-102540000D03*
G04 #@! TO.P,J3,4*
G04 #@! TO.N,Net-(J3-Pad4)*
X142540000Y-102540000D03*
G04 #@! TO.P,J3,3*
G04 #@! TO.N,SCL*
X140000000Y-102540000D03*
G04 #@! TO.P,J3,2*
G04 #@! TO.N,SDA*
X137460000Y-102540000D03*
G04 #@! TO.P,J3,1*
G04 #@! TO.N,+5V*
X134920000Y-102540000D03*
G04 #@! TO.P,J3,5*
G04 #@! TO.N,GND*
X145080000Y-97460000D03*
G04 #@! TO.P,J3,4*
G04 #@! TO.N,Net-(J3-Pad4)*
X142540000Y-97460000D03*
G04 #@! TO.P,J3,3*
G04 #@! TO.N,SCL*
X140000000Y-97460000D03*
G04 #@! TO.P,J3,2*
G04 #@! TO.N,SDA*
X137460000Y-97460000D03*
G04 #@! TO.P,J3,1*
G04 #@! TO.N,+5V*
X134920000Y-97460000D03*
G04 #@! TD*
G04 #@! TO.P,J2,1*
G04 #@! TO.N,+5V*
X114920000Y-67460000D03*
G04 #@! TO.P,J2,2*
G04 #@! TO.N,SDA*
X117460000Y-67460000D03*
G04 #@! TO.P,J2,3*
G04 #@! TO.N,SCL*
X120000000Y-67460000D03*
G04 #@! TO.P,J2,4*
G04 #@! TO.N,Net-(J2-Pad4)*
X122540000Y-67460000D03*
G04 #@! TO.P,J2,5*
G04 #@! TO.N,GND*
X125080000Y-67460000D03*
G04 #@! TO.P,J2,1*
G04 #@! TO.N,+5V*
X114920000Y-72540000D03*
G04 #@! TO.P,J2,2*
G04 #@! TO.N,SDA*
X117460000Y-72540000D03*
G04 #@! TO.P,J2,3*
G04 #@! TO.N,SCL*
X120000000Y-72540000D03*
G04 #@! TO.P,J2,4*
G04 #@! TO.N,Net-(J2-Pad4)*
X122540000Y-72540000D03*
G04 #@! TO.P,J2,5*
G04 #@! TO.N,GND*
X125080000Y-72540000D03*
G04 #@! TD*
D14*
G04 #@! TO.N,GND*
X130000000Y-145000000D03*
X110000000Y-145000000D03*
X150000000Y-145000000D03*
X170000000Y-125000000D03*
X150000000Y-125000000D03*
X110000000Y-125000000D03*
X90000000Y-125000000D03*
X90000000Y-105000000D03*
X110000000Y-105000000D03*
X110000000Y-85000000D03*
X90000000Y-85000000D03*
X130000000Y-125000000D03*
X150000000Y-105000000D03*
X130000000Y-105000000D03*
X170000000Y-105000000D03*
X170000000Y-85000000D03*
X150000000Y-85000000D03*
X130000000Y-65000000D03*
X150000000Y-65000000D03*
X110000000Y-65000000D03*
G04 #@! TD*
D15*
G04 #@! TO.N,SCL*
X120000000Y-67460000D02*
X120000000Y-72540000D01*
X140000000Y-97460000D02*
X140000000Y-102540000D01*
X120000000Y-127460000D02*
X120000000Y-132540000D01*
X123000000Y-64460000D02*
X123000000Y-60000000D01*
X120000000Y-67460000D02*
X123000000Y-64460000D01*
X120000000Y-77460000D02*
X140000000Y-97460000D01*
X120000000Y-72540000D02*
X120000000Y-77460000D01*
X140000000Y-107460000D02*
X140000000Y-102540000D01*
X120000000Y-127460000D02*
X140000000Y-107460000D01*
D16*
G04 #@! TO.N,SDA*
X117500000Y-67750000D02*
X117500000Y-67750000D01*
X117500000Y-67750000D02*
X117500000Y-67750000D01*
D17*
X117957000Y-127500000D02*
X118000000Y-127500000D01*
D15*
X117460000Y-67460000D02*
X117460000Y-72540000D01*
X137460000Y-97460000D02*
X137460000Y-102540000D01*
X117460000Y-132540000D02*
X117460000Y-127460000D01*
X121000000Y-63920000D02*
X121000000Y-60000000D01*
X117460000Y-67460000D02*
X121000000Y-63920000D01*
X117460000Y-73617630D02*
X117460000Y-72540000D01*
X137460000Y-97460000D02*
X117460000Y-77460000D01*
X117460000Y-77460000D02*
X117460000Y-73617630D01*
X137460000Y-107460000D02*
X137460000Y-102540000D01*
X117460000Y-127460000D02*
X137460000Y-107460000D01*
G04 #@! TO.N,+5V*
X134920000Y-97460000D02*
X134920000Y-102540000D01*
X114920000Y-127460000D02*
X114920000Y-132540000D01*
X97500000Y-70000000D02*
X112380000Y-70000000D01*
X114000000Y-69920000D02*
X114920000Y-69000000D01*
X114000000Y-70000000D02*
X114000000Y-69920000D01*
X114920000Y-69000000D02*
X114920000Y-70000000D01*
X114920000Y-67460000D02*
X114920000Y-69000000D01*
X114000000Y-70000000D02*
X114920000Y-70000000D01*
X112380000Y-70000000D02*
X114000000Y-70000000D01*
X114920000Y-70920000D02*
X114000000Y-70000000D01*
X114920000Y-71000000D02*
X114920000Y-70920000D01*
X114920000Y-71000000D02*
X114920000Y-72540000D01*
X114920000Y-70000000D02*
X114920000Y-71000000D01*
X119000000Y-63380000D02*
X119000000Y-60000000D01*
X114920000Y-67460000D02*
X119000000Y-63380000D01*
X114920000Y-77460000D02*
X134920000Y-97460000D01*
X114920000Y-72540000D02*
X114920000Y-77460000D01*
X134920000Y-107460000D02*
X114920000Y-127460000D01*
X134920000Y-102540000D02*
X134920000Y-107460000D01*
G04 #@! TO.N,Net-(J2-Pad4)*
X122540000Y-67460000D02*
X122540000Y-72540000D01*
G04 #@! TO.N,Net-(J3-Pad4)*
X142540000Y-97460000D02*
X142540000Y-102540000D01*
D17*
G04 #@! TO.N,Net-(J4-Pad4)*
X121957000Y-127500000D02*
X122000000Y-127500000D01*
D15*
X122540000Y-132540000D02*
X122540000Y-127460000D01*
G04 #@! TD*
D18*
G04 #@! TO.N,GND*
G36*
X179290001Y-65294093D02*
X179290000Y-144705908D01*
X169705910Y-154290000D01*
X90294092Y-154290000D01*
X80710000Y-144705910D01*
X80710000Y-144555431D01*
X87765000Y-144555431D01*
X87765000Y-145444569D01*
X88105259Y-146266026D01*
X88733974Y-146894741D01*
X89555431Y-147235000D01*
X90444569Y-147235000D01*
X91266026Y-146894741D01*
X91894741Y-146266026D01*
X92235000Y-145444569D01*
X92235000Y-144555431D01*
X167765000Y-144555431D01*
X167765000Y-145444569D01*
X168105259Y-146266026D01*
X168733974Y-146894741D01*
X169555431Y-147235000D01*
X170444569Y-147235000D01*
X171266026Y-146894741D01*
X171894741Y-146266026D01*
X172235000Y-145444569D01*
X172235000Y-144555431D01*
X171894741Y-143733974D01*
X171266026Y-143105259D01*
X170444569Y-142765000D01*
X169555431Y-142765000D01*
X168733974Y-143105259D01*
X168105259Y-143733974D01*
X167765000Y-144555431D01*
X92235000Y-144555431D01*
X91894741Y-143733974D01*
X91266026Y-143105259D01*
X90444569Y-142765000D01*
X89555431Y-142765000D01*
X88733974Y-143105259D01*
X88105259Y-143733974D01*
X87765000Y-144555431D01*
X80710000Y-144555431D01*
X80710000Y-71007745D01*
X94171861Y-71007745D01*
X94245995Y-71253864D01*
X94783223Y-71446965D01*
X95353454Y-71419778D01*
X95754005Y-71253864D01*
X95828139Y-71007745D01*
X95000000Y-70179605D01*
X94171861Y-71007745D01*
X80710000Y-71007745D01*
X80710000Y-69783223D01*
X93553035Y-69783223D01*
X93580222Y-70353454D01*
X93746136Y-70754005D01*
X93992255Y-70828139D01*
X94820395Y-70000000D01*
X95179605Y-70000000D01*
X96007745Y-70828139D01*
X96055307Y-70813813D01*
X96101843Y-71047765D01*
X96242191Y-71257809D01*
X96452235Y-71398157D01*
X96700000Y-71447440D01*
X98300000Y-71447440D01*
X98547765Y-71398157D01*
X98757809Y-71257809D01*
X98839868Y-71135000D01*
X113529868Y-71135000D01*
X113785000Y-71390132D01*
X113785000Y-71699343D01*
X113735680Y-71748663D01*
X113523000Y-72262119D01*
X113523000Y-72817881D01*
X113735680Y-73331337D01*
X113785000Y-73380657D01*
X113785001Y-77348212D01*
X113762765Y-77460000D01*
X113850854Y-77902854D01*
X113850855Y-77902855D01*
X114101712Y-78278289D01*
X114196480Y-78341611D01*
X133523000Y-97668132D01*
X133523000Y-97737881D01*
X133735680Y-98251337D01*
X133785000Y-98300657D01*
X133785001Y-101699342D01*
X133735680Y-101748663D01*
X133523000Y-102262119D01*
X133523000Y-102817881D01*
X133735680Y-103331337D01*
X133785000Y-103380657D01*
X133785001Y-106989867D01*
X114711869Y-126063000D01*
X114642119Y-126063000D01*
X114128663Y-126275680D01*
X113735680Y-126668663D01*
X113523000Y-127182119D01*
X113523000Y-127737881D01*
X113735680Y-128251337D01*
X113785000Y-128300657D01*
X113785001Y-131699342D01*
X113735680Y-131748663D01*
X113523000Y-132262119D01*
X113523000Y-132817881D01*
X113735680Y-133331337D01*
X114128663Y-133724320D01*
X114642119Y-133937000D01*
X115197881Y-133937000D01*
X115711337Y-133724320D01*
X116104320Y-133331337D01*
X116190000Y-133124487D01*
X116275680Y-133331337D01*
X116668663Y-133724320D01*
X117182119Y-133937000D01*
X117737881Y-133937000D01*
X118251337Y-133724320D01*
X118644320Y-133331337D01*
X118730000Y-133124487D01*
X118815680Y-133331337D01*
X119208663Y-133724320D01*
X119722119Y-133937000D01*
X120277881Y-133937000D01*
X120791337Y-133724320D01*
X121184320Y-133331337D01*
X121270000Y-133124487D01*
X121355680Y-133331337D01*
X121748663Y-133724320D01*
X122262119Y-133937000D01*
X122817881Y-133937000D01*
X123331337Y-133724320D01*
X123535444Y-133520213D01*
X124279392Y-133520213D01*
X124348857Y-133762397D01*
X124872302Y-133949144D01*
X125427368Y-133921362D01*
X125811143Y-133762397D01*
X125880608Y-133520213D01*
X125080000Y-132719605D01*
X124279392Y-133520213D01*
X123535444Y-133520213D01*
X123724320Y-133331337D01*
X123803428Y-133140353D01*
X123857603Y-133271143D01*
X124099787Y-133340608D01*
X124900395Y-132540000D01*
X125259605Y-132540000D01*
X126060213Y-133340608D01*
X126302397Y-133271143D01*
X126489144Y-132747698D01*
X126461362Y-132192632D01*
X126302397Y-131808857D01*
X126060213Y-131739392D01*
X125259605Y-132540000D01*
X124900395Y-132540000D01*
X124099787Y-131739392D01*
X123857603Y-131808857D01*
X123807465Y-131949393D01*
X123724320Y-131748663D01*
X123675000Y-131699343D01*
X123675000Y-131559787D01*
X124279392Y-131559787D01*
X125080000Y-132360395D01*
X125880608Y-131559787D01*
X125811143Y-131317603D01*
X125287698Y-131130856D01*
X124732632Y-131158638D01*
X124348857Y-131317603D01*
X124279392Y-131559787D01*
X123675000Y-131559787D01*
X123675000Y-128440213D01*
X124279392Y-128440213D01*
X124348857Y-128682397D01*
X124872302Y-128869144D01*
X125427368Y-128841362D01*
X125811143Y-128682397D01*
X125880608Y-128440213D01*
X125080000Y-127639605D01*
X124279392Y-128440213D01*
X123675000Y-128440213D01*
X123675000Y-128300657D01*
X123724320Y-128251337D01*
X123803428Y-128060353D01*
X123857603Y-128191143D01*
X124099787Y-128260608D01*
X124900395Y-127460000D01*
X125259605Y-127460000D01*
X126060213Y-128260608D01*
X126302397Y-128191143D01*
X126489144Y-127667698D01*
X126461362Y-127112632D01*
X126302397Y-126728857D01*
X126060213Y-126659392D01*
X125259605Y-127460000D01*
X124900395Y-127460000D01*
X124099787Y-126659392D01*
X123857603Y-126728857D01*
X123807465Y-126869393D01*
X123724320Y-126668663D01*
X123535444Y-126479787D01*
X124279392Y-126479787D01*
X125080000Y-127280395D01*
X125880608Y-126479787D01*
X125811143Y-126237603D01*
X125287698Y-126050856D01*
X124732632Y-126078638D01*
X124348857Y-126237603D01*
X124279392Y-126479787D01*
X123535444Y-126479787D01*
X123331337Y-126275680D01*
X122948166Y-126116966D01*
X140723522Y-108341610D01*
X140818289Y-108278289D01*
X141069146Y-107902855D01*
X141135000Y-107571783D01*
X141135000Y-107571782D01*
X141157235Y-107460001D01*
X141135000Y-107348219D01*
X141135000Y-103380657D01*
X141184320Y-103331337D01*
X141270000Y-103124487D01*
X141355680Y-103331337D01*
X141748663Y-103724320D01*
X142262119Y-103937000D01*
X142817881Y-103937000D01*
X143331337Y-103724320D01*
X143535444Y-103520213D01*
X144279392Y-103520213D01*
X144348857Y-103762397D01*
X144872302Y-103949144D01*
X145427368Y-103921362D01*
X145811143Y-103762397D01*
X145880608Y-103520213D01*
X145080000Y-102719605D01*
X144279392Y-103520213D01*
X143535444Y-103520213D01*
X143724320Y-103331337D01*
X143803428Y-103140353D01*
X143857603Y-103271143D01*
X144099787Y-103340608D01*
X144900395Y-102540000D01*
X145259605Y-102540000D01*
X146060213Y-103340608D01*
X146302397Y-103271143D01*
X146489144Y-102747698D01*
X146461362Y-102192632D01*
X146302397Y-101808857D01*
X146060213Y-101739392D01*
X145259605Y-102540000D01*
X144900395Y-102540000D01*
X144099787Y-101739392D01*
X143857603Y-101808857D01*
X143807465Y-101949393D01*
X143724320Y-101748663D01*
X143675000Y-101699343D01*
X143675000Y-101559787D01*
X144279392Y-101559787D01*
X145080000Y-102360395D01*
X145880608Y-101559787D01*
X145811143Y-101317603D01*
X145287698Y-101130856D01*
X144732632Y-101158638D01*
X144348857Y-101317603D01*
X144279392Y-101559787D01*
X143675000Y-101559787D01*
X143675000Y-98440213D01*
X144279392Y-98440213D01*
X144348857Y-98682397D01*
X144872302Y-98869144D01*
X145427368Y-98841362D01*
X145811143Y-98682397D01*
X145880608Y-98440213D01*
X145080000Y-97639605D01*
X144279392Y-98440213D01*
X143675000Y-98440213D01*
X143675000Y-98300657D01*
X143724320Y-98251337D01*
X143803428Y-98060353D01*
X143857603Y-98191143D01*
X144099787Y-98260608D01*
X144900395Y-97460000D01*
X145259605Y-97460000D01*
X146060213Y-98260608D01*
X146302397Y-98191143D01*
X146489144Y-97667698D01*
X146461362Y-97112632D01*
X146302397Y-96728857D01*
X146060213Y-96659392D01*
X145259605Y-97460000D01*
X144900395Y-97460000D01*
X144099787Y-96659392D01*
X143857603Y-96728857D01*
X143807465Y-96869393D01*
X143724320Y-96668663D01*
X143535444Y-96479787D01*
X144279392Y-96479787D01*
X145080000Y-97280395D01*
X145880608Y-96479787D01*
X145811143Y-96237603D01*
X145287698Y-96050856D01*
X144732632Y-96078638D01*
X144348857Y-96237603D01*
X144279392Y-96479787D01*
X143535444Y-96479787D01*
X143331337Y-96275680D01*
X142817881Y-96063000D01*
X142262119Y-96063000D01*
X141748663Y-96275680D01*
X141355680Y-96668663D01*
X141270000Y-96875513D01*
X141184320Y-96668663D01*
X140791337Y-96275680D01*
X140277881Y-96063000D01*
X140208132Y-96063000D01*
X121135000Y-76989869D01*
X121135000Y-73380657D01*
X121184320Y-73331337D01*
X121270000Y-73124487D01*
X121355680Y-73331337D01*
X121748663Y-73724320D01*
X122262119Y-73937000D01*
X122817881Y-73937000D01*
X123331337Y-73724320D01*
X123535444Y-73520213D01*
X124279392Y-73520213D01*
X124348857Y-73762397D01*
X124872302Y-73949144D01*
X125427368Y-73921362D01*
X125811143Y-73762397D01*
X125880608Y-73520213D01*
X125080000Y-72719605D01*
X124279392Y-73520213D01*
X123535444Y-73520213D01*
X123724320Y-73331337D01*
X123803428Y-73140353D01*
X123857603Y-73271143D01*
X124099787Y-73340608D01*
X124900395Y-72540000D01*
X125259605Y-72540000D01*
X126060213Y-73340608D01*
X126302397Y-73271143D01*
X126489144Y-72747698D01*
X126461362Y-72192632D01*
X126302397Y-71808857D01*
X126060213Y-71739392D01*
X125259605Y-72540000D01*
X124900395Y-72540000D01*
X124099787Y-71739392D01*
X123857603Y-71808857D01*
X123807465Y-71949393D01*
X123724320Y-71748663D01*
X123675000Y-71699343D01*
X123675000Y-71559787D01*
X124279392Y-71559787D01*
X125080000Y-72360395D01*
X125880608Y-71559787D01*
X125811143Y-71317603D01*
X125287698Y-71130856D01*
X124732632Y-71158638D01*
X124348857Y-71317603D01*
X124279392Y-71559787D01*
X123675000Y-71559787D01*
X123675000Y-68440213D01*
X124279392Y-68440213D01*
X124348857Y-68682397D01*
X124872302Y-68869144D01*
X125427368Y-68841362D01*
X125811143Y-68682397D01*
X125880608Y-68440213D01*
X125080000Y-67639605D01*
X124279392Y-68440213D01*
X123675000Y-68440213D01*
X123675000Y-68300657D01*
X123724320Y-68251337D01*
X123803428Y-68060353D01*
X123857603Y-68191143D01*
X124099787Y-68260608D01*
X124900395Y-67460000D01*
X125259605Y-67460000D01*
X126060213Y-68260608D01*
X126302397Y-68191143D01*
X126489144Y-67667698D01*
X126461362Y-67112632D01*
X126302397Y-66728857D01*
X126060213Y-66659392D01*
X125259605Y-67460000D01*
X124900395Y-67460000D01*
X124099787Y-66659392D01*
X123857603Y-66728857D01*
X123807465Y-66869393D01*
X123724320Y-66668663D01*
X123535444Y-66479787D01*
X124279392Y-66479787D01*
X125080000Y-67280395D01*
X125880608Y-66479787D01*
X125811143Y-66237603D01*
X125287698Y-66050856D01*
X124732632Y-66078638D01*
X124348857Y-66237603D01*
X124279392Y-66479787D01*
X123535444Y-66479787D01*
X123331337Y-66275680D01*
X122948166Y-66116966D01*
X123723521Y-65341610D01*
X123818289Y-65278289D01*
X124069146Y-64902855D01*
X124135000Y-64571783D01*
X124135000Y-64571782D01*
X124138252Y-64555431D01*
X167765000Y-64555431D01*
X167765000Y-65444569D01*
X168105259Y-66266026D01*
X168733974Y-66894741D01*
X169555431Y-67235000D01*
X170444569Y-67235000D01*
X171266026Y-66894741D01*
X171894741Y-66266026D01*
X172235000Y-65444569D01*
X172235000Y-64555431D01*
X171894741Y-63733974D01*
X171266026Y-63105259D01*
X170444569Y-62765000D01*
X169555431Y-62765000D01*
X168733974Y-63105259D01*
X168105259Y-63733974D01*
X167765000Y-64555431D01*
X124138252Y-64555431D01*
X124157235Y-64460000D01*
X124135000Y-64348217D01*
X124135000Y-61276477D01*
X124219809Y-61219809D01*
X124360157Y-61009765D01*
X124409440Y-60762000D01*
X124409440Y-59238000D01*
X124360157Y-58990235D01*
X124219809Y-58780191D01*
X124009765Y-58639843D01*
X123762000Y-58590560D01*
X122238000Y-58590560D01*
X121990235Y-58639843D01*
X121780191Y-58780191D01*
X121764034Y-58804371D01*
X121277881Y-58603000D01*
X120722119Y-58603000D01*
X120208663Y-58815680D01*
X120000000Y-59024343D01*
X119791337Y-58815680D01*
X119277881Y-58603000D01*
X118722119Y-58603000D01*
X118208663Y-58815680D01*
X117815680Y-59208663D01*
X117705894Y-59473711D01*
X117179605Y-60000000D01*
X117193748Y-60014143D01*
X117014143Y-60193748D01*
X117000000Y-60179605D01*
X116199392Y-60980213D01*
X116268857Y-61222397D01*
X116792302Y-61409144D01*
X117347368Y-61381362D01*
X117731143Y-61222397D01*
X117800607Y-60980215D01*
X117865001Y-61044609D01*
X117865000Y-62909868D01*
X114711869Y-66063000D01*
X114642119Y-66063000D01*
X114128663Y-66275680D01*
X113735680Y-66668663D01*
X113523000Y-67182119D01*
X113523000Y-67737881D01*
X113735680Y-68251337D01*
X113785000Y-68300657D01*
X113785000Y-68529868D01*
X113449868Y-68865000D01*
X98839868Y-68865000D01*
X98757809Y-68742191D01*
X98547765Y-68601843D01*
X98300000Y-68552560D01*
X96700000Y-68552560D01*
X96452235Y-68601843D01*
X96242191Y-68742191D01*
X96101843Y-68952235D01*
X96055307Y-69186187D01*
X96007745Y-69171861D01*
X95179605Y-70000000D01*
X94820395Y-70000000D01*
X93992255Y-69171861D01*
X93746136Y-69245995D01*
X93553035Y-69783223D01*
X80710000Y-69783223D01*
X80710000Y-68992255D01*
X94171861Y-68992255D01*
X95000000Y-69820395D01*
X95828139Y-68992255D01*
X95754005Y-68746136D01*
X95216777Y-68553035D01*
X94646546Y-68580222D01*
X94245995Y-68746136D01*
X94171861Y-68992255D01*
X80710000Y-68992255D01*
X80710000Y-65294090D01*
X81448659Y-64555431D01*
X87765000Y-64555431D01*
X87765000Y-65444569D01*
X88105259Y-66266026D01*
X88733974Y-66894741D01*
X89555431Y-67235000D01*
X90444569Y-67235000D01*
X91266026Y-66894741D01*
X91894741Y-66266026D01*
X92235000Y-65444569D01*
X92235000Y-64555431D01*
X91894741Y-63733974D01*
X91266026Y-63105259D01*
X90444569Y-62765000D01*
X89555431Y-62765000D01*
X88733974Y-63105259D01*
X88105259Y-63733974D01*
X87765000Y-64555431D01*
X81448659Y-64555431D01*
X86211789Y-59792302D01*
X115590856Y-59792302D01*
X115618638Y-60347368D01*
X115777603Y-60731143D01*
X116019787Y-60800608D01*
X116820395Y-60000000D01*
X116019787Y-59199392D01*
X115777603Y-59268857D01*
X115590856Y-59792302D01*
X86211789Y-59792302D01*
X86984304Y-59019787D01*
X116199392Y-59019787D01*
X117000000Y-59820395D01*
X117800608Y-59019787D01*
X117731143Y-58777603D01*
X117207698Y-58590856D01*
X116652632Y-58618638D01*
X116268857Y-58777603D01*
X116199392Y-59019787D01*
X86984304Y-59019787D01*
X90294092Y-55710000D01*
X169705910Y-55710000D01*
X179290001Y-65294093D01*
X179290001Y-65294093D01*
G37*
X179290001Y-65294093D02*
X179290000Y-144705908D01*
X169705910Y-154290000D01*
X90294092Y-154290000D01*
X80710000Y-144705910D01*
X80710000Y-144555431D01*
X87765000Y-144555431D01*
X87765000Y-145444569D01*
X88105259Y-146266026D01*
X88733974Y-146894741D01*
X89555431Y-147235000D01*
X90444569Y-147235000D01*
X91266026Y-146894741D01*
X91894741Y-146266026D01*
X92235000Y-145444569D01*
X92235000Y-144555431D01*
X167765000Y-144555431D01*
X167765000Y-145444569D01*
X168105259Y-146266026D01*
X168733974Y-146894741D01*
X169555431Y-147235000D01*
X170444569Y-147235000D01*
X171266026Y-146894741D01*
X171894741Y-146266026D01*
X172235000Y-145444569D01*
X172235000Y-144555431D01*
X171894741Y-143733974D01*
X171266026Y-143105259D01*
X170444569Y-142765000D01*
X169555431Y-142765000D01*
X168733974Y-143105259D01*
X168105259Y-143733974D01*
X167765000Y-144555431D01*
X92235000Y-144555431D01*
X91894741Y-143733974D01*
X91266026Y-143105259D01*
X90444569Y-142765000D01*
X89555431Y-142765000D01*
X88733974Y-143105259D01*
X88105259Y-143733974D01*
X87765000Y-144555431D01*
X80710000Y-144555431D01*
X80710000Y-71007745D01*
X94171861Y-71007745D01*
X94245995Y-71253864D01*
X94783223Y-71446965D01*
X95353454Y-71419778D01*
X95754005Y-71253864D01*
X95828139Y-71007745D01*
X95000000Y-70179605D01*
X94171861Y-71007745D01*
X80710000Y-71007745D01*
X80710000Y-69783223D01*
X93553035Y-69783223D01*
X93580222Y-70353454D01*
X93746136Y-70754005D01*
X93992255Y-70828139D01*
X94820395Y-70000000D01*
X95179605Y-70000000D01*
X96007745Y-70828139D01*
X96055307Y-70813813D01*
X96101843Y-71047765D01*
X96242191Y-71257809D01*
X96452235Y-71398157D01*
X96700000Y-71447440D01*
X98300000Y-71447440D01*
X98547765Y-71398157D01*
X98757809Y-71257809D01*
X98839868Y-71135000D01*
X113529868Y-71135000D01*
X113785000Y-71390132D01*
X113785000Y-71699343D01*
X113735680Y-71748663D01*
X113523000Y-72262119D01*
X113523000Y-72817881D01*
X113735680Y-73331337D01*
X113785000Y-73380657D01*
X113785001Y-77348212D01*
X113762765Y-77460000D01*
X113850854Y-77902854D01*
X113850855Y-77902855D01*
X114101712Y-78278289D01*
X114196480Y-78341611D01*
X133523000Y-97668132D01*
X133523000Y-97737881D01*
X133735680Y-98251337D01*
X133785000Y-98300657D01*
X133785001Y-101699342D01*
X133735680Y-101748663D01*
X133523000Y-102262119D01*
X133523000Y-102817881D01*
X133735680Y-103331337D01*
X133785000Y-103380657D01*
X133785001Y-106989867D01*
X114711869Y-126063000D01*
X114642119Y-126063000D01*
X114128663Y-126275680D01*
X113735680Y-126668663D01*
X113523000Y-127182119D01*
X113523000Y-127737881D01*
X113735680Y-128251337D01*
X113785000Y-128300657D01*
X113785001Y-131699342D01*
X113735680Y-131748663D01*
X113523000Y-132262119D01*
X113523000Y-132817881D01*
X113735680Y-133331337D01*
X114128663Y-133724320D01*
X114642119Y-133937000D01*
X115197881Y-133937000D01*
X115711337Y-133724320D01*
X116104320Y-133331337D01*
X116190000Y-133124487D01*
X116275680Y-133331337D01*
X116668663Y-133724320D01*
X117182119Y-133937000D01*
X117737881Y-133937000D01*
X118251337Y-133724320D01*
X118644320Y-133331337D01*
X118730000Y-133124487D01*
X118815680Y-133331337D01*
X119208663Y-133724320D01*
X119722119Y-133937000D01*
X120277881Y-133937000D01*
X120791337Y-133724320D01*
X121184320Y-133331337D01*
X121270000Y-133124487D01*
X121355680Y-133331337D01*
X121748663Y-133724320D01*
X122262119Y-133937000D01*
X122817881Y-133937000D01*
X123331337Y-133724320D01*
X123535444Y-133520213D01*
X124279392Y-133520213D01*
X124348857Y-133762397D01*
X124872302Y-133949144D01*
X125427368Y-133921362D01*
X125811143Y-133762397D01*
X125880608Y-133520213D01*
X125080000Y-132719605D01*
X124279392Y-133520213D01*
X123535444Y-133520213D01*
X123724320Y-133331337D01*
X123803428Y-133140353D01*
X123857603Y-133271143D01*
X124099787Y-133340608D01*
X124900395Y-132540000D01*
X125259605Y-132540000D01*
X126060213Y-133340608D01*
X126302397Y-133271143D01*
X126489144Y-132747698D01*
X126461362Y-132192632D01*
X126302397Y-131808857D01*
X126060213Y-131739392D01*
X125259605Y-132540000D01*
X124900395Y-132540000D01*
X124099787Y-131739392D01*
X123857603Y-131808857D01*
X123807465Y-131949393D01*
X123724320Y-131748663D01*
X123675000Y-131699343D01*
X123675000Y-131559787D01*
X124279392Y-131559787D01*
X125080000Y-132360395D01*
X125880608Y-131559787D01*
X125811143Y-131317603D01*
X125287698Y-131130856D01*
X124732632Y-131158638D01*
X124348857Y-131317603D01*
X124279392Y-131559787D01*
X123675000Y-131559787D01*
X123675000Y-128440213D01*
X124279392Y-128440213D01*
X124348857Y-128682397D01*
X124872302Y-128869144D01*
X125427368Y-128841362D01*
X125811143Y-128682397D01*
X125880608Y-128440213D01*
X125080000Y-127639605D01*
X124279392Y-128440213D01*
X123675000Y-128440213D01*
X123675000Y-128300657D01*
X123724320Y-128251337D01*
X123803428Y-128060353D01*
X123857603Y-128191143D01*
X124099787Y-128260608D01*
X124900395Y-127460000D01*
X125259605Y-127460000D01*
X126060213Y-128260608D01*
X126302397Y-128191143D01*
X126489144Y-127667698D01*
X126461362Y-127112632D01*
X126302397Y-126728857D01*
X126060213Y-126659392D01*
X125259605Y-127460000D01*
X124900395Y-127460000D01*
X124099787Y-126659392D01*
X123857603Y-126728857D01*
X123807465Y-126869393D01*
X123724320Y-126668663D01*
X123535444Y-126479787D01*
X124279392Y-126479787D01*
X125080000Y-127280395D01*
X125880608Y-126479787D01*
X125811143Y-126237603D01*
X125287698Y-126050856D01*
X124732632Y-126078638D01*
X124348857Y-126237603D01*
X124279392Y-126479787D01*
X123535444Y-126479787D01*
X123331337Y-126275680D01*
X122948166Y-126116966D01*
X140723522Y-108341610D01*
X140818289Y-108278289D01*
X141069146Y-107902855D01*
X141135000Y-107571783D01*
X141135000Y-107571782D01*
X141157235Y-107460001D01*
X141135000Y-107348219D01*
X141135000Y-103380657D01*
X141184320Y-103331337D01*
X141270000Y-103124487D01*
X141355680Y-103331337D01*
X141748663Y-103724320D01*
X142262119Y-103937000D01*
X142817881Y-103937000D01*
X143331337Y-103724320D01*
X143535444Y-103520213D01*
X144279392Y-103520213D01*
X144348857Y-103762397D01*
X144872302Y-103949144D01*
X145427368Y-103921362D01*
X145811143Y-103762397D01*
X145880608Y-103520213D01*
X145080000Y-102719605D01*
X144279392Y-103520213D01*
X143535444Y-103520213D01*
X143724320Y-103331337D01*
X143803428Y-103140353D01*
X143857603Y-103271143D01*
X144099787Y-103340608D01*
X144900395Y-102540000D01*
X145259605Y-102540000D01*
X146060213Y-103340608D01*
X146302397Y-103271143D01*
X146489144Y-102747698D01*
X146461362Y-102192632D01*
X146302397Y-101808857D01*
X146060213Y-101739392D01*
X145259605Y-102540000D01*
X144900395Y-102540000D01*
X144099787Y-101739392D01*
X143857603Y-101808857D01*
X143807465Y-101949393D01*
X143724320Y-101748663D01*
X143675000Y-101699343D01*
X143675000Y-101559787D01*
X144279392Y-101559787D01*
X145080000Y-102360395D01*
X145880608Y-101559787D01*
X145811143Y-101317603D01*
X145287698Y-101130856D01*
X144732632Y-101158638D01*
X144348857Y-101317603D01*
X144279392Y-101559787D01*
X143675000Y-101559787D01*
X143675000Y-98440213D01*
X144279392Y-98440213D01*
X144348857Y-98682397D01*
X144872302Y-98869144D01*
X145427368Y-98841362D01*
X145811143Y-98682397D01*
X145880608Y-98440213D01*
X145080000Y-97639605D01*
X144279392Y-98440213D01*
X143675000Y-98440213D01*
X143675000Y-98300657D01*
X143724320Y-98251337D01*
X143803428Y-98060353D01*
X143857603Y-98191143D01*
X144099787Y-98260608D01*
X144900395Y-97460000D01*
X145259605Y-97460000D01*
X146060213Y-98260608D01*
X146302397Y-98191143D01*
X146489144Y-97667698D01*
X146461362Y-97112632D01*
X146302397Y-96728857D01*
X146060213Y-96659392D01*
X145259605Y-97460000D01*
X144900395Y-97460000D01*
X144099787Y-96659392D01*
X143857603Y-96728857D01*
X143807465Y-96869393D01*
X143724320Y-96668663D01*
X143535444Y-96479787D01*
X144279392Y-96479787D01*
X145080000Y-97280395D01*
X145880608Y-96479787D01*
X145811143Y-96237603D01*
X145287698Y-96050856D01*
X144732632Y-96078638D01*
X144348857Y-96237603D01*
X144279392Y-96479787D01*
X143535444Y-96479787D01*
X143331337Y-96275680D01*
X142817881Y-96063000D01*
X142262119Y-96063000D01*
X141748663Y-96275680D01*
X141355680Y-96668663D01*
X141270000Y-96875513D01*
X141184320Y-96668663D01*
X140791337Y-96275680D01*
X140277881Y-96063000D01*
X140208132Y-96063000D01*
X121135000Y-76989869D01*
X121135000Y-73380657D01*
X121184320Y-73331337D01*
X121270000Y-73124487D01*
X121355680Y-73331337D01*
X121748663Y-73724320D01*
X122262119Y-73937000D01*
X122817881Y-73937000D01*
X123331337Y-73724320D01*
X123535444Y-73520213D01*
X124279392Y-73520213D01*
X124348857Y-73762397D01*
X124872302Y-73949144D01*
X125427368Y-73921362D01*
X125811143Y-73762397D01*
X125880608Y-73520213D01*
X125080000Y-72719605D01*
X124279392Y-73520213D01*
X123535444Y-73520213D01*
X123724320Y-73331337D01*
X123803428Y-73140353D01*
X123857603Y-73271143D01*
X124099787Y-73340608D01*
X124900395Y-72540000D01*
X125259605Y-72540000D01*
X126060213Y-73340608D01*
X126302397Y-73271143D01*
X126489144Y-72747698D01*
X126461362Y-72192632D01*
X126302397Y-71808857D01*
X126060213Y-71739392D01*
X125259605Y-72540000D01*
X124900395Y-72540000D01*
X124099787Y-71739392D01*
X123857603Y-71808857D01*
X123807465Y-71949393D01*
X123724320Y-71748663D01*
X123675000Y-71699343D01*
X123675000Y-71559787D01*
X124279392Y-71559787D01*
X125080000Y-72360395D01*
X125880608Y-71559787D01*
X125811143Y-71317603D01*
X125287698Y-71130856D01*
X124732632Y-71158638D01*
X124348857Y-71317603D01*
X124279392Y-71559787D01*
X123675000Y-71559787D01*
X123675000Y-68440213D01*
X124279392Y-68440213D01*
X124348857Y-68682397D01*
X124872302Y-68869144D01*
X125427368Y-68841362D01*
X125811143Y-68682397D01*
X125880608Y-68440213D01*
X125080000Y-67639605D01*
X124279392Y-68440213D01*
X123675000Y-68440213D01*
X123675000Y-68300657D01*
X123724320Y-68251337D01*
X123803428Y-68060353D01*
X123857603Y-68191143D01*
X124099787Y-68260608D01*
X124900395Y-67460000D01*
X125259605Y-67460000D01*
X126060213Y-68260608D01*
X126302397Y-68191143D01*
X126489144Y-67667698D01*
X126461362Y-67112632D01*
X126302397Y-66728857D01*
X126060213Y-66659392D01*
X125259605Y-67460000D01*
X124900395Y-67460000D01*
X124099787Y-66659392D01*
X123857603Y-66728857D01*
X123807465Y-66869393D01*
X123724320Y-66668663D01*
X123535444Y-66479787D01*
X124279392Y-66479787D01*
X125080000Y-67280395D01*
X125880608Y-66479787D01*
X125811143Y-66237603D01*
X125287698Y-66050856D01*
X124732632Y-66078638D01*
X124348857Y-66237603D01*
X124279392Y-66479787D01*
X123535444Y-66479787D01*
X123331337Y-66275680D01*
X122948166Y-66116966D01*
X123723521Y-65341610D01*
X123818289Y-65278289D01*
X124069146Y-64902855D01*
X124135000Y-64571783D01*
X124135000Y-64571782D01*
X124138252Y-64555431D01*
X167765000Y-64555431D01*
X167765000Y-65444569D01*
X168105259Y-66266026D01*
X168733974Y-66894741D01*
X169555431Y-67235000D01*
X170444569Y-67235000D01*
X171266026Y-66894741D01*
X171894741Y-66266026D01*
X172235000Y-65444569D01*
X172235000Y-64555431D01*
X171894741Y-63733974D01*
X171266026Y-63105259D01*
X170444569Y-62765000D01*
X169555431Y-62765000D01*
X168733974Y-63105259D01*
X168105259Y-63733974D01*
X167765000Y-64555431D01*
X124138252Y-64555431D01*
X124157235Y-64460000D01*
X124135000Y-64348217D01*
X124135000Y-61276477D01*
X124219809Y-61219809D01*
X124360157Y-61009765D01*
X124409440Y-60762000D01*
X124409440Y-59238000D01*
X124360157Y-58990235D01*
X124219809Y-58780191D01*
X124009765Y-58639843D01*
X123762000Y-58590560D01*
X122238000Y-58590560D01*
X121990235Y-58639843D01*
X121780191Y-58780191D01*
X121764034Y-58804371D01*
X121277881Y-58603000D01*
X120722119Y-58603000D01*
X120208663Y-58815680D01*
X120000000Y-59024343D01*
X119791337Y-58815680D01*
X119277881Y-58603000D01*
X118722119Y-58603000D01*
X118208663Y-58815680D01*
X117815680Y-59208663D01*
X117705894Y-59473711D01*
X117179605Y-60000000D01*
X117193748Y-60014143D01*
X117014143Y-60193748D01*
X117000000Y-60179605D01*
X116199392Y-60980213D01*
X116268857Y-61222397D01*
X116792302Y-61409144D01*
X117347368Y-61381362D01*
X117731143Y-61222397D01*
X117800607Y-60980215D01*
X117865001Y-61044609D01*
X117865000Y-62909868D01*
X114711869Y-66063000D01*
X114642119Y-66063000D01*
X114128663Y-66275680D01*
X113735680Y-66668663D01*
X113523000Y-67182119D01*
X113523000Y-67737881D01*
X113735680Y-68251337D01*
X113785000Y-68300657D01*
X113785000Y-68529868D01*
X113449868Y-68865000D01*
X98839868Y-68865000D01*
X98757809Y-68742191D01*
X98547765Y-68601843D01*
X98300000Y-68552560D01*
X96700000Y-68552560D01*
X96452235Y-68601843D01*
X96242191Y-68742191D01*
X96101843Y-68952235D01*
X96055307Y-69186187D01*
X96007745Y-69171861D01*
X95179605Y-70000000D01*
X94820395Y-70000000D01*
X93992255Y-69171861D01*
X93746136Y-69245995D01*
X93553035Y-69783223D01*
X80710000Y-69783223D01*
X80710000Y-68992255D01*
X94171861Y-68992255D01*
X95000000Y-69820395D01*
X95828139Y-68992255D01*
X95754005Y-68746136D01*
X95216777Y-68553035D01*
X94646546Y-68580222D01*
X94245995Y-68746136D01*
X94171861Y-68992255D01*
X80710000Y-68992255D01*
X80710000Y-65294090D01*
X81448659Y-64555431D01*
X87765000Y-64555431D01*
X87765000Y-65444569D01*
X88105259Y-66266026D01*
X88733974Y-66894741D01*
X89555431Y-67235000D01*
X90444569Y-67235000D01*
X91266026Y-66894741D01*
X91894741Y-66266026D01*
X92235000Y-65444569D01*
X92235000Y-64555431D01*
X91894741Y-63733974D01*
X91266026Y-63105259D01*
X90444569Y-62765000D01*
X89555431Y-62765000D01*
X88733974Y-63105259D01*
X88105259Y-63733974D01*
X87765000Y-64555431D01*
X81448659Y-64555431D01*
X86211789Y-59792302D01*
X115590856Y-59792302D01*
X115618638Y-60347368D01*
X115777603Y-60731143D01*
X116019787Y-60800608D01*
X116820395Y-60000000D01*
X116019787Y-59199392D01*
X115777603Y-59268857D01*
X115590856Y-59792302D01*
X86211789Y-59792302D01*
X86984304Y-59019787D01*
X116199392Y-59019787D01*
X117000000Y-59820395D01*
X117800608Y-59019787D01*
X117731143Y-58777603D01*
X117207698Y-58590856D01*
X116652632Y-58618638D01*
X116268857Y-58777603D01*
X116199392Y-59019787D01*
X86984304Y-59019787D01*
X90294092Y-55710000D01*
X169705910Y-55710000D01*
X179290001Y-65294093D01*
G04 #@! TD*
M02*
