M48
;DRILL file {KiCad (5.0.2)-1} date 2023/10/22 23:37:36
;FORMAT={-:-/ absolute / metric / decimal}
FMAT,2
METRIC,TZ
T1C0.400
T2C0.762
T3C0.798
T4C0.800
T5C1.000
T6C1.100
T7C3.200
%
G90
G05
T1
X81.232Y-105.
X83.518Y-100.936
X83.518Y-109.064
X85.75Y-112.75
X85.8Y-97.25
X87.75Y-116.25
X87.8Y-93.6
X89.75Y-119.75
X90.Y-89.8
X90.Y-95.
X90.Y-95.
X90.Y-100.
X90.Y-105.
X90.Y-110.
X90.Y-115.
X91.75Y-123.25
X92.4Y-85.8
X93.75Y-126.75
X94.6Y-82.
X95.Y-90.
X95.Y-95.
X95.Y-100.
X95.Y-105.
X95.Y-110.
X95.Y-115.
X95.964Y-130.654
X97.Y-77.8
X98.758Y-135.226
X99.Y-74.4
X100.Y-80.
X100.Y-115.
X100.Y-130.
X101.044Y-139.036
X101.25Y-70.5
X103.33Y-66.9
X103.33Y-143.1
X105.Y-115.
X105.Y-120.
X105.Y-125.
X105.Y-130.
X105.Y-135.
X105.Y-140.
X105.616Y-62.836
X105.616Y-147.164
X110.Y-115.
X110.Y-120.
X110.Y-125.
X110.Y-130.
X110.Y-135.
X110.Y-140.
X110.188Y-147.164
X110.696Y-62.836
X114.252Y-147.164
X115.Y-85.
X115.Y-95.
X115.Y-100.
X115.Y-110.
X115.Y-115.
X115.Y-120.
X115.Y-125.
X115.Y-130.
X115.Y-130.
X115.Y-135.
X115.Y-140.
X115.Y-145.
X115.268Y-62.836
X119.75Y-62.836
X120.Y-80.
X120.Y-85.
X120.Y-90.
X120.Y-95.
X120.Y-100.
X120.Y-115.
X120.Y-120.
X120.Y-125.
X120.Y-130.
X120.Y-135.
X121.364Y-100.428
X121.364Y-109.064
X123.015Y-107.54
X123.02Y-100.428
X125.Y-115.
X125.Y-120.
X125.Y-125.
X125.Y-130.
X125.Y-135.
X125.428Y-62.836
X127.968Y-147.164
X130.Y-62.836
X130.Y-70.
X130.Y-75.
X130.Y-80.
X130.Y-85.
X130.Y-115.
X130.Y-120.
X130.Y-125.
X130.Y-130.
X130.Y-135.
X130.Y-140.
X130.Y-145.
X132.032Y-147.164
X132.54Y-81.632
X134.826Y-62.836
X135.Y-70.
X135.Y-95.
X135.Y-100.
X135.Y-115.
X135.Y-120.
X135.Y-125.
X135.Y-130.
X135.Y-135.
X135.715Y-81.632
X138.636Y-101.444
X138.636Y-110.588
X139.906Y-62.836
X140.Y-75.
X140.Y-80.
X140.Y-115.
X140.Y-120.
X140.Y-125.
X140.Y-130.
X140.Y-135.
X140.5Y-92.5
X140.5Y-97.
X142.192Y-101.444
X142.192Y-109.064
X143.716Y-101.444
X143.716Y-109.064
X144.224Y-94.5
X144.478Y-62.836
X145.Y-75.
X145.Y-115.
X145.Y-120.
X145.Y-125.
X145.Y-125.
X145.Y-130.
X145.Y-135.
X145.Y-140.
X145.Y-145.
X145.24Y-147.164
X146.256Y-84.68
X147.272Y-89.76
X147.5Y-87.
X149.304Y-62.836
X149.812Y-147.164
X150.Y-75.
X150.Y-80.
X150.Y-100.
X150.Y-105.
X150.Y-110.
X150.Y-115.
X150.Y-120.
X150.Y-125.
X150.Y-130.
X150.Y-135.
X150.Y-140.
X152.Y-94.5
X154.384Y-62.836
X154.384Y-147.164
X155.Y-75.
X155.Y-80.
X155.Y-90.
X155.Y-100.
X155.Y-110.
X155.Y-115.
X155.Y-120.
X155.Y-125.
X155.Y-130.
X155.Y-135.
X155.Y-140.
X156.67Y-66.646
X156.67Y-143.1
X158.956Y-70.456
X158.956Y-139.036
X160.Y-80.
X160.Y-130.
X160.988Y-74.012
X161.25Y-135.
X163.274Y-78.33
X163.75Y-130.75
X165.Y-90.
X165.Y-95.
X165.Y-100.
X165.Y-105.
X165.Y-110.
X165.Y-115.
X165.56Y-82.14
X166.25Y-126.5
X167.592Y-85.696
X168.25Y-123.
X169.624Y-89.252
X170.Y-95.
X170.Y-100.
X170.Y-105.
X170.Y-110.
X170.Y-115.
X170.386Y-119.478
X172.25Y-93.75
X172.672Y-115.668
X174.704Y-97.888
X174.704Y-112.112
X176.736Y-101.444
X176.736Y-108.556
X178.768Y-105.
T2
X124.92Y-102.46
X124.92Y-107.54
X127.46Y-102.46
X127.46Y-107.54
X130.Y-102.46
X130.Y-107.54
X132.54Y-102.46
X132.54Y-107.54
X135.08Y-102.46
X135.08Y-107.54
X122.38Y-64.54
X122.38Y-67.08
X122.38Y-69.62
X122.38Y-72.16
X122.38Y-74.7
X122.38Y-77.24
X122.38Y-79.78
X137.62Y-64.54
X137.62Y-67.08
X137.62Y-69.62
X137.62Y-72.16
X137.62Y-74.7
X137.62Y-77.24
X137.62Y-79.78
T3
X158.754Y-84.927
X159.755Y-86.661
X160.753Y-88.389
X161.754Y-90.123
X98.222Y-90.123
X99.222Y-88.389
X100.22Y-86.661
X101.221Y-84.927
T4
X101.75Y-101.19
X101.75Y-108.81
X104.29Y-101.19
X104.29Y-108.81
X106.83Y-101.19
X106.83Y-108.81
X109.37Y-101.19
X109.37Y-108.81
X145.5Y-101.25
X145.5Y-108.87
X142.5Y-84.75
X142.5Y-87.29
X142.5Y-89.83
X142.5Y-92.37
X150.12Y-84.75
X150.12Y-87.29
X150.12Y-89.83
X150.12Y-92.37
X112.75Y-91.5
X115.25Y-91.5
X144.5Y-69.63
X144.5Y-77.25
T5
X125.Y-92.5
X127.54Y-92.5
X130.08Y-92.5
X132.62Y-92.5
X135.16Y-92.5
X115.5Y-67.
X115.5Y-69.54
X115.5Y-72.08
X115.5Y-74.62
X115.5Y-77.16
X115.5Y-79.7
X156.04Y-102.79
X156.04Y-107.79
X159.585Y-125.
X160.835Y-122.835
X161.75Y-126.25
X162.085Y-120.67
X163.Y-124.085
X164.25Y-121.92
X95.75Y-122.
X97.Y-124.165
X97.915Y-120.75
X98.25Y-126.33
X99.165Y-122.915
X100.415Y-125.08
T6
X135.5Y-141.5
X135.5Y-146.
X142.Y-141.5
X142.Y-146.
X118.Y-141.5
X118.Y-146.
X124.5Y-141.5
X124.5Y-146.
T7
X152.Y-67.
X108.Y-67.
X108.Y-143.
X174.Y-105.
X152.Y-143.
X86.Y-105.
T0
M30
