G04 #@! TF.GenerationSoftware,KiCad,Pcbnew,(5.0.2)-1*
G04 #@! TF.CreationDate,2023-10-22T23:37:33+09:00*
G04 #@! TF.ProjectId,Fountain,466f756e-7461-4696-9e2e-6b696361645f,rev?*
G04 #@! TF.SameCoordinates,Original*
G04 #@! TF.FileFunction,Soldermask,Top*
G04 #@! TF.FilePolarity,Negative*
%FSLAX46Y46*%
G04 Gerber Fmt 4.6, Leading zero omitted, Abs format (unit mm)*
G04 Created by KiCad (PCBNEW (5.0.2)-1) date 2023/10/22 23:37:33*
%MOMM*%
%LPD*%
G01*
G04 APERTURE LIST*
%ADD10C,0.100000*%
G04 APERTURE END LIST*
D10*
G36*
X142306565Y-144989389D02*
X142497834Y-145068615D01*
X142669976Y-145183637D01*
X142816363Y-145330024D01*
X142931385Y-145502166D01*
X143010611Y-145693435D01*
X143051000Y-145896484D01*
X143051000Y-146103516D01*
X143010611Y-146306565D01*
X142931385Y-146497834D01*
X142816363Y-146669976D01*
X142669976Y-146816363D01*
X142497834Y-146931385D01*
X142306565Y-147010611D01*
X142103516Y-147051000D01*
X141896484Y-147051000D01*
X141693435Y-147010611D01*
X141502166Y-146931385D01*
X141330024Y-146816363D01*
X141183637Y-146669976D01*
X141068615Y-146497834D01*
X140989389Y-146306565D01*
X140949000Y-146103516D01*
X140949000Y-145896484D01*
X140989389Y-145693435D01*
X141068615Y-145502166D01*
X141183637Y-145330024D01*
X141330024Y-145183637D01*
X141502166Y-145068615D01*
X141693435Y-144989389D01*
X141896484Y-144949000D01*
X142103516Y-144949000D01*
X142306565Y-144989389D01*
X142306565Y-144989389D01*
G37*
G36*
X118306565Y-144989389D02*
X118497834Y-145068615D01*
X118669976Y-145183637D01*
X118816363Y-145330024D01*
X118931385Y-145502166D01*
X119010611Y-145693435D01*
X119051000Y-145896484D01*
X119051000Y-146103516D01*
X119010611Y-146306565D01*
X118931385Y-146497834D01*
X118816363Y-146669976D01*
X118669976Y-146816363D01*
X118497834Y-146931385D01*
X118306565Y-147010611D01*
X118103516Y-147051000D01*
X117896484Y-147051000D01*
X117693435Y-147010611D01*
X117502166Y-146931385D01*
X117330024Y-146816363D01*
X117183637Y-146669976D01*
X117068615Y-146497834D01*
X116989389Y-146306565D01*
X116949000Y-146103516D01*
X116949000Y-145896484D01*
X116989389Y-145693435D01*
X117068615Y-145502166D01*
X117183637Y-145330024D01*
X117330024Y-145183637D01*
X117502166Y-145068615D01*
X117693435Y-144989389D01*
X117896484Y-144949000D01*
X118103516Y-144949000D01*
X118306565Y-144989389D01*
X118306565Y-144989389D01*
G37*
G36*
X124806565Y-144989389D02*
X124997834Y-145068615D01*
X125169976Y-145183637D01*
X125316363Y-145330024D01*
X125431385Y-145502166D01*
X125510611Y-145693435D01*
X125551000Y-145896484D01*
X125551000Y-146103516D01*
X125510611Y-146306565D01*
X125431385Y-146497834D01*
X125316363Y-146669976D01*
X125169976Y-146816363D01*
X124997834Y-146931385D01*
X124806565Y-147010611D01*
X124603516Y-147051000D01*
X124396484Y-147051000D01*
X124193435Y-147010611D01*
X124002166Y-146931385D01*
X123830024Y-146816363D01*
X123683637Y-146669976D01*
X123568615Y-146497834D01*
X123489389Y-146306565D01*
X123449000Y-146103516D01*
X123449000Y-145896484D01*
X123489389Y-145693435D01*
X123568615Y-145502166D01*
X123683637Y-145330024D01*
X123830024Y-145183637D01*
X124002166Y-145068615D01*
X124193435Y-144989389D01*
X124396484Y-144949000D01*
X124603516Y-144949000D01*
X124806565Y-144989389D01*
X124806565Y-144989389D01*
G37*
G36*
X135806565Y-144989389D02*
X135997834Y-145068615D01*
X136169976Y-145183637D01*
X136316363Y-145330024D01*
X136431385Y-145502166D01*
X136510611Y-145693435D01*
X136551000Y-145896484D01*
X136551000Y-146103516D01*
X136510611Y-146306565D01*
X136431385Y-146497834D01*
X136316363Y-146669976D01*
X136169976Y-146816363D01*
X135997834Y-146931385D01*
X135806565Y-147010611D01*
X135603516Y-147051000D01*
X135396484Y-147051000D01*
X135193435Y-147010611D01*
X135002166Y-146931385D01*
X134830024Y-146816363D01*
X134683637Y-146669976D01*
X134568615Y-146497834D01*
X134489389Y-146306565D01*
X134449000Y-146103516D01*
X134449000Y-145896484D01*
X134489389Y-145693435D01*
X134568615Y-145502166D01*
X134683637Y-145330024D01*
X134830024Y-145183637D01*
X135002166Y-145068615D01*
X135193435Y-144989389D01*
X135396484Y-144949000D01*
X135603516Y-144949000D01*
X135806565Y-144989389D01*
X135806565Y-144989389D01*
G37*
G36*
X108375256Y-141391298D02*
X108481579Y-141412447D01*
X108782042Y-141536903D01*
X108881732Y-141603514D01*
X109052454Y-141717587D01*
X109282413Y-141947546D01*
X109282415Y-141947549D01*
X109463097Y-142217958D01*
X109584318Y-142510610D01*
X109587553Y-142518422D01*
X109651000Y-142837389D01*
X109651000Y-143162611D01*
X109587553Y-143481578D01*
X109463098Y-143782040D01*
X109282413Y-144052454D01*
X109052454Y-144282413D01*
X109052451Y-144282415D01*
X108782042Y-144463097D01*
X108481579Y-144587553D01*
X108375256Y-144608702D01*
X108162611Y-144651000D01*
X107837389Y-144651000D01*
X107624744Y-144608702D01*
X107518421Y-144587553D01*
X107217958Y-144463097D01*
X106947549Y-144282415D01*
X106947546Y-144282413D01*
X106717587Y-144052454D01*
X106536902Y-143782040D01*
X106412447Y-143481578D01*
X106349000Y-143162611D01*
X106349000Y-142837389D01*
X106412447Y-142518422D01*
X106415683Y-142510610D01*
X106536903Y-142217958D01*
X106717585Y-141947549D01*
X106717587Y-141947546D01*
X106947546Y-141717587D01*
X107118268Y-141603514D01*
X107217958Y-141536903D01*
X107518421Y-141412447D01*
X107624744Y-141391298D01*
X107837389Y-141349000D01*
X108162611Y-141349000D01*
X108375256Y-141391298D01*
X108375256Y-141391298D01*
G37*
G36*
X152375256Y-141391298D02*
X152481579Y-141412447D01*
X152782042Y-141536903D01*
X152881732Y-141603514D01*
X153052454Y-141717587D01*
X153282413Y-141947546D01*
X153282415Y-141947549D01*
X153463097Y-142217958D01*
X153584318Y-142510610D01*
X153587553Y-142518422D01*
X153651000Y-142837389D01*
X153651000Y-143162611D01*
X153587553Y-143481578D01*
X153463098Y-143782040D01*
X153282413Y-144052454D01*
X153052454Y-144282413D01*
X153052451Y-144282415D01*
X152782042Y-144463097D01*
X152481579Y-144587553D01*
X152375256Y-144608702D01*
X152162611Y-144651000D01*
X151837389Y-144651000D01*
X151624744Y-144608702D01*
X151518421Y-144587553D01*
X151217958Y-144463097D01*
X150947549Y-144282415D01*
X150947546Y-144282413D01*
X150717587Y-144052454D01*
X150536902Y-143782040D01*
X150412447Y-143481578D01*
X150349000Y-143162611D01*
X150349000Y-142837389D01*
X150412447Y-142518422D01*
X150415683Y-142510610D01*
X150536903Y-142217958D01*
X150717585Y-141947549D01*
X150717587Y-141947546D01*
X150947546Y-141717587D01*
X151118268Y-141603514D01*
X151217958Y-141536903D01*
X151518421Y-141412447D01*
X151624744Y-141391298D01*
X151837389Y-141349000D01*
X152162611Y-141349000D01*
X152375256Y-141391298D01*
X152375256Y-141391298D01*
G37*
G36*
X118306565Y-140489389D02*
X118497834Y-140568615D01*
X118669976Y-140683637D01*
X118816363Y-140830024D01*
X118931385Y-141002166D01*
X119010611Y-141193435D01*
X119051000Y-141396484D01*
X119051000Y-141603516D01*
X119010611Y-141806565D01*
X118931385Y-141997834D01*
X118816363Y-142169976D01*
X118669976Y-142316363D01*
X118497834Y-142431385D01*
X118306565Y-142510611D01*
X118103516Y-142551000D01*
X117896484Y-142551000D01*
X117693435Y-142510611D01*
X117502166Y-142431385D01*
X117330024Y-142316363D01*
X117183637Y-142169976D01*
X117068615Y-141997834D01*
X116989389Y-141806565D01*
X116949000Y-141603516D01*
X116949000Y-141396484D01*
X116989389Y-141193435D01*
X117068615Y-141002166D01*
X117183637Y-140830024D01*
X117330024Y-140683637D01*
X117502166Y-140568615D01*
X117693435Y-140489389D01*
X117896484Y-140449000D01*
X118103516Y-140449000D01*
X118306565Y-140489389D01*
X118306565Y-140489389D01*
G37*
G36*
X124806565Y-140489389D02*
X124997834Y-140568615D01*
X125169976Y-140683637D01*
X125316363Y-140830024D01*
X125431385Y-141002166D01*
X125510611Y-141193435D01*
X125551000Y-141396484D01*
X125551000Y-141603516D01*
X125510611Y-141806565D01*
X125431385Y-141997834D01*
X125316363Y-142169976D01*
X125169976Y-142316363D01*
X124997834Y-142431385D01*
X124806565Y-142510611D01*
X124603516Y-142551000D01*
X124396484Y-142551000D01*
X124193435Y-142510611D01*
X124002166Y-142431385D01*
X123830024Y-142316363D01*
X123683637Y-142169976D01*
X123568615Y-141997834D01*
X123489389Y-141806565D01*
X123449000Y-141603516D01*
X123449000Y-141396484D01*
X123489389Y-141193435D01*
X123568615Y-141002166D01*
X123683637Y-140830024D01*
X123830024Y-140683637D01*
X124002166Y-140568615D01*
X124193435Y-140489389D01*
X124396484Y-140449000D01*
X124603516Y-140449000D01*
X124806565Y-140489389D01*
X124806565Y-140489389D01*
G37*
G36*
X142306565Y-140489389D02*
X142497834Y-140568615D01*
X142669976Y-140683637D01*
X142816363Y-140830024D01*
X142931385Y-141002166D01*
X143010611Y-141193435D01*
X143051000Y-141396484D01*
X143051000Y-141603516D01*
X143010611Y-141806565D01*
X142931385Y-141997834D01*
X142816363Y-142169976D01*
X142669976Y-142316363D01*
X142497834Y-142431385D01*
X142306565Y-142510611D01*
X142103516Y-142551000D01*
X141896484Y-142551000D01*
X141693435Y-142510611D01*
X141502166Y-142431385D01*
X141330024Y-142316363D01*
X141183637Y-142169976D01*
X141068615Y-141997834D01*
X140989389Y-141806565D01*
X140949000Y-141603516D01*
X140949000Y-141396484D01*
X140989389Y-141193435D01*
X141068615Y-141002166D01*
X141183637Y-140830024D01*
X141330024Y-140683637D01*
X141502166Y-140568615D01*
X141693435Y-140489389D01*
X141896484Y-140449000D01*
X142103516Y-140449000D01*
X142306565Y-140489389D01*
X142306565Y-140489389D01*
G37*
G36*
X135806565Y-140489389D02*
X135997834Y-140568615D01*
X136169976Y-140683637D01*
X136316363Y-140830024D01*
X136431385Y-141002166D01*
X136510611Y-141193435D01*
X136551000Y-141396484D01*
X136551000Y-141603516D01*
X136510611Y-141806565D01*
X136431385Y-141997834D01*
X136316363Y-142169976D01*
X136169976Y-142316363D01*
X135997834Y-142431385D01*
X135806565Y-142510611D01*
X135603516Y-142551000D01*
X135396484Y-142551000D01*
X135193435Y-142510611D01*
X135002166Y-142431385D01*
X134830024Y-142316363D01*
X134683637Y-142169976D01*
X134568615Y-141997834D01*
X134489389Y-141806565D01*
X134449000Y-141603516D01*
X134449000Y-141396484D01*
X134489389Y-141193435D01*
X134568615Y-141002166D01*
X134683637Y-140830024D01*
X134830024Y-140683637D01*
X135002166Y-140568615D01*
X135193435Y-140489389D01*
X135396484Y-140449000D01*
X135603516Y-140449000D01*
X135806565Y-140489389D01*
X135806565Y-140489389D01*
G37*
G36*
X98527396Y-125415673D02*
X98700466Y-125487361D01*
X98856230Y-125591439D01*
X98988688Y-125723897D01*
X99092766Y-125879661D01*
X99164454Y-126052731D01*
X99201000Y-126236460D01*
X99201000Y-126423794D01*
X99164454Y-126607523D01*
X99092766Y-126780593D01*
X98988688Y-126936357D01*
X98856230Y-127068815D01*
X98700466Y-127172893D01*
X98527396Y-127244581D01*
X98343667Y-127281127D01*
X98156333Y-127281127D01*
X97972604Y-127244581D01*
X97799534Y-127172893D01*
X97643770Y-127068815D01*
X97511312Y-126936357D01*
X97407234Y-126780593D01*
X97335546Y-126607523D01*
X97299000Y-126423794D01*
X97299000Y-126236460D01*
X97335546Y-126052731D01*
X97407234Y-125879661D01*
X97511312Y-125723897D01*
X97643770Y-125591439D01*
X97799534Y-125487361D01*
X97972604Y-125415673D01*
X98156333Y-125379127D01*
X98343667Y-125379127D01*
X98527396Y-125415673D01*
X98527396Y-125415673D01*
G37*
G36*
X162027396Y-125335546D02*
X162200466Y-125407234D01*
X162356230Y-125511312D01*
X162488688Y-125643770D01*
X162592766Y-125799534D01*
X162664454Y-125972604D01*
X162701000Y-126156333D01*
X162701000Y-126343667D01*
X162664454Y-126527396D01*
X162592766Y-126700466D01*
X162488688Y-126856230D01*
X162356230Y-126988688D01*
X162200466Y-127092766D01*
X162027396Y-127164454D01*
X161843667Y-127201000D01*
X161656333Y-127201000D01*
X161472604Y-127164454D01*
X161299534Y-127092766D01*
X161143770Y-126988688D01*
X161011312Y-126856230D01*
X160907234Y-126700466D01*
X160835546Y-126527396D01*
X160799000Y-126343667D01*
X160799000Y-126156333D01*
X160835546Y-125972604D01*
X160907234Y-125799534D01*
X161011312Y-125643770D01*
X161143770Y-125511312D01*
X161299534Y-125407234D01*
X161472604Y-125335546D01*
X161656333Y-125299000D01*
X161843667Y-125299000D01*
X162027396Y-125335546D01*
X162027396Y-125335546D01*
G37*
G36*
X100692460Y-124165673D02*
X100865530Y-124237361D01*
X101021294Y-124341439D01*
X101153752Y-124473897D01*
X101257830Y-124629661D01*
X101329518Y-124802731D01*
X101366064Y-124986460D01*
X101366064Y-125173794D01*
X101329518Y-125357523D01*
X101257830Y-125530593D01*
X101153752Y-125686357D01*
X101021294Y-125818815D01*
X100865530Y-125922893D01*
X100692460Y-125994581D01*
X100508731Y-126031127D01*
X100321397Y-126031127D01*
X100137668Y-125994581D01*
X99964598Y-125922893D01*
X99808834Y-125818815D01*
X99676376Y-125686357D01*
X99572298Y-125530593D01*
X99500610Y-125357523D01*
X99464064Y-125173794D01*
X99464064Y-124986460D01*
X99500610Y-124802731D01*
X99572298Y-124629661D01*
X99676376Y-124473897D01*
X99808834Y-124341439D01*
X99964598Y-124237361D01*
X100137668Y-124165673D01*
X100321397Y-124129127D01*
X100508731Y-124129127D01*
X100692460Y-124165673D01*
X100692460Y-124165673D01*
G37*
G36*
X159862332Y-124085546D02*
X160035402Y-124157234D01*
X160191166Y-124261312D01*
X160323624Y-124393770D01*
X160427702Y-124549534D01*
X160499390Y-124722604D01*
X160535936Y-124906333D01*
X160535936Y-125093667D01*
X160499390Y-125277396D01*
X160427702Y-125450466D01*
X160323624Y-125606230D01*
X160191166Y-125738688D01*
X160035402Y-125842766D01*
X159862332Y-125914454D01*
X159678603Y-125951000D01*
X159491269Y-125951000D01*
X159307540Y-125914454D01*
X159134470Y-125842766D01*
X158978706Y-125738688D01*
X158846248Y-125606230D01*
X158742170Y-125450466D01*
X158670482Y-125277396D01*
X158633936Y-125093667D01*
X158633936Y-124906333D01*
X158670482Y-124722604D01*
X158742170Y-124549534D01*
X158846248Y-124393770D01*
X158978706Y-124261312D01*
X159134470Y-124157234D01*
X159307540Y-124085546D01*
X159491269Y-124049000D01*
X159678603Y-124049000D01*
X159862332Y-124085546D01*
X159862332Y-124085546D01*
G37*
G36*
X97277396Y-123250610D02*
X97450466Y-123322298D01*
X97606230Y-123426376D01*
X97738688Y-123558834D01*
X97842766Y-123714598D01*
X97914454Y-123887668D01*
X97951000Y-124071397D01*
X97951000Y-124258731D01*
X97914454Y-124442460D01*
X97842766Y-124615530D01*
X97738688Y-124771294D01*
X97606230Y-124903752D01*
X97450466Y-125007830D01*
X97277396Y-125079518D01*
X97093667Y-125116064D01*
X96906333Y-125116064D01*
X96722604Y-125079518D01*
X96549534Y-125007830D01*
X96393770Y-124903752D01*
X96261312Y-124771294D01*
X96157234Y-124615530D01*
X96085546Y-124442460D01*
X96049000Y-124258731D01*
X96049000Y-124071397D01*
X96085546Y-123887668D01*
X96157234Y-123714598D01*
X96261312Y-123558834D01*
X96393770Y-123426376D01*
X96549534Y-123322298D01*
X96722604Y-123250610D01*
X96906333Y-123214064D01*
X97093667Y-123214064D01*
X97277396Y-123250610D01*
X97277396Y-123250610D01*
G37*
G36*
X163277396Y-123170482D02*
X163450466Y-123242170D01*
X163606230Y-123346248D01*
X163738688Y-123478706D01*
X163842766Y-123634470D01*
X163914454Y-123807540D01*
X163951000Y-123991269D01*
X163951000Y-124178603D01*
X163914454Y-124362332D01*
X163842766Y-124535402D01*
X163738688Y-124691166D01*
X163606230Y-124823624D01*
X163450466Y-124927702D01*
X163277396Y-124999390D01*
X163093667Y-125035936D01*
X162906333Y-125035936D01*
X162722604Y-124999390D01*
X162549534Y-124927702D01*
X162393770Y-124823624D01*
X162261312Y-124691166D01*
X162157234Y-124535402D01*
X162085546Y-124362332D01*
X162049000Y-124178603D01*
X162049000Y-123991269D01*
X162085546Y-123807540D01*
X162157234Y-123634470D01*
X162261312Y-123478706D01*
X162393770Y-123346248D01*
X162549534Y-123242170D01*
X162722604Y-123170482D01*
X162906333Y-123133936D01*
X163093667Y-123133936D01*
X163277396Y-123170482D01*
X163277396Y-123170482D01*
G37*
G36*
X99442460Y-122000610D02*
X99615530Y-122072298D01*
X99771294Y-122176376D01*
X99903752Y-122308834D01*
X100007830Y-122464598D01*
X100079518Y-122637668D01*
X100116064Y-122821397D01*
X100116064Y-123008731D01*
X100079518Y-123192460D01*
X100007830Y-123365530D01*
X99903752Y-123521294D01*
X99771294Y-123653752D01*
X99615530Y-123757830D01*
X99442460Y-123829518D01*
X99258731Y-123866064D01*
X99071397Y-123866064D01*
X98887668Y-123829518D01*
X98714598Y-123757830D01*
X98558834Y-123653752D01*
X98426376Y-123521294D01*
X98322298Y-123365530D01*
X98250610Y-123192460D01*
X98214064Y-123008731D01*
X98214064Y-122821397D01*
X98250610Y-122637668D01*
X98322298Y-122464598D01*
X98426376Y-122308834D01*
X98558834Y-122176376D01*
X98714598Y-122072298D01*
X98887668Y-122000610D01*
X99071397Y-121964064D01*
X99258731Y-121964064D01*
X99442460Y-122000610D01*
X99442460Y-122000610D01*
G37*
G36*
X161112332Y-121920482D02*
X161285402Y-121992170D01*
X161441166Y-122096248D01*
X161573624Y-122228706D01*
X161677702Y-122384470D01*
X161749390Y-122557540D01*
X161785936Y-122741269D01*
X161785936Y-122928603D01*
X161749390Y-123112332D01*
X161677702Y-123285402D01*
X161573624Y-123441166D01*
X161441166Y-123573624D01*
X161285402Y-123677702D01*
X161112332Y-123749390D01*
X160928603Y-123785936D01*
X160741269Y-123785936D01*
X160557540Y-123749390D01*
X160384470Y-123677702D01*
X160228706Y-123573624D01*
X160096248Y-123441166D01*
X159992170Y-123285402D01*
X159920482Y-123112332D01*
X159883936Y-122928603D01*
X159883936Y-122741269D01*
X159920482Y-122557540D01*
X159992170Y-122384470D01*
X160096248Y-122228706D01*
X160228706Y-122096248D01*
X160384470Y-121992170D01*
X160557540Y-121920482D01*
X160741269Y-121883936D01*
X160928603Y-121883936D01*
X161112332Y-121920482D01*
X161112332Y-121920482D01*
G37*
G36*
X96027396Y-121085546D02*
X96200466Y-121157234D01*
X96356230Y-121261312D01*
X96488688Y-121393770D01*
X96592766Y-121549534D01*
X96664454Y-121722604D01*
X96701000Y-121906333D01*
X96701000Y-122093667D01*
X96664454Y-122277396D01*
X96592766Y-122450466D01*
X96488688Y-122606230D01*
X96356230Y-122738688D01*
X96200466Y-122842766D01*
X96027396Y-122914454D01*
X95843667Y-122951000D01*
X95656333Y-122951000D01*
X95472604Y-122914454D01*
X95299534Y-122842766D01*
X95143770Y-122738688D01*
X95011312Y-122606230D01*
X94907234Y-122450466D01*
X94835546Y-122277396D01*
X94799000Y-122093667D01*
X94799000Y-121906333D01*
X94835546Y-121722604D01*
X94907234Y-121549534D01*
X95011312Y-121393770D01*
X95143770Y-121261312D01*
X95299534Y-121157234D01*
X95472604Y-121085546D01*
X95656333Y-121049000D01*
X95843667Y-121049000D01*
X96027396Y-121085546D01*
X96027396Y-121085546D01*
G37*
G36*
X164527396Y-121005419D02*
X164700466Y-121077107D01*
X164856230Y-121181185D01*
X164988688Y-121313643D01*
X165092766Y-121469407D01*
X165164454Y-121642477D01*
X165201000Y-121826206D01*
X165201000Y-122013540D01*
X165164454Y-122197269D01*
X165092766Y-122370339D01*
X164988688Y-122526103D01*
X164856230Y-122658561D01*
X164700466Y-122762639D01*
X164527396Y-122834327D01*
X164343667Y-122870873D01*
X164156333Y-122870873D01*
X163972604Y-122834327D01*
X163799534Y-122762639D01*
X163643770Y-122658561D01*
X163511312Y-122526103D01*
X163407234Y-122370339D01*
X163335546Y-122197269D01*
X163299000Y-122013540D01*
X163299000Y-121826206D01*
X163335546Y-121642477D01*
X163407234Y-121469407D01*
X163511312Y-121313643D01*
X163643770Y-121181185D01*
X163799534Y-121077107D01*
X163972604Y-121005419D01*
X164156333Y-120968873D01*
X164343667Y-120968873D01*
X164527396Y-121005419D01*
X164527396Y-121005419D01*
G37*
G36*
X98192460Y-119835546D02*
X98365530Y-119907234D01*
X98521294Y-120011312D01*
X98653752Y-120143770D01*
X98757830Y-120299534D01*
X98829518Y-120472604D01*
X98866064Y-120656333D01*
X98866064Y-120843667D01*
X98829518Y-121027396D01*
X98757830Y-121200466D01*
X98653752Y-121356230D01*
X98521294Y-121488688D01*
X98365530Y-121592766D01*
X98192460Y-121664454D01*
X98008731Y-121701000D01*
X97821397Y-121701000D01*
X97637668Y-121664454D01*
X97464598Y-121592766D01*
X97308834Y-121488688D01*
X97176376Y-121356230D01*
X97072298Y-121200466D01*
X97000610Y-121027396D01*
X96964064Y-120843667D01*
X96964064Y-120656333D01*
X97000610Y-120472604D01*
X97072298Y-120299534D01*
X97176376Y-120143770D01*
X97308834Y-120011312D01*
X97464598Y-119907234D01*
X97637668Y-119835546D01*
X97821397Y-119799000D01*
X98008731Y-119799000D01*
X98192460Y-119835546D01*
X98192460Y-119835546D01*
G37*
G36*
X162362332Y-119755419D02*
X162535402Y-119827107D01*
X162691166Y-119931185D01*
X162823624Y-120063643D01*
X162927702Y-120219407D01*
X162999390Y-120392477D01*
X163035936Y-120576206D01*
X163035936Y-120763540D01*
X162999390Y-120947269D01*
X162927702Y-121120339D01*
X162823624Y-121276103D01*
X162691166Y-121408561D01*
X162535402Y-121512639D01*
X162362332Y-121584327D01*
X162178603Y-121620873D01*
X161991269Y-121620873D01*
X161807540Y-121584327D01*
X161634470Y-121512639D01*
X161478706Y-121408561D01*
X161346248Y-121276103D01*
X161242170Y-121120339D01*
X161170482Y-120947269D01*
X161133936Y-120763540D01*
X161133936Y-120576206D01*
X161170482Y-120392477D01*
X161242170Y-120219407D01*
X161346248Y-120063643D01*
X161478706Y-119931185D01*
X161634470Y-119827107D01*
X161807540Y-119755419D01*
X161991269Y-119718873D01*
X162178603Y-119718873D01*
X162362332Y-119755419D01*
X162362332Y-119755419D01*
G37*
G36*
X145666821Y-108031313D02*
X145666824Y-108031314D01*
X145666825Y-108031314D01*
X145827239Y-108079975D01*
X145827241Y-108079976D01*
X145827244Y-108079977D01*
X145975078Y-108158995D01*
X146104659Y-108265341D01*
X146211005Y-108394922D01*
X146290023Y-108542756D01*
X146338687Y-108703179D01*
X146355117Y-108870000D01*
X146338687Y-109036821D01*
X146338686Y-109036824D01*
X146338686Y-109036825D01*
X146308226Y-109137239D01*
X146290023Y-109197244D01*
X146211005Y-109345078D01*
X146104659Y-109474659D01*
X145975078Y-109581005D01*
X145827244Y-109660023D01*
X145827241Y-109660024D01*
X145827239Y-109660025D01*
X145666825Y-109708686D01*
X145666824Y-109708686D01*
X145666821Y-109708687D01*
X145541804Y-109721000D01*
X145458196Y-109721000D01*
X145333179Y-109708687D01*
X145333176Y-109708686D01*
X145333175Y-109708686D01*
X145172761Y-109660025D01*
X145172759Y-109660024D01*
X145172756Y-109660023D01*
X145024922Y-109581005D01*
X144895341Y-109474659D01*
X144788995Y-109345078D01*
X144709977Y-109197244D01*
X144691775Y-109137239D01*
X144661314Y-109036825D01*
X144661314Y-109036824D01*
X144661313Y-109036821D01*
X144644883Y-108870000D01*
X144661313Y-108703179D01*
X144709977Y-108542756D01*
X144788995Y-108394922D01*
X144895341Y-108265341D01*
X145024922Y-108158995D01*
X145172756Y-108079977D01*
X145172759Y-108079976D01*
X145172761Y-108079975D01*
X145333175Y-108031314D01*
X145333176Y-108031314D01*
X145333179Y-108031313D01*
X145458196Y-108019000D01*
X145541804Y-108019000D01*
X145666821Y-108031313D01*
X145666821Y-108031313D01*
G37*
G36*
X106996821Y-107971313D02*
X106996824Y-107971314D01*
X106996825Y-107971314D01*
X107157239Y-108019975D01*
X107157241Y-108019976D01*
X107157244Y-108019977D01*
X107305078Y-108098995D01*
X107434659Y-108205341D01*
X107541005Y-108334922D01*
X107620023Y-108482756D01*
X107620024Y-108482759D01*
X107620025Y-108482761D01*
X107668686Y-108643175D01*
X107668687Y-108643179D01*
X107685117Y-108810000D01*
X107668687Y-108976821D01*
X107620023Y-109137244D01*
X107541005Y-109285078D01*
X107434659Y-109414659D01*
X107305078Y-109521005D01*
X107157244Y-109600023D01*
X107157241Y-109600024D01*
X107157239Y-109600025D01*
X106996825Y-109648686D01*
X106996824Y-109648686D01*
X106996821Y-109648687D01*
X106871804Y-109661000D01*
X106788196Y-109661000D01*
X106663179Y-109648687D01*
X106663176Y-109648686D01*
X106663175Y-109648686D01*
X106502761Y-109600025D01*
X106502759Y-109600024D01*
X106502756Y-109600023D01*
X106354922Y-109521005D01*
X106225341Y-109414659D01*
X106118995Y-109285078D01*
X106039977Y-109137244D01*
X105991313Y-108976821D01*
X105974883Y-108810000D01*
X105991313Y-108643179D01*
X105991314Y-108643175D01*
X106039975Y-108482761D01*
X106039976Y-108482759D01*
X106039977Y-108482756D01*
X106118995Y-108334922D01*
X106225341Y-108205341D01*
X106354922Y-108098995D01*
X106502756Y-108019977D01*
X106502759Y-108019976D01*
X106502761Y-108019975D01*
X106663175Y-107971314D01*
X106663176Y-107971314D01*
X106663179Y-107971313D01*
X106788196Y-107959000D01*
X106871804Y-107959000D01*
X106996821Y-107971313D01*
X106996821Y-107971313D01*
G37*
G36*
X102601000Y-109661000D02*
X100899000Y-109661000D01*
X100899000Y-107959000D01*
X102601000Y-107959000D01*
X102601000Y-109661000D01*
X102601000Y-109661000D01*
G37*
G36*
X104456821Y-107971313D02*
X104456824Y-107971314D01*
X104456825Y-107971314D01*
X104617239Y-108019975D01*
X104617241Y-108019976D01*
X104617244Y-108019977D01*
X104765078Y-108098995D01*
X104894659Y-108205341D01*
X105001005Y-108334922D01*
X105080023Y-108482756D01*
X105080024Y-108482759D01*
X105080025Y-108482761D01*
X105128686Y-108643175D01*
X105128687Y-108643179D01*
X105145117Y-108810000D01*
X105128687Y-108976821D01*
X105080023Y-109137244D01*
X105001005Y-109285078D01*
X104894659Y-109414659D01*
X104765078Y-109521005D01*
X104617244Y-109600023D01*
X104617241Y-109600024D01*
X104617239Y-109600025D01*
X104456825Y-109648686D01*
X104456824Y-109648686D01*
X104456821Y-109648687D01*
X104331804Y-109661000D01*
X104248196Y-109661000D01*
X104123179Y-109648687D01*
X104123176Y-109648686D01*
X104123175Y-109648686D01*
X103962761Y-109600025D01*
X103962759Y-109600024D01*
X103962756Y-109600023D01*
X103814922Y-109521005D01*
X103685341Y-109414659D01*
X103578995Y-109285078D01*
X103499977Y-109137244D01*
X103451313Y-108976821D01*
X103434883Y-108810000D01*
X103451313Y-108643179D01*
X103451314Y-108643175D01*
X103499975Y-108482761D01*
X103499976Y-108482759D01*
X103499977Y-108482756D01*
X103578995Y-108334922D01*
X103685341Y-108205341D01*
X103814922Y-108098995D01*
X103962756Y-108019977D01*
X103962759Y-108019976D01*
X103962761Y-108019975D01*
X104123175Y-107971314D01*
X104123176Y-107971314D01*
X104123179Y-107971313D01*
X104248196Y-107959000D01*
X104331804Y-107959000D01*
X104456821Y-107971313D01*
X104456821Y-107971313D01*
G37*
G36*
X109536821Y-107971313D02*
X109536824Y-107971314D01*
X109536825Y-107971314D01*
X109697239Y-108019975D01*
X109697241Y-108019976D01*
X109697244Y-108019977D01*
X109845078Y-108098995D01*
X109974659Y-108205341D01*
X110081005Y-108334922D01*
X110160023Y-108482756D01*
X110160024Y-108482759D01*
X110160025Y-108482761D01*
X110208686Y-108643175D01*
X110208687Y-108643179D01*
X110225117Y-108810000D01*
X110208687Y-108976821D01*
X110160023Y-109137244D01*
X110081005Y-109285078D01*
X109974659Y-109414659D01*
X109845078Y-109521005D01*
X109697244Y-109600023D01*
X109697241Y-109600024D01*
X109697239Y-109600025D01*
X109536825Y-109648686D01*
X109536824Y-109648686D01*
X109536821Y-109648687D01*
X109411804Y-109661000D01*
X109328196Y-109661000D01*
X109203179Y-109648687D01*
X109203176Y-109648686D01*
X109203175Y-109648686D01*
X109042761Y-109600025D01*
X109042759Y-109600024D01*
X109042756Y-109600023D01*
X108894922Y-109521005D01*
X108765341Y-109414659D01*
X108658995Y-109285078D01*
X108579977Y-109137244D01*
X108531313Y-108976821D01*
X108514883Y-108810000D01*
X108531313Y-108643179D01*
X108531314Y-108643175D01*
X108579975Y-108482761D01*
X108579976Y-108482759D01*
X108579977Y-108482756D01*
X108658995Y-108334922D01*
X108765341Y-108205341D01*
X108894922Y-108098995D01*
X109042756Y-108019977D01*
X109042759Y-108019976D01*
X109042761Y-108019975D01*
X109203175Y-107971314D01*
X109203176Y-107971314D01*
X109203179Y-107971313D01*
X109328196Y-107959000D01*
X109411804Y-107959000D01*
X109536821Y-107971313D01*
X109536821Y-107971313D01*
G37*
G36*
X157091000Y-108841000D02*
X154989000Y-108841000D01*
X154989000Y-106739000D01*
X157091000Y-106739000D01*
X157091000Y-108841000D01*
X157091000Y-108841000D01*
G37*
G36*
X127697142Y-106758242D02*
X127845102Y-106819530D01*
X127978258Y-106908502D01*
X128091498Y-107021742D01*
X128180470Y-107154898D01*
X128241758Y-107302858D01*
X128273000Y-107459925D01*
X128273000Y-107620075D01*
X128241758Y-107777142D01*
X128194354Y-107891583D01*
X128180471Y-107925100D01*
X128109502Y-108031314D01*
X128091498Y-108058258D01*
X127978258Y-108171498D01*
X127845102Y-108260470D01*
X127697142Y-108321758D01*
X127540075Y-108353000D01*
X127379925Y-108353000D01*
X127222858Y-108321758D01*
X127074898Y-108260470D01*
X126941742Y-108171498D01*
X126828502Y-108058258D01*
X126810499Y-108031314D01*
X126739529Y-107925100D01*
X126725646Y-107891583D01*
X126678242Y-107777142D01*
X126647000Y-107620075D01*
X126647000Y-107459925D01*
X126678242Y-107302858D01*
X126739530Y-107154898D01*
X126828502Y-107021742D01*
X126941742Y-106908502D01*
X127074898Y-106819530D01*
X127222858Y-106758242D01*
X127379925Y-106727000D01*
X127540075Y-106727000D01*
X127697142Y-106758242D01*
X127697142Y-106758242D01*
G37*
G36*
X125157142Y-106758242D02*
X125305102Y-106819530D01*
X125438258Y-106908502D01*
X125551498Y-107021742D01*
X125640470Y-107154898D01*
X125701758Y-107302858D01*
X125733000Y-107459925D01*
X125733000Y-107620075D01*
X125701758Y-107777142D01*
X125654354Y-107891583D01*
X125640471Y-107925100D01*
X125569502Y-108031314D01*
X125551498Y-108058258D01*
X125438258Y-108171498D01*
X125305102Y-108260470D01*
X125157142Y-108321758D01*
X125000075Y-108353000D01*
X124839925Y-108353000D01*
X124682858Y-108321758D01*
X124534898Y-108260470D01*
X124401742Y-108171498D01*
X124288502Y-108058258D01*
X124270499Y-108031314D01*
X124199529Y-107925100D01*
X124185646Y-107891583D01*
X124138242Y-107777142D01*
X124107000Y-107620075D01*
X124107000Y-107459925D01*
X124138242Y-107302858D01*
X124199530Y-107154898D01*
X124288502Y-107021742D01*
X124401742Y-106908502D01*
X124534898Y-106819530D01*
X124682858Y-106758242D01*
X124839925Y-106727000D01*
X125000075Y-106727000D01*
X125157142Y-106758242D01*
X125157142Y-106758242D01*
G37*
G36*
X130237142Y-106758242D02*
X130385102Y-106819530D01*
X130518258Y-106908502D01*
X130631498Y-107021742D01*
X130720470Y-107154898D01*
X130781758Y-107302858D01*
X130813000Y-107459925D01*
X130813000Y-107620075D01*
X130781758Y-107777142D01*
X130734354Y-107891583D01*
X130720471Y-107925100D01*
X130649502Y-108031314D01*
X130631498Y-108058258D01*
X130518258Y-108171498D01*
X130385102Y-108260470D01*
X130237142Y-108321758D01*
X130080075Y-108353000D01*
X129919925Y-108353000D01*
X129762858Y-108321758D01*
X129614898Y-108260470D01*
X129481742Y-108171498D01*
X129368502Y-108058258D01*
X129350499Y-108031314D01*
X129279529Y-107925100D01*
X129265646Y-107891583D01*
X129218242Y-107777142D01*
X129187000Y-107620075D01*
X129187000Y-107459925D01*
X129218242Y-107302858D01*
X129279530Y-107154898D01*
X129368502Y-107021742D01*
X129481742Y-106908502D01*
X129614898Y-106819530D01*
X129762858Y-106758242D01*
X129919925Y-106727000D01*
X130080075Y-106727000D01*
X130237142Y-106758242D01*
X130237142Y-106758242D01*
G37*
G36*
X132777142Y-106758242D02*
X132925102Y-106819530D01*
X133058258Y-106908502D01*
X133171498Y-107021742D01*
X133260470Y-107154898D01*
X133321758Y-107302858D01*
X133353000Y-107459925D01*
X133353000Y-107620075D01*
X133321758Y-107777142D01*
X133274354Y-107891583D01*
X133260471Y-107925100D01*
X133189502Y-108031314D01*
X133171498Y-108058258D01*
X133058258Y-108171498D01*
X132925102Y-108260470D01*
X132777142Y-108321758D01*
X132620075Y-108353000D01*
X132459925Y-108353000D01*
X132302858Y-108321758D01*
X132154898Y-108260470D01*
X132021742Y-108171498D01*
X131908502Y-108058258D01*
X131890499Y-108031314D01*
X131819529Y-107925100D01*
X131805646Y-107891583D01*
X131758242Y-107777142D01*
X131727000Y-107620075D01*
X131727000Y-107459925D01*
X131758242Y-107302858D01*
X131819530Y-107154898D01*
X131908502Y-107021742D01*
X132021742Y-106908502D01*
X132154898Y-106819530D01*
X132302858Y-106758242D01*
X132459925Y-106727000D01*
X132620075Y-106727000D01*
X132777142Y-106758242D01*
X132777142Y-106758242D01*
G37*
G36*
X135317142Y-106758242D02*
X135465102Y-106819530D01*
X135598258Y-106908502D01*
X135711498Y-107021742D01*
X135800470Y-107154898D01*
X135861758Y-107302858D01*
X135893000Y-107459925D01*
X135893000Y-107620075D01*
X135861758Y-107777142D01*
X135814354Y-107891583D01*
X135800471Y-107925100D01*
X135729502Y-108031314D01*
X135711498Y-108058258D01*
X135598258Y-108171498D01*
X135465102Y-108260470D01*
X135317142Y-108321758D01*
X135160075Y-108353000D01*
X134999925Y-108353000D01*
X134842858Y-108321758D01*
X134694898Y-108260470D01*
X134561742Y-108171498D01*
X134448502Y-108058258D01*
X134430499Y-108031314D01*
X134359529Y-107925100D01*
X134345646Y-107891583D01*
X134298242Y-107777142D01*
X134267000Y-107620075D01*
X134267000Y-107459925D01*
X134298242Y-107302858D01*
X134359530Y-107154898D01*
X134448502Y-107021742D01*
X134561742Y-106908502D01*
X134694898Y-106819530D01*
X134842858Y-106758242D01*
X134999925Y-106727000D01*
X135160075Y-106727000D01*
X135317142Y-106758242D01*
X135317142Y-106758242D01*
G37*
G36*
X86375256Y-103391298D02*
X86481579Y-103412447D01*
X86782042Y-103536903D01*
X86885996Y-103606363D01*
X87052454Y-103717587D01*
X87282413Y-103947546D01*
X87463098Y-104217960D01*
X87587553Y-104518422D01*
X87651000Y-104837389D01*
X87651000Y-105162611D01*
X87587553Y-105481578D01*
X87463098Y-105782040D01*
X87282413Y-106052454D01*
X87052454Y-106282413D01*
X87052451Y-106282415D01*
X86782042Y-106463097D01*
X86481579Y-106587553D01*
X86375256Y-106608702D01*
X86162611Y-106651000D01*
X85837389Y-106651000D01*
X85624744Y-106608702D01*
X85518421Y-106587553D01*
X85217958Y-106463097D01*
X84947549Y-106282415D01*
X84947546Y-106282413D01*
X84717587Y-106052454D01*
X84536902Y-105782040D01*
X84412447Y-105481578D01*
X84349000Y-105162611D01*
X84349000Y-104837389D01*
X84412447Y-104518422D01*
X84536902Y-104217960D01*
X84717587Y-103947546D01*
X84947546Y-103717587D01*
X85114004Y-103606363D01*
X85217958Y-103536903D01*
X85518421Y-103412447D01*
X85624744Y-103391298D01*
X85837389Y-103349000D01*
X86162611Y-103349000D01*
X86375256Y-103391298D01*
X86375256Y-103391298D01*
G37*
G36*
X174375256Y-103391298D02*
X174481579Y-103412447D01*
X174782042Y-103536903D01*
X174885996Y-103606363D01*
X175052454Y-103717587D01*
X175282413Y-103947546D01*
X175463098Y-104217960D01*
X175587553Y-104518422D01*
X175651000Y-104837389D01*
X175651000Y-105162611D01*
X175587553Y-105481578D01*
X175463098Y-105782040D01*
X175282413Y-106052454D01*
X175052454Y-106282413D01*
X175052451Y-106282415D01*
X174782042Y-106463097D01*
X174481579Y-106587553D01*
X174375256Y-106608702D01*
X174162611Y-106651000D01*
X173837389Y-106651000D01*
X173624744Y-106608702D01*
X173518421Y-106587553D01*
X173217958Y-106463097D01*
X172947549Y-106282415D01*
X172947546Y-106282413D01*
X172717587Y-106052454D01*
X172536902Y-105782040D01*
X172412447Y-105481578D01*
X172349000Y-105162611D01*
X172349000Y-104837389D01*
X172412447Y-104518422D01*
X172536902Y-104217960D01*
X172717587Y-103947546D01*
X172947546Y-103717587D01*
X173114004Y-103606363D01*
X173217958Y-103536903D01*
X173518421Y-103412447D01*
X173624744Y-103391298D01*
X173837389Y-103349000D01*
X174162611Y-103349000D01*
X174375256Y-103391298D01*
X174375256Y-103391298D01*
G37*
G36*
X156346565Y-101779389D02*
X156537834Y-101858615D01*
X156709976Y-101973637D01*
X156856363Y-102120024D01*
X156971385Y-102292166D01*
X157050611Y-102483435D01*
X157091000Y-102686484D01*
X157091000Y-102893516D01*
X157050611Y-103096565D01*
X156971385Y-103287834D01*
X156856363Y-103459976D01*
X156709976Y-103606363D01*
X156537834Y-103721385D01*
X156346565Y-103800611D01*
X156143516Y-103841000D01*
X155936484Y-103841000D01*
X155733435Y-103800611D01*
X155542166Y-103721385D01*
X155370024Y-103606363D01*
X155223637Y-103459976D01*
X155108615Y-103287834D01*
X155029389Y-103096565D01*
X154989000Y-102893516D01*
X154989000Y-102686484D01*
X155029389Y-102483435D01*
X155108615Y-102292166D01*
X155223637Y-102120024D01*
X155370024Y-101973637D01*
X155542166Y-101858615D01*
X155733435Y-101779389D01*
X155936484Y-101739000D01*
X156143516Y-101739000D01*
X156346565Y-101779389D01*
X156346565Y-101779389D01*
G37*
G36*
X127697142Y-101678242D02*
X127811583Y-101725646D01*
X127843823Y-101739000D01*
X127845102Y-101739530D01*
X127978258Y-101828502D01*
X128091498Y-101941742D01*
X128180470Y-102074898D01*
X128241758Y-102222858D01*
X128273000Y-102379925D01*
X128273000Y-102540075D01*
X128241758Y-102697142D01*
X128180470Y-102845102D01*
X128091498Y-102978258D01*
X127978258Y-103091498D01*
X127845102Y-103180470D01*
X127697142Y-103241758D01*
X127540075Y-103273000D01*
X127379925Y-103273000D01*
X127222858Y-103241758D01*
X127074898Y-103180470D01*
X126941742Y-103091498D01*
X126828502Y-102978258D01*
X126739530Y-102845102D01*
X126678242Y-102697142D01*
X126647000Y-102540075D01*
X126647000Y-102379925D01*
X126678242Y-102222858D01*
X126739530Y-102074898D01*
X126828502Y-101941742D01*
X126941742Y-101828502D01*
X127074898Y-101739530D01*
X127076178Y-101739000D01*
X127108417Y-101725646D01*
X127222858Y-101678242D01*
X127379925Y-101647000D01*
X127540075Y-101647000D01*
X127697142Y-101678242D01*
X127697142Y-101678242D01*
G37*
G36*
X135317142Y-101678242D02*
X135431583Y-101725646D01*
X135463823Y-101739000D01*
X135465102Y-101739530D01*
X135598258Y-101828502D01*
X135711498Y-101941742D01*
X135800470Y-102074898D01*
X135861758Y-102222858D01*
X135893000Y-102379925D01*
X135893000Y-102540075D01*
X135861758Y-102697142D01*
X135800470Y-102845102D01*
X135711498Y-102978258D01*
X135598258Y-103091498D01*
X135465102Y-103180470D01*
X135317142Y-103241758D01*
X135160075Y-103273000D01*
X134999925Y-103273000D01*
X134842858Y-103241758D01*
X134694898Y-103180470D01*
X134561742Y-103091498D01*
X134448502Y-102978258D01*
X134359530Y-102845102D01*
X134298242Y-102697142D01*
X134267000Y-102540075D01*
X134267000Y-102379925D01*
X134298242Y-102222858D01*
X134359530Y-102074898D01*
X134448502Y-101941742D01*
X134561742Y-101828502D01*
X134694898Y-101739530D01*
X134696178Y-101739000D01*
X134728417Y-101725646D01*
X134842858Y-101678242D01*
X134999925Y-101647000D01*
X135160075Y-101647000D01*
X135317142Y-101678242D01*
X135317142Y-101678242D01*
G37*
G36*
X132777142Y-101678242D02*
X132891583Y-101725646D01*
X132923823Y-101739000D01*
X132925102Y-101739530D01*
X133058258Y-101828502D01*
X133171498Y-101941742D01*
X133260470Y-102074898D01*
X133321758Y-102222858D01*
X133353000Y-102379925D01*
X133353000Y-102540075D01*
X133321758Y-102697142D01*
X133260470Y-102845102D01*
X133171498Y-102978258D01*
X133058258Y-103091498D01*
X132925102Y-103180470D01*
X132777142Y-103241758D01*
X132620075Y-103273000D01*
X132459925Y-103273000D01*
X132302858Y-103241758D01*
X132154898Y-103180470D01*
X132021742Y-103091498D01*
X131908502Y-102978258D01*
X131819530Y-102845102D01*
X131758242Y-102697142D01*
X131727000Y-102540075D01*
X131727000Y-102379925D01*
X131758242Y-102222858D01*
X131819530Y-102074898D01*
X131908502Y-101941742D01*
X132021742Y-101828502D01*
X132154898Y-101739530D01*
X132156178Y-101739000D01*
X132188417Y-101725646D01*
X132302858Y-101678242D01*
X132459925Y-101647000D01*
X132620075Y-101647000D01*
X132777142Y-101678242D01*
X132777142Y-101678242D01*
G37*
G36*
X130237142Y-101678242D02*
X130351583Y-101725646D01*
X130383823Y-101739000D01*
X130385102Y-101739530D01*
X130518258Y-101828502D01*
X130631498Y-101941742D01*
X130720470Y-102074898D01*
X130781758Y-102222858D01*
X130813000Y-102379925D01*
X130813000Y-102540075D01*
X130781758Y-102697142D01*
X130720470Y-102845102D01*
X130631498Y-102978258D01*
X130518258Y-103091498D01*
X130385102Y-103180470D01*
X130237142Y-103241758D01*
X130080075Y-103273000D01*
X129919925Y-103273000D01*
X129762858Y-103241758D01*
X129614898Y-103180470D01*
X129481742Y-103091498D01*
X129368502Y-102978258D01*
X129279530Y-102845102D01*
X129218242Y-102697142D01*
X129187000Y-102540075D01*
X129187000Y-102379925D01*
X129218242Y-102222858D01*
X129279530Y-102074898D01*
X129368502Y-101941742D01*
X129481742Y-101828502D01*
X129614898Y-101739530D01*
X129616178Y-101739000D01*
X129648417Y-101725646D01*
X129762858Y-101678242D01*
X129919925Y-101647000D01*
X130080075Y-101647000D01*
X130237142Y-101678242D01*
X130237142Y-101678242D01*
G37*
G36*
X125157142Y-101678242D02*
X125271583Y-101725646D01*
X125303823Y-101739000D01*
X125305102Y-101739530D01*
X125438258Y-101828502D01*
X125551498Y-101941742D01*
X125640470Y-102074898D01*
X125701758Y-102222858D01*
X125733000Y-102379925D01*
X125733000Y-102540075D01*
X125701758Y-102697142D01*
X125640470Y-102845102D01*
X125551498Y-102978258D01*
X125438258Y-103091498D01*
X125305102Y-103180470D01*
X125157142Y-103241758D01*
X125000075Y-103273000D01*
X124839925Y-103273000D01*
X124682858Y-103241758D01*
X124534898Y-103180470D01*
X124401742Y-103091498D01*
X124288502Y-102978258D01*
X124199530Y-102845102D01*
X124138242Y-102697142D01*
X124107000Y-102540075D01*
X124107000Y-102379925D01*
X124138242Y-102222858D01*
X124199530Y-102074898D01*
X124288502Y-101941742D01*
X124401742Y-101828502D01*
X124534898Y-101739530D01*
X124536178Y-101739000D01*
X124568417Y-101725646D01*
X124682858Y-101678242D01*
X124839925Y-101647000D01*
X125000075Y-101647000D01*
X125157142Y-101678242D01*
X125157142Y-101678242D01*
G37*
G36*
X145748228Y-100431703D02*
X145903100Y-100495853D01*
X146042481Y-100588985D01*
X146161015Y-100707519D01*
X146254147Y-100846900D01*
X146318297Y-101001772D01*
X146351000Y-101166184D01*
X146351000Y-101333816D01*
X146318297Y-101498228D01*
X146254147Y-101653100D01*
X146161015Y-101792481D01*
X146042481Y-101911015D01*
X145903100Y-102004147D01*
X145748228Y-102068297D01*
X145583816Y-102101000D01*
X145416184Y-102101000D01*
X145251772Y-102068297D01*
X145096900Y-102004147D01*
X144957519Y-101911015D01*
X144838985Y-101792481D01*
X144745853Y-101653100D01*
X144681703Y-101498228D01*
X144649000Y-101333816D01*
X144649000Y-101166184D01*
X144681703Y-101001772D01*
X144745853Y-100846900D01*
X144838985Y-100707519D01*
X144957519Y-100588985D01*
X145096900Y-100495853D01*
X145251772Y-100431703D01*
X145416184Y-100399000D01*
X145583816Y-100399000D01*
X145748228Y-100431703D01*
X145748228Y-100431703D01*
G37*
G36*
X109536821Y-100351313D02*
X109536824Y-100351314D01*
X109536825Y-100351314D01*
X109697239Y-100399975D01*
X109697241Y-100399976D01*
X109697244Y-100399977D01*
X109845078Y-100478995D01*
X109974659Y-100585341D01*
X110081005Y-100714922D01*
X110160023Y-100862756D01*
X110208687Y-101023179D01*
X110225117Y-101190000D01*
X110208687Y-101356821D01*
X110208686Y-101356824D01*
X110208686Y-101356825D01*
X110165792Y-101498228D01*
X110160023Y-101517244D01*
X110081005Y-101665078D01*
X109974659Y-101794659D01*
X109845078Y-101901005D01*
X109697244Y-101980023D01*
X109697241Y-101980024D01*
X109697239Y-101980025D01*
X109536825Y-102028686D01*
X109536824Y-102028686D01*
X109536821Y-102028687D01*
X109411804Y-102041000D01*
X109328196Y-102041000D01*
X109203179Y-102028687D01*
X109203176Y-102028686D01*
X109203175Y-102028686D01*
X109042761Y-101980025D01*
X109042759Y-101980024D01*
X109042756Y-101980023D01*
X108894922Y-101901005D01*
X108765341Y-101794659D01*
X108658995Y-101665078D01*
X108579977Y-101517244D01*
X108574209Y-101498228D01*
X108531314Y-101356825D01*
X108531314Y-101356824D01*
X108531313Y-101356821D01*
X108514883Y-101190000D01*
X108531313Y-101023179D01*
X108579977Y-100862756D01*
X108658995Y-100714922D01*
X108765341Y-100585341D01*
X108894922Y-100478995D01*
X109042756Y-100399977D01*
X109042759Y-100399976D01*
X109042761Y-100399975D01*
X109203175Y-100351314D01*
X109203176Y-100351314D01*
X109203179Y-100351313D01*
X109328196Y-100339000D01*
X109411804Y-100339000D01*
X109536821Y-100351313D01*
X109536821Y-100351313D01*
G37*
G36*
X101916821Y-100351313D02*
X101916824Y-100351314D01*
X101916825Y-100351314D01*
X102077239Y-100399975D01*
X102077241Y-100399976D01*
X102077244Y-100399977D01*
X102225078Y-100478995D01*
X102354659Y-100585341D01*
X102461005Y-100714922D01*
X102540023Y-100862756D01*
X102588687Y-101023179D01*
X102605117Y-101190000D01*
X102588687Y-101356821D01*
X102588686Y-101356824D01*
X102588686Y-101356825D01*
X102545792Y-101498228D01*
X102540023Y-101517244D01*
X102461005Y-101665078D01*
X102354659Y-101794659D01*
X102225078Y-101901005D01*
X102077244Y-101980023D01*
X102077241Y-101980024D01*
X102077239Y-101980025D01*
X101916825Y-102028686D01*
X101916824Y-102028686D01*
X101916821Y-102028687D01*
X101791804Y-102041000D01*
X101708196Y-102041000D01*
X101583179Y-102028687D01*
X101583176Y-102028686D01*
X101583175Y-102028686D01*
X101422761Y-101980025D01*
X101422759Y-101980024D01*
X101422756Y-101980023D01*
X101274922Y-101901005D01*
X101145341Y-101794659D01*
X101038995Y-101665078D01*
X100959977Y-101517244D01*
X100954209Y-101498228D01*
X100911314Y-101356825D01*
X100911314Y-101356824D01*
X100911313Y-101356821D01*
X100894883Y-101190000D01*
X100911313Y-101023179D01*
X100959977Y-100862756D01*
X101038995Y-100714922D01*
X101145341Y-100585341D01*
X101274922Y-100478995D01*
X101422756Y-100399977D01*
X101422759Y-100399976D01*
X101422761Y-100399975D01*
X101583175Y-100351314D01*
X101583176Y-100351314D01*
X101583179Y-100351313D01*
X101708196Y-100339000D01*
X101791804Y-100339000D01*
X101916821Y-100351313D01*
X101916821Y-100351313D01*
G37*
G36*
X104456821Y-100351313D02*
X104456824Y-100351314D01*
X104456825Y-100351314D01*
X104617239Y-100399975D01*
X104617241Y-100399976D01*
X104617244Y-100399977D01*
X104765078Y-100478995D01*
X104894659Y-100585341D01*
X105001005Y-100714922D01*
X105080023Y-100862756D01*
X105128687Y-101023179D01*
X105145117Y-101190000D01*
X105128687Y-101356821D01*
X105128686Y-101356824D01*
X105128686Y-101356825D01*
X105085792Y-101498228D01*
X105080023Y-101517244D01*
X105001005Y-101665078D01*
X104894659Y-101794659D01*
X104765078Y-101901005D01*
X104617244Y-101980023D01*
X104617241Y-101980024D01*
X104617239Y-101980025D01*
X104456825Y-102028686D01*
X104456824Y-102028686D01*
X104456821Y-102028687D01*
X104331804Y-102041000D01*
X104248196Y-102041000D01*
X104123179Y-102028687D01*
X104123176Y-102028686D01*
X104123175Y-102028686D01*
X103962761Y-101980025D01*
X103962759Y-101980024D01*
X103962756Y-101980023D01*
X103814922Y-101901005D01*
X103685341Y-101794659D01*
X103578995Y-101665078D01*
X103499977Y-101517244D01*
X103494209Y-101498228D01*
X103451314Y-101356825D01*
X103451314Y-101356824D01*
X103451313Y-101356821D01*
X103434883Y-101190000D01*
X103451313Y-101023179D01*
X103499977Y-100862756D01*
X103578995Y-100714922D01*
X103685341Y-100585341D01*
X103814922Y-100478995D01*
X103962756Y-100399977D01*
X103962759Y-100399976D01*
X103962761Y-100399975D01*
X104123175Y-100351314D01*
X104123176Y-100351314D01*
X104123179Y-100351313D01*
X104248196Y-100339000D01*
X104331804Y-100339000D01*
X104456821Y-100351313D01*
X104456821Y-100351313D01*
G37*
G36*
X106996821Y-100351313D02*
X106996824Y-100351314D01*
X106996825Y-100351314D01*
X107157239Y-100399975D01*
X107157241Y-100399976D01*
X107157244Y-100399977D01*
X107305078Y-100478995D01*
X107434659Y-100585341D01*
X107541005Y-100714922D01*
X107620023Y-100862756D01*
X107668687Y-101023179D01*
X107685117Y-101190000D01*
X107668687Y-101356821D01*
X107668686Y-101356824D01*
X107668686Y-101356825D01*
X107625792Y-101498228D01*
X107620023Y-101517244D01*
X107541005Y-101665078D01*
X107434659Y-101794659D01*
X107305078Y-101901005D01*
X107157244Y-101980023D01*
X107157241Y-101980024D01*
X107157239Y-101980025D01*
X106996825Y-102028686D01*
X106996824Y-102028686D01*
X106996821Y-102028687D01*
X106871804Y-102041000D01*
X106788196Y-102041000D01*
X106663179Y-102028687D01*
X106663176Y-102028686D01*
X106663175Y-102028686D01*
X106502761Y-101980025D01*
X106502759Y-101980024D01*
X106502756Y-101980023D01*
X106354922Y-101901005D01*
X106225341Y-101794659D01*
X106118995Y-101665078D01*
X106039977Y-101517244D01*
X106034209Y-101498228D01*
X105991314Y-101356825D01*
X105991314Y-101356824D01*
X105991313Y-101356821D01*
X105974883Y-101190000D01*
X105991313Y-101023179D01*
X106039977Y-100862756D01*
X106118995Y-100714922D01*
X106225341Y-100585341D01*
X106354922Y-100478995D01*
X106502756Y-100399977D01*
X106502759Y-100399976D01*
X106502761Y-100399975D01*
X106663175Y-100351314D01*
X106663176Y-100351314D01*
X106663179Y-100351313D01*
X106788196Y-100339000D01*
X106871804Y-100339000D01*
X106996821Y-100351313D01*
X106996821Y-100351313D01*
G37*
G36*
X130190442Y-91605518D02*
X130256627Y-91612037D01*
X130369853Y-91646384D01*
X130426467Y-91663557D01*
X130565087Y-91737652D01*
X130582991Y-91747222D01*
X130605069Y-91765341D01*
X130720186Y-91859814D01*
X130803448Y-91961271D01*
X130832778Y-91997009D01*
X130832779Y-91997011D01*
X130916443Y-92153533D01*
X130931501Y-92203175D01*
X130967963Y-92323373D01*
X130985359Y-92500000D01*
X130967963Y-92676627D01*
X130933616Y-92789853D01*
X130916443Y-92846467D01*
X130847922Y-92974659D01*
X130832778Y-93002991D01*
X130803448Y-93038729D01*
X130720186Y-93140186D01*
X130636717Y-93208686D01*
X130582991Y-93252778D01*
X130582989Y-93252779D01*
X130426467Y-93336443D01*
X130369853Y-93353616D01*
X130256627Y-93387963D01*
X130190443Y-93394481D01*
X130124260Y-93401000D01*
X130035740Y-93401000D01*
X129969558Y-93394482D01*
X129903373Y-93387963D01*
X129790147Y-93353616D01*
X129733533Y-93336443D01*
X129577011Y-93252779D01*
X129577009Y-93252778D01*
X129523283Y-93208686D01*
X129439814Y-93140186D01*
X129356552Y-93038729D01*
X129327222Y-93002991D01*
X129312078Y-92974659D01*
X129243557Y-92846467D01*
X129226384Y-92789853D01*
X129192037Y-92676627D01*
X129174641Y-92500000D01*
X129192037Y-92323373D01*
X129228499Y-92203175D01*
X129243557Y-92153533D01*
X129327221Y-91997011D01*
X129327222Y-91997009D01*
X129356552Y-91961271D01*
X129439814Y-91859814D01*
X129554931Y-91765341D01*
X129577009Y-91747222D01*
X129594913Y-91737652D01*
X129733533Y-91663557D01*
X129790147Y-91646384D01*
X129903373Y-91612037D01*
X129969558Y-91605518D01*
X130035740Y-91599000D01*
X130124260Y-91599000D01*
X130190442Y-91605518D01*
X130190442Y-91605518D01*
G37*
G36*
X125901000Y-93401000D02*
X124099000Y-93401000D01*
X124099000Y-91599000D01*
X125901000Y-91599000D01*
X125901000Y-93401000D01*
X125901000Y-93401000D01*
G37*
G36*
X132730442Y-91605518D02*
X132796627Y-91612037D01*
X132909853Y-91646384D01*
X132966467Y-91663557D01*
X133105087Y-91737652D01*
X133122991Y-91747222D01*
X133145069Y-91765341D01*
X133260186Y-91859814D01*
X133343448Y-91961271D01*
X133372778Y-91997009D01*
X133372779Y-91997011D01*
X133456443Y-92153533D01*
X133471501Y-92203175D01*
X133507963Y-92323373D01*
X133525359Y-92500000D01*
X133507963Y-92676627D01*
X133473616Y-92789853D01*
X133456443Y-92846467D01*
X133387922Y-92974659D01*
X133372778Y-93002991D01*
X133343448Y-93038729D01*
X133260186Y-93140186D01*
X133176717Y-93208686D01*
X133122991Y-93252778D01*
X133122989Y-93252779D01*
X132966467Y-93336443D01*
X132909853Y-93353616D01*
X132796627Y-93387963D01*
X132730443Y-93394481D01*
X132664260Y-93401000D01*
X132575740Y-93401000D01*
X132509558Y-93394482D01*
X132443373Y-93387963D01*
X132330147Y-93353616D01*
X132273533Y-93336443D01*
X132117011Y-93252779D01*
X132117009Y-93252778D01*
X132063283Y-93208686D01*
X131979814Y-93140186D01*
X131896552Y-93038729D01*
X131867222Y-93002991D01*
X131852078Y-92974659D01*
X131783557Y-92846467D01*
X131766384Y-92789853D01*
X131732037Y-92676627D01*
X131714641Y-92500000D01*
X131732037Y-92323373D01*
X131768499Y-92203175D01*
X131783557Y-92153533D01*
X131867221Y-91997011D01*
X131867222Y-91997009D01*
X131896552Y-91961271D01*
X131979814Y-91859814D01*
X132094931Y-91765341D01*
X132117009Y-91747222D01*
X132134913Y-91737652D01*
X132273533Y-91663557D01*
X132330147Y-91646384D01*
X132443373Y-91612037D01*
X132509558Y-91605518D01*
X132575740Y-91599000D01*
X132664260Y-91599000D01*
X132730442Y-91605518D01*
X132730442Y-91605518D01*
G37*
G36*
X135270442Y-91605518D02*
X135336627Y-91612037D01*
X135449853Y-91646384D01*
X135506467Y-91663557D01*
X135645087Y-91737652D01*
X135662991Y-91747222D01*
X135685069Y-91765341D01*
X135800186Y-91859814D01*
X135883448Y-91961271D01*
X135912778Y-91997009D01*
X135912779Y-91997011D01*
X135996443Y-92153533D01*
X136011501Y-92203175D01*
X136047963Y-92323373D01*
X136065359Y-92500000D01*
X136047963Y-92676627D01*
X136013616Y-92789853D01*
X135996443Y-92846467D01*
X135927922Y-92974659D01*
X135912778Y-93002991D01*
X135883448Y-93038729D01*
X135800186Y-93140186D01*
X135716717Y-93208686D01*
X135662991Y-93252778D01*
X135662989Y-93252779D01*
X135506467Y-93336443D01*
X135449853Y-93353616D01*
X135336627Y-93387963D01*
X135270443Y-93394481D01*
X135204260Y-93401000D01*
X135115740Y-93401000D01*
X135049558Y-93394482D01*
X134983373Y-93387963D01*
X134870147Y-93353616D01*
X134813533Y-93336443D01*
X134657011Y-93252779D01*
X134657009Y-93252778D01*
X134603283Y-93208686D01*
X134519814Y-93140186D01*
X134436552Y-93038729D01*
X134407222Y-93002991D01*
X134392078Y-92974659D01*
X134323557Y-92846467D01*
X134306384Y-92789853D01*
X134272037Y-92676627D01*
X134254641Y-92500000D01*
X134272037Y-92323373D01*
X134308499Y-92203175D01*
X134323557Y-92153533D01*
X134407221Y-91997011D01*
X134407222Y-91997009D01*
X134436552Y-91961271D01*
X134519814Y-91859814D01*
X134634931Y-91765341D01*
X134657009Y-91747222D01*
X134674913Y-91737652D01*
X134813533Y-91663557D01*
X134870147Y-91646384D01*
X134983373Y-91612037D01*
X135049558Y-91605518D01*
X135115740Y-91599000D01*
X135204260Y-91599000D01*
X135270442Y-91605518D01*
X135270442Y-91605518D01*
G37*
G36*
X127650442Y-91605518D02*
X127716627Y-91612037D01*
X127829853Y-91646384D01*
X127886467Y-91663557D01*
X128025087Y-91737652D01*
X128042991Y-91747222D01*
X128065069Y-91765341D01*
X128180186Y-91859814D01*
X128263448Y-91961271D01*
X128292778Y-91997009D01*
X128292779Y-91997011D01*
X128376443Y-92153533D01*
X128391501Y-92203175D01*
X128427963Y-92323373D01*
X128445359Y-92500000D01*
X128427963Y-92676627D01*
X128393616Y-92789853D01*
X128376443Y-92846467D01*
X128307922Y-92974659D01*
X128292778Y-93002991D01*
X128263448Y-93038729D01*
X128180186Y-93140186D01*
X128096717Y-93208686D01*
X128042991Y-93252778D01*
X128042989Y-93252779D01*
X127886467Y-93336443D01*
X127829853Y-93353616D01*
X127716627Y-93387963D01*
X127650443Y-93394481D01*
X127584260Y-93401000D01*
X127495740Y-93401000D01*
X127429558Y-93394482D01*
X127363373Y-93387963D01*
X127250147Y-93353616D01*
X127193533Y-93336443D01*
X127037011Y-93252779D01*
X127037009Y-93252778D01*
X126983283Y-93208686D01*
X126899814Y-93140186D01*
X126816552Y-93038729D01*
X126787222Y-93002991D01*
X126772078Y-92974659D01*
X126703557Y-92846467D01*
X126686384Y-92789853D01*
X126652037Y-92676627D01*
X126634641Y-92500000D01*
X126652037Y-92323373D01*
X126688499Y-92203175D01*
X126703557Y-92153533D01*
X126787221Y-91997011D01*
X126787222Y-91997009D01*
X126816552Y-91961271D01*
X126899814Y-91859814D01*
X127014931Y-91765341D01*
X127037009Y-91747222D01*
X127054913Y-91737652D01*
X127193533Y-91663557D01*
X127250147Y-91646384D01*
X127363373Y-91612037D01*
X127429558Y-91605518D01*
X127495740Y-91599000D01*
X127584260Y-91599000D01*
X127650442Y-91605518D01*
X127650442Y-91605518D01*
G37*
G36*
X150286821Y-91531313D02*
X150286824Y-91531314D01*
X150286825Y-91531314D01*
X150447239Y-91579975D01*
X150447241Y-91579976D01*
X150447244Y-91579977D01*
X150595078Y-91658995D01*
X150724659Y-91765341D01*
X150831005Y-91894922D01*
X150910023Y-92042756D01*
X150910024Y-92042759D01*
X150910025Y-92042761D01*
X150945897Y-92161015D01*
X150958687Y-92203179D01*
X150975117Y-92370000D01*
X150958687Y-92536821D01*
X150958686Y-92536824D01*
X150958686Y-92536825D01*
X150916278Y-92676627D01*
X150910023Y-92697244D01*
X150831005Y-92845078D01*
X150724659Y-92974659D01*
X150595078Y-93081005D01*
X150447244Y-93160023D01*
X150447241Y-93160024D01*
X150447239Y-93160025D01*
X150286825Y-93208686D01*
X150286824Y-93208686D01*
X150286821Y-93208687D01*
X150161804Y-93221000D01*
X150078196Y-93221000D01*
X149953179Y-93208687D01*
X149953176Y-93208686D01*
X149953175Y-93208686D01*
X149792761Y-93160025D01*
X149792759Y-93160024D01*
X149792756Y-93160023D01*
X149644922Y-93081005D01*
X149515341Y-92974659D01*
X149408995Y-92845078D01*
X149329977Y-92697244D01*
X149323723Y-92676627D01*
X149281314Y-92536825D01*
X149281314Y-92536824D01*
X149281313Y-92536821D01*
X149264883Y-92370000D01*
X149281313Y-92203179D01*
X149294103Y-92161015D01*
X149329975Y-92042761D01*
X149329976Y-92042759D01*
X149329977Y-92042756D01*
X149408995Y-91894922D01*
X149515341Y-91765341D01*
X149644922Y-91658995D01*
X149792756Y-91579977D01*
X149792759Y-91579976D01*
X149792761Y-91579975D01*
X149953175Y-91531314D01*
X149953176Y-91531314D01*
X149953179Y-91531313D01*
X150078196Y-91519000D01*
X150161804Y-91519000D01*
X150286821Y-91531313D01*
X150286821Y-91531313D01*
G37*
G36*
X142666821Y-91531313D02*
X142666824Y-91531314D01*
X142666825Y-91531314D01*
X142827239Y-91579975D01*
X142827241Y-91579976D01*
X142827244Y-91579977D01*
X142975078Y-91658995D01*
X143104659Y-91765341D01*
X143211005Y-91894922D01*
X143290023Y-92042756D01*
X143290024Y-92042759D01*
X143290025Y-92042761D01*
X143325897Y-92161015D01*
X143338687Y-92203179D01*
X143355117Y-92370000D01*
X143338687Y-92536821D01*
X143338686Y-92536824D01*
X143338686Y-92536825D01*
X143296278Y-92676627D01*
X143290023Y-92697244D01*
X143211005Y-92845078D01*
X143104659Y-92974659D01*
X142975078Y-93081005D01*
X142827244Y-93160023D01*
X142827241Y-93160024D01*
X142827239Y-93160025D01*
X142666825Y-93208686D01*
X142666824Y-93208686D01*
X142666821Y-93208687D01*
X142541804Y-93221000D01*
X142458196Y-93221000D01*
X142333179Y-93208687D01*
X142333176Y-93208686D01*
X142333175Y-93208686D01*
X142172761Y-93160025D01*
X142172759Y-93160024D01*
X142172756Y-93160023D01*
X142024922Y-93081005D01*
X141895341Y-92974659D01*
X141788995Y-92845078D01*
X141709977Y-92697244D01*
X141703723Y-92676627D01*
X141661314Y-92536825D01*
X141661314Y-92536824D01*
X141661313Y-92536821D01*
X141644883Y-92370000D01*
X141661313Y-92203179D01*
X141674103Y-92161015D01*
X141709975Y-92042761D01*
X141709976Y-92042759D01*
X141709977Y-92042756D01*
X141788995Y-91894922D01*
X141895341Y-91765341D01*
X142024922Y-91658995D01*
X142172756Y-91579977D01*
X142172759Y-91579976D01*
X142172761Y-91579975D01*
X142333175Y-91531314D01*
X142333176Y-91531314D01*
X142333179Y-91531313D01*
X142458196Y-91519000D01*
X142541804Y-91519000D01*
X142666821Y-91531313D01*
X142666821Y-91531313D01*
G37*
G36*
X113601000Y-92351000D02*
X111899000Y-92351000D01*
X111899000Y-90649000D01*
X113601000Y-90649000D01*
X113601000Y-92351000D01*
X113601000Y-92351000D01*
G37*
G36*
X115498228Y-90681703D02*
X115653100Y-90745853D01*
X115792481Y-90838985D01*
X115911015Y-90957519D01*
X116004147Y-91096900D01*
X116068297Y-91251772D01*
X116101000Y-91416184D01*
X116101000Y-91583816D01*
X116068297Y-91748228D01*
X116004147Y-91903100D01*
X115911015Y-92042481D01*
X115792481Y-92161015D01*
X115653100Y-92254147D01*
X115498228Y-92318297D01*
X115333816Y-92351000D01*
X115166184Y-92351000D01*
X115001772Y-92318297D01*
X114846900Y-92254147D01*
X114707519Y-92161015D01*
X114588985Y-92042481D01*
X114495853Y-91903100D01*
X114431703Y-91748228D01*
X114399000Y-91583816D01*
X114399000Y-91416184D01*
X114431703Y-91251772D01*
X114495853Y-91096900D01*
X114588985Y-90957519D01*
X114707519Y-90838985D01*
X114846900Y-90745853D01*
X115001772Y-90681703D01*
X115166184Y-90649000D01*
X115333816Y-90649000D01*
X115498228Y-90681703D01*
X115498228Y-90681703D01*
G37*
G36*
X99158609Y-89871817D02*
X98472609Y-91060005D01*
X97284421Y-90374005D01*
X97970421Y-89185817D01*
X99158609Y-89871817D01*
X99158609Y-89871817D01*
G37*
G36*
X161953687Y-89463213D02*
X162078529Y-89514924D01*
X162190892Y-89590003D01*
X162286437Y-89685548D01*
X162361516Y-89797911D01*
X162413227Y-89922753D01*
X162439589Y-90055284D01*
X162439589Y-90190418D01*
X162413227Y-90322949D01*
X162361516Y-90447791D01*
X162286437Y-90560154D01*
X162190892Y-90655699D01*
X162190889Y-90655701D01*
X162190888Y-90655702D01*
X162151973Y-90681704D01*
X162078529Y-90730778D01*
X161953687Y-90782489D01*
X161821156Y-90808851D01*
X161686022Y-90808851D01*
X161553491Y-90782489D01*
X161428649Y-90730778D01*
X161355205Y-90681704D01*
X161316290Y-90655702D01*
X161316289Y-90655701D01*
X161316286Y-90655699D01*
X161220741Y-90560154D01*
X161145662Y-90447791D01*
X161093951Y-90322949D01*
X161067589Y-90190418D01*
X161067589Y-90055284D01*
X161093951Y-89922753D01*
X161145662Y-89797911D01*
X161220741Y-89685548D01*
X161316286Y-89590003D01*
X161428649Y-89514924D01*
X161553491Y-89463213D01*
X161686022Y-89436851D01*
X161821156Y-89436851D01*
X161953687Y-89463213D01*
X161953687Y-89463213D01*
G37*
G36*
X142666821Y-88991313D02*
X142666824Y-88991314D01*
X142666825Y-88991314D01*
X142827239Y-89039975D01*
X142827241Y-89039976D01*
X142827244Y-89039977D01*
X142975078Y-89118995D01*
X143104659Y-89225341D01*
X143211005Y-89354922D01*
X143290023Y-89502756D01*
X143290024Y-89502759D01*
X143290025Y-89502761D01*
X143338686Y-89663175D01*
X143338687Y-89663179D01*
X143355117Y-89830000D01*
X143338687Y-89996821D01*
X143338686Y-89996824D01*
X143338686Y-89996825D01*
X143320953Y-90055284D01*
X143290023Y-90157244D01*
X143211005Y-90305078D01*
X143104659Y-90434659D01*
X142975078Y-90541005D01*
X142827244Y-90620023D01*
X142827241Y-90620024D01*
X142827239Y-90620025D01*
X142666825Y-90668686D01*
X142666824Y-90668686D01*
X142666821Y-90668687D01*
X142541804Y-90681000D01*
X142458196Y-90681000D01*
X142333179Y-90668687D01*
X142333176Y-90668686D01*
X142333175Y-90668686D01*
X142172761Y-90620025D01*
X142172759Y-90620024D01*
X142172756Y-90620023D01*
X142024922Y-90541005D01*
X141895341Y-90434659D01*
X141788995Y-90305078D01*
X141709977Y-90157244D01*
X141679048Y-90055284D01*
X141661314Y-89996825D01*
X141661314Y-89996824D01*
X141661313Y-89996821D01*
X141644883Y-89830000D01*
X141661313Y-89663179D01*
X141661314Y-89663175D01*
X141709975Y-89502761D01*
X141709976Y-89502759D01*
X141709977Y-89502756D01*
X141788995Y-89354922D01*
X141895341Y-89225341D01*
X142024922Y-89118995D01*
X142172756Y-89039977D01*
X142172759Y-89039976D01*
X142172761Y-89039975D01*
X142333175Y-88991314D01*
X142333176Y-88991314D01*
X142333179Y-88991313D01*
X142458196Y-88979000D01*
X142541804Y-88979000D01*
X142666821Y-88991313D01*
X142666821Y-88991313D01*
G37*
G36*
X150286821Y-88991313D02*
X150286824Y-88991314D01*
X150286825Y-88991314D01*
X150447239Y-89039975D01*
X150447241Y-89039976D01*
X150447244Y-89039977D01*
X150595078Y-89118995D01*
X150724659Y-89225341D01*
X150831005Y-89354922D01*
X150910023Y-89502756D01*
X150910024Y-89502759D01*
X150910025Y-89502761D01*
X150958686Y-89663175D01*
X150958687Y-89663179D01*
X150975117Y-89830000D01*
X150958687Y-89996821D01*
X150958686Y-89996824D01*
X150958686Y-89996825D01*
X150940953Y-90055284D01*
X150910023Y-90157244D01*
X150831005Y-90305078D01*
X150724659Y-90434659D01*
X150595078Y-90541005D01*
X150447244Y-90620023D01*
X150447241Y-90620024D01*
X150447239Y-90620025D01*
X150286825Y-90668686D01*
X150286824Y-90668686D01*
X150286821Y-90668687D01*
X150161804Y-90681000D01*
X150078196Y-90681000D01*
X149953179Y-90668687D01*
X149953176Y-90668686D01*
X149953175Y-90668686D01*
X149792761Y-90620025D01*
X149792759Y-90620024D01*
X149792756Y-90620023D01*
X149644922Y-90541005D01*
X149515341Y-90434659D01*
X149408995Y-90305078D01*
X149329977Y-90157244D01*
X149299048Y-90055284D01*
X149281314Y-89996825D01*
X149281314Y-89996824D01*
X149281313Y-89996821D01*
X149264883Y-89830000D01*
X149281313Y-89663179D01*
X149281314Y-89663175D01*
X149329975Y-89502761D01*
X149329976Y-89502759D01*
X149329977Y-89502756D01*
X149408995Y-89354922D01*
X149515341Y-89225341D01*
X149644922Y-89118995D01*
X149792756Y-89039977D01*
X149792759Y-89039976D01*
X149792761Y-89039975D01*
X149953175Y-88991314D01*
X149953176Y-88991314D01*
X149953179Y-88991313D01*
X150078196Y-88979000D01*
X150161804Y-88979000D01*
X150286821Y-88991313D01*
X150286821Y-88991313D01*
G37*
G36*
X99422269Y-87729846D02*
X99547111Y-87781557D01*
X99659474Y-87856636D01*
X99755019Y-87952181D01*
X99755021Y-87952184D01*
X99755022Y-87952185D01*
X99830096Y-88064541D01*
X99830098Y-88064544D01*
X99881809Y-88189386D01*
X99908171Y-88321917D01*
X99908171Y-88457051D01*
X99881809Y-88589582D01*
X99830098Y-88714424D01*
X99755019Y-88826787D01*
X99659474Y-88922332D01*
X99547111Y-88997411D01*
X99422269Y-89049122D01*
X99289738Y-89075484D01*
X99154604Y-89075484D01*
X99022073Y-89049122D01*
X98897231Y-88997411D01*
X98784868Y-88922332D01*
X98689323Y-88826787D01*
X98614244Y-88714424D01*
X98562533Y-88589582D01*
X98536171Y-88457051D01*
X98536171Y-88321917D01*
X98562533Y-88189386D01*
X98614244Y-88064544D01*
X98614246Y-88064541D01*
X98689320Y-87952185D01*
X98689321Y-87952184D01*
X98689323Y-87952181D01*
X98784868Y-87856636D01*
X98897231Y-87781557D01*
X99022073Y-87729846D01*
X99154604Y-87703484D01*
X99289738Y-87703484D01*
X99422269Y-87729846D01*
X99422269Y-87729846D01*
G37*
G36*
X160952927Y-87729846D02*
X161077769Y-87781557D01*
X161190132Y-87856636D01*
X161285677Y-87952181D01*
X161285679Y-87952184D01*
X161285680Y-87952185D01*
X161360754Y-88064541D01*
X161360756Y-88064544D01*
X161412467Y-88189386D01*
X161438829Y-88321917D01*
X161438829Y-88457051D01*
X161412467Y-88589582D01*
X161360756Y-88714424D01*
X161285677Y-88826787D01*
X161190132Y-88922332D01*
X161077769Y-88997411D01*
X160952927Y-89049122D01*
X160820396Y-89075484D01*
X160685262Y-89075484D01*
X160552731Y-89049122D01*
X160427889Y-88997411D01*
X160315526Y-88922332D01*
X160219981Y-88826787D01*
X160144902Y-88714424D01*
X160093191Y-88589582D01*
X160066829Y-88457051D01*
X160066829Y-88321917D01*
X160093191Y-88189386D01*
X160144902Y-88064544D01*
X160144904Y-88064541D01*
X160219978Y-87952185D01*
X160219979Y-87952184D01*
X160219981Y-87952181D01*
X160315526Y-87856636D01*
X160427889Y-87781557D01*
X160552731Y-87729846D01*
X160685262Y-87703484D01*
X160820396Y-87703484D01*
X160952927Y-87729846D01*
X160952927Y-87729846D01*
G37*
G36*
X142666821Y-86451313D02*
X142666824Y-86451314D01*
X142666825Y-86451314D01*
X142827239Y-86499975D01*
X142827241Y-86499976D01*
X142827244Y-86499977D01*
X142975078Y-86578995D01*
X143104659Y-86685341D01*
X143211005Y-86814922D01*
X143290023Y-86962756D01*
X143338687Y-87123179D01*
X143355117Y-87290000D01*
X143338687Y-87456821D01*
X143290023Y-87617244D01*
X143211005Y-87765078D01*
X143104659Y-87894659D01*
X142975078Y-88001005D01*
X142827244Y-88080023D01*
X142827241Y-88080024D01*
X142827239Y-88080025D01*
X142666825Y-88128686D01*
X142666824Y-88128686D01*
X142666821Y-88128687D01*
X142541804Y-88141000D01*
X142458196Y-88141000D01*
X142333179Y-88128687D01*
X142333176Y-88128686D01*
X142333175Y-88128686D01*
X142172761Y-88080025D01*
X142172759Y-88080024D01*
X142172756Y-88080023D01*
X142024922Y-88001005D01*
X141895341Y-87894659D01*
X141788995Y-87765078D01*
X141709977Y-87617244D01*
X141661313Y-87456821D01*
X141644883Y-87290000D01*
X141661313Y-87123179D01*
X141709977Y-86962756D01*
X141788995Y-86814922D01*
X141895341Y-86685341D01*
X142024922Y-86578995D01*
X142172756Y-86499977D01*
X142172759Y-86499976D01*
X142172761Y-86499975D01*
X142333175Y-86451314D01*
X142333176Y-86451314D01*
X142333179Y-86451313D01*
X142458196Y-86439000D01*
X142541804Y-86439000D01*
X142666821Y-86451313D01*
X142666821Y-86451313D01*
G37*
G36*
X150286821Y-86451313D02*
X150286824Y-86451314D01*
X150286825Y-86451314D01*
X150447239Y-86499975D01*
X150447241Y-86499976D01*
X150447244Y-86499977D01*
X150595078Y-86578995D01*
X150724659Y-86685341D01*
X150831005Y-86814922D01*
X150910023Y-86962756D01*
X150958687Y-87123179D01*
X150975117Y-87290000D01*
X150958687Y-87456821D01*
X150910023Y-87617244D01*
X150831005Y-87765078D01*
X150724659Y-87894659D01*
X150595078Y-88001005D01*
X150447244Y-88080023D01*
X150447241Y-88080024D01*
X150447239Y-88080025D01*
X150286825Y-88128686D01*
X150286824Y-88128686D01*
X150286821Y-88128687D01*
X150161804Y-88141000D01*
X150078196Y-88141000D01*
X149953179Y-88128687D01*
X149953176Y-88128686D01*
X149953175Y-88128686D01*
X149792761Y-88080025D01*
X149792759Y-88080024D01*
X149792756Y-88080023D01*
X149644922Y-88001005D01*
X149515341Y-87894659D01*
X149408995Y-87765078D01*
X149329977Y-87617244D01*
X149281313Y-87456821D01*
X149264883Y-87290000D01*
X149281313Y-87123179D01*
X149329977Y-86962756D01*
X149408995Y-86814922D01*
X149515341Y-86685341D01*
X149644922Y-86578995D01*
X149792756Y-86499977D01*
X149792759Y-86499976D01*
X149792761Y-86499975D01*
X149953175Y-86451314D01*
X149953176Y-86451314D01*
X149953179Y-86451313D01*
X150078196Y-86439000D01*
X150161804Y-86439000D01*
X150286821Y-86451313D01*
X150286821Y-86451313D01*
G37*
G36*
X159954707Y-86000878D02*
X160079549Y-86052589D01*
X160191912Y-86127668D01*
X160287457Y-86223213D01*
X160362536Y-86335576D01*
X160414247Y-86460418D01*
X160440609Y-86592949D01*
X160440609Y-86728083D01*
X160414247Y-86860614D01*
X160362536Y-86985456D01*
X160287457Y-87097819D01*
X160191912Y-87193364D01*
X160079549Y-87268443D01*
X159954707Y-87320154D01*
X159822176Y-87346516D01*
X159687042Y-87346516D01*
X159554511Y-87320154D01*
X159429669Y-87268443D01*
X159317306Y-87193364D01*
X159221761Y-87097819D01*
X159146682Y-86985456D01*
X159094971Y-86860614D01*
X159068609Y-86728083D01*
X159068609Y-86592949D01*
X159094971Y-86460418D01*
X159146682Y-86335576D01*
X159221761Y-86223213D01*
X159317306Y-86127668D01*
X159429669Y-86052589D01*
X159554511Y-86000878D01*
X159687042Y-85974516D01*
X159822176Y-85974516D01*
X159954707Y-86000878D01*
X159954707Y-86000878D01*
G37*
G36*
X100420489Y-86000878D02*
X100545331Y-86052589D01*
X100657694Y-86127668D01*
X100753239Y-86223213D01*
X100828318Y-86335576D01*
X100880029Y-86460418D01*
X100906391Y-86592949D01*
X100906391Y-86728083D01*
X100880029Y-86860614D01*
X100828318Y-86985456D01*
X100753239Y-87097819D01*
X100657694Y-87193364D01*
X100545331Y-87268443D01*
X100420489Y-87320154D01*
X100287958Y-87346516D01*
X100152824Y-87346516D01*
X100020293Y-87320154D01*
X99895451Y-87268443D01*
X99783088Y-87193364D01*
X99687543Y-87097819D01*
X99612464Y-86985456D01*
X99560753Y-86860614D01*
X99534391Y-86728083D01*
X99534391Y-86592949D01*
X99560753Y-86460418D01*
X99612464Y-86335576D01*
X99687543Y-86223213D01*
X99783088Y-86127668D01*
X99895451Y-86052589D01*
X100020293Y-86000878D01*
X100152824Y-85974516D01*
X100287958Y-85974516D01*
X100420489Y-86000878D01*
X100420489Y-86000878D01*
G37*
G36*
X159690839Y-85178303D02*
X158502651Y-85864303D01*
X157816651Y-84676115D01*
X159004839Y-83990115D01*
X159690839Y-85178303D01*
X159690839Y-85178303D01*
G37*
G36*
X101421249Y-84267511D02*
X101546091Y-84319222D01*
X101658454Y-84394301D01*
X101753999Y-84489846D01*
X101754001Y-84489849D01*
X101754002Y-84489850D01*
X101829076Y-84602206D01*
X101829078Y-84602209D01*
X101880789Y-84727051D01*
X101907151Y-84859582D01*
X101907151Y-84994716D01*
X101880789Y-85127247D01*
X101829078Y-85252089D01*
X101753999Y-85364452D01*
X101658454Y-85459997D01*
X101658451Y-85459999D01*
X101658450Y-85460000D01*
X101546094Y-85535074D01*
X101546091Y-85535076D01*
X101421249Y-85586787D01*
X101288718Y-85613149D01*
X101153584Y-85613149D01*
X101021053Y-85586787D01*
X100896211Y-85535076D01*
X100896208Y-85535074D01*
X100783852Y-85460000D01*
X100783851Y-85459999D01*
X100783848Y-85459997D01*
X100688303Y-85364452D01*
X100613224Y-85252089D01*
X100561513Y-85127247D01*
X100535151Y-84994716D01*
X100535151Y-84859582D01*
X100561513Y-84727051D01*
X100613224Y-84602209D01*
X100613226Y-84602206D01*
X100688300Y-84489850D01*
X100688301Y-84489849D01*
X100688303Y-84489846D01*
X100783848Y-84394301D01*
X100896211Y-84319222D01*
X101021053Y-84267511D01*
X101153584Y-84241149D01*
X101288718Y-84241149D01*
X101421249Y-84267511D01*
X101421249Y-84267511D01*
G37*
G36*
X150286821Y-83911313D02*
X150286824Y-83911314D01*
X150286825Y-83911314D01*
X150447239Y-83959975D01*
X150447241Y-83959976D01*
X150447244Y-83959977D01*
X150595078Y-84038995D01*
X150724659Y-84145341D01*
X150831005Y-84274922D01*
X150910023Y-84422756D01*
X150958687Y-84583179D01*
X150975117Y-84750000D01*
X150958687Y-84916821D01*
X150958686Y-84916824D01*
X150958686Y-84916825D01*
X150935059Y-84994714D01*
X150910023Y-85077244D01*
X150831005Y-85225078D01*
X150724659Y-85354659D01*
X150595078Y-85461005D01*
X150447244Y-85540023D01*
X150447241Y-85540024D01*
X150447239Y-85540025D01*
X150286825Y-85588686D01*
X150286824Y-85588686D01*
X150286821Y-85588687D01*
X150161804Y-85601000D01*
X150078196Y-85601000D01*
X149953179Y-85588687D01*
X149953176Y-85588686D01*
X149953175Y-85588686D01*
X149792761Y-85540025D01*
X149792759Y-85540024D01*
X149792756Y-85540023D01*
X149644922Y-85461005D01*
X149515341Y-85354659D01*
X149408995Y-85225078D01*
X149329977Y-85077244D01*
X149304942Y-84994714D01*
X149281314Y-84916825D01*
X149281314Y-84916824D01*
X149281313Y-84916821D01*
X149264883Y-84750000D01*
X149281313Y-84583179D01*
X149329977Y-84422756D01*
X149408995Y-84274922D01*
X149515341Y-84145341D01*
X149644922Y-84038995D01*
X149792756Y-83959977D01*
X149792759Y-83959976D01*
X149792761Y-83959975D01*
X149953175Y-83911314D01*
X149953176Y-83911314D01*
X149953179Y-83911313D01*
X150078196Y-83899000D01*
X150161804Y-83899000D01*
X150286821Y-83911313D01*
X150286821Y-83911313D01*
G37*
G36*
X143351000Y-85601000D02*
X141649000Y-85601000D01*
X141649000Y-83899000D01*
X143351000Y-83899000D01*
X143351000Y-85601000D01*
X143351000Y-85601000D01*
G37*
G36*
X115610442Y-78805518D02*
X115676627Y-78812037D01*
X115789853Y-78846384D01*
X115846467Y-78863557D01*
X115985087Y-78937652D01*
X116002991Y-78947222D01*
X116027090Y-78967000D01*
X116140186Y-79059814D01*
X116212968Y-79148501D01*
X116252778Y-79197009D01*
X116252779Y-79197011D01*
X116336443Y-79353533D01*
X116336443Y-79353534D01*
X116387963Y-79523373D01*
X116405359Y-79700000D01*
X116387963Y-79876627D01*
X116353616Y-79989853D01*
X116336443Y-80046467D01*
X116273031Y-80165100D01*
X116252778Y-80202991D01*
X116223448Y-80238729D01*
X116140186Y-80340186D01*
X116038729Y-80423448D01*
X116002991Y-80452778D01*
X116002989Y-80452779D01*
X115846467Y-80536443D01*
X115789853Y-80553616D01*
X115676627Y-80587963D01*
X115610443Y-80594481D01*
X115544260Y-80601000D01*
X115455740Y-80601000D01*
X115389557Y-80594481D01*
X115323373Y-80587963D01*
X115210147Y-80553616D01*
X115153533Y-80536443D01*
X114997011Y-80452779D01*
X114997009Y-80452778D01*
X114961271Y-80423448D01*
X114859814Y-80340186D01*
X114776552Y-80238729D01*
X114747222Y-80202991D01*
X114726969Y-80165100D01*
X114663557Y-80046467D01*
X114646384Y-79989853D01*
X114612037Y-79876627D01*
X114594641Y-79700000D01*
X114612037Y-79523373D01*
X114663557Y-79353534D01*
X114663557Y-79353533D01*
X114747221Y-79197011D01*
X114747222Y-79197009D01*
X114787032Y-79148501D01*
X114859814Y-79059814D01*
X114972910Y-78967000D01*
X114997009Y-78947222D01*
X115014913Y-78937652D01*
X115153533Y-78863557D01*
X115210147Y-78846384D01*
X115323373Y-78812037D01*
X115389558Y-78805518D01*
X115455740Y-78799000D01*
X115544260Y-78799000D01*
X115610442Y-78805518D01*
X115610442Y-78805518D01*
G37*
G36*
X137857142Y-78998242D02*
X138005102Y-79059530D01*
X138138258Y-79148502D01*
X138251498Y-79261742D01*
X138340470Y-79394898D01*
X138401758Y-79542858D01*
X138433000Y-79699925D01*
X138433000Y-79860075D01*
X138401758Y-80017142D01*
X138340470Y-80165102D01*
X138251498Y-80298258D01*
X138138258Y-80411498D01*
X138005102Y-80500470D01*
X137857142Y-80561758D01*
X137700075Y-80593000D01*
X137539925Y-80593000D01*
X137382858Y-80561758D01*
X137234898Y-80500470D01*
X137101742Y-80411498D01*
X136988502Y-80298258D01*
X136899530Y-80165102D01*
X136838242Y-80017142D01*
X136807000Y-79860075D01*
X136807000Y-79699925D01*
X136838242Y-79542858D01*
X136899530Y-79394898D01*
X136988502Y-79261742D01*
X137101742Y-79148502D01*
X137234898Y-79059530D01*
X137382858Y-78998242D01*
X137539925Y-78967000D01*
X137700075Y-78967000D01*
X137857142Y-78998242D01*
X137857142Y-78998242D01*
G37*
G36*
X122617142Y-78998242D02*
X122765102Y-79059530D01*
X122898258Y-79148502D01*
X123011498Y-79261742D01*
X123100470Y-79394898D01*
X123161758Y-79542858D01*
X123193000Y-79699925D01*
X123193000Y-79860075D01*
X123161758Y-80017142D01*
X123100470Y-80165102D01*
X123011498Y-80298258D01*
X122898258Y-80411498D01*
X122765102Y-80500470D01*
X122617142Y-80561758D01*
X122460075Y-80593000D01*
X122299925Y-80593000D01*
X122142858Y-80561758D01*
X121994898Y-80500470D01*
X121861742Y-80411498D01*
X121748502Y-80298258D01*
X121659530Y-80165102D01*
X121598242Y-80017142D01*
X121567000Y-79860075D01*
X121567000Y-79699925D01*
X121598242Y-79542858D01*
X121659530Y-79394898D01*
X121748502Y-79261742D01*
X121861742Y-79148502D01*
X121994898Y-79059530D01*
X122142858Y-78998242D01*
X122299925Y-78967000D01*
X122460075Y-78967000D01*
X122617142Y-78998242D01*
X122617142Y-78998242D01*
G37*
G36*
X144748228Y-76431703D02*
X144903100Y-76495853D01*
X145042481Y-76588985D01*
X145161015Y-76707519D01*
X145254147Y-76846900D01*
X145318297Y-77001772D01*
X145351000Y-77166184D01*
X145351000Y-77333816D01*
X145318297Y-77498228D01*
X145254147Y-77653100D01*
X145161015Y-77792481D01*
X145042481Y-77911015D01*
X144903100Y-78004147D01*
X144748228Y-78068297D01*
X144583816Y-78101000D01*
X144416184Y-78101000D01*
X144251772Y-78068297D01*
X144096900Y-78004147D01*
X143957519Y-77911015D01*
X143838985Y-77792481D01*
X143745853Y-77653100D01*
X143681703Y-77498228D01*
X143649000Y-77333816D01*
X143649000Y-77166184D01*
X143681703Y-77001772D01*
X143745853Y-76846900D01*
X143838985Y-76707519D01*
X143957519Y-76588985D01*
X144096900Y-76495853D01*
X144251772Y-76431703D01*
X144416184Y-76399000D01*
X144583816Y-76399000D01*
X144748228Y-76431703D01*
X144748228Y-76431703D01*
G37*
G36*
X115610443Y-76265519D02*
X115676627Y-76272037D01*
X115789853Y-76306384D01*
X115846467Y-76323557D01*
X115985087Y-76397652D01*
X116002991Y-76407222D01*
X116027090Y-76427000D01*
X116140186Y-76519814D01*
X116196952Y-76588985D01*
X116252778Y-76657009D01*
X116252779Y-76657011D01*
X116336443Y-76813533D01*
X116348991Y-76854898D01*
X116387963Y-76983373D01*
X116405359Y-77160000D01*
X116387963Y-77336627D01*
X116353616Y-77449853D01*
X116336443Y-77506467D01*
X116273031Y-77625100D01*
X116252778Y-77662991D01*
X116223448Y-77698729D01*
X116140186Y-77800186D01*
X116038729Y-77883448D01*
X116002991Y-77912778D01*
X116002989Y-77912779D01*
X115846467Y-77996443D01*
X115789853Y-78013616D01*
X115676627Y-78047963D01*
X115610443Y-78054481D01*
X115544260Y-78061000D01*
X115455740Y-78061000D01*
X115389557Y-78054481D01*
X115323373Y-78047963D01*
X115210147Y-78013616D01*
X115153533Y-77996443D01*
X114997011Y-77912779D01*
X114997009Y-77912778D01*
X114961271Y-77883448D01*
X114859814Y-77800186D01*
X114776552Y-77698729D01*
X114747222Y-77662991D01*
X114726969Y-77625100D01*
X114663557Y-77506467D01*
X114646384Y-77449853D01*
X114612037Y-77336627D01*
X114594641Y-77160000D01*
X114612037Y-76983373D01*
X114651009Y-76854898D01*
X114663557Y-76813533D01*
X114747221Y-76657011D01*
X114747222Y-76657009D01*
X114803048Y-76588985D01*
X114859814Y-76519814D01*
X114972910Y-76427000D01*
X114997009Y-76407222D01*
X115014913Y-76397652D01*
X115153533Y-76323557D01*
X115210147Y-76306384D01*
X115323373Y-76272037D01*
X115389557Y-76265519D01*
X115455740Y-76259000D01*
X115544260Y-76259000D01*
X115610443Y-76265519D01*
X115610443Y-76265519D01*
G37*
G36*
X122617142Y-76458242D02*
X122765102Y-76519530D01*
X122832130Y-76564317D01*
X122869051Y-76588986D01*
X122898258Y-76608502D01*
X123011498Y-76721742D01*
X123100470Y-76854898D01*
X123161758Y-77002858D01*
X123193000Y-77159925D01*
X123193000Y-77320075D01*
X123161758Y-77477142D01*
X123100470Y-77625102D01*
X123011498Y-77758258D01*
X122898258Y-77871498D01*
X122765102Y-77960470D01*
X122617142Y-78021758D01*
X122460075Y-78053000D01*
X122299925Y-78053000D01*
X122142858Y-78021758D01*
X121994898Y-77960470D01*
X121861742Y-77871498D01*
X121748502Y-77758258D01*
X121659530Y-77625102D01*
X121598242Y-77477142D01*
X121567000Y-77320075D01*
X121567000Y-77159925D01*
X121598242Y-77002858D01*
X121659530Y-76854898D01*
X121748502Y-76721742D01*
X121861742Y-76608502D01*
X121890950Y-76588986D01*
X121927870Y-76564317D01*
X121994898Y-76519530D01*
X122142858Y-76458242D01*
X122299925Y-76427000D01*
X122460075Y-76427000D01*
X122617142Y-76458242D01*
X122617142Y-76458242D01*
G37*
G36*
X137857142Y-76458242D02*
X138005102Y-76519530D01*
X138072130Y-76564317D01*
X138109051Y-76588986D01*
X138138258Y-76608502D01*
X138251498Y-76721742D01*
X138340470Y-76854898D01*
X138401758Y-77002858D01*
X138433000Y-77159925D01*
X138433000Y-77320075D01*
X138401758Y-77477142D01*
X138340470Y-77625102D01*
X138251498Y-77758258D01*
X138138258Y-77871498D01*
X138005102Y-77960470D01*
X137857142Y-78021758D01*
X137700075Y-78053000D01*
X137539925Y-78053000D01*
X137382858Y-78021758D01*
X137234898Y-77960470D01*
X137101742Y-77871498D01*
X136988502Y-77758258D01*
X136899530Y-77625102D01*
X136838242Y-77477142D01*
X136807000Y-77320075D01*
X136807000Y-77159925D01*
X136838242Y-77002858D01*
X136899530Y-76854898D01*
X136988502Y-76721742D01*
X137101742Y-76608502D01*
X137130950Y-76588986D01*
X137167870Y-76564317D01*
X137234898Y-76519530D01*
X137382858Y-76458242D01*
X137539925Y-76427000D01*
X137700075Y-76427000D01*
X137857142Y-76458242D01*
X137857142Y-76458242D01*
G37*
G36*
X115610443Y-73725519D02*
X115676627Y-73732037D01*
X115789853Y-73766384D01*
X115846467Y-73783557D01*
X115985087Y-73857652D01*
X116002991Y-73867222D01*
X116027090Y-73887000D01*
X116140186Y-73979814D01*
X116212968Y-74068501D01*
X116252778Y-74117009D01*
X116252779Y-74117011D01*
X116336443Y-74273533D01*
X116336443Y-74273534D01*
X116387963Y-74443373D01*
X116405359Y-74620000D01*
X116387963Y-74796627D01*
X116353616Y-74909853D01*
X116336443Y-74966467D01*
X116273031Y-75085100D01*
X116252778Y-75122991D01*
X116223448Y-75158729D01*
X116140186Y-75260186D01*
X116038729Y-75343448D01*
X116002991Y-75372778D01*
X116002989Y-75372779D01*
X115846467Y-75456443D01*
X115789853Y-75473616D01*
X115676627Y-75507963D01*
X115610442Y-75514482D01*
X115544260Y-75521000D01*
X115455740Y-75521000D01*
X115389558Y-75514482D01*
X115323373Y-75507963D01*
X115210147Y-75473616D01*
X115153533Y-75456443D01*
X114997011Y-75372779D01*
X114997009Y-75372778D01*
X114961271Y-75343448D01*
X114859814Y-75260186D01*
X114776552Y-75158729D01*
X114747222Y-75122991D01*
X114726969Y-75085100D01*
X114663557Y-74966467D01*
X114646384Y-74909853D01*
X114612037Y-74796627D01*
X114594641Y-74620000D01*
X114612037Y-74443373D01*
X114663557Y-74273534D01*
X114663557Y-74273533D01*
X114747221Y-74117011D01*
X114747222Y-74117009D01*
X114787032Y-74068501D01*
X114859814Y-73979814D01*
X114972910Y-73887000D01*
X114997009Y-73867222D01*
X115014913Y-73857652D01*
X115153533Y-73783557D01*
X115210147Y-73766384D01*
X115323373Y-73732037D01*
X115389557Y-73725519D01*
X115455740Y-73719000D01*
X115544260Y-73719000D01*
X115610443Y-73725519D01*
X115610443Y-73725519D01*
G37*
G36*
X122617142Y-73918242D02*
X122765102Y-73979530D01*
X122898258Y-74068502D01*
X123011498Y-74181742D01*
X123100470Y-74314898D01*
X123161758Y-74462858D01*
X123193000Y-74619925D01*
X123193000Y-74780075D01*
X123161758Y-74937142D01*
X123100470Y-75085102D01*
X123011498Y-75218258D01*
X122898258Y-75331498D01*
X122765102Y-75420470D01*
X122617142Y-75481758D01*
X122460075Y-75513000D01*
X122299925Y-75513000D01*
X122142858Y-75481758D01*
X121994898Y-75420470D01*
X121861742Y-75331498D01*
X121748502Y-75218258D01*
X121659530Y-75085102D01*
X121598242Y-74937142D01*
X121567000Y-74780075D01*
X121567000Y-74619925D01*
X121598242Y-74462858D01*
X121659530Y-74314898D01*
X121748502Y-74181742D01*
X121861742Y-74068502D01*
X121994898Y-73979530D01*
X122142858Y-73918242D01*
X122299925Y-73887000D01*
X122460075Y-73887000D01*
X122617142Y-73918242D01*
X122617142Y-73918242D01*
G37*
G36*
X137857142Y-73918242D02*
X138005102Y-73979530D01*
X138138258Y-74068502D01*
X138251498Y-74181742D01*
X138340470Y-74314898D01*
X138401758Y-74462858D01*
X138433000Y-74619925D01*
X138433000Y-74780075D01*
X138401758Y-74937142D01*
X138340470Y-75085102D01*
X138251498Y-75218258D01*
X138138258Y-75331498D01*
X138005102Y-75420470D01*
X137857142Y-75481758D01*
X137700075Y-75513000D01*
X137539925Y-75513000D01*
X137382858Y-75481758D01*
X137234898Y-75420470D01*
X137101742Y-75331498D01*
X136988502Y-75218258D01*
X136899530Y-75085102D01*
X136838242Y-74937142D01*
X136807000Y-74780075D01*
X136807000Y-74619925D01*
X136838242Y-74462858D01*
X136899530Y-74314898D01*
X136988502Y-74181742D01*
X137101742Y-74068502D01*
X137234898Y-73979530D01*
X137382858Y-73918242D01*
X137539925Y-73887000D01*
X137700075Y-73887000D01*
X137857142Y-73918242D01*
X137857142Y-73918242D01*
G37*
G36*
X115610442Y-71185518D02*
X115676627Y-71192037D01*
X115789853Y-71226384D01*
X115846467Y-71243557D01*
X115985087Y-71317652D01*
X116002991Y-71327222D01*
X116027090Y-71347000D01*
X116140186Y-71439814D01*
X116212968Y-71528501D01*
X116252778Y-71577009D01*
X116252779Y-71577011D01*
X116336443Y-71733533D01*
X116336443Y-71733534D01*
X116387963Y-71903373D01*
X116405359Y-72080000D01*
X116387963Y-72256627D01*
X116353616Y-72369853D01*
X116336443Y-72426467D01*
X116273031Y-72545100D01*
X116252778Y-72582991D01*
X116223448Y-72618729D01*
X116140186Y-72720186D01*
X116038729Y-72803448D01*
X116002991Y-72832778D01*
X116002989Y-72832779D01*
X115846467Y-72916443D01*
X115789853Y-72933616D01*
X115676627Y-72967963D01*
X115610443Y-72974481D01*
X115544260Y-72981000D01*
X115455740Y-72981000D01*
X115389557Y-72974481D01*
X115323373Y-72967963D01*
X115210147Y-72933616D01*
X115153533Y-72916443D01*
X114997011Y-72832779D01*
X114997009Y-72832778D01*
X114961271Y-72803448D01*
X114859814Y-72720186D01*
X114776552Y-72618729D01*
X114747222Y-72582991D01*
X114726969Y-72545100D01*
X114663557Y-72426467D01*
X114646384Y-72369853D01*
X114612037Y-72256627D01*
X114594641Y-72080000D01*
X114612037Y-71903373D01*
X114663557Y-71733534D01*
X114663557Y-71733533D01*
X114747221Y-71577011D01*
X114747222Y-71577009D01*
X114787032Y-71528501D01*
X114859814Y-71439814D01*
X114972910Y-71347000D01*
X114997009Y-71327222D01*
X115014913Y-71317652D01*
X115153533Y-71243557D01*
X115210147Y-71226384D01*
X115323373Y-71192037D01*
X115389558Y-71185518D01*
X115455740Y-71179000D01*
X115544260Y-71179000D01*
X115610442Y-71185518D01*
X115610442Y-71185518D01*
G37*
G36*
X137857142Y-71378242D02*
X138005102Y-71439530D01*
X138138258Y-71528502D01*
X138251498Y-71641742D01*
X138340470Y-71774898D01*
X138401758Y-71922858D01*
X138433000Y-72079925D01*
X138433000Y-72240075D01*
X138401758Y-72397142D01*
X138340470Y-72545102D01*
X138251498Y-72678258D01*
X138138258Y-72791498D01*
X138005102Y-72880470D01*
X137857142Y-72941758D01*
X137700075Y-72973000D01*
X137539925Y-72973000D01*
X137382858Y-72941758D01*
X137234898Y-72880470D01*
X137101742Y-72791498D01*
X136988502Y-72678258D01*
X136899530Y-72545102D01*
X136838242Y-72397142D01*
X136807000Y-72240075D01*
X136807000Y-72079925D01*
X136838242Y-71922858D01*
X136899530Y-71774898D01*
X136988502Y-71641742D01*
X137101742Y-71528502D01*
X137234898Y-71439530D01*
X137382858Y-71378242D01*
X137539925Y-71347000D01*
X137700075Y-71347000D01*
X137857142Y-71378242D01*
X137857142Y-71378242D01*
G37*
G36*
X122617142Y-71378242D02*
X122765102Y-71439530D01*
X122898258Y-71528502D01*
X123011498Y-71641742D01*
X123100470Y-71774898D01*
X123161758Y-71922858D01*
X123193000Y-72079925D01*
X123193000Y-72240075D01*
X123161758Y-72397142D01*
X123100470Y-72545102D01*
X123011498Y-72678258D01*
X122898258Y-72791498D01*
X122765102Y-72880470D01*
X122617142Y-72941758D01*
X122460075Y-72973000D01*
X122299925Y-72973000D01*
X122142858Y-72941758D01*
X121994898Y-72880470D01*
X121861742Y-72791498D01*
X121748502Y-72678258D01*
X121659530Y-72545102D01*
X121598242Y-72397142D01*
X121567000Y-72240075D01*
X121567000Y-72079925D01*
X121598242Y-71922858D01*
X121659530Y-71774898D01*
X121748502Y-71641742D01*
X121861742Y-71528502D01*
X121994898Y-71439530D01*
X122142858Y-71378242D01*
X122299925Y-71347000D01*
X122460075Y-71347000D01*
X122617142Y-71378242D01*
X122617142Y-71378242D01*
G37*
G36*
X144666821Y-68791313D02*
X144666824Y-68791314D01*
X144666825Y-68791314D01*
X144827239Y-68839975D01*
X144827241Y-68839976D01*
X144827244Y-68839977D01*
X144975078Y-68918995D01*
X145104659Y-69025341D01*
X145211005Y-69154922D01*
X145290023Y-69302756D01*
X145290024Y-69302759D01*
X145290025Y-69302761D01*
X145314322Y-69382858D01*
X145338687Y-69463179D01*
X145355117Y-69630000D01*
X145338687Y-69796821D01*
X145338686Y-69796824D01*
X145338686Y-69796825D01*
X145311494Y-69886466D01*
X145290023Y-69957244D01*
X145211005Y-70105078D01*
X145104659Y-70234659D01*
X144975078Y-70341005D01*
X144827244Y-70420023D01*
X144827241Y-70420024D01*
X144827239Y-70420025D01*
X144666825Y-70468686D01*
X144666824Y-70468686D01*
X144666821Y-70468687D01*
X144541804Y-70481000D01*
X144458196Y-70481000D01*
X144333179Y-70468687D01*
X144333176Y-70468686D01*
X144333175Y-70468686D01*
X144172761Y-70420025D01*
X144172759Y-70420024D01*
X144172756Y-70420023D01*
X144024922Y-70341005D01*
X143895341Y-70234659D01*
X143788995Y-70105078D01*
X143709977Y-69957244D01*
X143688507Y-69886466D01*
X143661314Y-69796825D01*
X143661314Y-69796824D01*
X143661313Y-69796821D01*
X143644883Y-69630000D01*
X143661313Y-69463179D01*
X143685678Y-69382858D01*
X143709975Y-69302761D01*
X143709976Y-69302759D01*
X143709977Y-69302756D01*
X143788995Y-69154922D01*
X143895341Y-69025341D01*
X144024922Y-68918995D01*
X144172756Y-68839977D01*
X144172759Y-68839976D01*
X144172761Y-68839975D01*
X144333175Y-68791314D01*
X144333176Y-68791314D01*
X144333179Y-68791313D01*
X144458196Y-68779000D01*
X144541804Y-68779000D01*
X144666821Y-68791313D01*
X144666821Y-68791313D01*
G37*
G36*
X115610442Y-68645518D02*
X115676627Y-68652037D01*
X115789853Y-68686384D01*
X115846467Y-68703557D01*
X115985087Y-68777652D01*
X116002991Y-68787222D01*
X116027090Y-68807000D01*
X116140186Y-68899814D01*
X116212968Y-68988501D01*
X116252778Y-69037009D01*
X116252779Y-69037011D01*
X116336443Y-69193533D01*
X116336443Y-69193534D01*
X116387963Y-69363373D01*
X116405359Y-69540000D01*
X116387963Y-69716627D01*
X116363636Y-69796821D01*
X116336443Y-69886467D01*
X116298614Y-69957239D01*
X116252778Y-70042991D01*
X116223448Y-70078729D01*
X116140186Y-70180186D01*
X116038729Y-70263448D01*
X116002991Y-70292778D01*
X116002989Y-70292779D01*
X115846467Y-70376443D01*
X115789853Y-70393616D01*
X115676627Y-70427963D01*
X115610443Y-70434481D01*
X115544260Y-70441000D01*
X115455740Y-70441000D01*
X115389557Y-70434481D01*
X115323373Y-70427963D01*
X115210147Y-70393616D01*
X115153533Y-70376443D01*
X114997011Y-70292779D01*
X114997009Y-70292778D01*
X114961271Y-70263448D01*
X114859814Y-70180186D01*
X114776552Y-70078729D01*
X114747222Y-70042991D01*
X114701386Y-69957239D01*
X114663557Y-69886467D01*
X114636364Y-69796821D01*
X114612037Y-69716627D01*
X114594641Y-69540000D01*
X114612037Y-69363373D01*
X114663557Y-69193534D01*
X114663557Y-69193533D01*
X114747221Y-69037011D01*
X114747222Y-69037009D01*
X114787032Y-68988501D01*
X114859814Y-68899814D01*
X114972910Y-68807000D01*
X114997009Y-68787222D01*
X115014913Y-68777652D01*
X115153533Y-68703557D01*
X115210147Y-68686384D01*
X115323373Y-68652037D01*
X115389558Y-68645518D01*
X115455740Y-68639000D01*
X115544260Y-68639000D01*
X115610442Y-68645518D01*
X115610442Y-68645518D01*
G37*
G36*
X122617142Y-68838242D02*
X122765102Y-68899530D01*
X122898258Y-68988502D01*
X123011498Y-69101742D01*
X123100470Y-69234898D01*
X123161758Y-69382858D01*
X123193000Y-69539925D01*
X123193000Y-69700075D01*
X123161758Y-69857142D01*
X123100470Y-70005102D01*
X123011498Y-70138258D01*
X122898258Y-70251498D01*
X122765102Y-70340470D01*
X122765101Y-70340471D01*
X122765100Y-70340471D01*
X122731583Y-70354354D01*
X122617142Y-70401758D01*
X122460075Y-70433000D01*
X122299925Y-70433000D01*
X122142858Y-70401758D01*
X122028417Y-70354354D01*
X121994900Y-70340471D01*
X121994899Y-70340471D01*
X121994898Y-70340470D01*
X121861742Y-70251498D01*
X121748502Y-70138258D01*
X121659530Y-70005102D01*
X121598242Y-69857142D01*
X121567000Y-69700075D01*
X121567000Y-69539925D01*
X121598242Y-69382858D01*
X121659530Y-69234898D01*
X121748502Y-69101742D01*
X121861742Y-68988502D01*
X121994898Y-68899530D01*
X122142858Y-68838242D01*
X122299925Y-68807000D01*
X122460075Y-68807000D01*
X122617142Y-68838242D01*
X122617142Y-68838242D01*
G37*
G36*
X137857142Y-68838242D02*
X138005102Y-68899530D01*
X138138258Y-68988502D01*
X138251498Y-69101742D01*
X138340470Y-69234898D01*
X138401758Y-69382858D01*
X138433000Y-69539925D01*
X138433000Y-69700075D01*
X138401758Y-69857142D01*
X138340470Y-70005102D01*
X138251498Y-70138258D01*
X138138258Y-70251498D01*
X138005102Y-70340470D01*
X138005101Y-70340471D01*
X138005100Y-70340471D01*
X137971583Y-70354354D01*
X137857142Y-70401758D01*
X137700075Y-70433000D01*
X137539925Y-70433000D01*
X137382858Y-70401758D01*
X137268417Y-70354354D01*
X137234900Y-70340471D01*
X137234899Y-70340471D01*
X137234898Y-70340470D01*
X137101742Y-70251498D01*
X136988502Y-70138258D01*
X136899530Y-70005102D01*
X136838242Y-69857142D01*
X136807000Y-69700075D01*
X136807000Y-69539925D01*
X136838242Y-69382858D01*
X136899530Y-69234898D01*
X136988502Y-69101742D01*
X137101742Y-68988502D01*
X137234898Y-68899530D01*
X137382858Y-68838242D01*
X137539925Y-68807000D01*
X137700075Y-68807000D01*
X137857142Y-68838242D01*
X137857142Y-68838242D01*
G37*
G36*
X108375256Y-65391298D02*
X108481579Y-65412447D01*
X108782042Y-65536903D01*
X109048852Y-65715180D01*
X109052454Y-65717587D01*
X109282413Y-65947546D01*
X109282415Y-65947549D01*
X109463097Y-66217958D01*
X109558592Y-66448502D01*
X109587553Y-66518422D01*
X109622657Y-66694898D01*
X109651000Y-66837391D01*
X109651000Y-67162609D01*
X109587553Y-67481579D01*
X109463097Y-67782042D01*
X109284820Y-68048852D01*
X109282413Y-68052454D01*
X109052454Y-68282413D01*
X109052451Y-68282415D01*
X108782042Y-68463097D01*
X108481579Y-68587553D01*
X108375256Y-68608702D01*
X108162611Y-68651000D01*
X107837389Y-68651000D01*
X107624744Y-68608702D01*
X107518421Y-68587553D01*
X107217958Y-68463097D01*
X106947549Y-68282415D01*
X106947546Y-68282413D01*
X106717587Y-68052454D01*
X106715180Y-68048852D01*
X106536903Y-67782042D01*
X106412447Y-67481579D01*
X106349000Y-67162609D01*
X106349000Y-66837391D01*
X106377344Y-66694898D01*
X106412447Y-66518422D01*
X106441409Y-66448502D01*
X106536903Y-66217958D01*
X106717585Y-65947549D01*
X106717587Y-65947546D01*
X106947546Y-65717587D01*
X106951148Y-65715180D01*
X107217958Y-65536903D01*
X107518421Y-65412447D01*
X107624744Y-65391298D01*
X107837389Y-65349000D01*
X108162611Y-65349000D01*
X108375256Y-65391298D01*
X108375256Y-65391298D01*
G37*
G36*
X152375256Y-65391298D02*
X152481579Y-65412447D01*
X152782042Y-65536903D01*
X153048852Y-65715180D01*
X153052454Y-65717587D01*
X153282413Y-65947546D01*
X153282415Y-65947549D01*
X153463097Y-66217958D01*
X153558592Y-66448502D01*
X153587553Y-66518422D01*
X153622657Y-66694898D01*
X153651000Y-66837391D01*
X153651000Y-67162609D01*
X153587553Y-67481579D01*
X153463097Y-67782042D01*
X153284820Y-68048852D01*
X153282413Y-68052454D01*
X153052454Y-68282413D01*
X153052451Y-68282415D01*
X152782042Y-68463097D01*
X152481579Y-68587553D01*
X152375256Y-68608702D01*
X152162611Y-68651000D01*
X151837389Y-68651000D01*
X151624744Y-68608702D01*
X151518421Y-68587553D01*
X151217958Y-68463097D01*
X150947549Y-68282415D01*
X150947546Y-68282413D01*
X150717587Y-68052454D01*
X150715180Y-68048852D01*
X150536903Y-67782042D01*
X150412447Y-67481579D01*
X150349000Y-67162609D01*
X150349000Y-66837391D01*
X150377344Y-66694898D01*
X150412447Y-66518422D01*
X150441409Y-66448502D01*
X150536903Y-66217958D01*
X150717585Y-65947549D01*
X150717587Y-65947546D01*
X150947546Y-65717587D01*
X150951148Y-65715180D01*
X151217958Y-65536903D01*
X151518421Y-65412447D01*
X151624744Y-65391298D01*
X151837389Y-65349000D01*
X152162611Y-65349000D01*
X152375256Y-65391298D01*
X152375256Y-65391298D01*
G37*
G36*
X116401000Y-67901000D02*
X114599000Y-67901000D01*
X114599000Y-66099000D01*
X116401000Y-66099000D01*
X116401000Y-67901000D01*
X116401000Y-67901000D01*
G37*
G36*
X137857142Y-66298242D02*
X138005102Y-66359530D01*
X138138258Y-66448502D01*
X138251498Y-66561742D01*
X138340470Y-66694898D01*
X138401758Y-66842858D01*
X138433000Y-66999925D01*
X138433000Y-67160075D01*
X138401758Y-67317142D01*
X138340470Y-67465102D01*
X138251498Y-67598258D01*
X138138258Y-67711498D01*
X138005102Y-67800470D01*
X137857142Y-67861758D01*
X137700075Y-67893000D01*
X137539925Y-67893000D01*
X137382858Y-67861758D01*
X137234898Y-67800470D01*
X137101742Y-67711498D01*
X136988502Y-67598258D01*
X136899530Y-67465102D01*
X136838242Y-67317142D01*
X136807000Y-67160075D01*
X136807000Y-66999925D01*
X136838242Y-66842858D01*
X136899530Y-66694898D01*
X136988502Y-66561742D01*
X137101742Y-66448502D01*
X137234898Y-66359530D01*
X137382858Y-66298242D01*
X137539925Y-66267000D01*
X137700075Y-66267000D01*
X137857142Y-66298242D01*
X137857142Y-66298242D01*
G37*
G36*
X122617142Y-66298242D02*
X122765102Y-66359530D01*
X122898258Y-66448502D01*
X123011498Y-66561742D01*
X123100470Y-66694898D01*
X123161758Y-66842858D01*
X123193000Y-66999925D01*
X123193000Y-67160075D01*
X123161758Y-67317142D01*
X123100470Y-67465102D01*
X123011498Y-67598258D01*
X122898258Y-67711498D01*
X122765102Y-67800470D01*
X122617142Y-67861758D01*
X122460075Y-67893000D01*
X122299925Y-67893000D01*
X122142858Y-67861758D01*
X121994898Y-67800470D01*
X121861742Y-67711498D01*
X121748502Y-67598258D01*
X121659530Y-67465102D01*
X121598242Y-67317142D01*
X121567000Y-67160075D01*
X121567000Y-66999925D01*
X121598242Y-66842858D01*
X121659530Y-66694898D01*
X121748502Y-66561742D01*
X121861742Y-66448502D01*
X121994898Y-66359530D01*
X122142858Y-66298242D01*
X122299925Y-66267000D01*
X122460075Y-66267000D01*
X122617142Y-66298242D01*
X122617142Y-66298242D01*
G37*
G36*
X137857142Y-63758242D02*
X138005102Y-63819530D01*
X138138258Y-63908502D01*
X138251498Y-64021742D01*
X138340470Y-64154898D01*
X138401758Y-64302858D01*
X138433000Y-64459925D01*
X138433000Y-64620075D01*
X138401758Y-64777142D01*
X138340470Y-64925102D01*
X138251498Y-65058258D01*
X138138258Y-65171498D01*
X138005102Y-65260470D01*
X137857142Y-65321758D01*
X137700075Y-65353000D01*
X137539925Y-65353000D01*
X137382858Y-65321758D01*
X137234898Y-65260470D01*
X137101742Y-65171498D01*
X136988502Y-65058258D01*
X136899530Y-64925102D01*
X136838242Y-64777142D01*
X136807000Y-64620075D01*
X136807000Y-64459925D01*
X136838242Y-64302858D01*
X136899530Y-64154898D01*
X136988502Y-64021742D01*
X137101742Y-63908502D01*
X137234898Y-63819530D01*
X137382858Y-63758242D01*
X137539925Y-63727000D01*
X137700075Y-63727000D01*
X137857142Y-63758242D01*
X137857142Y-63758242D01*
G37*
G36*
X122617142Y-63758242D02*
X122765102Y-63819530D01*
X122898258Y-63908502D01*
X123011498Y-64021742D01*
X123100470Y-64154898D01*
X123161758Y-64302858D01*
X123193000Y-64459925D01*
X123193000Y-64620075D01*
X123161758Y-64777142D01*
X123100470Y-64925102D01*
X123011498Y-65058258D01*
X122898258Y-65171498D01*
X122765102Y-65260470D01*
X122617142Y-65321758D01*
X122460075Y-65353000D01*
X122299925Y-65353000D01*
X122142858Y-65321758D01*
X121994898Y-65260470D01*
X121861742Y-65171498D01*
X121748502Y-65058258D01*
X121659530Y-64925102D01*
X121598242Y-64777142D01*
X121567000Y-64620075D01*
X121567000Y-64459925D01*
X121598242Y-64302858D01*
X121659530Y-64154898D01*
X121748502Y-64021742D01*
X121861742Y-63908502D01*
X121994898Y-63819530D01*
X122142858Y-63758242D01*
X122299925Y-63727000D01*
X122460075Y-63727000D01*
X122617142Y-63758242D01*
X122617142Y-63758242D01*
G37*
M02*
