G04 #@! TF.GenerationSoftware,KiCad,Pcbnew,(5.0.2)-1*
G04 #@! TF.CreationDate,2023-10-22T23:37:33+09:00*
G04 #@! TF.ProjectId,Fountain,466f756e-7461-4696-9e2e-6b696361645f,rev?*
G04 #@! TF.SameCoordinates,Original*
G04 #@! TF.FileFunction,Copper,L1,Top*
G04 #@! TF.FilePolarity,Positive*
%FSLAX46Y46*%
G04 Gerber Fmt 4.6, Leading zero omitted, Abs format (unit mm)*
G04 Created by KiCad (PCBNEW (5.0.2)-1) date 2023/10/22 23:37:33*
%MOMM*%
%LPD*%
G01*
G04 APERTURE LIST*
G04 #@! TA.AperFunction,ComponentPad*
%ADD10C,1.800000*%
G04 #@! TD*
G04 #@! TA.AperFunction,ComponentPad*
%ADD11C,1.524000*%
G04 #@! TD*
G04 #@! TA.AperFunction,ComponentPad*
%ADD12R,2.000000X2.000000*%
G04 #@! TD*
G04 #@! TA.AperFunction,ComponentPad*
%ADD13C,2.000000*%
G04 #@! TD*
G04 #@! TA.AperFunction,ComponentPad*
%ADD14R,1.700000X1.700000*%
G04 #@! TD*
G04 #@! TA.AperFunction,ComponentPad*
%ADD15O,1.700000X1.700000*%
G04 #@! TD*
G04 #@! TA.AperFunction,ComponentPad*
%ADD16R,1.600000X1.600000*%
G04 #@! TD*
G04 #@! TA.AperFunction,ComponentPad*
%ADD17O,1.600000X1.600000*%
G04 #@! TD*
G04 #@! TA.AperFunction,ComponentPad*
%ADD18C,1.270000*%
G04 #@! TD*
G04 #@! TA.AperFunction,Conductor*
%ADD19C,0.100000*%
G04 #@! TD*
G04 #@! TA.AperFunction,ComponentPad*
%ADD20C,1.600000*%
G04 #@! TD*
G04 #@! TA.AperFunction,ViaPad*
%ADD21C,0.800000*%
G04 #@! TD*
G04 #@! TA.AperFunction,Conductor*
%ADD22C,0.500000*%
G04 #@! TD*
G04 #@! TA.AperFunction,Conductor*
%ADD23C,1.000000*%
G04 #@! TD*
G04 #@! TA.AperFunction,Conductor*
%ADD24C,0.254000*%
G04 #@! TD*
G04 #@! TA.AperFunction,Conductor*
%ADD25C,0.025400*%
G04 #@! TD*
G04 APERTURE END LIST*
D10*
G04 #@! TO.P,VOL2,3*
G04 #@! TO.N,Net-(VOL2-Pad3)*
X164250000Y-121919873D03*
G04 #@! TO.P,VOL2,2*
G04 #@! TO.N,Net-(VOL2-Pad2)*
X163000000Y-124084936D03*
G04 #@! TO.P,VOL2,1*
G04 #@! TO.N,Net-(VOL2-Pad1)*
X161750000Y-126250000D03*
G04 #@! TO.P,VOL2,6*
G04 #@! TO.N,3V3*
X162084936Y-120669873D03*
G04 #@! TO.P,VOL2,5*
G04 #@! TO.N,RV2*
X160834936Y-122834936D03*
G04 #@! TO.P,VOL2,4*
G04 #@! TO.N,GND*
X159584936Y-125000000D03*
G04 #@! TD*
D11*
G04 #@! TO.P,IC1,14*
G04 #@! TO.N,5V*
X137620000Y-64540000D03*
G04 #@! TO.P,IC1,13*
G04 #@! TO.N,GND*
X137620000Y-67080000D03*
G04 #@! TO.P,IC1,12*
G04 #@! TO.N,3V3*
X137620000Y-69620000D03*
G04 #@! TO.P,IC1,11*
G04 #@! TO.N,SDA_3V3*
X137620000Y-72160000D03*
G04 #@! TO.P,IC1,10*
G04 #@! TO.N,Net-(IC1-Pad10)*
X137620000Y-74700000D03*
G04 #@! TO.P,IC1,9*
G04 #@! TO.N,Net-(IC1-Pad9)*
X137620000Y-77240000D03*
G04 #@! TO.P,IC1,8*
G04 #@! TO.N,SCL_3V3*
X137620000Y-79780000D03*
G04 #@! TO.P,IC1,7*
G04 #@! TO.N,Net-(IC1-Pad7)*
X122380000Y-79780000D03*
G04 #@! TO.P,IC1,6*
G04 #@! TO.N,Net-(CN5-Pad6)*
X122380000Y-77240000D03*
G04 #@! TO.P,IC1,5*
G04 #@! TO.N,Net-(CN5-Pad5)*
X122380000Y-74700000D03*
G04 #@! TO.P,IC1,4*
G04 #@! TO.N,Net-(CN5-Pad4)*
X122380000Y-72160000D03*
G04 #@! TO.P,IC1,3*
G04 #@! TO.N,Net-(CN5-Pad3)*
X122380000Y-69620000D03*
G04 #@! TO.P,IC1,2*
G04 #@! TO.N,RV2*
X122380000Y-67080000D03*
G04 #@! TO.P,IC1,1*
G04 #@! TO.N,RV1*
X122380000Y-64540000D03*
G04 #@! TD*
D12*
G04 #@! TO.P,BZ1,1*
G04 #@! TO.N,Net-(BZ1-Pad1)*
X156040000Y-107790000D03*
D13*
G04 #@! TO.P,BZ1,2*
G04 #@! TO.N,GND*
X156040000Y-102790000D03*
G04 #@! TD*
D14*
G04 #@! TO.P,CN1,1*
G04 #@! TO.N,5V*
X125000000Y-92500000D03*
D15*
G04 #@! TO.P,CN1,2*
G04 #@! TO.N,SDA_5V*
X127540000Y-92500000D03*
G04 #@! TO.P,CN1,3*
G04 #@! TO.N,SCL_5V*
X130080000Y-92500000D03*
G04 #@! TO.P,CN1,4*
G04 #@! TO.N,Net-(CN1-Pad4)*
X132620000Y-92500000D03*
G04 #@! TO.P,CN1,5*
G04 #@! TO.N,GND*
X135160000Y-92500000D03*
G04 #@! TD*
D11*
G04 #@! TO.P,CN2,5*
G04 #@! TO.N,GND*
X135080000Y-107540000D03*
G04 #@! TO.P,CN2,4*
G04 #@! TO.N,Net-(CN2-Pad4)*
X132540000Y-107540000D03*
G04 #@! TO.P,CN2,3*
G04 #@! TO.N,SCL_5V*
X130000000Y-107540000D03*
G04 #@! TO.P,CN2,2*
G04 #@! TO.N,SDA_5V*
X127460000Y-107540000D03*
G04 #@! TO.P,CN2,1*
G04 #@! TO.N,5V*
X124920000Y-107540000D03*
G04 #@! TO.P,CN2,5*
G04 #@! TO.N,GND*
X135080000Y-102460000D03*
G04 #@! TO.P,CN2,4*
G04 #@! TO.N,Net-(CN2-Pad4)*
X132540000Y-102460000D03*
G04 #@! TO.P,CN2,3*
G04 #@! TO.N,SCL_5V*
X130000000Y-102460000D03*
G04 #@! TO.P,CN2,2*
G04 #@! TO.N,SDA_5V*
X127460000Y-102460000D03*
G04 #@! TO.P,CN2,1*
G04 #@! TO.N,5V*
X124920000Y-102460000D03*
G04 #@! TD*
D16*
G04 #@! TO.P,IC2,1*
G04 #@! TO.N,3V3*
X142500000Y-84750000D03*
D17*
G04 #@! TO.P,IC2,5*
G04 #@! TO.N,GND*
X150120000Y-92370000D03*
G04 #@! TO.P,IC2,2*
G04 #@! TO.N,SCL_3V3*
X142500000Y-87290000D03*
G04 #@! TO.P,IC2,6*
G04 #@! TO.N,SDA_5V*
X150120000Y-89830000D03*
G04 #@! TO.P,IC2,3*
G04 #@! TO.N,SDA_3V3*
X142500000Y-89830000D03*
G04 #@! TO.P,IC2,7*
G04 #@! TO.N,SCL_5V*
X150120000Y-87290000D03*
G04 #@! TO.P,IC2,4*
G04 #@! TO.N,Net-(IC2-Pad4)*
X142500000Y-92370000D03*
G04 #@! TO.P,IC2,8*
G04 #@! TO.N,5V*
X150120000Y-84750000D03*
G04 #@! TD*
D13*
G04 #@! TO.P,SW1,2*
G04 #@! TO.N,GND*
X118000000Y-146000000D03*
G04 #@! TO.P,SW1,1*
G04 #@! TO.N,Net-(IC1-Pad9)*
X118000000Y-141500000D03*
G04 #@! TO.P,SW1,2*
G04 #@! TO.N,GND*
X124500000Y-146000000D03*
G04 #@! TO.P,SW1,1*
G04 #@! TO.N,Net-(IC1-Pad9)*
X124500000Y-141500000D03*
G04 #@! TD*
G04 #@! TO.P,SW2,1*
G04 #@! TO.N,Net-(IC1-Pad10)*
X142000000Y-141500000D03*
G04 #@! TO.P,SW2,2*
G04 #@! TO.N,GND*
X142000000Y-146000000D03*
G04 #@! TO.P,SW2,1*
G04 #@! TO.N,Net-(IC1-Pad10)*
X135500000Y-141500000D03*
G04 #@! TO.P,SW2,2*
G04 #@! TO.N,GND*
X135500000Y-146000000D03*
G04 #@! TD*
D16*
G04 #@! TO.P,SW3,1*
G04 #@! TO.N,GND*
X101750000Y-108810000D03*
D17*
G04 #@! TO.P,SW3,5*
G04 #@! TO.N,Net-(CN5-Pad6)*
X109370000Y-101190000D03*
G04 #@! TO.P,SW3,2*
G04 #@! TO.N,GND*
X104290000Y-108810000D03*
G04 #@! TO.P,SW3,6*
G04 #@! TO.N,Net-(CN5-Pad5)*
X106830000Y-101190000D03*
G04 #@! TO.P,SW3,3*
G04 #@! TO.N,GND*
X106830000Y-108810000D03*
G04 #@! TO.P,SW3,7*
G04 #@! TO.N,Net-(CN5-Pad4)*
X104290000Y-101190000D03*
G04 #@! TO.P,SW3,4*
G04 #@! TO.N,GND*
X109370000Y-108810000D03*
G04 #@! TO.P,SW3,8*
G04 #@! TO.N,Net-(CN5-Pad3)*
X101750000Y-101190000D03*
G04 #@! TD*
D10*
G04 #@! TO.P,VOL1,4*
G04 #@! TO.N,GND*
X97915064Y-120750000D03*
G04 #@! TO.P,VOL1,5*
G04 #@! TO.N,RV1*
X99165064Y-122915064D03*
G04 #@! TO.P,VOL1,6*
G04 #@! TO.N,3V3*
X100415064Y-125080127D03*
G04 #@! TO.P,VOL1,1*
G04 #@! TO.N,Net-(VOL1-Pad1)*
X95750000Y-122000000D03*
G04 #@! TO.P,VOL1,2*
G04 #@! TO.N,Net-(VOL1-Pad2)*
X97000000Y-124165064D03*
G04 #@! TO.P,VOL1,3*
G04 #@! TO.N,Net-(VOL1-Pad3)*
X98250000Y-126330127D03*
G04 #@! TD*
D18*
G04 #@! TO.P,CN3,1*
G04 #@! TO.N,SCL_5V*
X98221515Y-90122911D03*
D19*
G04 #@! TD*
G04 #@! TO.N,SCL_5V*
G04 #@! TO.C,CN3*
G36*
X98453941Y-90990337D02*
X97354089Y-90355337D01*
X97989089Y-89255485D01*
X99088941Y-89890485D01*
X98453941Y-90990337D01*
X98453941Y-90990337D01*
G37*
D18*
G04 #@! TO.P,CN3,2*
G04 #@! TO.N,SDA_5V*
X99222171Y-88389484D03*
G04 #@! TO.P,CN3,3*
G04 #@! TO.N,5V*
X100220391Y-86660516D03*
G04 #@! TO.P,CN3,4*
G04 #@! TO.N,GND*
X101221151Y-84927149D03*
G04 #@! TD*
G04 #@! TO.P,CN4,4*
G04 #@! TO.N,GND*
X161753589Y-90122851D03*
G04 #@! TO.P,CN4,3*
G04 #@! TO.N,5V*
X160752829Y-88389484D03*
G04 #@! TO.P,CN4,2*
G04 #@! TO.N,SDA_5V*
X159754609Y-86660516D03*
G04 #@! TO.P,CN4,1*
G04 #@! TO.N,SCL_5V*
X158753745Y-84927209D03*
D19*
G04 #@! TD*
G04 #@! TO.N,SCL_5V*
G04 #@! TO.C,CN4*
G36*
X157886319Y-84694783D02*
X158986171Y-84059783D01*
X159621171Y-85159635D01*
X158521319Y-85794635D01*
X157886319Y-84694783D01*
X157886319Y-84694783D01*
G37*
D20*
G04 #@! TO.P,R1,1*
G04 #@! TO.N,Net-(IC1-Pad9)*
X144500000Y-77250000D03*
D17*
G04 #@! TO.P,R1,2*
G04 #@! TO.N,3V3*
X144500000Y-69630000D03*
G04 #@! TD*
D20*
G04 #@! TO.P,R2,1*
G04 #@! TO.N,Net-(IC1-Pad7)*
X145500000Y-101250000D03*
D17*
G04 #@! TO.P,R2,2*
G04 #@! TO.N,Net-(BZ1-Pad1)*
X145500000Y-108870000D03*
G04 #@! TD*
D16*
G04 #@! TO.P,C1,1*
G04 #@! TO.N,5V*
X112750000Y-91500000D03*
D20*
G04 #@! TO.P,C1,2*
G04 #@! TO.N,GND*
X115250000Y-91500000D03*
G04 #@! TD*
D14*
G04 #@! TO.P,CN5,1*
G04 #@! TO.N,GND*
X115500000Y-67000000D03*
D15*
G04 #@! TO.P,CN5,2*
G04 #@! TO.N,5V*
X115500000Y-69540000D03*
G04 #@! TO.P,CN5,3*
G04 #@! TO.N,Net-(CN5-Pad3)*
X115500000Y-72080000D03*
G04 #@! TO.P,CN5,4*
G04 #@! TO.N,Net-(CN5-Pad4)*
X115500000Y-74620000D03*
G04 #@! TO.P,CN5,5*
G04 #@! TO.N,Net-(CN5-Pad5)*
X115500000Y-77160000D03*
G04 #@! TO.P,CN5,6*
G04 #@! TO.N,Net-(CN5-Pad6)*
X115500000Y-79700000D03*
G04 #@! TD*
D21*
G04 #@! TO.N,GND*
X155000000Y-135000000D03*
X150000000Y-135000000D03*
X105616000Y-62836000D03*
X81232000Y-105000000D03*
X105616000Y-147164000D03*
X154384000Y-147164000D03*
X178768000Y-105000000D03*
X154384000Y-62836000D03*
X103330000Y-66900000D03*
X101250000Y-70500000D03*
X99000000Y-74400000D03*
X87800000Y-93600000D03*
X85800000Y-97250000D03*
X83518000Y-100936000D03*
X83518000Y-109064000D03*
X85750000Y-112750000D03*
X87750000Y-116250000D03*
X98758000Y-135226000D03*
X101044000Y-139036000D03*
X103330000Y-143100000D03*
X110188000Y-147164000D03*
X149812000Y-147164000D03*
X172672000Y-115668000D03*
X174704000Y-112112000D03*
X176736000Y-108556000D03*
X156670000Y-143100000D03*
X158956000Y-139036000D03*
X176736000Y-101444000D03*
X174704000Y-97888000D03*
X158956000Y-70456000D03*
X156670000Y-66646000D03*
X110696000Y-62836000D03*
X169624000Y-89252000D03*
X167592000Y-85696000D03*
X165560000Y-82140000D03*
X163274000Y-78330000D03*
X170386000Y-119478000D03*
X166250000Y-126500000D03*
X163750000Y-130750000D03*
X132032000Y-147164000D03*
X93750000Y-126750000D03*
X95964000Y-130654000D03*
X91750000Y-123250000D03*
X97000000Y-77800000D03*
X92400000Y-85800000D03*
X90000000Y-89800000D03*
X115268000Y-62836000D03*
X125428000Y-62836000D03*
X130000000Y-62836000D03*
X134826000Y-62836000D03*
X139906000Y-62836000D03*
X144478000Y-62836000D03*
X149304000Y-62836000D03*
X172250000Y-93750000D03*
X168250000Y-123000000D03*
X161250000Y-135000000D03*
X89750000Y-119750000D03*
X94600000Y-82000000D03*
X114252000Y-147164000D03*
X127968000Y-147164000D03*
X145240000Y-147164000D03*
X160988000Y-74012000D03*
X119750000Y-62836000D03*
X145000000Y-135000000D03*
X140000000Y-135000000D03*
X135000000Y-135000000D03*
X130000000Y-135000000D03*
X125000000Y-135000000D03*
X120000000Y-135000000D03*
X115000000Y-135000000D03*
X110000000Y-135000000D03*
X105000000Y-135000000D03*
X105000000Y-130000000D03*
X110000000Y-130000000D03*
X115000000Y-130000000D03*
X115000000Y-130000000D03*
X115000000Y-125000000D03*
X110000000Y-125000000D03*
X105000000Y-125000000D03*
X105000000Y-120000000D03*
X110000000Y-120000000D03*
X115000000Y-120000000D03*
X115000000Y-115000000D03*
X110000000Y-115000000D03*
X105000000Y-115000000D03*
X120000000Y-115000000D03*
X120000000Y-120000000D03*
X125000000Y-120000000D03*
X125000000Y-115000000D03*
X130000000Y-115000000D03*
X130000000Y-120000000D03*
X135000000Y-120000000D03*
X135000000Y-115000000D03*
X140000000Y-115000000D03*
X140000000Y-120000000D03*
X145000000Y-115000000D03*
X145000000Y-120000000D03*
X150000000Y-115000000D03*
X150000000Y-120000000D03*
X155000000Y-120000000D03*
X155000000Y-115000000D03*
X155000000Y-125000000D03*
X150000000Y-125000000D03*
X145000000Y-125000000D03*
X145000000Y-125000000D03*
X145000000Y-130000000D03*
X150000000Y-130000000D03*
X155000000Y-130000000D03*
X145000000Y-140000000D03*
X130000000Y-140000000D03*
X115000000Y-140000000D03*
X130000000Y-145000000D03*
X120000000Y-130000000D03*
X125000000Y-130000000D03*
X130000000Y-130000000D03*
X135000000Y-130000000D03*
X140000000Y-130000000D03*
X165000000Y-115000000D03*
X165000000Y-110000000D03*
X165000000Y-105000000D03*
X165000000Y-100000000D03*
X165000000Y-95000000D03*
X170000000Y-95000000D03*
X170000000Y-100000000D03*
X170000000Y-105000000D03*
X170000000Y-110000000D03*
X170000000Y-115000000D03*
X150000000Y-100000000D03*
X155000000Y-90000000D03*
X155000000Y-80000000D03*
X150000000Y-80000000D03*
X150000000Y-75000000D03*
X155000000Y-75000000D03*
X140000000Y-75000000D03*
X140000000Y-80000000D03*
X130000000Y-80000000D03*
X130000000Y-75000000D03*
X130000000Y-70000000D03*
X135000000Y-70000000D03*
X120000000Y-85000000D03*
X115000000Y-85000000D03*
X120000000Y-90000000D03*
X120000000Y-95000000D03*
X115000000Y-100000000D03*
X130000000Y-85000000D03*
X135000000Y-100000000D03*
X135000000Y-95000000D03*
X100000000Y-80000000D03*
X95000000Y-95000000D03*
X90000000Y-95000000D03*
X90000000Y-95000000D03*
X90000000Y-100000000D03*
X95000000Y-100000000D03*
X95000000Y-105000000D03*
X90000000Y-105000000D03*
X95000000Y-110000000D03*
X90000000Y-110000000D03*
X90000000Y-115000000D03*
X95000000Y-115000000D03*
X100000000Y-115000000D03*
X100000000Y-130000000D03*
X160000000Y-80000000D03*
X165000000Y-90000000D03*
X95000000Y-90000000D03*
X115000000Y-110000000D03*
X120000000Y-100000000D03*
X150000000Y-110000000D03*
X120000000Y-125000000D03*
X125000000Y-125000000D03*
X130000000Y-125000000D03*
X135000000Y-125000000D03*
X140000000Y-125000000D03*
X147500000Y-87000000D03*
X140500000Y-92500000D03*
X140500000Y-97000000D03*
X155000000Y-100000000D03*
X105000000Y-140000000D03*
X115000000Y-145000000D03*
X145000000Y-145000000D03*
X160000000Y-130000000D03*
X115000000Y-95000000D03*
X120000000Y-80000000D03*
X110000000Y-140000000D03*
X155000000Y-140000000D03*
X150000000Y-140000000D03*
X155000000Y-110000000D03*
X150000000Y-105000000D03*
X145000000Y-75000000D03*
G04 #@! TO.N,3V3*
X146256000Y-84680000D03*
X152000000Y-94500000D03*
X144224000Y-94500000D03*
X142192000Y-101444000D03*
X142192000Y-109064000D03*
G04 #@! TO.N,SDA_5V*
X147272000Y-89760000D03*
G04 #@! TO.N,SDA_3V3*
X135715000Y-81632000D03*
G04 #@! TO.N,Net-(IC1-Pad10)*
X138636000Y-110588000D03*
X138636000Y-101444000D03*
G04 #@! TO.N,Net-(IC1-Pad9)*
X143716000Y-109064000D03*
X143716000Y-101444000D03*
G04 #@! TO.N,Net-(IC1-Pad7)*
X132540000Y-81632000D03*
G04 #@! TO.N,RV2*
X121364000Y-109064000D03*
X121364000Y-100428000D03*
G04 #@! TO.N,RV1*
X123015000Y-107540000D03*
X123020000Y-100428000D03*
G04 #@! TD*
D22*
G04 #@! TO.N,GND*
X135160000Y-102380000D02*
X135080000Y-102460000D01*
D23*
G04 #@! TO.N,5V*
X124920000Y-107540000D02*
X124920000Y-102460000D01*
D22*
G04 #@! TO.N,3V3*
X144490000Y-69620000D02*
X144500000Y-69630000D01*
D23*
X137630000Y-69630000D02*
X137620000Y-69620000D01*
D22*
X146186000Y-84750000D02*
X146256000Y-84680000D01*
X142500000Y-84750000D02*
X146186000Y-84750000D01*
X152000000Y-94500000D02*
X144224000Y-94500000D01*
X142192000Y-101444000D02*
X142192000Y-109064000D01*
D23*
G04 #@! TO.N,SDA_5V*
X127460000Y-102460000D02*
X127460000Y-107540000D01*
D22*
X127540000Y-102380000D02*
X127460000Y-102460000D01*
X147342000Y-89830000D02*
X147272000Y-89760000D01*
X150120000Y-89830000D02*
X147342000Y-89830000D01*
D23*
G04 #@! TO.N,SCL_5V*
X130000000Y-102460000D02*
X130000000Y-107540000D01*
D22*
X130080000Y-102380000D02*
X130000000Y-102460000D01*
D23*
G04 #@! TO.N,Net-(CN2-Pad4)*
X132540000Y-102460000D02*
X132540000Y-107540000D01*
D22*
G04 #@! TO.N,SDA_3V3*
X137620000Y-72160000D02*
X136424000Y-72160000D01*
X135715000Y-72869000D02*
X135715000Y-81632000D01*
X136424000Y-72160000D02*
X135715000Y-72869000D01*
G04 #@! TO.N,Net-(IC1-Pad10)*
X138636000Y-101444000D02*
X138636000Y-110588000D01*
G04 #@! TO.N,Net-(IC1-Pad9)*
X144490000Y-77240000D02*
X144500000Y-77250000D01*
X143716000Y-101444000D02*
X143716000Y-109064000D01*
G04 #@! TO.N,Net-(IC1-Pad7)*
X124232000Y-81632000D02*
X124412000Y-81632000D01*
X122380000Y-79780000D02*
X124232000Y-81632000D01*
X124412000Y-81632000D02*
X132540000Y-81632000D01*
G04 #@! TO.N,RV2*
X121364000Y-102460000D02*
X121364000Y-109064000D01*
X121364000Y-102460000D02*
X121364000Y-100428000D01*
G04 #@! TO.N,RV1*
X123020000Y-102455000D02*
X123020000Y-107535000D01*
X123020000Y-107535000D02*
X123015000Y-107540000D01*
X123020000Y-102455000D02*
X123020000Y-100428000D01*
G04 #@! TD*
D24*
G04 #@! TO.N,GND*
G36*
X179180163Y-105000000D02*
X154590082Y-147591270D01*
X142459301Y-147591270D01*
X142874264Y-147419387D01*
X142972927Y-147152532D01*
X142000000Y-146179605D01*
X141027073Y-147152532D01*
X141125736Y-147419387D01*
X141588392Y-147591270D01*
X135959301Y-147591270D01*
X136374264Y-147419387D01*
X136472927Y-147152532D01*
X135500000Y-146179605D01*
X134527073Y-147152532D01*
X134625736Y-147419387D01*
X135088392Y-147591270D01*
X124959301Y-147591270D01*
X125374264Y-147419387D01*
X125472927Y-147152532D01*
X124500000Y-146179605D01*
X123527073Y-147152532D01*
X123625736Y-147419387D01*
X124088392Y-147591270D01*
X118459301Y-147591270D01*
X118874264Y-147419387D01*
X118972927Y-147152532D01*
X118000000Y-146179605D01*
X117027073Y-147152532D01*
X117125736Y-147419387D01*
X117588392Y-147591270D01*
X105409919Y-147591270D01*
X104338468Y-145735461D01*
X116354092Y-145735461D01*
X116378144Y-146385460D01*
X116580613Y-146874264D01*
X116847468Y-146972927D01*
X117820395Y-146000000D01*
X118179605Y-146000000D01*
X119152532Y-146972927D01*
X119419387Y-146874264D01*
X119645908Y-146264539D01*
X119626331Y-145735461D01*
X122854092Y-145735461D01*
X122878144Y-146385460D01*
X123080613Y-146874264D01*
X123347468Y-146972927D01*
X124320395Y-146000000D01*
X124679605Y-146000000D01*
X125652532Y-146972927D01*
X125919387Y-146874264D01*
X126145908Y-146264539D01*
X126126331Y-145735461D01*
X133854092Y-145735461D01*
X133878144Y-146385460D01*
X134080613Y-146874264D01*
X134347468Y-146972927D01*
X135320395Y-146000000D01*
X135679605Y-146000000D01*
X136652532Y-146972927D01*
X136919387Y-146874264D01*
X137145908Y-146264539D01*
X137126331Y-145735461D01*
X140354092Y-145735461D01*
X140378144Y-146385460D01*
X140580613Y-146874264D01*
X140847468Y-146972927D01*
X141820395Y-146000000D01*
X142179605Y-146000000D01*
X143152532Y-146972927D01*
X143419387Y-146874264D01*
X143645908Y-146264539D01*
X143621856Y-145614540D01*
X143419387Y-145125736D01*
X143152532Y-145027073D01*
X142179605Y-146000000D01*
X141820395Y-146000000D01*
X140847468Y-145027073D01*
X140580613Y-145125736D01*
X140354092Y-145735461D01*
X137126331Y-145735461D01*
X137121856Y-145614540D01*
X136919387Y-145125736D01*
X136652532Y-145027073D01*
X135679605Y-146000000D01*
X135320395Y-146000000D01*
X134347468Y-145027073D01*
X134080613Y-145125736D01*
X133854092Y-145735461D01*
X126126331Y-145735461D01*
X126121856Y-145614540D01*
X125919387Y-145125736D01*
X125652532Y-145027073D01*
X124679605Y-146000000D01*
X124320395Y-146000000D01*
X123347468Y-145027073D01*
X123080613Y-145125736D01*
X122854092Y-145735461D01*
X119626331Y-145735461D01*
X119621856Y-145614540D01*
X119419387Y-145125736D01*
X119152532Y-145027073D01*
X118179605Y-146000000D01*
X117820395Y-146000000D01*
X116847468Y-145027073D01*
X116580613Y-145125736D01*
X116354092Y-145735461D01*
X104338468Y-145735461D01*
X102502476Y-142555431D01*
X105765000Y-142555431D01*
X105765000Y-143444569D01*
X106105259Y-144266026D01*
X106733974Y-144894741D01*
X107555431Y-145235000D01*
X108444569Y-145235000D01*
X109266026Y-144894741D01*
X109313299Y-144847468D01*
X117027073Y-144847468D01*
X118000000Y-145820395D01*
X118972927Y-144847468D01*
X123527073Y-144847468D01*
X124500000Y-145820395D01*
X125472927Y-144847468D01*
X134527073Y-144847468D01*
X135500000Y-145820395D01*
X136472927Y-144847468D01*
X141027073Y-144847468D01*
X142000000Y-145820395D01*
X142972927Y-144847468D01*
X142874264Y-144580613D01*
X142264539Y-144354092D01*
X141614540Y-144378144D01*
X141125736Y-144580613D01*
X141027073Y-144847468D01*
X136472927Y-144847468D01*
X136374264Y-144580613D01*
X135764539Y-144354092D01*
X135114540Y-144378144D01*
X134625736Y-144580613D01*
X134527073Y-144847468D01*
X125472927Y-144847468D01*
X125374264Y-144580613D01*
X124764539Y-144354092D01*
X124114540Y-144378144D01*
X123625736Y-144580613D01*
X123527073Y-144847468D01*
X118972927Y-144847468D01*
X118874264Y-144580613D01*
X118264539Y-144354092D01*
X117614540Y-144378144D01*
X117125736Y-144580613D01*
X117027073Y-144847468D01*
X109313299Y-144847468D01*
X109894741Y-144266026D01*
X110235000Y-143444569D01*
X110235000Y-142555431D01*
X109894741Y-141733974D01*
X109335545Y-141174778D01*
X116365000Y-141174778D01*
X116365000Y-141825222D01*
X116613914Y-142426153D01*
X117073847Y-142886086D01*
X117674778Y-143135000D01*
X118325222Y-143135000D01*
X118926153Y-142886086D01*
X119386086Y-142426153D01*
X119635000Y-141825222D01*
X119635000Y-141174778D01*
X122865000Y-141174778D01*
X122865000Y-141825222D01*
X123113914Y-142426153D01*
X123573847Y-142886086D01*
X124174778Y-143135000D01*
X124825222Y-143135000D01*
X125426153Y-142886086D01*
X125886086Y-142426153D01*
X126135000Y-141825222D01*
X126135000Y-141174778D01*
X133865000Y-141174778D01*
X133865000Y-141825222D01*
X134113914Y-142426153D01*
X134573847Y-142886086D01*
X135174778Y-143135000D01*
X135825222Y-143135000D01*
X136426153Y-142886086D01*
X136886086Y-142426153D01*
X137135000Y-141825222D01*
X137135000Y-141174778D01*
X140365000Y-141174778D01*
X140365000Y-141825222D01*
X140613914Y-142426153D01*
X141073847Y-142886086D01*
X141674778Y-143135000D01*
X142325222Y-143135000D01*
X142926153Y-142886086D01*
X143256808Y-142555431D01*
X149765000Y-142555431D01*
X149765000Y-143444569D01*
X150105259Y-144266026D01*
X150733974Y-144894741D01*
X151555431Y-145235000D01*
X152444569Y-145235000D01*
X153266026Y-144894741D01*
X153894741Y-144266026D01*
X154235000Y-143444569D01*
X154235000Y-142555431D01*
X153894741Y-141733974D01*
X153266026Y-141105259D01*
X152444569Y-140765000D01*
X151555431Y-140765000D01*
X150733974Y-141105259D01*
X150105259Y-141733974D01*
X149765000Y-142555431D01*
X143256808Y-142555431D01*
X143386086Y-142426153D01*
X143635000Y-141825222D01*
X143635000Y-141174778D01*
X143386086Y-140573847D01*
X142926153Y-140113914D01*
X142325222Y-139865000D01*
X141674778Y-139865000D01*
X141073847Y-140113914D01*
X140613914Y-140573847D01*
X140365000Y-141174778D01*
X137135000Y-141174778D01*
X136886086Y-140573847D01*
X136426153Y-140113914D01*
X135825222Y-139865000D01*
X135174778Y-139865000D01*
X134573847Y-140113914D01*
X134113914Y-140573847D01*
X133865000Y-141174778D01*
X126135000Y-141174778D01*
X125886086Y-140573847D01*
X125426153Y-140113914D01*
X124825222Y-139865000D01*
X124174778Y-139865000D01*
X123573847Y-140113914D01*
X123113914Y-140573847D01*
X122865000Y-141174778D01*
X119635000Y-141174778D01*
X119386086Y-140573847D01*
X118926153Y-140113914D01*
X118325222Y-139865000D01*
X117674778Y-139865000D01*
X117073847Y-140113914D01*
X116613914Y-140573847D01*
X116365000Y-141174778D01*
X109335545Y-141174778D01*
X109266026Y-141105259D01*
X108444569Y-140765000D01*
X107555431Y-140765000D01*
X106733974Y-141105259D01*
X106105259Y-141733974D01*
X105765000Y-142555431D01*
X102502476Y-142555431D01*
X90458510Y-121694670D01*
X94215000Y-121694670D01*
X94215000Y-122305330D01*
X94448690Y-122869507D01*
X94880493Y-123301310D01*
X95444670Y-123535000D01*
X95599509Y-123535000D01*
X95465000Y-123859734D01*
X95465000Y-124470394D01*
X95698690Y-125034571D01*
X96130493Y-125466374D01*
X96694670Y-125700064D01*
X96849509Y-125700064D01*
X96715000Y-126024797D01*
X96715000Y-126635457D01*
X96948690Y-127199634D01*
X97380493Y-127631437D01*
X97944670Y-127865127D01*
X98555330Y-127865127D01*
X99119507Y-127631437D01*
X99551310Y-127199634D01*
X99785000Y-126635457D01*
X99785000Y-126480618D01*
X100109734Y-126615127D01*
X100720394Y-126615127D01*
X101284571Y-126381437D01*
X101716374Y-125949634D01*
X101798860Y-125750493D01*
X158211542Y-125750493D01*
X158603286Y-126218940D01*
X159144478Y-126501815D01*
X159621687Y-126564641D01*
X159824759Y-126385723D01*
X159495133Y-125155543D01*
X158264953Y-125485168D01*
X158211542Y-125750493D01*
X101798860Y-125750493D01*
X101950064Y-125385457D01*
X101950064Y-125036751D01*
X158020295Y-125036751D01*
X158199213Y-125239823D01*
X159429393Y-124910197D01*
X159099768Y-123680017D01*
X158834443Y-123626606D01*
X158365996Y-124018350D01*
X158083121Y-124559542D01*
X158020295Y-125036751D01*
X101950064Y-125036751D01*
X101950064Y-124774797D01*
X101716374Y-124210620D01*
X101284571Y-123778817D01*
X100720394Y-123545127D01*
X100565555Y-123545127D01*
X100700064Y-123220394D01*
X100700064Y-122609734D01*
X100666874Y-122529606D01*
X159299936Y-122529606D01*
X159299936Y-123140266D01*
X159455861Y-123516702D01*
X159345113Y-123614277D01*
X159650676Y-124754652D01*
X159599077Y-124806251D01*
X159778685Y-124985859D01*
X160009890Y-124754654D01*
X160904919Y-124514832D01*
X160934087Y-124369936D01*
X161140266Y-124369936D01*
X161465000Y-124235427D01*
X161465000Y-124390266D01*
X161599509Y-124715000D01*
X161444670Y-124715000D01*
X161068234Y-124870925D01*
X160970659Y-124760177D01*
X159830284Y-125065740D01*
X159778685Y-125014141D01*
X159599077Y-125193749D01*
X159830282Y-125424954D01*
X160070104Y-126319983D01*
X160215000Y-126349151D01*
X160215000Y-126555330D01*
X160448690Y-127119507D01*
X160880493Y-127551310D01*
X161444670Y-127785000D01*
X162055330Y-127785000D01*
X162619507Y-127551310D01*
X163051310Y-127119507D01*
X163285000Y-126555330D01*
X163285000Y-125944670D01*
X163150491Y-125619936D01*
X163305330Y-125619936D01*
X163869507Y-125386246D01*
X164301310Y-124954443D01*
X164535000Y-124390266D01*
X164535000Y-123779606D01*
X164400491Y-123454873D01*
X164555330Y-123454873D01*
X165119507Y-123221183D01*
X165551310Y-122789380D01*
X165785000Y-122225203D01*
X165785000Y-121614543D01*
X165551310Y-121050366D01*
X165119507Y-120618563D01*
X164555330Y-120384873D01*
X163944670Y-120384873D01*
X163619936Y-120519382D01*
X163619936Y-120364543D01*
X163386246Y-119800366D01*
X162954443Y-119368563D01*
X162390266Y-119134873D01*
X161779606Y-119134873D01*
X161215429Y-119368563D01*
X160783626Y-119800366D01*
X160549936Y-120364543D01*
X160549936Y-120975203D01*
X160684445Y-121299936D01*
X160529606Y-121299936D01*
X159965429Y-121533626D01*
X159533626Y-121965429D01*
X159299936Y-122529606D01*
X100666874Y-122529606D01*
X100466374Y-122045557D01*
X100034571Y-121613754D01*
X99470394Y-121380064D01*
X99264215Y-121380064D01*
X99235047Y-121235168D01*
X98340018Y-120995346D01*
X98108813Y-120764141D01*
X97929205Y-120943749D01*
X97980804Y-120995348D01*
X97675241Y-122135723D01*
X97785989Y-122233298D01*
X97630064Y-122609734D01*
X97630064Y-122764573D01*
X97305330Y-122630064D01*
X97150491Y-122630064D01*
X97285000Y-122305330D01*
X97285000Y-122099151D01*
X97429896Y-122069983D01*
X97669718Y-121174954D01*
X97900923Y-120943749D01*
X97721315Y-120764141D01*
X97669716Y-120815740D01*
X97089223Y-120660197D01*
X98070607Y-120660197D01*
X99300787Y-120989823D01*
X99479705Y-120786751D01*
X99374668Y-120185192D01*
X99047419Y-119669619D01*
X98665557Y-119376606D01*
X98400232Y-119430017D01*
X98070607Y-120660197D01*
X97089223Y-120660197D01*
X96529341Y-120510177D01*
X96431766Y-120620925D01*
X96055330Y-120465000D01*
X95444670Y-120465000D01*
X94880493Y-120698690D01*
X94448690Y-121130493D01*
X94215000Y-121694670D01*
X90458510Y-121694670D01*
X89479808Y-119999507D01*
X96541670Y-119999507D01*
X96595081Y-120264832D01*
X97825261Y-120594457D01*
X98154887Y-119364277D01*
X97951815Y-119185359D01*
X97350256Y-119290396D01*
X96834683Y-119617645D01*
X96541670Y-119999507D01*
X89479808Y-119999507D01*
X83184520Y-109095750D01*
X100315000Y-109095750D01*
X100315000Y-109736309D01*
X100411673Y-109969698D01*
X100590301Y-110148327D01*
X100823690Y-110245000D01*
X101464250Y-110245000D01*
X101623000Y-110086250D01*
X101623000Y-108937000D01*
X101877000Y-108937000D01*
X101877000Y-110086250D01*
X102035750Y-110245000D01*
X102676310Y-110245000D01*
X102909699Y-110148327D01*
X103088327Y-109969698D01*
X103185000Y-109736309D01*
X103185000Y-109708062D01*
X103552577Y-110041041D01*
X103940961Y-110201904D01*
X104163000Y-110079915D01*
X104163000Y-108937000D01*
X104417000Y-108937000D01*
X104417000Y-110079915D01*
X104639039Y-110201904D01*
X105027423Y-110041041D01*
X105442389Y-109665134D01*
X105560000Y-109416633D01*
X105677611Y-109665134D01*
X106092577Y-110041041D01*
X106480961Y-110201904D01*
X106703000Y-110079915D01*
X106703000Y-108937000D01*
X106957000Y-108937000D01*
X106957000Y-110079915D01*
X107179039Y-110201904D01*
X107567423Y-110041041D01*
X107982389Y-109665134D01*
X108100000Y-109416633D01*
X108217611Y-109665134D01*
X108632577Y-110041041D01*
X109020961Y-110201904D01*
X109243000Y-110079915D01*
X109243000Y-108937000D01*
X109497000Y-108937000D01*
X109497000Y-110079915D01*
X109719039Y-110201904D01*
X110107423Y-110041041D01*
X110522389Y-109665134D01*
X110761914Y-109159041D01*
X110640629Y-108937000D01*
X109497000Y-108937000D01*
X109243000Y-108937000D01*
X106957000Y-108937000D01*
X106703000Y-108937000D01*
X104417000Y-108937000D01*
X104163000Y-108937000D01*
X101877000Y-108937000D01*
X101623000Y-108937000D01*
X100473750Y-108937000D01*
X100315000Y-109095750D01*
X83184520Y-109095750D01*
X82484738Y-107883691D01*
X100315000Y-107883691D01*
X100315000Y-108524250D01*
X100473750Y-108683000D01*
X101623000Y-108683000D01*
X101623000Y-107533750D01*
X101877000Y-107533750D01*
X101877000Y-108683000D01*
X104163000Y-108683000D01*
X104163000Y-107540085D01*
X104417000Y-107540085D01*
X104417000Y-108683000D01*
X106703000Y-108683000D01*
X106703000Y-107540085D01*
X106957000Y-107540085D01*
X106957000Y-108683000D01*
X109243000Y-108683000D01*
X109243000Y-107540085D01*
X109497000Y-107540085D01*
X109497000Y-108683000D01*
X110640629Y-108683000D01*
X110761914Y-108460959D01*
X110522389Y-107954866D01*
X110107423Y-107578959D01*
X109719039Y-107418096D01*
X109497000Y-107540085D01*
X109243000Y-107540085D01*
X109020961Y-107418096D01*
X108632577Y-107578959D01*
X108217611Y-107954866D01*
X108100000Y-108203367D01*
X107982389Y-107954866D01*
X107567423Y-107578959D01*
X107179039Y-107418096D01*
X106957000Y-107540085D01*
X106703000Y-107540085D01*
X106480961Y-107418096D01*
X106092577Y-107578959D01*
X105677611Y-107954866D01*
X105560000Y-108203367D01*
X105442389Y-107954866D01*
X105027423Y-107578959D01*
X104639039Y-107418096D01*
X104417000Y-107540085D01*
X104163000Y-107540085D01*
X103940961Y-107418096D01*
X103552577Y-107578959D01*
X103185000Y-107911938D01*
X103185000Y-107883691D01*
X103088327Y-107650302D01*
X102909699Y-107471673D01*
X102676310Y-107375000D01*
X102035750Y-107375000D01*
X101877000Y-107533750D01*
X101623000Y-107533750D01*
X101464250Y-107375000D01*
X100823690Y-107375000D01*
X100590301Y-107471673D01*
X100411673Y-107650302D01*
X100315000Y-107883691D01*
X82484738Y-107883691D01*
X80819837Y-105000000D01*
X81076509Y-104555431D01*
X83765000Y-104555431D01*
X83765000Y-105444569D01*
X84105259Y-106266026D01*
X84733974Y-106894741D01*
X85555431Y-107235000D01*
X86444569Y-107235000D01*
X87266026Y-106894741D01*
X87894741Y-106266026D01*
X88235000Y-105444569D01*
X88235000Y-104555431D01*
X87894741Y-103733974D01*
X87266026Y-103105259D01*
X86444569Y-102765000D01*
X85555431Y-102765000D01*
X84733974Y-103105259D01*
X84105259Y-103733974D01*
X83765000Y-104555431D01*
X81076509Y-104555431D01*
X83019541Y-101190000D01*
X100286887Y-101190000D01*
X100398260Y-101749909D01*
X100715423Y-102224577D01*
X101190091Y-102541740D01*
X101608667Y-102625000D01*
X101891333Y-102625000D01*
X102309909Y-102541740D01*
X102784577Y-102224577D01*
X103020000Y-101872242D01*
X103255423Y-102224577D01*
X103730091Y-102541740D01*
X104148667Y-102625000D01*
X104431333Y-102625000D01*
X104849909Y-102541740D01*
X105324577Y-102224577D01*
X105560000Y-101872242D01*
X105795423Y-102224577D01*
X106270091Y-102541740D01*
X106688667Y-102625000D01*
X106971333Y-102625000D01*
X107389909Y-102541740D01*
X107864577Y-102224577D01*
X108100000Y-101872242D01*
X108335423Y-102224577D01*
X108810091Y-102541740D01*
X109228667Y-102625000D01*
X109511333Y-102625000D01*
X109929909Y-102541740D01*
X110404577Y-102224577D01*
X110721740Y-101749909D01*
X110833113Y-101190000D01*
X110721740Y-100630091D01*
X110449147Y-100222126D01*
X120329000Y-100222126D01*
X120329000Y-100633874D01*
X120479001Y-100996008D01*
X120479000Y-102372835D01*
X120479000Y-102372836D01*
X120479001Y-108495991D01*
X120329000Y-108858126D01*
X120329000Y-109269874D01*
X120486569Y-109650280D01*
X120777720Y-109941431D01*
X121158126Y-110099000D01*
X121569874Y-110099000D01*
X121950280Y-109941431D01*
X122241431Y-109650280D01*
X122399000Y-109269874D01*
X122399000Y-108858126D01*
X122249000Y-108495993D01*
X122249000Y-108237711D01*
X122428720Y-108417431D01*
X122809126Y-108575000D01*
X123220874Y-108575000D01*
X123601280Y-108417431D01*
X123721532Y-108297179D01*
X123735680Y-108331337D01*
X124128663Y-108724320D01*
X124642119Y-108937000D01*
X125197881Y-108937000D01*
X125711337Y-108724320D01*
X126104320Y-108331337D01*
X126190000Y-108124487D01*
X126275680Y-108331337D01*
X126668663Y-108724320D01*
X127182119Y-108937000D01*
X127737881Y-108937000D01*
X128251337Y-108724320D01*
X128644320Y-108331337D01*
X128730000Y-108124487D01*
X128815680Y-108331337D01*
X129208663Y-108724320D01*
X129722119Y-108937000D01*
X130277881Y-108937000D01*
X130791337Y-108724320D01*
X131184320Y-108331337D01*
X131270000Y-108124487D01*
X131355680Y-108331337D01*
X131748663Y-108724320D01*
X132262119Y-108937000D01*
X132817881Y-108937000D01*
X133331337Y-108724320D01*
X133535444Y-108520213D01*
X134279392Y-108520213D01*
X134348857Y-108762397D01*
X134872302Y-108949144D01*
X135427368Y-108921362D01*
X135811143Y-108762397D01*
X135880608Y-108520213D01*
X135080000Y-107719605D01*
X134279392Y-108520213D01*
X133535444Y-108520213D01*
X133724320Y-108331337D01*
X133803428Y-108140353D01*
X133857603Y-108271143D01*
X134099787Y-108340608D01*
X134900395Y-107540000D01*
X135259605Y-107540000D01*
X136060213Y-108340608D01*
X136302397Y-108271143D01*
X136489144Y-107747698D01*
X136461362Y-107192632D01*
X136302397Y-106808857D01*
X136060213Y-106739392D01*
X135259605Y-107540000D01*
X134900395Y-107540000D01*
X134099787Y-106739392D01*
X133857603Y-106808857D01*
X133807465Y-106949393D01*
X133724320Y-106748663D01*
X133676587Y-106700930D01*
X133676217Y-106686810D01*
X133675314Y-106622523D01*
X133675050Y-106559787D01*
X134279392Y-106559787D01*
X135080000Y-107360395D01*
X135880608Y-106559787D01*
X135811143Y-106317603D01*
X135287698Y-106130856D01*
X134732632Y-106158638D01*
X134348857Y-106317603D01*
X134279392Y-106559787D01*
X133675050Y-106559787D01*
X133675000Y-106548142D01*
X133675000Y-103451858D01*
X133675049Y-103440213D01*
X134279392Y-103440213D01*
X134348857Y-103682397D01*
X134872302Y-103869144D01*
X135427368Y-103841362D01*
X135811143Y-103682397D01*
X135880608Y-103440213D01*
X135080000Y-102639605D01*
X134279392Y-103440213D01*
X133675049Y-103440213D01*
X133675314Y-103377476D01*
X133676217Y-103313189D01*
X133676587Y-103299070D01*
X133724320Y-103251337D01*
X133803428Y-103060353D01*
X133857603Y-103191143D01*
X134099787Y-103260608D01*
X134900395Y-102460000D01*
X135259605Y-102460000D01*
X136060213Y-103260608D01*
X136302397Y-103191143D01*
X136489144Y-102667698D01*
X136461362Y-102112632D01*
X136302397Y-101728857D01*
X136060213Y-101659392D01*
X135259605Y-102460000D01*
X134900395Y-102460000D01*
X134099787Y-101659392D01*
X133857603Y-101728857D01*
X133807465Y-101869393D01*
X133724320Y-101668663D01*
X133535444Y-101479787D01*
X134279392Y-101479787D01*
X135080000Y-102280395D01*
X135880608Y-101479787D01*
X135811294Y-101238126D01*
X137601000Y-101238126D01*
X137601000Y-101649874D01*
X137751000Y-102012007D01*
X137751001Y-110019991D01*
X137601000Y-110382126D01*
X137601000Y-110793874D01*
X137758569Y-111174280D01*
X138049720Y-111465431D01*
X138430126Y-111623000D01*
X138841874Y-111623000D01*
X139222280Y-111465431D01*
X139513431Y-111174280D01*
X139671000Y-110793874D01*
X139671000Y-110382126D01*
X139521000Y-110019993D01*
X139521000Y-102012007D01*
X139671000Y-101649874D01*
X139671000Y-101238126D01*
X141157000Y-101238126D01*
X141157000Y-101649874D01*
X141307000Y-102012007D01*
X141307001Y-108495991D01*
X141157000Y-108858126D01*
X141157000Y-109269874D01*
X141314569Y-109650280D01*
X141605720Y-109941431D01*
X141986126Y-110099000D01*
X142397874Y-110099000D01*
X142778280Y-109941431D01*
X142954000Y-109765711D01*
X143129720Y-109941431D01*
X143510126Y-110099000D01*
X143921874Y-110099000D01*
X144302280Y-109941431D01*
X144414839Y-109828872D01*
X144465423Y-109904577D01*
X144940091Y-110221740D01*
X145358667Y-110305000D01*
X145641333Y-110305000D01*
X146059909Y-110221740D01*
X146534577Y-109904577D01*
X146851740Y-109429909D01*
X146963113Y-108870000D01*
X146851740Y-108310091D01*
X146534577Y-107835423D01*
X146059909Y-107518260D01*
X145641333Y-107435000D01*
X145358667Y-107435000D01*
X144940091Y-107518260D01*
X144601000Y-107744833D01*
X144601000Y-106790000D01*
X154392560Y-106790000D01*
X154392560Y-108790000D01*
X154441843Y-109037765D01*
X154582191Y-109247809D01*
X154792235Y-109388157D01*
X155040000Y-109437440D01*
X157040000Y-109437440D01*
X157287765Y-109388157D01*
X157497809Y-109247809D01*
X157638157Y-109037765D01*
X157687440Y-108790000D01*
X157687440Y-106790000D01*
X157638157Y-106542235D01*
X157497809Y-106332191D01*
X157287765Y-106191843D01*
X157040000Y-106142560D01*
X155040000Y-106142560D01*
X154792235Y-106191843D01*
X154582191Y-106332191D01*
X154441843Y-106542235D01*
X154392560Y-106790000D01*
X144601000Y-106790000D01*
X144601000Y-104555431D01*
X171765000Y-104555431D01*
X171765000Y-105444569D01*
X172105259Y-106266026D01*
X172733974Y-106894741D01*
X173555431Y-107235000D01*
X174444569Y-107235000D01*
X175266026Y-106894741D01*
X175894741Y-106266026D01*
X176235000Y-105444569D01*
X176235000Y-104555431D01*
X175894741Y-103733974D01*
X175266026Y-103105259D01*
X174444569Y-102765000D01*
X173555431Y-102765000D01*
X172733974Y-103105259D01*
X172105259Y-103733974D01*
X171765000Y-104555431D01*
X144601000Y-104555431D01*
X144601000Y-103942532D01*
X155067073Y-103942532D01*
X155165736Y-104209387D01*
X155775461Y-104435908D01*
X156425460Y-104411856D01*
X156914264Y-104209387D01*
X157012927Y-103942532D01*
X156040000Y-102969605D01*
X155067073Y-103942532D01*
X144601000Y-103942532D01*
X144601000Y-102380396D01*
X144687138Y-102466534D01*
X145214561Y-102685000D01*
X145785439Y-102685000D01*
X146170599Y-102525461D01*
X154394092Y-102525461D01*
X154418144Y-103175460D01*
X154620613Y-103664264D01*
X154887468Y-103762927D01*
X155860395Y-102790000D01*
X156219605Y-102790000D01*
X157192532Y-103762927D01*
X157459387Y-103664264D01*
X157685908Y-103054539D01*
X157661856Y-102404540D01*
X157459387Y-101915736D01*
X157192532Y-101817073D01*
X156219605Y-102790000D01*
X155860395Y-102790000D01*
X154887468Y-101817073D01*
X154620613Y-101915736D01*
X154394092Y-102525461D01*
X146170599Y-102525461D01*
X146312862Y-102466534D01*
X146716534Y-102062862D01*
X146892738Y-101637468D01*
X155067073Y-101637468D01*
X156040000Y-102610395D01*
X157012927Y-101637468D01*
X156914264Y-101370613D01*
X156304539Y-101144092D01*
X155654540Y-101168144D01*
X155165736Y-101370613D01*
X155067073Y-101637468D01*
X146892738Y-101637468D01*
X146935000Y-101535439D01*
X146935000Y-100964561D01*
X146716534Y-100437138D01*
X146312862Y-100033466D01*
X145785439Y-99815000D01*
X145214561Y-99815000D01*
X144687138Y-100033466D01*
X144283466Y-100437138D01*
X144240460Y-100540963D01*
X143921874Y-100409000D01*
X143510126Y-100409000D01*
X143129720Y-100566569D01*
X142954000Y-100742289D01*
X142778280Y-100566569D01*
X142397874Y-100409000D01*
X141986126Y-100409000D01*
X141605720Y-100566569D01*
X141314569Y-100857720D01*
X141157000Y-101238126D01*
X139671000Y-101238126D01*
X139513431Y-100857720D01*
X139222280Y-100566569D01*
X138841874Y-100409000D01*
X138430126Y-100409000D01*
X138049720Y-100566569D01*
X137758569Y-100857720D01*
X137601000Y-101238126D01*
X135811294Y-101238126D01*
X135811143Y-101237603D01*
X135287698Y-101050856D01*
X134732632Y-101078638D01*
X134348857Y-101237603D01*
X134279392Y-101479787D01*
X133535444Y-101479787D01*
X133331337Y-101275680D01*
X132817881Y-101063000D01*
X132262119Y-101063000D01*
X131748663Y-101275680D01*
X131355680Y-101668663D01*
X131270000Y-101875513D01*
X131184320Y-101668663D01*
X130791337Y-101275680D01*
X130277881Y-101063000D01*
X129722119Y-101063000D01*
X129208663Y-101275680D01*
X128815680Y-101668663D01*
X128730000Y-101875513D01*
X128644320Y-101668663D01*
X128251337Y-101275680D01*
X127737881Y-101063000D01*
X127182119Y-101063000D01*
X126668663Y-101275680D01*
X126275680Y-101668663D01*
X126190000Y-101875513D01*
X126104320Y-101668663D01*
X125711337Y-101275680D01*
X125197881Y-101063000D01*
X124642119Y-101063000D01*
X124128663Y-101275680D01*
X123905000Y-101499343D01*
X123905000Y-100996007D01*
X124055000Y-100633874D01*
X124055000Y-100222126D01*
X123897431Y-99841720D01*
X123606280Y-99550569D01*
X123225874Y-99393000D01*
X122814126Y-99393000D01*
X122433720Y-99550569D01*
X122192000Y-99792289D01*
X121950280Y-99550569D01*
X121569874Y-99393000D01*
X121158126Y-99393000D01*
X120777720Y-99550569D01*
X120486569Y-99841720D01*
X120329000Y-100222126D01*
X110449147Y-100222126D01*
X110404577Y-100155423D01*
X109929909Y-99838260D01*
X109511333Y-99755000D01*
X109228667Y-99755000D01*
X108810091Y-99838260D01*
X108335423Y-100155423D01*
X108100000Y-100507758D01*
X107864577Y-100155423D01*
X107389909Y-99838260D01*
X106971333Y-99755000D01*
X106688667Y-99755000D01*
X106270091Y-99838260D01*
X105795423Y-100155423D01*
X105560000Y-100507758D01*
X105324577Y-100155423D01*
X104849909Y-99838260D01*
X104431333Y-99755000D01*
X104148667Y-99755000D01*
X103730091Y-99838260D01*
X103255423Y-100155423D01*
X103020000Y-100507758D01*
X102784577Y-100155423D01*
X102309909Y-99838260D01*
X101891333Y-99755000D01*
X101608667Y-99755000D01*
X101190091Y-99838260D01*
X100715423Y-100155423D01*
X100398260Y-100630091D01*
X100286887Y-101190000D01*
X83019541Y-101190000D01*
X87000876Y-94294126D01*
X143189000Y-94294126D01*
X143189000Y-94705874D01*
X143346569Y-95086280D01*
X143637720Y-95377431D01*
X144018126Y-95535000D01*
X144429874Y-95535000D01*
X144792007Y-95385000D01*
X151431993Y-95385000D01*
X151794126Y-95535000D01*
X152205874Y-95535000D01*
X152586280Y-95377431D01*
X152877431Y-95086280D01*
X153035000Y-94705874D01*
X153035000Y-94294126D01*
X152877431Y-93913720D01*
X152586280Y-93622569D01*
X152205874Y-93465000D01*
X151794126Y-93465000D01*
X151431993Y-93615000D01*
X150779456Y-93615000D01*
X150975134Y-93522389D01*
X151351041Y-93107423D01*
X151511904Y-92719039D01*
X151389915Y-92497000D01*
X150247000Y-92497000D01*
X150247000Y-92517000D01*
X149993000Y-92517000D01*
X149993000Y-92497000D01*
X148850085Y-92497000D01*
X148728096Y-92719039D01*
X148888959Y-93107423D01*
X149264866Y-93522389D01*
X149460544Y-93615000D01*
X144792007Y-93615000D01*
X144429874Y-93465000D01*
X144018126Y-93465000D01*
X143637720Y-93622569D01*
X143346569Y-93913720D01*
X143189000Y-94294126D01*
X87000876Y-94294126D01*
X89323728Y-90270829D01*
X96712188Y-90270829D01*
X96728710Y-90522907D01*
X96840440Y-90749473D01*
X97030369Y-90916036D01*
X98130221Y-91551036D01*
X98369433Y-91632238D01*
X98621511Y-91615716D01*
X98848077Y-91503986D01*
X99014640Y-91314057D01*
X99369166Y-90700000D01*
X111302560Y-90700000D01*
X111302560Y-92300000D01*
X111351843Y-92547765D01*
X111492191Y-92757809D01*
X111702235Y-92898157D01*
X111950000Y-92947440D01*
X113550000Y-92947440D01*
X113797765Y-92898157D01*
X114007809Y-92757809D01*
X114148157Y-92547765D01*
X114156117Y-92507745D01*
X114421861Y-92507745D01*
X114495995Y-92753864D01*
X115033223Y-92946965D01*
X115603454Y-92919778D01*
X116004005Y-92753864D01*
X116078139Y-92507745D01*
X115250000Y-91679605D01*
X114421861Y-92507745D01*
X114156117Y-92507745D01*
X114194693Y-92313813D01*
X114242255Y-92328139D01*
X115070395Y-91500000D01*
X115429605Y-91500000D01*
X116257745Y-92328139D01*
X116503864Y-92254005D01*
X116696965Y-91716777D01*
X116693782Y-91650000D01*
X123502560Y-91650000D01*
X123502560Y-93350000D01*
X123551843Y-93597765D01*
X123692191Y-93807809D01*
X123902235Y-93948157D01*
X124150000Y-93997440D01*
X125850000Y-93997440D01*
X126097765Y-93948157D01*
X126307809Y-93807809D01*
X126448157Y-93597765D01*
X126457184Y-93552381D01*
X126469375Y-93570625D01*
X126960582Y-93898839D01*
X127393744Y-93985000D01*
X127686256Y-93985000D01*
X128119418Y-93898839D01*
X128610625Y-93570625D01*
X128810000Y-93272239D01*
X129009375Y-93570625D01*
X129500582Y-93898839D01*
X129933744Y-93985000D01*
X130226256Y-93985000D01*
X130659418Y-93898839D01*
X131150625Y-93570625D01*
X131350000Y-93272239D01*
X131549375Y-93570625D01*
X132040582Y-93898839D01*
X132473744Y-93985000D01*
X132766256Y-93985000D01*
X133199418Y-93898839D01*
X133690625Y-93570625D01*
X133903843Y-93251522D01*
X133964817Y-93381358D01*
X134393076Y-93771645D01*
X134803110Y-93941476D01*
X135033000Y-93820155D01*
X135033000Y-92627000D01*
X135287000Y-92627000D01*
X135287000Y-93820155D01*
X135516890Y-93941476D01*
X135926924Y-93771645D01*
X136355183Y-93381358D01*
X136601486Y-92856892D01*
X136480819Y-92627000D01*
X135287000Y-92627000D01*
X135033000Y-92627000D01*
X135013000Y-92627000D01*
X135013000Y-92373000D01*
X135033000Y-92373000D01*
X135033000Y-91179845D01*
X135287000Y-91179845D01*
X135287000Y-92373000D01*
X136480819Y-92373000D01*
X136601486Y-92143108D01*
X136355183Y-91618642D01*
X135926924Y-91228355D01*
X135516890Y-91058524D01*
X135287000Y-91179845D01*
X135033000Y-91179845D01*
X134803110Y-91058524D01*
X134393076Y-91228355D01*
X133964817Y-91618642D01*
X133903843Y-91748478D01*
X133690625Y-91429375D01*
X133199418Y-91101161D01*
X132766256Y-91015000D01*
X132473744Y-91015000D01*
X132040582Y-91101161D01*
X131549375Y-91429375D01*
X131350000Y-91727761D01*
X131150625Y-91429375D01*
X130659418Y-91101161D01*
X130226256Y-91015000D01*
X129933744Y-91015000D01*
X129500582Y-91101161D01*
X129009375Y-91429375D01*
X128810000Y-91727761D01*
X128610625Y-91429375D01*
X128119418Y-91101161D01*
X127686256Y-91015000D01*
X127393744Y-91015000D01*
X126960582Y-91101161D01*
X126469375Y-91429375D01*
X126457184Y-91447619D01*
X126448157Y-91402235D01*
X126307809Y-91192191D01*
X126097765Y-91051843D01*
X125850000Y-91002560D01*
X124150000Y-91002560D01*
X123902235Y-91051843D01*
X123692191Y-91192191D01*
X123551843Y-91402235D01*
X123502560Y-91650000D01*
X116693782Y-91650000D01*
X116669778Y-91146546D01*
X116503864Y-90745995D01*
X116257745Y-90671861D01*
X115429605Y-91500000D01*
X115070395Y-91500000D01*
X114242255Y-90671861D01*
X114194693Y-90686187D01*
X114156118Y-90492255D01*
X114421861Y-90492255D01*
X115250000Y-91320395D01*
X116078139Y-90492255D01*
X116004005Y-90246136D01*
X115466777Y-90053035D01*
X114896546Y-90080222D01*
X114495995Y-90246136D01*
X114421861Y-90492255D01*
X114156118Y-90492255D01*
X114148157Y-90452235D01*
X114007809Y-90242191D01*
X113797765Y-90101843D01*
X113550000Y-90052560D01*
X111950000Y-90052560D01*
X111702235Y-90101843D01*
X111492191Y-90242191D01*
X111351843Y-90452235D01*
X111302560Y-90700000D01*
X99369166Y-90700000D01*
X99649640Y-90214205D01*
X99730842Y-89974993D01*
X99714320Y-89722915D01*
X99647716Y-89587856D01*
X99941568Y-89466138D01*
X100298825Y-89108881D01*
X100492171Y-88642103D01*
X100492171Y-88136865D01*
X100406698Y-87930516D01*
X100473010Y-87930516D01*
X100939788Y-87737170D01*
X101297045Y-87379913D01*
X101334288Y-87290000D01*
X141036887Y-87290000D01*
X141148260Y-87849909D01*
X141465423Y-88324577D01*
X141817758Y-88560000D01*
X141465423Y-88795423D01*
X141148260Y-89270091D01*
X141036887Y-89830000D01*
X141148260Y-90389909D01*
X141465423Y-90864577D01*
X141817758Y-91100000D01*
X141465423Y-91335423D01*
X141148260Y-91810091D01*
X141036887Y-92370000D01*
X141148260Y-92929909D01*
X141465423Y-93404577D01*
X141940091Y-93721740D01*
X142358667Y-93805000D01*
X142641333Y-93805000D01*
X143059909Y-93721740D01*
X143534577Y-93404577D01*
X143851740Y-92929909D01*
X143963113Y-92370000D01*
X143851740Y-91810091D01*
X143534577Y-91335423D01*
X143182242Y-91100000D01*
X143534577Y-90864577D01*
X143851740Y-90389909D01*
X143963113Y-89830000D01*
X143908239Y-89554126D01*
X146237000Y-89554126D01*
X146237000Y-89965874D01*
X146394569Y-90346280D01*
X146685720Y-90637431D01*
X147066126Y-90795000D01*
X147477874Y-90795000D01*
X147671011Y-90715000D01*
X148781136Y-90715000D01*
X148836015Y-90716910D01*
X148874825Y-90721104D01*
X148908926Y-90727465D01*
X148939168Y-90735657D01*
X148966575Y-90745570D01*
X148992224Y-90757364D01*
X149017138Y-90771468D01*
X149028289Y-90779069D01*
X149085423Y-90864577D01*
X149469108Y-91120947D01*
X149264866Y-91217611D01*
X148888959Y-91632577D01*
X148728096Y-92020961D01*
X148850085Y-92243000D01*
X149993000Y-92243000D01*
X149993000Y-92223000D01*
X150247000Y-92223000D01*
X150247000Y-92243000D01*
X151389915Y-92243000D01*
X151511904Y-92020961D01*
X151351041Y-91632577D01*
X150975134Y-91217611D01*
X150770892Y-91120947D01*
X151154577Y-90864577D01*
X151471740Y-90389909D01*
X151526531Y-90114456D01*
X160458735Y-90114456D01*
X160554087Y-90610614D01*
X160765433Y-90931399D01*
X160749925Y-90946907D01*
X160825330Y-91022312D01*
X160832052Y-91032515D01*
X160847013Y-91043995D01*
X160929533Y-91126515D01*
X160940397Y-91115651D01*
X161113432Y-91248425D01*
X161120611Y-91246261D01*
X161584052Y-91246261D01*
X161745194Y-91417705D01*
X162241352Y-91322353D01*
X162562137Y-91111007D01*
X162577645Y-91126515D01*
X162653050Y-91051110D01*
X162663253Y-91044388D01*
X162674733Y-91029427D01*
X162757253Y-90946907D01*
X162746389Y-90936043D01*
X162879163Y-90763008D01*
X162811259Y-90537733D01*
X162178544Y-90368198D01*
X161947338Y-90136992D01*
X161767730Y-90316600D01*
X161819329Y-90368199D01*
X161584052Y-91246261D01*
X161120611Y-91246261D01*
X161338707Y-91180521D01*
X161508242Y-90547806D01*
X161739448Y-90316600D01*
X161559840Y-90136992D01*
X161508241Y-90188591D01*
X160630179Y-89953314D01*
X160458735Y-90114456D01*
X151526531Y-90114456D01*
X151583113Y-89830000D01*
X151471740Y-89270091D01*
X151154577Y-88795423D01*
X150802242Y-88560000D01*
X151154577Y-88324577D01*
X151471740Y-87849909D01*
X151583113Y-87290000D01*
X151471740Y-86730091D01*
X151154577Y-86255423D01*
X150802242Y-86020000D01*
X151154577Y-85784577D01*
X151471740Y-85309909D01*
X151577286Y-84779291D01*
X157244418Y-84779291D01*
X157325620Y-85018503D01*
X157960620Y-86118355D01*
X158127183Y-86308284D01*
X158353749Y-86420014D01*
X158484609Y-86428591D01*
X158484609Y-86913135D01*
X158677955Y-87379913D01*
X159035212Y-87737170D01*
X159501990Y-87930516D01*
X159568302Y-87930516D01*
X159482829Y-88136865D01*
X159482829Y-88642103D01*
X159676175Y-89108881D01*
X160033432Y-89466138D01*
X160500210Y-89659484D01*
X160681304Y-89659484D01*
X160695919Y-89707969D01*
X161328634Y-89877504D01*
X161559840Y-90108710D01*
X161739448Y-89929102D01*
X161767730Y-89929102D01*
X161947338Y-90108710D01*
X161998937Y-90057111D01*
X162876999Y-90292388D01*
X163048443Y-90131246D01*
X162953091Y-89635088D01*
X162741745Y-89314303D01*
X162757253Y-89298795D01*
X162681848Y-89223390D01*
X162675126Y-89213187D01*
X162660165Y-89201707D01*
X162577645Y-89119187D01*
X162566781Y-89130051D01*
X162393746Y-88997277D01*
X162168471Y-89065181D01*
X161998936Y-89697896D01*
X161767730Y-89929102D01*
X161739448Y-89929102D01*
X161687849Y-89877503D01*
X161923126Y-88999441D01*
X161889593Y-88963764D01*
X162022829Y-88642103D01*
X162022829Y-88136865D01*
X161829483Y-87670087D01*
X161472226Y-87312830D01*
X161005448Y-87119484D01*
X160939136Y-87119484D01*
X161024609Y-86913135D01*
X161024609Y-86407897D01*
X160831263Y-85941119D01*
X160474006Y-85583862D01*
X160180030Y-85462093D01*
X160246550Y-85327205D01*
X160263072Y-85075127D01*
X160181870Y-84835915D01*
X159546870Y-83736063D01*
X159380307Y-83546134D01*
X159153741Y-83434404D01*
X158901663Y-83417882D01*
X158662451Y-83499084D01*
X157562599Y-84134084D01*
X157372670Y-84300647D01*
X157260940Y-84527213D01*
X157244418Y-84779291D01*
X151577286Y-84779291D01*
X151583113Y-84750000D01*
X151471740Y-84190091D01*
X151154577Y-83715423D01*
X150679909Y-83398260D01*
X150261333Y-83315000D01*
X149978667Y-83315000D01*
X149560091Y-83398260D01*
X149085423Y-83715423D01*
X148768260Y-84190091D01*
X148656887Y-84750000D01*
X148768260Y-85309909D01*
X149085423Y-85784577D01*
X149437758Y-86020000D01*
X149085423Y-86255423D01*
X148768260Y-86730091D01*
X148656887Y-87290000D01*
X148768260Y-87849909D01*
X149085423Y-88324577D01*
X149437758Y-88560000D01*
X149085423Y-88795423D01*
X149028290Y-88880929D01*
X149017138Y-88888531D01*
X148992224Y-88902635D01*
X148966575Y-88914429D01*
X148939168Y-88924342D01*
X148908926Y-88932534D01*
X148874825Y-88938895D01*
X148836002Y-88943090D01*
X148781152Y-88945000D01*
X147943917Y-88945000D01*
X147930145Y-88941298D01*
X147911876Y-88936165D01*
X147858280Y-88882569D01*
X147477874Y-88725000D01*
X147066126Y-88725000D01*
X146685720Y-88882569D01*
X146394569Y-89173720D01*
X146237000Y-89554126D01*
X143908239Y-89554126D01*
X143851740Y-89270091D01*
X143534577Y-88795423D01*
X143182242Y-88560000D01*
X143534577Y-88324577D01*
X143851740Y-87849909D01*
X143963113Y-87290000D01*
X143851740Y-86730091D01*
X143534577Y-86255423D01*
X143413894Y-86174785D01*
X143547765Y-86148157D01*
X143757809Y-86007809D01*
X143898157Y-85797765D01*
X143930533Y-85635000D01*
X145856989Y-85635000D01*
X146050126Y-85715000D01*
X146461874Y-85715000D01*
X146842280Y-85557431D01*
X147133431Y-85266280D01*
X147291000Y-84885874D01*
X147291000Y-84474126D01*
X147133431Y-84093720D01*
X146842280Y-83802569D01*
X146461874Y-83645000D01*
X146050126Y-83645000D01*
X145669720Y-83802569D01*
X145616124Y-83856165D01*
X145597854Y-83861298D01*
X145584081Y-83865000D01*
X143930533Y-83865000D01*
X143898157Y-83702235D01*
X143757809Y-83492191D01*
X143547765Y-83351843D01*
X143300000Y-83302560D01*
X141700000Y-83302560D01*
X141452235Y-83351843D01*
X141242191Y-83492191D01*
X141101843Y-83702235D01*
X141052560Y-83950000D01*
X141052560Y-85550000D01*
X141101843Y-85797765D01*
X141242191Y-86007809D01*
X141452235Y-86148157D01*
X141586106Y-86174785D01*
X141465423Y-86255423D01*
X141148260Y-86730091D01*
X141036887Y-87290000D01*
X101334288Y-87290000D01*
X101490391Y-86913135D01*
X101490391Y-86407897D01*
X101357155Y-86086236D01*
X101390688Y-86050559D01*
X101155411Y-85172497D01*
X101207010Y-85120898D01*
X101103064Y-85016952D01*
X101376694Y-85016952D01*
X101636033Y-85984819D01*
X101861308Y-86052723D01*
X102243317Y-85722067D01*
X102469711Y-85270392D01*
X102516005Y-84918754D01*
X102344561Y-84757612D01*
X101376694Y-85016952D01*
X101103064Y-85016952D01*
X101027402Y-84941290D01*
X100796196Y-85172496D01*
X100163481Y-85342031D01*
X100148866Y-85390516D01*
X99967772Y-85390516D01*
X99500994Y-85583862D01*
X99143737Y-85941119D01*
X98950391Y-86407897D01*
X98950391Y-86913135D01*
X99035864Y-87119484D01*
X98969552Y-87119484D01*
X98502774Y-87312830D01*
X98145517Y-87670087D01*
X97952171Y-88136865D01*
X97952171Y-88621543D01*
X97821519Y-88630106D01*
X97594953Y-88741836D01*
X97428390Y-88931765D01*
X96793390Y-90031617D01*
X96712188Y-90270829D01*
X89323728Y-90270829D01*
X92404056Y-84935544D01*
X99926297Y-84935544D01*
X100097741Y-85096686D01*
X101065608Y-84837346D01*
X100806269Y-83869479D01*
X100588174Y-83803739D01*
X101051614Y-83803739D01*
X101310954Y-84771606D01*
X102278821Y-84512267D01*
X102346725Y-84286992D01*
X102016069Y-83904983D01*
X101564394Y-83678589D01*
X101212756Y-83632295D01*
X101051614Y-83803739D01*
X100588174Y-83803739D01*
X100580994Y-83801575D01*
X100198985Y-84132231D01*
X99972591Y-84583906D01*
X99926297Y-84935544D01*
X92404056Y-84935544D01*
X101292677Y-69540000D01*
X113985908Y-69540000D01*
X114101161Y-70119418D01*
X114429375Y-70610625D01*
X114727761Y-70810000D01*
X114429375Y-71009375D01*
X114101161Y-71500582D01*
X113985908Y-72080000D01*
X114101161Y-72659418D01*
X114429375Y-73150625D01*
X114727761Y-73350000D01*
X114429375Y-73549375D01*
X114101161Y-74040582D01*
X113985908Y-74620000D01*
X114101161Y-75199418D01*
X114429375Y-75690625D01*
X114727761Y-75890000D01*
X114429375Y-76089375D01*
X114101161Y-76580582D01*
X113985908Y-77160000D01*
X114101161Y-77739418D01*
X114429375Y-78230625D01*
X114727761Y-78430000D01*
X114429375Y-78629375D01*
X114101161Y-79120582D01*
X113985908Y-79700000D01*
X114101161Y-80279418D01*
X114429375Y-80770625D01*
X114920582Y-81098839D01*
X115353744Y-81185000D01*
X115646256Y-81185000D01*
X116079418Y-81098839D01*
X116570625Y-80770625D01*
X116898839Y-80279418D01*
X117014092Y-79700000D01*
X116898839Y-79120582D01*
X116570625Y-78629375D01*
X116272239Y-78430000D01*
X116570625Y-78230625D01*
X116898839Y-77739418D01*
X117014092Y-77160000D01*
X116898839Y-76580582D01*
X116570625Y-76089375D01*
X116272239Y-75890000D01*
X116570625Y-75690625D01*
X116898839Y-75199418D01*
X117014092Y-74620000D01*
X116898839Y-74040582D01*
X116570625Y-73549375D01*
X116272239Y-73350000D01*
X116570625Y-73150625D01*
X116898839Y-72659418D01*
X117014092Y-72080000D01*
X116898839Y-71500582D01*
X116570625Y-71009375D01*
X116272239Y-70810000D01*
X116570625Y-70610625D01*
X116898839Y-70119418D01*
X117014092Y-69540000D01*
X116898839Y-68960582D01*
X116570625Y-68469375D01*
X116548967Y-68454904D01*
X116709698Y-68388327D01*
X116888327Y-68209699D01*
X116985000Y-67976310D01*
X116985000Y-67285750D01*
X116826250Y-67127000D01*
X115627000Y-67127000D01*
X115627000Y-67147000D01*
X115373000Y-67147000D01*
X115373000Y-67127000D01*
X114173750Y-67127000D01*
X114015000Y-67285750D01*
X114015000Y-67976310D01*
X114111673Y-68209699D01*
X114290302Y-68388327D01*
X114451033Y-68454904D01*
X114429375Y-68469375D01*
X114101161Y-68960582D01*
X113985908Y-69540000D01*
X101292677Y-69540000D01*
X103015819Y-66555431D01*
X105765000Y-66555431D01*
X105765000Y-67444569D01*
X106105259Y-68266026D01*
X106733974Y-68894741D01*
X107555431Y-69235000D01*
X108444569Y-69235000D01*
X109266026Y-68894741D01*
X109894741Y-68266026D01*
X110235000Y-67444569D01*
X110235000Y-66555431D01*
X110014746Y-66023690D01*
X114015000Y-66023690D01*
X114015000Y-66714250D01*
X114173750Y-66873000D01*
X115373000Y-66873000D01*
X115373000Y-65673750D01*
X115627000Y-65673750D01*
X115627000Y-66873000D01*
X116826250Y-66873000D01*
X116985000Y-66714250D01*
X116985000Y-66023690D01*
X116888327Y-65790301D01*
X116709698Y-65611673D01*
X116476309Y-65515000D01*
X115785750Y-65515000D01*
X115627000Y-65673750D01*
X115373000Y-65673750D01*
X115214250Y-65515000D01*
X114523691Y-65515000D01*
X114290302Y-65611673D01*
X114111673Y-65790301D01*
X114015000Y-66023690D01*
X110014746Y-66023690D01*
X109894741Y-65733974D01*
X109266026Y-65105259D01*
X108444569Y-64765000D01*
X107555431Y-64765000D01*
X106733974Y-65105259D01*
X106105259Y-65733974D01*
X105765000Y-66555431D01*
X103015819Y-66555431D01*
X104339863Y-64262119D01*
X120983000Y-64262119D01*
X120983000Y-64817881D01*
X121195680Y-65331337D01*
X121588663Y-65724320D01*
X121795513Y-65810000D01*
X121588663Y-65895680D01*
X121195680Y-66288663D01*
X120983000Y-66802119D01*
X120983000Y-67357881D01*
X121195680Y-67871337D01*
X121588663Y-68264320D01*
X121795513Y-68350000D01*
X121588663Y-68435680D01*
X121195680Y-68828663D01*
X120983000Y-69342119D01*
X120983000Y-69897881D01*
X121195680Y-70411337D01*
X121588663Y-70804320D01*
X121795513Y-70890000D01*
X121588663Y-70975680D01*
X121195680Y-71368663D01*
X120983000Y-71882119D01*
X120983000Y-72437881D01*
X121195680Y-72951337D01*
X121588663Y-73344320D01*
X121795513Y-73430000D01*
X121588663Y-73515680D01*
X121195680Y-73908663D01*
X120983000Y-74422119D01*
X120983000Y-74977881D01*
X121195680Y-75491337D01*
X121588663Y-75884320D01*
X121795513Y-75970000D01*
X121588663Y-76055680D01*
X121195680Y-76448663D01*
X120983000Y-76962119D01*
X120983000Y-77517881D01*
X121195680Y-78031337D01*
X121588663Y-78424320D01*
X121795513Y-78510000D01*
X121588663Y-78595680D01*
X121195680Y-78988663D01*
X120983000Y-79502119D01*
X120983000Y-80057881D01*
X121195680Y-80571337D01*
X121588663Y-80964320D01*
X122102119Y-81177000D01*
X122380195Y-81177000D01*
X122423491Y-81178202D01*
X122449370Y-81180954D01*
X122472218Y-81185281D01*
X122493038Y-81191053D01*
X122512967Y-81198431D01*
X122533014Y-81207832D01*
X122554073Y-81219918D01*
X122576749Y-81235467D01*
X122601432Y-81255339D01*
X122636061Y-81287639D01*
X123544577Y-82196156D01*
X123593951Y-82270049D01*
X123667844Y-82319423D01*
X123667845Y-82319424D01*
X123856176Y-82445263D01*
X123886690Y-82465652D01*
X124144835Y-82517000D01*
X124144839Y-82517000D01*
X124232000Y-82534337D01*
X124319161Y-82517000D01*
X131971993Y-82517000D01*
X132334126Y-82667000D01*
X132745874Y-82667000D01*
X133126280Y-82509431D01*
X133417431Y-82218280D01*
X133575000Y-81837874D01*
X133575000Y-81426126D01*
X134680000Y-81426126D01*
X134680000Y-81837874D01*
X134837569Y-82218280D01*
X135128720Y-82509431D01*
X135509126Y-82667000D01*
X135920874Y-82667000D01*
X136301280Y-82509431D01*
X136592431Y-82218280D01*
X136750000Y-81837874D01*
X136750000Y-81426126D01*
X136600000Y-81063993D01*
X136600000Y-80735657D01*
X136828663Y-80964320D01*
X137342119Y-81177000D01*
X137897881Y-81177000D01*
X138411337Y-80964320D01*
X138804320Y-80571337D01*
X139017000Y-80057881D01*
X139017000Y-79502119D01*
X138804320Y-78988663D01*
X138411337Y-78595680D01*
X138204487Y-78510000D01*
X138411337Y-78424320D01*
X138804320Y-78031337D01*
X139017000Y-77517881D01*
X139017000Y-76964561D01*
X143065000Y-76964561D01*
X143065000Y-77535439D01*
X143283466Y-78062862D01*
X143687138Y-78466534D01*
X144214561Y-78685000D01*
X144785439Y-78685000D01*
X145312862Y-78466534D01*
X145716534Y-78062862D01*
X145935000Y-77535439D01*
X145935000Y-76964561D01*
X145716534Y-76437138D01*
X145312862Y-76033466D01*
X144785439Y-75815000D01*
X144214561Y-75815000D01*
X143687138Y-76033466D01*
X143283466Y-76437138D01*
X143065000Y-76964561D01*
X139017000Y-76964561D01*
X139017000Y-76962119D01*
X138804320Y-76448663D01*
X138411337Y-76055680D01*
X138204487Y-75970000D01*
X138411337Y-75884320D01*
X138804320Y-75491337D01*
X139017000Y-74977881D01*
X139017000Y-74422119D01*
X138804320Y-73908663D01*
X138411337Y-73515680D01*
X138204487Y-73430000D01*
X138411337Y-73344320D01*
X138804320Y-72951337D01*
X139017000Y-72437881D01*
X139017000Y-71882119D01*
X138804320Y-71368663D01*
X138411337Y-70975680D01*
X138204487Y-70890000D01*
X138411337Y-70804320D01*
X138804320Y-70411337D01*
X139017000Y-69897881D01*
X139017000Y-69630000D01*
X143036887Y-69630000D01*
X143148260Y-70189909D01*
X143465423Y-70664577D01*
X143940091Y-70981740D01*
X144358667Y-71065000D01*
X144641333Y-71065000D01*
X145059909Y-70981740D01*
X145534577Y-70664577D01*
X145851740Y-70189909D01*
X145963113Y-69630000D01*
X145851740Y-69070091D01*
X145534577Y-68595423D01*
X145059909Y-68278260D01*
X144641333Y-68195000D01*
X144358667Y-68195000D01*
X143940091Y-68278260D01*
X143465423Y-68595423D01*
X143148260Y-69070091D01*
X143036887Y-69630000D01*
X139017000Y-69630000D01*
X139017000Y-69342119D01*
X138804320Y-68828663D01*
X138411337Y-68435680D01*
X138220353Y-68356572D01*
X138351143Y-68302397D01*
X138420608Y-68060213D01*
X137620000Y-67259605D01*
X136819392Y-68060213D01*
X136888857Y-68302397D01*
X137029393Y-68352535D01*
X136828663Y-68435680D01*
X136435680Y-68828663D01*
X136223000Y-69342119D01*
X136223000Y-69897881D01*
X136435680Y-70411337D01*
X136828663Y-70804320D01*
X137035513Y-70890000D01*
X136828663Y-70975680D01*
X136631080Y-71173263D01*
X136597806Y-71204963D01*
X136575551Y-71223308D01*
X136555525Y-71237409D01*
X136537410Y-71248122D01*
X136520641Y-71256263D01*
X136504403Y-71262524D01*
X136487662Y-71267403D01*
X136480378Y-71268877D01*
X136423999Y-71257663D01*
X136336839Y-71275000D01*
X136336835Y-71275000D01*
X136078690Y-71326348D01*
X135970880Y-71398385D01*
X135859845Y-71472576D01*
X135859844Y-71472577D01*
X135785951Y-71521951D01*
X135736577Y-71595844D01*
X135150847Y-72181575D01*
X135076951Y-72230951D01*
X134881348Y-72523691D01*
X134830000Y-72781836D01*
X134830000Y-72781839D01*
X134812663Y-72869000D01*
X134830000Y-72956161D01*
X134830001Y-81063991D01*
X134680000Y-81426126D01*
X133575000Y-81426126D01*
X133417431Y-81045720D01*
X133126280Y-80754569D01*
X132745874Y-80597000D01*
X132334126Y-80597000D01*
X131971993Y-80747000D01*
X124598579Y-80747000D01*
X123887639Y-80036061D01*
X123855339Y-80001432D01*
X123835467Y-79976749D01*
X123819918Y-79954073D01*
X123807832Y-79933014D01*
X123798431Y-79912967D01*
X123791053Y-79893038D01*
X123785281Y-79872218D01*
X123780954Y-79849370D01*
X123778202Y-79823491D01*
X123777000Y-79780195D01*
X123777000Y-79502119D01*
X123564320Y-78988663D01*
X123171337Y-78595680D01*
X122964487Y-78510000D01*
X123171337Y-78424320D01*
X123564320Y-78031337D01*
X123777000Y-77517881D01*
X123777000Y-76962119D01*
X123564320Y-76448663D01*
X123171337Y-76055680D01*
X122964487Y-75970000D01*
X123171337Y-75884320D01*
X123564320Y-75491337D01*
X123777000Y-74977881D01*
X123777000Y-74422119D01*
X123564320Y-73908663D01*
X123171337Y-73515680D01*
X122964487Y-73430000D01*
X123171337Y-73344320D01*
X123564320Y-72951337D01*
X123777000Y-72437881D01*
X123777000Y-71882119D01*
X123564320Y-71368663D01*
X123171337Y-70975680D01*
X122964487Y-70890000D01*
X123171337Y-70804320D01*
X123564320Y-70411337D01*
X123777000Y-69897881D01*
X123777000Y-69342119D01*
X123564320Y-68828663D01*
X123171337Y-68435680D01*
X122964487Y-68350000D01*
X123171337Y-68264320D01*
X123564320Y-67871337D01*
X123777000Y-67357881D01*
X123777000Y-66872302D01*
X136210856Y-66872302D01*
X136238638Y-67427368D01*
X136397603Y-67811143D01*
X136639787Y-67880608D01*
X137440395Y-67080000D01*
X137799605Y-67080000D01*
X138600213Y-67880608D01*
X138842397Y-67811143D01*
X139029144Y-67287698D01*
X139001362Y-66732632D01*
X138927963Y-66555431D01*
X149765000Y-66555431D01*
X149765000Y-67444569D01*
X150105259Y-68266026D01*
X150733974Y-68894741D01*
X151555431Y-69235000D01*
X152444569Y-69235000D01*
X153266026Y-68894741D01*
X153894741Y-68266026D01*
X154235000Y-67444569D01*
X154235000Y-66555431D01*
X153894741Y-65733974D01*
X153266026Y-65105259D01*
X152444569Y-64765000D01*
X151555431Y-64765000D01*
X150733974Y-65105259D01*
X150105259Y-65733974D01*
X149765000Y-66555431D01*
X138927963Y-66555431D01*
X138842397Y-66348857D01*
X138600213Y-66279392D01*
X137799605Y-67080000D01*
X137440395Y-67080000D01*
X136639787Y-66279392D01*
X136397603Y-66348857D01*
X136210856Y-66872302D01*
X123777000Y-66872302D01*
X123777000Y-66802119D01*
X123564320Y-66288663D01*
X123171337Y-65895680D01*
X122964487Y-65810000D01*
X123171337Y-65724320D01*
X123564320Y-65331337D01*
X123777000Y-64817881D01*
X123777000Y-64262119D01*
X136223000Y-64262119D01*
X136223000Y-64817881D01*
X136435680Y-65331337D01*
X136828663Y-65724320D01*
X137019647Y-65803428D01*
X136888857Y-65857603D01*
X136819392Y-66099787D01*
X137620000Y-66900395D01*
X138420608Y-66099787D01*
X138351143Y-65857603D01*
X138210607Y-65807465D01*
X138411337Y-65724320D01*
X138804320Y-65331337D01*
X139017000Y-64817881D01*
X139017000Y-64262119D01*
X138804320Y-63748663D01*
X138411337Y-63355680D01*
X137897881Y-63143000D01*
X137342119Y-63143000D01*
X136828663Y-63355680D01*
X136435680Y-63748663D01*
X136223000Y-64262119D01*
X123777000Y-64262119D01*
X123564320Y-63748663D01*
X123171337Y-63355680D01*
X122657881Y-63143000D01*
X122102119Y-63143000D01*
X121588663Y-63355680D01*
X121195680Y-63748663D01*
X120983000Y-64262119D01*
X104339863Y-64262119D01*
X105409919Y-62408730D01*
X154590082Y-62408730D01*
X179180163Y-105000000D01*
X179180163Y-105000000D01*
G37*
X179180163Y-105000000D02*
X154590082Y-147591270D01*
X142459301Y-147591270D01*
X142874264Y-147419387D01*
X142972927Y-147152532D01*
X142000000Y-146179605D01*
X141027073Y-147152532D01*
X141125736Y-147419387D01*
X141588392Y-147591270D01*
X135959301Y-147591270D01*
X136374264Y-147419387D01*
X136472927Y-147152532D01*
X135500000Y-146179605D01*
X134527073Y-147152532D01*
X134625736Y-147419387D01*
X135088392Y-147591270D01*
X124959301Y-147591270D01*
X125374264Y-147419387D01*
X125472927Y-147152532D01*
X124500000Y-146179605D01*
X123527073Y-147152532D01*
X123625736Y-147419387D01*
X124088392Y-147591270D01*
X118459301Y-147591270D01*
X118874264Y-147419387D01*
X118972927Y-147152532D01*
X118000000Y-146179605D01*
X117027073Y-147152532D01*
X117125736Y-147419387D01*
X117588392Y-147591270D01*
X105409919Y-147591270D01*
X104338468Y-145735461D01*
X116354092Y-145735461D01*
X116378144Y-146385460D01*
X116580613Y-146874264D01*
X116847468Y-146972927D01*
X117820395Y-146000000D01*
X118179605Y-146000000D01*
X119152532Y-146972927D01*
X119419387Y-146874264D01*
X119645908Y-146264539D01*
X119626331Y-145735461D01*
X122854092Y-145735461D01*
X122878144Y-146385460D01*
X123080613Y-146874264D01*
X123347468Y-146972927D01*
X124320395Y-146000000D01*
X124679605Y-146000000D01*
X125652532Y-146972927D01*
X125919387Y-146874264D01*
X126145908Y-146264539D01*
X126126331Y-145735461D01*
X133854092Y-145735461D01*
X133878144Y-146385460D01*
X134080613Y-146874264D01*
X134347468Y-146972927D01*
X135320395Y-146000000D01*
X135679605Y-146000000D01*
X136652532Y-146972927D01*
X136919387Y-146874264D01*
X137145908Y-146264539D01*
X137126331Y-145735461D01*
X140354092Y-145735461D01*
X140378144Y-146385460D01*
X140580613Y-146874264D01*
X140847468Y-146972927D01*
X141820395Y-146000000D01*
X142179605Y-146000000D01*
X143152532Y-146972927D01*
X143419387Y-146874264D01*
X143645908Y-146264539D01*
X143621856Y-145614540D01*
X143419387Y-145125736D01*
X143152532Y-145027073D01*
X142179605Y-146000000D01*
X141820395Y-146000000D01*
X140847468Y-145027073D01*
X140580613Y-145125736D01*
X140354092Y-145735461D01*
X137126331Y-145735461D01*
X137121856Y-145614540D01*
X136919387Y-145125736D01*
X136652532Y-145027073D01*
X135679605Y-146000000D01*
X135320395Y-146000000D01*
X134347468Y-145027073D01*
X134080613Y-145125736D01*
X133854092Y-145735461D01*
X126126331Y-145735461D01*
X126121856Y-145614540D01*
X125919387Y-145125736D01*
X125652532Y-145027073D01*
X124679605Y-146000000D01*
X124320395Y-146000000D01*
X123347468Y-145027073D01*
X123080613Y-145125736D01*
X122854092Y-145735461D01*
X119626331Y-145735461D01*
X119621856Y-145614540D01*
X119419387Y-145125736D01*
X119152532Y-145027073D01*
X118179605Y-146000000D01*
X117820395Y-146000000D01*
X116847468Y-145027073D01*
X116580613Y-145125736D01*
X116354092Y-145735461D01*
X104338468Y-145735461D01*
X102502476Y-142555431D01*
X105765000Y-142555431D01*
X105765000Y-143444569D01*
X106105259Y-144266026D01*
X106733974Y-144894741D01*
X107555431Y-145235000D01*
X108444569Y-145235000D01*
X109266026Y-144894741D01*
X109313299Y-144847468D01*
X117027073Y-144847468D01*
X118000000Y-145820395D01*
X118972927Y-144847468D01*
X123527073Y-144847468D01*
X124500000Y-145820395D01*
X125472927Y-144847468D01*
X134527073Y-144847468D01*
X135500000Y-145820395D01*
X136472927Y-144847468D01*
X141027073Y-144847468D01*
X142000000Y-145820395D01*
X142972927Y-144847468D01*
X142874264Y-144580613D01*
X142264539Y-144354092D01*
X141614540Y-144378144D01*
X141125736Y-144580613D01*
X141027073Y-144847468D01*
X136472927Y-144847468D01*
X136374264Y-144580613D01*
X135764539Y-144354092D01*
X135114540Y-144378144D01*
X134625736Y-144580613D01*
X134527073Y-144847468D01*
X125472927Y-144847468D01*
X125374264Y-144580613D01*
X124764539Y-144354092D01*
X124114540Y-144378144D01*
X123625736Y-144580613D01*
X123527073Y-144847468D01*
X118972927Y-144847468D01*
X118874264Y-144580613D01*
X118264539Y-144354092D01*
X117614540Y-144378144D01*
X117125736Y-144580613D01*
X117027073Y-144847468D01*
X109313299Y-144847468D01*
X109894741Y-144266026D01*
X110235000Y-143444569D01*
X110235000Y-142555431D01*
X109894741Y-141733974D01*
X109335545Y-141174778D01*
X116365000Y-141174778D01*
X116365000Y-141825222D01*
X116613914Y-142426153D01*
X117073847Y-142886086D01*
X117674778Y-143135000D01*
X118325222Y-143135000D01*
X118926153Y-142886086D01*
X119386086Y-142426153D01*
X119635000Y-141825222D01*
X119635000Y-141174778D01*
X122865000Y-141174778D01*
X122865000Y-141825222D01*
X123113914Y-142426153D01*
X123573847Y-142886086D01*
X124174778Y-143135000D01*
X124825222Y-143135000D01*
X125426153Y-142886086D01*
X125886086Y-142426153D01*
X126135000Y-141825222D01*
X126135000Y-141174778D01*
X133865000Y-141174778D01*
X133865000Y-141825222D01*
X134113914Y-142426153D01*
X134573847Y-142886086D01*
X135174778Y-143135000D01*
X135825222Y-143135000D01*
X136426153Y-142886086D01*
X136886086Y-142426153D01*
X137135000Y-141825222D01*
X137135000Y-141174778D01*
X140365000Y-141174778D01*
X140365000Y-141825222D01*
X140613914Y-142426153D01*
X141073847Y-142886086D01*
X141674778Y-143135000D01*
X142325222Y-143135000D01*
X142926153Y-142886086D01*
X143256808Y-142555431D01*
X149765000Y-142555431D01*
X149765000Y-143444569D01*
X150105259Y-144266026D01*
X150733974Y-144894741D01*
X151555431Y-145235000D01*
X152444569Y-145235000D01*
X153266026Y-144894741D01*
X153894741Y-144266026D01*
X154235000Y-143444569D01*
X154235000Y-142555431D01*
X153894741Y-141733974D01*
X153266026Y-141105259D01*
X152444569Y-140765000D01*
X151555431Y-140765000D01*
X150733974Y-141105259D01*
X150105259Y-141733974D01*
X149765000Y-142555431D01*
X143256808Y-142555431D01*
X143386086Y-142426153D01*
X143635000Y-141825222D01*
X143635000Y-141174778D01*
X143386086Y-140573847D01*
X142926153Y-140113914D01*
X142325222Y-139865000D01*
X141674778Y-139865000D01*
X141073847Y-140113914D01*
X140613914Y-140573847D01*
X140365000Y-141174778D01*
X137135000Y-141174778D01*
X136886086Y-140573847D01*
X136426153Y-140113914D01*
X135825222Y-139865000D01*
X135174778Y-139865000D01*
X134573847Y-140113914D01*
X134113914Y-140573847D01*
X133865000Y-141174778D01*
X126135000Y-141174778D01*
X125886086Y-140573847D01*
X125426153Y-140113914D01*
X124825222Y-139865000D01*
X124174778Y-139865000D01*
X123573847Y-140113914D01*
X123113914Y-140573847D01*
X122865000Y-141174778D01*
X119635000Y-141174778D01*
X119386086Y-140573847D01*
X118926153Y-140113914D01*
X118325222Y-139865000D01*
X117674778Y-139865000D01*
X117073847Y-140113914D01*
X116613914Y-140573847D01*
X116365000Y-141174778D01*
X109335545Y-141174778D01*
X109266026Y-141105259D01*
X108444569Y-140765000D01*
X107555431Y-140765000D01*
X106733974Y-141105259D01*
X106105259Y-141733974D01*
X105765000Y-142555431D01*
X102502476Y-142555431D01*
X90458510Y-121694670D01*
X94215000Y-121694670D01*
X94215000Y-122305330D01*
X94448690Y-122869507D01*
X94880493Y-123301310D01*
X95444670Y-123535000D01*
X95599509Y-123535000D01*
X95465000Y-123859734D01*
X95465000Y-124470394D01*
X95698690Y-125034571D01*
X96130493Y-125466374D01*
X96694670Y-125700064D01*
X96849509Y-125700064D01*
X96715000Y-126024797D01*
X96715000Y-126635457D01*
X96948690Y-127199634D01*
X97380493Y-127631437D01*
X97944670Y-127865127D01*
X98555330Y-127865127D01*
X99119507Y-127631437D01*
X99551310Y-127199634D01*
X99785000Y-126635457D01*
X99785000Y-126480618D01*
X100109734Y-126615127D01*
X100720394Y-126615127D01*
X101284571Y-126381437D01*
X101716374Y-125949634D01*
X101798860Y-125750493D01*
X158211542Y-125750493D01*
X158603286Y-126218940D01*
X159144478Y-126501815D01*
X159621687Y-126564641D01*
X159824759Y-126385723D01*
X159495133Y-125155543D01*
X158264953Y-125485168D01*
X158211542Y-125750493D01*
X101798860Y-125750493D01*
X101950064Y-125385457D01*
X101950064Y-125036751D01*
X158020295Y-125036751D01*
X158199213Y-125239823D01*
X159429393Y-124910197D01*
X159099768Y-123680017D01*
X158834443Y-123626606D01*
X158365996Y-124018350D01*
X158083121Y-124559542D01*
X158020295Y-125036751D01*
X101950064Y-125036751D01*
X101950064Y-124774797D01*
X101716374Y-124210620D01*
X101284571Y-123778817D01*
X100720394Y-123545127D01*
X100565555Y-123545127D01*
X100700064Y-123220394D01*
X100700064Y-122609734D01*
X100666874Y-122529606D01*
X159299936Y-122529606D01*
X159299936Y-123140266D01*
X159455861Y-123516702D01*
X159345113Y-123614277D01*
X159650676Y-124754652D01*
X159599077Y-124806251D01*
X159778685Y-124985859D01*
X160009890Y-124754654D01*
X160904919Y-124514832D01*
X160934087Y-124369936D01*
X161140266Y-124369936D01*
X161465000Y-124235427D01*
X161465000Y-124390266D01*
X161599509Y-124715000D01*
X161444670Y-124715000D01*
X161068234Y-124870925D01*
X160970659Y-124760177D01*
X159830284Y-125065740D01*
X159778685Y-125014141D01*
X159599077Y-125193749D01*
X159830282Y-125424954D01*
X160070104Y-126319983D01*
X160215000Y-126349151D01*
X160215000Y-126555330D01*
X160448690Y-127119507D01*
X160880493Y-127551310D01*
X161444670Y-127785000D01*
X162055330Y-127785000D01*
X162619507Y-127551310D01*
X163051310Y-127119507D01*
X163285000Y-126555330D01*
X163285000Y-125944670D01*
X163150491Y-125619936D01*
X163305330Y-125619936D01*
X163869507Y-125386246D01*
X164301310Y-124954443D01*
X164535000Y-124390266D01*
X164535000Y-123779606D01*
X164400491Y-123454873D01*
X164555330Y-123454873D01*
X165119507Y-123221183D01*
X165551310Y-122789380D01*
X165785000Y-122225203D01*
X165785000Y-121614543D01*
X165551310Y-121050366D01*
X165119507Y-120618563D01*
X164555330Y-120384873D01*
X163944670Y-120384873D01*
X163619936Y-120519382D01*
X163619936Y-120364543D01*
X163386246Y-119800366D01*
X162954443Y-119368563D01*
X162390266Y-119134873D01*
X161779606Y-119134873D01*
X161215429Y-119368563D01*
X160783626Y-119800366D01*
X160549936Y-120364543D01*
X160549936Y-120975203D01*
X160684445Y-121299936D01*
X160529606Y-121299936D01*
X159965429Y-121533626D01*
X159533626Y-121965429D01*
X159299936Y-122529606D01*
X100666874Y-122529606D01*
X100466374Y-122045557D01*
X100034571Y-121613754D01*
X99470394Y-121380064D01*
X99264215Y-121380064D01*
X99235047Y-121235168D01*
X98340018Y-120995346D01*
X98108813Y-120764141D01*
X97929205Y-120943749D01*
X97980804Y-120995348D01*
X97675241Y-122135723D01*
X97785989Y-122233298D01*
X97630064Y-122609734D01*
X97630064Y-122764573D01*
X97305330Y-122630064D01*
X97150491Y-122630064D01*
X97285000Y-122305330D01*
X97285000Y-122099151D01*
X97429896Y-122069983D01*
X97669718Y-121174954D01*
X97900923Y-120943749D01*
X97721315Y-120764141D01*
X97669716Y-120815740D01*
X97089223Y-120660197D01*
X98070607Y-120660197D01*
X99300787Y-120989823D01*
X99479705Y-120786751D01*
X99374668Y-120185192D01*
X99047419Y-119669619D01*
X98665557Y-119376606D01*
X98400232Y-119430017D01*
X98070607Y-120660197D01*
X97089223Y-120660197D01*
X96529341Y-120510177D01*
X96431766Y-120620925D01*
X96055330Y-120465000D01*
X95444670Y-120465000D01*
X94880493Y-120698690D01*
X94448690Y-121130493D01*
X94215000Y-121694670D01*
X90458510Y-121694670D01*
X89479808Y-119999507D01*
X96541670Y-119999507D01*
X96595081Y-120264832D01*
X97825261Y-120594457D01*
X98154887Y-119364277D01*
X97951815Y-119185359D01*
X97350256Y-119290396D01*
X96834683Y-119617645D01*
X96541670Y-119999507D01*
X89479808Y-119999507D01*
X83184520Y-109095750D01*
X100315000Y-109095750D01*
X100315000Y-109736309D01*
X100411673Y-109969698D01*
X100590301Y-110148327D01*
X100823690Y-110245000D01*
X101464250Y-110245000D01*
X101623000Y-110086250D01*
X101623000Y-108937000D01*
X101877000Y-108937000D01*
X101877000Y-110086250D01*
X102035750Y-110245000D01*
X102676310Y-110245000D01*
X102909699Y-110148327D01*
X103088327Y-109969698D01*
X103185000Y-109736309D01*
X103185000Y-109708062D01*
X103552577Y-110041041D01*
X103940961Y-110201904D01*
X104163000Y-110079915D01*
X104163000Y-108937000D01*
X104417000Y-108937000D01*
X104417000Y-110079915D01*
X104639039Y-110201904D01*
X105027423Y-110041041D01*
X105442389Y-109665134D01*
X105560000Y-109416633D01*
X105677611Y-109665134D01*
X106092577Y-110041041D01*
X106480961Y-110201904D01*
X106703000Y-110079915D01*
X106703000Y-108937000D01*
X106957000Y-108937000D01*
X106957000Y-110079915D01*
X107179039Y-110201904D01*
X107567423Y-110041041D01*
X107982389Y-109665134D01*
X108100000Y-109416633D01*
X108217611Y-109665134D01*
X108632577Y-110041041D01*
X109020961Y-110201904D01*
X109243000Y-110079915D01*
X109243000Y-108937000D01*
X109497000Y-108937000D01*
X109497000Y-110079915D01*
X109719039Y-110201904D01*
X110107423Y-110041041D01*
X110522389Y-109665134D01*
X110761914Y-109159041D01*
X110640629Y-108937000D01*
X109497000Y-108937000D01*
X109243000Y-108937000D01*
X106957000Y-108937000D01*
X106703000Y-108937000D01*
X104417000Y-108937000D01*
X104163000Y-108937000D01*
X101877000Y-108937000D01*
X101623000Y-108937000D01*
X100473750Y-108937000D01*
X100315000Y-109095750D01*
X83184520Y-109095750D01*
X82484738Y-107883691D01*
X100315000Y-107883691D01*
X100315000Y-108524250D01*
X100473750Y-108683000D01*
X101623000Y-108683000D01*
X101623000Y-107533750D01*
X101877000Y-107533750D01*
X101877000Y-108683000D01*
X104163000Y-108683000D01*
X104163000Y-107540085D01*
X104417000Y-107540085D01*
X104417000Y-108683000D01*
X106703000Y-108683000D01*
X106703000Y-107540085D01*
X106957000Y-107540085D01*
X106957000Y-108683000D01*
X109243000Y-108683000D01*
X109243000Y-107540085D01*
X109497000Y-107540085D01*
X109497000Y-108683000D01*
X110640629Y-108683000D01*
X110761914Y-108460959D01*
X110522389Y-107954866D01*
X110107423Y-107578959D01*
X109719039Y-107418096D01*
X109497000Y-107540085D01*
X109243000Y-107540085D01*
X109020961Y-107418096D01*
X108632577Y-107578959D01*
X108217611Y-107954866D01*
X108100000Y-108203367D01*
X107982389Y-107954866D01*
X107567423Y-107578959D01*
X107179039Y-107418096D01*
X106957000Y-107540085D01*
X106703000Y-107540085D01*
X106480961Y-107418096D01*
X106092577Y-107578959D01*
X105677611Y-107954866D01*
X105560000Y-108203367D01*
X105442389Y-107954866D01*
X105027423Y-107578959D01*
X104639039Y-107418096D01*
X104417000Y-107540085D01*
X104163000Y-107540085D01*
X103940961Y-107418096D01*
X103552577Y-107578959D01*
X103185000Y-107911938D01*
X103185000Y-107883691D01*
X103088327Y-107650302D01*
X102909699Y-107471673D01*
X102676310Y-107375000D01*
X102035750Y-107375000D01*
X101877000Y-107533750D01*
X101623000Y-107533750D01*
X101464250Y-107375000D01*
X100823690Y-107375000D01*
X100590301Y-107471673D01*
X100411673Y-107650302D01*
X100315000Y-107883691D01*
X82484738Y-107883691D01*
X80819837Y-105000000D01*
X81076509Y-104555431D01*
X83765000Y-104555431D01*
X83765000Y-105444569D01*
X84105259Y-106266026D01*
X84733974Y-106894741D01*
X85555431Y-107235000D01*
X86444569Y-107235000D01*
X87266026Y-106894741D01*
X87894741Y-106266026D01*
X88235000Y-105444569D01*
X88235000Y-104555431D01*
X87894741Y-103733974D01*
X87266026Y-103105259D01*
X86444569Y-102765000D01*
X85555431Y-102765000D01*
X84733974Y-103105259D01*
X84105259Y-103733974D01*
X83765000Y-104555431D01*
X81076509Y-104555431D01*
X83019541Y-101190000D01*
X100286887Y-101190000D01*
X100398260Y-101749909D01*
X100715423Y-102224577D01*
X101190091Y-102541740D01*
X101608667Y-102625000D01*
X101891333Y-102625000D01*
X102309909Y-102541740D01*
X102784577Y-102224577D01*
X103020000Y-101872242D01*
X103255423Y-102224577D01*
X103730091Y-102541740D01*
X104148667Y-102625000D01*
X104431333Y-102625000D01*
X104849909Y-102541740D01*
X105324577Y-102224577D01*
X105560000Y-101872242D01*
X105795423Y-102224577D01*
X106270091Y-102541740D01*
X106688667Y-102625000D01*
X106971333Y-102625000D01*
X107389909Y-102541740D01*
X107864577Y-102224577D01*
X108100000Y-101872242D01*
X108335423Y-102224577D01*
X108810091Y-102541740D01*
X109228667Y-102625000D01*
X109511333Y-102625000D01*
X109929909Y-102541740D01*
X110404577Y-102224577D01*
X110721740Y-101749909D01*
X110833113Y-101190000D01*
X110721740Y-100630091D01*
X110449147Y-100222126D01*
X120329000Y-100222126D01*
X120329000Y-100633874D01*
X120479001Y-100996008D01*
X120479000Y-102372835D01*
X120479000Y-102372836D01*
X120479001Y-108495991D01*
X120329000Y-108858126D01*
X120329000Y-109269874D01*
X120486569Y-109650280D01*
X120777720Y-109941431D01*
X121158126Y-110099000D01*
X121569874Y-110099000D01*
X121950280Y-109941431D01*
X122241431Y-109650280D01*
X122399000Y-109269874D01*
X122399000Y-108858126D01*
X122249000Y-108495993D01*
X122249000Y-108237711D01*
X122428720Y-108417431D01*
X122809126Y-108575000D01*
X123220874Y-108575000D01*
X123601280Y-108417431D01*
X123721532Y-108297179D01*
X123735680Y-108331337D01*
X124128663Y-108724320D01*
X124642119Y-108937000D01*
X125197881Y-108937000D01*
X125711337Y-108724320D01*
X126104320Y-108331337D01*
X126190000Y-108124487D01*
X126275680Y-108331337D01*
X126668663Y-108724320D01*
X127182119Y-108937000D01*
X127737881Y-108937000D01*
X128251337Y-108724320D01*
X128644320Y-108331337D01*
X128730000Y-108124487D01*
X128815680Y-108331337D01*
X129208663Y-108724320D01*
X129722119Y-108937000D01*
X130277881Y-108937000D01*
X130791337Y-108724320D01*
X131184320Y-108331337D01*
X131270000Y-108124487D01*
X131355680Y-108331337D01*
X131748663Y-108724320D01*
X132262119Y-108937000D01*
X132817881Y-108937000D01*
X133331337Y-108724320D01*
X133535444Y-108520213D01*
X134279392Y-108520213D01*
X134348857Y-108762397D01*
X134872302Y-108949144D01*
X135427368Y-108921362D01*
X135811143Y-108762397D01*
X135880608Y-108520213D01*
X135080000Y-107719605D01*
X134279392Y-108520213D01*
X133535444Y-108520213D01*
X133724320Y-108331337D01*
X133803428Y-108140353D01*
X133857603Y-108271143D01*
X134099787Y-108340608D01*
X134900395Y-107540000D01*
X135259605Y-107540000D01*
X136060213Y-108340608D01*
X136302397Y-108271143D01*
X136489144Y-107747698D01*
X136461362Y-107192632D01*
X136302397Y-106808857D01*
X136060213Y-106739392D01*
X135259605Y-107540000D01*
X134900395Y-107540000D01*
X134099787Y-106739392D01*
X133857603Y-106808857D01*
X133807465Y-106949393D01*
X133724320Y-106748663D01*
X133676587Y-106700930D01*
X133676217Y-106686810D01*
X133675314Y-106622523D01*
X133675050Y-106559787D01*
X134279392Y-106559787D01*
X135080000Y-107360395D01*
X135880608Y-106559787D01*
X135811143Y-106317603D01*
X135287698Y-106130856D01*
X134732632Y-106158638D01*
X134348857Y-106317603D01*
X134279392Y-106559787D01*
X133675050Y-106559787D01*
X133675000Y-106548142D01*
X133675000Y-103451858D01*
X133675049Y-103440213D01*
X134279392Y-103440213D01*
X134348857Y-103682397D01*
X134872302Y-103869144D01*
X135427368Y-103841362D01*
X135811143Y-103682397D01*
X135880608Y-103440213D01*
X135080000Y-102639605D01*
X134279392Y-103440213D01*
X133675049Y-103440213D01*
X133675314Y-103377476D01*
X133676217Y-103313189D01*
X133676587Y-103299070D01*
X133724320Y-103251337D01*
X133803428Y-103060353D01*
X133857603Y-103191143D01*
X134099787Y-103260608D01*
X134900395Y-102460000D01*
X135259605Y-102460000D01*
X136060213Y-103260608D01*
X136302397Y-103191143D01*
X136489144Y-102667698D01*
X136461362Y-102112632D01*
X136302397Y-101728857D01*
X136060213Y-101659392D01*
X135259605Y-102460000D01*
X134900395Y-102460000D01*
X134099787Y-101659392D01*
X133857603Y-101728857D01*
X133807465Y-101869393D01*
X133724320Y-101668663D01*
X133535444Y-101479787D01*
X134279392Y-101479787D01*
X135080000Y-102280395D01*
X135880608Y-101479787D01*
X135811294Y-101238126D01*
X137601000Y-101238126D01*
X137601000Y-101649874D01*
X137751000Y-102012007D01*
X137751001Y-110019991D01*
X137601000Y-110382126D01*
X137601000Y-110793874D01*
X137758569Y-111174280D01*
X138049720Y-111465431D01*
X138430126Y-111623000D01*
X138841874Y-111623000D01*
X139222280Y-111465431D01*
X139513431Y-111174280D01*
X139671000Y-110793874D01*
X139671000Y-110382126D01*
X139521000Y-110019993D01*
X139521000Y-102012007D01*
X139671000Y-101649874D01*
X139671000Y-101238126D01*
X141157000Y-101238126D01*
X141157000Y-101649874D01*
X141307000Y-102012007D01*
X141307001Y-108495991D01*
X141157000Y-108858126D01*
X141157000Y-109269874D01*
X141314569Y-109650280D01*
X141605720Y-109941431D01*
X141986126Y-110099000D01*
X142397874Y-110099000D01*
X142778280Y-109941431D01*
X142954000Y-109765711D01*
X143129720Y-109941431D01*
X143510126Y-110099000D01*
X143921874Y-110099000D01*
X144302280Y-109941431D01*
X144414839Y-109828872D01*
X144465423Y-109904577D01*
X144940091Y-110221740D01*
X145358667Y-110305000D01*
X145641333Y-110305000D01*
X146059909Y-110221740D01*
X146534577Y-109904577D01*
X146851740Y-109429909D01*
X146963113Y-108870000D01*
X146851740Y-108310091D01*
X146534577Y-107835423D01*
X146059909Y-107518260D01*
X145641333Y-107435000D01*
X145358667Y-107435000D01*
X144940091Y-107518260D01*
X144601000Y-107744833D01*
X144601000Y-106790000D01*
X154392560Y-106790000D01*
X154392560Y-108790000D01*
X154441843Y-109037765D01*
X154582191Y-109247809D01*
X154792235Y-109388157D01*
X155040000Y-109437440D01*
X157040000Y-109437440D01*
X157287765Y-109388157D01*
X157497809Y-109247809D01*
X157638157Y-109037765D01*
X157687440Y-108790000D01*
X157687440Y-106790000D01*
X157638157Y-106542235D01*
X157497809Y-106332191D01*
X157287765Y-106191843D01*
X157040000Y-106142560D01*
X155040000Y-106142560D01*
X154792235Y-106191843D01*
X154582191Y-106332191D01*
X154441843Y-106542235D01*
X154392560Y-106790000D01*
X144601000Y-106790000D01*
X144601000Y-104555431D01*
X171765000Y-104555431D01*
X171765000Y-105444569D01*
X172105259Y-106266026D01*
X172733974Y-106894741D01*
X173555431Y-107235000D01*
X174444569Y-107235000D01*
X175266026Y-106894741D01*
X175894741Y-106266026D01*
X176235000Y-105444569D01*
X176235000Y-104555431D01*
X175894741Y-103733974D01*
X175266026Y-103105259D01*
X174444569Y-102765000D01*
X173555431Y-102765000D01*
X172733974Y-103105259D01*
X172105259Y-103733974D01*
X171765000Y-104555431D01*
X144601000Y-104555431D01*
X144601000Y-103942532D01*
X155067073Y-103942532D01*
X155165736Y-104209387D01*
X155775461Y-104435908D01*
X156425460Y-104411856D01*
X156914264Y-104209387D01*
X157012927Y-103942532D01*
X156040000Y-102969605D01*
X155067073Y-103942532D01*
X144601000Y-103942532D01*
X144601000Y-102380396D01*
X144687138Y-102466534D01*
X145214561Y-102685000D01*
X145785439Y-102685000D01*
X146170599Y-102525461D01*
X154394092Y-102525461D01*
X154418144Y-103175460D01*
X154620613Y-103664264D01*
X154887468Y-103762927D01*
X155860395Y-102790000D01*
X156219605Y-102790000D01*
X157192532Y-103762927D01*
X157459387Y-103664264D01*
X157685908Y-103054539D01*
X157661856Y-102404540D01*
X157459387Y-101915736D01*
X157192532Y-101817073D01*
X156219605Y-102790000D01*
X155860395Y-102790000D01*
X154887468Y-101817073D01*
X154620613Y-101915736D01*
X154394092Y-102525461D01*
X146170599Y-102525461D01*
X146312862Y-102466534D01*
X146716534Y-102062862D01*
X146892738Y-101637468D01*
X155067073Y-101637468D01*
X156040000Y-102610395D01*
X157012927Y-101637468D01*
X156914264Y-101370613D01*
X156304539Y-101144092D01*
X155654540Y-101168144D01*
X155165736Y-101370613D01*
X155067073Y-101637468D01*
X146892738Y-101637468D01*
X146935000Y-101535439D01*
X146935000Y-100964561D01*
X146716534Y-100437138D01*
X146312862Y-100033466D01*
X145785439Y-99815000D01*
X145214561Y-99815000D01*
X144687138Y-100033466D01*
X144283466Y-100437138D01*
X144240460Y-100540963D01*
X143921874Y-100409000D01*
X143510126Y-100409000D01*
X143129720Y-100566569D01*
X142954000Y-100742289D01*
X142778280Y-100566569D01*
X142397874Y-100409000D01*
X141986126Y-100409000D01*
X141605720Y-100566569D01*
X141314569Y-100857720D01*
X141157000Y-101238126D01*
X139671000Y-101238126D01*
X139513431Y-100857720D01*
X139222280Y-100566569D01*
X138841874Y-100409000D01*
X138430126Y-100409000D01*
X138049720Y-100566569D01*
X137758569Y-100857720D01*
X137601000Y-101238126D01*
X135811294Y-101238126D01*
X135811143Y-101237603D01*
X135287698Y-101050856D01*
X134732632Y-101078638D01*
X134348857Y-101237603D01*
X134279392Y-101479787D01*
X133535444Y-101479787D01*
X133331337Y-101275680D01*
X132817881Y-101063000D01*
X132262119Y-101063000D01*
X131748663Y-101275680D01*
X131355680Y-101668663D01*
X131270000Y-101875513D01*
X131184320Y-101668663D01*
X130791337Y-101275680D01*
X130277881Y-101063000D01*
X129722119Y-101063000D01*
X129208663Y-101275680D01*
X128815680Y-101668663D01*
X128730000Y-101875513D01*
X128644320Y-101668663D01*
X128251337Y-101275680D01*
X127737881Y-101063000D01*
X127182119Y-101063000D01*
X126668663Y-101275680D01*
X126275680Y-101668663D01*
X126190000Y-101875513D01*
X126104320Y-101668663D01*
X125711337Y-101275680D01*
X125197881Y-101063000D01*
X124642119Y-101063000D01*
X124128663Y-101275680D01*
X123905000Y-101499343D01*
X123905000Y-100996007D01*
X124055000Y-100633874D01*
X124055000Y-100222126D01*
X123897431Y-99841720D01*
X123606280Y-99550569D01*
X123225874Y-99393000D01*
X122814126Y-99393000D01*
X122433720Y-99550569D01*
X122192000Y-99792289D01*
X121950280Y-99550569D01*
X121569874Y-99393000D01*
X121158126Y-99393000D01*
X120777720Y-99550569D01*
X120486569Y-99841720D01*
X120329000Y-100222126D01*
X110449147Y-100222126D01*
X110404577Y-100155423D01*
X109929909Y-99838260D01*
X109511333Y-99755000D01*
X109228667Y-99755000D01*
X108810091Y-99838260D01*
X108335423Y-100155423D01*
X108100000Y-100507758D01*
X107864577Y-100155423D01*
X107389909Y-99838260D01*
X106971333Y-99755000D01*
X106688667Y-99755000D01*
X106270091Y-99838260D01*
X105795423Y-100155423D01*
X105560000Y-100507758D01*
X105324577Y-100155423D01*
X104849909Y-99838260D01*
X104431333Y-99755000D01*
X104148667Y-99755000D01*
X103730091Y-99838260D01*
X103255423Y-100155423D01*
X103020000Y-100507758D01*
X102784577Y-100155423D01*
X102309909Y-99838260D01*
X101891333Y-99755000D01*
X101608667Y-99755000D01*
X101190091Y-99838260D01*
X100715423Y-100155423D01*
X100398260Y-100630091D01*
X100286887Y-101190000D01*
X83019541Y-101190000D01*
X87000876Y-94294126D01*
X143189000Y-94294126D01*
X143189000Y-94705874D01*
X143346569Y-95086280D01*
X143637720Y-95377431D01*
X144018126Y-95535000D01*
X144429874Y-95535000D01*
X144792007Y-95385000D01*
X151431993Y-95385000D01*
X151794126Y-95535000D01*
X152205874Y-95535000D01*
X152586280Y-95377431D01*
X152877431Y-95086280D01*
X153035000Y-94705874D01*
X153035000Y-94294126D01*
X152877431Y-93913720D01*
X152586280Y-93622569D01*
X152205874Y-93465000D01*
X151794126Y-93465000D01*
X151431993Y-93615000D01*
X150779456Y-93615000D01*
X150975134Y-93522389D01*
X151351041Y-93107423D01*
X151511904Y-92719039D01*
X151389915Y-92497000D01*
X150247000Y-92497000D01*
X150247000Y-92517000D01*
X149993000Y-92517000D01*
X149993000Y-92497000D01*
X148850085Y-92497000D01*
X148728096Y-92719039D01*
X148888959Y-93107423D01*
X149264866Y-93522389D01*
X149460544Y-93615000D01*
X144792007Y-93615000D01*
X144429874Y-93465000D01*
X144018126Y-93465000D01*
X143637720Y-93622569D01*
X143346569Y-93913720D01*
X143189000Y-94294126D01*
X87000876Y-94294126D01*
X89323728Y-90270829D01*
X96712188Y-90270829D01*
X96728710Y-90522907D01*
X96840440Y-90749473D01*
X97030369Y-90916036D01*
X98130221Y-91551036D01*
X98369433Y-91632238D01*
X98621511Y-91615716D01*
X98848077Y-91503986D01*
X99014640Y-91314057D01*
X99369166Y-90700000D01*
X111302560Y-90700000D01*
X111302560Y-92300000D01*
X111351843Y-92547765D01*
X111492191Y-92757809D01*
X111702235Y-92898157D01*
X111950000Y-92947440D01*
X113550000Y-92947440D01*
X113797765Y-92898157D01*
X114007809Y-92757809D01*
X114148157Y-92547765D01*
X114156117Y-92507745D01*
X114421861Y-92507745D01*
X114495995Y-92753864D01*
X115033223Y-92946965D01*
X115603454Y-92919778D01*
X116004005Y-92753864D01*
X116078139Y-92507745D01*
X115250000Y-91679605D01*
X114421861Y-92507745D01*
X114156117Y-92507745D01*
X114194693Y-92313813D01*
X114242255Y-92328139D01*
X115070395Y-91500000D01*
X115429605Y-91500000D01*
X116257745Y-92328139D01*
X116503864Y-92254005D01*
X116696965Y-91716777D01*
X116693782Y-91650000D01*
X123502560Y-91650000D01*
X123502560Y-93350000D01*
X123551843Y-93597765D01*
X123692191Y-93807809D01*
X123902235Y-93948157D01*
X124150000Y-93997440D01*
X125850000Y-93997440D01*
X126097765Y-93948157D01*
X126307809Y-93807809D01*
X126448157Y-93597765D01*
X126457184Y-93552381D01*
X126469375Y-93570625D01*
X126960582Y-93898839D01*
X127393744Y-93985000D01*
X127686256Y-93985000D01*
X128119418Y-93898839D01*
X128610625Y-93570625D01*
X128810000Y-93272239D01*
X129009375Y-93570625D01*
X129500582Y-93898839D01*
X129933744Y-93985000D01*
X130226256Y-93985000D01*
X130659418Y-93898839D01*
X131150625Y-93570625D01*
X131350000Y-93272239D01*
X131549375Y-93570625D01*
X132040582Y-93898839D01*
X132473744Y-93985000D01*
X132766256Y-93985000D01*
X133199418Y-93898839D01*
X133690625Y-93570625D01*
X133903843Y-93251522D01*
X133964817Y-93381358D01*
X134393076Y-93771645D01*
X134803110Y-93941476D01*
X135033000Y-93820155D01*
X135033000Y-92627000D01*
X135287000Y-92627000D01*
X135287000Y-93820155D01*
X135516890Y-93941476D01*
X135926924Y-93771645D01*
X136355183Y-93381358D01*
X136601486Y-92856892D01*
X136480819Y-92627000D01*
X135287000Y-92627000D01*
X135033000Y-92627000D01*
X135013000Y-92627000D01*
X135013000Y-92373000D01*
X135033000Y-92373000D01*
X135033000Y-91179845D01*
X135287000Y-91179845D01*
X135287000Y-92373000D01*
X136480819Y-92373000D01*
X136601486Y-92143108D01*
X136355183Y-91618642D01*
X135926924Y-91228355D01*
X135516890Y-91058524D01*
X135287000Y-91179845D01*
X135033000Y-91179845D01*
X134803110Y-91058524D01*
X134393076Y-91228355D01*
X133964817Y-91618642D01*
X133903843Y-91748478D01*
X133690625Y-91429375D01*
X133199418Y-91101161D01*
X132766256Y-91015000D01*
X132473744Y-91015000D01*
X132040582Y-91101161D01*
X131549375Y-91429375D01*
X131350000Y-91727761D01*
X131150625Y-91429375D01*
X130659418Y-91101161D01*
X130226256Y-91015000D01*
X129933744Y-91015000D01*
X129500582Y-91101161D01*
X129009375Y-91429375D01*
X128810000Y-91727761D01*
X128610625Y-91429375D01*
X128119418Y-91101161D01*
X127686256Y-91015000D01*
X127393744Y-91015000D01*
X126960582Y-91101161D01*
X126469375Y-91429375D01*
X126457184Y-91447619D01*
X126448157Y-91402235D01*
X126307809Y-91192191D01*
X126097765Y-91051843D01*
X125850000Y-91002560D01*
X124150000Y-91002560D01*
X123902235Y-91051843D01*
X123692191Y-91192191D01*
X123551843Y-91402235D01*
X123502560Y-91650000D01*
X116693782Y-91650000D01*
X116669778Y-91146546D01*
X116503864Y-90745995D01*
X116257745Y-90671861D01*
X115429605Y-91500000D01*
X115070395Y-91500000D01*
X114242255Y-90671861D01*
X114194693Y-90686187D01*
X114156118Y-90492255D01*
X114421861Y-90492255D01*
X115250000Y-91320395D01*
X116078139Y-90492255D01*
X116004005Y-90246136D01*
X115466777Y-90053035D01*
X114896546Y-90080222D01*
X114495995Y-90246136D01*
X114421861Y-90492255D01*
X114156118Y-90492255D01*
X114148157Y-90452235D01*
X114007809Y-90242191D01*
X113797765Y-90101843D01*
X113550000Y-90052560D01*
X111950000Y-90052560D01*
X111702235Y-90101843D01*
X111492191Y-90242191D01*
X111351843Y-90452235D01*
X111302560Y-90700000D01*
X99369166Y-90700000D01*
X99649640Y-90214205D01*
X99730842Y-89974993D01*
X99714320Y-89722915D01*
X99647716Y-89587856D01*
X99941568Y-89466138D01*
X100298825Y-89108881D01*
X100492171Y-88642103D01*
X100492171Y-88136865D01*
X100406698Y-87930516D01*
X100473010Y-87930516D01*
X100939788Y-87737170D01*
X101297045Y-87379913D01*
X101334288Y-87290000D01*
X141036887Y-87290000D01*
X141148260Y-87849909D01*
X141465423Y-88324577D01*
X141817758Y-88560000D01*
X141465423Y-88795423D01*
X141148260Y-89270091D01*
X141036887Y-89830000D01*
X141148260Y-90389909D01*
X141465423Y-90864577D01*
X141817758Y-91100000D01*
X141465423Y-91335423D01*
X141148260Y-91810091D01*
X141036887Y-92370000D01*
X141148260Y-92929909D01*
X141465423Y-93404577D01*
X141940091Y-93721740D01*
X142358667Y-93805000D01*
X142641333Y-93805000D01*
X143059909Y-93721740D01*
X143534577Y-93404577D01*
X143851740Y-92929909D01*
X143963113Y-92370000D01*
X143851740Y-91810091D01*
X143534577Y-91335423D01*
X143182242Y-91100000D01*
X143534577Y-90864577D01*
X143851740Y-90389909D01*
X143963113Y-89830000D01*
X143908239Y-89554126D01*
X146237000Y-89554126D01*
X146237000Y-89965874D01*
X146394569Y-90346280D01*
X146685720Y-90637431D01*
X147066126Y-90795000D01*
X147477874Y-90795000D01*
X147671011Y-90715000D01*
X148781136Y-90715000D01*
X148836015Y-90716910D01*
X148874825Y-90721104D01*
X148908926Y-90727465D01*
X148939168Y-90735657D01*
X148966575Y-90745570D01*
X148992224Y-90757364D01*
X149017138Y-90771468D01*
X149028289Y-90779069D01*
X149085423Y-90864577D01*
X149469108Y-91120947D01*
X149264866Y-91217611D01*
X148888959Y-91632577D01*
X148728096Y-92020961D01*
X148850085Y-92243000D01*
X149993000Y-92243000D01*
X149993000Y-92223000D01*
X150247000Y-92223000D01*
X150247000Y-92243000D01*
X151389915Y-92243000D01*
X151511904Y-92020961D01*
X151351041Y-91632577D01*
X150975134Y-91217611D01*
X150770892Y-91120947D01*
X151154577Y-90864577D01*
X151471740Y-90389909D01*
X151526531Y-90114456D01*
X160458735Y-90114456D01*
X160554087Y-90610614D01*
X160765433Y-90931399D01*
X160749925Y-90946907D01*
X160825330Y-91022312D01*
X160832052Y-91032515D01*
X160847013Y-91043995D01*
X160929533Y-91126515D01*
X160940397Y-91115651D01*
X161113432Y-91248425D01*
X161120611Y-91246261D01*
X161584052Y-91246261D01*
X161745194Y-91417705D01*
X162241352Y-91322353D01*
X162562137Y-91111007D01*
X162577645Y-91126515D01*
X162653050Y-91051110D01*
X162663253Y-91044388D01*
X162674733Y-91029427D01*
X162757253Y-90946907D01*
X162746389Y-90936043D01*
X162879163Y-90763008D01*
X162811259Y-90537733D01*
X162178544Y-90368198D01*
X161947338Y-90136992D01*
X161767730Y-90316600D01*
X161819329Y-90368199D01*
X161584052Y-91246261D01*
X161120611Y-91246261D01*
X161338707Y-91180521D01*
X161508242Y-90547806D01*
X161739448Y-90316600D01*
X161559840Y-90136992D01*
X161508241Y-90188591D01*
X160630179Y-89953314D01*
X160458735Y-90114456D01*
X151526531Y-90114456D01*
X151583113Y-89830000D01*
X151471740Y-89270091D01*
X151154577Y-88795423D01*
X150802242Y-88560000D01*
X151154577Y-88324577D01*
X151471740Y-87849909D01*
X151583113Y-87290000D01*
X151471740Y-86730091D01*
X151154577Y-86255423D01*
X150802242Y-86020000D01*
X151154577Y-85784577D01*
X151471740Y-85309909D01*
X151577286Y-84779291D01*
X157244418Y-84779291D01*
X157325620Y-85018503D01*
X157960620Y-86118355D01*
X158127183Y-86308284D01*
X158353749Y-86420014D01*
X158484609Y-86428591D01*
X158484609Y-86913135D01*
X158677955Y-87379913D01*
X159035212Y-87737170D01*
X159501990Y-87930516D01*
X159568302Y-87930516D01*
X159482829Y-88136865D01*
X159482829Y-88642103D01*
X159676175Y-89108881D01*
X160033432Y-89466138D01*
X160500210Y-89659484D01*
X160681304Y-89659484D01*
X160695919Y-89707969D01*
X161328634Y-89877504D01*
X161559840Y-90108710D01*
X161739448Y-89929102D01*
X161767730Y-89929102D01*
X161947338Y-90108710D01*
X161998937Y-90057111D01*
X162876999Y-90292388D01*
X163048443Y-90131246D01*
X162953091Y-89635088D01*
X162741745Y-89314303D01*
X162757253Y-89298795D01*
X162681848Y-89223390D01*
X162675126Y-89213187D01*
X162660165Y-89201707D01*
X162577645Y-89119187D01*
X162566781Y-89130051D01*
X162393746Y-88997277D01*
X162168471Y-89065181D01*
X161998936Y-89697896D01*
X161767730Y-89929102D01*
X161739448Y-89929102D01*
X161687849Y-89877503D01*
X161923126Y-88999441D01*
X161889593Y-88963764D01*
X162022829Y-88642103D01*
X162022829Y-88136865D01*
X161829483Y-87670087D01*
X161472226Y-87312830D01*
X161005448Y-87119484D01*
X160939136Y-87119484D01*
X161024609Y-86913135D01*
X161024609Y-86407897D01*
X160831263Y-85941119D01*
X160474006Y-85583862D01*
X160180030Y-85462093D01*
X160246550Y-85327205D01*
X160263072Y-85075127D01*
X160181870Y-84835915D01*
X159546870Y-83736063D01*
X159380307Y-83546134D01*
X159153741Y-83434404D01*
X158901663Y-83417882D01*
X158662451Y-83499084D01*
X157562599Y-84134084D01*
X157372670Y-84300647D01*
X157260940Y-84527213D01*
X157244418Y-84779291D01*
X151577286Y-84779291D01*
X151583113Y-84750000D01*
X151471740Y-84190091D01*
X151154577Y-83715423D01*
X150679909Y-83398260D01*
X150261333Y-83315000D01*
X149978667Y-83315000D01*
X149560091Y-83398260D01*
X149085423Y-83715423D01*
X148768260Y-84190091D01*
X148656887Y-84750000D01*
X148768260Y-85309909D01*
X149085423Y-85784577D01*
X149437758Y-86020000D01*
X149085423Y-86255423D01*
X148768260Y-86730091D01*
X148656887Y-87290000D01*
X148768260Y-87849909D01*
X149085423Y-88324577D01*
X149437758Y-88560000D01*
X149085423Y-88795423D01*
X149028290Y-88880929D01*
X149017138Y-88888531D01*
X148992224Y-88902635D01*
X148966575Y-88914429D01*
X148939168Y-88924342D01*
X148908926Y-88932534D01*
X148874825Y-88938895D01*
X148836002Y-88943090D01*
X148781152Y-88945000D01*
X147943917Y-88945000D01*
X147930145Y-88941298D01*
X147911876Y-88936165D01*
X147858280Y-88882569D01*
X147477874Y-88725000D01*
X147066126Y-88725000D01*
X146685720Y-88882569D01*
X146394569Y-89173720D01*
X146237000Y-89554126D01*
X143908239Y-89554126D01*
X143851740Y-89270091D01*
X143534577Y-88795423D01*
X143182242Y-88560000D01*
X143534577Y-88324577D01*
X143851740Y-87849909D01*
X143963113Y-87290000D01*
X143851740Y-86730091D01*
X143534577Y-86255423D01*
X143413894Y-86174785D01*
X143547765Y-86148157D01*
X143757809Y-86007809D01*
X143898157Y-85797765D01*
X143930533Y-85635000D01*
X145856989Y-85635000D01*
X146050126Y-85715000D01*
X146461874Y-85715000D01*
X146842280Y-85557431D01*
X147133431Y-85266280D01*
X147291000Y-84885874D01*
X147291000Y-84474126D01*
X147133431Y-84093720D01*
X146842280Y-83802569D01*
X146461874Y-83645000D01*
X146050126Y-83645000D01*
X145669720Y-83802569D01*
X145616124Y-83856165D01*
X145597854Y-83861298D01*
X145584081Y-83865000D01*
X143930533Y-83865000D01*
X143898157Y-83702235D01*
X143757809Y-83492191D01*
X143547765Y-83351843D01*
X143300000Y-83302560D01*
X141700000Y-83302560D01*
X141452235Y-83351843D01*
X141242191Y-83492191D01*
X141101843Y-83702235D01*
X141052560Y-83950000D01*
X141052560Y-85550000D01*
X141101843Y-85797765D01*
X141242191Y-86007809D01*
X141452235Y-86148157D01*
X141586106Y-86174785D01*
X141465423Y-86255423D01*
X141148260Y-86730091D01*
X141036887Y-87290000D01*
X101334288Y-87290000D01*
X101490391Y-86913135D01*
X101490391Y-86407897D01*
X101357155Y-86086236D01*
X101390688Y-86050559D01*
X101155411Y-85172497D01*
X101207010Y-85120898D01*
X101103064Y-85016952D01*
X101376694Y-85016952D01*
X101636033Y-85984819D01*
X101861308Y-86052723D01*
X102243317Y-85722067D01*
X102469711Y-85270392D01*
X102516005Y-84918754D01*
X102344561Y-84757612D01*
X101376694Y-85016952D01*
X101103064Y-85016952D01*
X101027402Y-84941290D01*
X100796196Y-85172496D01*
X100163481Y-85342031D01*
X100148866Y-85390516D01*
X99967772Y-85390516D01*
X99500994Y-85583862D01*
X99143737Y-85941119D01*
X98950391Y-86407897D01*
X98950391Y-86913135D01*
X99035864Y-87119484D01*
X98969552Y-87119484D01*
X98502774Y-87312830D01*
X98145517Y-87670087D01*
X97952171Y-88136865D01*
X97952171Y-88621543D01*
X97821519Y-88630106D01*
X97594953Y-88741836D01*
X97428390Y-88931765D01*
X96793390Y-90031617D01*
X96712188Y-90270829D01*
X89323728Y-90270829D01*
X92404056Y-84935544D01*
X99926297Y-84935544D01*
X100097741Y-85096686D01*
X101065608Y-84837346D01*
X100806269Y-83869479D01*
X100588174Y-83803739D01*
X101051614Y-83803739D01*
X101310954Y-84771606D01*
X102278821Y-84512267D01*
X102346725Y-84286992D01*
X102016069Y-83904983D01*
X101564394Y-83678589D01*
X101212756Y-83632295D01*
X101051614Y-83803739D01*
X100588174Y-83803739D01*
X100580994Y-83801575D01*
X100198985Y-84132231D01*
X99972591Y-84583906D01*
X99926297Y-84935544D01*
X92404056Y-84935544D01*
X101292677Y-69540000D01*
X113985908Y-69540000D01*
X114101161Y-70119418D01*
X114429375Y-70610625D01*
X114727761Y-70810000D01*
X114429375Y-71009375D01*
X114101161Y-71500582D01*
X113985908Y-72080000D01*
X114101161Y-72659418D01*
X114429375Y-73150625D01*
X114727761Y-73350000D01*
X114429375Y-73549375D01*
X114101161Y-74040582D01*
X113985908Y-74620000D01*
X114101161Y-75199418D01*
X114429375Y-75690625D01*
X114727761Y-75890000D01*
X114429375Y-76089375D01*
X114101161Y-76580582D01*
X113985908Y-77160000D01*
X114101161Y-77739418D01*
X114429375Y-78230625D01*
X114727761Y-78430000D01*
X114429375Y-78629375D01*
X114101161Y-79120582D01*
X113985908Y-79700000D01*
X114101161Y-80279418D01*
X114429375Y-80770625D01*
X114920582Y-81098839D01*
X115353744Y-81185000D01*
X115646256Y-81185000D01*
X116079418Y-81098839D01*
X116570625Y-80770625D01*
X116898839Y-80279418D01*
X117014092Y-79700000D01*
X116898839Y-79120582D01*
X116570625Y-78629375D01*
X116272239Y-78430000D01*
X116570625Y-78230625D01*
X116898839Y-77739418D01*
X117014092Y-77160000D01*
X116898839Y-76580582D01*
X116570625Y-76089375D01*
X116272239Y-75890000D01*
X116570625Y-75690625D01*
X116898839Y-75199418D01*
X117014092Y-74620000D01*
X116898839Y-74040582D01*
X116570625Y-73549375D01*
X116272239Y-73350000D01*
X116570625Y-73150625D01*
X116898839Y-72659418D01*
X117014092Y-72080000D01*
X116898839Y-71500582D01*
X116570625Y-71009375D01*
X116272239Y-70810000D01*
X116570625Y-70610625D01*
X116898839Y-70119418D01*
X117014092Y-69540000D01*
X116898839Y-68960582D01*
X116570625Y-68469375D01*
X116548967Y-68454904D01*
X116709698Y-68388327D01*
X116888327Y-68209699D01*
X116985000Y-67976310D01*
X116985000Y-67285750D01*
X116826250Y-67127000D01*
X115627000Y-67127000D01*
X115627000Y-67147000D01*
X115373000Y-67147000D01*
X115373000Y-67127000D01*
X114173750Y-67127000D01*
X114015000Y-67285750D01*
X114015000Y-67976310D01*
X114111673Y-68209699D01*
X114290302Y-68388327D01*
X114451033Y-68454904D01*
X114429375Y-68469375D01*
X114101161Y-68960582D01*
X113985908Y-69540000D01*
X101292677Y-69540000D01*
X103015819Y-66555431D01*
X105765000Y-66555431D01*
X105765000Y-67444569D01*
X106105259Y-68266026D01*
X106733974Y-68894741D01*
X107555431Y-69235000D01*
X108444569Y-69235000D01*
X109266026Y-68894741D01*
X109894741Y-68266026D01*
X110235000Y-67444569D01*
X110235000Y-66555431D01*
X110014746Y-66023690D01*
X114015000Y-66023690D01*
X114015000Y-66714250D01*
X114173750Y-66873000D01*
X115373000Y-66873000D01*
X115373000Y-65673750D01*
X115627000Y-65673750D01*
X115627000Y-66873000D01*
X116826250Y-66873000D01*
X116985000Y-66714250D01*
X116985000Y-66023690D01*
X116888327Y-65790301D01*
X116709698Y-65611673D01*
X116476309Y-65515000D01*
X115785750Y-65515000D01*
X115627000Y-65673750D01*
X115373000Y-65673750D01*
X115214250Y-65515000D01*
X114523691Y-65515000D01*
X114290302Y-65611673D01*
X114111673Y-65790301D01*
X114015000Y-66023690D01*
X110014746Y-66023690D01*
X109894741Y-65733974D01*
X109266026Y-65105259D01*
X108444569Y-64765000D01*
X107555431Y-64765000D01*
X106733974Y-65105259D01*
X106105259Y-65733974D01*
X105765000Y-66555431D01*
X103015819Y-66555431D01*
X104339863Y-64262119D01*
X120983000Y-64262119D01*
X120983000Y-64817881D01*
X121195680Y-65331337D01*
X121588663Y-65724320D01*
X121795513Y-65810000D01*
X121588663Y-65895680D01*
X121195680Y-66288663D01*
X120983000Y-66802119D01*
X120983000Y-67357881D01*
X121195680Y-67871337D01*
X121588663Y-68264320D01*
X121795513Y-68350000D01*
X121588663Y-68435680D01*
X121195680Y-68828663D01*
X120983000Y-69342119D01*
X120983000Y-69897881D01*
X121195680Y-70411337D01*
X121588663Y-70804320D01*
X121795513Y-70890000D01*
X121588663Y-70975680D01*
X121195680Y-71368663D01*
X120983000Y-71882119D01*
X120983000Y-72437881D01*
X121195680Y-72951337D01*
X121588663Y-73344320D01*
X121795513Y-73430000D01*
X121588663Y-73515680D01*
X121195680Y-73908663D01*
X120983000Y-74422119D01*
X120983000Y-74977881D01*
X121195680Y-75491337D01*
X121588663Y-75884320D01*
X121795513Y-75970000D01*
X121588663Y-76055680D01*
X121195680Y-76448663D01*
X120983000Y-76962119D01*
X120983000Y-77517881D01*
X121195680Y-78031337D01*
X121588663Y-78424320D01*
X121795513Y-78510000D01*
X121588663Y-78595680D01*
X121195680Y-78988663D01*
X120983000Y-79502119D01*
X120983000Y-80057881D01*
X121195680Y-80571337D01*
X121588663Y-80964320D01*
X122102119Y-81177000D01*
X122380195Y-81177000D01*
X122423491Y-81178202D01*
X122449370Y-81180954D01*
X122472218Y-81185281D01*
X122493038Y-81191053D01*
X122512967Y-81198431D01*
X122533014Y-81207832D01*
X122554073Y-81219918D01*
X122576749Y-81235467D01*
X122601432Y-81255339D01*
X122636061Y-81287639D01*
X123544577Y-82196156D01*
X123593951Y-82270049D01*
X123667844Y-82319423D01*
X123667845Y-82319424D01*
X123856176Y-82445263D01*
X123886690Y-82465652D01*
X124144835Y-82517000D01*
X124144839Y-82517000D01*
X124232000Y-82534337D01*
X124319161Y-82517000D01*
X131971993Y-82517000D01*
X132334126Y-82667000D01*
X132745874Y-82667000D01*
X133126280Y-82509431D01*
X133417431Y-82218280D01*
X133575000Y-81837874D01*
X133575000Y-81426126D01*
X134680000Y-81426126D01*
X134680000Y-81837874D01*
X134837569Y-82218280D01*
X135128720Y-82509431D01*
X135509126Y-82667000D01*
X135920874Y-82667000D01*
X136301280Y-82509431D01*
X136592431Y-82218280D01*
X136750000Y-81837874D01*
X136750000Y-81426126D01*
X136600000Y-81063993D01*
X136600000Y-80735657D01*
X136828663Y-80964320D01*
X137342119Y-81177000D01*
X137897881Y-81177000D01*
X138411337Y-80964320D01*
X138804320Y-80571337D01*
X139017000Y-80057881D01*
X139017000Y-79502119D01*
X138804320Y-78988663D01*
X138411337Y-78595680D01*
X138204487Y-78510000D01*
X138411337Y-78424320D01*
X138804320Y-78031337D01*
X139017000Y-77517881D01*
X139017000Y-76964561D01*
X143065000Y-76964561D01*
X143065000Y-77535439D01*
X143283466Y-78062862D01*
X143687138Y-78466534D01*
X144214561Y-78685000D01*
X144785439Y-78685000D01*
X145312862Y-78466534D01*
X145716534Y-78062862D01*
X145935000Y-77535439D01*
X145935000Y-76964561D01*
X145716534Y-76437138D01*
X145312862Y-76033466D01*
X144785439Y-75815000D01*
X144214561Y-75815000D01*
X143687138Y-76033466D01*
X143283466Y-76437138D01*
X143065000Y-76964561D01*
X139017000Y-76964561D01*
X139017000Y-76962119D01*
X138804320Y-76448663D01*
X138411337Y-76055680D01*
X138204487Y-75970000D01*
X138411337Y-75884320D01*
X138804320Y-75491337D01*
X139017000Y-74977881D01*
X139017000Y-74422119D01*
X138804320Y-73908663D01*
X138411337Y-73515680D01*
X138204487Y-73430000D01*
X138411337Y-73344320D01*
X138804320Y-72951337D01*
X139017000Y-72437881D01*
X139017000Y-71882119D01*
X138804320Y-71368663D01*
X138411337Y-70975680D01*
X138204487Y-70890000D01*
X138411337Y-70804320D01*
X138804320Y-70411337D01*
X139017000Y-69897881D01*
X139017000Y-69630000D01*
X143036887Y-69630000D01*
X143148260Y-70189909D01*
X143465423Y-70664577D01*
X143940091Y-70981740D01*
X144358667Y-71065000D01*
X144641333Y-71065000D01*
X145059909Y-70981740D01*
X145534577Y-70664577D01*
X145851740Y-70189909D01*
X145963113Y-69630000D01*
X145851740Y-69070091D01*
X145534577Y-68595423D01*
X145059909Y-68278260D01*
X144641333Y-68195000D01*
X144358667Y-68195000D01*
X143940091Y-68278260D01*
X143465423Y-68595423D01*
X143148260Y-69070091D01*
X143036887Y-69630000D01*
X139017000Y-69630000D01*
X139017000Y-69342119D01*
X138804320Y-68828663D01*
X138411337Y-68435680D01*
X138220353Y-68356572D01*
X138351143Y-68302397D01*
X138420608Y-68060213D01*
X137620000Y-67259605D01*
X136819392Y-68060213D01*
X136888857Y-68302397D01*
X137029393Y-68352535D01*
X136828663Y-68435680D01*
X136435680Y-68828663D01*
X136223000Y-69342119D01*
X136223000Y-69897881D01*
X136435680Y-70411337D01*
X136828663Y-70804320D01*
X137035513Y-70890000D01*
X136828663Y-70975680D01*
X136631080Y-71173263D01*
X136597806Y-71204963D01*
X136575551Y-71223308D01*
X136555525Y-71237409D01*
X136537410Y-71248122D01*
X136520641Y-71256263D01*
X136504403Y-71262524D01*
X136487662Y-71267403D01*
X136480378Y-71268877D01*
X136423999Y-71257663D01*
X136336839Y-71275000D01*
X136336835Y-71275000D01*
X136078690Y-71326348D01*
X135970880Y-71398385D01*
X135859845Y-71472576D01*
X135859844Y-71472577D01*
X135785951Y-71521951D01*
X135736577Y-71595844D01*
X135150847Y-72181575D01*
X135076951Y-72230951D01*
X134881348Y-72523691D01*
X134830000Y-72781836D01*
X134830000Y-72781839D01*
X134812663Y-72869000D01*
X134830000Y-72956161D01*
X134830001Y-81063991D01*
X134680000Y-81426126D01*
X133575000Y-81426126D01*
X133417431Y-81045720D01*
X133126280Y-80754569D01*
X132745874Y-80597000D01*
X132334126Y-80597000D01*
X131971993Y-80747000D01*
X124598579Y-80747000D01*
X123887639Y-80036061D01*
X123855339Y-80001432D01*
X123835467Y-79976749D01*
X123819918Y-79954073D01*
X123807832Y-79933014D01*
X123798431Y-79912967D01*
X123791053Y-79893038D01*
X123785281Y-79872218D01*
X123780954Y-79849370D01*
X123778202Y-79823491D01*
X123777000Y-79780195D01*
X123777000Y-79502119D01*
X123564320Y-78988663D01*
X123171337Y-78595680D01*
X122964487Y-78510000D01*
X123171337Y-78424320D01*
X123564320Y-78031337D01*
X123777000Y-77517881D01*
X123777000Y-76962119D01*
X123564320Y-76448663D01*
X123171337Y-76055680D01*
X122964487Y-75970000D01*
X123171337Y-75884320D01*
X123564320Y-75491337D01*
X123777000Y-74977881D01*
X123777000Y-74422119D01*
X123564320Y-73908663D01*
X123171337Y-73515680D01*
X122964487Y-73430000D01*
X123171337Y-73344320D01*
X123564320Y-72951337D01*
X123777000Y-72437881D01*
X123777000Y-71882119D01*
X123564320Y-71368663D01*
X123171337Y-70975680D01*
X122964487Y-70890000D01*
X123171337Y-70804320D01*
X123564320Y-70411337D01*
X123777000Y-69897881D01*
X123777000Y-69342119D01*
X123564320Y-68828663D01*
X123171337Y-68435680D01*
X122964487Y-68350000D01*
X123171337Y-68264320D01*
X123564320Y-67871337D01*
X123777000Y-67357881D01*
X123777000Y-66872302D01*
X136210856Y-66872302D01*
X136238638Y-67427368D01*
X136397603Y-67811143D01*
X136639787Y-67880608D01*
X137440395Y-67080000D01*
X137799605Y-67080000D01*
X138600213Y-67880608D01*
X138842397Y-67811143D01*
X139029144Y-67287698D01*
X139001362Y-66732632D01*
X138927963Y-66555431D01*
X149765000Y-66555431D01*
X149765000Y-67444569D01*
X150105259Y-68266026D01*
X150733974Y-68894741D01*
X151555431Y-69235000D01*
X152444569Y-69235000D01*
X153266026Y-68894741D01*
X153894741Y-68266026D01*
X154235000Y-67444569D01*
X154235000Y-66555431D01*
X153894741Y-65733974D01*
X153266026Y-65105259D01*
X152444569Y-64765000D01*
X151555431Y-64765000D01*
X150733974Y-65105259D01*
X150105259Y-65733974D01*
X149765000Y-66555431D01*
X138927963Y-66555431D01*
X138842397Y-66348857D01*
X138600213Y-66279392D01*
X137799605Y-67080000D01*
X137440395Y-67080000D01*
X136639787Y-66279392D01*
X136397603Y-66348857D01*
X136210856Y-66872302D01*
X123777000Y-66872302D01*
X123777000Y-66802119D01*
X123564320Y-66288663D01*
X123171337Y-65895680D01*
X122964487Y-65810000D01*
X123171337Y-65724320D01*
X123564320Y-65331337D01*
X123777000Y-64817881D01*
X123777000Y-64262119D01*
X136223000Y-64262119D01*
X136223000Y-64817881D01*
X136435680Y-65331337D01*
X136828663Y-65724320D01*
X137019647Y-65803428D01*
X136888857Y-65857603D01*
X136819392Y-66099787D01*
X137620000Y-66900395D01*
X138420608Y-66099787D01*
X138351143Y-65857603D01*
X138210607Y-65807465D01*
X138411337Y-65724320D01*
X138804320Y-65331337D01*
X139017000Y-64817881D01*
X139017000Y-64262119D01*
X138804320Y-63748663D01*
X138411337Y-63355680D01*
X137897881Y-63143000D01*
X137342119Y-63143000D01*
X136828663Y-63355680D01*
X136435680Y-63748663D01*
X136223000Y-64262119D01*
X123777000Y-64262119D01*
X123564320Y-63748663D01*
X123171337Y-63355680D01*
X122657881Y-63143000D01*
X122102119Y-63143000D01*
X121588663Y-63355680D01*
X121195680Y-63748663D01*
X120983000Y-64262119D01*
X104339863Y-64262119D01*
X105409919Y-62408730D01*
X154590082Y-62408730D01*
X179180163Y-105000000D01*
D25*
G04 #@! TO.N,5V*
G36*
X125407633Y-106628381D02*
X125407634Y-106628505D01*
X125408636Y-106699814D01*
X125408639Y-106699969D01*
X125410309Y-106763658D01*
X125410316Y-106763854D01*
X125412654Y-106819925D01*
X125412667Y-106820182D01*
X125415673Y-106868634D01*
X125415700Y-106868986D01*
X125419374Y-106909819D01*
X125419430Y-106910327D01*
X125423772Y-106943541D01*
X125423902Y-106944335D01*
X125428912Y-106969930D01*
X125429265Y-106971315D01*
X125434943Y-106989291D01*
X125436224Y-106992101D01*
X125438627Y-106996022D01*
X124920000Y-107895574D01*
X124401373Y-106996022D01*
X124403775Y-106992101D01*
X124405056Y-106989291D01*
X124410734Y-106971315D01*
X124411087Y-106969930D01*
X124416097Y-106944335D01*
X124416227Y-106943541D01*
X124420569Y-106910327D01*
X124420625Y-106909819D01*
X124424299Y-106868986D01*
X124424326Y-106868634D01*
X124427332Y-106820182D01*
X124427345Y-106819925D01*
X124429683Y-106763854D01*
X124429690Y-106763658D01*
X124431360Y-106699969D01*
X124431363Y-106699814D01*
X124432365Y-106628505D01*
X124432366Y-106628381D01*
X124432646Y-106562100D01*
X125407353Y-106562100D01*
X125407633Y-106628381D01*
X125407633Y-106628381D01*
G37*
X125407633Y-106628381D02*
X125407634Y-106628505D01*
X125408636Y-106699814D01*
X125408639Y-106699969D01*
X125410309Y-106763658D01*
X125410316Y-106763854D01*
X125412654Y-106819925D01*
X125412667Y-106820182D01*
X125415673Y-106868634D01*
X125415700Y-106868986D01*
X125419374Y-106909819D01*
X125419430Y-106910327D01*
X125423772Y-106943541D01*
X125423902Y-106944335D01*
X125428912Y-106969930D01*
X125429265Y-106971315D01*
X125434943Y-106989291D01*
X125436224Y-106992101D01*
X125438627Y-106996022D01*
X124920000Y-107895574D01*
X124401373Y-106996022D01*
X124403775Y-106992101D01*
X124405056Y-106989291D01*
X124410734Y-106971315D01*
X124411087Y-106969930D01*
X124416097Y-106944335D01*
X124416227Y-106943541D01*
X124420569Y-106910327D01*
X124420625Y-106909819D01*
X124424299Y-106868986D01*
X124424326Y-106868634D01*
X124427332Y-106820182D01*
X124427345Y-106819925D01*
X124429683Y-106763854D01*
X124429690Y-106763658D01*
X124431360Y-106699969D01*
X124431363Y-106699814D01*
X124432365Y-106628505D01*
X124432366Y-106628381D01*
X124432646Y-106562100D01*
X125407353Y-106562100D01*
X125407633Y-106628381D01*
G36*
X125438627Y-103003978D02*
X125436225Y-103007897D01*
X125434943Y-103010708D01*
X125429265Y-103028684D01*
X125428912Y-103030069D01*
X125423902Y-103055664D01*
X125423772Y-103056458D01*
X125419430Y-103089672D01*
X125419374Y-103090180D01*
X125415700Y-103131013D01*
X125415673Y-103131365D01*
X125412667Y-103179817D01*
X125412654Y-103180074D01*
X125410316Y-103236145D01*
X125410309Y-103236341D01*
X125408639Y-103300030D01*
X125408636Y-103300185D01*
X125407634Y-103371494D01*
X125407633Y-103371618D01*
X125407353Y-103437900D01*
X124432646Y-103437900D01*
X124432366Y-103371618D01*
X124432365Y-103371494D01*
X124431363Y-103300185D01*
X124431360Y-103300030D01*
X124429690Y-103236341D01*
X124429683Y-103236145D01*
X124427345Y-103180074D01*
X124427332Y-103179817D01*
X124424326Y-103131365D01*
X124424299Y-103131013D01*
X124420625Y-103090180D01*
X124420569Y-103089672D01*
X124416227Y-103056458D01*
X124416097Y-103055664D01*
X124411087Y-103030069D01*
X124410734Y-103028684D01*
X124405056Y-103010708D01*
X124403775Y-103007898D01*
X124401373Y-103003978D01*
X124920000Y-102104426D01*
X125438627Y-103003978D01*
X125438627Y-103003978D01*
G37*
X125438627Y-103003978D02*
X125436225Y-103007897D01*
X125434943Y-103010708D01*
X125429265Y-103028684D01*
X125428912Y-103030069D01*
X125423902Y-103055664D01*
X125423772Y-103056458D01*
X125419430Y-103089672D01*
X125419374Y-103090180D01*
X125415700Y-103131013D01*
X125415673Y-103131365D01*
X125412667Y-103179817D01*
X125412654Y-103180074D01*
X125410316Y-103236145D01*
X125410309Y-103236341D01*
X125408639Y-103300030D01*
X125408636Y-103300185D01*
X125407634Y-103371494D01*
X125407633Y-103371618D01*
X125407353Y-103437900D01*
X124432646Y-103437900D01*
X124432366Y-103371618D01*
X124432365Y-103371494D01*
X124431363Y-103300185D01*
X124431360Y-103300030D01*
X124429690Y-103236341D01*
X124429683Y-103236145D01*
X124427345Y-103180074D01*
X124427332Y-103179817D01*
X124424326Y-103131365D01*
X124424299Y-103131013D01*
X124420625Y-103090180D01*
X124420569Y-103089672D01*
X124416227Y-103056458D01*
X124416097Y-103055664D01*
X124411087Y-103030069D01*
X124410734Y-103028684D01*
X124405056Y-103010708D01*
X124403775Y-103007898D01*
X124401373Y-103003978D01*
X124920000Y-102104426D01*
X125438627Y-103003978D01*
G04 #@! TO.N,3V3*
G36*
X146430574Y-84680000D02*
X145970470Y-84945268D01*
X145968538Y-84944109D01*
X145964811Y-84942614D01*
X145951564Y-84939614D01*
X145949457Y-84939319D01*
X145931299Y-84938319D01*
X145930051Y-84938312D01*
X145906983Y-84939312D01*
X145906179Y-84939372D01*
X145878200Y-84942372D01*
X145877645Y-84942444D01*
X145844755Y-84947444D01*
X145844351Y-84947512D01*
X145806551Y-84954512D01*
X145806245Y-84954573D01*
X145763534Y-84963573D01*
X145763295Y-84963626D01*
X145715674Y-84974626D01*
X145715481Y-84974672D01*
X145678700Y-84983774D01*
X145678700Y-84509831D01*
X145721715Y-84498695D01*
X145721829Y-84498665D01*
X145769450Y-84485865D01*
X145769588Y-84485827D01*
X145812299Y-84473827D01*
X145812472Y-84473777D01*
X145850272Y-84462577D01*
X145850493Y-84462509D01*
X145883383Y-84452109D01*
X145883676Y-84452013D01*
X145911655Y-84442413D01*
X145912060Y-84442266D01*
X145935128Y-84433466D01*
X145935721Y-84433222D01*
X145953879Y-84425222D01*
X145954824Y-84424758D01*
X145968071Y-84417558D01*
X145969739Y-84416474D01*
X145971348Y-84415239D01*
X146430574Y-84680000D01*
X146430574Y-84680000D01*
G37*
X146430574Y-84680000D02*
X145970470Y-84945268D01*
X145968538Y-84944109D01*
X145964811Y-84942614D01*
X145951564Y-84939614D01*
X145949457Y-84939319D01*
X145931299Y-84938319D01*
X145930051Y-84938312D01*
X145906983Y-84939312D01*
X145906179Y-84939372D01*
X145878200Y-84942372D01*
X145877645Y-84942444D01*
X145844755Y-84947444D01*
X145844351Y-84947512D01*
X145806551Y-84954512D01*
X145806245Y-84954573D01*
X145763534Y-84963573D01*
X145763295Y-84963626D01*
X145715674Y-84974626D01*
X145715481Y-84974672D01*
X145678700Y-84983774D01*
X145678700Y-84509831D01*
X145721715Y-84498695D01*
X145721829Y-84498665D01*
X145769450Y-84485865D01*
X145769588Y-84485827D01*
X145812299Y-84473827D01*
X145812472Y-84473777D01*
X145850272Y-84462577D01*
X145850493Y-84462509D01*
X145883383Y-84452109D01*
X145883676Y-84452013D01*
X145911655Y-84442413D01*
X145912060Y-84442266D01*
X145935128Y-84433466D01*
X145935721Y-84433222D01*
X145953879Y-84425222D01*
X145954824Y-84424758D01*
X145968071Y-84417558D01*
X145969739Y-84416474D01*
X145971348Y-84415239D01*
X146430574Y-84680000D01*
G36*
X143124845Y-84258126D02*
X143125592Y-84258779D01*
X143190828Y-84311479D01*
X143191655Y-84312094D01*
X143259866Y-84358594D01*
X143260763Y-84359152D01*
X143331949Y-84399452D01*
X143332900Y-84399939D01*
X143407062Y-84434039D01*
X143408048Y-84434443D01*
X143485185Y-84462343D01*
X143486185Y-84462658D01*
X143566298Y-84484358D01*
X143567289Y-84484585D01*
X143650377Y-84500085D01*
X143651342Y-84500226D01*
X143737405Y-84509526D01*
X143738327Y-84509592D01*
X143815109Y-84512265D01*
X143815109Y-84987735D01*
X143738327Y-84990407D01*
X143737405Y-84990473D01*
X143651342Y-84999773D01*
X143650377Y-84999914D01*
X143567289Y-85015414D01*
X143566298Y-85015641D01*
X143486185Y-85037341D01*
X143485185Y-85037656D01*
X143408048Y-85065556D01*
X143407062Y-85065960D01*
X143332900Y-85100060D01*
X143331949Y-85100547D01*
X143260763Y-85140847D01*
X143259866Y-85141405D01*
X143191655Y-85187905D01*
X143190828Y-85188520D01*
X143125592Y-85241220D01*
X143124845Y-85241873D01*
X143069459Y-85294272D01*
X142125426Y-84750000D01*
X143069459Y-84205728D01*
X143124845Y-84258126D01*
X143124845Y-84258126D01*
G37*
X143124845Y-84258126D02*
X143125592Y-84258779D01*
X143190828Y-84311479D01*
X143191655Y-84312094D01*
X143259866Y-84358594D01*
X143260763Y-84359152D01*
X143331949Y-84399452D01*
X143332900Y-84399939D01*
X143407062Y-84434039D01*
X143408048Y-84434443D01*
X143485185Y-84462343D01*
X143486185Y-84462658D01*
X143566298Y-84484358D01*
X143567289Y-84484585D01*
X143650377Y-84500085D01*
X143651342Y-84500226D01*
X143737405Y-84509526D01*
X143738327Y-84509592D01*
X143815109Y-84512265D01*
X143815109Y-84987735D01*
X143738327Y-84990407D01*
X143737405Y-84990473D01*
X143651342Y-84999773D01*
X143650377Y-84999914D01*
X143567289Y-85015414D01*
X143566298Y-85015641D01*
X143486185Y-85037341D01*
X143485185Y-85037656D01*
X143408048Y-85065556D01*
X143407062Y-85065960D01*
X143332900Y-85100060D01*
X143331949Y-85100547D01*
X143260763Y-85140847D01*
X143259866Y-85141405D01*
X143191655Y-85187905D01*
X143190828Y-85188520D01*
X143125592Y-85241220D01*
X143124845Y-85241873D01*
X143069459Y-85294272D01*
X142125426Y-84750000D01*
X143069459Y-84205728D01*
X143124845Y-84258126D01*
G36*
X152174574Y-94500000D02*
X151715241Y-94764823D01*
X151714302Y-94764122D01*
X151711990Y-94762751D01*
X151700843Y-94757651D01*
X151699286Y-94757059D01*
X151684628Y-94752559D01*
X151683567Y-94752283D01*
X151665399Y-94748383D01*
X151664644Y-94748245D01*
X151642965Y-94744945D01*
X151642408Y-94744872D01*
X151617218Y-94742172D01*
X151616791Y-94742134D01*
X151588091Y-94740034D01*
X151587755Y-94740014D01*
X151555544Y-94738514D01*
X151555273Y-94738504D01*
X151519552Y-94737604D01*
X151519329Y-94737600D01*
X151492700Y-94737396D01*
X151492700Y-94262604D01*
X151519329Y-94262400D01*
X151519552Y-94262396D01*
X151555273Y-94261496D01*
X151555544Y-94261486D01*
X151587755Y-94259986D01*
X151588091Y-94259966D01*
X151616791Y-94257866D01*
X151617218Y-94257828D01*
X151642408Y-94255128D01*
X151642965Y-94255055D01*
X151664644Y-94251755D01*
X151665399Y-94251617D01*
X151683567Y-94247717D01*
X151684628Y-94247441D01*
X151699286Y-94242941D01*
X151700843Y-94242349D01*
X151711990Y-94237249D01*
X151714302Y-94235878D01*
X151715241Y-94235177D01*
X152174574Y-94500000D01*
X152174574Y-94500000D01*
G37*
X152174574Y-94500000D02*
X151715241Y-94764823D01*
X151714302Y-94764122D01*
X151711990Y-94762751D01*
X151700843Y-94757651D01*
X151699286Y-94757059D01*
X151684628Y-94752559D01*
X151683567Y-94752283D01*
X151665399Y-94748383D01*
X151664644Y-94748245D01*
X151642965Y-94744945D01*
X151642408Y-94744872D01*
X151617218Y-94742172D01*
X151616791Y-94742134D01*
X151588091Y-94740034D01*
X151587755Y-94740014D01*
X151555544Y-94738514D01*
X151555273Y-94738504D01*
X151519552Y-94737604D01*
X151519329Y-94737600D01*
X151492700Y-94737396D01*
X151492700Y-94262604D01*
X151519329Y-94262400D01*
X151519552Y-94262396D01*
X151555273Y-94261496D01*
X151555544Y-94261486D01*
X151587755Y-94259986D01*
X151588091Y-94259966D01*
X151616791Y-94257866D01*
X151617218Y-94257828D01*
X151642408Y-94255128D01*
X151642965Y-94255055D01*
X151664644Y-94251755D01*
X151665399Y-94251617D01*
X151683567Y-94247717D01*
X151684628Y-94247441D01*
X151699286Y-94242941D01*
X151700843Y-94242349D01*
X151711990Y-94237249D01*
X151714302Y-94235878D01*
X151715241Y-94235177D01*
X152174574Y-94500000D01*
G36*
X144509696Y-94235877D02*
X144512009Y-94237249D01*
X144523156Y-94242349D01*
X144524713Y-94242941D01*
X144539371Y-94247441D01*
X144540432Y-94247717D01*
X144558600Y-94251617D01*
X144559355Y-94251755D01*
X144581034Y-94255055D01*
X144581591Y-94255128D01*
X144606781Y-94257828D01*
X144607208Y-94257866D01*
X144635908Y-94259966D01*
X144636244Y-94259986D01*
X144668455Y-94261486D01*
X144668726Y-94261496D01*
X144704447Y-94262396D01*
X144704670Y-94262400D01*
X144731300Y-94262604D01*
X144731300Y-94737396D01*
X144704670Y-94737600D01*
X144704447Y-94737604D01*
X144668726Y-94738504D01*
X144668455Y-94738514D01*
X144636244Y-94740014D01*
X144635908Y-94740034D01*
X144607208Y-94742134D01*
X144606781Y-94742172D01*
X144581591Y-94744872D01*
X144581034Y-94744945D01*
X144559355Y-94748245D01*
X144558600Y-94748383D01*
X144540432Y-94752283D01*
X144539371Y-94752559D01*
X144524713Y-94757059D01*
X144523156Y-94757651D01*
X144512009Y-94762751D01*
X144509696Y-94764123D01*
X144508758Y-94764823D01*
X144049426Y-94500000D01*
X144508758Y-94235177D01*
X144509696Y-94235877D01*
X144509696Y-94235877D01*
G37*
X144509696Y-94235877D02*
X144512009Y-94237249D01*
X144523156Y-94242349D01*
X144524713Y-94242941D01*
X144539371Y-94247441D01*
X144540432Y-94247717D01*
X144558600Y-94251617D01*
X144559355Y-94251755D01*
X144581034Y-94255055D01*
X144581591Y-94255128D01*
X144606781Y-94257828D01*
X144607208Y-94257866D01*
X144635908Y-94259966D01*
X144636244Y-94259986D01*
X144668455Y-94261486D01*
X144668726Y-94261496D01*
X144704447Y-94262396D01*
X144704670Y-94262400D01*
X144731300Y-94262604D01*
X144731300Y-94737396D01*
X144704670Y-94737600D01*
X144704447Y-94737604D01*
X144668726Y-94738504D01*
X144668455Y-94738514D01*
X144636244Y-94740014D01*
X144635908Y-94740034D01*
X144607208Y-94742134D01*
X144606781Y-94742172D01*
X144581591Y-94744872D01*
X144581034Y-94744945D01*
X144559355Y-94748245D01*
X144558600Y-94748383D01*
X144540432Y-94752283D01*
X144539371Y-94752559D01*
X144524713Y-94757059D01*
X144523156Y-94757651D01*
X144512009Y-94762751D01*
X144509696Y-94764123D01*
X144508758Y-94764823D01*
X144049426Y-94500000D01*
X144508758Y-94235177D01*
X144509696Y-94235877D01*
G36*
X142456823Y-101728758D02*
X142456123Y-101729696D01*
X142454751Y-101732009D01*
X142449651Y-101743156D01*
X142449059Y-101744713D01*
X142444559Y-101759371D01*
X142444283Y-101760432D01*
X142440383Y-101778600D01*
X142440245Y-101779355D01*
X142436945Y-101801034D01*
X142436872Y-101801591D01*
X142434172Y-101826781D01*
X142434134Y-101827208D01*
X142432034Y-101855908D01*
X142432014Y-101856244D01*
X142430514Y-101888455D01*
X142430504Y-101888726D01*
X142429604Y-101924447D01*
X142429600Y-101924670D01*
X142429396Y-101951300D01*
X141954604Y-101951300D01*
X141954400Y-101924670D01*
X141954396Y-101924447D01*
X141953496Y-101888726D01*
X141953486Y-101888455D01*
X141951986Y-101856244D01*
X141951966Y-101855908D01*
X141949866Y-101827208D01*
X141949828Y-101826781D01*
X141947128Y-101801591D01*
X141947055Y-101801034D01*
X141943755Y-101779355D01*
X141943617Y-101778600D01*
X141939717Y-101760432D01*
X141939441Y-101759371D01*
X141934941Y-101744713D01*
X141934349Y-101743156D01*
X141929249Y-101732009D01*
X141927877Y-101729696D01*
X141927177Y-101728758D01*
X142192000Y-101269426D01*
X142456823Y-101728758D01*
X142456823Y-101728758D01*
G37*
X142456823Y-101728758D02*
X142456123Y-101729696D01*
X142454751Y-101732009D01*
X142449651Y-101743156D01*
X142449059Y-101744713D01*
X142444559Y-101759371D01*
X142444283Y-101760432D01*
X142440383Y-101778600D01*
X142440245Y-101779355D01*
X142436945Y-101801034D01*
X142436872Y-101801591D01*
X142434172Y-101826781D01*
X142434134Y-101827208D01*
X142432034Y-101855908D01*
X142432014Y-101856244D01*
X142430514Y-101888455D01*
X142430504Y-101888726D01*
X142429604Y-101924447D01*
X142429600Y-101924670D01*
X142429396Y-101951300D01*
X141954604Y-101951300D01*
X141954400Y-101924670D01*
X141954396Y-101924447D01*
X141953496Y-101888726D01*
X141953486Y-101888455D01*
X141951986Y-101856244D01*
X141951966Y-101855908D01*
X141949866Y-101827208D01*
X141949828Y-101826781D01*
X141947128Y-101801591D01*
X141947055Y-101801034D01*
X141943755Y-101779355D01*
X141943617Y-101778600D01*
X141939717Y-101760432D01*
X141939441Y-101759371D01*
X141934941Y-101744713D01*
X141934349Y-101743156D01*
X141929249Y-101732009D01*
X141927877Y-101729696D01*
X141927177Y-101728758D01*
X142192000Y-101269426D01*
X142456823Y-101728758D01*
G36*
X142429600Y-108583329D02*
X142429604Y-108583552D01*
X142430504Y-108619273D01*
X142430514Y-108619544D01*
X142432014Y-108651755D01*
X142432034Y-108652091D01*
X142434134Y-108680791D01*
X142434172Y-108681218D01*
X142436872Y-108706408D01*
X142436945Y-108706965D01*
X142440245Y-108728644D01*
X142440383Y-108729399D01*
X142444283Y-108747567D01*
X142444559Y-108748628D01*
X142449059Y-108763286D01*
X142449651Y-108764843D01*
X142454751Y-108775990D01*
X142456122Y-108778302D01*
X142456823Y-108779241D01*
X142192000Y-109238574D01*
X141927177Y-108779241D01*
X141927878Y-108778302D01*
X141929249Y-108775990D01*
X141934349Y-108764843D01*
X141934941Y-108763286D01*
X141939441Y-108748628D01*
X141939717Y-108747567D01*
X141943617Y-108729399D01*
X141943755Y-108728644D01*
X141947055Y-108706965D01*
X141947128Y-108706408D01*
X141949828Y-108681218D01*
X141949866Y-108680791D01*
X141951966Y-108652091D01*
X141951986Y-108651755D01*
X141953486Y-108619544D01*
X141953496Y-108619273D01*
X141954396Y-108583552D01*
X141954400Y-108583329D01*
X141954604Y-108556700D01*
X142429396Y-108556700D01*
X142429600Y-108583329D01*
X142429600Y-108583329D01*
G37*
X142429600Y-108583329D02*
X142429604Y-108583552D01*
X142430504Y-108619273D01*
X142430514Y-108619544D01*
X142432014Y-108651755D01*
X142432034Y-108652091D01*
X142434134Y-108680791D01*
X142434172Y-108681218D01*
X142436872Y-108706408D01*
X142436945Y-108706965D01*
X142440245Y-108728644D01*
X142440383Y-108729399D01*
X142444283Y-108747567D01*
X142444559Y-108748628D01*
X142449059Y-108763286D01*
X142449651Y-108764843D01*
X142454751Y-108775990D01*
X142456122Y-108778302D01*
X142456823Y-108779241D01*
X142192000Y-109238574D01*
X141927177Y-108779241D01*
X141927878Y-108778302D01*
X141929249Y-108775990D01*
X141934349Y-108764843D01*
X141934941Y-108763286D01*
X141939441Y-108748628D01*
X141939717Y-108747567D01*
X141943617Y-108729399D01*
X141943755Y-108728644D01*
X141947055Y-108706965D01*
X141947128Y-108706408D01*
X141949828Y-108681218D01*
X141949866Y-108680791D01*
X141951966Y-108652091D01*
X141951986Y-108651755D01*
X141953486Y-108619544D01*
X141953496Y-108619273D01*
X141954396Y-108583552D01*
X141954400Y-108583329D01*
X141954604Y-108556700D01*
X142429396Y-108556700D01*
X142429600Y-108583329D01*
G04 #@! TO.N,SDA_5V*
G36*
X127947633Y-106628381D02*
X127947634Y-106628505D01*
X127948636Y-106699814D01*
X127948639Y-106699969D01*
X127950309Y-106763658D01*
X127950316Y-106763854D01*
X127952654Y-106819925D01*
X127952667Y-106820182D01*
X127955673Y-106868634D01*
X127955700Y-106868986D01*
X127959374Y-106909819D01*
X127959430Y-106910327D01*
X127963772Y-106943541D01*
X127963902Y-106944335D01*
X127968912Y-106969930D01*
X127969265Y-106971315D01*
X127974943Y-106989291D01*
X127976224Y-106992101D01*
X127978627Y-106996022D01*
X127460000Y-107895574D01*
X126941373Y-106996022D01*
X126943775Y-106992101D01*
X126945056Y-106989291D01*
X126950734Y-106971315D01*
X126951087Y-106969930D01*
X126956097Y-106944335D01*
X126956227Y-106943541D01*
X126960569Y-106910327D01*
X126960625Y-106909819D01*
X126964299Y-106868986D01*
X126964326Y-106868634D01*
X126967332Y-106820182D01*
X126967345Y-106819925D01*
X126969683Y-106763854D01*
X126969690Y-106763658D01*
X126971360Y-106699969D01*
X126971363Y-106699814D01*
X126972365Y-106628505D01*
X126972366Y-106628381D01*
X126972646Y-106562100D01*
X127947353Y-106562100D01*
X127947633Y-106628381D01*
X127947633Y-106628381D01*
G37*
X127947633Y-106628381D02*
X127947634Y-106628505D01*
X127948636Y-106699814D01*
X127948639Y-106699969D01*
X127950309Y-106763658D01*
X127950316Y-106763854D01*
X127952654Y-106819925D01*
X127952667Y-106820182D01*
X127955673Y-106868634D01*
X127955700Y-106868986D01*
X127959374Y-106909819D01*
X127959430Y-106910327D01*
X127963772Y-106943541D01*
X127963902Y-106944335D01*
X127968912Y-106969930D01*
X127969265Y-106971315D01*
X127974943Y-106989291D01*
X127976224Y-106992101D01*
X127978627Y-106996022D01*
X127460000Y-107895574D01*
X126941373Y-106996022D01*
X126943775Y-106992101D01*
X126945056Y-106989291D01*
X126950734Y-106971315D01*
X126951087Y-106969930D01*
X126956097Y-106944335D01*
X126956227Y-106943541D01*
X126960569Y-106910327D01*
X126960625Y-106909819D01*
X126964299Y-106868986D01*
X126964326Y-106868634D01*
X126967332Y-106820182D01*
X126967345Y-106819925D01*
X126969683Y-106763854D01*
X126969690Y-106763658D01*
X126971360Y-106699969D01*
X126971363Y-106699814D01*
X126972365Y-106628505D01*
X126972366Y-106628381D01*
X126972646Y-106562100D01*
X127947353Y-106562100D01*
X127947633Y-106628381D01*
G36*
X127978627Y-103003978D02*
X127976225Y-103007897D01*
X127974943Y-103010708D01*
X127969265Y-103028684D01*
X127968912Y-103030069D01*
X127963902Y-103055664D01*
X127963772Y-103056458D01*
X127959430Y-103089672D01*
X127959374Y-103090180D01*
X127955700Y-103131013D01*
X127955673Y-103131365D01*
X127952667Y-103179817D01*
X127952654Y-103180074D01*
X127950316Y-103236145D01*
X127950309Y-103236341D01*
X127948639Y-103300030D01*
X127948636Y-103300185D01*
X127947634Y-103371494D01*
X127947633Y-103371618D01*
X127947353Y-103437900D01*
X126972646Y-103437900D01*
X126972366Y-103371618D01*
X126972365Y-103371494D01*
X126971363Y-103300185D01*
X126971360Y-103300030D01*
X126969690Y-103236341D01*
X126969683Y-103236145D01*
X126967345Y-103180074D01*
X126967332Y-103179817D01*
X126964326Y-103131365D01*
X126964299Y-103131013D01*
X126960625Y-103090180D01*
X126960569Y-103089672D01*
X126956227Y-103056458D01*
X126956097Y-103055664D01*
X126951087Y-103030069D01*
X126950734Y-103028684D01*
X126945056Y-103010708D01*
X126943775Y-103007898D01*
X126941373Y-103003978D01*
X127460000Y-102104426D01*
X127978627Y-103003978D01*
X127978627Y-103003978D01*
G37*
X127978627Y-103003978D02*
X127976225Y-103007897D01*
X127974943Y-103010708D01*
X127969265Y-103028684D01*
X127968912Y-103030069D01*
X127963902Y-103055664D01*
X127963772Y-103056458D01*
X127959430Y-103089672D01*
X127959374Y-103090180D01*
X127955700Y-103131013D01*
X127955673Y-103131365D01*
X127952667Y-103179817D01*
X127952654Y-103180074D01*
X127950316Y-103236145D01*
X127950309Y-103236341D01*
X127948639Y-103300030D01*
X127948636Y-103300185D01*
X127947634Y-103371494D01*
X127947633Y-103371618D01*
X127947353Y-103437900D01*
X126972646Y-103437900D01*
X126972366Y-103371618D01*
X126972365Y-103371494D01*
X126971363Y-103300185D01*
X126971360Y-103300030D01*
X126969690Y-103236341D01*
X126969683Y-103236145D01*
X126967345Y-103180074D01*
X126967332Y-103179817D01*
X126964326Y-103131365D01*
X126964299Y-103131013D01*
X126960625Y-103090180D01*
X126960569Y-103089672D01*
X126956227Y-103056458D01*
X126956097Y-103055664D01*
X126951087Y-103030069D01*
X126950734Y-103028684D01*
X126945056Y-103010708D01*
X126943775Y-103007898D01*
X126941373Y-103003978D01*
X127460000Y-102104426D01*
X127978627Y-103003978D01*
G36*
X147558259Y-89496474D02*
X147559928Y-89497558D01*
X147573175Y-89504758D01*
X147574120Y-89505222D01*
X147592278Y-89513222D01*
X147592871Y-89513466D01*
X147615939Y-89522266D01*
X147616344Y-89522413D01*
X147644323Y-89532013D01*
X147644616Y-89532109D01*
X147677506Y-89542509D01*
X147677727Y-89542577D01*
X147715527Y-89553777D01*
X147715700Y-89553827D01*
X147758411Y-89565827D01*
X147758549Y-89565865D01*
X147806170Y-89578665D01*
X147806284Y-89578695D01*
X147849300Y-89589831D01*
X147849300Y-90063774D01*
X147812518Y-90054672D01*
X147812325Y-90054626D01*
X147764704Y-90043626D01*
X147764465Y-90043573D01*
X147721754Y-90034573D01*
X147721448Y-90034512D01*
X147683648Y-90027512D01*
X147683244Y-90027444D01*
X147650354Y-90022444D01*
X147649799Y-90022372D01*
X147621820Y-90019372D01*
X147621016Y-90019312D01*
X147597948Y-90018312D01*
X147596700Y-90018319D01*
X147578542Y-90019319D01*
X147576435Y-90019614D01*
X147563188Y-90022614D01*
X147559460Y-90024109D01*
X147557529Y-90025267D01*
X147097426Y-89760000D01*
X147556651Y-89495239D01*
X147558259Y-89496474D01*
X147558259Y-89496474D01*
G37*
X147558259Y-89496474D02*
X147559928Y-89497558D01*
X147573175Y-89504758D01*
X147574120Y-89505222D01*
X147592278Y-89513222D01*
X147592871Y-89513466D01*
X147615939Y-89522266D01*
X147616344Y-89522413D01*
X147644323Y-89532013D01*
X147644616Y-89532109D01*
X147677506Y-89542509D01*
X147677727Y-89542577D01*
X147715527Y-89553777D01*
X147715700Y-89553827D01*
X147758411Y-89565827D01*
X147758549Y-89565865D01*
X147806170Y-89578665D01*
X147806284Y-89578695D01*
X147849300Y-89589831D01*
X147849300Y-90063774D01*
X147812518Y-90054672D01*
X147812325Y-90054626D01*
X147764704Y-90043626D01*
X147764465Y-90043573D01*
X147721754Y-90034573D01*
X147721448Y-90034512D01*
X147683648Y-90027512D01*
X147683244Y-90027444D01*
X147650354Y-90022444D01*
X147649799Y-90022372D01*
X147621820Y-90019372D01*
X147621016Y-90019312D01*
X147597948Y-90018312D01*
X147596700Y-90018319D01*
X147578542Y-90019319D01*
X147576435Y-90019614D01*
X147563188Y-90022614D01*
X147559460Y-90024109D01*
X147557529Y-90025267D01*
X147097426Y-89760000D01*
X147556651Y-89495239D01*
X147558259Y-89496474D01*
G36*
X150494574Y-89830000D02*
X149550541Y-90374272D01*
X149495154Y-90321873D01*
X149494407Y-90321220D01*
X149429171Y-90268520D01*
X149428344Y-90267905D01*
X149360133Y-90221405D01*
X149359236Y-90220847D01*
X149288050Y-90180547D01*
X149287099Y-90180060D01*
X149212937Y-90145960D01*
X149211951Y-90145556D01*
X149134814Y-90117656D01*
X149133814Y-90117341D01*
X149053701Y-90095641D01*
X149052710Y-90095414D01*
X148969622Y-90079914D01*
X148968657Y-90079773D01*
X148882594Y-90070473D01*
X148881672Y-90070407D01*
X148804891Y-90067735D01*
X148804891Y-89592265D01*
X148881672Y-89589592D01*
X148882594Y-89589526D01*
X148968657Y-89580226D01*
X148969622Y-89580085D01*
X149052710Y-89564585D01*
X149053701Y-89564358D01*
X149133814Y-89542658D01*
X149134814Y-89542343D01*
X149211951Y-89514443D01*
X149212937Y-89514039D01*
X149287099Y-89479939D01*
X149288050Y-89479452D01*
X149359236Y-89439152D01*
X149360133Y-89438594D01*
X149428344Y-89392094D01*
X149429171Y-89391479D01*
X149494407Y-89338779D01*
X149495154Y-89338126D01*
X149550541Y-89285728D01*
X150494574Y-89830000D01*
X150494574Y-89830000D01*
G37*
X150494574Y-89830000D02*
X149550541Y-90374272D01*
X149495154Y-90321873D01*
X149494407Y-90321220D01*
X149429171Y-90268520D01*
X149428344Y-90267905D01*
X149360133Y-90221405D01*
X149359236Y-90220847D01*
X149288050Y-90180547D01*
X149287099Y-90180060D01*
X149212937Y-90145960D01*
X149211951Y-90145556D01*
X149134814Y-90117656D01*
X149133814Y-90117341D01*
X149053701Y-90095641D01*
X149052710Y-90095414D01*
X148969622Y-90079914D01*
X148968657Y-90079773D01*
X148882594Y-90070473D01*
X148881672Y-90070407D01*
X148804891Y-90067735D01*
X148804891Y-89592265D01*
X148881672Y-89589592D01*
X148882594Y-89589526D01*
X148968657Y-89580226D01*
X148969622Y-89580085D01*
X149052710Y-89564585D01*
X149053701Y-89564358D01*
X149133814Y-89542658D01*
X149134814Y-89542343D01*
X149211951Y-89514443D01*
X149212937Y-89514039D01*
X149287099Y-89479939D01*
X149288050Y-89479452D01*
X149359236Y-89439152D01*
X149360133Y-89438594D01*
X149428344Y-89392094D01*
X149429171Y-89391479D01*
X149494407Y-89338779D01*
X149495154Y-89338126D01*
X149550541Y-89285728D01*
X150494574Y-89830000D01*
G04 #@! TO.N,SCL_5V*
G36*
X130487633Y-106628381D02*
X130487634Y-106628505D01*
X130488636Y-106699814D01*
X130488639Y-106699969D01*
X130490309Y-106763658D01*
X130490316Y-106763854D01*
X130492654Y-106819925D01*
X130492667Y-106820182D01*
X130495673Y-106868634D01*
X130495700Y-106868986D01*
X130499374Y-106909819D01*
X130499430Y-106910327D01*
X130503772Y-106943541D01*
X130503902Y-106944335D01*
X130508912Y-106969930D01*
X130509265Y-106971315D01*
X130514943Y-106989291D01*
X130516224Y-106992101D01*
X130518627Y-106996022D01*
X130000000Y-107895574D01*
X129481373Y-106996022D01*
X129483775Y-106992101D01*
X129485056Y-106989291D01*
X129490734Y-106971315D01*
X129491087Y-106969930D01*
X129496097Y-106944335D01*
X129496227Y-106943541D01*
X129500569Y-106910327D01*
X129500625Y-106909819D01*
X129504299Y-106868986D01*
X129504326Y-106868634D01*
X129507332Y-106820182D01*
X129507345Y-106819925D01*
X129509683Y-106763854D01*
X129509690Y-106763658D01*
X129511360Y-106699969D01*
X129511363Y-106699814D01*
X129512365Y-106628505D01*
X129512366Y-106628381D01*
X129512646Y-106562100D01*
X130487353Y-106562100D01*
X130487633Y-106628381D01*
X130487633Y-106628381D01*
G37*
X130487633Y-106628381D02*
X130487634Y-106628505D01*
X130488636Y-106699814D01*
X130488639Y-106699969D01*
X130490309Y-106763658D01*
X130490316Y-106763854D01*
X130492654Y-106819925D01*
X130492667Y-106820182D01*
X130495673Y-106868634D01*
X130495700Y-106868986D01*
X130499374Y-106909819D01*
X130499430Y-106910327D01*
X130503772Y-106943541D01*
X130503902Y-106944335D01*
X130508912Y-106969930D01*
X130509265Y-106971315D01*
X130514943Y-106989291D01*
X130516224Y-106992101D01*
X130518627Y-106996022D01*
X130000000Y-107895574D01*
X129481373Y-106996022D01*
X129483775Y-106992101D01*
X129485056Y-106989291D01*
X129490734Y-106971315D01*
X129491087Y-106969930D01*
X129496097Y-106944335D01*
X129496227Y-106943541D01*
X129500569Y-106910327D01*
X129500625Y-106909819D01*
X129504299Y-106868986D01*
X129504326Y-106868634D01*
X129507332Y-106820182D01*
X129507345Y-106819925D01*
X129509683Y-106763854D01*
X129509690Y-106763658D01*
X129511360Y-106699969D01*
X129511363Y-106699814D01*
X129512365Y-106628505D01*
X129512366Y-106628381D01*
X129512646Y-106562100D01*
X130487353Y-106562100D01*
X130487633Y-106628381D01*
G36*
X130518627Y-103003978D02*
X130516225Y-103007897D01*
X130514943Y-103010708D01*
X130509265Y-103028684D01*
X130508912Y-103030069D01*
X130503902Y-103055664D01*
X130503772Y-103056458D01*
X130499430Y-103089672D01*
X130499374Y-103090180D01*
X130495700Y-103131013D01*
X130495673Y-103131365D01*
X130492667Y-103179817D01*
X130492654Y-103180074D01*
X130490316Y-103236145D01*
X130490309Y-103236341D01*
X130488639Y-103300030D01*
X130488636Y-103300185D01*
X130487634Y-103371494D01*
X130487633Y-103371618D01*
X130487353Y-103437900D01*
X129512646Y-103437900D01*
X129512366Y-103371618D01*
X129512365Y-103371494D01*
X129511363Y-103300185D01*
X129511360Y-103300030D01*
X129509690Y-103236341D01*
X129509683Y-103236145D01*
X129507345Y-103180074D01*
X129507332Y-103179817D01*
X129504326Y-103131365D01*
X129504299Y-103131013D01*
X129500625Y-103090180D01*
X129500569Y-103089672D01*
X129496227Y-103056458D01*
X129496097Y-103055664D01*
X129491087Y-103030069D01*
X129490734Y-103028684D01*
X129485056Y-103010708D01*
X129483775Y-103007898D01*
X129481373Y-103003978D01*
X130000000Y-102104426D01*
X130518627Y-103003978D01*
X130518627Y-103003978D01*
G37*
X130518627Y-103003978D02*
X130516225Y-103007897D01*
X130514943Y-103010708D01*
X130509265Y-103028684D01*
X130508912Y-103030069D01*
X130503902Y-103055664D01*
X130503772Y-103056458D01*
X130499430Y-103089672D01*
X130499374Y-103090180D01*
X130495700Y-103131013D01*
X130495673Y-103131365D01*
X130492667Y-103179817D01*
X130492654Y-103180074D01*
X130490316Y-103236145D01*
X130490309Y-103236341D01*
X130488639Y-103300030D01*
X130488636Y-103300185D01*
X130487634Y-103371494D01*
X130487633Y-103371618D01*
X130487353Y-103437900D01*
X129512646Y-103437900D01*
X129512366Y-103371618D01*
X129512365Y-103371494D01*
X129511363Y-103300185D01*
X129511360Y-103300030D01*
X129509690Y-103236341D01*
X129509683Y-103236145D01*
X129507345Y-103180074D01*
X129507332Y-103179817D01*
X129504326Y-103131365D01*
X129504299Y-103131013D01*
X129500625Y-103090180D01*
X129500569Y-103089672D01*
X129496227Y-103056458D01*
X129496097Y-103055664D01*
X129491087Y-103030069D01*
X129490734Y-103028684D01*
X129485056Y-103010708D01*
X129483775Y-103007898D01*
X129481373Y-103003978D01*
X130000000Y-102104426D01*
X130518627Y-103003978D01*
G04 #@! TO.N,Net-(CN2-Pad4)*
G36*
X133027633Y-106628381D02*
X133027634Y-106628505D01*
X133028636Y-106699814D01*
X133028639Y-106699969D01*
X133030309Y-106763658D01*
X133030316Y-106763854D01*
X133032654Y-106819925D01*
X133032667Y-106820182D01*
X133035673Y-106868634D01*
X133035700Y-106868986D01*
X133039374Y-106909819D01*
X133039430Y-106910327D01*
X133043772Y-106943541D01*
X133043902Y-106944335D01*
X133048912Y-106969930D01*
X133049265Y-106971315D01*
X133054943Y-106989291D01*
X133056224Y-106992101D01*
X133058627Y-106996022D01*
X132540000Y-107895574D01*
X132021373Y-106996022D01*
X132023775Y-106992101D01*
X132025056Y-106989291D01*
X132030734Y-106971315D01*
X132031087Y-106969930D01*
X132036097Y-106944335D01*
X132036227Y-106943541D01*
X132040569Y-106910327D01*
X132040625Y-106909819D01*
X132044299Y-106868986D01*
X132044326Y-106868634D01*
X132047332Y-106820182D01*
X132047345Y-106819925D01*
X132049683Y-106763854D01*
X132049690Y-106763658D01*
X132051360Y-106699969D01*
X132051363Y-106699814D01*
X132052365Y-106628505D01*
X132052366Y-106628381D01*
X132052646Y-106562100D01*
X133027353Y-106562100D01*
X133027633Y-106628381D01*
X133027633Y-106628381D01*
G37*
X133027633Y-106628381D02*
X133027634Y-106628505D01*
X133028636Y-106699814D01*
X133028639Y-106699969D01*
X133030309Y-106763658D01*
X133030316Y-106763854D01*
X133032654Y-106819925D01*
X133032667Y-106820182D01*
X133035673Y-106868634D01*
X133035700Y-106868986D01*
X133039374Y-106909819D01*
X133039430Y-106910327D01*
X133043772Y-106943541D01*
X133043902Y-106944335D01*
X133048912Y-106969930D01*
X133049265Y-106971315D01*
X133054943Y-106989291D01*
X133056224Y-106992101D01*
X133058627Y-106996022D01*
X132540000Y-107895574D01*
X132021373Y-106996022D01*
X132023775Y-106992101D01*
X132025056Y-106989291D01*
X132030734Y-106971315D01*
X132031087Y-106969930D01*
X132036097Y-106944335D01*
X132036227Y-106943541D01*
X132040569Y-106910327D01*
X132040625Y-106909819D01*
X132044299Y-106868986D01*
X132044326Y-106868634D01*
X132047332Y-106820182D01*
X132047345Y-106819925D01*
X132049683Y-106763854D01*
X132049690Y-106763658D01*
X132051360Y-106699969D01*
X132051363Y-106699814D01*
X132052365Y-106628505D01*
X132052366Y-106628381D01*
X132052646Y-106562100D01*
X133027353Y-106562100D01*
X133027633Y-106628381D01*
G36*
X133058627Y-103003978D02*
X133056225Y-103007897D01*
X133054943Y-103010708D01*
X133049265Y-103028684D01*
X133048912Y-103030069D01*
X133043902Y-103055664D01*
X133043772Y-103056458D01*
X133039430Y-103089672D01*
X133039374Y-103090180D01*
X133035700Y-103131013D01*
X133035673Y-103131365D01*
X133032667Y-103179817D01*
X133032654Y-103180074D01*
X133030316Y-103236145D01*
X133030309Y-103236341D01*
X133028639Y-103300030D01*
X133028636Y-103300185D01*
X133027634Y-103371494D01*
X133027633Y-103371618D01*
X133027353Y-103437900D01*
X132052646Y-103437900D01*
X132052366Y-103371618D01*
X132052365Y-103371494D01*
X132051363Y-103300185D01*
X132051360Y-103300030D01*
X132049690Y-103236341D01*
X132049683Y-103236145D01*
X132047345Y-103180074D01*
X132047332Y-103179817D01*
X132044326Y-103131365D01*
X132044299Y-103131013D01*
X132040625Y-103090180D01*
X132040569Y-103089672D01*
X132036227Y-103056458D01*
X132036097Y-103055664D01*
X132031087Y-103030069D01*
X132030734Y-103028684D01*
X132025056Y-103010708D01*
X132023775Y-103007898D01*
X132021373Y-103003978D01*
X132540000Y-102104426D01*
X133058627Y-103003978D01*
X133058627Y-103003978D01*
G37*
X133058627Y-103003978D02*
X133056225Y-103007897D01*
X133054943Y-103010708D01*
X133049265Y-103028684D01*
X133048912Y-103030069D01*
X133043902Y-103055664D01*
X133043772Y-103056458D01*
X133039430Y-103089672D01*
X133039374Y-103090180D01*
X133035700Y-103131013D01*
X133035673Y-103131365D01*
X133032667Y-103179817D01*
X133032654Y-103180074D01*
X133030316Y-103236145D01*
X133030309Y-103236341D01*
X133028639Y-103300030D01*
X133028636Y-103300185D01*
X133027634Y-103371494D01*
X133027633Y-103371618D01*
X133027353Y-103437900D01*
X132052646Y-103437900D01*
X132052366Y-103371618D01*
X132052365Y-103371494D01*
X132051363Y-103300185D01*
X132051360Y-103300030D01*
X132049690Y-103236341D01*
X132049683Y-103236145D01*
X132047345Y-103180074D01*
X132047332Y-103179817D01*
X132044326Y-103131365D01*
X132044299Y-103131013D01*
X132040625Y-103090180D01*
X132040569Y-103089672D01*
X132036227Y-103056458D01*
X132036097Y-103055664D01*
X132031087Y-103030069D01*
X132030734Y-103028684D01*
X132025056Y-103010708D01*
X132023775Y-103007898D01*
X132021373Y-103003978D01*
X132540000Y-102104426D01*
X133058627Y-103003978D01*
G04 #@! TO.N,SDA_3V3*
G36*
X137975574Y-72160000D02*
X137077708Y-72677655D01*
X137028063Y-72630359D01*
X137027381Y-72629754D01*
X136968936Y-72581576D01*
X136968170Y-72580992D01*
X136907800Y-72538482D01*
X136906953Y-72537935D01*
X136844658Y-72501093D01*
X136843739Y-72500599D01*
X136779520Y-72469425D01*
X136778543Y-72469000D01*
X136712398Y-72443494D01*
X136711382Y-72443151D01*
X136643312Y-72423313D01*
X136642279Y-72423059D01*
X136572284Y-72408889D01*
X136571255Y-72408724D01*
X136499335Y-72400222D01*
X136498331Y-72400143D01*
X136436700Y-72397778D01*
X136436700Y-71922222D01*
X136498331Y-71919857D01*
X136499335Y-71919778D01*
X136571255Y-71911276D01*
X136572284Y-71911111D01*
X136642279Y-71896941D01*
X136643312Y-71896687D01*
X136711382Y-71876849D01*
X136712398Y-71876506D01*
X136778543Y-71851000D01*
X136779520Y-71850575D01*
X136843739Y-71819401D01*
X136844658Y-71818907D01*
X136906953Y-71782065D01*
X136907800Y-71781518D01*
X136968170Y-71739008D01*
X136968936Y-71738424D01*
X137027381Y-71690246D01*
X137028063Y-71689641D01*
X137077708Y-71642345D01*
X137975574Y-72160000D01*
X137975574Y-72160000D01*
G37*
X137975574Y-72160000D02*
X137077708Y-72677655D01*
X137028063Y-72630359D01*
X137027381Y-72629754D01*
X136968936Y-72581576D01*
X136968170Y-72580992D01*
X136907800Y-72538482D01*
X136906953Y-72537935D01*
X136844658Y-72501093D01*
X136843739Y-72500599D01*
X136779520Y-72469425D01*
X136778543Y-72469000D01*
X136712398Y-72443494D01*
X136711382Y-72443151D01*
X136643312Y-72423313D01*
X136642279Y-72423059D01*
X136572284Y-72408889D01*
X136571255Y-72408724D01*
X136499335Y-72400222D01*
X136498331Y-72400143D01*
X136436700Y-72397778D01*
X136436700Y-71922222D01*
X136498331Y-71919857D01*
X136499335Y-71919778D01*
X136571255Y-71911276D01*
X136572284Y-71911111D01*
X136642279Y-71896941D01*
X136643312Y-71896687D01*
X136711382Y-71876849D01*
X136712398Y-71876506D01*
X136778543Y-71851000D01*
X136779520Y-71850575D01*
X136843739Y-71819401D01*
X136844658Y-71818907D01*
X136906953Y-71782065D01*
X136907800Y-71781518D01*
X136968170Y-71739008D01*
X136968936Y-71738424D01*
X137027381Y-71690246D01*
X137028063Y-71689641D01*
X137077708Y-71642345D01*
X137975574Y-72160000D01*
G36*
X135952600Y-81151329D02*
X135952604Y-81151552D01*
X135953504Y-81187273D01*
X135953514Y-81187544D01*
X135955014Y-81219755D01*
X135955034Y-81220091D01*
X135957134Y-81248791D01*
X135957172Y-81249218D01*
X135959872Y-81274408D01*
X135959945Y-81274965D01*
X135963245Y-81296644D01*
X135963383Y-81297399D01*
X135967283Y-81315567D01*
X135967559Y-81316628D01*
X135972059Y-81331286D01*
X135972651Y-81332843D01*
X135977751Y-81343990D01*
X135979122Y-81346302D01*
X135979823Y-81347241D01*
X135715000Y-81806574D01*
X135450177Y-81347241D01*
X135450878Y-81346302D01*
X135452249Y-81343990D01*
X135457349Y-81332843D01*
X135457941Y-81331286D01*
X135462441Y-81316628D01*
X135462717Y-81315567D01*
X135466617Y-81297399D01*
X135466755Y-81296644D01*
X135470055Y-81274965D01*
X135470128Y-81274408D01*
X135472828Y-81249218D01*
X135472866Y-81248791D01*
X135474966Y-81220091D01*
X135474986Y-81219755D01*
X135476486Y-81187544D01*
X135476496Y-81187273D01*
X135477396Y-81151552D01*
X135477400Y-81151329D01*
X135477604Y-81124700D01*
X135952396Y-81124700D01*
X135952600Y-81151329D01*
X135952600Y-81151329D01*
G37*
X135952600Y-81151329D02*
X135952604Y-81151552D01*
X135953504Y-81187273D01*
X135953514Y-81187544D01*
X135955014Y-81219755D01*
X135955034Y-81220091D01*
X135957134Y-81248791D01*
X135957172Y-81249218D01*
X135959872Y-81274408D01*
X135959945Y-81274965D01*
X135963245Y-81296644D01*
X135963383Y-81297399D01*
X135967283Y-81315567D01*
X135967559Y-81316628D01*
X135972059Y-81331286D01*
X135972651Y-81332843D01*
X135977751Y-81343990D01*
X135979122Y-81346302D01*
X135979823Y-81347241D01*
X135715000Y-81806574D01*
X135450177Y-81347241D01*
X135450878Y-81346302D01*
X135452249Y-81343990D01*
X135457349Y-81332843D01*
X135457941Y-81331286D01*
X135462441Y-81316628D01*
X135462717Y-81315567D01*
X135466617Y-81297399D01*
X135466755Y-81296644D01*
X135470055Y-81274965D01*
X135470128Y-81274408D01*
X135472828Y-81249218D01*
X135472866Y-81248791D01*
X135474966Y-81220091D01*
X135474986Y-81219755D01*
X135476486Y-81187544D01*
X135476496Y-81187273D01*
X135477396Y-81151552D01*
X135477400Y-81151329D01*
X135477604Y-81124700D01*
X135952396Y-81124700D01*
X135952600Y-81151329D01*
G04 #@! TO.N,Net-(IC1-Pad10)*
G36*
X138873600Y-110107329D02*
X138873604Y-110107552D01*
X138874504Y-110143273D01*
X138874514Y-110143544D01*
X138876014Y-110175755D01*
X138876034Y-110176091D01*
X138878134Y-110204791D01*
X138878172Y-110205218D01*
X138880872Y-110230408D01*
X138880945Y-110230965D01*
X138884245Y-110252644D01*
X138884383Y-110253399D01*
X138888283Y-110271567D01*
X138888559Y-110272628D01*
X138893059Y-110287286D01*
X138893651Y-110288843D01*
X138898751Y-110299990D01*
X138900122Y-110302302D01*
X138900823Y-110303241D01*
X138636000Y-110762574D01*
X138371177Y-110303241D01*
X138371878Y-110302302D01*
X138373249Y-110299990D01*
X138378349Y-110288843D01*
X138378941Y-110287286D01*
X138383441Y-110272628D01*
X138383717Y-110271567D01*
X138387617Y-110253399D01*
X138387755Y-110252644D01*
X138391055Y-110230965D01*
X138391128Y-110230408D01*
X138393828Y-110205218D01*
X138393866Y-110204791D01*
X138395966Y-110176091D01*
X138395986Y-110175755D01*
X138397486Y-110143544D01*
X138397496Y-110143273D01*
X138398396Y-110107552D01*
X138398400Y-110107329D01*
X138398604Y-110080700D01*
X138873396Y-110080700D01*
X138873600Y-110107329D01*
X138873600Y-110107329D01*
G37*
X138873600Y-110107329D02*
X138873604Y-110107552D01*
X138874504Y-110143273D01*
X138874514Y-110143544D01*
X138876014Y-110175755D01*
X138876034Y-110176091D01*
X138878134Y-110204791D01*
X138878172Y-110205218D01*
X138880872Y-110230408D01*
X138880945Y-110230965D01*
X138884245Y-110252644D01*
X138884383Y-110253399D01*
X138888283Y-110271567D01*
X138888559Y-110272628D01*
X138893059Y-110287286D01*
X138893651Y-110288843D01*
X138898751Y-110299990D01*
X138900122Y-110302302D01*
X138900823Y-110303241D01*
X138636000Y-110762574D01*
X138371177Y-110303241D01*
X138371878Y-110302302D01*
X138373249Y-110299990D01*
X138378349Y-110288843D01*
X138378941Y-110287286D01*
X138383441Y-110272628D01*
X138383717Y-110271567D01*
X138387617Y-110253399D01*
X138387755Y-110252644D01*
X138391055Y-110230965D01*
X138391128Y-110230408D01*
X138393828Y-110205218D01*
X138393866Y-110204791D01*
X138395966Y-110176091D01*
X138395986Y-110175755D01*
X138397486Y-110143544D01*
X138397496Y-110143273D01*
X138398396Y-110107552D01*
X138398400Y-110107329D01*
X138398604Y-110080700D01*
X138873396Y-110080700D01*
X138873600Y-110107329D01*
G36*
X138900823Y-101728758D02*
X138900123Y-101729696D01*
X138898751Y-101732009D01*
X138893651Y-101743156D01*
X138893059Y-101744713D01*
X138888559Y-101759371D01*
X138888283Y-101760432D01*
X138884383Y-101778600D01*
X138884245Y-101779355D01*
X138880945Y-101801034D01*
X138880872Y-101801591D01*
X138878172Y-101826781D01*
X138878134Y-101827208D01*
X138876034Y-101855908D01*
X138876014Y-101856244D01*
X138874514Y-101888455D01*
X138874504Y-101888726D01*
X138873604Y-101924447D01*
X138873600Y-101924670D01*
X138873396Y-101951300D01*
X138398604Y-101951300D01*
X138398400Y-101924670D01*
X138398396Y-101924447D01*
X138397496Y-101888726D01*
X138397486Y-101888455D01*
X138395986Y-101856244D01*
X138395966Y-101855908D01*
X138393866Y-101827208D01*
X138393828Y-101826781D01*
X138391128Y-101801591D01*
X138391055Y-101801034D01*
X138387755Y-101779355D01*
X138387617Y-101778600D01*
X138383717Y-101760432D01*
X138383441Y-101759371D01*
X138378941Y-101744713D01*
X138378349Y-101743156D01*
X138373249Y-101732009D01*
X138371877Y-101729696D01*
X138371177Y-101728758D01*
X138636000Y-101269426D01*
X138900823Y-101728758D01*
X138900823Y-101728758D01*
G37*
X138900823Y-101728758D02*
X138900123Y-101729696D01*
X138898751Y-101732009D01*
X138893651Y-101743156D01*
X138893059Y-101744713D01*
X138888559Y-101759371D01*
X138888283Y-101760432D01*
X138884383Y-101778600D01*
X138884245Y-101779355D01*
X138880945Y-101801034D01*
X138880872Y-101801591D01*
X138878172Y-101826781D01*
X138878134Y-101827208D01*
X138876034Y-101855908D01*
X138876014Y-101856244D01*
X138874514Y-101888455D01*
X138874504Y-101888726D01*
X138873604Y-101924447D01*
X138873600Y-101924670D01*
X138873396Y-101951300D01*
X138398604Y-101951300D01*
X138398400Y-101924670D01*
X138398396Y-101924447D01*
X138397496Y-101888726D01*
X138397486Y-101888455D01*
X138395986Y-101856244D01*
X138395966Y-101855908D01*
X138393866Y-101827208D01*
X138393828Y-101826781D01*
X138391128Y-101801591D01*
X138391055Y-101801034D01*
X138387755Y-101779355D01*
X138387617Y-101778600D01*
X138383717Y-101760432D01*
X138383441Y-101759371D01*
X138378941Y-101744713D01*
X138378349Y-101743156D01*
X138373249Y-101732009D01*
X138371877Y-101729696D01*
X138371177Y-101728758D01*
X138636000Y-101269426D01*
X138900823Y-101728758D01*
G04 #@! TO.N,Net-(IC1-Pad9)*
G36*
X143953600Y-108583329D02*
X143953604Y-108583552D01*
X143954504Y-108619273D01*
X143954514Y-108619544D01*
X143956014Y-108651755D01*
X143956034Y-108652091D01*
X143958134Y-108680791D01*
X143958172Y-108681218D01*
X143960872Y-108706408D01*
X143960945Y-108706965D01*
X143964245Y-108728644D01*
X143964383Y-108729399D01*
X143968283Y-108747567D01*
X143968559Y-108748628D01*
X143973059Y-108763286D01*
X143973651Y-108764843D01*
X143978751Y-108775990D01*
X143980122Y-108778302D01*
X143980823Y-108779241D01*
X143716000Y-109238574D01*
X143451177Y-108779241D01*
X143451878Y-108778302D01*
X143453249Y-108775990D01*
X143458349Y-108764843D01*
X143458941Y-108763286D01*
X143463441Y-108748628D01*
X143463717Y-108747567D01*
X143467617Y-108729399D01*
X143467755Y-108728644D01*
X143471055Y-108706965D01*
X143471128Y-108706408D01*
X143473828Y-108681218D01*
X143473866Y-108680791D01*
X143475966Y-108652091D01*
X143475986Y-108651755D01*
X143477486Y-108619544D01*
X143477496Y-108619273D01*
X143478396Y-108583552D01*
X143478400Y-108583329D01*
X143478604Y-108556700D01*
X143953396Y-108556700D01*
X143953600Y-108583329D01*
X143953600Y-108583329D01*
G37*
X143953600Y-108583329D02*
X143953604Y-108583552D01*
X143954504Y-108619273D01*
X143954514Y-108619544D01*
X143956014Y-108651755D01*
X143956034Y-108652091D01*
X143958134Y-108680791D01*
X143958172Y-108681218D01*
X143960872Y-108706408D01*
X143960945Y-108706965D01*
X143964245Y-108728644D01*
X143964383Y-108729399D01*
X143968283Y-108747567D01*
X143968559Y-108748628D01*
X143973059Y-108763286D01*
X143973651Y-108764843D01*
X143978751Y-108775990D01*
X143980122Y-108778302D01*
X143980823Y-108779241D01*
X143716000Y-109238574D01*
X143451177Y-108779241D01*
X143451878Y-108778302D01*
X143453249Y-108775990D01*
X143458349Y-108764843D01*
X143458941Y-108763286D01*
X143463441Y-108748628D01*
X143463717Y-108747567D01*
X143467617Y-108729399D01*
X143467755Y-108728644D01*
X143471055Y-108706965D01*
X143471128Y-108706408D01*
X143473828Y-108681218D01*
X143473866Y-108680791D01*
X143475966Y-108652091D01*
X143475986Y-108651755D01*
X143477486Y-108619544D01*
X143477496Y-108619273D01*
X143478396Y-108583552D01*
X143478400Y-108583329D01*
X143478604Y-108556700D01*
X143953396Y-108556700D01*
X143953600Y-108583329D01*
G36*
X143980823Y-101728758D02*
X143980123Y-101729696D01*
X143978751Y-101732009D01*
X143973651Y-101743156D01*
X143973059Y-101744713D01*
X143968559Y-101759371D01*
X143968283Y-101760432D01*
X143964383Y-101778600D01*
X143964245Y-101779355D01*
X143960945Y-101801034D01*
X143960872Y-101801591D01*
X143958172Y-101826781D01*
X143958134Y-101827208D01*
X143956034Y-101855908D01*
X143956014Y-101856244D01*
X143954514Y-101888455D01*
X143954504Y-101888726D01*
X143953604Y-101924447D01*
X143953600Y-101924670D01*
X143953396Y-101951300D01*
X143478604Y-101951300D01*
X143478400Y-101924670D01*
X143478396Y-101924447D01*
X143477496Y-101888726D01*
X143477486Y-101888455D01*
X143475986Y-101856244D01*
X143475966Y-101855908D01*
X143473866Y-101827208D01*
X143473828Y-101826781D01*
X143471128Y-101801591D01*
X143471055Y-101801034D01*
X143467755Y-101779355D01*
X143467617Y-101778600D01*
X143463717Y-101760432D01*
X143463441Y-101759371D01*
X143458941Y-101744713D01*
X143458349Y-101743156D01*
X143453249Y-101732009D01*
X143451877Y-101729696D01*
X143451177Y-101728758D01*
X143716000Y-101269426D01*
X143980823Y-101728758D01*
X143980823Y-101728758D01*
G37*
X143980823Y-101728758D02*
X143980123Y-101729696D01*
X143978751Y-101732009D01*
X143973651Y-101743156D01*
X143973059Y-101744713D01*
X143968559Y-101759371D01*
X143968283Y-101760432D01*
X143964383Y-101778600D01*
X143964245Y-101779355D01*
X143960945Y-101801034D01*
X143960872Y-101801591D01*
X143958172Y-101826781D01*
X143958134Y-101827208D01*
X143956034Y-101855908D01*
X143956014Y-101856244D01*
X143954514Y-101888455D01*
X143954504Y-101888726D01*
X143953604Y-101924447D01*
X143953600Y-101924670D01*
X143953396Y-101951300D01*
X143478604Y-101951300D01*
X143478400Y-101924670D01*
X143478396Y-101924447D01*
X143477496Y-101888726D01*
X143477486Y-101888455D01*
X143475986Y-101856244D01*
X143475966Y-101855908D01*
X143473866Y-101827208D01*
X143473828Y-101826781D01*
X143471128Y-101801591D01*
X143471055Y-101801034D01*
X143467755Y-101779355D01*
X143467617Y-101778600D01*
X143463717Y-101760432D01*
X143463441Y-101759371D01*
X143458941Y-101744713D01*
X143458349Y-101743156D01*
X143453249Y-101732009D01*
X143451877Y-101729696D01*
X143451177Y-101728758D01*
X143716000Y-101269426D01*
X143980823Y-101728758D01*
G04 #@! TO.N,Net-(IC1-Pad7)*
G36*
X123129529Y-79797430D02*
X123131440Y-79866295D01*
X123131506Y-79867286D01*
X123139616Y-79943530D01*
X123139767Y-79944550D01*
X123153812Y-80018714D01*
X123154052Y-80019744D01*
X123174034Y-80091828D01*
X123174362Y-80092844D01*
X123200279Y-80162847D01*
X123200691Y-80163830D01*
X123232544Y-80231754D01*
X123233027Y-80232683D01*
X123270815Y-80298527D01*
X123271356Y-80299388D01*
X123315080Y-80363151D01*
X123315661Y-80363933D01*
X123365321Y-80425617D01*
X123365927Y-80426316D01*
X123413157Y-80476950D01*
X123076950Y-80813157D01*
X123026316Y-80765927D01*
X123025617Y-80765321D01*
X122963933Y-80715661D01*
X122963151Y-80715080D01*
X122899388Y-80671356D01*
X122898527Y-80670815D01*
X122832683Y-80633027D01*
X122831754Y-80632544D01*
X122763830Y-80600691D01*
X122762847Y-80600279D01*
X122692844Y-80574362D01*
X122691828Y-80574034D01*
X122619744Y-80554052D01*
X122618714Y-80553812D01*
X122544550Y-80539767D01*
X122543530Y-80539616D01*
X122467286Y-80531506D01*
X122466295Y-80531440D01*
X122397430Y-80529529D01*
X122128572Y-79528572D01*
X123129529Y-79797430D01*
X123129529Y-79797430D01*
G37*
X123129529Y-79797430D02*
X123131440Y-79866295D01*
X123131506Y-79867286D01*
X123139616Y-79943530D01*
X123139767Y-79944550D01*
X123153812Y-80018714D01*
X123154052Y-80019744D01*
X123174034Y-80091828D01*
X123174362Y-80092844D01*
X123200279Y-80162847D01*
X123200691Y-80163830D01*
X123232544Y-80231754D01*
X123233027Y-80232683D01*
X123270815Y-80298527D01*
X123271356Y-80299388D01*
X123315080Y-80363151D01*
X123315661Y-80363933D01*
X123365321Y-80425617D01*
X123365927Y-80426316D01*
X123413157Y-80476950D01*
X123076950Y-80813157D01*
X123026316Y-80765927D01*
X123025617Y-80765321D01*
X122963933Y-80715661D01*
X122963151Y-80715080D01*
X122899388Y-80671356D01*
X122898527Y-80670815D01*
X122832683Y-80633027D01*
X122831754Y-80632544D01*
X122763830Y-80600691D01*
X122762847Y-80600279D01*
X122692844Y-80574362D01*
X122691828Y-80574034D01*
X122619744Y-80554052D01*
X122618714Y-80553812D01*
X122544550Y-80539767D01*
X122543530Y-80539616D01*
X122467286Y-80531506D01*
X122466295Y-80531440D01*
X122397430Y-80529529D01*
X122128572Y-79528572D01*
X123129529Y-79797430D01*
G36*
X132714574Y-81632000D02*
X132255241Y-81896823D01*
X132254302Y-81896122D01*
X132251990Y-81894751D01*
X132240843Y-81889651D01*
X132239286Y-81889059D01*
X132224628Y-81884559D01*
X132223567Y-81884283D01*
X132205399Y-81880383D01*
X132204644Y-81880245D01*
X132182965Y-81876945D01*
X132182408Y-81876872D01*
X132157218Y-81874172D01*
X132156791Y-81874134D01*
X132128091Y-81872034D01*
X132127755Y-81872014D01*
X132095544Y-81870514D01*
X132095273Y-81870504D01*
X132059552Y-81869604D01*
X132059329Y-81869600D01*
X132032700Y-81869396D01*
X132032700Y-81394604D01*
X132059329Y-81394400D01*
X132059552Y-81394396D01*
X132095273Y-81393496D01*
X132095544Y-81393486D01*
X132127755Y-81391986D01*
X132128091Y-81391966D01*
X132156791Y-81389866D01*
X132157218Y-81389828D01*
X132182408Y-81387128D01*
X132182965Y-81387055D01*
X132204644Y-81383755D01*
X132205399Y-81383617D01*
X132223567Y-81379717D01*
X132224628Y-81379441D01*
X132239286Y-81374941D01*
X132240843Y-81374349D01*
X132251990Y-81369249D01*
X132254302Y-81367878D01*
X132255241Y-81367177D01*
X132714574Y-81632000D01*
X132714574Y-81632000D01*
G37*
X132714574Y-81632000D02*
X132255241Y-81896823D01*
X132254302Y-81896122D01*
X132251990Y-81894751D01*
X132240843Y-81889651D01*
X132239286Y-81889059D01*
X132224628Y-81884559D01*
X132223567Y-81884283D01*
X132205399Y-81880383D01*
X132204644Y-81880245D01*
X132182965Y-81876945D01*
X132182408Y-81876872D01*
X132157218Y-81874172D01*
X132156791Y-81874134D01*
X132128091Y-81872034D01*
X132127755Y-81872014D01*
X132095544Y-81870514D01*
X132095273Y-81870504D01*
X132059552Y-81869604D01*
X132059329Y-81869600D01*
X132032700Y-81869396D01*
X132032700Y-81394604D01*
X132059329Y-81394400D01*
X132059552Y-81394396D01*
X132095273Y-81393496D01*
X132095544Y-81393486D01*
X132127755Y-81391986D01*
X132128091Y-81391966D01*
X132156791Y-81389866D01*
X132157218Y-81389828D01*
X132182408Y-81387128D01*
X132182965Y-81387055D01*
X132204644Y-81383755D01*
X132205399Y-81383617D01*
X132223567Y-81379717D01*
X132224628Y-81379441D01*
X132239286Y-81374941D01*
X132240843Y-81374349D01*
X132251990Y-81369249D01*
X132254302Y-81367878D01*
X132255241Y-81367177D01*
X132714574Y-81632000D01*
G04 #@! TO.N,RV2*
G36*
X121601600Y-108583329D02*
X121601604Y-108583552D01*
X121602504Y-108619273D01*
X121602514Y-108619544D01*
X121604014Y-108651755D01*
X121604034Y-108652091D01*
X121606134Y-108680791D01*
X121606172Y-108681218D01*
X121608872Y-108706408D01*
X121608945Y-108706965D01*
X121612245Y-108728644D01*
X121612383Y-108729399D01*
X121616283Y-108747567D01*
X121616559Y-108748628D01*
X121621059Y-108763286D01*
X121621651Y-108764843D01*
X121626751Y-108775990D01*
X121628122Y-108778302D01*
X121628823Y-108779241D01*
X121364000Y-109238574D01*
X121099177Y-108779241D01*
X121099878Y-108778302D01*
X121101249Y-108775990D01*
X121106349Y-108764843D01*
X121106941Y-108763286D01*
X121111441Y-108748628D01*
X121111717Y-108747567D01*
X121115617Y-108729399D01*
X121115755Y-108728644D01*
X121119055Y-108706965D01*
X121119128Y-108706408D01*
X121121828Y-108681218D01*
X121121866Y-108680791D01*
X121123966Y-108652091D01*
X121123986Y-108651755D01*
X121125486Y-108619544D01*
X121125496Y-108619273D01*
X121126396Y-108583552D01*
X121126400Y-108583329D01*
X121126604Y-108556700D01*
X121601396Y-108556700D01*
X121601600Y-108583329D01*
X121601600Y-108583329D01*
G37*
X121601600Y-108583329D02*
X121601604Y-108583552D01*
X121602504Y-108619273D01*
X121602514Y-108619544D01*
X121604014Y-108651755D01*
X121604034Y-108652091D01*
X121606134Y-108680791D01*
X121606172Y-108681218D01*
X121608872Y-108706408D01*
X121608945Y-108706965D01*
X121612245Y-108728644D01*
X121612383Y-108729399D01*
X121616283Y-108747567D01*
X121616559Y-108748628D01*
X121621059Y-108763286D01*
X121621651Y-108764843D01*
X121626751Y-108775990D01*
X121628122Y-108778302D01*
X121628823Y-108779241D01*
X121364000Y-109238574D01*
X121099177Y-108779241D01*
X121099878Y-108778302D01*
X121101249Y-108775990D01*
X121106349Y-108764843D01*
X121106941Y-108763286D01*
X121111441Y-108748628D01*
X121111717Y-108747567D01*
X121115617Y-108729399D01*
X121115755Y-108728644D01*
X121119055Y-108706965D01*
X121119128Y-108706408D01*
X121121828Y-108681218D01*
X121121866Y-108680791D01*
X121123966Y-108652091D01*
X121123986Y-108651755D01*
X121125486Y-108619544D01*
X121125496Y-108619273D01*
X121126396Y-108583552D01*
X121126400Y-108583329D01*
X121126604Y-108556700D01*
X121601396Y-108556700D01*
X121601600Y-108583329D01*
G36*
X121628823Y-100712758D02*
X121628123Y-100713696D01*
X121626751Y-100716009D01*
X121621651Y-100727156D01*
X121621059Y-100728713D01*
X121616559Y-100743371D01*
X121616283Y-100744432D01*
X121612383Y-100762600D01*
X121612245Y-100763355D01*
X121608945Y-100785034D01*
X121608872Y-100785591D01*
X121606172Y-100810781D01*
X121606134Y-100811208D01*
X121604034Y-100839908D01*
X121604014Y-100840244D01*
X121602514Y-100872455D01*
X121602504Y-100872726D01*
X121601604Y-100908447D01*
X121601600Y-100908670D01*
X121601396Y-100935300D01*
X121126604Y-100935300D01*
X121126400Y-100908670D01*
X121126396Y-100908447D01*
X121125496Y-100872726D01*
X121125486Y-100872455D01*
X121123986Y-100840244D01*
X121123966Y-100839908D01*
X121121866Y-100811208D01*
X121121828Y-100810781D01*
X121119128Y-100785591D01*
X121119055Y-100785034D01*
X121115755Y-100763355D01*
X121115617Y-100762600D01*
X121111717Y-100744432D01*
X121111441Y-100743371D01*
X121106941Y-100728713D01*
X121106349Y-100727156D01*
X121101249Y-100716009D01*
X121099877Y-100713696D01*
X121099177Y-100712758D01*
X121364000Y-100253426D01*
X121628823Y-100712758D01*
X121628823Y-100712758D01*
G37*
X121628823Y-100712758D02*
X121628123Y-100713696D01*
X121626751Y-100716009D01*
X121621651Y-100727156D01*
X121621059Y-100728713D01*
X121616559Y-100743371D01*
X121616283Y-100744432D01*
X121612383Y-100762600D01*
X121612245Y-100763355D01*
X121608945Y-100785034D01*
X121608872Y-100785591D01*
X121606172Y-100810781D01*
X121606134Y-100811208D01*
X121604034Y-100839908D01*
X121604014Y-100840244D01*
X121602514Y-100872455D01*
X121602504Y-100872726D01*
X121601604Y-100908447D01*
X121601600Y-100908670D01*
X121601396Y-100935300D01*
X121126604Y-100935300D01*
X121126400Y-100908670D01*
X121126396Y-100908447D01*
X121125496Y-100872726D01*
X121125486Y-100872455D01*
X121123986Y-100840244D01*
X121123966Y-100839908D01*
X121121866Y-100811208D01*
X121121828Y-100810781D01*
X121119128Y-100785591D01*
X121119055Y-100785034D01*
X121115755Y-100763355D01*
X121115617Y-100762600D01*
X121111717Y-100744432D01*
X121111441Y-100743371D01*
X121106941Y-100728713D01*
X121106349Y-100727156D01*
X121101249Y-100716009D01*
X121099877Y-100713696D01*
X121099177Y-100712758D01*
X121364000Y-100253426D01*
X121628823Y-100712758D01*
G04 #@! TO.N,RV1*
G36*
X123256652Y-107054977D02*
X123256650Y-107055199D01*
X123256700Y-107091770D01*
X123256703Y-107092042D01*
X123257453Y-107125003D01*
X123257465Y-107125341D01*
X123258915Y-107154691D01*
X123258944Y-107155121D01*
X123261094Y-107180861D01*
X123261154Y-107181426D01*
X123264004Y-107203555D01*
X123264127Y-107204324D01*
X123267677Y-107222842D01*
X123267937Y-107223933D01*
X123272187Y-107238841D01*
X123272768Y-107240456D01*
X123277718Y-107251753D01*
X123279117Y-107254177D01*
X123279857Y-107255183D01*
X123015000Y-107714574D01*
X122750182Y-107255250D01*
X122750920Y-107254263D01*
X122752267Y-107252008D01*
X122757517Y-107240711D01*
X122758101Y-107239215D01*
X122762851Y-107224307D01*
X122763128Y-107223292D01*
X122767378Y-107204774D01*
X122767521Y-107204055D01*
X122771271Y-107181926D01*
X122771350Y-107181395D01*
X122774600Y-107155655D01*
X122774645Y-107155249D01*
X122777395Y-107125899D01*
X122777421Y-107125579D01*
X122779671Y-107092618D01*
X122779685Y-107092360D01*
X122781435Y-107055789D01*
X122781444Y-107055577D01*
X122782311Y-107027700D01*
X123257093Y-107027700D01*
X123256652Y-107054977D01*
X123256652Y-107054977D01*
G37*
X123256652Y-107054977D02*
X123256650Y-107055199D01*
X123256700Y-107091770D01*
X123256703Y-107092042D01*
X123257453Y-107125003D01*
X123257465Y-107125341D01*
X123258915Y-107154691D01*
X123258944Y-107155121D01*
X123261094Y-107180861D01*
X123261154Y-107181426D01*
X123264004Y-107203555D01*
X123264127Y-107204324D01*
X123267677Y-107222842D01*
X123267937Y-107223933D01*
X123272187Y-107238841D01*
X123272768Y-107240456D01*
X123277718Y-107251753D01*
X123279117Y-107254177D01*
X123279857Y-107255183D01*
X123015000Y-107714574D01*
X122750182Y-107255250D01*
X122750920Y-107254263D01*
X122752267Y-107252008D01*
X122757517Y-107240711D01*
X122758101Y-107239215D01*
X122762851Y-107224307D01*
X122763128Y-107223292D01*
X122767378Y-107204774D01*
X122767521Y-107204055D01*
X122771271Y-107181926D01*
X122771350Y-107181395D01*
X122774600Y-107155655D01*
X122774645Y-107155249D01*
X122777395Y-107125899D01*
X122777421Y-107125579D01*
X122779671Y-107092618D01*
X122779685Y-107092360D01*
X122781435Y-107055789D01*
X122781444Y-107055577D01*
X122782311Y-107027700D01*
X123257093Y-107027700D01*
X123256652Y-107054977D01*
G36*
X123284823Y-100712758D02*
X123284123Y-100713696D01*
X123282751Y-100716009D01*
X123277651Y-100727156D01*
X123277059Y-100728713D01*
X123272559Y-100743371D01*
X123272283Y-100744432D01*
X123268383Y-100762600D01*
X123268245Y-100763355D01*
X123264945Y-100785034D01*
X123264872Y-100785591D01*
X123262172Y-100810781D01*
X123262134Y-100811208D01*
X123260034Y-100839908D01*
X123260014Y-100840244D01*
X123258514Y-100872455D01*
X123258504Y-100872726D01*
X123257604Y-100908447D01*
X123257600Y-100908670D01*
X123257396Y-100935300D01*
X122782604Y-100935300D01*
X122782400Y-100908670D01*
X122782396Y-100908447D01*
X122781496Y-100872726D01*
X122781486Y-100872455D01*
X122779986Y-100840244D01*
X122779966Y-100839908D01*
X122777866Y-100811208D01*
X122777828Y-100810781D01*
X122775128Y-100785591D01*
X122775055Y-100785034D01*
X122771755Y-100763355D01*
X122771617Y-100762600D01*
X122767717Y-100744432D01*
X122767441Y-100743371D01*
X122762941Y-100728713D01*
X122762349Y-100727156D01*
X122757249Y-100716009D01*
X122755877Y-100713696D01*
X122755177Y-100712758D01*
X123020000Y-100253426D01*
X123284823Y-100712758D01*
X123284823Y-100712758D01*
G37*
X123284823Y-100712758D02*
X123284123Y-100713696D01*
X123282751Y-100716009D01*
X123277651Y-100727156D01*
X123277059Y-100728713D01*
X123272559Y-100743371D01*
X123272283Y-100744432D01*
X123268383Y-100762600D01*
X123268245Y-100763355D01*
X123264945Y-100785034D01*
X123264872Y-100785591D01*
X123262172Y-100810781D01*
X123262134Y-100811208D01*
X123260034Y-100839908D01*
X123260014Y-100840244D01*
X123258514Y-100872455D01*
X123258504Y-100872726D01*
X123257604Y-100908447D01*
X123257600Y-100908670D01*
X123257396Y-100935300D01*
X122782604Y-100935300D01*
X122782400Y-100908670D01*
X122782396Y-100908447D01*
X122781496Y-100872726D01*
X122781486Y-100872455D01*
X122779986Y-100840244D01*
X122779966Y-100839908D01*
X122777866Y-100811208D01*
X122777828Y-100810781D01*
X122775128Y-100785591D01*
X122775055Y-100785034D01*
X122771755Y-100763355D01*
X122771617Y-100762600D01*
X122767717Y-100744432D01*
X122767441Y-100743371D01*
X122762941Y-100728713D01*
X122762349Y-100727156D01*
X122757249Y-100716009D01*
X122755877Y-100713696D01*
X122755177Y-100712758D01*
X123020000Y-100253426D01*
X123284823Y-100712758D01*
G04 #@! TD*
M02*
