G04 #@! TF.GenerationSoftware,KiCad,Pcbnew,(5.0.2)-1*
G04 #@! TF.CreationDate,2023-10-22T23:37:33+09:00*
G04 #@! TF.ProjectId,Fountain,466f756e-7461-4696-9e2e-6b696361645f,rev?*
G04 #@! TF.SameCoordinates,Original*
G04 #@! TF.FileFunction,Legend,Top*
G04 #@! TF.FilePolarity,Positive*
%FSLAX46Y46*%
G04 Gerber Fmt 4.6, Leading zero omitted, Abs format (unit mm)*
G04 Created by KiCad (PCBNEW (5.0.2)-1) date 2023/10/22 23:37:33*
%MOMM*%
%LPD*%
G01*
G04 APERTURE LIST*
%ADD10C,0.150000*%
%ADD11C,0.500000*%
%ADD12C,0.200000*%
%ADD13C,0.120000*%
%ADD14C,0.127000*%
G04 APERTURE END LIST*
D10*
X111120738Y-79152380D02*
X111692166Y-79152380D01*
X111406452Y-80152380D02*
X111406452Y-79152380D01*
X112025500Y-80152380D02*
X112025500Y-79152380D01*
X112263595Y-79152380D01*
X112406452Y-79200000D01*
X112501690Y-79295238D01*
X112549309Y-79390476D01*
X112596928Y-79580952D01*
X112596928Y-79723809D01*
X112549309Y-79914285D01*
X112501690Y-80009523D01*
X112406452Y-80104761D01*
X112263595Y-80152380D01*
X112025500Y-80152380D01*
X113215976Y-79152380D02*
X113406452Y-79152380D01*
X113501690Y-79200000D01*
X113596928Y-79295238D01*
X113644547Y-79485714D01*
X113644547Y-79819047D01*
X113596928Y-80009523D01*
X113501690Y-80104761D01*
X113406452Y-80152380D01*
X113215976Y-80152380D01*
X113120738Y-80104761D01*
X113025500Y-80009523D01*
X112977880Y-79819047D01*
X112977880Y-79485714D01*
X113025500Y-79295238D01*
X113120738Y-79200000D01*
X113215976Y-79152380D01*
X111120738Y-74072380D02*
X111692166Y-74072380D01*
X111406452Y-75072380D02*
X111406452Y-74072380D01*
X112025500Y-75072380D02*
X112025500Y-74072380D01*
X112263595Y-74072380D01*
X112406452Y-74120000D01*
X112501690Y-74215238D01*
X112549309Y-74310476D01*
X112596928Y-74500952D01*
X112596928Y-74643809D01*
X112549309Y-74834285D01*
X112501690Y-74929523D01*
X112406452Y-75024761D01*
X112263595Y-75072380D01*
X112025500Y-75072380D01*
X113025500Y-75072380D02*
X113025500Y-74072380D01*
X111120738Y-76512380D02*
X111692166Y-76512380D01*
X111406452Y-77512380D02*
X111406452Y-76512380D01*
X112596928Y-77417142D02*
X112549309Y-77464761D01*
X112406452Y-77512380D01*
X112311214Y-77512380D01*
X112168357Y-77464761D01*
X112073119Y-77369523D01*
X112025500Y-77274285D01*
X111977880Y-77083809D01*
X111977880Y-76940952D01*
X112025500Y-76750476D01*
X112073119Y-76655238D01*
X112168357Y-76560000D01*
X112311214Y-76512380D01*
X112406452Y-76512380D01*
X112549309Y-76560000D01*
X112596928Y-76607619D01*
X113025500Y-77512380D02*
X113025500Y-76512380D01*
X113596928Y-77512380D02*
X113168357Y-76940952D01*
X113596928Y-76512380D02*
X113025500Y-77083809D01*
X111120738Y-71532380D02*
X111692166Y-71532380D01*
X111406452Y-72532380D02*
X111406452Y-71532380D01*
X112025500Y-72532380D02*
X112025500Y-71532380D01*
X112358833Y-72246666D01*
X112692166Y-71532380D01*
X112692166Y-72532380D01*
X113120738Y-72484761D02*
X113263595Y-72532380D01*
X113501690Y-72532380D01*
X113596928Y-72484761D01*
X113644547Y-72437142D01*
X113692166Y-72341904D01*
X113692166Y-72246666D01*
X113644547Y-72151428D01*
X113596928Y-72103809D01*
X113501690Y-72056190D01*
X113311214Y-72008571D01*
X113215976Y-71960952D01*
X113168357Y-71913333D01*
X113120738Y-71818095D01*
X113120738Y-71722857D01*
X113168357Y-71627619D01*
X113215976Y-71580000D01*
X113311214Y-71532380D01*
X113549309Y-71532380D01*
X113692166Y-71580000D01*
X111009595Y-69611428D02*
X111771500Y-69611428D01*
X111390547Y-69992380D02*
X111390547Y-69230476D01*
X112723880Y-68992380D02*
X112247690Y-68992380D01*
X112200071Y-69468571D01*
X112247690Y-69420952D01*
X112342928Y-69373333D01*
X112581023Y-69373333D01*
X112676261Y-69420952D01*
X112723880Y-69468571D01*
X112771500Y-69563809D01*
X112771500Y-69801904D01*
X112723880Y-69897142D01*
X112676261Y-69944761D01*
X112581023Y-69992380D01*
X112342928Y-69992380D01*
X112247690Y-69944761D01*
X112200071Y-69897142D01*
X113057214Y-68992380D02*
X113390547Y-69992380D01*
X113723880Y-68992380D01*
X111533404Y-66500000D02*
X111438166Y-66452380D01*
X111295309Y-66452380D01*
X111152452Y-66500000D01*
X111057214Y-66595238D01*
X111009595Y-66690476D01*
X110961976Y-66880952D01*
X110961976Y-67023809D01*
X111009595Y-67214285D01*
X111057214Y-67309523D01*
X111152452Y-67404761D01*
X111295309Y-67452380D01*
X111390547Y-67452380D01*
X111533404Y-67404761D01*
X111581023Y-67357142D01*
X111581023Y-67023809D01*
X111390547Y-67023809D01*
X112009595Y-67452380D02*
X112009595Y-66452380D01*
X112581023Y-67452380D01*
X112581023Y-66452380D01*
X113057214Y-67452380D02*
X113057214Y-66452380D01*
X113295309Y-66452380D01*
X113438166Y-66500000D01*
X113533404Y-66595238D01*
X113581023Y-66690476D01*
X113628642Y-66880952D01*
X113628642Y-67023809D01*
X113581023Y-67214285D01*
X113533404Y-67309523D01*
X113438166Y-67404761D01*
X113295309Y-67452380D01*
X113057214Y-67452380D01*
D11*
X120724255Y-122857142D02*
X120057589Y-122857142D01*
X119926636Y-123904761D02*
X120176636Y-121904761D01*
X121129017Y-121904761D01*
X121926636Y-123904761D02*
X121748065Y-123809523D01*
X121664732Y-123714285D01*
X121593303Y-123523809D01*
X121664732Y-122952380D01*
X121783779Y-122761904D01*
X121890922Y-122666666D01*
X122093303Y-122571428D01*
X122379017Y-122571428D01*
X122557589Y-122666666D01*
X122640922Y-122761904D01*
X122712351Y-122952380D01*
X122640922Y-123523809D01*
X122521875Y-123714285D01*
X122414732Y-123809523D01*
X122212351Y-123904761D01*
X121926636Y-123904761D01*
X124474255Y-122571428D02*
X124307589Y-123904761D01*
X123617113Y-122571428D02*
X123486160Y-123619047D01*
X123557589Y-123809523D01*
X123736160Y-123904761D01*
X124021875Y-123904761D01*
X124224255Y-123809523D01*
X124331398Y-123714285D01*
X125426636Y-122571428D02*
X125259970Y-123904761D01*
X125402827Y-122761904D02*
X125509970Y-122666666D01*
X125712351Y-122571428D01*
X125998065Y-122571428D01*
X126176636Y-122666666D01*
X126248065Y-122857142D01*
X126117113Y-123904761D01*
X126950446Y-122571428D02*
X127712351Y-122571428D01*
X127319494Y-121904761D02*
X127105208Y-123619047D01*
X127176636Y-123809523D01*
X127355208Y-123904761D01*
X127545684Y-123904761D01*
X129069494Y-123904761D02*
X129200446Y-122857142D01*
X129129017Y-122666666D01*
X128950446Y-122571428D01*
X128569494Y-122571428D01*
X128367113Y-122666666D01*
X129081398Y-123809523D02*
X128879017Y-123904761D01*
X128402827Y-123904761D01*
X128224255Y-123809523D01*
X128152827Y-123619047D01*
X128176636Y-123428571D01*
X128295684Y-123238095D01*
X128498065Y-123142857D01*
X128974255Y-123142857D01*
X129176636Y-123047619D01*
X130021875Y-123904761D02*
X130188541Y-122571428D01*
X130271875Y-121904761D02*
X130164732Y-122000000D01*
X130248065Y-122095238D01*
X130355208Y-122000000D01*
X130271875Y-121904761D01*
X130248065Y-122095238D01*
X131140922Y-122571428D02*
X130974255Y-123904761D01*
X131117113Y-122761904D02*
X131224255Y-122666666D01*
X131426636Y-122571428D01*
X131712351Y-122571428D01*
X131890922Y-122666666D01*
X131962351Y-122857142D01*
X131831398Y-123904761D01*
X134283779Y-122571428D02*
X134593303Y-123904761D01*
X135236160Y-122571428D01*
X136879017Y-123904761D02*
X135736160Y-123904761D01*
X136307589Y-123904761D02*
X136557589Y-121904761D01*
X136331398Y-122190476D01*
X136117113Y-122380952D01*
X135914732Y-122476190D01*
X137759970Y-123714285D02*
X137843303Y-123809523D01*
X137736160Y-123904761D01*
X137652827Y-123809523D01*
X137759970Y-123714285D01*
X137736160Y-123904761D01*
X139319494Y-121904761D02*
X139509970Y-121904761D01*
X139688541Y-122000000D01*
X139771875Y-122095238D01*
X139843303Y-122285714D01*
X139890922Y-122666666D01*
X139831398Y-123142857D01*
X139688541Y-123523809D01*
X139569494Y-123714285D01*
X139462351Y-123809523D01*
X139259970Y-123904761D01*
X139069494Y-123904761D01*
X138890922Y-123809523D01*
X138807589Y-123714285D01*
X138736160Y-123523809D01*
X138688541Y-123142857D01*
X138748065Y-122666666D01*
X138890922Y-122285714D01*
X139009970Y-122095238D01*
X139117113Y-122000000D01*
X139319494Y-121904761D01*
D12*
X118000000Y-126000000D02*
X142000000Y-126000000D01*
X122626979Y-127970238D02*
X122574895Y-127910714D01*
X122463288Y-127851190D01*
X122344241Y-127851190D01*
X122217752Y-127910714D01*
X122150788Y-127970238D01*
X122076383Y-128089285D01*
X122061502Y-128208333D01*
X122106145Y-128327380D01*
X122158229Y-128386904D01*
X122269836Y-128446428D01*
X122388883Y-128446428D01*
X122515372Y-128386904D01*
X122582336Y-128327380D01*
X122641860Y-127851190D02*
X122582336Y-128327380D01*
X122634419Y-128386904D01*
X122693943Y-128386904D01*
X122820431Y-128327380D01*
X122894836Y-128208333D01*
X122932038Y-127910714D01*
X122835312Y-127732142D01*
X122671622Y-127613095D01*
X122440967Y-127553571D01*
X122195431Y-127613095D01*
X122001979Y-127732142D01*
X121860610Y-127910714D01*
X121771324Y-128148809D01*
X121801086Y-128386904D01*
X121897812Y-128565476D01*
X122061502Y-128684523D01*
X122292157Y-128744047D01*
X122537693Y-128684523D01*
X122731145Y-128565476D01*
X123869538Y-128505952D02*
X123743050Y-128565476D01*
X123504955Y-128565476D01*
X123393348Y-128505952D01*
X123348705Y-128386904D01*
X123408229Y-127910714D01*
X123482633Y-127791666D01*
X123609122Y-127732142D01*
X123847217Y-127732142D01*
X123958824Y-127791666D01*
X124003467Y-127910714D01*
X123988586Y-128029761D01*
X123378467Y-128148809D01*
X124338288Y-128565476D02*
X125097217Y-127732142D01*
X124442455Y-127732142D02*
X124993050Y-128565476D01*
X125394836Y-127732142D02*
X125871026Y-127732142D01*
X125625491Y-127315476D02*
X125491562Y-128386904D01*
X125536205Y-128505952D01*
X125647812Y-128565476D01*
X125766860Y-128565476D01*
X125871026Y-128684523D02*
X126823407Y-128684523D01*
X127083824Y-128505952D02*
X127195431Y-128565476D01*
X127433526Y-128565476D01*
X127560014Y-128505952D01*
X127634419Y-128386904D01*
X127641860Y-128327380D01*
X127597217Y-128208333D01*
X127485610Y-128148809D01*
X127307038Y-128148809D01*
X127195431Y-128089285D01*
X127150788Y-127970238D01*
X127158229Y-127910714D01*
X127232633Y-127791666D01*
X127359122Y-127732142D01*
X127537693Y-127732142D01*
X127649300Y-127791666D01*
X128787693Y-127732142D02*
X128683526Y-128565476D01*
X128251979Y-127732142D02*
X128170133Y-128386904D01*
X128214776Y-128505952D01*
X128326383Y-128565476D01*
X128504955Y-128565476D01*
X128631443Y-128505952D01*
X128698407Y-128446428D01*
X129278764Y-128565476D02*
X129382931Y-127732142D01*
X129435014Y-127315476D02*
X129368050Y-127375000D01*
X129420133Y-127434523D01*
X129487098Y-127375000D01*
X129435014Y-127315476D01*
X129420133Y-127434523D01*
X130908229Y-127434523D02*
X130975193Y-127375000D01*
X131101681Y-127315476D01*
X131399300Y-127315476D01*
X131510907Y-127375000D01*
X131562991Y-127434523D01*
X131607633Y-127553571D01*
X131592752Y-127672619D01*
X131510907Y-127851190D01*
X130707336Y-128565476D01*
X131481145Y-128565476D01*
X132411205Y-127315476D02*
X132530252Y-127315476D01*
X132641860Y-127375000D01*
X132693943Y-127434523D01*
X132738586Y-127553571D01*
X132768348Y-127791666D01*
X132731145Y-128089285D01*
X132641860Y-128327380D01*
X132567455Y-128446428D01*
X132500491Y-128505952D01*
X132374002Y-128565476D01*
X132254955Y-128565476D01*
X132143348Y-128505952D01*
X132091264Y-128446428D01*
X132046622Y-128327380D01*
X132016860Y-128089285D01*
X132054062Y-127791666D01*
X132143348Y-127553571D01*
X132217752Y-127434523D01*
X132284717Y-127375000D01*
X132411205Y-127315476D01*
X133289181Y-127434523D02*
X133356145Y-127375000D01*
X133482633Y-127315476D01*
X133780252Y-127315476D01*
X133891860Y-127375000D01*
X133943943Y-127434523D01*
X133988586Y-127553571D01*
X133973705Y-127672619D01*
X133891860Y-127851190D01*
X133088288Y-128565476D01*
X133862098Y-128565476D01*
X134435014Y-127315476D02*
X135208824Y-127315476D01*
X134732633Y-127791666D01*
X134911205Y-127791666D01*
X135022812Y-127851190D01*
X135074895Y-127910714D01*
X135119538Y-128029761D01*
X135082336Y-128327380D01*
X135007931Y-128446428D01*
X134940967Y-128505952D01*
X134814479Y-128565476D01*
X134457336Y-128565476D01*
X134345729Y-128505952D01*
X134293645Y-128446428D01*
X135603169Y-128446428D02*
X135655252Y-128505952D01*
X135588288Y-128565476D01*
X135536205Y-128505952D01*
X135603169Y-128446428D01*
X135588288Y-128565476D01*
X136838288Y-128565476D02*
X136124002Y-128565476D01*
X136481145Y-128565476D02*
X136637395Y-127315476D01*
X136496026Y-127494047D01*
X136362098Y-127613095D01*
X136235610Y-127672619D01*
X137768348Y-127315476D02*
X137887395Y-127315476D01*
X137999002Y-127375000D01*
X138051086Y-127434523D01*
X138095729Y-127553571D01*
X138125491Y-127791666D01*
X138088288Y-128089285D01*
X137999002Y-128327380D01*
X137924598Y-128446428D01*
X137857633Y-128505952D01*
X137731145Y-128565476D01*
X137612098Y-128565476D01*
X137500491Y-128505952D01*
X137448407Y-128446428D01*
X137403764Y-128327380D01*
X137374002Y-128089285D01*
X137411205Y-127791666D01*
X137500491Y-127553571D01*
X137574895Y-127434523D01*
X137641860Y-127375000D01*
X137768348Y-127315476D01*
D13*
G04 #@! TO.C,VOL2*
X161389795Y-117531893D02*
X169869050Y-122427393D01*
X156519795Y-125966980D02*
X164999050Y-130862480D01*
X161389795Y-117531893D02*
X156519795Y-125966980D01*
X169869050Y-122427393D02*
X164999050Y-130862480D01*
X169244050Y-123509925D02*
X173574177Y-126009925D01*
X165624050Y-129779948D02*
X169954177Y-132279948D01*
X169244050Y-123509925D02*
X165624050Y-129779948D01*
X173574177Y-126009925D02*
X169954177Y-132279948D01*
X173324177Y-126442937D02*
X181984431Y-131442937D01*
X170204177Y-131846936D02*
X178864431Y-136846936D01*
X173324177Y-126442937D02*
X170204177Y-131846936D01*
X181984431Y-131442937D02*
X178864431Y-136846936D01*
D10*
G04 #@! TO.C,IC1*
X138890000Y-81050000D02*
G75*
G02X137620000Y-82320000I-1270000J0D01*
G01*
X122380000Y-82320000D02*
G75*
G02X121110000Y-81050000I0J1270000D01*
G01*
X121110000Y-63270000D02*
G75*
G02X122380000Y-62000000I1270000J0D01*
G01*
X137620000Y-62000000D02*
G75*
G02X138890000Y-63270000I0J-1270000D01*
G01*
X122380000Y-62000000D02*
X137620000Y-62000000D01*
X122380000Y-82320000D02*
X137620000Y-82320000D01*
X138890000Y-63270000D02*
X138890000Y-81050000D01*
X121110000Y-81050000D02*
X121110000Y-63270000D01*
X126190000Y-62000000D02*
X126190000Y-67080000D01*
X126190000Y-67080000D02*
X133810000Y-67080000D01*
X133810000Y-67080000D02*
X133810000Y-62000000D01*
D13*
G04 #@! TO.C,BZ1*
X162270000Y-105290000D02*
G75*
G03X162270000Y-105290000I-6230000J0D01*
G01*
X157539999Y-111690000D02*
G75*
G02X154540000Y-111690000I-1499999J6400000D01*
G01*
G04 #@! TO.C,CN1*
X136490000Y-93830000D02*
X136490000Y-91170000D01*
X126270000Y-93830000D02*
X136490000Y-93830000D01*
X126270000Y-91170000D02*
X136490000Y-91170000D01*
X126270000Y-93830000D02*
X126270000Y-91170000D01*
X125000000Y-93830000D02*
X123670000Y-93830000D01*
X123670000Y-93830000D02*
X123670000Y-92500000D01*
D10*
G04 #@! TO.C,CN2*
X125555000Y-98650000D02*
X124920000Y-99920000D01*
X124285000Y-98650000D02*
X125555000Y-98650000D01*
X124920000Y-99920000D02*
X124285000Y-98650000D01*
X120920000Y-99920000D02*
X120920000Y-110080000D01*
X139080000Y-99920000D02*
X139080000Y-110080000D01*
X120920000Y-110080000D02*
X139080000Y-110080000D01*
X120920000Y-99920000D02*
X139080000Y-99920000D01*
D13*
G04 #@! TO.C,IC2*
X147310000Y-83420000D02*
G75*
G02X145310000Y-83420000I-1000000J0D01*
G01*
X145310000Y-83420000D02*
X143660000Y-83420000D01*
X143660000Y-83420000D02*
X143660000Y-93700000D01*
X143660000Y-93700000D02*
X148960000Y-93700000D01*
X148960000Y-93700000D02*
X148960000Y-83420000D01*
X148960000Y-83420000D02*
X147310000Y-83420000D01*
X141170000Y-83360000D02*
X141170000Y-93760000D01*
X141170000Y-93760000D02*
X151450000Y-93760000D01*
X151450000Y-93760000D02*
X151450000Y-83360000D01*
X151450000Y-83360000D02*
X141170000Y-83360000D01*
G04 #@! TO.C,SW1*
X119000000Y-147000000D02*
X123500000Y-147000000D01*
X117750000Y-143000000D02*
X117750000Y-144500000D01*
X123500000Y-140500000D02*
X119000000Y-140500000D01*
X124750000Y-144500000D02*
X124750000Y-143000000D01*
G04 #@! TO.C,SW2*
X142250000Y-144500000D02*
X142250000Y-143000000D01*
X141000000Y-140500000D02*
X136500000Y-140500000D01*
X135250000Y-143000000D02*
X135250000Y-144500000D01*
X136500000Y-147000000D02*
X141000000Y-147000000D01*
G04 #@! TO.C,SW3*
X99330000Y-109950000D02*
X99330000Y-100050000D01*
X111790000Y-109950000D02*
X111790000Y-100050000D01*
X99330000Y-109950000D02*
X111790000Y-109950000D01*
X99330000Y-100050000D02*
X111790000Y-100050000D01*
X99090000Y-110190000D02*
X99090000Y-108806000D01*
X99090000Y-110190000D02*
X100473000Y-110190000D01*
X101115000Y-107030000D02*
X102385000Y-107030000D01*
X102385000Y-107030000D02*
X102385000Y-102970000D01*
X102385000Y-102970000D02*
X101115000Y-102970000D01*
X101115000Y-102970000D02*
X101115000Y-107030000D01*
X101235000Y-107030000D02*
X101235000Y-105676667D01*
X101355000Y-107030000D02*
X101355000Y-105676667D01*
X101475000Y-107030000D02*
X101475000Y-105676667D01*
X101595000Y-107030000D02*
X101595000Y-105676667D01*
X101715000Y-107030000D02*
X101715000Y-105676667D01*
X101835000Y-107030000D02*
X101835000Y-105676667D01*
X101955000Y-107030000D02*
X101955000Y-105676667D01*
X102075000Y-107030000D02*
X102075000Y-105676667D01*
X102195000Y-107030000D02*
X102195000Y-105676667D01*
X102315000Y-107030000D02*
X102315000Y-105676667D01*
X101115000Y-105676667D02*
X102385000Y-105676667D01*
X103655000Y-107030000D02*
X104925000Y-107030000D01*
X104925000Y-107030000D02*
X104925000Y-102970000D01*
X104925000Y-102970000D02*
X103655000Y-102970000D01*
X103655000Y-102970000D02*
X103655000Y-107030000D01*
X103775000Y-107030000D02*
X103775000Y-105676667D01*
X103895000Y-107030000D02*
X103895000Y-105676667D01*
X104015000Y-107030000D02*
X104015000Y-105676667D01*
X104135000Y-107030000D02*
X104135000Y-105676667D01*
X104255000Y-107030000D02*
X104255000Y-105676667D01*
X104375000Y-107030000D02*
X104375000Y-105676667D01*
X104495000Y-107030000D02*
X104495000Y-105676667D01*
X104615000Y-107030000D02*
X104615000Y-105676667D01*
X104735000Y-107030000D02*
X104735000Y-105676667D01*
X104855000Y-107030000D02*
X104855000Y-105676667D01*
X103655000Y-105676667D02*
X104925000Y-105676667D01*
X106195000Y-107030000D02*
X107465000Y-107030000D01*
X107465000Y-107030000D02*
X107465000Y-102970000D01*
X107465000Y-102970000D02*
X106195000Y-102970000D01*
X106195000Y-102970000D02*
X106195000Y-107030000D01*
X106315000Y-107030000D02*
X106315000Y-105676667D01*
X106435000Y-107030000D02*
X106435000Y-105676667D01*
X106555000Y-107030000D02*
X106555000Y-105676667D01*
X106675000Y-107030000D02*
X106675000Y-105676667D01*
X106795000Y-107030000D02*
X106795000Y-105676667D01*
X106915000Y-107030000D02*
X106915000Y-105676667D01*
X107035000Y-107030000D02*
X107035000Y-105676667D01*
X107155000Y-107030000D02*
X107155000Y-105676667D01*
X107275000Y-107030000D02*
X107275000Y-105676667D01*
X107395000Y-107030000D02*
X107395000Y-105676667D01*
X106195000Y-105676667D02*
X107465000Y-105676667D01*
X108735000Y-107030000D02*
X110005000Y-107030000D01*
X110005000Y-107030000D02*
X110005000Y-102970000D01*
X110005000Y-102970000D02*
X108735000Y-102970000D01*
X108735000Y-102970000D02*
X108735000Y-107030000D01*
X108855000Y-107030000D02*
X108855000Y-105676667D01*
X108975000Y-107030000D02*
X108975000Y-105676667D01*
X109095000Y-107030000D02*
X109095000Y-105676667D01*
X109215000Y-107030000D02*
X109215000Y-105676667D01*
X109335000Y-107030000D02*
X109335000Y-105676667D01*
X109455000Y-107030000D02*
X109455000Y-105676667D01*
X109575000Y-107030000D02*
X109575000Y-105676667D01*
X109695000Y-107030000D02*
X109695000Y-105676667D01*
X109815000Y-107030000D02*
X109815000Y-105676667D01*
X109935000Y-107030000D02*
X109935000Y-105676667D01*
X108735000Y-105676667D02*
X110005000Y-105676667D01*
G04 #@! TO.C,VOL1*
X81135569Y-136927063D02*
X78015569Y-131523064D01*
X89795823Y-131927063D02*
X86675823Y-126523064D01*
X86675823Y-126523064D02*
X78015569Y-131523064D01*
X89795823Y-131927063D02*
X81135569Y-136927063D01*
X90045823Y-132360075D02*
X86425823Y-126090052D01*
X94375950Y-129860075D02*
X90755950Y-123590052D01*
X90755950Y-123590052D02*
X86425823Y-126090052D01*
X94375950Y-129860075D02*
X90045823Y-132360075D01*
X95000950Y-130942607D02*
X90130950Y-122507520D01*
X103480205Y-126047107D02*
X98610205Y-117612020D01*
X98610205Y-117612020D02*
X90130950Y-122507520D01*
X103480205Y-126047107D02*
X95000950Y-130942607D01*
D14*
G04 #@! TO.C,CN3*
X96617349Y-91504969D02*
X98346317Y-92503189D01*
X90206476Y-87805127D02*
X98693524Y-92705127D01*
X95206476Y-79144873D02*
X103693524Y-84044873D01*
X103693524Y-84044873D02*
X98693524Y-92705127D01*
X94106016Y-81050926D02*
X95206476Y-79144873D01*
X94972994Y-81551476D02*
X94106016Y-81050926D01*
X92172961Y-86399074D02*
X94972041Y-81550926D01*
X91306476Y-85899871D02*
X92173454Y-86400421D01*
X90206016Y-87805924D02*
X91306476Y-85899871D01*
G04 #@! TO.C,CN4*
X164768064Y-79144076D02*
X165868524Y-81050129D01*
X165868524Y-81050129D02*
X165001546Y-81550679D01*
X165002959Y-81550926D02*
X167802039Y-86399074D01*
X167801086Y-86399624D02*
X168668064Y-85899074D01*
X168668064Y-85899074D02*
X169768524Y-87805127D01*
X161281476Y-92705127D02*
X156281476Y-84044873D01*
X169768524Y-87805127D02*
X161281476Y-92705127D01*
X164768524Y-79144873D02*
X156281476Y-84044873D01*
X158358931Y-82846931D02*
X156629963Y-83845151D01*
D13*
G04 #@! TO.C,R1*
X143460000Y-76710000D02*
X143130000Y-76710000D01*
X143130000Y-76710000D02*
X143130000Y-70170000D01*
X143130000Y-70170000D02*
X143460000Y-70170000D01*
X145540000Y-76710000D02*
X145870000Y-76710000D01*
X145870000Y-76710000D02*
X145870000Y-70170000D01*
X145870000Y-70170000D02*
X145540000Y-70170000D01*
G04 #@! TO.C,R2*
X146540000Y-101790000D02*
X146870000Y-101790000D01*
X146870000Y-101790000D02*
X146870000Y-108330000D01*
X146870000Y-108330000D02*
X146540000Y-108330000D01*
X144460000Y-101790000D02*
X144130000Y-101790000D01*
X144130000Y-101790000D02*
X144130000Y-108330000D01*
X144130000Y-108330000D02*
X144460000Y-108330000D01*
G04 #@! TO.C,C1*
X117270000Y-91500000D02*
G75*
G03X117270000Y-91500000I-3270000J0D01*
G01*
X114000000Y-88270000D02*
X114000000Y-94730000D01*
X114040000Y-88270000D02*
X114040000Y-94730000D01*
X114080000Y-88270000D02*
X114080000Y-94730000D01*
X114120000Y-88272000D02*
X114120000Y-94728000D01*
X114160000Y-88273000D02*
X114160000Y-94727000D01*
X114200000Y-88276000D02*
X114200000Y-94724000D01*
X114240000Y-88278000D02*
X114240000Y-90460000D01*
X114240000Y-92540000D02*
X114240000Y-94722000D01*
X114280000Y-88282000D02*
X114280000Y-90460000D01*
X114280000Y-92540000D02*
X114280000Y-94718000D01*
X114320000Y-88285000D02*
X114320000Y-90460000D01*
X114320000Y-92540000D02*
X114320000Y-94715000D01*
X114360000Y-88289000D02*
X114360000Y-90460000D01*
X114360000Y-92540000D02*
X114360000Y-94711000D01*
X114400000Y-88294000D02*
X114400000Y-90460000D01*
X114400000Y-92540000D02*
X114400000Y-94706000D01*
X114440000Y-88299000D02*
X114440000Y-90460000D01*
X114440000Y-92540000D02*
X114440000Y-94701000D01*
X114480000Y-88305000D02*
X114480000Y-90460000D01*
X114480000Y-92540000D02*
X114480000Y-94695000D01*
X114520000Y-88311000D02*
X114520000Y-90460000D01*
X114520000Y-92540000D02*
X114520000Y-94689000D01*
X114560000Y-88318000D02*
X114560000Y-90460000D01*
X114560000Y-92540000D02*
X114560000Y-94682000D01*
X114600000Y-88325000D02*
X114600000Y-90460000D01*
X114600000Y-92540000D02*
X114600000Y-94675000D01*
X114640000Y-88333000D02*
X114640000Y-90460000D01*
X114640000Y-92540000D02*
X114640000Y-94667000D01*
X114680000Y-88341000D02*
X114680000Y-90460000D01*
X114680000Y-92540000D02*
X114680000Y-94659000D01*
X114721000Y-88350000D02*
X114721000Y-90460000D01*
X114721000Y-92540000D02*
X114721000Y-94650000D01*
X114761000Y-88359000D02*
X114761000Y-90460000D01*
X114761000Y-92540000D02*
X114761000Y-94641000D01*
X114801000Y-88369000D02*
X114801000Y-90460000D01*
X114801000Y-92540000D02*
X114801000Y-94631000D01*
X114841000Y-88379000D02*
X114841000Y-90460000D01*
X114841000Y-92540000D02*
X114841000Y-94621000D01*
X114881000Y-88390000D02*
X114881000Y-90460000D01*
X114881000Y-92540000D02*
X114881000Y-94610000D01*
X114921000Y-88402000D02*
X114921000Y-90460000D01*
X114921000Y-92540000D02*
X114921000Y-94598000D01*
X114961000Y-88414000D02*
X114961000Y-90460000D01*
X114961000Y-92540000D02*
X114961000Y-94586000D01*
X115001000Y-88426000D02*
X115001000Y-90460000D01*
X115001000Y-92540000D02*
X115001000Y-94574000D01*
X115041000Y-88439000D02*
X115041000Y-90460000D01*
X115041000Y-92540000D02*
X115041000Y-94561000D01*
X115081000Y-88453000D02*
X115081000Y-90460000D01*
X115081000Y-92540000D02*
X115081000Y-94547000D01*
X115121000Y-88467000D02*
X115121000Y-90460000D01*
X115121000Y-92540000D02*
X115121000Y-94533000D01*
X115161000Y-88482000D02*
X115161000Y-90460000D01*
X115161000Y-92540000D02*
X115161000Y-94518000D01*
X115201000Y-88498000D02*
X115201000Y-90460000D01*
X115201000Y-92540000D02*
X115201000Y-94502000D01*
X115241000Y-88514000D02*
X115241000Y-90460000D01*
X115241000Y-92540000D02*
X115241000Y-94486000D01*
X115281000Y-88530000D02*
X115281000Y-90460000D01*
X115281000Y-92540000D02*
X115281000Y-94470000D01*
X115321000Y-88548000D02*
X115321000Y-90460000D01*
X115321000Y-92540000D02*
X115321000Y-94452000D01*
X115361000Y-88566000D02*
X115361000Y-90460000D01*
X115361000Y-92540000D02*
X115361000Y-94434000D01*
X115401000Y-88584000D02*
X115401000Y-90460000D01*
X115401000Y-92540000D02*
X115401000Y-94416000D01*
X115441000Y-88604000D02*
X115441000Y-90460000D01*
X115441000Y-92540000D02*
X115441000Y-94396000D01*
X115481000Y-88624000D02*
X115481000Y-90460000D01*
X115481000Y-92540000D02*
X115481000Y-94376000D01*
X115521000Y-88644000D02*
X115521000Y-90460000D01*
X115521000Y-92540000D02*
X115521000Y-94356000D01*
X115561000Y-88666000D02*
X115561000Y-90460000D01*
X115561000Y-92540000D02*
X115561000Y-94334000D01*
X115601000Y-88688000D02*
X115601000Y-90460000D01*
X115601000Y-92540000D02*
X115601000Y-94312000D01*
X115641000Y-88710000D02*
X115641000Y-90460000D01*
X115641000Y-92540000D02*
X115641000Y-94290000D01*
X115681000Y-88734000D02*
X115681000Y-90460000D01*
X115681000Y-92540000D02*
X115681000Y-94266000D01*
X115721000Y-88758000D02*
X115721000Y-90460000D01*
X115721000Y-92540000D02*
X115721000Y-94242000D01*
X115761000Y-88784000D02*
X115761000Y-90460000D01*
X115761000Y-92540000D02*
X115761000Y-94216000D01*
X115801000Y-88810000D02*
X115801000Y-90460000D01*
X115801000Y-92540000D02*
X115801000Y-94190000D01*
X115841000Y-88836000D02*
X115841000Y-90460000D01*
X115841000Y-92540000D02*
X115841000Y-94164000D01*
X115881000Y-88864000D02*
X115881000Y-90460000D01*
X115881000Y-92540000D02*
X115881000Y-94136000D01*
X115921000Y-88893000D02*
X115921000Y-90460000D01*
X115921000Y-92540000D02*
X115921000Y-94107000D01*
X115961000Y-88922000D02*
X115961000Y-90460000D01*
X115961000Y-92540000D02*
X115961000Y-94078000D01*
X116001000Y-88952000D02*
X116001000Y-90460000D01*
X116001000Y-92540000D02*
X116001000Y-94048000D01*
X116041000Y-88984000D02*
X116041000Y-90460000D01*
X116041000Y-92540000D02*
X116041000Y-94016000D01*
X116081000Y-89016000D02*
X116081000Y-90460000D01*
X116081000Y-92540000D02*
X116081000Y-93984000D01*
X116121000Y-89050000D02*
X116121000Y-90460000D01*
X116121000Y-92540000D02*
X116121000Y-93950000D01*
X116161000Y-89084000D02*
X116161000Y-90460000D01*
X116161000Y-92540000D02*
X116161000Y-93916000D01*
X116201000Y-89120000D02*
X116201000Y-90460000D01*
X116201000Y-92540000D02*
X116201000Y-93880000D01*
X116241000Y-89157000D02*
X116241000Y-90460000D01*
X116241000Y-92540000D02*
X116241000Y-93843000D01*
X116281000Y-89195000D02*
X116281000Y-90460000D01*
X116281000Y-92540000D02*
X116281000Y-93805000D01*
X116321000Y-89235000D02*
X116321000Y-93765000D01*
X116361000Y-89276000D02*
X116361000Y-93724000D01*
X116401000Y-89318000D02*
X116401000Y-93682000D01*
X116441000Y-89363000D02*
X116441000Y-93637000D01*
X116481000Y-89408000D02*
X116481000Y-93592000D01*
X116521000Y-89456000D02*
X116521000Y-93544000D01*
X116561000Y-89505000D02*
X116561000Y-93495000D01*
X116601000Y-89556000D02*
X116601000Y-93444000D01*
X116641000Y-89610000D02*
X116641000Y-93390000D01*
X116681000Y-89666000D02*
X116681000Y-93334000D01*
X116721000Y-89724000D02*
X116721000Y-93276000D01*
X116761000Y-89786000D02*
X116761000Y-93214000D01*
X116801000Y-89850000D02*
X116801000Y-93150000D01*
X116841000Y-89919000D02*
X116841000Y-93081000D01*
X116881000Y-89991000D02*
X116881000Y-93009000D01*
X116921000Y-90068000D02*
X116921000Y-92932000D01*
X116961000Y-90150000D02*
X116961000Y-92850000D01*
X117001000Y-90238000D02*
X117001000Y-92762000D01*
X117041000Y-90335000D02*
X117041000Y-92665000D01*
X117081000Y-90441000D02*
X117081000Y-92559000D01*
X117121000Y-90560000D02*
X117121000Y-92440000D01*
X117161000Y-90698000D02*
X117161000Y-92302000D01*
X117201000Y-90867000D02*
X117201000Y-92133000D01*
X117241000Y-91098000D02*
X117241000Y-91902000D01*
X110499759Y-89661000D02*
X111129759Y-89661000D01*
X110814759Y-89346000D02*
X110814759Y-89976000D01*
G04 #@! TO.C,CN5*
X114170000Y-81030000D02*
X116830000Y-81030000D01*
X114170000Y-68270000D02*
X114170000Y-81030000D01*
X116830000Y-68270000D02*
X116830000Y-81030000D01*
X114170000Y-68270000D02*
X116830000Y-68270000D01*
X114170000Y-67000000D02*
X114170000Y-65670000D01*
X114170000Y-65670000D02*
X115500000Y-65670000D01*
G04 #@! TO.C,VOL2*
D10*
X158994574Y-128040700D02*
X158783250Y-129073392D01*
X159571925Y-128374033D01*
X160025557Y-128635938D02*
X160190514Y-128731176D01*
X160249183Y-128820034D01*
X160284043Y-128950132D01*
X160230044Y-129138899D01*
X160063377Y-129427574D01*
X159926900Y-129568722D01*
X159796802Y-129603581D01*
X159690514Y-129597201D01*
X159525557Y-129501963D01*
X159466888Y-129413105D01*
X159432028Y-129283007D01*
X159486027Y-129094241D01*
X159652694Y-128805565D01*
X159789171Y-128664418D01*
X159919269Y-128629558D01*
X160025557Y-128635938D01*
X160680258Y-130168630D02*
X160267865Y-129930535D01*
X160767865Y-129064509D01*
X161380074Y-129527940D02*
X161445123Y-129510511D01*
X161551411Y-129516890D01*
X161757608Y-129635938D01*
X161816277Y-129724796D01*
X161833707Y-129789845D01*
X161827327Y-129896133D01*
X161779708Y-129978612D01*
X161667040Y-130078520D01*
X160886454Y-130287678D01*
X161422565Y-130597201D01*
G04 #@! TO.C,IC1*
X129023809Y-72786380D02*
X129023809Y-71786380D01*
X130071428Y-72691142D02*
X130023809Y-72738761D01*
X129880952Y-72786380D01*
X129785714Y-72786380D01*
X129642857Y-72738761D01*
X129547619Y-72643523D01*
X129500000Y-72548285D01*
X129452380Y-72357809D01*
X129452380Y-72214952D01*
X129500000Y-72024476D01*
X129547619Y-71929238D01*
X129642857Y-71834000D01*
X129785714Y-71786380D01*
X129880952Y-71786380D01*
X130023809Y-71834000D01*
X130071428Y-71881619D01*
X131023809Y-72786380D02*
X130452380Y-72786380D01*
X130738095Y-72786380D02*
X130738095Y-71786380D01*
X130642857Y-71929238D01*
X130547619Y-72024476D01*
X130452380Y-72072095D01*
X123880952Y-83452380D02*
X124547619Y-84452380D01*
X124547619Y-83452380D02*
X123880952Y-84452380D01*
X124928571Y-84452380D02*
X124928571Y-83452380D01*
X125357142Y-84166666D02*
X125833333Y-84166666D01*
X125261904Y-84452380D02*
X125595238Y-83452380D01*
X125928571Y-84452380D01*
X126452380Y-83452380D02*
X126642857Y-83452380D01*
X126738095Y-83500000D01*
X126833333Y-83595238D01*
X126880952Y-83785714D01*
X126880952Y-84119047D01*
X126833333Y-84309523D01*
X126738095Y-84404761D01*
X126642857Y-84452380D01*
X126452380Y-84452380D01*
X126357142Y-84404761D01*
X126261904Y-84309523D01*
X126214285Y-84119047D01*
X126214285Y-83785714D01*
X126261904Y-83595238D01*
X126357142Y-83500000D01*
X126452380Y-83452380D01*
X127309523Y-84071428D02*
X128071428Y-84071428D01*
X128547619Y-83928571D02*
X128880952Y-83928571D01*
X129023809Y-84452380D02*
X128547619Y-84452380D01*
X128547619Y-83452380D01*
X129023809Y-83452380D01*
X129404761Y-84404761D02*
X129547619Y-84452380D01*
X129785714Y-84452380D01*
X129880952Y-84404761D01*
X129928571Y-84357142D01*
X129976190Y-84261904D01*
X129976190Y-84166666D01*
X129928571Y-84071428D01*
X129880952Y-84023809D01*
X129785714Y-83976190D01*
X129595238Y-83928571D01*
X129500000Y-83880952D01*
X129452380Y-83833333D01*
X129404761Y-83738095D01*
X129404761Y-83642857D01*
X129452380Y-83547619D01*
X129500000Y-83500000D01*
X129595238Y-83452380D01*
X129833333Y-83452380D01*
X129976190Y-83500000D01*
X130404761Y-84452380D02*
X130404761Y-83452380D01*
X130785714Y-83452380D01*
X130880952Y-83500000D01*
X130928571Y-83547619D01*
X130976190Y-83642857D01*
X130976190Y-83785714D01*
X130928571Y-83880952D01*
X130880952Y-83928571D01*
X130785714Y-83976190D01*
X130404761Y-83976190D01*
X131309523Y-83452380D02*
X131928571Y-83452380D01*
X131595238Y-83833333D01*
X131738095Y-83833333D01*
X131833333Y-83880952D01*
X131880952Y-83928571D01*
X131928571Y-84023809D01*
X131928571Y-84261904D01*
X131880952Y-84357142D01*
X131833333Y-84404761D01*
X131738095Y-84452380D01*
X131452380Y-84452380D01*
X131357142Y-84404761D01*
X131309523Y-84357142D01*
X132309523Y-83547619D02*
X132357142Y-83500000D01*
X132452380Y-83452380D01*
X132690476Y-83452380D01*
X132785714Y-83500000D01*
X132833333Y-83547619D01*
X132880952Y-83642857D01*
X132880952Y-83738095D01*
X132833333Y-83880952D01*
X132261904Y-84452380D01*
X132880952Y-84452380D01*
X133309523Y-84071428D02*
X134071428Y-84071428D01*
X135119047Y-84357142D02*
X135071428Y-84404761D01*
X134928571Y-84452380D01*
X134833333Y-84452380D01*
X134690476Y-84404761D01*
X134595238Y-84309523D01*
X134547619Y-84214285D01*
X134500000Y-84023809D01*
X134500000Y-83880952D01*
X134547619Y-83690476D01*
X134595238Y-83595238D01*
X134690476Y-83500000D01*
X134833333Y-83452380D01*
X134928571Y-83452380D01*
X135071428Y-83500000D01*
X135119047Y-83547619D01*
X135452380Y-83452380D02*
X136071428Y-83452380D01*
X135738095Y-83833333D01*
X135880952Y-83833333D01*
X135976190Y-83880952D01*
X136023809Y-83928571D01*
X136071428Y-84023809D01*
X136071428Y-84261904D01*
X136023809Y-84357142D01*
X135976190Y-84404761D01*
X135880952Y-84452380D01*
X135595238Y-84452380D01*
X135500000Y-84404761D01*
X135452380Y-84357142D01*
G04 #@! TO.C,BZ1*
X155159047Y-98066571D02*
X155301904Y-98114190D01*
X155349523Y-98161809D01*
X155397142Y-98257047D01*
X155397142Y-98399904D01*
X155349523Y-98495142D01*
X155301904Y-98542761D01*
X155206666Y-98590380D01*
X154825714Y-98590380D01*
X154825714Y-97590380D01*
X155159047Y-97590380D01*
X155254285Y-97638000D01*
X155301904Y-97685619D01*
X155349523Y-97780857D01*
X155349523Y-97876095D01*
X155301904Y-97971333D01*
X155254285Y-98018952D01*
X155159047Y-98066571D01*
X154825714Y-98066571D01*
X155730476Y-97590380D02*
X156397142Y-97590380D01*
X155730476Y-98590380D01*
X156397142Y-98590380D01*
X157301904Y-98590380D02*
X156730476Y-98590380D01*
X157016190Y-98590380D02*
X157016190Y-97590380D01*
X156920952Y-97733238D01*
X156825714Y-97828476D01*
X156730476Y-97876095D01*
G04 #@! TO.C,CN1*
X129309523Y-90357142D02*
X129261904Y-90404761D01*
X129119047Y-90452380D01*
X129023809Y-90452380D01*
X128880952Y-90404761D01*
X128785714Y-90309523D01*
X128738095Y-90214285D01*
X128690476Y-90023809D01*
X128690476Y-89880952D01*
X128738095Y-89690476D01*
X128785714Y-89595238D01*
X128880952Y-89500000D01*
X129023809Y-89452380D01*
X129119047Y-89452380D01*
X129261904Y-89500000D01*
X129309523Y-89547619D01*
X129738095Y-90452380D02*
X129738095Y-89452380D01*
X130309523Y-90452380D01*
X130309523Y-89452380D01*
X131309523Y-90452380D02*
X130738095Y-90452380D01*
X131023809Y-90452380D02*
X131023809Y-89452380D01*
X130928571Y-89595238D01*
X130833333Y-89690476D01*
X130738095Y-89738095D01*
G04 #@! TO.C,CN2*
X129309523Y-99357142D02*
X129261904Y-99404761D01*
X129119047Y-99452380D01*
X129023809Y-99452380D01*
X128880952Y-99404761D01*
X128785714Y-99309523D01*
X128738095Y-99214285D01*
X128690476Y-99023809D01*
X128690476Y-98880952D01*
X128738095Y-98690476D01*
X128785714Y-98595238D01*
X128880952Y-98500000D01*
X129023809Y-98452380D01*
X129119047Y-98452380D01*
X129261904Y-98500000D01*
X129309523Y-98547619D01*
X129738095Y-99452380D02*
X129738095Y-98452380D01*
X130309523Y-99452380D01*
X130309523Y-98452380D01*
X130738095Y-98547619D02*
X130785714Y-98500000D01*
X130880952Y-98452380D01*
X131119047Y-98452380D01*
X131214285Y-98500000D01*
X131261904Y-98547619D01*
X131309523Y-98642857D01*
X131309523Y-98738095D01*
X131261904Y-98880952D01*
X130690476Y-99452380D01*
X131309523Y-99452380D01*
G04 #@! TO.C,IC2*
X145333809Y-82872380D02*
X145333809Y-81872380D01*
X146381428Y-82777142D02*
X146333809Y-82824761D01*
X146190952Y-82872380D01*
X146095714Y-82872380D01*
X145952857Y-82824761D01*
X145857619Y-82729523D01*
X145810000Y-82634285D01*
X145762380Y-82443809D01*
X145762380Y-82300952D01*
X145810000Y-82110476D01*
X145857619Y-82015238D01*
X145952857Y-81920000D01*
X146095714Y-81872380D01*
X146190952Y-81872380D01*
X146333809Y-81920000D01*
X146381428Y-81967619D01*
X146762380Y-81967619D02*
X146810000Y-81920000D01*
X146905238Y-81872380D01*
X147143333Y-81872380D01*
X147238571Y-81920000D01*
X147286190Y-81967619D01*
X147333809Y-82062857D01*
X147333809Y-82158095D01*
X147286190Y-82300952D01*
X146714761Y-82872380D01*
X147333809Y-82872380D01*
X141667142Y-95514666D02*
X142143333Y-95514666D01*
X141571904Y-95800380D02*
X141905238Y-94800380D01*
X142238571Y-95800380D01*
X142571904Y-95276571D02*
X142905238Y-95276571D01*
X143048095Y-95800380D02*
X142571904Y-95800380D01*
X142571904Y-94800380D01*
X143048095Y-94800380D01*
X143476666Y-95419428D02*
X144238571Y-95419428D01*
X144714761Y-95800380D02*
X144714761Y-94800380D01*
X145095714Y-94800380D01*
X145190952Y-94848000D01*
X145238571Y-94895619D01*
X145286190Y-94990857D01*
X145286190Y-95133714D01*
X145238571Y-95228952D01*
X145190952Y-95276571D01*
X145095714Y-95324190D01*
X144714761Y-95324190D01*
X146286190Y-95705142D02*
X146238571Y-95752761D01*
X146095714Y-95800380D01*
X146000476Y-95800380D01*
X145857619Y-95752761D01*
X145762380Y-95657523D01*
X145714761Y-95562285D01*
X145667142Y-95371809D01*
X145667142Y-95228952D01*
X145714761Y-95038476D01*
X145762380Y-94943238D01*
X145857619Y-94848000D01*
X146000476Y-94800380D01*
X146095714Y-94800380D01*
X146238571Y-94848000D01*
X146286190Y-94895619D01*
X146667142Y-95514666D02*
X147143333Y-95514666D01*
X146571904Y-95800380D02*
X146905238Y-94800380D01*
X147238571Y-95800380D01*
X147619523Y-95800380D02*
X147810000Y-95800380D01*
X147905238Y-95752761D01*
X147952857Y-95705142D01*
X148048095Y-95562285D01*
X148095714Y-95371809D01*
X148095714Y-94990857D01*
X148048095Y-94895619D01*
X148000476Y-94848000D01*
X147905238Y-94800380D01*
X147714761Y-94800380D01*
X147619523Y-94848000D01*
X147571904Y-94895619D01*
X147524285Y-94990857D01*
X147524285Y-95228952D01*
X147571904Y-95324190D01*
X147619523Y-95371809D01*
X147714761Y-95419428D01*
X147905238Y-95419428D01*
X148000476Y-95371809D01*
X148048095Y-95324190D01*
X148095714Y-95228952D01*
X148429047Y-94800380D02*
X149048095Y-94800380D01*
X148714761Y-95181333D01*
X148857619Y-95181333D01*
X148952857Y-95228952D01*
X149000476Y-95276571D01*
X149048095Y-95371809D01*
X149048095Y-95609904D01*
X149000476Y-95705142D01*
X148952857Y-95752761D01*
X148857619Y-95800380D01*
X148571904Y-95800380D01*
X148476666Y-95752761D01*
X148429047Y-95705142D01*
X149667142Y-94800380D02*
X149762380Y-94800380D01*
X149857619Y-94848000D01*
X149905238Y-94895619D01*
X149952857Y-94990857D01*
X150000476Y-95181333D01*
X150000476Y-95419428D01*
X149952857Y-95609904D01*
X149905238Y-95705142D01*
X149857619Y-95752761D01*
X149762380Y-95800380D01*
X149667142Y-95800380D01*
X149571904Y-95752761D01*
X149524285Y-95705142D01*
X149476666Y-95609904D01*
X149429047Y-95419428D01*
X149429047Y-95181333D01*
X149476666Y-94990857D01*
X149524285Y-94895619D01*
X149571904Y-94848000D01*
X149667142Y-94800380D01*
X150857619Y-94800380D02*
X150667142Y-94800380D01*
X150571904Y-94848000D01*
X150524285Y-94895619D01*
X150429047Y-95038476D01*
X150381428Y-95228952D01*
X150381428Y-95609904D01*
X150429047Y-95705142D01*
X150476666Y-95752761D01*
X150571904Y-95800380D01*
X150762380Y-95800380D01*
X150857619Y-95752761D01*
X150905238Y-95705142D01*
X150952857Y-95609904D01*
X150952857Y-95371809D01*
X150905238Y-95276571D01*
X150857619Y-95228952D01*
X150762380Y-95181333D01*
X150571904Y-95181333D01*
X150476666Y-95228952D01*
X150429047Y-95276571D01*
X150381428Y-95371809D01*
G04 #@! TO.C,SW1*
X119916666Y-139404761D02*
X120059523Y-139452380D01*
X120297619Y-139452380D01*
X120392857Y-139404761D01*
X120440476Y-139357142D01*
X120488095Y-139261904D01*
X120488095Y-139166666D01*
X120440476Y-139071428D01*
X120392857Y-139023809D01*
X120297619Y-138976190D01*
X120107142Y-138928571D01*
X120011904Y-138880952D01*
X119964285Y-138833333D01*
X119916666Y-138738095D01*
X119916666Y-138642857D01*
X119964285Y-138547619D01*
X120011904Y-138500000D01*
X120107142Y-138452380D01*
X120345238Y-138452380D01*
X120488095Y-138500000D01*
X120821428Y-138452380D02*
X121059523Y-139452380D01*
X121250000Y-138738095D01*
X121440476Y-139452380D01*
X121678571Y-138452380D01*
X122583333Y-139452380D02*
X122011904Y-139452380D01*
X122297619Y-139452380D02*
X122297619Y-138452380D01*
X122202380Y-138595238D01*
X122107142Y-138690476D01*
X122011904Y-138738095D01*
G04 #@! TO.C,SW2*
X137416666Y-139404761D02*
X137559523Y-139452380D01*
X137797619Y-139452380D01*
X137892857Y-139404761D01*
X137940476Y-139357142D01*
X137988095Y-139261904D01*
X137988095Y-139166666D01*
X137940476Y-139071428D01*
X137892857Y-139023809D01*
X137797619Y-138976190D01*
X137607142Y-138928571D01*
X137511904Y-138880952D01*
X137464285Y-138833333D01*
X137416666Y-138738095D01*
X137416666Y-138642857D01*
X137464285Y-138547619D01*
X137511904Y-138500000D01*
X137607142Y-138452380D01*
X137845238Y-138452380D01*
X137988095Y-138500000D01*
X138321428Y-138452380D02*
X138559523Y-139452380D01*
X138750000Y-138738095D01*
X138940476Y-139452380D01*
X139178571Y-138452380D01*
X139511904Y-138547619D02*
X139559523Y-138500000D01*
X139654761Y-138452380D01*
X139892857Y-138452380D01*
X139988095Y-138500000D01*
X140035714Y-138547619D01*
X140083333Y-138642857D01*
X140083333Y-138738095D01*
X140035714Y-138880952D01*
X139464285Y-139452380D01*
X140083333Y-139452380D01*
G04 #@! TO.C,SW3*
X104166666Y-99214761D02*
X104309523Y-99262380D01*
X104547619Y-99262380D01*
X104642857Y-99214761D01*
X104690476Y-99167142D01*
X104738095Y-99071904D01*
X104738095Y-98976666D01*
X104690476Y-98881428D01*
X104642857Y-98833809D01*
X104547619Y-98786190D01*
X104357142Y-98738571D01*
X104261904Y-98690952D01*
X104214285Y-98643333D01*
X104166666Y-98548095D01*
X104166666Y-98452857D01*
X104214285Y-98357619D01*
X104261904Y-98310000D01*
X104357142Y-98262380D01*
X104595238Y-98262380D01*
X104738095Y-98310000D01*
X105071428Y-98262380D02*
X105309523Y-99262380D01*
X105500000Y-98548095D01*
X105690476Y-99262380D01*
X105928571Y-98262380D01*
X106214285Y-98262380D02*
X106833333Y-98262380D01*
X106500000Y-98643333D01*
X106642857Y-98643333D01*
X106738095Y-98690952D01*
X106785714Y-98738571D01*
X106833333Y-98833809D01*
X106833333Y-99071904D01*
X106785714Y-99167142D01*
X106738095Y-99214761D01*
X106642857Y-99262380D01*
X106357142Y-99262380D01*
X106261904Y-99214761D01*
X106214285Y-99167142D01*
G04 #@! TO.C,VOL1*
X98220955Y-129756011D02*
X99009630Y-130455370D01*
X98798306Y-129422678D01*
X99251938Y-129160773D02*
X99416895Y-129065535D01*
X99523183Y-129059155D01*
X99653281Y-129094015D01*
X99789758Y-129235162D01*
X99956425Y-129523838D01*
X100010424Y-129712604D01*
X99975564Y-129842702D01*
X99916895Y-129931560D01*
X99751938Y-130026798D01*
X99645650Y-130033178D01*
X99515552Y-129998319D01*
X99379075Y-129857171D01*
X99212408Y-129568496D01*
X99158409Y-129379729D01*
X99193269Y-129249631D01*
X99251938Y-129160773D01*
X100906639Y-129360132D02*
X100494245Y-129598227D01*
X99994245Y-128732202D01*
X101648946Y-128931560D02*
X101154074Y-129217275D01*
X101401510Y-129074417D02*
X100901510Y-128208392D01*
X100890460Y-128379729D01*
X100855601Y-128509827D01*
X100796931Y-128598685D01*
G04 #@! TO.C,CN3*
X102464056Y-89776541D02*
X102481486Y-89841590D01*
X102451297Y-89989117D01*
X102403678Y-90071596D01*
X102291010Y-90171504D01*
X102160912Y-90206364D01*
X102054624Y-90199984D01*
X101865857Y-90145985D01*
X101742139Y-90074557D01*
X101600992Y-89938079D01*
X101542323Y-89849221D01*
X101507463Y-89719123D01*
X101537652Y-89571596D01*
X101585271Y-89489117D01*
X101697939Y-89389209D01*
X101762988Y-89371779D01*
X102760821Y-89453006D02*
X101894795Y-88953006D01*
X103046535Y-88958134D01*
X102180509Y-88458134D01*
X102370986Y-88128220D02*
X102680509Y-87592109D01*
X102843757Y-88071260D01*
X102915186Y-87947543D01*
X103004044Y-87888873D01*
X103069093Y-87871444D01*
X103175381Y-87877823D01*
X103381578Y-87996871D01*
X103440247Y-88085729D01*
X103457676Y-88150778D01*
X103451297Y-88257066D01*
X103308440Y-88504502D01*
X103219581Y-88563171D01*
X103154532Y-88580601D01*
G04 #@! TO.C,CN4*
X156845467Y-88580601D02*
X156780418Y-88563171D01*
X156667750Y-88463263D01*
X156620131Y-88380784D01*
X156589942Y-88233257D01*
X156624801Y-88103159D01*
X156683470Y-88014301D01*
X156824618Y-87877823D01*
X156948336Y-87806395D01*
X157137103Y-87752396D01*
X157243391Y-87746016D01*
X157373488Y-87780876D01*
X157486156Y-87880784D01*
X157533775Y-87963263D01*
X157563965Y-88110790D01*
X157546535Y-88175839D01*
X156977274Y-88999374D02*
X157843299Y-88499374D01*
X157262988Y-89494245D01*
X158129013Y-88994245D01*
X158292719Y-89944459D02*
X157715369Y-90277792D01*
X158503586Y-89547786D02*
X157765949Y-89698733D01*
X158075473Y-90234844D01*
G04 #@! TO.C,R1*
X144289333Y-67960380D02*
X143956000Y-67484190D01*
X143717904Y-67960380D02*
X143717904Y-66960380D01*
X144098857Y-66960380D01*
X144194095Y-67008000D01*
X144241714Y-67055619D01*
X144289333Y-67150857D01*
X144289333Y-67293714D01*
X144241714Y-67388952D01*
X144194095Y-67436571D01*
X144098857Y-67484190D01*
X143717904Y-67484190D01*
X145241714Y-67960380D02*
X144670285Y-67960380D01*
X144956000Y-67960380D02*
X144956000Y-66960380D01*
X144860761Y-67103238D01*
X144765523Y-67198476D01*
X144670285Y-67246095D01*
G04 #@! TO.C,R2*
X145333333Y-99452380D02*
X145000000Y-98976190D01*
X144761904Y-99452380D02*
X144761904Y-98452380D01*
X145142857Y-98452380D01*
X145238095Y-98500000D01*
X145285714Y-98547619D01*
X145333333Y-98642857D01*
X145333333Y-98785714D01*
X145285714Y-98880952D01*
X145238095Y-98928571D01*
X145142857Y-98976190D01*
X144761904Y-98976190D01*
X145714285Y-98547619D02*
X145761904Y-98500000D01*
X145857142Y-98452380D01*
X146095238Y-98452380D01*
X146190476Y-98500000D01*
X146238095Y-98547619D01*
X146285714Y-98642857D01*
X146285714Y-98738095D01*
X146238095Y-98880952D01*
X145666666Y-99452380D01*
X146285714Y-99452380D01*
G04 #@! TO.C,C1*
X113833333Y-87457142D02*
X113785714Y-87504761D01*
X113642857Y-87552380D01*
X113547619Y-87552380D01*
X113404761Y-87504761D01*
X113309523Y-87409523D01*
X113261904Y-87314285D01*
X113214285Y-87123809D01*
X113214285Y-86980952D01*
X113261904Y-86790476D01*
X113309523Y-86695238D01*
X113404761Y-86600000D01*
X113547619Y-86552380D01*
X113642857Y-86552380D01*
X113785714Y-86600000D01*
X113833333Y-86647619D01*
X114785714Y-87552380D02*
X114214285Y-87552380D01*
X114500000Y-87552380D02*
X114500000Y-86552380D01*
X114404761Y-86695238D01*
X114309523Y-86790476D01*
X114214285Y-86838095D01*
G04 #@! TO.C,CN5*
X114809523Y-64717142D02*
X114761904Y-64764761D01*
X114619047Y-64812380D01*
X114523809Y-64812380D01*
X114380952Y-64764761D01*
X114285714Y-64669523D01*
X114238095Y-64574285D01*
X114190476Y-64383809D01*
X114190476Y-64240952D01*
X114238095Y-64050476D01*
X114285714Y-63955238D01*
X114380952Y-63860000D01*
X114523809Y-63812380D01*
X114619047Y-63812380D01*
X114761904Y-63860000D01*
X114809523Y-63907619D01*
X115238095Y-64812380D02*
X115238095Y-63812380D01*
X115809523Y-64812380D01*
X115809523Y-63812380D01*
X116761904Y-63812380D02*
X116285714Y-63812380D01*
X116238095Y-64288571D01*
X116285714Y-64240952D01*
X116380952Y-64193333D01*
X116619047Y-64193333D01*
X116714285Y-64240952D01*
X116761904Y-64288571D01*
X116809523Y-64383809D01*
X116809523Y-64621904D01*
X116761904Y-64717142D01*
X116714285Y-64764761D01*
X116619047Y-64812380D01*
X116380952Y-64812380D01*
X116285714Y-64764761D01*
X116238095Y-64717142D01*
G04 #@! TD*
M02*
