G04 #@! TF.GenerationSoftware,KiCad,Pcbnew,(5.0.2)-1*
G04 #@! TF.CreationDate,2020-02-29T00:21:09+09:00*
G04 #@! TF.ProjectId,House,486f7573-652e-46b6-9963-61645f706362,rev?*
G04 #@! TF.SameCoordinates,Original*
G04 #@! TF.FileFunction,Copper,L1,Top*
G04 #@! TF.FilePolarity,Positive*
%FSLAX46Y46*%
G04 Gerber Fmt 4.6, Leading zero omitted, Abs format (unit mm)*
G04 Created by KiCad (PCBNEW (5.0.2)-1) date 2020/02/29 0:21:09*
%MOMM*%
%LPD*%
G01*
G04 APERTURE LIST*
G04 #@! TA.AperFunction,SMDPad,CuDef*
%ADD10R,0.800000X0.800000*%
G04 #@! TD*
G04 #@! TA.AperFunction,SMDPad,CuDef*
%ADD11C,0.800000*%
G04 #@! TD*
G04 #@! TA.AperFunction,Conductor*
%ADD12C,0.100000*%
G04 #@! TD*
G04 #@! TA.AperFunction,ConnectorPad*
%ADD13R,1.470000X8.890000*%
G04 #@! TD*
G04 #@! TA.AperFunction,ViaPad*
%ADD14C,0.800000*%
G04 #@! TD*
G04 #@! TA.AperFunction,Conductor*
%ADD15C,0.500000*%
G04 #@! TD*
G04 #@! TA.AperFunction,Conductor*
%ADD16C,0.250000*%
G04 #@! TD*
G04 #@! TA.AperFunction,Conductor*
%ADD17C,0.254000*%
G04 #@! TD*
G04 APERTURE END LIST*
D10*
G04 #@! TO.P,D13,1*
G04 #@! TO.N,Net-(D1-Pad1)*
X172300000Y-98000000D03*
G04 #@! TO.P,D13,2*
G04 #@! TO.N,Net-(D13-Pad2)*
X170700000Y-98000000D03*
G04 #@! TD*
G04 #@! TO.P,D14,2*
G04 #@! TO.N,Net-(D14-Pad2)*
X181700000Y-98000000D03*
G04 #@! TO.P,D14,1*
G04 #@! TO.N,Net-(D1-Pad1)*
X183300000Y-98000000D03*
G04 #@! TD*
G04 #@! TO.P,D15,1*
G04 #@! TO.N,Net-(D1-Pad1)*
X182500000Y-88800000D03*
G04 #@! TO.P,D15,2*
G04 #@! TO.N,Net-(D15-Pad2)*
X182500000Y-87200000D03*
G04 #@! TD*
G04 #@! TO.P,D16,2*
G04 #@! TO.N,Net-(D16-Pad2)*
X182500000Y-77200000D03*
G04 #@! TO.P,D16,1*
G04 #@! TO.N,Net-(D1-Pad1)*
X182500000Y-78800000D03*
G04 #@! TD*
G04 #@! TO.P,D17,2*
G04 #@! TO.N,Net-(D1-Pad2)*
X113300000Y-68000000D03*
G04 #@! TO.P,D17,1*
G04 #@! TO.N,Net-(D17-Pad1)*
X111700000Y-68000000D03*
G04 #@! TD*
G04 #@! TO.P,D18,1*
G04 #@! TO.N,Net-(D17-Pad1)*
X122700000Y-68000000D03*
G04 #@! TO.P,D18,2*
G04 #@! TO.N,Net-(D18-Pad2)*
X124300000Y-68000000D03*
G04 #@! TD*
G04 #@! TO.P,D19,2*
G04 #@! TO.N,Net-(D19-Pad2)*
X136300000Y-68000000D03*
G04 #@! TO.P,D19,1*
G04 #@! TO.N,Net-(D17-Pad1)*
X134700000Y-68000000D03*
G04 #@! TD*
G04 #@! TO.P,D20,1*
G04 #@! TO.N,Net-(D17-Pad1)*
X146700000Y-68000000D03*
G04 #@! TO.P,D20,2*
G04 #@! TO.N,Net-(D20-Pad2)*
X148300000Y-68000000D03*
G04 #@! TD*
G04 #@! TO.P,D21,2*
G04 #@! TO.N,Net-(D21-Pad2)*
X160300000Y-68000000D03*
G04 #@! TO.P,D21,1*
G04 #@! TO.N,Net-(D17-Pad1)*
X158700000Y-68000000D03*
G04 #@! TD*
G04 #@! TO.P,D22,1*
G04 #@! TO.N,Net-(D17-Pad1)*
X170700000Y-68000000D03*
G04 #@! TO.P,D22,2*
G04 #@! TO.N,Net-(D22-Pad2)*
X172300000Y-68000000D03*
G04 #@! TD*
G04 #@! TO.P,D23,2*
G04 #@! TO.N,Net-(D23-Pad2)*
X183300000Y-68000000D03*
G04 #@! TO.P,D23,1*
G04 #@! TO.N,Net-(D17-Pad1)*
X181700000Y-68000000D03*
G04 #@! TD*
D11*
G04 #@! TO.P,D24,1*
G04 #@! TO.N,Net-(D17-Pad1)*
X191358207Y-68215323D03*
D12*
G04 #@! TD*
G04 #@! TO.N,Net-(D17-Pad1)*
G04 #@! TO.C,D24*
G36*
X191894972Y-68393881D02*
X191179649Y-68752088D01*
X190821442Y-68036765D01*
X191536765Y-67678558D01*
X191894972Y-68393881D01*
X191894972Y-68393881D01*
G37*
D11*
G04 #@! TO.P,D24,2*
G04 #@! TO.N,Net-(D24-Pad2)*
X190641793Y-66784677D03*
D12*
G04 #@! TD*
G04 #@! TO.N,Net-(D24-Pad2)*
G04 #@! TO.C,D24*
G36*
X191178558Y-66963235D02*
X190463235Y-67321442D01*
X190105028Y-66606119D01*
X190820351Y-66247912D01*
X191178558Y-66963235D01*
X191178558Y-66963235D01*
G37*
D10*
G04 #@! TO.P,D25,2*
G04 #@! TO.N,Net-(D25-Pad2)*
X136300000Y-98000000D03*
G04 #@! TO.P,D25,1*
G04 #@! TO.N,Net-(D17-Pad1)*
X134700000Y-98000000D03*
G04 #@! TD*
G04 #@! TO.P,D26,1*
G04 #@! TO.N,Net-(D17-Pad1)*
X146700000Y-98000000D03*
G04 #@! TO.P,D26,2*
G04 #@! TO.N,Net-(D10-Pad2)*
X148300000Y-98000000D03*
G04 #@! TD*
G04 #@! TO.P,D27,1*
G04 #@! TO.N,Net-(D17-Pad1)*
X158700000Y-98000000D03*
G04 #@! TO.P,D27,2*
G04 #@! TO.N,Net-(D11-Pad2)*
X160300000Y-98000000D03*
G04 #@! TD*
D11*
G04 #@! TO.P,D1,1*
G04 #@! TO.N,Net-(D1-Pad1)*
X104358207Y-66784677D03*
D12*
G04 #@! TD*
G04 #@! TO.N,Net-(D1-Pad1)*
G04 #@! TO.C,D1*
G36*
X104179649Y-66247912D02*
X104894972Y-66606119D01*
X104536765Y-67321442D01*
X103821442Y-66963235D01*
X104179649Y-66247912D01*
X104179649Y-66247912D01*
G37*
D11*
G04 #@! TO.P,D1,2*
G04 #@! TO.N,Net-(D1-Pad2)*
X103641793Y-68215323D03*
D12*
G04 #@! TD*
G04 #@! TO.N,Net-(D1-Pad2)*
G04 #@! TO.C,D1*
G36*
X103463235Y-67678558D02*
X104178558Y-68036765D01*
X103820351Y-68752088D01*
X103105028Y-68393881D01*
X103463235Y-67678558D01*
X103463235Y-67678558D01*
G37*
D10*
G04 #@! TO.P,D2,1*
G04 #@! TO.N,Net-(D1-Pad1)*
X111700000Y-52000000D03*
G04 #@! TO.P,D2,2*
G04 #@! TO.N,Net-(D18-Pad2)*
X113300000Y-52000000D03*
G04 #@! TD*
G04 #@! TO.P,D3,1*
G04 #@! TO.N,Net-(D1-Pad1)*
X122700000Y-52000000D03*
G04 #@! TO.P,D3,2*
G04 #@! TO.N,Net-(D19-Pad2)*
X124300000Y-52000000D03*
G04 #@! TD*
G04 #@! TO.P,D4,1*
G04 #@! TO.N,Net-(D1-Pad1)*
X134700000Y-52000000D03*
G04 #@! TO.P,D4,2*
G04 #@! TO.N,Net-(D20-Pad2)*
X136300000Y-52000000D03*
G04 #@! TD*
G04 #@! TO.P,D5,2*
G04 #@! TO.N,Net-(D21-Pad2)*
X148300000Y-52000000D03*
G04 #@! TO.P,D5,1*
G04 #@! TO.N,Net-(D1-Pad1)*
X146700000Y-52000000D03*
G04 #@! TD*
G04 #@! TO.P,D6,2*
G04 #@! TO.N,Net-(D22-Pad2)*
X160300000Y-52000000D03*
G04 #@! TO.P,D6,1*
G04 #@! TO.N,Net-(D1-Pad1)*
X158700000Y-52000000D03*
G04 #@! TD*
G04 #@! TO.P,D7,1*
G04 #@! TO.N,Net-(D1-Pad1)*
X170700000Y-52000000D03*
G04 #@! TO.P,D7,2*
G04 #@! TO.N,Net-(D23-Pad2)*
X172300000Y-52000000D03*
G04 #@! TD*
G04 #@! TO.P,D8,1*
G04 #@! TO.N,Net-(D1-Pad1)*
X181700000Y-52000000D03*
G04 #@! TO.P,D8,2*
G04 #@! TO.N,Net-(D24-Pad2)*
X183300000Y-52000000D03*
G04 #@! TD*
G04 #@! TO.P,D9,2*
G04 #@! TO.N,Net-(D25-Pad2)*
X112500000Y-77200000D03*
G04 #@! TO.P,D9,1*
G04 #@! TO.N,Net-(D1-Pad1)*
X112500000Y-78800000D03*
G04 #@! TD*
G04 #@! TO.P,D10,2*
G04 #@! TO.N,Net-(D10-Pad2)*
X112500000Y-87200000D03*
G04 #@! TO.P,D10,1*
G04 #@! TO.N,Net-(D1-Pad1)*
X112500000Y-88800000D03*
G04 #@! TD*
G04 #@! TO.P,D11,1*
G04 #@! TO.N,Net-(D1-Pad1)*
X111700000Y-98000000D03*
G04 #@! TO.P,D11,2*
G04 #@! TO.N,Net-(D11-Pad2)*
X113300000Y-98000000D03*
G04 #@! TD*
G04 #@! TO.P,D12,1*
G04 #@! TO.N,Net-(D1-Pad1)*
X122700000Y-98000000D03*
G04 #@! TO.P,D12,2*
G04 #@! TO.N,Net-(D12-Pad2)*
X124300000Y-98000000D03*
G04 #@! TD*
D13*
G04 #@! TO.P,J1,1*
G04 #@! TO.N,+5V*
X142420000Y-106000000D03*
G04 #@! TO.P,J1,2*
G04 #@! TO.N,SDA*
X144960000Y-106000000D03*
G04 #@! TO.P,J1,3*
G04 #@! TO.N,SCL*
X147500000Y-106000000D03*
G04 #@! TO.P,J1,4*
G04 #@! TO.N,Net-(J1-Pad4)*
X150040000Y-106000000D03*
G04 #@! TO.P,J1,5*
G04 #@! TO.N,GND*
X152580000Y-106000000D03*
G04 #@! TD*
D14*
G04 #@! TO.N,+5V*
X142500000Y-100500000D03*
G04 #@! TO.N,GND*
X187000000Y-65000000D03*
X187000000Y-68000000D03*
X173500000Y-88500000D03*
X121500000Y-88500000D03*
X121500000Y-79500000D03*
X121500000Y-70500000D03*
X173500000Y-70500000D03*
X173500000Y-79500000D03*
X102000000Y-68000000D03*
X193000000Y-68000000D03*
X173500000Y-98000000D03*
X121500000Y-98000000D03*
X114500000Y-98000000D03*
X181250000Y-88750000D03*
X182500000Y-96500000D03*
X152500000Y-100500000D03*
X121500000Y-52000000D03*
X145500000Y-52000000D03*
X169500000Y-52000000D03*
X180500000Y-52000000D03*
X157500000Y-52000000D03*
X133500000Y-52000000D03*
X184500000Y-52000000D03*
X110500000Y-52000000D03*
X137500000Y-95000000D03*
X137500000Y-85250000D03*
X157500000Y-85250000D03*
X157500000Y-95000000D03*
X154500000Y-70500000D03*
X140500000Y-70500000D03*
X169500000Y-68000000D03*
X133500000Y-68000000D03*
X108000000Y-68000000D03*
X108000000Y-65000000D03*
G04 #@! TO.N,Net-(D1-Pad1)*
X111000000Y-69750000D03*
X182500000Y-70000000D03*
X113750000Y-88750000D03*
X113750000Y-78750000D03*
X105500000Y-68000000D03*
G04 #@! TO.N,Net-(D1-Pad2)*
X114500000Y-68000000D03*
G04 #@! TO.N,Net-(D10-Pad2)*
X112500000Y-86000000D03*
X154500000Y-90750000D03*
X157500000Y-98000000D03*
X140500000Y-90750000D03*
X149500000Y-98000000D03*
G04 #@! TO.N,Net-(D11-Pad2)*
X161500000Y-98000000D03*
X112500000Y-96750000D03*
X154500000Y-92250000D03*
X140500000Y-92250000D03*
G04 #@! TO.N,SCL*
X147500000Y-100500000D03*
G04 #@! TO.N,SDA*
X145000000Y-100500000D03*
G04 #@! TO.N,Net-(D18-Pad2)*
X125500000Y-68000000D03*
G04 #@! TO.N,Net-(D19-Pad2)*
X137500000Y-68000000D03*
X136250000Y-79250000D03*
X136250000Y-83250000D03*
G04 #@! TO.N,Net-(D20-Pad2)*
X149500000Y-68000000D03*
G04 #@! TO.N,Net-(D21-Pad2)*
X161500000Y-68000000D03*
G04 #@! TO.N,Net-(D22-Pad2)*
X173500000Y-68000000D03*
G04 #@! TO.N,Net-(D23-Pad2)*
X184300000Y-68000000D03*
G04 #@! TO.N,Net-(D24-Pad2)*
X189500000Y-68000000D03*
G04 #@! TO.N,Net-(D25-Pad2)*
X112500000Y-76000000D03*
X145500000Y-98000000D03*
X154500000Y-89250000D03*
X140500000Y-89250000D03*
X137500000Y-98000000D03*
G04 #@! TO.N,Net-(D13-Pad2)*
X169500000Y-98000000D03*
G04 #@! TO.N,Net-(D14-Pad2)*
X180500000Y-98000000D03*
G04 #@! TO.N,Net-(D15-Pad2)*
X182500000Y-86000000D03*
G04 #@! TO.N,Net-(D16-Pad2)*
X182500000Y-76000000D03*
G04 #@! TO.N,Net-(D17-Pad1)*
X158750000Y-79250000D03*
X168500000Y-99000000D03*
X158750000Y-83250000D03*
X158700000Y-69000000D03*
X122700000Y-69000000D03*
G04 #@! TO.N,Net-(D12-Pad2)*
X133500000Y-98000000D03*
X154500000Y-87750000D03*
X140500000Y-87750000D03*
G04 #@! TD*
D15*
G04 #@! TO.N,+5V*
X142500000Y-105920000D02*
X142420000Y-106000000D01*
X142500000Y-100500000D02*
X142500000Y-105920000D01*
G04 #@! TO.N,GND*
X152500000Y-105920000D02*
X152580000Y-106000000D01*
X152500000Y-100500000D02*
X152500000Y-105920000D01*
D16*
G04 #@! TO.N,Net-(D1-Pad1)*
X104358207Y-66784677D02*
X111700000Y-52000000D01*
X111700000Y-51350000D02*
X111700000Y-52000000D01*
X112050000Y-51000000D02*
X111700000Y-51350000D01*
X181700000Y-51350000D02*
X181350000Y-51000000D01*
X181700000Y-52000000D02*
X181700000Y-51350000D01*
X122700000Y-51200000D02*
X122700000Y-52000000D01*
X122500000Y-51000000D02*
X122700000Y-51200000D01*
X122900000Y-51000000D02*
X122700000Y-51200000D01*
X123000000Y-51000000D02*
X122900000Y-51000000D01*
X123000000Y-51000000D02*
X122500000Y-51000000D01*
X134700000Y-51200000D02*
X134700000Y-52000000D01*
X134500000Y-51000000D02*
X134700000Y-51200000D01*
X134900000Y-51000000D02*
X134700000Y-51200000D01*
X135000000Y-51000000D02*
X134900000Y-51000000D01*
X135000000Y-51000000D02*
X134500000Y-51000000D01*
X146700000Y-51200000D02*
X146700000Y-52000000D01*
X146500000Y-51000000D02*
X146700000Y-51200000D01*
X146900000Y-51000000D02*
X146700000Y-51200000D01*
X147000000Y-51000000D02*
X146900000Y-51000000D01*
X147000000Y-51000000D02*
X146500000Y-51000000D01*
X158700000Y-51200000D02*
X158700000Y-52000000D01*
X158500000Y-51000000D02*
X158700000Y-51200000D01*
X158900000Y-51000000D02*
X158700000Y-51200000D01*
X159000000Y-51000000D02*
X158900000Y-51000000D01*
X159000000Y-51000000D02*
X158500000Y-51000000D01*
X170700000Y-51200000D02*
X170700000Y-52000000D01*
X170500000Y-51000000D02*
X170700000Y-51200000D01*
X170900000Y-51000000D02*
X170700000Y-51200000D01*
X171000000Y-51000000D02*
X170900000Y-51000000D01*
X171000000Y-51000000D02*
X170500000Y-51000000D01*
X122700000Y-98650000D02*
X122350000Y-99000000D01*
X122700000Y-98000000D02*
X122700000Y-98650000D01*
X111700000Y-98650000D02*
X111700000Y-98000000D01*
X112050000Y-99000000D02*
X111700000Y-98650000D01*
X122350000Y-99000000D02*
X112050000Y-99000000D01*
X112500000Y-78800000D02*
X111200000Y-78800000D01*
X111200000Y-78800000D02*
X111000000Y-79000000D01*
X111000000Y-79000000D02*
X111000000Y-88500000D01*
X111300000Y-88800000D02*
X112500000Y-88800000D01*
X111300000Y-88800000D02*
X111200000Y-88800000D01*
X111000000Y-88500000D02*
X111000000Y-89000000D01*
X111200000Y-88800000D02*
X111000000Y-89000000D01*
X111000000Y-88600000D02*
X111200000Y-88800000D01*
X111000000Y-88500000D02*
X111000000Y-88600000D01*
X111000000Y-78600000D02*
X111200000Y-78800000D01*
X111000000Y-78500000D02*
X111000000Y-78600000D01*
X111000000Y-78500000D02*
X111000000Y-70500000D01*
X111000000Y-79000000D02*
X111000000Y-78500000D01*
X112500000Y-88800000D02*
X113700000Y-88800000D01*
X113700000Y-88800000D02*
X113750000Y-88750000D01*
X112500000Y-78800000D02*
X113700000Y-78800000D01*
X113700000Y-78800000D02*
X113750000Y-78750000D01*
X122500000Y-51000000D02*
X112050000Y-51000000D01*
X134500000Y-51000000D02*
X123000000Y-51000000D01*
X146500000Y-51000000D02*
X135000000Y-51000000D01*
X158500000Y-51000000D02*
X147000000Y-51000000D01*
X170500000Y-51000000D02*
X159000000Y-51000000D01*
X181350000Y-51000000D02*
X171000000Y-51000000D01*
X111700000Y-98000000D02*
X111700000Y-97950000D01*
X111700000Y-97950000D02*
X111000000Y-97250000D01*
X111000000Y-89000000D02*
X111000000Y-97250000D01*
X182950000Y-99000000D02*
X183300000Y-98650000D01*
X172300000Y-98650000D02*
X172650000Y-99000000D01*
X172650000Y-99000000D02*
X182950000Y-99000000D01*
X183300000Y-98650000D02*
X183300000Y-98000000D01*
X172300000Y-98000000D02*
X172300000Y-98650000D01*
X184000000Y-89100000D02*
X183700000Y-88800000D01*
X184000000Y-89100000D02*
X184000000Y-88500000D01*
X184000000Y-88500000D02*
X183700000Y-88800000D01*
X183700000Y-88800000D02*
X182500000Y-88800000D01*
X182500000Y-78800000D02*
X183800000Y-78800000D01*
X183800000Y-78800000D02*
X184000000Y-79000000D01*
X184000000Y-78600000D02*
X183800000Y-78800000D01*
X184000000Y-78500000D02*
X184000000Y-78600000D01*
X184000000Y-79000000D02*
X184000000Y-78500000D01*
X184000000Y-70500000D02*
X184000000Y-71500000D01*
X182500000Y-70000000D02*
X183500000Y-70000000D01*
X183500000Y-70000000D02*
X184000000Y-70500000D01*
X184000000Y-78500000D02*
X184000000Y-71500000D01*
X184000000Y-79000000D02*
X184000000Y-88500000D01*
X184000000Y-97000000D02*
X184000000Y-97250000D01*
X184000000Y-89100000D02*
X184000000Y-97000000D01*
X183300000Y-98000000D02*
X183300000Y-97950000D01*
X183300000Y-97950000D02*
X184000000Y-97250000D01*
X111000000Y-70500000D02*
X111000000Y-69750000D01*
X105500000Y-68000000D02*
X105500000Y-67926470D01*
X105500000Y-67926470D02*
X104358207Y-66784677D01*
G04 #@! TO.N,Net-(D1-Pad2)*
X113300000Y-68000000D02*
X114500000Y-68000000D01*
X103641793Y-68215323D02*
X104426470Y-69000000D01*
X110500000Y-69000000D02*
X110750000Y-68750000D01*
X110750000Y-68750000D02*
X110750000Y-67500000D01*
X104426470Y-69000000D02*
X110500000Y-69000000D01*
X110750000Y-67500000D02*
X111250000Y-67000000D01*
X111250000Y-67000000D02*
X112800000Y-67000000D01*
X112800000Y-67000000D02*
X114000000Y-67000000D01*
X114000000Y-67000000D02*
X114500000Y-67500000D01*
X114500000Y-67500000D02*
X114500000Y-68000000D01*
G04 #@! TO.N,Net-(D10-Pad2)*
X112500000Y-87200000D02*
X112500000Y-86000000D01*
X154500000Y-98000000D02*
X157500000Y-98000000D01*
X154500000Y-90750000D02*
X140500000Y-90750000D01*
X149750000Y-98000000D02*
X154500000Y-98000000D01*
X148300000Y-98000000D02*
X149750000Y-98000000D01*
G04 #@! TO.N,Net-(D11-Pad2)*
X160300000Y-98000000D02*
X161500000Y-98000000D01*
X113300000Y-98000000D02*
X113300000Y-97550000D01*
X113300000Y-97550000D02*
X112500000Y-96750000D01*
X154500000Y-92250000D02*
X140500000Y-92250000D01*
D15*
G04 #@! TO.N,SCL*
X147500000Y-100500000D02*
X147500000Y-106000000D01*
G04 #@! TO.N,SDA*
X145000000Y-105960000D02*
X144960000Y-106000000D01*
X145000000Y-100500000D02*
X145000000Y-105960000D01*
D16*
G04 #@! TO.N,Net-(D18-Pad2)*
X124300000Y-68000000D02*
X116500000Y-52000000D01*
X116500000Y-52000000D02*
X113300000Y-52000000D01*
X124300000Y-68000000D02*
X125500000Y-68000000D01*
G04 #@! TO.N,Net-(D19-Pad2)*
X136300000Y-68000000D02*
X128500000Y-52000000D01*
X128500000Y-52000000D02*
X124300000Y-52000000D01*
X136300000Y-68000000D02*
X137500000Y-68000000D01*
X136250000Y-79250000D02*
X136250000Y-82225000D01*
X136250000Y-82225000D02*
X136250000Y-83250000D01*
G04 #@! TO.N,Net-(D20-Pad2)*
X148300000Y-68000000D02*
X140500000Y-52000000D01*
X140500000Y-52000000D02*
X136300000Y-52000000D01*
X148300000Y-68000000D02*
X149500000Y-68000000D01*
G04 #@! TO.N,Net-(D21-Pad2)*
X160300000Y-68000000D02*
X152500000Y-52000000D01*
X152500000Y-52000000D02*
X148300000Y-52000000D01*
X160300000Y-68000000D02*
X161500000Y-68000000D01*
G04 #@! TO.N,Net-(D22-Pad2)*
X164500000Y-52000000D02*
X172300000Y-68000000D01*
X164500000Y-52000000D02*
X160300000Y-52000000D01*
X172300000Y-68000000D02*
X173500000Y-68000000D01*
G04 #@! TO.N,Net-(D23-Pad2)*
X176500000Y-52000000D02*
X184300000Y-68000000D01*
X172300000Y-52000000D02*
X176500000Y-52000000D01*
X184300000Y-68000000D02*
X183300000Y-68000000D01*
G04 #@! TO.N,Net-(D24-Pad2)*
X183300000Y-52000000D02*
X190641793Y-66784677D01*
X190641793Y-66858207D02*
X189500000Y-68000000D01*
X190641793Y-66784677D02*
X190641793Y-66858207D01*
G04 #@! TO.N,Net-(D25-Pad2)*
X112500000Y-77200000D02*
X112500000Y-76000000D01*
X136300000Y-98000000D02*
X137500000Y-98000000D01*
X138250000Y-98000000D02*
X137500000Y-98000000D01*
X154500000Y-89250000D02*
X140500000Y-89250000D01*
X138250000Y-98000000D02*
X145500000Y-98000000D01*
G04 #@! TO.N,Net-(D13-Pad2)*
X170700000Y-98000000D02*
X169500000Y-98000000D01*
G04 #@! TO.N,Net-(D14-Pad2)*
X180500000Y-98000000D02*
X181700000Y-98000000D01*
G04 #@! TO.N,Net-(D15-Pad2)*
X182500000Y-86000000D02*
X182500000Y-87200000D01*
G04 #@! TO.N,Net-(D16-Pad2)*
X182500000Y-76000000D02*
X182500000Y-77200000D01*
G04 #@! TO.N,Net-(D17-Pad1)*
X111700000Y-68650000D02*
X111700000Y-68000000D01*
X112050000Y-69000000D02*
X111700000Y-68650000D01*
X122700000Y-68800000D02*
X122500000Y-69000000D01*
X122700000Y-68000000D02*
X122700000Y-68800000D01*
X122500000Y-69000000D02*
X112050000Y-69000000D01*
X134700000Y-68800000D02*
X134500000Y-69000000D01*
X134700000Y-68000000D02*
X134700000Y-68800000D01*
X134500000Y-69000000D02*
X123400000Y-69000000D01*
X134900000Y-69000000D02*
X134700000Y-68800000D01*
X135000000Y-69000000D02*
X134900000Y-69000000D01*
X135000000Y-69000000D02*
X134500000Y-69000000D01*
X146700000Y-68800000D02*
X146500000Y-69000000D01*
X146700000Y-68000000D02*
X146700000Y-68800000D01*
X146900000Y-69000000D02*
X146700000Y-68800000D01*
X147000000Y-69000000D02*
X146900000Y-69000000D01*
X147000000Y-69000000D02*
X146500000Y-69000000D01*
X158700000Y-68800000D02*
X158700000Y-68000000D01*
X158500000Y-69000000D02*
X158700000Y-68800000D01*
X158500000Y-69000000D02*
X147000000Y-69000000D01*
X158900000Y-69000000D02*
X158700000Y-68800000D01*
X159000000Y-69000000D02*
X158900000Y-69000000D01*
X170700000Y-68800000D02*
X170700000Y-68000000D01*
X170500000Y-69000000D02*
X170700000Y-68800000D01*
X170500000Y-69000000D02*
X159000000Y-69000000D01*
X170900000Y-69000000D02*
X170700000Y-68800000D01*
X171000000Y-69000000D02*
X170500000Y-69000000D01*
X190500000Y-69000000D02*
X190573530Y-69000000D01*
X190500000Y-69000000D02*
X191000000Y-69000000D01*
X191000000Y-69000000D02*
X191500000Y-68500000D01*
X191358207Y-68358207D02*
X191358207Y-68215323D01*
X191500000Y-68500000D02*
X191358207Y-68358207D01*
X181700000Y-68800000D02*
X181700000Y-68000000D01*
X181500000Y-69000000D02*
X181700000Y-68800000D01*
X181350000Y-69000000D02*
X181500000Y-69000000D01*
X181900000Y-69000000D02*
X181700000Y-68800000D01*
X182000000Y-69000000D02*
X181900000Y-69000000D01*
X181500000Y-69000000D02*
X182000000Y-69000000D01*
X146500000Y-69000000D02*
X142000000Y-69000000D01*
X142000000Y-69000000D02*
X141750000Y-69000000D01*
X138750000Y-69000000D02*
X135000000Y-69000000D01*
X141500000Y-69000000D02*
X138750000Y-69000000D01*
X141750000Y-69000000D02*
X141500000Y-69000000D01*
X141500000Y-69000000D02*
X141275000Y-69000000D01*
X123000000Y-69000000D02*
X122750000Y-69000000D01*
X182250000Y-69000000D02*
X182500000Y-69000000D01*
X182000000Y-69000000D02*
X182250000Y-69000000D01*
X182750000Y-69000000D02*
X190500000Y-69000000D01*
X182500000Y-69000000D02*
X182750000Y-69000000D01*
X180800000Y-69000000D02*
X171000000Y-69000000D01*
X181000000Y-69000000D02*
X180800000Y-69000000D01*
X181200000Y-69000000D02*
X181000000Y-69000000D01*
X181350000Y-69000000D02*
X181200000Y-69000000D01*
X171000000Y-69000000D02*
X170900000Y-69000000D01*
X123000000Y-69000000D02*
X122900000Y-69000000D01*
X158750000Y-79250000D02*
X158750000Y-83250000D01*
X159000000Y-69000000D02*
X158700000Y-69000000D01*
X158700000Y-69000000D02*
X158500000Y-69000000D01*
X158500000Y-99000000D02*
X159000000Y-99000000D01*
X158900000Y-99000000D02*
X158700000Y-98800000D01*
X159000000Y-99000000D02*
X158900000Y-99000000D01*
X158500000Y-99000000D02*
X158700000Y-98800000D01*
X158700000Y-98800000D02*
X158700000Y-98000000D01*
X146900000Y-99000000D02*
X146700000Y-98800000D01*
X146500000Y-99000000D02*
X147000000Y-99000000D01*
X146700000Y-98800000D02*
X146500000Y-99000000D01*
X147000000Y-99000000D02*
X146900000Y-99000000D01*
X146700000Y-98000000D02*
X146700000Y-98800000D01*
X134700000Y-98700000D02*
X135000000Y-99000000D01*
X134700000Y-98000000D02*
X134700000Y-98700000D01*
X135000000Y-99000000D02*
X146500000Y-99000000D01*
X159000000Y-99000000D02*
X168500000Y-99000000D01*
X147000000Y-99000000D02*
X158500000Y-99000000D01*
X122900000Y-69000000D02*
X122700000Y-68800000D01*
X122750000Y-69000000D02*
X122500000Y-69000000D01*
X123400000Y-69000000D02*
X123000000Y-69000000D01*
G04 #@! TO.N,Net-(D12-Pad2)*
X154500000Y-87750000D02*
X140500000Y-87750000D01*
X133500000Y-98700000D02*
X133500000Y-98000000D01*
X133200000Y-99000000D02*
X133500000Y-98700000D01*
X124650000Y-99000000D02*
X133200000Y-99000000D01*
X124300000Y-98000000D02*
X124300000Y-98650000D01*
X124300000Y-98650000D02*
X124650000Y-99000000D01*
G04 #@! TD*
D17*
G04 #@! TO.N,GND*
G36*
X122113720Y-69877431D02*
X122494126Y-70035000D01*
X122905874Y-70035000D01*
X123286280Y-69877431D01*
X123403711Y-69760000D01*
X124323830Y-69760000D01*
X124276091Y-70000000D01*
X124290001Y-70069931D01*
X124290000Y-79930074D01*
X124276091Y-80000000D01*
X124331195Y-80277028D01*
X124488119Y-80511881D01*
X124722972Y-80668805D01*
X125000000Y-80723909D01*
X125069925Y-80710000D01*
X134930075Y-80710000D01*
X135000000Y-80723909D01*
X135277028Y-80668805D01*
X135490000Y-80526501D01*
X135490001Y-82150144D01*
X135490000Y-82150149D01*
X135490000Y-82546289D01*
X135372569Y-82663720D01*
X135215000Y-83044126D01*
X135215000Y-83455874D01*
X135372569Y-83836280D01*
X135663720Y-84127431D01*
X136044126Y-84285000D01*
X136455874Y-84285000D01*
X136836280Y-84127431D01*
X137127431Y-83836280D01*
X137285000Y-83455874D01*
X137285000Y-83044126D01*
X137127431Y-82663720D01*
X137010000Y-82546289D01*
X137010000Y-79953711D01*
X137127431Y-79836280D01*
X137285000Y-79455874D01*
X137285000Y-79044126D01*
X137127431Y-78663720D01*
X136836280Y-78372569D01*
X136455874Y-78215000D01*
X136044126Y-78215000D01*
X135710000Y-78353399D01*
X135710000Y-70069926D01*
X135723909Y-70000000D01*
X135676170Y-69760000D01*
X141823830Y-69760000D01*
X141776091Y-70000000D01*
X141790001Y-70069931D01*
X141790000Y-79930074D01*
X141776091Y-80000000D01*
X141831195Y-80277028D01*
X141988119Y-80511881D01*
X142222972Y-80668805D01*
X142500000Y-80723909D01*
X142569925Y-80710000D01*
X152430075Y-80710000D01*
X152500000Y-80723909D01*
X152777028Y-80668805D01*
X153011881Y-80511881D01*
X153168805Y-80277028D01*
X153210000Y-80069926D01*
X153210000Y-80069925D01*
X153223909Y-80000000D01*
X153210000Y-79930074D01*
X153210000Y-70069926D01*
X153223909Y-70000000D01*
X153176170Y-69760000D01*
X157996289Y-69760000D01*
X158113720Y-69877431D01*
X158494126Y-70035000D01*
X158905874Y-70035000D01*
X159286280Y-69877431D01*
X159303995Y-69859716D01*
X159276091Y-70000000D01*
X159290001Y-70069931D01*
X159290000Y-78353399D01*
X158955874Y-78215000D01*
X158544126Y-78215000D01*
X158163720Y-78372569D01*
X157872569Y-78663720D01*
X157715000Y-79044126D01*
X157715000Y-79455874D01*
X157872569Y-79836280D01*
X157990000Y-79953711D01*
X157990001Y-82546288D01*
X157872569Y-82663720D01*
X157715000Y-83044126D01*
X157715000Y-83455874D01*
X157872569Y-83836280D01*
X158163720Y-84127431D01*
X158544126Y-84285000D01*
X158955874Y-84285000D01*
X159336280Y-84127431D01*
X159627431Y-83836280D01*
X159785000Y-83455874D01*
X159785000Y-83044126D01*
X159627431Y-82663720D01*
X159510000Y-82546289D01*
X159510000Y-80526501D01*
X159722972Y-80668805D01*
X160000000Y-80723909D01*
X160069925Y-80710000D01*
X169930075Y-80710000D01*
X170000000Y-80723909D01*
X170277028Y-80668805D01*
X170511881Y-80511881D01*
X170668805Y-80277028D01*
X170710000Y-80069926D01*
X170710000Y-80069925D01*
X170723909Y-80000000D01*
X170710000Y-79930074D01*
X170710000Y-70069926D01*
X170723909Y-70000000D01*
X170676170Y-69760000D01*
X170825152Y-69760000D01*
X170900000Y-69774888D01*
X170974848Y-69760000D01*
X181425153Y-69760000D01*
X181475026Y-69769920D01*
X181465000Y-69794126D01*
X181465000Y-70205874D01*
X181622569Y-70586280D01*
X181913720Y-70877431D01*
X182294126Y-71035000D01*
X182705874Y-71035000D01*
X183086280Y-70877431D01*
X183194455Y-70769256D01*
X183240000Y-70814802D01*
X183240001Y-71425148D01*
X183240000Y-75276289D01*
X183086280Y-75122569D01*
X182705874Y-74965000D01*
X182294126Y-74965000D01*
X181913720Y-75122569D01*
X181622569Y-75413720D01*
X181465000Y-75794126D01*
X181465000Y-76205874D01*
X181567664Y-76453728D01*
X181501843Y-76552235D01*
X181452560Y-76800000D01*
X181452560Y-77600000D01*
X181501843Y-77847765D01*
X181603564Y-78000000D01*
X181501843Y-78152235D01*
X181452560Y-78400000D01*
X181452560Y-79200000D01*
X181501843Y-79447765D01*
X181642191Y-79657809D01*
X181852235Y-79798157D01*
X182100000Y-79847440D01*
X182900000Y-79847440D01*
X183147765Y-79798157D01*
X183240000Y-79736527D01*
X183240001Y-85276290D01*
X183086280Y-85122569D01*
X182705874Y-84965000D01*
X182294126Y-84965000D01*
X181913720Y-85122569D01*
X181622569Y-85413720D01*
X181465000Y-85794126D01*
X181465000Y-86205874D01*
X181567664Y-86453728D01*
X181501843Y-86552235D01*
X181452560Y-86800000D01*
X181452560Y-87600000D01*
X181501843Y-87847765D01*
X181603564Y-88000000D01*
X181501843Y-88152235D01*
X181452560Y-88400000D01*
X181452560Y-89200000D01*
X181501843Y-89447765D01*
X181642191Y-89657809D01*
X181852235Y-89798157D01*
X182100000Y-89847440D01*
X182900000Y-89847440D01*
X183147765Y-89798157D01*
X183240000Y-89736527D01*
X183240001Y-96925144D01*
X183240000Y-96925149D01*
X183240000Y-96935198D01*
X183222638Y-96952560D01*
X182900000Y-96952560D01*
X182652235Y-97001843D01*
X182500000Y-97103564D01*
X182347765Y-97001843D01*
X182100000Y-96952560D01*
X181300000Y-96952560D01*
X181052235Y-97001843D01*
X180953728Y-97067664D01*
X180705874Y-96965000D01*
X180294126Y-96965000D01*
X179913720Y-97122569D01*
X179622569Y-97413720D01*
X179465000Y-97794126D01*
X179465000Y-98205874D01*
X179479135Y-98240000D01*
X173347440Y-98240000D01*
X173347440Y-97600000D01*
X173298157Y-97352235D01*
X173157809Y-97142191D01*
X172947765Y-97001843D01*
X172700000Y-96952560D01*
X171900000Y-96952560D01*
X171652235Y-97001843D01*
X171500000Y-97103564D01*
X171347765Y-97001843D01*
X171100000Y-96952560D01*
X170300000Y-96952560D01*
X170052235Y-97001843D01*
X169953728Y-97067664D01*
X169705874Y-96965000D01*
X169294126Y-96965000D01*
X168913720Y-97122569D01*
X168622569Y-97413720D01*
X168465000Y-97794126D01*
X168465000Y-97965000D01*
X168294126Y-97965000D01*
X167913720Y-98122569D01*
X167796289Y-98240000D01*
X162520865Y-98240000D01*
X162535000Y-98205874D01*
X162535000Y-97794126D01*
X162377431Y-97413720D01*
X162086280Y-97122569D01*
X161705874Y-96965000D01*
X161294126Y-96965000D01*
X161046272Y-97067664D01*
X160947765Y-97001843D01*
X160700000Y-96952560D01*
X159900000Y-96952560D01*
X159652235Y-97001843D01*
X159500000Y-97103564D01*
X159347765Y-97001843D01*
X159100000Y-96952560D01*
X158300000Y-96952560D01*
X158052235Y-97001843D01*
X157953728Y-97067664D01*
X157705874Y-96965000D01*
X157294126Y-96965000D01*
X156913720Y-97122569D01*
X156796289Y-97240000D01*
X150203711Y-97240000D01*
X150086280Y-97122569D01*
X149705874Y-96965000D01*
X149294126Y-96965000D01*
X149046272Y-97067664D01*
X148947765Y-97001843D01*
X148700000Y-96952560D01*
X147900000Y-96952560D01*
X147652235Y-97001843D01*
X147500000Y-97103564D01*
X147347765Y-97001843D01*
X147100000Y-96952560D01*
X146300000Y-96952560D01*
X146052235Y-97001843D01*
X145953728Y-97067664D01*
X145705874Y-96965000D01*
X145294126Y-96965000D01*
X144913720Y-97122569D01*
X144796289Y-97240000D01*
X138203711Y-97240000D01*
X138086280Y-97122569D01*
X137705874Y-96965000D01*
X137294126Y-96965000D01*
X137046272Y-97067664D01*
X136947765Y-97001843D01*
X136700000Y-96952560D01*
X135900000Y-96952560D01*
X135652235Y-97001843D01*
X135500000Y-97103564D01*
X135347765Y-97001843D01*
X135100000Y-96952560D01*
X134300000Y-96952560D01*
X134052235Y-97001843D01*
X133953728Y-97067664D01*
X133705874Y-96965000D01*
X133294126Y-96965000D01*
X132913720Y-97122569D01*
X132622569Y-97413720D01*
X132465000Y-97794126D01*
X132465000Y-98205874D01*
X132479135Y-98240000D01*
X125347440Y-98240000D01*
X125347440Y-97600000D01*
X125298157Y-97352235D01*
X125157809Y-97142191D01*
X124947765Y-97001843D01*
X124700000Y-96952560D01*
X123900000Y-96952560D01*
X123652235Y-97001843D01*
X123500000Y-97103564D01*
X123347765Y-97001843D01*
X123100000Y-96952560D01*
X122300000Y-96952560D01*
X122052235Y-97001843D01*
X121842191Y-97142191D01*
X121701843Y-97352235D01*
X121652560Y-97600000D01*
X121652560Y-98240000D01*
X114347440Y-98240000D01*
X114347440Y-97600000D01*
X114298157Y-97352235D01*
X114157809Y-97142191D01*
X113947765Y-97001843D01*
X113805125Y-96973471D01*
X113784473Y-96959671D01*
X113535000Y-96710198D01*
X113535000Y-96544126D01*
X113377431Y-96163720D01*
X113086280Y-95872569D01*
X112705874Y-95715000D01*
X112294126Y-95715000D01*
X111913720Y-95872569D01*
X111760000Y-96026289D01*
X111760000Y-89736527D01*
X111852235Y-89798157D01*
X112100000Y-89847440D01*
X112900000Y-89847440D01*
X113147765Y-89798157D01*
X113311600Y-89688685D01*
X113544126Y-89785000D01*
X113955874Y-89785000D01*
X114336280Y-89627431D01*
X114627431Y-89336280D01*
X114785000Y-88955874D01*
X114785000Y-88544126D01*
X114627431Y-88163720D01*
X114336280Y-87872569D01*
X113955874Y-87715000D01*
X113544126Y-87715000D01*
X113522809Y-87723830D01*
X113547440Y-87600000D01*
X113547440Y-87544126D01*
X139465000Y-87544126D01*
X139465000Y-87955874D01*
X139622569Y-88336280D01*
X139786289Y-88500000D01*
X139622569Y-88663720D01*
X139465000Y-89044126D01*
X139465000Y-89455874D01*
X139622569Y-89836280D01*
X139786289Y-90000000D01*
X139622569Y-90163720D01*
X139465000Y-90544126D01*
X139465000Y-90955874D01*
X139622569Y-91336280D01*
X139786289Y-91500000D01*
X139622569Y-91663720D01*
X139465000Y-92044126D01*
X139465000Y-92455874D01*
X139622569Y-92836280D01*
X139913720Y-93127431D01*
X140294126Y-93285000D01*
X140705874Y-93285000D01*
X141086280Y-93127431D01*
X141203711Y-93010000D01*
X153796289Y-93010000D01*
X153913720Y-93127431D01*
X154294126Y-93285000D01*
X154705874Y-93285000D01*
X155086280Y-93127431D01*
X155377431Y-92836280D01*
X155535000Y-92455874D01*
X155535000Y-92044126D01*
X155377431Y-91663720D01*
X155213711Y-91500000D01*
X155377431Y-91336280D01*
X155535000Y-90955874D01*
X155535000Y-90544126D01*
X155377431Y-90163720D01*
X155213711Y-90000000D01*
X155377431Y-89836280D01*
X155535000Y-89455874D01*
X155535000Y-89044126D01*
X155377431Y-88663720D01*
X155213711Y-88500000D01*
X155377431Y-88336280D01*
X155535000Y-87955874D01*
X155535000Y-87544126D01*
X155377431Y-87163720D01*
X155086280Y-86872569D01*
X154705874Y-86715000D01*
X154294126Y-86715000D01*
X153913720Y-86872569D01*
X153796289Y-86990000D01*
X141203711Y-86990000D01*
X141086280Y-86872569D01*
X140705874Y-86715000D01*
X140294126Y-86715000D01*
X139913720Y-86872569D01*
X139622569Y-87163720D01*
X139465000Y-87544126D01*
X113547440Y-87544126D01*
X113547440Y-86800000D01*
X113498157Y-86552235D01*
X113432336Y-86453728D01*
X113535000Y-86205874D01*
X113535000Y-85794126D01*
X113377431Y-85413720D01*
X113086280Y-85122569D01*
X112705874Y-84965000D01*
X112294126Y-84965000D01*
X111913720Y-85122569D01*
X111760000Y-85276289D01*
X111760000Y-79736527D01*
X111852235Y-79798157D01*
X112100000Y-79847440D01*
X112900000Y-79847440D01*
X113147765Y-79798157D01*
X113311600Y-79688685D01*
X113544126Y-79785000D01*
X113955874Y-79785000D01*
X114336280Y-79627431D01*
X114627431Y-79336280D01*
X114785000Y-78955874D01*
X114785000Y-78544126D01*
X114627431Y-78163720D01*
X114336280Y-77872569D01*
X113955874Y-77715000D01*
X113544126Y-77715000D01*
X113522809Y-77723830D01*
X113547440Y-77600000D01*
X113547440Y-76800000D01*
X113498157Y-76552235D01*
X113432336Y-76453728D01*
X113535000Y-76205874D01*
X113535000Y-75794126D01*
X113377431Y-75413720D01*
X113086280Y-75122569D01*
X112705874Y-74965000D01*
X112294126Y-74965000D01*
X111913720Y-75122569D01*
X111760000Y-75276289D01*
X111760000Y-70453711D01*
X111877431Y-70336280D01*
X112035000Y-69955874D01*
X112035000Y-69771904D01*
X112050000Y-69774888D01*
X112124848Y-69760000D01*
X121996289Y-69760000D01*
X122113720Y-69877431D01*
X122113720Y-69877431D01*
G37*
X122113720Y-69877431D02*
X122494126Y-70035000D01*
X122905874Y-70035000D01*
X123286280Y-69877431D01*
X123403711Y-69760000D01*
X124323830Y-69760000D01*
X124276091Y-70000000D01*
X124290001Y-70069931D01*
X124290000Y-79930074D01*
X124276091Y-80000000D01*
X124331195Y-80277028D01*
X124488119Y-80511881D01*
X124722972Y-80668805D01*
X125000000Y-80723909D01*
X125069925Y-80710000D01*
X134930075Y-80710000D01*
X135000000Y-80723909D01*
X135277028Y-80668805D01*
X135490000Y-80526501D01*
X135490001Y-82150144D01*
X135490000Y-82150149D01*
X135490000Y-82546289D01*
X135372569Y-82663720D01*
X135215000Y-83044126D01*
X135215000Y-83455874D01*
X135372569Y-83836280D01*
X135663720Y-84127431D01*
X136044126Y-84285000D01*
X136455874Y-84285000D01*
X136836280Y-84127431D01*
X137127431Y-83836280D01*
X137285000Y-83455874D01*
X137285000Y-83044126D01*
X137127431Y-82663720D01*
X137010000Y-82546289D01*
X137010000Y-79953711D01*
X137127431Y-79836280D01*
X137285000Y-79455874D01*
X137285000Y-79044126D01*
X137127431Y-78663720D01*
X136836280Y-78372569D01*
X136455874Y-78215000D01*
X136044126Y-78215000D01*
X135710000Y-78353399D01*
X135710000Y-70069926D01*
X135723909Y-70000000D01*
X135676170Y-69760000D01*
X141823830Y-69760000D01*
X141776091Y-70000000D01*
X141790001Y-70069931D01*
X141790000Y-79930074D01*
X141776091Y-80000000D01*
X141831195Y-80277028D01*
X141988119Y-80511881D01*
X142222972Y-80668805D01*
X142500000Y-80723909D01*
X142569925Y-80710000D01*
X152430075Y-80710000D01*
X152500000Y-80723909D01*
X152777028Y-80668805D01*
X153011881Y-80511881D01*
X153168805Y-80277028D01*
X153210000Y-80069926D01*
X153210000Y-80069925D01*
X153223909Y-80000000D01*
X153210000Y-79930074D01*
X153210000Y-70069926D01*
X153223909Y-70000000D01*
X153176170Y-69760000D01*
X157996289Y-69760000D01*
X158113720Y-69877431D01*
X158494126Y-70035000D01*
X158905874Y-70035000D01*
X159286280Y-69877431D01*
X159303995Y-69859716D01*
X159276091Y-70000000D01*
X159290001Y-70069931D01*
X159290000Y-78353399D01*
X158955874Y-78215000D01*
X158544126Y-78215000D01*
X158163720Y-78372569D01*
X157872569Y-78663720D01*
X157715000Y-79044126D01*
X157715000Y-79455874D01*
X157872569Y-79836280D01*
X157990000Y-79953711D01*
X157990001Y-82546288D01*
X157872569Y-82663720D01*
X157715000Y-83044126D01*
X157715000Y-83455874D01*
X157872569Y-83836280D01*
X158163720Y-84127431D01*
X158544126Y-84285000D01*
X158955874Y-84285000D01*
X159336280Y-84127431D01*
X159627431Y-83836280D01*
X159785000Y-83455874D01*
X159785000Y-83044126D01*
X159627431Y-82663720D01*
X159510000Y-82546289D01*
X159510000Y-80526501D01*
X159722972Y-80668805D01*
X160000000Y-80723909D01*
X160069925Y-80710000D01*
X169930075Y-80710000D01*
X170000000Y-80723909D01*
X170277028Y-80668805D01*
X170511881Y-80511881D01*
X170668805Y-80277028D01*
X170710000Y-80069926D01*
X170710000Y-80069925D01*
X170723909Y-80000000D01*
X170710000Y-79930074D01*
X170710000Y-70069926D01*
X170723909Y-70000000D01*
X170676170Y-69760000D01*
X170825152Y-69760000D01*
X170900000Y-69774888D01*
X170974848Y-69760000D01*
X181425153Y-69760000D01*
X181475026Y-69769920D01*
X181465000Y-69794126D01*
X181465000Y-70205874D01*
X181622569Y-70586280D01*
X181913720Y-70877431D01*
X182294126Y-71035000D01*
X182705874Y-71035000D01*
X183086280Y-70877431D01*
X183194455Y-70769256D01*
X183240000Y-70814802D01*
X183240001Y-71425148D01*
X183240000Y-75276289D01*
X183086280Y-75122569D01*
X182705874Y-74965000D01*
X182294126Y-74965000D01*
X181913720Y-75122569D01*
X181622569Y-75413720D01*
X181465000Y-75794126D01*
X181465000Y-76205874D01*
X181567664Y-76453728D01*
X181501843Y-76552235D01*
X181452560Y-76800000D01*
X181452560Y-77600000D01*
X181501843Y-77847765D01*
X181603564Y-78000000D01*
X181501843Y-78152235D01*
X181452560Y-78400000D01*
X181452560Y-79200000D01*
X181501843Y-79447765D01*
X181642191Y-79657809D01*
X181852235Y-79798157D01*
X182100000Y-79847440D01*
X182900000Y-79847440D01*
X183147765Y-79798157D01*
X183240000Y-79736527D01*
X183240001Y-85276290D01*
X183086280Y-85122569D01*
X182705874Y-84965000D01*
X182294126Y-84965000D01*
X181913720Y-85122569D01*
X181622569Y-85413720D01*
X181465000Y-85794126D01*
X181465000Y-86205874D01*
X181567664Y-86453728D01*
X181501843Y-86552235D01*
X181452560Y-86800000D01*
X181452560Y-87600000D01*
X181501843Y-87847765D01*
X181603564Y-88000000D01*
X181501843Y-88152235D01*
X181452560Y-88400000D01*
X181452560Y-89200000D01*
X181501843Y-89447765D01*
X181642191Y-89657809D01*
X181852235Y-89798157D01*
X182100000Y-89847440D01*
X182900000Y-89847440D01*
X183147765Y-89798157D01*
X183240000Y-89736527D01*
X183240001Y-96925144D01*
X183240000Y-96925149D01*
X183240000Y-96935198D01*
X183222638Y-96952560D01*
X182900000Y-96952560D01*
X182652235Y-97001843D01*
X182500000Y-97103564D01*
X182347765Y-97001843D01*
X182100000Y-96952560D01*
X181300000Y-96952560D01*
X181052235Y-97001843D01*
X180953728Y-97067664D01*
X180705874Y-96965000D01*
X180294126Y-96965000D01*
X179913720Y-97122569D01*
X179622569Y-97413720D01*
X179465000Y-97794126D01*
X179465000Y-98205874D01*
X179479135Y-98240000D01*
X173347440Y-98240000D01*
X173347440Y-97600000D01*
X173298157Y-97352235D01*
X173157809Y-97142191D01*
X172947765Y-97001843D01*
X172700000Y-96952560D01*
X171900000Y-96952560D01*
X171652235Y-97001843D01*
X171500000Y-97103564D01*
X171347765Y-97001843D01*
X171100000Y-96952560D01*
X170300000Y-96952560D01*
X170052235Y-97001843D01*
X169953728Y-97067664D01*
X169705874Y-96965000D01*
X169294126Y-96965000D01*
X168913720Y-97122569D01*
X168622569Y-97413720D01*
X168465000Y-97794126D01*
X168465000Y-97965000D01*
X168294126Y-97965000D01*
X167913720Y-98122569D01*
X167796289Y-98240000D01*
X162520865Y-98240000D01*
X162535000Y-98205874D01*
X162535000Y-97794126D01*
X162377431Y-97413720D01*
X162086280Y-97122569D01*
X161705874Y-96965000D01*
X161294126Y-96965000D01*
X161046272Y-97067664D01*
X160947765Y-97001843D01*
X160700000Y-96952560D01*
X159900000Y-96952560D01*
X159652235Y-97001843D01*
X159500000Y-97103564D01*
X159347765Y-97001843D01*
X159100000Y-96952560D01*
X158300000Y-96952560D01*
X158052235Y-97001843D01*
X157953728Y-97067664D01*
X157705874Y-96965000D01*
X157294126Y-96965000D01*
X156913720Y-97122569D01*
X156796289Y-97240000D01*
X150203711Y-97240000D01*
X150086280Y-97122569D01*
X149705874Y-96965000D01*
X149294126Y-96965000D01*
X149046272Y-97067664D01*
X148947765Y-97001843D01*
X148700000Y-96952560D01*
X147900000Y-96952560D01*
X147652235Y-97001843D01*
X147500000Y-97103564D01*
X147347765Y-97001843D01*
X147100000Y-96952560D01*
X146300000Y-96952560D01*
X146052235Y-97001843D01*
X145953728Y-97067664D01*
X145705874Y-96965000D01*
X145294126Y-96965000D01*
X144913720Y-97122569D01*
X144796289Y-97240000D01*
X138203711Y-97240000D01*
X138086280Y-97122569D01*
X137705874Y-96965000D01*
X137294126Y-96965000D01*
X137046272Y-97067664D01*
X136947765Y-97001843D01*
X136700000Y-96952560D01*
X135900000Y-96952560D01*
X135652235Y-97001843D01*
X135500000Y-97103564D01*
X135347765Y-97001843D01*
X135100000Y-96952560D01*
X134300000Y-96952560D01*
X134052235Y-97001843D01*
X133953728Y-97067664D01*
X133705874Y-96965000D01*
X133294126Y-96965000D01*
X132913720Y-97122569D01*
X132622569Y-97413720D01*
X132465000Y-97794126D01*
X132465000Y-98205874D01*
X132479135Y-98240000D01*
X125347440Y-98240000D01*
X125347440Y-97600000D01*
X125298157Y-97352235D01*
X125157809Y-97142191D01*
X124947765Y-97001843D01*
X124700000Y-96952560D01*
X123900000Y-96952560D01*
X123652235Y-97001843D01*
X123500000Y-97103564D01*
X123347765Y-97001843D01*
X123100000Y-96952560D01*
X122300000Y-96952560D01*
X122052235Y-97001843D01*
X121842191Y-97142191D01*
X121701843Y-97352235D01*
X121652560Y-97600000D01*
X121652560Y-98240000D01*
X114347440Y-98240000D01*
X114347440Y-97600000D01*
X114298157Y-97352235D01*
X114157809Y-97142191D01*
X113947765Y-97001843D01*
X113805125Y-96973471D01*
X113784473Y-96959671D01*
X113535000Y-96710198D01*
X113535000Y-96544126D01*
X113377431Y-96163720D01*
X113086280Y-95872569D01*
X112705874Y-95715000D01*
X112294126Y-95715000D01*
X111913720Y-95872569D01*
X111760000Y-96026289D01*
X111760000Y-89736527D01*
X111852235Y-89798157D01*
X112100000Y-89847440D01*
X112900000Y-89847440D01*
X113147765Y-89798157D01*
X113311600Y-89688685D01*
X113544126Y-89785000D01*
X113955874Y-89785000D01*
X114336280Y-89627431D01*
X114627431Y-89336280D01*
X114785000Y-88955874D01*
X114785000Y-88544126D01*
X114627431Y-88163720D01*
X114336280Y-87872569D01*
X113955874Y-87715000D01*
X113544126Y-87715000D01*
X113522809Y-87723830D01*
X113547440Y-87600000D01*
X113547440Y-87544126D01*
X139465000Y-87544126D01*
X139465000Y-87955874D01*
X139622569Y-88336280D01*
X139786289Y-88500000D01*
X139622569Y-88663720D01*
X139465000Y-89044126D01*
X139465000Y-89455874D01*
X139622569Y-89836280D01*
X139786289Y-90000000D01*
X139622569Y-90163720D01*
X139465000Y-90544126D01*
X139465000Y-90955874D01*
X139622569Y-91336280D01*
X139786289Y-91500000D01*
X139622569Y-91663720D01*
X139465000Y-92044126D01*
X139465000Y-92455874D01*
X139622569Y-92836280D01*
X139913720Y-93127431D01*
X140294126Y-93285000D01*
X140705874Y-93285000D01*
X141086280Y-93127431D01*
X141203711Y-93010000D01*
X153796289Y-93010000D01*
X153913720Y-93127431D01*
X154294126Y-93285000D01*
X154705874Y-93285000D01*
X155086280Y-93127431D01*
X155377431Y-92836280D01*
X155535000Y-92455874D01*
X155535000Y-92044126D01*
X155377431Y-91663720D01*
X155213711Y-91500000D01*
X155377431Y-91336280D01*
X155535000Y-90955874D01*
X155535000Y-90544126D01*
X155377431Y-90163720D01*
X155213711Y-90000000D01*
X155377431Y-89836280D01*
X155535000Y-89455874D01*
X155535000Y-89044126D01*
X155377431Y-88663720D01*
X155213711Y-88500000D01*
X155377431Y-88336280D01*
X155535000Y-87955874D01*
X155535000Y-87544126D01*
X155377431Y-87163720D01*
X155086280Y-86872569D01*
X154705874Y-86715000D01*
X154294126Y-86715000D01*
X153913720Y-86872569D01*
X153796289Y-86990000D01*
X141203711Y-86990000D01*
X141086280Y-86872569D01*
X140705874Y-86715000D01*
X140294126Y-86715000D01*
X139913720Y-86872569D01*
X139622569Y-87163720D01*
X139465000Y-87544126D01*
X113547440Y-87544126D01*
X113547440Y-86800000D01*
X113498157Y-86552235D01*
X113432336Y-86453728D01*
X113535000Y-86205874D01*
X113535000Y-85794126D01*
X113377431Y-85413720D01*
X113086280Y-85122569D01*
X112705874Y-84965000D01*
X112294126Y-84965000D01*
X111913720Y-85122569D01*
X111760000Y-85276289D01*
X111760000Y-79736527D01*
X111852235Y-79798157D01*
X112100000Y-79847440D01*
X112900000Y-79847440D01*
X113147765Y-79798157D01*
X113311600Y-79688685D01*
X113544126Y-79785000D01*
X113955874Y-79785000D01*
X114336280Y-79627431D01*
X114627431Y-79336280D01*
X114785000Y-78955874D01*
X114785000Y-78544126D01*
X114627431Y-78163720D01*
X114336280Y-77872569D01*
X113955874Y-77715000D01*
X113544126Y-77715000D01*
X113522809Y-77723830D01*
X113547440Y-77600000D01*
X113547440Y-76800000D01*
X113498157Y-76552235D01*
X113432336Y-76453728D01*
X113535000Y-76205874D01*
X113535000Y-75794126D01*
X113377431Y-75413720D01*
X113086280Y-75122569D01*
X112705874Y-74965000D01*
X112294126Y-74965000D01*
X111913720Y-75122569D01*
X111760000Y-75276289D01*
X111760000Y-70453711D01*
X111877431Y-70336280D01*
X112035000Y-69955874D01*
X112035000Y-69771904D01*
X112050000Y-69774888D01*
X112124848Y-69760000D01*
X121996289Y-69760000D01*
X122113720Y-69877431D01*
G36*
X111215530Y-50759669D02*
X111152071Y-50802071D01*
X110991449Y-51042459D01*
X110842191Y-51142191D01*
X110701843Y-51352235D01*
X110652560Y-51600000D01*
X110652560Y-52400000D01*
X110652634Y-52400374D01*
X104088319Y-65619393D01*
X103975285Y-65633572D01*
X103755744Y-65758542D01*
X103600738Y-65958015D01*
X103242531Y-66673338D01*
X103175659Y-66916945D01*
X103198448Y-67098613D01*
X103039330Y-67189188D01*
X102884324Y-67388661D01*
X102526117Y-68103984D01*
X102459245Y-68347591D01*
X102490688Y-68598245D01*
X102615658Y-68817786D01*
X102815131Y-68972792D01*
X103448581Y-69290000D01*
X101148804Y-69290000D01*
X110438804Y-50710000D01*
X111265199Y-50710000D01*
X111215530Y-50759669D01*
X111215530Y-50759669D01*
G37*
X111215530Y-50759669D02*
X111152071Y-50802071D01*
X110991449Y-51042459D01*
X110842191Y-51142191D01*
X110701843Y-51352235D01*
X110652560Y-51600000D01*
X110652560Y-52400000D01*
X110652634Y-52400374D01*
X104088319Y-65619393D01*
X103975285Y-65633572D01*
X103755744Y-65758542D01*
X103600738Y-65958015D01*
X103242531Y-66673338D01*
X103175659Y-66916945D01*
X103198448Y-67098613D01*
X103039330Y-67189188D01*
X102884324Y-67388661D01*
X102526117Y-68103984D01*
X102459245Y-68347591D01*
X102490688Y-68598245D01*
X102615658Y-68817786D01*
X102815131Y-68972792D01*
X103448581Y-69290000D01*
X101148804Y-69290000D01*
X110438804Y-50710000D01*
X111265199Y-50710000D01*
X111215530Y-50759669D01*
G36*
X193851196Y-69290000D02*
X191784801Y-69290000D01*
X191984472Y-69090329D01*
X192047929Y-69047929D01*
X192054519Y-69038066D01*
X192184869Y-68972792D01*
X192384342Y-68817786D01*
X192509312Y-68598245D01*
X192540755Y-68347591D01*
X192473883Y-68103984D01*
X192115676Y-67388661D01*
X191960670Y-67189188D01*
X191801552Y-67098613D01*
X191824341Y-66916945D01*
X191757469Y-66673338D01*
X191399262Y-65958015D01*
X191244256Y-65758542D01*
X191024715Y-65633572D01*
X190911681Y-65619393D01*
X184347365Y-52400376D01*
X184347440Y-52400000D01*
X184347440Y-51600000D01*
X184298157Y-51352235D01*
X184157809Y-51142191D01*
X183947765Y-51001843D01*
X183700000Y-50952560D01*
X182900000Y-50952560D01*
X182652235Y-51001843D01*
X182500000Y-51103564D01*
X182408553Y-51042461D01*
X182348483Y-50952560D01*
X182247929Y-50802071D01*
X182184470Y-50759669D01*
X182134801Y-50710000D01*
X184561196Y-50710000D01*
X193851196Y-69290000D01*
X193851196Y-69290000D01*
G37*
X193851196Y-69290000D02*
X191784801Y-69290000D01*
X191984472Y-69090329D01*
X192047929Y-69047929D01*
X192054519Y-69038066D01*
X192184869Y-68972792D01*
X192384342Y-68817786D01*
X192509312Y-68598245D01*
X192540755Y-68347591D01*
X192473883Y-68103984D01*
X192115676Y-67388661D01*
X191960670Y-67189188D01*
X191801552Y-67098613D01*
X191824341Y-66916945D01*
X191757469Y-66673338D01*
X191399262Y-65958015D01*
X191244256Y-65758542D01*
X191024715Y-65633572D01*
X190911681Y-65619393D01*
X184347365Y-52400376D01*
X184347440Y-52400000D01*
X184347440Y-51600000D01*
X184298157Y-51352235D01*
X184157809Y-51142191D01*
X183947765Y-51001843D01*
X183700000Y-50952560D01*
X182900000Y-50952560D01*
X182652235Y-51001843D01*
X182500000Y-51103564D01*
X182408553Y-51042461D01*
X182348483Y-50952560D01*
X182247929Y-50802071D01*
X182184470Y-50759669D01*
X182134801Y-50710000D01*
X184561196Y-50710000D01*
X193851196Y-69290000D01*
G36*
X121652560Y-52400000D02*
X121701843Y-52647765D01*
X121842191Y-52857809D01*
X122052235Y-52998157D01*
X122300000Y-53047440D01*
X123100000Y-53047440D01*
X123347765Y-52998157D01*
X123500000Y-52896436D01*
X123652235Y-52998157D01*
X123900000Y-53047440D01*
X124700000Y-53047440D01*
X124947765Y-52998157D01*
X125157809Y-52857809D01*
X125223163Y-52760000D01*
X128025000Y-52760000D01*
X134943873Y-66952560D01*
X134300000Y-66952560D01*
X134052235Y-67001843D01*
X133842191Y-67142191D01*
X133701843Y-67352235D01*
X133652560Y-67600000D01*
X133652560Y-68240000D01*
X126520865Y-68240000D01*
X126535000Y-68205874D01*
X126535000Y-67794126D01*
X126377431Y-67413720D01*
X126086280Y-67122569D01*
X125705874Y-66965000D01*
X125294126Y-66965000D01*
X125046272Y-67067664D01*
X124947765Y-67001843D01*
X124700000Y-66952560D01*
X124634873Y-66952560D01*
X117228499Y-51760000D01*
X121652560Y-51760000D01*
X121652560Y-52400000D01*
X121652560Y-52400000D01*
G37*
X121652560Y-52400000D02*
X121701843Y-52647765D01*
X121842191Y-52857809D01*
X122052235Y-52998157D01*
X122300000Y-53047440D01*
X123100000Y-53047440D01*
X123347765Y-52998157D01*
X123500000Y-52896436D01*
X123652235Y-52998157D01*
X123900000Y-53047440D01*
X124700000Y-53047440D01*
X124947765Y-52998157D01*
X125157809Y-52857809D01*
X125223163Y-52760000D01*
X128025000Y-52760000D01*
X134943873Y-66952560D01*
X134300000Y-66952560D01*
X134052235Y-67001843D01*
X133842191Y-67142191D01*
X133701843Y-67352235D01*
X133652560Y-67600000D01*
X133652560Y-68240000D01*
X126520865Y-68240000D01*
X126535000Y-68205874D01*
X126535000Y-67794126D01*
X126377431Y-67413720D01*
X126086280Y-67122569D01*
X125705874Y-66965000D01*
X125294126Y-66965000D01*
X125046272Y-67067664D01*
X124947765Y-67001843D01*
X124700000Y-66952560D01*
X124634873Y-66952560D01*
X117228499Y-51760000D01*
X121652560Y-51760000D01*
X121652560Y-52400000D01*
G36*
X180652560Y-52400000D02*
X180701843Y-52647765D01*
X180842191Y-52857809D01*
X181052235Y-52998157D01*
X181300000Y-53047440D01*
X182100000Y-53047440D01*
X182347765Y-52998157D01*
X182500000Y-52896436D01*
X182652235Y-52998157D01*
X182900000Y-53047440D01*
X182971592Y-53047440D01*
X189550722Y-66296290D01*
X189490688Y-66401755D01*
X189459245Y-66652409D01*
X189526117Y-66896016D01*
X189527140Y-66898059D01*
X189460199Y-66965000D01*
X189294126Y-66965000D01*
X188913720Y-67122569D01*
X188622569Y-67413720D01*
X188465000Y-67794126D01*
X188465000Y-68205874D01*
X188479135Y-68240000D01*
X185320865Y-68240000D01*
X185335000Y-68205874D01*
X185335000Y-67794126D01*
X185177431Y-67413720D01*
X184886280Y-67122569D01*
X184675111Y-67035100D01*
X177228499Y-51760000D01*
X180652560Y-51760000D01*
X180652560Y-52400000D01*
X180652560Y-52400000D01*
G37*
X180652560Y-52400000D02*
X180701843Y-52647765D01*
X180842191Y-52857809D01*
X181052235Y-52998157D01*
X181300000Y-53047440D01*
X182100000Y-53047440D01*
X182347765Y-52998157D01*
X182500000Y-52896436D01*
X182652235Y-52998157D01*
X182900000Y-53047440D01*
X182971592Y-53047440D01*
X189550722Y-66296290D01*
X189490688Y-66401755D01*
X189459245Y-66652409D01*
X189526117Y-66896016D01*
X189527140Y-66898059D01*
X189460199Y-66965000D01*
X189294126Y-66965000D01*
X188913720Y-67122569D01*
X188622569Y-67413720D01*
X188465000Y-67794126D01*
X188465000Y-68205874D01*
X188479135Y-68240000D01*
X185320865Y-68240000D01*
X185335000Y-68205874D01*
X185335000Y-67794126D01*
X185177431Y-67413720D01*
X184886280Y-67122569D01*
X184675111Y-67035100D01*
X177228499Y-51760000D01*
X180652560Y-51760000D01*
X180652560Y-52400000D01*
G36*
X145652560Y-52400000D02*
X145701843Y-52647765D01*
X145842191Y-52857809D01*
X146052235Y-52998157D01*
X146300000Y-53047440D01*
X147100000Y-53047440D01*
X147347765Y-52998157D01*
X147500000Y-52896436D01*
X147652235Y-52998157D01*
X147900000Y-53047440D01*
X148700000Y-53047440D01*
X148947765Y-52998157D01*
X149157809Y-52857809D01*
X149223163Y-52760000D01*
X152025000Y-52760000D01*
X158943873Y-66952560D01*
X158300000Y-66952560D01*
X158052235Y-67001843D01*
X157842191Y-67142191D01*
X157701843Y-67352235D01*
X157652560Y-67600000D01*
X157652560Y-68240000D01*
X150520865Y-68240000D01*
X150535000Y-68205874D01*
X150535000Y-67794126D01*
X150377431Y-67413720D01*
X150086280Y-67122569D01*
X149705874Y-66965000D01*
X149294126Y-66965000D01*
X149046272Y-67067664D01*
X148947765Y-67001843D01*
X148700000Y-66952560D01*
X148634873Y-66952560D01*
X141228499Y-51760000D01*
X145652560Y-51760000D01*
X145652560Y-52400000D01*
X145652560Y-52400000D01*
G37*
X145652560Y-52400000D02*
X145701843Y-52647765D01*
X145842191Y-52857809D01*
X146052235Y-52998157D01*
X146300000Y-53047440D01*
X147100000Y-53047440D01*
X147347765Y-52998157D01*
X147500000Y-52896436D01*
X147652235Y-52998157D01*
X147900000Y-53047440D01*
X148700000Y-53047440D01*
X148947765Y-52998157D01*
X149157809Y-52857809D01*
X149223163Y-52760000D01*
X152025000Y-52760000D01*
X158943873Y-66952560D01*
X158300000Y-66952560D01*
X158052235Y-67001843D01*
X157842191Y-67142191D01*
X157701843Y-67352235D01*
X157652560Y-67600000D01*
X157652560Y-68240000D01*
X150520865Y-68240000D01*
X150535000Y-68205874D01*
X150535000Y-67794126D01*
X150377431Y-67413720D01*
X150086280Y-67122569D01*
X149705874Y-66965000D01*
X149294126Y-66965000D01*
X149046272Y-67067664D01*
X148947765Y-67001843D01*
X148700000Y-66952560D01*
X148634873Y-66952560D01*
X141228499Y-51760000D01*
X145652560Y-51760000D01*
X145652560Y-52400000D01*
G36*
X133652560Y-52400000D02*
X133701843Y-52647765D01*
X133842191Y-52857809D01*
X134052235Y-52998157D01*
X134300000Y-53047440D01*
X135100000Y-53047440D01*
X135347765Y-52998157D01*
X135500000Y-52896436D01*
X135652235Y-52998157D01*
X135900000Y-53047440D01*
X136700000Y-53047440D01*
X136947765Y-52998157D01*
X137157809Y-52857809D01*
X137223163Y-52760000D01*
X140025000Y-52760000D01*
X146943873Y-66952560D01*
X146300000Y-66952560D01*
X146052235Y-67001843D01*
X145842191Y-67142191D01*
X145701843Y-67352235D01*
X145652560Y-67600000D01*
X145652560Y-68240000D01*
X138520865Y-68240000D01*
X138535000Y-68205874D01*
X138535000Y-67794126D01*
X138377431Y-67413720D01*
X138086280Y-67122569D01*
X137705874Y-66965000D01*
X137294126Y-66965000D01*
X137046272Y-67067664D01*
X136947765Y-67001843D01*
X136700000Y-66952560D01*
X136634873Y-66952560D01*
X129228499Y-51760000D01*
X133652560Y-51760000D01*
X133652560Y-52400000D01*
X133652560Y-52400000D01*
G37*
X133652560Y-52400000D02*
X133701843Y-52647765D01*
X133842191Y-52857809D01*
X134052235Y-52998157D01*
X134300000Y-53047440D01*
X135100000Y-53047440D01*
X135347765Y-52998157D01*
X135500000Y-52896436D01*
X135652235Y-52998157D01*
X135900000Y-53047440D01*
X136700000Y-53047440D01*
X136947765Y-52998157D01*
X137157809Y-52857809D01*
X137223163Y-52760000D01*
X140025000Y-52760000D01*
X146943873Y-66952560D01*
X146300000Y-66952560D01*
X146052235Y-67001843D01*
X145842191Y-67142191D01*
X145701843Y-67352235D01*
X145652560Y-67600000D01*
X145652560Y-68240000D01*
X138520865Y-68240000D01*
X138535000Y-68205874D01*
X138535000Y-67794126D01*
X138377431Y-67413720D01*
X138086280Y-67122569D01*
X137705874Y-66965000D01*
X137294126Y-66965000D01*
X137046272Y-67067664D01*
X136947765Y-67001843D01*
X136700000Y-66952560D01*
X136634873Y-66952560D01*
X129228499Y-51760000D01*
X133652560Y-51760000D01*
X133652560Y-52400000D01*
G36*
X157652560Y-52400000D02*
X157701843Y-52647765D01*
X157842191Y-52857809D01*
X158052235Y-52998157D01*
X158300000Y-53047440D01*
X159100000Y-53047440D01*
X159347765Y-52998157D01*
X159500000Y-52896436D01*
X159652235Y-52998157D01*
X159900000Y-53047440D01*
X160700000Y-53047440D01*
X160947765Y-52998157D01*
X161157809Y-52857809D01*
X161223163Y-52760000D01*
X164025000Y-52760000D01*
X170943873Y-66952560D01*
X170300000Y-66952560D01*
X170052235Y-67001843D01*
X169842191Y-67142191D01*
X169701843Y-67352235D01*
X169652560Y-67600000D01*
X169652560Y-68240000D01*
X162520865Y-68240000D01*
X162535000Y-68205874D01*
X162535000Y-67794126D01*
X162377431Y-67413720D01*
X162086280Y-67122569D01*
X161705874Y-66965000D01*
X161294126Y-66965000D01*
X161046272Y-67067664D01*
X160947765Y-67001843D01*
X160700000Y-66952560D01*
X160634873Y-66952560D01*
X153228499Y-51760000D01*
X157652560Y-51760000D01*
X157652560Y-52400000D01*
X157652560Y-52400000D01*
G37*
X157652560Y-52400000D02*
X157701843Y-52647765D01*
X157842191Y-52857809D01*
X158052235Y-52998157D01*
X158300000Y-53047440D01*
X159100000Y-53047440D01*
X159347765Y-52998157D01*
X159500000Y-52896436D01*
X159652235Y-52998157D01*
X159900000Y-53047440D01*
X160700000Y-53047440D01*
X160947765Y-52998157D01*
X161157809Y-52857809D01*
X161223163Y-52760000D01*
X164025000Y-52760000D01*
X170943873Y-66952560D01*
X170300000Y-66952560D01*
X170052235Y-67001843D01*
X169842191Y-67142191D01*
X169701843Y-67352235D01*
X169652560Y-67600000D01*
X169652560Y-68240000D01*
X162520865Y-68240000D01*
X162535000Y-68205874D01*
X162535000Y-67794126D01*
X162377431Y-67413720D01*
X162086280Y-67122569D01*
X161705874Y-66965000D01*
X161294126Y-66965000D01*
X161046272Y-67067664D01*
X160947765Y-67001843D01*
X160700000Y-66952560D01*
X160634873Y-66952560D01*
X153228499Y-51760000D01*
X157652560Y-51760000D01*
X157652560Y-52400000D01*
G36*
X122943873Y-66952560D02*
X122300000Y-66952560D01*
X122052235Y-67001843D01*
X121842191Y-67142191D01*
X121701843Y-67352235D01*
X121652560Y-67600000D01*
X121652560Y-68240000D01*
X115520865Y-68240000D01*
X115535000Y-68205874D01*
X115535000Y-67794126D01*
X115377431Y-67413720D01*
X115228004Y-67264293D01*
X115215904Y-67203463D01*
X115215904Y-67203462D01*
X115090329Y-67015527D01*
X115047929Y-66952071D01*
X114984473Y-66909671D01*
X114590331Y-66515529D01*
X114547929Y-66452071D01*
X114296537Y-66284096D01*
X114074852Y-66240000D01*
X114074847Y-66240000D01*
X114000000Y-66225112D01*
X113925153Y-66240000D01*
X111324848Y-66240000D01*
X111250000Y-66225112D01*
X111175152Y-66240000D01*
X111175148Y-66240000D01*
X111001605Y-66274520D01*
X110953462Y-66284096D01*
X110777374Y-66401755D01*
X110702071Y-66452071D01*
X110659671Y-66515528D01*
X110265527Y-66909671D01*
X110202072Y-66952071D01*
X110159672Y-67015527D01*
X110159671Y-67015528D01*
X110034097Y-67203463D01*
X109975112Y-67500000D01*
X109990001Y-67574851D01*
X109990000Y-68240000D01*
X106520865Y-68240000D01*
X106535000Y-68205874D01*
X106535000Y-67794126D01*
X106377431Y-67413720D01*
X106086280Y-67122569D01*
X105705874Y-66965000D01*
X105613332Y-66965000D01*
X105489060Y-66840728D01*
X105540755Y-66652409D01*
X105509312Y-66401755D01*
X105449277Y-66296289D01*
X112028408Y-53047440D01*
X112100000Y-53047440D01*
X112347765Y-52998157D01*
X112500000Y-52896436D01*
X112652235Y-52998157D01*
X112900000Y-53047440D01*
X113700000Y-53047440D01*
X113947765Y-52998157D01*
X114157809Y-52857809D01*
X114223163Y-52760000D01*
X116025000Y-52760000D01*
X122943873Y-66952560D01*
X122943873Y-66952560D01*
G37*
X122943873Y-66952560D02*
X122300000Y-66952560D01*
X122052235Y-67001843D01*
X121842191Y-67142191D01*
X121701843Y-67352235D01*
X121652560Y-67600000D01*
X121652560Y-68240000D01*
X115520865Y-68240000D01*
X115535000Y-68205874D01*
X115535000Y-67794126D01*
X115377431Y-67413720D01*
X115228004Y-67264293D01*
X115215904Y-67203463D01*
X115215904Y-67203462D01*
X115090329Y-67015527D01*
X115047929Y-66952071D01*
X114984473Y-66909671D01*
X114590331Y-66515529D01*
X114547929Y-66452071D01*
X114296537Y-66284096D01*
X114074852Y-66240000D01*
X114074847Y-66240000D01*
X114000000Y-66225112D01*
X113925153Y-66240000D01*
X111324848Y-66240000D01*
X111250000Y-66225112D01*
X111175152Y-66240000D01*
X111175148Y-66240000D01*
X111001605Y-66274520D01*
X110953462Y-66284096D01*
X110777374Y-66401755D01*
X110702071Y-66452071D01*
X110659671Y-66515528D01*
X110265527Y-66909671D01*
X110202072Y-66952071D01*
X110159672Y-67015527D01*
X110159671Y-67015528D01*
X110034097Y-67203463D01*
X109975112Y-67500000D01*
X109990001Y-67574851D01*
X109990000Y-68240000D01*
X106520865Y-68240000D01*
X106535000Y-68205874D01*
X106535000Y-67794126D01*
X106377431Y-67413720D01*
X106086280Y-67122569D01*
X105705874Y-66965000D01*
X105613332Y-66965000D01*
X105489060Y-66840728D01*
X105540755Y-66652409D01*
X105509312Y-66401755D01*
X105449277Y-66296289D01*
X112028408Y-53047440D01*
X112100000Y-53047440D01*
X112347765Y-52998157D01*
X112500000Y-52896436D01*
X112652235Y-52998157D01*
X112900000Y-53047440D01*
X113700000Y-53047440D01*
X113947765Y-52998157D01*
X114157809Y-52857809D01*
X114223163Y-52760000D01*
X116025000Y-52760000D01*
X122943873Y-66952560D01*
G36*
X169652560Y-52400000D02*
X169701843Y-52647765D01*
X169842191Y-52857809D01*
X170052235Y-52998157D01*
X170300000Y-53047440D01*
X171100000Y-53047440D01*
X171347765Y-52998157D01*
X171500000Y-52896436D01*
X171652235Y-52998157D01*
X171900000Y-53047440D01*
X172700000Y-53047440D01*
X172947765Y-52998157D01*
X173157809Y-52857809D01*
X173223163Y-52760000D01*
X176025000Y-52760000D01*
X182943873Y-66952560D01*
X182900000Y-66952560D01*
X182652235Y-67001843D01*
X182500000Y-67103564D01*
X182347765Y-67001843D01*
X182100000Y-66952560D01*
X181300000Y-66952560D01*
X181052235Y-67001843D01*
X180842191Y-67142191D01*
X180701843Y-67352235D01*
X180652560Y-67600000D01*
X180652560Y-68240000D01*
X174520865Y-68240000D01*
X174535000Y-68205874D01*
X174535000Y-67794126D01*
X174377431Y-67413720D01*
X174086280Y-67122569D01*
X173705874Y-66965000D01*
X173294126Y-66965000D01*
X173046272Y-67067664D01*
X172947765Y-67001843D01*
X172700000Y-66952560D01*
X172634873Y-66952560D01*
X165228499Y-51760000D01*
X169652560Y-51760000D01*
X169652560Y-52400000D01*
X169652560Y-52400000D01*
G37*
X169652560Y-52400000D02*
X169701843Y-52647765D01*
X169842191Y-52857809D01*
X170052235Y-52998157D01*
X170300000Y-53047440D01*
X171100000Y-53047440D01*
X171347765Y-52998157D01*
X171500000Y-52896436D01*
X171652235Y-52998157D01*
X171900000Y-53047440D01*
X172700000Y-53047440D01*
X172947765Y-52998157D01*
X173157809Y-52857809D01*
X173223163Y-52760000D01*
X176025000Y-52760000D01*
X182943873Y-66952560D01*
X182900000Y-66952560D01*
X182652235Y-67001843D01*
X182500000Y-67103564D01*
X182347765Y-67001843D01*
X182100000Y-66952560D01*
X181300000Y-66952560D01*
X181052235Y-67001843D01*
X180842191Y-67142191D01*
X180701843Y-67352235D01*
X180652560Y-67600000D01*
X180652560Y-68240000D01*
X174520865Y-68240000D01*
X174535000Y-68205874D01*
X174535000Y-67794126D01*
X174377431Y-67413720D01*
X174086280Y-67122569D01*
X173705874Y-66965000D01*
X173294126Y-66965000D01*
X173046272Y-67067664D01*
X172947765Y-67001843D01*
X172700000Y-66952560D01*
X172634873Y-66952560D01*
X165228499Y-51760000D01*
X169652560Y-51760000D01*
X169652560Y-52400000D01*
G04 #@! TD*
M02*
