M48
;DRILL file {KiCad (5.0.2)-1} date 2020/02/29 0:21:12
;FORMAT={-:-/ absolute / metric / decimal}
FMAT,2
METRIC,TZ
T1C0.400
%
G90
G05
T1
X102.Y-68.
X105.5Y-68.
X108.Y-65.
X108.Y-68.
X110.5Y-52.
X111.Y-69.75
X112.5Y-76.
X112.5Y-86.
X112.5Y-96.75
X113.75Y-78.75
X113.75Y-88.75
X114.5Y-68.
X114.5Y-98.
X121.5Y-52.
X121.5Y-70.5
X121.5Y-79.5
X121.5Y-88.5
X121.5Y-98.
X122.7Y-69.
X125.5Y-68.
X133.5Y-52.
X133.5Y-68.
X133.5Y-98.
X136.25Y-79.25
X136.25Y-83.25
X137.5Y-68.
X137.5Y-85.25
X137.5Y-95.
X137.5Y-98.
X140.5Y-70.5
X140.5Y-87.75
X140.5Y-89.25
X140.5Y-90.75
X140.5Y-92.25
X142.5Y-100.5
X145.Y-100.5
X145.5Y-52.
X145.5Y-98.
X147.5Y-100.5
X149.5Y-68.
X149.5Y-98.
X152.5Y-100.5
X154.5Y-70.5
X154.5Y-87.75
X154.5Y-89.25
X154.5Y-90.75
X154.5Y-92.25
X157.5Y-52.
X157.5Y-85.25
X157.5Y-95.
X157.5Y-98.
X158.7Y-69.
X158.75Y-79.25
X158.75Y-83.25
X161.5Y-68.
X161.5Y-98.
X168.5Y-99.
X169.5Y-52.
X169.5Y-68.
X169.5Y-98.
X173.5Y-68.
X173.5Y-70.5
X173.5Y-79.5
X173.5Y-88.5
X173.5Y-98.
X180.5Y-52.
X180.5Y-98.
X181.25Y-88.75
X182.5Y-70.
X182.5Y-76.
X182.5Y-86.
X182.5Y-96.5
X184.3Y-68.
X184.5Y-52.
X187.Y-65.
X187.Y-68.
X189.5Y-68.
X193.Y-68.
T0
M30
