G04 #@! TF.GenerationSoftware,KiCad,Pcbnew,(5.0.2)-1*
G04 #@! TF.CreationDate,2020-02-29T00:21:09+09:00*
G04 #@! TF.ProjectId,House,486f7573-652e-46b6-9963-61645f706362,rev?*
G04 #@! TF.SameCoordinates,Original*
G04 #@! TF.FileFunction,Legend,Bot*
G04 #@! TF.FilePolarity,Positive*
%FSLAX46Y46*%
G04 Gerber Fmt 4.6, Leading zero omitted, Abs format (unit mm)*
G04 Created by KiCad (PCBNEW (5.0.2)-1) date 2020/02/29 0:21:09*
%MOMM*%
%LPD*%
G01*
G04 APERTURE LIST*
%ADD10C,0.150000*%
%ADD11C,0.200000*%
%ADD12C,0.250000*%
%ADD13C,0.120000*%
G04 APERTURE END LIST*
D10*
X152261904Y-98452380D02*
X152738095Y-98452380D01*
X152785714Y-98928571D01*
X152738095Y-98880952D01*
X152642857Y-98833333D01*
X152404761Y-98833333D01*
X152309523Y-98880952D01*
X152261904Y-98928571D01*
X152214285Y-99023809D01*
X152214285Y-99261904D01*
X152261904Y-99357142D01*
X152309523Y-99404761D01*
X152404761Y-99452380D01*
X152642857Y-99452380D01*
X152738095Y-99404761D01*
X152785714Y-99357142D01*
X142214285Y-99452380D02*
X142785714Y-99452380D01*
X142500000Y-99452380D02*
X142500000Y-98452380D01*
X142595238Y-98595238D01*
X142690476Y-98690476D01*
X142785714Y-98738095D01*
D11*
X175401666Y-91476190D02*
X175443333Y-91428571D01*
X175532619Y-91380952D01*
X175627857Y-91380952D01*
X175729047Y-91428571D01*
X175782619Y-91476190D01*
X175842142Y-91571428D01*
X175854047Y-91666666D01*
X175818333Y-91761904D01*
X175776666Y-91809523D01*
X175687380Y-91857142D01*
X175592142Y-91857142D01*
X175490952Y-91809523D01*
X175437380Y-91761904D01*
X175389761Y-91380952D02*
X175437380Y-91761904D01*
X175395714Y-91809523D01*
X175348095Y-91809523D01*
X175246904Y-91761904D01*
X175187380Y-91666666D01*
X175157619Y-91428571D01*
X175235000Y-91285714D01*
X175365952Y-91190476D01*
X175550476Y-91142857D01*
X175746904Y-91190476D01*
X175901666Y-91285714D01*
X176014761Y-91428571D01*
X176086190Y-91619047D01*
X176062380Y-91809523D01*
X175985000Y-91952380D01*
X175854047Y-92047619D01*
X175669523Y-92095238D01*
X175473095Y-92047619D01*
X175318333Y-91952380D01*
X174407619Y-91904761D02*
X174508809Y-91952380D01*
X174699285Y-91952380D01*
X174788571Y-91904761D01*
X174824285Y-91809523D01*
X174776666Y-91428571D01*
X174717142Y-91333333D01*
X174615952Y-91285714D01*
X174425476Y-91285714D01*
X174336190Y-91333333D01*
X174300476Y-91428571D01*
X174312380Y-91523809D01*
X174800476Y-91619047D01*
X174032619Y-91952380D02*
X173425476Y-91285714D01*
X173949285Y-91285714D02*
X173508809Y-91952380D01*
X173187380Y-91285714D02*
X172806428Y-91285714D01*
X173002857Y-90952380D02*
X173110000Y-91809523D01*
X173074285Y-91904761D01*
X172985000Y-91952380D01*
X172889761Y-91952380D01*
X172806428Y-92047619D02*
X172044523Y-92047619D01*
X171836190Y-91904761D02*
X171746904Y-91952380D01*
X171556428Y-91952380D01*
X171455238Y-91904761D01*
X171395714Y-91809523D01*
X171389761Y-91761904D01*
X171425476Y-91666666D01*
X171514761Y-91619047D01*
X171657619Y-91619047D01*
X171746904Y-91571428D01*
X171782619Y-91476190D01*
X171776666Y-91428571D01*
X171717142Y-91333333D01*
X171615952Y-91285714D01*
X171473095Y-91285714D01*
X171383809Y-91333333D01*
X170473095Y-91285714D02*
X170556428Y-91952380D01*
X170901666Y-91285714D02*
X170967142Y-91809523D01*
X170931428Y-91904761D01*
X170842142Y-91952380D01*
X170699285Y-91952380D01*
X170598095Y-91904761D01*
X170544523Y-91857142D01*
X170080238Y-91952380D02*
X169996904Y-91285714D01*
X169955238Y-90952380D02*
X170008809Y-91000000D01*
X169967142Y-91047619D01*
X169913571Y-91000000D01*
X169955238Y-90952380D01*
X169967142Y-91047619D01*
X168776666Y-91047619D02*
X168723095Y-91000000D01*
X168621904Y-90952380D01*
X168383809Y-90952380D01*
X168294523Y-91000000D01*
X168252857Y-91047619D01*
X168217142Y-91142857D01*
X168229047Y-91238095D01*
X168294523Y-91380952D01*
X168937380Y-91952380D01*
X168318333Y-91952380D01*
X167574285Y-90952380D02*
X167479047Y-90952380D01*
X167389761Y-91000000D01*
X167348095Y-91047619D01*
X167312380Y-91142857D01*
X167288571Y-91333333D01*
X167318333Y-91571428D01*
X167389761Y-91761904D01*
X167449285Y-91857142D01*
X167502857Y-91904761D01*
X167604047Y-91952380D01*
X167699285Y-91952380D01*
X167788571Y-91904761D01*
X167830238Y-91857142D01*
X167865952Y-91761904D01*
X167889761Y-91571428D01*
X167860000Y-91333333D01*
X167788571Y-91142857D01*
X167729047Y-91047619D01*
X167675476Y-91000000D01*
X167574285Y-90952380D01*
X166871904Y-91047619D02*
X166818333Y-91000000D01*
X166717142Y-90952380D01*
X166479047Y-90952380D01*
X166389761Y-91000000D01*
X166348095Y-91047619D01*
X166312380Y-91142857D01*
X166324285Y-91238095D01*
X166389761Y-91380952D01*
X167032619Y-91952380D01*
X166413571Y-91952380D01*
X165669523Y-90952380D02*
X165574285Y-90952380D01*
X165485000Y-91000000D01*
X165443333Y-91047619D01*
X165407619Y-91142857D01*
X165383809Y-91333333D01*
X165413571Y-91571428D01*
X165485000Y-91761904D01*
X165544523Y-91857142D01*
X165598095Y-91904761D01*
X165699285Y-91952380D01*
X165794523Y-91952380D01*
X165883809Y-91904761D01*
X165925476Y-91857142D01*
X165961190Y-91761904D01*
X165985000Y-91571428D01*
X165955238Y-91333333D01*
X165883809Y-91142857D01*
X165824285Y-91047619D01*
X165770714Y-91000000D01*
X165669523Y-90952380D01*
X165020714Y-91857142D02*
X164979047Y-91904761D01*
X165032619Y-91952380D01*
X165074285Y-91904761D01*
X165020714Y-91857142D01*
X165032619Y-91952380D01*
X164240952Y-90952380D02*
X164145714Y-90952380D01*
X164056428Y-91000000D01*
X164014761Y-91047619D01*
X163979047Y-91142857D01*
X163955238Y-91333333D01*
X163985000Y-91571428D01*
X164056428Y-91761904D01*
X164115952Y-91857142D01*
X164169523Y-91904761D01*
X164270714Y-91952380D01*
X164365952Y-91952380D01*
X164455238Y-91904761D01*
X164496904Y-91857142D01*
X164532619Y-91761904D01*
X164556428Y-91571428D01*
X164526666Y-91333333D01*
X164455238Y-91142857D01*
X164395714Y-91047619D01*
X164342142Y-91000000D01*
X164240952Y-90952380D01*
X163574285Y-90952380D02*
X162955238Y-90952380D01*
X163336190Y-91333333D01*
X163193333Y-91333333D01*
X163104047Y-91380952D01*
X163062380Y-91428571D01*
X163026666Y-91523809D01*
X163056428Y-91761904D01*
X163115952Y-91857142D01*
X163169523Y-91904761D01*
X163270714Y-91952380D01*
X163556428Y-91952380D01*
X163645714Y-91904761D01*
X163687380Y-91857142D01*
D12*
X176893824Y-89452380D02*
X176768824Y-88452380D01*
X176828348Y-88928571D02*
X176256919Y-88928571D01*
X176322395Y-89452380D02*
X176197395Y-88452380D01*
X175703348Y-89452380D02*
X175792633Y-89404761D01*
X175834300Y-89357142D01*
X175870014Y-89261904D01*
X175834300Y-88976190D01*
X175774776Y-88880952D01*
X175721205Y-88833333D01*
X175620014Y-88785714D01*
X175477157Y-88785714D01*
X175387872Y-88833333D01*
X175346205Y-88880952D01*
X175310491Y-88976190D01*
X175346205Y-89261904D01*
X175405729Y-89357142D01*
X175459300Y-89404761D01*
X175560491Y-89452380D01*
X175703348Y-89452380D01*
X174429538Y-88785714D02*
X174512872Y-89452380D01*
X174858110Y-88785714D02*
X174923586Y-89309523D01*
X174887872Y-89404761D01*
X174798586Y-89452380D01*
X174655729Y-89452380D01*
X174554538Y-89404761D01*
X174500967Y-89357142D01*
X174078348Y-89404761D02*
X173989062Y-89452380D01*
X173798586Y-89452380D01*
X173697395Y-89404761D01*
X173637872Y-89309523D01*
X173631919Y-89261904D01*
X173667633Y-89166666D01*
X173756919Y-89119047D01*
X173899776Y-89119047D01*
X173989062Y-89071428D01*
X174024776Y-88976190D01*
X174018824Y-88928571D01*
X173959300Y-88833333D01*
X173858110Y-88785714D01*
X173715252Y-88785714D01*
X173625967Y-88833333D01*
X172840252Y-89404761D02*
X172941443Y-89452380D01*
X173131919Y-89452380D01*
X173221205Y-89404761D01*
X173256919Y-89309523D01*
X173209300Y-88928571D01*
X173149776Y-88833333D01*
X173048586Y-88785714D01*
X172858110Y-88785714D01*
X172768824Y-88833333D01*
X172733110Y-88928571D01*
X172745014Y-89023809D01*
X173233110Y-89119047D01*
X170965252Y-88500000D02*
X171054538Y-88452380D01*
X171197395Y-88452380D01*
X171346205Y-88500000D01*
X171453348Y-88595238D01*
X171512872Y-88690476D01*
X171584300Y-88880952D01*
X171602157Y-89023809D01*
X171578348Y-89214285D01*
X171542633Y-89309523D01*
X171459300Y-89404761D01*
X171322395Y-89452380D01*
X171227157Y-89452380D01*
X171078348Y-89404761D01*
X171024776Y-89357142D01*
X170983110Y-89023809D01*
X171173586Y-89023809D01*
X170608110Y-89452380D02*
X170524776Y-88785714D01*
X170548586Y-88976190D02*
X170489062Y-88880952D01*
X170435491Y-88833333D01*
X170334300Y-88785714D01*
X170239062Y-88785714D01*
X169846205Y-89452380D02*
X169935491Y-89404761D01*
X169977157Y-89357142D01*
X170012872Y-89261904D01*
X169977157Y-88976190D01*
X169917633Y-88880952D01*
X169864062Y-88833333D01*
X169762872Y-88785714D01*
X169620014Y-88785714D01*
X169530729Y-88833333D01*
X169489062Y-88880952D01*
X169453348Y-88976190D01*
X169489062Y-89261904D01*
X169548586Y-89357142D01*
X169602157Y-89404761D01*
X169703348Y-89452380D01*
X169846205Y-89452380D01*
X169096205Y-88785714D02*
X168989062Y-89452380D01*
X168739062Y-88976190D01*
X168608110Y-89452380D01*
X168334300Y-88785714D01*
X168036681Y-89452380D02*
X167953348Y-88785714D01*
X167911681Y-88452380D02*
X167965252Y-88500000D01*
X167923586Y-88547619D01*
X167870014Y-88500000D01*
X167911681Y-88452380D01*
X167923586Y-88547619D01*
X167477157Y-88785714D02*
X167560491Y-89452380D01*
X167489062Y-88880952D02*
X167435491Y-88833333D01*
X167334300Y-88785714D01*
X167191443Y-88785714D01*
X167102157Y-88833333D01*
X167066443Y-88928571D01*
X167131919Y-89452380D01*
X166143824Y-88785714D02*
X166245014Y-89595238D01*
X166304538Y-89690476D01*
X166358110Y-89738095D01*
X166459300Y-89785714D01*
X166602157Y-89785714D01*
X166691443Y-89738095D01*
X166221205Y-89404761D02*
X166322395Y-89452380D01*
X166512872Y-89452380D01*
X166602157Y-89404761D01*
X166643824Y-89357142D01*
X166679538Y-89261904D01*
X166643824Y-88976190D01*
X166584300Y-88880952D01*
X166530729Y-88833333D01*
X166429538Y-88785714D01*
X166239062Y-88785714D01*
X166149776Y-88833333D01*
X165000967Y-88785714D02*
X164846205Y-89452380D01*
X164524776Y-88785714D01*
X163703348Y-89452380D02*
X164274776Y-89452380D01*
X163989062Y-89452380D02*
X163864062Y-88452380D01*
X163977157Y-88595238D01*
X164084300Y-88690476D01*
X164185491Y-88738095D01*
X163262872Y-89357142D02*
X163221205Y-89404761D01*
X163274776Y-89452380D01*
X163316443Y-89404761D01*
X163262872Y-89357142D01*
X163274776Y-89452380D01*
X162483110Y-88452380D02*
X162387872Y-88452380D01*
X162298586Y-88500000D01*
X162256919Y-88547619D01*
X162221205Y-88642857D01*
X162197395Y-88833333D01*
X162227157Y-89071428D01*
X162298586Y-89261904D01*
X162358110Y-89357142D01*
X162411681Y-89404761D01*
X162512872Y-89452380D01*
X162608110Y-89452380D01*
X162697395Y-89404761D01*
X162739062Y-89357142D01*
X162774776Y-89261904D01*
X162798586Y-89071428D01*
X162768824Y-88833333D01*
X162697395Y-88642857D01*
X162637872Y-88547619D01*
X162584300Y-88500000D01*
X162483110Y-88452380D01*
D10*
G04 #@! TO.C,U1*
X137975000Y-86125000D02*
X138625000Y-86125000D01*
X137975000Y-93875000D02*
X138720000Y-93875000D01*
X157025000Y-93875000D02*
X156280000Y-93875000D01*
X157025000Y-86125000D02*
X156280000Y-86125000D01*
X137975000Y-86125000D02*
X137975000Y-93875000D01*
X157025000Y-86125000D02*
X157025000Y-93875000D01*
X138625000Y-86125000D02*
X138625000Y-84300000D01*
D13*
G04 #@! TO.C,JP1*
X131700000Y-93500000D02*
G75*
G03X132400000Y-92800000I0J700000D01*
G01*
X132400000Y-92200000D02*
G75*
G03X131700000Y-91500000I-700000J0D01*
G01*
X130300000Y-91500000D02*
G75*
G03X129600000Y-92200000I0J-700000D01*
G01*
X129600000Y-92800000D02*
G75*
G03X130300000Y-93500000I700000J0D01*
G01*
X129600000Y-92200000D02*
X129600000Y-92800000D01*
X131700000Y-91500000D02*
X130300000Y-91500000D01*
X132400000Y-92800000D02*
X132400000Y-92200000D01*
X130300000Y-93500000D02*
X131700000Y-93500000D01*
G04 #@! TO.C,JP2*
X130300000Y-91000000D02*
X131700000Y-91000000D01*
X132400000Y-90300000D02*
X132400000Y-89700000D01*
X131700000Y-89000000D02*
X130300000Y-89000000D01*
X129600000Y-89700000D02*
X129600000Y-90300000D01*
X129600000Y-90300000D02*
G75*
G03X130300000Y-91000000I700000J0D01*
G01*
X130300000Y-89000000D02*
G75*
G03X129600000Y-89700000I0J-700000D01*
G01*
X132400000Y-89700000D02*
G75*
G03X131700000Y-89000000I-700000J0D01*
G01*
X131700000Y-91000000D02*
G75*
G03X132400000Y-90300000I0J700000D01*
G01*
G04 #@! TO.C,JP3*
X131700000Y-88500000D02*
G75*
G03X132400000Y-87800000I0J700000D01*
G01*
X132400000Y-87200000D02*
G75*
G03X131700000Y-86500000I-700000J0D01*
G01*
X130300000Y-86500000D02*
G75*
G03X129600000Y-87200000I0J-700000D01*
G01*
X129600000Y-87800000D02*
G75*
G03X130300000Y-88500000I700000J0D01*
G01*
X129600000Y-87200000D02*
X129600000Y-87800000D01*
X131700000Y-86500000D02*
X130300000Y-86500000D01*
X132400000Y-87800000D02*
X132400000Y-87200000D01*
X130300000Y-88500000D02*
X131700000Y-88500000D01*
G04 #@! TO.C,R1*
X127200000Y-90800000D02*
X127200000Y-92200000D01*
X124300000Y-90800000D02*
X124300000Y-92200000D01*
X124300000Y-92200000D02*
X127200000Y-92200000D01*
X127200000Y-90800000D02*
X124300000Y-90800000D01*
G04 #@! TO.C,R2*
X127200000Y-89300000D02*
X124300000Y-89300000D01*
X124300000Y-90700000D02*
X127200000Y-90700000D01*
X124300000Y-89300000D02*
X124300000Y-90700000D01*
X127200000Y-89300000D02*
X127200000Y-90700000D01*
G04 #@! TO.C,R3*
X127200000Y-87800000D02*
X127200000Y-89200000D01*
X124300000Y-87800000D02*
X124300000Y-89200000D01*
X124300000Y-89200000D02*
X127200000Y-89200000D01*
X127200000Y-87800000D02*
X124300000Y-87800000D01*
D10*
G04 #@! TO.C,D28*
X120750000Y-90000000D02*
X120250000Y-90250000D01*
X120750000Y-90000000D02*
X120250000Y-89750000D01*
X120250000Y-89750000D02*
X120250000Y-90250000D01*
D13*
X121950000Y-89300000D02*
X119050000Y-89300000D01*
X119050000Y-90700000D02*
X121950000Y-90700000D01*
X119050000Y-89300000D02*
X119050000Y-90700000D01*
X121950000Y-89300000D02*
X121950000Y-90700000D01*
G04 #@! TO.C,C1*
X137700000Y-93950000D02*
X137700000Y-91050000D01*
X136300000Y-91050000D02*
X136300000Y-93950000D01*
X137700000Y-91050000D02*
X136300000Y-91050000D01*
X137700000Y-93950000D02*
X136300000Y-93950000D01*
G04 #@! TO.C,U1*
D10*
X157452380Y-89238095D02*
X158261904Y-89238095D01*
X158357142Y-89285714D01*
X158404761Y-89333333D01*
X158452380Y-89428571D01*
X158452380Y-89619047D01*
X158404761Y-89714285D01*
X158357142Y-89761904D01*
X158261904Y-89809523D01*
X157452380Y-89809523D01*
X158452380Y-90809523D02*
X158452380Y-90238095D01*
X158452380Y-90523809D02*
X157452380Y-90523809D01*
X157595238Y-90428571D01*
X157690476Y-90333333D01*
X157738095Y-90238095D01*
G04 #@! TO.C,JP1*
X128964285Y-92666666D02*
X128488095Y-92666666D01*
X129059523Y-92952380D02*
X128726190Y-91952380D01*
X128392857Y-92952380D01*
X128107142Y-92047619D02*
X128059523Y-92000000D01*
X127964285Y-91952380D01*
X127726190Y-91952380D01*
X127630952Y-92000000D01*
X127583333Y-92047619D01*
X127535714Y-92142857D01*
X127535714Y-92238095D01*
X127583333Y-92380952D01*
X128154761Y-92952380D01*
X127535714Y-92952380D01*
G04 #@! TO.C,JP2*
X128964285Y-90166666D02*
X128488095Y-90166666D01*
X129059523Y-90452380D02*
X128726190Y-89452380D01*
X128392857Y-90452380D01*
X127535714Y-90452380D02*
X128107142Y-90452380D01*
X127821428Y-90452380D02*
X127821428Y-89452380D01*
X127916666Y-89595238D01*
X128011904Y-89690476D01*
X128107142Y-89738095D01*
G04 #@! TO.C,JP3*
X128964285Y-87666666D02*
X128488095Y-87666666D01*
X129059523Y-87952380D02*
X128726190Y-86952380D01*
X128392857Y-87952380D01*
X127869047Y-86952380D02*
X127773809Y-86952380D01*
X127678571Y-87000000D01*
X127630952Y-87047619D01*
X127583333Y-87142857D01*
X127535714Y-87333333D01*
X127535714Y-87571428D01*
X127583333Y-87761904D01*
X127630952Y-87857142D01*
X127678571Y-87904761D01*
X127773809Y-87952380D01*
X127869047Y-87952380D01*
X127964285Y-87904761D01*
X128011904Y-87857142D01*
X128059523Y-87761904D01*
X128107142Y-87571428D01*
X128107142Y-87333333D01*
X128059523Y-87142857D01*
X128011904Y-87047619D01*
X127964285Y-87000000D01*
X127869047Y-86952380D01*
G04 #@! TO.C,R1*
X123416666Y-91952380D02*
X123750000Y-91476190D01*
X123988095Y-91952380D02*
X123988095Y-90952380D01*
X123607142Y-90952380D01*
X123511904Y-91000000D01*
X123464285Y-91047619D01*
X123416666Y-91142857D01*
X123416666Y-91285714D01*
X123464285Y-91380952D01*
X123511904Y-91428571D01*
X123607142Y-91476190D01*
X123988095Y-91476190D01*
X122464285Y-91952380D02*
X123035714Y-91952380D01*
X122750000Y-91952380D02*
X122750000Y-90952380D01*
X122845238Y-91095238D01*
X122940476Y-91190476D01*
X123035714Y-91238095D01*
G04 #@! TO.C,R2*
X123416666Y-90452380D02*
X123750000Y-89976190D01*
X123988095Y-90452380D02*
X123988095Y-89452380D01*
X123607142Y-89452380D01*
X123511904Y-89500000D01*
X123464285Y-89547619D01*
X123416666Y-89642857D01*
X123416666Y-89785714D01*
X123464285Y-89880952D01*
X123511904Y-89928571D01*
X123607142Y-89976190D01*
X123988095Y-89976190D01*
X123035714Y-89547619D02*
X122988095Y-89500000D01*
X122892857Y-89452380D01*
X122654761Y-89452380D01*
X122559523Y-89500000D01*
X122511904Y-89547619D01*
X122464285Y-89642857D01*
X122464285Y-89738095D01*
X122511904Y-89880952D01*
X123083333Y-90452380D01*
X122464285Y-90452380D01*
G04 #@! TO.C,R3*
X123416666Y-88952380D02*
X123750000Y-88476190D01*
X123988095Y-88952380D02*
X123988095Y-87952380D01*
X123607142Y-87952380D01*
X123511904Y-88000000D01*
X123464285Y-88047619D01*
X123416666Y-88142857D01*
X123416666Y-88285714D01*
X123464285Y-88380952D01*
X123511904Y-88428571D01*
X123607142Y-88476190D01*
X123988095Y-88476190D01*
X123083333Y-87952380D02*
X122464285Y-87952380D01*
X122797619Y-88333333D01*
X122654761Y-88333333D01*
X122559523Y-88380952D01*
X122511904Y-88428571D01*
X122464285Y-88523809D01*
X122464285Y-88761904D01*
X122511904Y-88857142D01*
X122559523Y-88904761D01*
X122654761Y-88952380D01*
X122940476Y-88952380D01*
X123035714Y-88904761D01*
X123083333Y-88857142D01*
G04 #@! TO.C,D13*
X172714285Y-98452380D02*
X172714285Y-97452380D01*
X172476190Y-97452380D01*
X172333333Y-97500000D01*
X172238095Y-97595238D01*
X172190476Y-97690476D01*
X172142857Y-97880952D01*
X172142857Y-98023809D01*
X172190476Y-98214285D01*
X172238095Y-98309523D01*
X172333333Y-98404761D01*
X172476190Y-98452380D01*
X172714285Y-98452380D01*
X171190476Y-98452380D02*
X171761904Y-98452380D01*
X171476190Y-98452380D02*
X171476190Y-97452380D01*
X171571428Y-97595238D01*
X171666666Y-97690476D01*
X171761904Y-97738095D01*
X170857142Y-97452380D02*
X170238095Y-97452380D01*
X170571428Y-97833333D01*
X170428571Y-97833333D01*
X170333333Y-97880952D01*
X170285714Y-97928571D01*
X170238095Y-98023809D01*
X170238095Y-98261904D01*
X170285714Y-98357142D01*
X170333333Y-98404761D01*
X170428571Y-98452380D01*
X170714285Y-98452380D01*
X170809523Y-98404761D01*
X170857142Y-98357142D01*
G04 #@! TO.C,D14*
X183714285Y-98452380D02*
X183714285Y-97452380D01*
X183476190Y-97452380D01*
X183333333Y-97500000D01*
X183238095Y-97595238D01*
X183190476Y-97690476D01*
X183142857Y-97880952D01*
X183142857Y-98023809D01*
X183190476Y-98214285D01*
X183238095Y-98309523D01*
X183333333Y-98404761D01*
X183476190Y-98452380D01*
X183714285Y-98452380D01*
X182190476Y-98452380D02*
X182761904Y-98452380D01*
X182476190Y-98452380D02*
X182476190Y-97452380D01*
X182571428Y-97595238D01*
X182666666Y-97690476D01*
X182761904Y-97738095D01*
X181333333Y-97785714D02*
X181333333Y-98452380D01*
X181571428Y-97404761D02*
X181809523Y-98119047D01*
X181190476Y-98119047D01*
G04 #@! TO.C,D15*
X182952380Y-86785714D02*
X181952380Y-86785714D01*
X181952380Y-87023809D01*
X182000000Y-87166666D01*
X182095238Y-87261904D01*
X182190476Y-87309523D01*
X182380952Y-87357142D01*
X182523809Y-87357142D01*
X182714285Y-87309523D01*
X182809523Y-87261904D01*
X182904761Y-87166666D01*
X182952380Y-87023809D01*
X182952380Y-86785714D01*
X182952380Y-88309523D02*
X182952380Y-87738095D01*
X182952380Y-88023809D02*
X181952380Y-88023809D01*
X182095238Y-87928571D01*
X182190476Y-87833333D01*
X182238095Y-87738095D01*
X181952380Y-89214285D02*
X181952380Y-88738095D01*
X182428571Y-88690476D01*
X182380952Y-88738095D01*
X182333333Y-88833333D01*
X182333333Y-89071428D01*
X182380952Y-89166666D01*
X182428571Y-89214285D01*
X182523809Y-89261904D01*
X182761904Y-89261904D01*
X182857142Y-89214285D01*
X182904761Y-89166666D01*
X182952380Y-89071428D01*
X182952380Y-88833333D01*
X182904761Y-88738095D01*
X182857142Y-88690476D01*
G04 #@! TO.C,D16*
X182952380Y-76785714D02*
X181952380Y-76785714D01*
X181952380Y-77023809D01*
X182000000Y-77166666D01*
X182095238Y-77261904D01*
X182190476Y-77309523D01*
X182380952Y-77357142D01*
X182523809Y-77357142D01*
X182714285Y-77309523D01*
X182809523Y-77261904D01*
X182904761Y-77166666D01*
X182952380Y-77023809D01*
X182952380Y-76785714D01*
X182952380Y-78309523D02*
X182952380Y-77738095D01*
X182952380Y-78023809D02*
X181952380Y-78023809D01*
X182095238Y-77928571D01*
X182190476Y-77833333D01*
X182238095Y-77738095D01*
X181952380Y-79166666D02*
X181952380Y-78976190D01*
X182000000Y-78880952D01*
X182047619Y-78833333D01*
X182190476Y-78738095D01*
X182380952Y-78690476D01*
X182761904Y-78690476D01*
X182857142Y-78738095D01*
X182904761Y-78785714D01*
X182952380Y-78880952D01*
X182952380Y-79071428D01*
X182904761Y-79166666D01*
X182857142Y-79214285D01*
X182761904Y-79261904D01*
X182523809Y-79261904D01*
X182428571Y-79214285D01*
X182380952Y-79166666D01*
X182333333Y-79071428D01*
X182333333Y-78880952D01*
X182380952Y-78785714D01*
X182428571Y-78738095D01*
X182523809Y-78690476D01*
G04 #@! TO.C,D17*
X113714285Y-68452380D02*
X113714285Y-67452380D01*
X113476190Y-67452380D01*
X113333333Y-67500000D01*
X113238095Y-67595238D01*
X113190476Y-67690476D01*
X113142857Y-67880952D01*
X113142857Y-68023809D01*
X113190476Y-68214285D01*
X113238095Y-68309523D01*
X113333333Y-68404761D01*
X113476190Y-68452380D01*
X113714285Y-68452380D01*
X112190476Y-68452380D02*
X112761904Y-68452380D01*
X112476190Y-68452380D02*
X112476190Y-67452380D01*
X112571428Y-67595238D01*
X112666666Y-67690476D01*
X112761904Y-67738095D01*
X111857142Y-67452380D02*
X111190476Y-67452380D01*
X111619047Y-68452380D01*
G04 #@! TO.C,D18*
X124714285Y-68452380D02*
X124714285Y-67452380D01*
X124476190Y-67452380D01*
X124333333Y-67500000D01*
X124238095Y-67595238D01*
X124190476Y-67690476D01*
X124142857Y-67880952D01*
X124142857Y-68023809D01*
X124190476Y-68214285D01*
X124238095Y-68309523D01*
X124333333Y-68404761D01*
X124476190Y-68452380D01*
X124714285Y-68452380D01*
X123190476Y-68452380D02*
X123761904Y-68452380D01*
X123476190Y-68452380D02*
X123476190Y-67452380D01*
X123571428Y-67595238D01*
X123666666Y-67690476D01*
X123761904Y-67738095D01*
X122619047Y-67880952D02*
X122714285Y-67833333D01*
X122761904Y-67785714D01*
X122809523Y-67690476D01*
X122809523Y-67642857D01*
X122761904Y-67547619D01*
X122714285Y-67500000D01*
X122619047Y-67452380D01*
X122428571Y-67452380D01*
X122333333Y-67500000D01*
X122285714Y-67547619D01*
X122238095Y-67642857D01*
X122238095Y-67690476D01*
X122285714Y-67785714D01*
X122333333Y-67833333D01*
X122428571Y-67880952D01*
X122619047Y-67880952D01*
X122714285Y-67928571D01*
X122761904Y-67976190D01*
X122809523Y-68071428D01*
X122809523Y-68261904D01*
X122761904Y-68357142D01*
X122714285Y-68404761D01*
X122619047Y-68452380D01*
X122428571Y-68452380D01*
X122333333Y-68404761D01*
X122285714Y-68357142D01*
X122238095Y-68261904D01*
X122238095Y-68071428D01*
X122285714Y-67976190D01*
X122333333Y-67928571D01*
X122428571Y-67880952D01*
G04 #@! TO.C,D19*
X136714285Y-68452380D02*
X136714285Y-67452380D01*
X136476190Y-67452380D01*
X136333333Y-67500000D01*
X136238095Y-67595238D01*
X136190476Y-67690476D01*
X136142857Y-67880952D01*
X136142857Y-68023809D01*
X136190476Y-68214285D01*
X136238095Y-68309523D01*
X136333333Y-68404761D01*
X136476190Y-68452380D01*
X136714285Y-68452380D01*
X135190476Y-68452380D02*
X135761904Y-68452380D01*
X135476190Y-68452380D02*
X135476190Y-67452380D01*
X135571428Y-67595238D01*
X135666666Y-67690476D01*
X135761904Y-67738095D01*
X134714285Y-68452380D02*
X134523809Y-68452380D01*
X134428571Y-68404761D01*
X134380952Y-68357142D01*
X134285714Y-68214285D01*
X134238095Y-68023809D01*
X134238095Y-67642857D01*
X134285714Y-67547619D01*
X134333333Y-67500000D01*
X134428571Y-67452380D01*
X134619047Y-67452380D01*
X134714285Y-67500000D01*
X134761904Y-67547619D01*
X134809523Y-67642857D01*
X134809523Y-67880952D01*
X134761904Y-67976190D01*
X134714285Y-68023809D01*
X134619047Y-68071428D01*
X134428571Y-68071428D01*
X134333333Y-68023809D01*
X134285714Y-67976190D01*
X134238095Y-67880952D01*
G04 #@! TO.C,D20*
X148714285Y-68452380D02*
X148714285Y-67452380D01*
X148476190Y-67452380D01*
X148333333Y-67500000D01*
X148238095Y-67595238D01*
X148190476Y-67690476D01*
X148142857Y-67880952D01*
X148142857Y-68023809D01*
X148190476Y-68214285D01*
X148238095Y-68309523D01*
X148333333Y-68404761D01*
X148476190Y-68452380D01*
X148714285Y-68452380D01*
X147761904Y-67547619D02*
X147714285Y-67500000D01*
X147619047Y-67452380D01*
X147380952Y-67452380D01*
X147285714Y-67500000D01*
X147238095Y-67547619D01*
X147190476Y-67642857D01*
X147190476Y-67738095D01*
X147238095Y-67880952D01*
X147809523Y-68452380D01*
X147190476Y-68452380D01*
X146571428Y-67452380D02*
X146476190Y-67452380D01*
X146380952Y-67500000D01*
X146333333Y-67547619D01*
X146285714Y-67642857D01*
X146238095Y-67833333D01*
X146238095Y-68071428D01*
X146285714Y-68261904D01*
X146333333Y-68357142D01*
X146380952Y-68404761D01*
X146476190Y-68452380D01*
X146571428Y-68452380D01*
X146666666Y-68404761D01*
X146714285Y-68357142D01*
X146761904Y-68261904D01*
X146809523Y-68071428D01*
X146809523Y-67833333D01*
X146761904Y-67642857D01*
X146714285Y-67547619D01*
X146666666Y-67500000D01*
X146571428Y-67452380D01*
G04 #@! TO.C,D21*
X160714285Y-68452380D02*
X160714285Y-67452380D01*
X160476190Y-67452380D01*
X160333333Y-67500000D01*
X160238095Y-67595238D01*
X160190476Y-67690476D01*
X160142857Y-67880952D01*
X160142857Y-68023809D01*
X160190476Y-68214285D01*
X160238095Y-68309523D01*
X160333333Y-68404761D01*
X160476190Y-68452380D01*
X160714285Y-68452380D01*
X159761904Y-67547619D02*
X159714285Y-67500000D01*
X159619047Y-67452380D01*
X159380952Y-67452380D01*
X159285714Y-67500000D01*
X159238095Y-67547619D01*
X159190476Y-67642857D01*
X159190476Y-67738095D01*
X159238095Y-67880952D01*
X159809523Y-68452380D01*
X159190476Y-68452380D01*
X158238095Y-68452380D02*
X158809523Y-68452380D01*
X158523809Y-68452380D02*
X158523809Y-67452380D01*
X158619047Y-67595238D01*
X158714285Y-67690476D01*
X158809523Y-67738095D01*
G04 #@! TO.C,D22*
X172714285Y-68452380D02*
X172714285Y-67452380D01*
X172476190Y-67452380D01*
X172333333Y-67500000D01*
X172238095Y-67595238D01*
X172190476Y-67690476D01*
X172142857Y-67880952D01*
X172142857Y-68023809D01*
X172190476Y-68214285D01*
X172238095Y-68309523D01*
X172333333Y-68404761D01*
X172476190Y-68452380D01*
X172714285Y-68452380D01*
X171761904Y-67547619D02*
X171714285Y-67500000D01*
X171619047Y-67452380D01*
X171380952Y-67452380D01*
X171285714Y-67500000D01*
X171238095Y-67547619D01*
X171190476Y-67642857D01*
X171190476Y-67738095D01*
X171238095Y-67880952D01*
X171809523Y-68452380D01*
X171190476Y-68452380D01*
X170809523Y-67547619D02*
X170761904Y-67500000D01*
X170666666Y-67452380D01*
X170428571Y-67452380D01*
X170333333Y-67500000D01*
X170285714Y-67547619D01*
X170238095Y-67642857D01*
X170238095Y-67738095D01*
X170285714Y-67880952D01*
X170857142Y-68452380D01*
X170238095Y-68452380D01*
G04 #@! TO.C,D23*
X183714285Y-68452380D02*
X183714285Y-67452380D01*
X183476190Y-67452380D01*
X183333333Y-67500000D01*
X183238095Y-67595238D01*
X183190476Y-67690476D01*
X183142857Y-67880952D01*
X183142857Y-68023809D01*
X183190476Y-68214285D01*
X183238095Y-68309523D01*
X183333333Y-68404761D01*
X183476190Y-68452380D01*
X183714285Y-68452380D01*
X182761904Y-67547619D02*
X182714285Y-67500000D01*
X182619047Y-67452380D01*
X182380952Y-67452380D01*
X182285714Y-67500000D01*
X182238095Y-67547619D01*
X182190476Y-67642857D01*
X182190476Y-67738095D01*
X182238095Y-67880952D01*
X182809523Y-68452380D01*
X182190476Y-68452380D01*
X181857142Y-67452380D02*
X181238095Y-67452380D01*
X181571428Y-67833333D01*
X181428571Y-67833333D01*
X181333333Y-67880952D01*
X181285714Y-67928571D01*
X181238095Y-68023809D01*
X181238095Y-68261904D01*
X181285714Y-68357142D01*
X181333333Y-68404761D01*
X181428571Y-68452380D01*
X181714285Y-68452380D01*
X181809523Y-68404761D01*
X181857142Y-68357142D01*
G04 #@! TO.C,D24*
X191139209Y-68788316D02*
X192033363Y-68340557D01*
X191926754Y-68127663D01*
X191820209Y-68021248D01*
X191692408Y-67978735D01*
X191585929Y-67978800D01*
X191394292Y-68021508D01*
X191266555Y-68085474D01*
X191117562Y-68213340D01*
X191053726Y-68298563D01*
X191011213Y-68426364D01*
X191032599Y-68575422D01*
X191139209Y-68788316D01*
X191521768Y-67531625D02*
X191543025Y-67467724D01*
X191542960Y-67361245D01*
X191436351Y-67148351D01*
X191351128Y-67084515D01*
X191287228Y-67063259D01*
X191180748Y-67063324D01*
X191095591Y-67105967D01*
X190989176Y-67212512D01*
X190734093Y-67979319D01*
X190456909Y-67425795D01*
X190669218Y-66360871D02*
X190073116Y-66659377D01*
X191116458Y-66403190D02*
X190584386Y-66935912D01*
X190307201Y-66382388D01*
G04 #@! TO.C,D25*
X136714285Y-98452380D02*
X136714285Y-97452380D01*
X136476190Y-97452380D01*
X136333333Y-97500000D01*
X136238095Y-97595238D01*
X136190476Y-97690476D01*
X136142857Y-97880952D01*
X136142857Y-98023809D01*
X136190476Y-98214285D01*
X136238095Y-98309523D01*
X136333333Y-98404761D01*
X136476190Y-98452380D01*
X136714285Y-98452380D01*
X135761904Y-97547619D02*
X135714285Y-97500000D01*
X135619047Y-97452380D01*
X135380952Y-97452380D01*
X135285714Y-97500000D01*
X135238095Y-97547619D01*
X135190476Y-97642857D01*
X135190476Y-97738095D01*
X135238095Y-97880952D01*
X135809523Y-98452380D01*
X135190476Y-98452380D01*
X134285714Y-97452380D02*
X134761904Y-97452380D01*
X134809523Y-97928571D01*
X134761904Y-97880952D01*
X134666666Y-97833333D01*
X134428571Y-97833333D01*
X134333333Y-97880952D01*
X134285714Y-97928571D01*
X134238095Y-98023809D01*
X134238095Y-98261904D01*
X134285714Y-98357142D01*
X134333333Y-98404761D01*
X134428571Y-98452380D01*
X134666666Y-98452380D01*
X134761904Y-98404761D01*
X134809523Y-98357142D01*
G04 #@! TO.C,D26*
X148714285Y-98452380D02*
X148714285Y-97452380D01*
X148476190Y-97452380D01*
X148333333Y-97500000D01*
X148238095Y-97595238D01*
X148190476Y-97690476D01*
X148142857Y-97880952D01*
X148142857Y-98023809D01*
X148190476Y-98214285D01*
X148238095Y-98309523D01*
X148333333Y-98404761D01*
X148476190Y-98452380D01*
X148714285Y-98452380D01*
X147761904Y-97547619D02*
X147714285Y-97500000D01*
X147619047Y-97452380D01*
X147380952Y-97452380D01*
X147285714Y-97500000D01*
X147238095Y-97547619D01*
X147190476Y-97642857D01*
X147190476Y-97738095D01*
X147238095Y-97880952D01*
X147809523Y-98452380D01*
X147190476Y-98452380D01*
X146333333Y-97452380D02*
X146523809Y-97452380D01*
X146619047Y-97500000D01*
X146666666Y-97547619D01*
X146761904Y-97690476D01*
X146809523Y-97880952D01*
X146809523Y-98261904D01*
X146761904Y-98357142D01*
X146714285Y-98404761D01*
X146619047Y-98452380D01*
X146428571Y-98452380D01*
X146333333Y-98404761D01*
X146285714Y-98357142D01*
X146238095Y-98261904D01*
X146238095Y-98023809D01*
X146285714Y-97928571D01*
X146333333Y-97880952D01*
X146428571Y-97833333D01*
X146619047Y-97833333D01*
X146714285Y-97880952D01*
X146761904Y-97928571D01*
X146809523Y-98023809D01*
G04 #@! TO.C,D27*
X160714285Y-98452380D02*
X160714285Y-97452380D01*
X160476190Y-97452380D01*
X160333333Y-97500000D01*
X160238095Y-97595238D01*
X160190476Y-97690476D01*
X160142857Y-97880952D01*
X160142857Y-98023809D01*
X160190476Y-98214285D01*
X160238095Y-98309523D01*
X160333333Y-98404761D01*
X160476190Y-98452380D01*
X160714285Y-98452380D01*
X159761904Y-97547619D02*
X159714285Y-97500000D01*
X159619047Y-97452380D01*
X159380952Y-97452380D01*
X159285714Y-97500000D01*
X159238095Y-97547619D01*
X159190476Y-97642857D01*
X159190476Y-97738095D01*
X159238095Y-97880952D01*
X159809523Y-98452380D01*
X159190476Y-98452380D01*
X158857142Y-97452380D02*
X158190476Y-97452380D01*
X158619047Y-98452380D01*
G04 #@! TO.C,D28*
X118714285Y-90452380D02*
X118714285Y-89452380D01*
X118476190Y-89452380D01*
X118333333Y-89500000D01*
X118238095Y-89595238D01*
X118190476Y-89690476D01*
X118142857Y-89880952D01*
X118142857Y-90023809D01*
X118190476Y-90214285D01*
X118238095Y-90309523D01*
X118333333Y-90404761D01*
X118476190Y-90452380D01*
X118714285Y-90452380D01*
X117761904Y-89547619D02*
X117714285Y-89500000D01*
X117619047Y-89452380D01*
X117380952Y-89452380D01*
X117285714Y-89500000D01*
X117238095Y-89547619D01*
X117190476Y-89642857D01*
X117190476Y-89738095D01*
X117238095Y-89880952D01*
X117809523Y-90452380D01*
X117190476Y-90452380D01*
X116619047Y-89880952D02*
X116714285Y-89833333D01*
X116761904Y-89785714D01*
X116809523Y-89690476D01*
X116809523Y-89642857D01*
X116761904Y-89547619D01*
X116714285Y-89500000D01*
X116619047Y-89452380D01*
X116428571Y-89452380D01*
X116333333Y-89500000D01*
X116285714Y-89547619D01*
X116238095Y-89642857D01*
X116238095Y-89690476D01*
X116285714Y-89785714D01*
X116333333Y-89833333D01*
X116428571Y-89880952D01*
X116619047Y-89880952D01*
X116714285Y-89928571D01*
X116761904Y-89976190D01*
X116809523Y-90071428D01*
X116809523Y-90261904D01*
X116761904Y-90357142D01*
X116714285Y-90404761D01*
X116619047Y-90452380D01*
X116428571Y-90452380D01*
X116333333Y-90404761D01*
X116285714Y-90357142D01*
X116238095Y-90261904D01*
X116238095Y-90071428D01*
X116285714Y-89976190D01*
X116333333Y-89928571D01*
X116428571Y-89880952D01*
G04 #@! TO.C,C1*
X135857142Y-92333333D02*
X135904761Y-92285714D01*
X135952380Y-92142857D01*
X135952380Y-92047619D01*
X135904761Y-91904761D01*
X135809523Y-91809523D01*
X135714285Y-91761904D01*
X135523809Y-91714285D01*
X135380952Y-91714285D01*
X135190476Y-91761904D01*
X135095238Y-91809523D01*
X135000000Y-91904761D01*
X134952380Y-92047619D01*
X134952380Y-92142857D01*
X135000000Y-92285714D01*
X135047619Y-92333333D01*
X135952380Y-93285714D02*
X135952380Y-92714285D01*
X135952380Y-93000000D02*
X134952380Y-93000000D01*
X135095238Y-92904761D01*
X135190476Y-92809523D01*
X135238095Y-92714285D01*
G04 #@! TO.C,D1*
X104734987Y-67042586D02*
X103840832Y-66594827D01*
X103734223Y-66807721D01*
X103712836Y-66956779D01*
X103755350Y-67084580D01*
X103819186Y-67169803D01*
X103968179Y-67297669D01*
X104095915Y-67361635D01*
X104287552Y-67404343D01*
X104394032Y-67404408D01*
X104521833Y-67361895D01*
X104628377Y-67255480D01*
X104734987Y-67042586D01*
X104052687Y-68405107D02*
X104308549Y-67894162D01*
X104180618Y-68149634D02*
X103286464Y-67701875D01*
X103456844Y-67680683D01*
X103584645Y-67638169D01*
X103669868Y-67574334D01*
G04 #@! TO.C,D2*
X113238095Y-52452380D02*
X113238095Y-51452380D01*
X113000000Y-51452380D01*
X112857142Y-51500000D01*
X112761904Y-51595238D01*
X112714285Y-51690476D01*
X112666666Y-51880952D01*
X112666666Y-52023809D01*
X112714285Y-52214285D01*
X112761904Y-52309523D01*
X112857142Y-52404761D01*
X113000000Y-52452380D01*
X113238095Y-52452380D01*
X112285714Y-51547619D02*
X112238095Y-51500000D01*
X112142857Y-51452380D01*
X111904761Y-51452380D01*
X111809523Y-51500000D01*
X111761904Y-51547619D01*
X111714285Y-51642857D01*
X111714285Y-51738095D01*
X111761904Y-51880952D01*
X112333333Y-52452380D01*
X111714285Y-52452380D01*
G04 #@! TO.C,D3*
X124238095Y-52452380D02*
X124238095Y-51452380D01*
X124000000Y-51452380D01*
X123857142Y-51500000D01*
X123761904Y-51595238D01*
X123714285Y-51690476D01*
X123666666Y-51880952D01*
X123666666Y-52023809D01*
X123714285Y-52214285D01*
X123761904Y-52309523D01*
X123857142Y-52404761D01*
X124000000Y-52452380D01*
X124238095Y-52452380D01*
X123333333Y-51452380D02*
X122714285Y-51452380D01*
X123047619Y-51833333D01*
X122904761Y-51833333D01*
X122809523Y-51880952D01*
X122761904Y-51928571D01*
X122714285Y-52023809D01*
X122714285Y-52261904D01*
X122761904Y-52357142D01*
X122809523Y-52404761D01*
X122904761Y-52452380D01*
X123190476Y-52452380D01*
X123285714Y-52404761D01*
X123333333Y-52357142D01*
G04 #@! TO.C,D4*
X136238095Y-52452380D02*
X136238095Y-51452380D01*
X136000000Y-51452380D01*
X135857142Y-51500000D01*
X135761904Y-51595238D01*
X135714285Y-51690476D01*
X135666666Y-51880952D01*
X135666666Y-52023809D01*
X135714285Y-52214285D01*
X135761904Y-52309523D01*
X135857142Y-52404761D01*
X136000000Y-52452380D01*
X136238095Y-52452380D01*
X134809523Y-51785714D02*
X134809523Y-52452380D01*
X135047619Y-51404761D02*
X135285714Y-52119047D01*
X134666666Y-52119047D01*
G04 #@! TO.C,D5*
X148238095Y-52452380D02*
X148238095Y-51452380D01*
X148000000Y-51452380D01*
X147857142Y-51500000D01*
X147761904Y-51595238D01*
X147714285Y-51690476D01*
X147666666Y-51880952D01*
X147666666Y-52023809D01*
X147714285Y-52214285D01*
X147761904Y-52309523D01*
X147857142Y-52404761D01*
X148000000Y-52452380D01*
X148238095Y-52452380D01*
X146761904Y-51452380D02*
X147238095Y-51452380D01*
X147285714Y-51928571D01*
X147238095Y-51880952D01*
X147142857Y-51833333D01*
X146904761Y-51833333D01*
X146809523Y-51880952D01*
X146761904Y-51928571D01*
X146714285Y-52023809D01*
X146714285Y-52261904D01*
X146761904Y-52357142D01*
X146809523Y-52404761D01*
X146904761Y-52452380D01*
X147142857Y-52452380D01*
X147238095Y-52404761D01*
X147285714Y-52357142D01*
G04 #@! TO.C,D6*
X160238095Y-52452380D02*
X160238095Y-51452380D01*
X160000000Y-51452380D01*
X159857142Y-51500000D01*
X159761904Y-51595238D01*
X159714285Y-51690476D01*
X159666666Y-51880952D01*
X159666666Y-52023809D01*
X159714285Y-52214285D01*
X159761904Y-52309523D01*
X159857142Y-52404761D01*
X160000000Y-52452380D01*
X160238095Y-52452380D01*
X158809523Y-51452380D02*
X159000000Y-51452380D01*
X159095238Y-51500000D01*
X159142857Y-51547619D01*
X159238095Y-51690476D01*
X159285714Y-51880952D01*
X159285714Y-52261904D01*
X159238095Y-52357142D01*
X159190476Y-52404761D01*
X159095238Y-52452380D01*
X158904761Y-52452380D01*
X158809523Y-52404761D01*
X158761904Y-52357142D01*
X158714285Y-52261904D01*
X158714285Y-52023809D01*
X158761904Y-51928571D01*
X158809523Y-51880952D01*
X158904761Y-51833333D01*
X159095238Y-51833333D01*
X159190476Y-51880952D01*
X159238095Y-51928571D01*
X159285714Y-52023809D01*
G04 #@! TO.C,D7*
X172238095Y-52452380D02*
X172238095Y-51452380D01*
X172000000Y-51452380D01*
X171857142Y-51500000D01*
X171761904Y-51595238D01*
X171714285Y-51690476D01*
X171666666Y-51880952D01*
X171666666Y-52023809D01*
X171714285Y-52214285D01*
X171761904Y-52309523D01*
X171857142Y-52404761D01*
X172000000Y-52452380D01*
X172238095Y-52452380D01*
X171333333Y-51452380D02*
X170666666Y-51452380D01*
X171095238Y-52452380D01*
G04 #@! TO.C,D8*
X183238095Y-52452380D02*
X183238095Y-51452380D01*
X183000000Y-51452380D01*
X182857142Y-51500000D01*
X182761904Y-51595238D01*
X182714285Y-51690476D01*
X182666666Y-51880952D01*
X182666666Y-52023809D01*
X182714285Y-52214285D01*
X182761904Y-52309523D01*
X182857142Y-52404761D01*
X183000000Y-52452380D01*
X183238095Y-52452380D01*
X182095238Y-51880952D02*
X182190476Y-51833333D01*
X182238095Y-51785714D01*
X182285714Y-51690476D01*
X182285714Y-51642857D01*
X182238095Y-51547619D01*
X182190476Y-51500000D01*
X182095238Y-51452380D01*
X181904761Y-51452380D01*
X181809523Y-51500000D01*
X181761904Y-51547619D01*
X181714285Y-51642857D01*
X181714285Y-51690476D01*
X181761904Y-51785714D01*
X181809523Y-51833333D01*
X181904761Y-51880952D01*
X182095238Y-51880952D01*
X182190476Y-51928571D01*
X182238095Y-51976190D01*
X182285714Y-52071428D01*
X182285714Y-52261904D01*
X182238095Y-52357142D01*
X182190476Y-52404761D01*
X182095238Y-52452380D01*
X181904761Y-52452380D01*
X181809523Y-52404761D01*
X181761904Y-52357142D01*
X181714285Y-52261904D01*
X181714285Y-52071428D01*
X181761904Y-51976190D01*
X181809523Y-51928571D01*
X181904761Y-51880952D01*
G04 #@! TO.C,D9*
X112952380Y-77261904D02*
X111952380Y-77261904D01*
X111952380Y-77500000D01*
X112000000Y-77642857D01*
X112095238Y-77738095D01*
X112190476Y-77785714D01*
X112380952Y-77833333D01*
X112523809Y-77833333D01*
X112714285Y-77785714D01*
X112809523Y-77738095D01*
X112904761Y-77642857D01*
X112952380Y-77500000D01*
X112952380Y-77261904D01*
X112952380Y-78309523D02*
X112952380Y-78500000D01*
X112904761Y-78595238D01*
X112857142Y-78642857D01*
X112714285Y-78738095D01*
X112523809Y-78785714D01*
X112142857Y-78785714D01*
X112047619Y-78738095D01*
X112000000Y-78690476D01*
X111952380Y-78595238D01*
X111952380Y-78404761D01*
X112000000Y-78309523D01*
X112047619Y-78261904D01*
X112142857Y-78214285D01*
X112380952Y-78214285D01*
X112476190Y-78261904D01*
X112523809Y-78309523D01*
X112571428Y-78404761D01*
X112571428Y-78595238D01*
X112523809Y-78690476D01*
X112476190Y-78738095D01*
X112380952Y-78785714D01*
G04 #@! TO.C,D10*
X112952380Y-86785714D02*
X111952380Y-86785714D01*
X111952380Y-87023809D01*
X112000000Y-87166666D01*
X112095238Y-87261904D01*
X112190476Y-87309523D01*
X112380952Y-87357142D01*
X112523809Y-87357142D01*
X112714285Y-87309523D01*
X112809523Y-87261904D01*
X112904761Y-87166666D01*
X112952380Y-87023809D01*
X112952380Y-86785714D01*
X112952380Y-88309523D02*
X112952380Y-87738095D01*
X112952380Y-88023809D02*
X111952380Y-88023809D01*
X112095238Y-87928571D01*
X112190476Y-87833333D01*
X112238095Y-87738095D01*
X111952380Y-88928571D02*
X111952380Y-89023809D01*
X112000000Y-89119047D01*
X112047619Y-89166666D01*
X112142857Y-89214285D01*
X112333333Y-89261904D01*
X112571428Y-89261904D01*
X112761904Y-89214285D01*
X112857142Y-89166666D01*
X112904761Y-89119047D01*
X112952380Y-89023809D01*
X112952380Y-88928571D01*
X112904761Y-88833333D01*
X112857142Y-88785714D01*
X112761904Y-88738095D01*
X112571428Y-88690476D01*
X112333333Y-88690476D01*
X112142857Y-88738095D01*
X112047619Y-88785714D01*
X112000000Y-88833333D01*
X111952380Y-88928571D01*
G04 #@! TO.C,D11*
X113714285Y-98452380D02*
X113714285Y-97452380D01*
X113476190Y-97452380D01*
X113333333Y-97500000D01*
X113238095Y-97595238D01*
X113190476Y-97690476D01*
X113142857Y-97880952D01*
X113142857Y-98023809D01*
X113190476Y-98214285D01*
X113238095Y-98309523D01*
X113333333Y-98404761D01*
X113476190Y-98452380D01*
X113714285Y-98452380D01*
X112190476Y-98452380D02*
X112761904Y-98452380D01*
X112476190Y-98452380D02*
X112476190Y-97452380D01*
X112571428Y-97595238D01*
X112666666Y-97690476D01*
X112761904Y-97738095D01*
X111238095Y-98452380D02*
X111809523Y-98452380D01*
X111523809Y-98452380D02*
X111523809Y-97452380D01*
X111619047Y-97595238D01*
X111714285Y-97690476D01*
X111809523Y-97738095D01*
G04 #@! TO.C,D12*
X124714285Y-98452380D02*
X124714285Y-97452380D01*
X124476190Y-97452380D01*
X124333333Y-97500000D01*
X124238095Y-97595238D01*
X124190476Y-97690476D01*
X124142857Y-97880952D01*
X124142857Y-98023809D01*
X124190476Y-98214285D01*
X124238095Y-98309523D01*
X124333333Y-98404761D01*
X124476190Y-98452380D01*
X124714285Y-98452380D01*
X123190476Y-98452380D02*
X123761904Y-98452380D01*
X123476190Y-98452380D02*
X123476190Y-97452380D01*
X123571428Y-97595238D01*
X123666666Y-97690476D01*
X123761904Y-97738095D01*
X122809523Y-97547619D02*
X122761904Y-97500000D01*
X122666666Y-97452380D01*
X122428571Y-97452380D01*
X122333333Y-97500000D01*
X122285714Y-97547619D01*
X122238095Y-97642857D01*
X122238095Y-97738095D01*
X122285714Y-97880952D01*
X122857142Y-98452380D01*
X122238095Y-98452380D01*
G04 #@! TD*
M02*
