G04 #@! TF.GenerationSoftware,KiCad,Pcbnew,(5.0.2)-1*
G04 #@! TF.CreationDate,2020-02-29T00:21:09+09:00*
G04 #@! TF.ProjectId,House,486f7573-652e-46b6-9963-61645f706362,rev?*
G04 #@! TF.SameCoordinates,Original*
G04 #@! TF.FileFunction,Soldermask,Bot*
G04 #@! TF.FilePolarity,Negative*
%FSLAX46Y46*%
G04 Gerber Fmt 4.6, Leading zero omitted, Abs format (unit mm)*
G04 Created by KiCad (PCBNEW (5.0.2)-1) date 2020/02/29 0:21:09*
%MOMM*%
%LPD*%
G01*
G04 APERTURE LIST*
%ADD10C,0.150000*%
%ADD11C,0.100000*%
G04 APERTURE END LIST*
D10*
G36*
X140000000Y-100000000D02*
X155000000Y-100000000D01*
X155000000Y-110500000D01*
X140000000Y-110500000D01*
X140000000Y-100000000D01*
G37*
X140000000Y-100000000D02*
X155000000Y-100000000D01*
X155000000Y-110500000D01*
X140000000Y-110500000D01*
X140000000Y-100000000D01*
D11*
G36*
X153366000Y-110496000D02*
X151794000Y-110496000D01*
X151794000Y-101504000D01*
X153366000Y-101504000D01*
X153366000Y-110496000D01*
X153366000Y-110496000D01*
G37*
G36*
X148286000Y-110496000D02*
X146714000Y-110496000D01*
X146714000Y-101504000D01*
X148286000Y-101504000D01*
X148286000Y-110496000D01*
X148286000Y-110496000D01*
G37*
G36*
X145746000Y-110496000D02*
X144174000Y-110496000D01*
X144174000Y-101504000D01*
X145746000Y-101504000D01*
X145746000Y-110496000D01*
X145746000Y-110496000D01*
G37*
G36*
X143206000Y-110496000D02*
X141634000Y-110496000D01*
X141634000Y-101504000D01*
X143206000Y-101504000D01*
X143206000Y-110496000D01*
X143206000Y-110496000D01*
G37*
G36*
X150826000Y-110496000D02*
X149254000Y-110496000D01*
X149254000Y-101504000D01*
X150826000Y-101504000D01*
X150826000Y-110496000D01*
X150826000Y-110496000D01*
G37*
G36*
X142136000Y-95751000D02*
X141434000Y-95751000D01*
X141434000Y-93649000D01*
X142136000Y-93649000D01*
X142136000Y-95751000D01*
X142136000Y-95751000D01*
G37*
G36*
X139596000Y-95751000D02*
X138894000Y-95751000D01*
X138894000Y-93649000D01*
X139596000Y-93649000D01*
X139596000Y-95751000D01*
X139596000Y-95751000D01*
G37*
G36*
X140866000Y-95751000D02*
X140164000Y-95751000D01*
X140164000Y-93649000D01*
X140866000Y-93649000D01*
X140866000Y-95751000D01*
X140866000Y-95751000D01*
G37*
G36*
X143406000Y-95751000D02*
X142704000Y-95751000D01*
X142704000Y-93649000D01*
X143406000Y-93649000D01*
X143406000Y-95751000D01*
X143406000Y-95751000D01*
G37*
G36*
X144676000Y-95751000D02*
X143974000Y-95751000D01*
X143974000Y-93649000D01*
X144676000Y-93649000D01*
X144676000Y-95751000D01*
X144676000Y-95751000D01*
G37*
G36*
X145946000Y-95751000D02*
X145244000Y-95751000D01*
X145244000Y-93649000D01*
X145946000Y-93649000D01*
X145946000Y-95751000D01*
X145946000Y-95751000D01*
G37*
G36*
X147216000Y-95751000D02*
X146514000Y-95751000D01*
X146514000Y-93649000D01*
X147216000Y-93649000D01*
X147216000Y-95751000D01*
X147216000Y-95751000D01*
G37*
G36*
X149756000Y-95751000D02*
X149054000Y-95751000D01*
X149054000Y-93649000D01*
X149756000Y-93649000D01*
X149756000Y-95751000D01*
X149756000Y-95751000D01*
G37*
G36*
X151026000Y-95751000D02*
X150324000Y-95751000D01*
X150324000Y-93649000D01*
X151026000Y-93649000D01*
X151026000Y-95751000D01*
X151026000Y-95751000D01*
G37*
G36*
X152296000Y-95751000D02*
X151594000Y-95751000D01*
X151594000Y-93649000D01*
X152296000Y-93649000D01*
X152296000Y-95751000D01*
X152296000Y-95751000D01*
G37*
G36*
X156106000Y-95751000D02*
X155404000Y-95751000D01*
X155404000Y-93649000D01*
X156106000Y-93649000D01*
X156106000Y-95751000D01*
X156106000Y-95751000D01*
G37*
G36*
X154836000Y-95751000D02*
X154134000Y-95751000D01*
X154134000Y-93649000D01*
X154836000Y-93649000D01*
X154836000Y-95751000D01*
X154836000Y-95751000D01*
G37*
G36*
X153566000Y-95751000D02*
X152864000Y-95751000D01*
X152864000Y-93649000D01*
X153566000Y-93649000D01*
X153566000Y-95751000D01*
X153566000Y-95751000D01*
G37*
G36*
X148486000Y-95751000D02*
X147784000Y-95751000D01*
X147784000Y-93649000D01*
X148486000Y-93649000D01*
X148486000Y-95751000D01*
X148486000Y-95751000D01*
G37*
G36*
X137451000Y-93751000D02*
X136549000Y-93751000D01*
X136549000Y-92849000D01*
X137451000Y-92849000D01*
X137451000Y-93751000D01*
X137451000Y-93751000D01*
G37*
G36*
X130859999Y-91699737D02*
X130869611Y-91702653D01*
X130878469Y-91707388D01*
X130886237Y-91713763D01*
X130896446Y-91726202D01*
X130903372Y-91736568D01*
X130920698Y-91753895D01*
X130941073Y-91767510D01*
X130963711Y-91776888D01*
X130987745Y-91781669D01*
X131012249Y-91781669D01*
X131036283Y-91776889D01*
X131058922Y-91767513D01*
X131079297Y-91753899D01*
X131096624Y-91736573D01*
X131103552Y-91726204D01*
X131113763Y-91713763D01*
X131121531Y-91707388D01*
X131130389Y-91702653D01*
X131140001Y-91699737D01*
X131156140Y-91698148D01*
X131643860Y-91698148D01*
X131662198Y-91699954D01*
X131674450Y-91700556D01*
X131692869Y-91700556D01*
X131715149Y-91702750D01*
X131799236Y-91719476D01*
X131820655Y-91725974D01*
X131899871Y-91758785D01*
X131919607Y-91769335D01*
X131990897Y-91816969D01*
X132008208Y-91831176D01*
X132068824Y-91891792D01*
X132083031Y-91909103D01*
X132130665Y-91980393D01*
X132141215Y-92000129D01*
X132174026Y-92079345D01*
X132180524Y-92100764D01*
X132197250Y-92184851D01*
X132199444Y-92207131D01*
X132199444Y-92225550D01*
X132200046Y-92237802D01*
X132201852Y-92256140D01*
X132201852Y-92743861D01*
X132200046Y-92762198D01*
X132199444Y-92774450D01*
X132199444Y-92792869D01*
X132197250Y-92815149D01*
X132180524Y-92899236D01*
X132174026Y-92920655D01*
X132141215Y-92999871D01*
X132130665Y-93019607D01*
X132083031Y-93090897D01*
X132068824Y-93108208D01*
X132008208Y-93168824D01*
X131990897Y-93183031D01*
X131919607Y-93230665D01*
X131899871Y-93241215D01*
X131820655Y-93274026D01*
X131799236Y-93280524D01*
X131715149Y-93297250D01*
X131692869Y-93299444D01*
X131674450Y-93299444D01*
X131662198Y-93300046D01*
X131643861Y-93301852D01*
X131156140Y-93301852D01*
X131140001Y-93300263D01*
X131130389Y-93297347D01*
X131121531Y-93292612D01*
X131113763Y-93286237D01*
X131103554Y-93273798D01*
X131096628Y-93263432D01*
X131079302Y-93246105D01*
X131058927Y-93232490D01*
X131036289Y-93223112D01*
X131012255Y-93218331D01*
X130987751Y-93218331D01*
X130963717Y-93223111D01*
X130941078Y-93232487D01*
X130920703Y-93246101D01*
X130903376Y-93263427D01*
X130896448Y-93273796D01*
X130886237Y-93286237D01*
X130878469Y-93292612D01*
X130869611Y-93297347D01*
X130859999Y-93300263D01*
X130843860Y-93301852D01*
X130356139Y-93301852D01*
X130337802Y-93300046D01*
X130325550Y-93299444D01*
X130307131Y-93299444D01*
X130284851Y-93297250D01*
X130200764Y-93280524D01*
X130179345Y-93274026D01*
X130100129Y-93241215D01*
X130080393Y-93230665D01*
X130009103Y-93183031D01*
X129991792Y-93168824D01*
X129931176Y-93108208D01*
X129916969Y-93090897D01*
X129869335Y-93019607D01*
X129858785Y-92999871D01*
X129825974Y-92920655D01*
X129819476Y-92899236D01*
X129802750Y-92815149D01*
X129800556Y-92792869D01*
X129800556Y-92774450D01*
X129799954Y-92762198D01*
X129798148Y-92743861D01*
X129798148Y-92256140D01*
X129799954Y-92237802D01*
X129800556Y-92225550D01*
X129800556Y-92207131D01*
X129802750Y-92184851D01*
X129819476Y-92100764D01*
X129825974Y-92079345D01*
X129858785Y-92000129D01*
X129869335Y-91980393D01*
X129916969Y-91909103D01*
X129931176Y-91891792D01*
X129991792Y-91831176D01*
X130009103Y-91816969D01*
X130080393Y-91769335D01*
X130100129Y-91758785D01*
X130179345Y-91725974D01*
X130200764Y-91719476D01*
X130284851Y-91702750D01*
X130307131Y-91700556D01*
X130325550Y-91700556D01*
X130337802Y-91699954D01*
X130356140Y-91698148D01*
X130843860Y-91698148D01*
X130859999Y-91699737D01*
X130859999Y-91699737D01*
G37*
G36*
X137451000Y-92151000D02*
X136549000Y-92151000D01*
X136549000Y-91249000D01*
X137451000Y-91249000D01*
X137451000Y-92151000D01*
X137451000Y-92151000D01*
G37*
G36*
X125401000Y-91951000D02*
X124499000Y-91951000D01*
X124499000Y-91049000D01*
X125401000Y-91049000D01*
X125401000Y-91951000D01*
X125401000Y-91951000D01*
G37*
G36*
X127001000Y-91951000D02*
X126099000Y-91951000D01*
X126099000Y-91049000D01*
X127001000Y-91049000D01*
X127001000Y-91951000D01*
X127001000Y-91951000D01*
G37*
G36*
X130859999Y-89199737D02*
X130869611Y-89202653D01*
X130878469Y-89207388D01*
X130886237Y-89213763D01*
X130896446Y-89226202D01*
X130903372Y-89236568D01*
X130920698Y-89253895D01*
X130941073Y-89267510D01*
X130963711Y-89276888D01*
X130987745Y-89281669D01*
X131012249Y-89281669D01*
X131036283Y-89276889D01*
X131058922Y-89267513D01*
X131079297Y-89253899D01*
X131096624Y-89236573D01*
X131103552Y-89226204D01*
X131113763Y-89213763D01*
X131121531Y-89207388D01*
X131130389Y-89202653D01*
X131140001Y-89199737D01*
X131156140Y-89198148D01*
X131643860Y-89198148D01*
X131662198Y-89199954D01*
X131674450Y-89200556D01*
X131692869Y-89200556D01*
X131715149Y-89202750D01*
X131799236Y-89219476D01*
X131820655Y-89225974D01*
X131899871Y-89258785D01*
X131919607Y-89269335D01*
X131990897Y-89316969D01*
X132008208Y-89331176D01*
X132068824Y-89391792D01*
X132083031Y-89409103D01*
X132130665Y-89480393D01*
X132141215Y-89500129D01*
X132174026Y-89579345D01*
X132180524Y-89600764D01*
X132197250Y-89684851D01*
X132199444Y-89707131D01*
X132199444Y-89725550D01*
X132200046Y-89737802D01*
X132201852Y-89756140D01*
X132201852Y-90243861D01*
X132200046Y-90262198D01*
X132199444Y-90274450D01*
X132199444Y-90292869D01*
X132197250Y-90315149D01*
X132180524Y-90399236D01*
X132174026Y-90420655D01*
X132141215Y-90499871D01*
X132130665Y-90519607D01*
X132083031Y-90590897D01*
X132068824Y-90608208D01*
X132008208Y-90668824D01*
X131990897Y-90683031D01*
X131919607Y-90730665D01*
X131899871Y-90741215D01*
X131820655Y-90774026D01*
X131799236Y-90780524D01*
X131715149Y-90797250D01*
X131692869Y-90799444D01*
X131674450Y-90799444D01*
X131662198Y-90800046D01*
X131643861Y-90801852D01*
X131156140Y-90801852D01*
X131140001Y-90800263D01*
X131130389Y-90797347D01*
X131121531Y-90792612D01*
X131113763Y-90786237D01*
X131103554Y-90773798D01*
X131096628Y-90763432D01*
X131079302Y-90746105D01*
X131058927Y-90732490D01*
X131036289Y-90723112D01*
X131012255Y-90718331D01*
X130987751Y-90718331D01*
X130963717Y-90723111D01*
X130941078Y-90732487D01*
X130920703Y-90746101D01*
X130903376Y-90763427D01*
X130896448Y-90773796D01*
X130886237Y-90786237D01*
X130878469Y-90792612D01*
X130869611Y-90797347D01*
X130859999Y-90800263D01*
X130843860Y-90801852D01*
X130356139Y-90801852D01*
X130337802Y-90800046D01*
X130325550Y-90799444D01*
X130307131Y-90799444D01*
X130284851Y-90797250D01*
X130200764Y-90780524D01*
X130179345Y-90774026D01*
X130100129Y-90741215D01*
X130080393Y-90730665D01*
X130009103Y-90683031D01*
X129991792Y-90668824D01*
X129931176Y-90608208D01*
X129916969Y-90590897D01*
X129869335Y-90519607D01*
X129858785Y-90499871D01*
X129825974Y-90420655D01*
X129819476Y-90399236D01*
X129802750Y-90315149D01*
X129800556Y-90292869D01*
X129800556Y-90274450D01*
X129799954Y-90262198D01*
X129798148Y-90243861D01*
X129798148Y-89756140D01*
X129799954Y-89737802D01*
X129800556Y-89725550D01*
X129800556Y-89707131D01*
X129802750Y-89684851D01*
X129819476Y-89600764D01*
X129825974Y-89579345D01*
X129858785Y-89500129D01*
X129869335Y-89480393D01*
X129916969Y-89409103D01*
X129931176Y-89391792D01*
X129991792Y-89331176D01*
X130009103Y-89316969D01*
X130080393Y-89269335D01*
X130100129Y-89258785D01*
X130179345Y-89225974D01*
X130200764Y-89219476D01*
X130284851Y-89202750D01*
X130307131Y-89200556D01*
X130325550Y-89200556D01*
X130337802Y-89199954D01*
X130356140Y-89198148D01*
X130843860Y-89198148D01*
X130859999Y-89199737D01*
X130859999Y-89199737D01*
G37*
G36*
X127001000Y-90451000D02*
X126099000Y-90451000D01*
X126099000Y-89549000D01*
X127001000Y-89549000D01*
X127001000Y-90451000D01*
X127001000Y-90451000D01*
G37*
G36*
X125401000Y-90451000D02*
X124499000Y-90451000D01*
X124499000Y-89549000D01*
X125401000Y-89549000D01*
X125401000Y-90451000D01*
X125401000Y-90451000D01*
G37*
G36*
X121751000Y-90451000D02*
X120849000Y-90451000D01*
X120849000Y-89549000D01*
X121751000Y-89549000D01*
X121751000Y-90451000D01*
X121751000Y-90451000D01*
G37*
G36*
X120151000Y-90451000D02*
X119249000Y-90451000D01*
X119249000Y-89549000D01*
X120151000Y-89549000D01*
X120151000Y-90451000D01*
X120151000Y-90451000D01*
G37*
G36*
X125401000Y-88951000D02*
X124499000Y-88951000D01*
X124499000Y-88049000D01*
X125401000Y-88049000D01*
X125401000Y-88951000D01*
X125401000Y-88951000D01*
G37*
G36*
X127001000Y-88951000D02*
X126099000Y-88951000D01*
X126099000Y-88049000D01*
X127001000Y-88049000D01*
X127001000Y-88951000D01*
X127001000Y-88951000D01*
G37*
G36*
X130859999Y-86699737D02*
X130869611Y-86702653D01*
X130878469Y-86707388D01*
X130886237Y-86713763D01*
X130896446Y-86726202D01*
X130903372Y-86736568D01*
X130920698Y-86753895D01*
X130941073Y-86767510D01*
X130963711Y-86776888D01*
X130987745Y-86781669D01*
X131012249Y-86781669D01*
X131036283Y-86776889D01*
X131058922Y-86767513D01*
X131079297Y-86753899D01*
X131096624Y-86736573D01*
X131103552Y-86726204D01*
X131113763Y-86713763D01*
X131121531Y-86707388D01*
X131130389Y-86702653D01*
X131140001Y-86699737D01*
X131156140Y-86698148D01*
X131643860Y-86698148D01*
X131662198Y-86699954D01*
X131674450Y-86700556D01*
X131692869Y-86700556D01*
X131715149Y-86702750D01*
X131799236Y-86719476D01*
X131820655Y-86725974D01*
X131899871Y-86758785D01*
X131919607Y-86769335D01*
X131990897Y-86816969D01*
X132008208Y-86831176D01*
X132068824Y-86891792D01*
X132083031Y-86909103D01*
X132130665Y-86980393D01*
X132141215Y-87000129D01*
X132174026Y-87079345D01*
X132180524Y-87100764D01*
X132197250Y-87184851D01*
X132199444Y-87207131D01*
X132199444Y-87225550D01*
X132200046Y-87237802D01*
X132201852Y-87256140D01*
X132201852Y-87743861D01*
X132200046Y-87762198D01*
X132199444Y-87774450D01*
X132199444Y-87792869D01*
X132197250Y-87815149D01*
X132180524Y-87899236D01*
X132174026Y-87920655D01*
X132141215Y-87999871D01*
X132130665Y-88019607D01*
X132083031Y-88090897D01*
X132068824Y-88108208D01*
X132008208Y-88168824D01*
X131990897Y-88183031D01*
X131919607Y-88230665D01*
X131899871Y-88241215D01*
X131820655Y-88274026D01*
X131799236Y-88280524D01*
X131715149Y-88297250D01*
X131692869Y-88299444D01*
X131674450Y-88299444D01*
X131662198Y-88300046D01*
X131643861Y-88301852D01*
X131156140Y-88301852D01*
X131140001Y-88300263D01*
X131130389Y-88297347D01*
X131121531Y-88292612D01*
X131113763Y-88286237D01*
X131103554Y-88273798D01*
X131096628Y-88263432D01*
X131079302Y-88246105D01*
X131058927Y-88232490D01*
X131036289Y-88223112D01*
X131012255Y-88218331D01*
X130987751Y-88218331D01*
X130963717Y-88223111D01*
X130941078Y-88232487D01*
X130920703Y-88246101D01*
X130903376Y-88263427D01*
X130896448Y-88273796D01*
X130886237Y-88286237D01*
X130878469Y-88292612D01*
X130869611Y-88297347D01*
X130859999Y-88300263D01*
X130843860Y-88301852D01*
X130356139Y-88301852D01*
X130337802Y-88300046D01*
X130325550Y-88299444D01*
X130307131Y-88299444D01*
X130284851Y-88297250D01*
X130200764Y-88280524D01*
X130179345Y-88274026D01*
X130100129Y-88241215D01*
X130080393Y-88230665D01*
X130009103Y-88183031D01*
X129991792Y-88168824D01*
X129931176Y-88108208D01*
X129916969Y-88090897D01*
X129869335Y-88019607D01*
X129858785Y-87999871D01*
X129825974Y-87920655D01*
X129819476Y-87899236D01*
X129802750Y-87815149D01*
X129800556Y-87792869D01*
X129800556Y-87774450D01*
X129799954Y-87762198D01*
X129798148Y-87743861D01*
X129798148Y-87256140D01*
X129799954Y-87237802D01*
X129800556Y-87225550D01*
X129800556Y-87207131D01*
X129802750Y-87184851D01*
X129819476Y-87100764D01*
X129825974Y-87079345D01*
X129858785Y-87000129D01*
X129869335Y-86980393D01*
X129916969Y-86909103D01*
X129931176Y-86891792D01*
X129991792Y-86831176D01*
X130009103Y-86816969D01*
X130080393Y-86769335D01*
X130100129Y-86758785D01*
X130179345Y-86725974D01*
X130200764Y-86719476D01*
X130284851Y-86702750D01*
X130307131Y-86700556D01*
X130325550Y-86700556D01*
X130337802Y-86699954D01*
X130356140Y-86698148D01*
X130843860Y-86698148D01*
X130859999Y-86699737D01*
X130859999Y-86699737D01*
G37*
G36*
X139596000Y-86351000D02*
X138894000Y-86351000D01*
X138894000Y-84249000D01*
X139596000Y-84249000D01*
X139596000Y-86351000D01*
X139596000Y-86351000D01*
G37*
G36*
X151026000Y-86351000D02*
X150324000Y-86351000D01*
X150324000Y-84249000D01*
X151026000Y-84249000D01*
X151026000Y-86351000D01*
X151026000Y-86351000D01*
G37*
G36*
X149756000Y-86351000D02*
X149054000Y-86351000D01*
X149054000Y-84249000D01*
X149756000Y-84249000D01*
X149756000Y-86351000D01*
X149756000Y-86351000D01*
G37*
G36*
X148486000Y-86351000D02*
X147784000Y-86351000D01*
X147784000Y-84249000D01*
X148486000Y-84249000D01*
X148486000Y-86351000D01*
X148486000Y-86351000D01*
G37*
G36*
X147216000Y-86351000D02*
X146514000Y-86351000D01*
X146514000Y-84249000D01*
X147216000Y-84249000D01*
X147216000Y-86351000D01*
X147216000Y-86351000D01*
G37*
G36*
X145946000Y-86351000D02*
X145244000Y-86351000D01*
X145244000Y-84249000D01*
X145946000Y-84249000D01*
X145946000Y-86351000D01*
X145946000Y-86351000D01*
G37*
G36*
X144676000Y-86351000D02*
X143974000Y-86351000D01*
X143974000Y-84249000D01*
X144676000Y-84249000D01*
X144676000Y-86351000D01*
X144676000Y-86351000D01*
G37*
G36*
X143406000Y-86351000D02*
X142704000Y-86351000D01*
X142704000Y-84249000D01*
X143406000Y-84249000D01*
X143406000Y-86351000D01*
X143406000Y-86351000D01*
G37*
G36*
X142136000Y-86351000D02*
X141434000Y-86351000D01*
X141434000Y-84249000D01*
X142136000Y-84249000D01*
X142136000Y-86351000D01*
X142136000Y-86351000D01*
G37*
G36*
X140866000Y-86351000D02*
X140164000Y-86351000D01*
X140164000Y-84249000D01*
X140866000Y-84249000D01*
X140866000Y-86351000D01*
X140866000Y-86351000D01*
G37*
G36*
X153566000Y-86351000D02*
X152864000Y-86351000D01*
X152864000Y-84249000D01*
X153566000Y-84249000D01*
X153566000Y-86351000D01*
X153566000Y-86351000D01*
G37*
G36*
X154836000Y-86351000D02*
X154134000Y-86351000D01*
X154134000Y-84249000D01*
X154836000Y-84249000D01*
X154836000Y-86351000D01*
X154836000Y-86351000D01*
G37*
G36*
X156106000Y-86351000D02*
X155404000Y-86351000D01*
X155404000Y-84249000D01*
X156106000Y-84249000D01*
X156106000Y-86351000D01*
X156106000Y-86351000D01*
G37*
G36*
X152296000Y-86351000D02*
X151594000Y-86351000D01*
X151594000Y-84249000D01*
X152296000Y-84249000D01*
X152296000Y-86351000D01*
X152296000Y-86351000D01*
G37*
M02*
