G04 #@! TF.GenerationSoftware,KiCad,Pcbnew,(5.0.2)-1*
G04 #@! TF.CreationDate,2020-02-29T00:21:09+09:00*
G04 #@! TF.ProjectId,House,486f7573-652e-46b6-9963-61645f706362,rev?*
G04 #@! TF.SameCoordinates,Original*
G04 #@! TF.FileFunction,Paste,Top*
G04 #@! TF.FilePolarity,Positive*
%FSLAX46Y46*%
G04 Gerber Fmt 4.6, Leading zero omitted, Abs format (unit mm)*
G04 Created by KiCad (PCBNEW (5.0.2)-1) date 2020/02/29 0:21:09*
%MOMM*%
%LPD*%
G01*
G04 APERTURE LIST*
%ADD10R,0.800000X0.800000*%
%ADD11C,0.800000*%
%ADD12C,0.100000*%
G04 APERTURE END LIST*
D10*
G04 #@! TO.C,D13*
X172300000Y-98000000D03*
X170700000Y-98000000D03*
G04 #@! TD*
G04 #@! TO.C,D14*
X181700000Y-98000000D03*
X183300000Y-98000000D03*
G04 #@! TD*
G04 #@! TO.C,D15*
X182500000Y-88800000D03*
X182500000Y-87200000D03*
G04 #@! TD*
G04 #@! TO.C,D16*
X182500000Y-77200000D03*
X182500000Y-78800000D03*
G04 #@! TD*
G04 #@! TO.C,D17*
X113300000Y-68000000D03*
X111700000Y-68000000D03*
G04 #@! TD*
G04 #@! TO.C,D18*
X122700000Y-68000000D03*
X124300000Y-68000000D03*
G04 #@! TD*
G04 #@! TO.C,D19*
X136300000Y-68000000D03*
X134700000Y-68000000D03*
G04 #@! TD*
G04 #@! TO.C,D20*
X146700000Y-68000000D03*
X148300000Y-68000000D03*
G04 #@! TD*
G04 #@! TO.C,D21*
X160300000Y-68000000D03*
X158700000Y-68000000D03*
G04 #@! TD*
G04 #@! TO.C,D22*
X170700000Y-68000000D03*
X172300000Y-68000000D03*
G04 #@! TD*
G04 #@! TO.C,D23*
X183300000Y-68000000D03*
X181700000Y-68000000D03*
G04 #@! TD*
D11*
G04 #@! TO.C,D24*
X191358207Y-68215323D03*
D12*
G36*
X191894972Y-68393881D02*
X191179649Y-68752088D01*
X190821442Y-68036765D01*
X191536765Y-67678558D01*
X191894972Y-68393881D01*
X191894972Y-68393881D01*
G37*
D11*
X190641793Y-66784677D03*
D12*
G36*
X191178558Y-66963235D02*
X190463235Y-67321442D01*
X190105028Y-66606119D01*
X190820351Y-66247912D01*
X191178558Y-66963235D01*
X191178558Y-66963235D01*
G37*
G04 #@! TD*
D10*
G04 #@! TO.C,D25*
X136300000Y-98000000D03*
X134700000Y-98000000D03*
G04 #@! TD*
G04 #@! TO.C,D26*
X146700000Y-98000000D03*
X148300000Y-98000000D03*
G04 #@! TD*
G04 #@! TO.C,D27*
X158700000Y-98000000D03*
X160300000Y-98000000D03*
G04 #@! TD*
D11*
G04 #@! TO.C,D1*
X104358207Y-66784677D03*
D12*
G36*
X104179649Y-66247912D02*
X104894972Y-66606119D01*
X104536765Y-67321442D01*
X103821442Y-66963235D01*
X104179649Y-66247912D01*
X104179649Y-66247912D01*
G37*
D11*
X103641793Y-68215323D03*
D12*
G36*
X103463235Y-67678558D02*
X104178558Y-68036765D01*
X103820351Y-68752088D01*
X103105028Y-68393881D01*
X103463235Y-67678558D01*
X103463235Y-67678558D01*
G37*
G04 #@! TD*
D10*
G04 #@! TO.C,D2*
X111700000Y-52000000D03*
X113300000Y-52000000D03*
G04 #@! TD*
G04 #@! TO.C,D3*
X122700000Y-52000000D03*
X124300000Y-52000000D03*
G04 #@! TD*
G04 #@! TO.C,D4*
X134700000Y-52000000D03*
X136300000Y-52000000D03*
G04 #@! TD*
G04 #@! TO.C,D5*
X148300000Y-52000000D03*
X146700000Y-52000000D03*
G04 #@! TD*
G04 #@! TO.C,D6*
X160300000Y-52000000D03*
X158700000Y-52000000D03*
G04 #@! TD*
G04 #@! TO.C,D7*
X170700000Y-52000000D03*
X172300000Y-52000000D03*
G04 #@! TD*
G04 #@! TO.C,D8*
X181700000Y-52000000D03*
X183300000Y-52000000D03*
G04 #@! TD*
G04 #@! TO.C,D9*
X112500000Y-77200000D03*
X112500000Y-78800000D03*
G04 #@! TD*
G04 #@! TO.C,D10*
X112500000Y-87200000D03*
X112500000Y-88800000D03*
G04 #@! TD*
G04 #@! TO.C,D11*
X111700000Y-98000000D03*
X113300000Y-98000000D03*
G04 #@! TD*
G04 #@! TO.C,D12*
X122700000Y-98000000D03*
X124300000Y-98000000D03*
G04 #@! TD*
M02*
