G04 #@! TF.GenerationSoftware,KiCad,Pcbnew,(5.0.2)-1*
G04 #@! TF.CreationDate,2020-02-29T00:21:09+09:00*
G04 #@! TF.ProjectId,House,486f7573-652e-46b6-9963-61645f706362,rev?*
G04 #@! TF.SameCoordinates,Original*
G04 #@! TF.FileFunction,Soldermask,Top*
G04 #@! TF.FilePolarity,Negative*
%FSLAX46Y46*%
G04 Gerber Fmt 4.6, Leading zero omitted, Abs format (unit mm)*
G04 Created by KiCad (PCBNEW (5.0.2)-1) date 2020/02/29 0:21:09*
%MOMM*%
%LPD*%
G01*
G04 APERTURE LIST*
%ADD10C,0.150000*%
%ADD11C,0.100000*%
G04 APERTURE END LIST*
D10*
G36*
X140000000Y-100000000D02*
X155000000Y-100000000D01*
X155000000Y-110500000D01*
X140000000Y-110500000D01*
X140000000Y-100000000D01*
G37*
X140000000Y-100000000D02*
X155000000Y-100000000D01*
X155000000Y-110500000D01*
X140000000Y-110500000D01*
X140000000Y-100000000D01*
D11*
G36*
X153366000Y-110496000D02*
X151794000Y-110496000D01*
X151794000Y-101504000D01*
X153366000Y-101504000D01*
X153366000Y-110496000D01*
X153366000Y-110496000D01*
G37*
G36*
X148286000Y-110496000D02*
X146714000Y-110496000D01*
X146714000Y-101504000D01*
X148286000Y-101504000D01*
X148286000Y-110496000D01*
X148286000Y-110496000D01*
G37*
G36*
X145746000Y-110496000D02*
X144174000Y-110496000D01*
X144174000Y-101504000D01*
X145746000Y-101504000D01*
X145746000Y-110496000D01*
X145746000Y-110496000D01*
G37*
G36*
X143206000Y-110496000D02*
X141634000Y-110496000D01*
X141634000Y-101504000D01*
X143206000Y-101504000D01*
X143206000Y-110496000D01*
X143206000Y-110496000D01*
G37*
G36*
X150826000Y-110496000D02*
X149254000Y-110496000D01*
X149254000Y-101504000D01*
X150826000Y-101504000D01*
X150826000Y-110496000D01*
X150826000Y-110496000D01*
G37*
G36*
X124751000Y-98451000D02*
X123849000Y-98451000D01*
X123849000Y-97549000D01*
X124751000Y-97549000D01*
X124751000Y-98451000D01*
X124751000Y-98451000D01*
G37*
G36*
X123151000Y-98451000D02*
X122249000Y-98451000D01*
X122249000Y-97549000D01*
X123151000Y-97549000D01*
X123151000Y-98451000D01*
X123151000Y-98451000D01*
G37*
G36*
X113751000Y-98451000D02*
X112849000Y-98451000D01*
X112849000Y-97549000D01*
X113751000Y-97549000D01*
X113751000Y-98451000D01*
X113751000Y-98451000D01*
G37*
G36*
X112151000Y-98451000D02*
X111249000Y-98451000D01*
X111249000Y-97549000D01*
X112151000Y-97549000D01*
X112151000Y-98451000D01*
X112151000Y-98451000D01*
G37*
G36*
X160751000Y-98451000D02*
X159849000Y-98451000D01*
X159849000Y-97549000D01*
X160751000Y-97549000D01*
X160751000Y-98451000D01*
X160751000Y-98451000D01*
G37*
G36*
X159151000Y-98451000D02*
X158249000Y-98451000D01*
X158249000Y-97549000D01*
X159151000Y-97549000D01*
X159151000Y-98451000D01*
X159151000Y-98451000D01*
G37*
G36*
X148751000Y-98451000D02*
X147849000Y-98451000D01*
X147849000Y-97549000D01*
X148751000Y-97549000D01*
X148751000Y-98451000D01*
X148751000Y-98451000D01*
G37*
G36*
X135151000Y-98451000D02*
X134249000Y-98451000D01*
X134249000Y-97549000D01*
X135151000Y-97549000D01*
X135151000Y-98451000D01*
X135151000Y-98451000D01*
G37*
G36*
X136751000Y-98451000D02*
X135849000Y-98451000D01*
X135849000Y-97549000D01*
X136751000Y-97549000D01*
X136751000Y-98451000D01*
X136751000Y-98451000D01*
G37*
G36*
X182151000Y-98451000D02*
X181249000Y-98451000D01*
X181249000Y-97549000D01*
X182151000Y-97549000D01*
X182151000Y-98451000D01*
X182151000Y-98451000D01*
G37*
G36*
X171151000Y-98451000D02*
X170249000Y-98451000D01*
X170249000Y-97549000D01*
X171151000Y-97549000D01*
X171151000Y-98451000D01*
X171151000Y-98451000D01*
G37*
G36*
X183751000Y-98451000D02*
X182849000Y-98451000D01*
X182849000Y-97549000D01*
X183751000Y-97549000D01*
X183751000Y-98451000D01*
X183751000Y-98451000D01*
G37*
G36*
X172751000Y-98451000D02*
X171849000Y-98451000D01*
X171849000Y-97549000D01*
X172751000Y-97549000D01*
X172751000Y-98451000D01*
X172751000Y-98451000D01*
G37*
G36*
X147151000Y-98451000D02*
X146249000Y-98451000D01*
X146249000Y-97549000D01*
X147151000Y-97549000D01*
X147151000Y-98451000D01*
X147151000Y-98451000D01*
G37*
G36*
X112951000Y-89251000D02*
X112049000Y-89251000D01*
X112049000Y-88349000D01*
X112951000Y-88349000D01*
X112951000Y-89251000D01*
X112951000Y-89251000D01*
G37*
G36*
X182951000Y-89251000D02*
X182049000Y-89251000D01*
X182049000Y-88349000D01*
X182951000Y-88349000D01*
X182951000Y-89251000D01*
X182951000Y-89251000D01*
G37*
G36*
X182951000Y-87651000D02*
X182049000Y-87651000D01*
X182049000Y-86749000D01*
X182951000Y-86749000D01*
X182951000Y-87651000D01*
X182951000Y-87651000D01*
G37*
G36*
X112951000Y-87651000D02*
X112049000Y-87651000D01*
X112049000Y-86749000D01*
X112951000Y-86749000D01*
X112951000Y-87651000D01*
X112951000Y-87651000D01*
G37*
G36*
X112951000Y-79251000D02*
X112049000Y-79251000D01*
X112049000Y-78349000D01*
X112951000Y-78349000D01*
X112951000Y-79251000D01*
X112951000Y-79251000D01*
G37*
G36*
X182951000Y-79251000D02*
X182049000Y-79251000D01*
X182049000Y-78349000D01*
X182951000Y-78349000D01*
X182951000Y-79251000D01*
X182951000Y-79251000D01*
G37*
G36*
X112951000Y-77651000D02*
X112049000Y-77651000D01*
X112049000Y-76749000D01*
X112951000Y-76749000D01*
X112951000Y-77651000D01*
X112951000Y-77651000D01*
G37*
G36*
X182951000Y-77651000D02*
X182049000Y-77651000D01*
X182049000Y-76749000D01*
X182951000Y-76749000D01*
X182951000Y-77651000D01*
X182951000Y-77651000D01*
G37*
G36*
X191761778Y-68013998D02*
X191963410Y-68416647D01*
X191963410Y-68416648D01*
X191425998Y-68685763D01*
X191156883Y-68820526D01*
X191156882Y-68820526D01*
X190887767Y-68283114D01*
X190753004Y-68013999D01*
X190753004Y-68013998D01*
X191290416Y-67744883D01*
X191559531Y-67610120D01*
X191559532Y-67610120D01*
X191761778Y-68013998D01*
X191761778Y-68013998D01*
G37*
G36*
X103709584Y-67744883D02*
X104246996Y-68013998D01*
X104246996Y-68013999D01*
X104112233Y-68283114D01*
X103843118Y-68820526D01*
X103843117Y-68820526D01*
X103574002Y-68685763D01*
X103036590Y-68416648D01*
X103036590Y-68416647D01*
X103238222Y-68013998D01*
X103440468Y-67610120D01*
X103440469Y-67610120D01*
X103709584Y-67744883D01*
X103709584Y-67744883D01*
G37*
G36*
X112151000Y-68451000D02*
X111249000Y-68451000D01*
X111249000Y-67549000D01*
X112151000Y-67549000D01*
X112151000Y-68451000D01*
X112151000Y-68451000D01*
G37*
G36*
X147151000Y-68451000D02*
X146249000Y-68451000D01*
X146249000Y-67549000D01*
X147151000Y-67549000D01*
X147151000Y-68451000D01*
X147151000Y-68451000D01*
G37*
G36*
X148751000Y-68451000D02*
X147849000Y-68451000D01*
X147849000Y-67549000D01*
X148751000Y-67549000D01*
X148751000Y-68451000D01*
X148751000Y-68451000D01*
G37*
G36*
X160751000Y-68451000D02*
X159849000Y-68451000D01*
X159849000Y-67549000D01*
X160751000Y-67549000D01*
X160751000Y-68451000D01*
X160751000Y-68451000D01*
G37*
G36*
X159151000Y-68451000D02*
X158249000Y-68451000D01*
X158249000Y-67549000D01*
X159151000Y-67549000D01*
X159151000Y-68451000D01*
X159151000Y-68451000D01*
G37*
G36*
X171151000Y-68451000D02*
X170249000Y-68451000D01*
X170249000Y-67549000D01*
X171151000Y-67549000D01*
X171151000Y-68451000D01*
X171151000Y-68451000D01*
G37*
G36*
X172751000Y-68451000D02*
X171849000Y-68451000D01*
X171849000Y-67549000D01*
X172751000Y-67549000D01*
X172751000Y-68451000D01*
X172751000Y-68451000D01*
G37*
G36*
X182151000Y-68451000D02*
X181249000Y-68451000D01*
X181249000Y-67549000D01*
X182151000Y-67549000D01*
X182151000Y-68451000D01*
X182151000Y-68451000D01*
G37*
G36*
X136751000Y-68451000D02*
X135849000Y-68451000D01*
X135849000Y-67549000D01*
X136751000Y-67549000D01*
X136751000Y-68451000D01*
X136751000Y-68451000D01*
G37*
G36*
X135151000Y-68451000D02*
X134249000Y-68451000D01*
X134249000Y-67549000D01*
X135151000Y-67549000D01*
X135151000Y-68451000D01*
X135151000Y-68451000D01*
G37*
G36*
X124751000Y-68451000D02*
X123849000Y-68451000D01*
X123849000Y-67549000D01*
X124751000Y-67549000D01*
X124751000Y-68451000D01*
X124751000Y-68451000D01*
G37*
G36*
X123151000Y-68451000D02*
X122249000Y-68451000D01*
X122249000Y-67549000D01*
X123151000Y-67549000D01*
X123151000Y-68451000D01*
X123151000Y-68451000D01*
G37*
G36*
X113751000Y-68451000D02*
X112849000Y-68451000D01*
X112849000Y-67549000D01*
X113751000Y-67549000D01*
X113751000Y-68451000D01*
X113751000Y-68451000D01*
G37*
G36*
X183751000Y-68451000D02*
X182849000Y-68451000D01*
X182849000Y-67549000D01*
X183751000Y-67549000D01*
X183751000Y-68451000D01*
X183751000Y-68451000D01*
G37*
G36*
X104425998Y-66314237D02*
X104963410Y-66583352D01*
X104963410Y-66583353D01*
X104828647Y-66852468D01*
X104559532Y-67389880D01*
X104559531Y-67389880D01*
X104290416Y-67255117D01*
X103753004Y-66986002D01*
X103753004Y-66986001D01*
X103954636Y-66583352D01*
X104156882Y-66179474D01*
X104156883Y-66179474D01*
X104425998Y-66314237D01*
X104425998Y-66314237D01*
G37*
G36*
X191045364Y-66583352D02*
X191246996Y-66986001D01*
X191246996Y-66986002D01*
X190709584Y-67255117D01*
X190440469Y-67389880D01*
X190440468Y-67389880D01*
X190171353Y-66852468D01*
X190036590Y-66583353D01*
X190036590Y-66583352D01*
X190574002Y-66314237D01*
X190843117Y-66179474D01*
X190843118Y-66179474D01*
X191045364Y-66583352D01*
X191045364Y-66583352D01*
G37*
G36*
X183751000Y-52451000D02*
X182849000Y-52451000D01*
X182849000Y-51549000D01*
X183751000Y-51549000D01*
X183751000Y-52451000D01*
X183751000Y-52451000D01*
G37*
G36*
X182151000Y-52451000D02*
X181249000Y-52451000D01*
X181249000Y-51549000D01*
X182151000Y-51549000D01*
X182151000Y-52451000D01*
X182151000Y-52451000D01*
G37*
G36*
X172751000Y-52451000D02*
X171849000Y-52451000D01*
X171849000Y-51549000D01*
X172751000Y-51549000D01*
X172751000Y-52451000D01*
X172751000Y-52451000D01*
G37*
G36*
X171151000Y-52451000D02*
X170249000Y-52451000D01*
X170249000Y-51549000D01*
X171151000Y-51549000D01*
X171151000Y-52451000D01*
X171151000Y-52451000D01*
G37*
G36*
X160751000Y-52451000D02*
X159849000Y-52451000D01*
X159849000Y-51549000D01*
X160751000Y-51549000D01*
X160751000Y-52451000D01*
X160751000Y-52451000D01*
G37*
G36*
X159151000Y-52451000D02*
X158249000Y-52451000D01*
X158249000Y-51549000D01*
X159151000Y-51549000D01*
X159151000Y-52451000D01*
X159151000Y-52451000D01*
G37*
G36*
X148751000Y-52451000D02*
X147849000Y-52451000D01*
X147849000Y-51549000D01*
X148751000Y-51549000D01*
X148751000Y-52451000D01*
X148751000Y-52451000D01*
G37*
G36*
X147151000Y-52451000D02*
X146249000Y-52451000D01*
X146249000Y-51549000D01*
X147151000Y-51549000D01*
X147151000Y-52451000D01*
X147151000Y-52451000D01*
G37*
G36*
X136751000Y-52451000D02*
X135849000Y-52451000D01*
X135849000Y-51549000D01*
X136751000Y-51549000D01*
X136751000Y-52451000D01*
X136751000Y-52451000D01*
G37*
G36*
X135151000Y-52451000D02*
X134249000Y-52451000D01*
X134249000Y-51549000D01*
X135151000Y-51549000D01*
X135151000Y-52451000D01*
X135151000Y-52451000D01*
G37*
G36*
X124751000Y-52451000D02*
X123849000Y-52451000D01*
X123849000Y-51549000D01*
X124751000Y-51549000D01*
X124751000Y-52451000D01*
X124751000Y-52451000D01*
G37*
G36*
X123151000Y-52451000D02*
X122249000Y-52451000D01*
X122249000Y-51549000D01*
X123151000Y-51549000D01*
X123151000Y-52451000D01*
X123151000Y-52451000D01*
G37*
G36*
X113751000Y-52451000D02*
X112849000Y-52451000D01*
X112849000Y-51549000D01*
X113751000Y-51549000D01*
X113751000Y-52451000D01*
X113751000Y-52451000D01*
G37*
G36*
X112151000Y-52451000D02*
X111249000Y-52451000D01*
X111249000Y-51549000D01*
X112151000Y-51549000D01*
X112151000Y-52451000D01*
X112151000Y-52451000D01*
G37*
M02*
