G04 #@! TF.GenerationSoftware,KiCad,Pcbnew,(5.0.2)-1*
G04 #@! TF.CreationDate,2020-02-29T00:21:09+09:00*
G04 #@! TF.ProjectId,House,486f7573-652e-46b6-9963-61645f706362,rev?*
G04 #@! TF.SameCoordinates,Original*
G04 #@! TF.FileFunction,Profile,NP*
%FSLAX46Y46*%
G04 Gerber Fmt 4.6, Leading zero omitted, Abs format (unit mm)*
G04 Created by KiCad (PCBNEW (5.0.2)-1) date 2020/02/29 0:21:09*
%MOMM*%
%LPD*%
G01*
G04 APERTURE LIST*
%ADD10C,0.150000*%
%ADD11C,0.200000*%
G04 APERTURE END LIST*
D10*
X155000000Y-100000000D02*
X185000000Y-100000000D01*
X152500000Y-80000000D02*
X142500000Y-80000000D01*
X152500000Y-70000000D02*
X152500000Y-80000000D01*
X142500000Y-70000000D02*
X152500000Y-70000000D01*
X142500000Y-80000000D02*
X142500000Y-70000000D01*
X160000000Y-70000000D02*
X170000000Y-70000000D01*
X160000000Y-80000000D02*
X160000000Y-70000000D01*
X170000000Y-80000000D02*
X160000000Y-80000000D01*
X170000000Y-70000000D02*
X170000000Y-80000000D01*
X125000000Y-80000000D02*
X125000000Y-70000000D01*
X135000000Y-80000000D02*
X125000000Y-80000000D01*
X135000000Y-70000000D02*
X135000000Y-80000000D01*
X125000000Y-70000000D02*
X135000000Y-70000000D01*
X100000000Y-70000000D02*
X110000000Y-50000000D01*
X110000000Y-70000000D02*
X100000000Y-70000000D01*
X110000000Y-100000000D02*
X110000000Y-70000000D01*
X185000000Y-50000000D02*
X110000000Y-50000000D01*
X185000000Y-50000000D02*
X195000000Y-70000000D01*
X185000000Y-70000000D02*
X195000000Y-70000000D01*
X185000000Y-100000000D02*
X185000000Y-70000000D01*
X110000000Y-100000000D02*
X140000000Y-100000000D01*
D11*
X154000000Y-110500000D02*
X155000000Y-109500000D01*
X141000000Y-110500000D02*
X140000000Y-109500000D01*
D10*
X140000000Y-100000000D02*
X140000000Y-109500000D01*
X155000000Y-100000000D02*
X155000000Y-109500000D01*
X141000000Y-110500000D02*
X154000000Y-110500000D01*
M02*
