G04 #@! TF.GenerationSoftware,KiCad,Pcbnew,(5.0.2)-1*
G04 #@! TF.CreationDate,2020-05-05T14:41:23+09:00*
G04 #@! TF.ProjectId,Ground,47726f75-6e64-42e6-9b69-6361645f7063,rev?*
G04 #@! TF.SameCoordinates,Original*
G04 #@! TF.FileFunction,Paste,Top*
G04 #@! TF.FilePolarity,Positive*
%FSLAX46Y46*%
G04 Gerber Fmt 4.6, Leading zero omitted, Abs format (unit mm)*
G04 Created by KiCad (PCBNEW (5.0.2)-1) date 2020/05/05 14:41:23*
%MOMM*%
%LPD*%
G01*
G04 APERTURE LIST*
%ADD10R,1.200000X0.900000*%
%ADD11R,0.800000X0.800000*%
%ADD12R,1.200000X0.600000*%
%ADD13R,0.600000X1.200000*%
%ADD14R,2.200000X1.200000*%
%ADD15R,3.050000X2.750000*%
%ADD16R,0.900000X1.200000*%
G04 APERTURE END LIST*
D10*
G04 #@! TO.C,D2*
X118500000Y-83150000D03*
X118500000Y-79850000D03*
G04 #@! TD*
D11*
G04 #@! TO.C,C2*
X114200000Y-87000000D03*
X115800000Y-87000000D03*
G04 #@! TD*
G04 #@! TO.C,C3*
X146500000Y-83700000D03*
X146500000Y-85300000D03*
G04 #@! TD*
G04 #@! TO.C,C4*
X146500000Y-79700000D03*
X146500000Y-81300000D03*
G04 #@! TD*
G04 #@! TO.C,C5*
X114200000Y-76000000D03*
X115800000Y-76000000D03*
G04 #@! TD*
G04 #@! TO.C,C6*
X132700000Y-89000000D03*
X134300000Y-89000000D03*
G04 #@! TD*
G04 #@! TO.C,C7*
X125800000Y-76000000D03*
X124200000Y-76000000D03*
G04 #@! TD*
G04 #@! TO.C,C8*
X136000000Y-77550000D03*
X136000000Y-75950000D03*
G04 #@! TD*
G04 #@! TO.C,D3*
X120800000Y-76000000D03*
X119200000Y-76000000D03*
G04 #@! TD*
G04 #@! TO.C,R1*
X147300000Y-76000000D03*
X145700000Y-76000000D03*
G04 #@! TD*
G04 #@! TO.C,R2*
X122500000Y-80700000D03*
X122500000Y-82300000D03*
G04 #@! TD*
G04 #@! TO.C,R3*
X117600000Y-93300000D03*
X117600000Y-91700000D03*
G04 #@! TD*
G04 #@! TO.C,R4*
X119400000Y-91700000D03*
X119400000Y-93300000D03*
G04 #@! TD*
D12*
G04 #@! TO.C,U1*
X134250000Y-85300000D03*
X134250000Y-84500000D03*
X134250000Y-83700000D03*
X134250000Y-82900000D03*
X134250000Y-82100000D03*
X134250000Y-81300000D03*
X134250000Y-80500000D03*
X134250000Y-79700000D03*
D13*
X132800000Y-78250000D03*
X132000000Y-78250000D03*
X131200000Y-78250000D03*
X130400000Y-78250000D03*
X129600000Y-78250000D03*
X128800000Y-78250000D03*
X128000000Y-78250000D03*
X127200000Y-78250000D03*
D12*
X125750000Y-79700000D03*
X125750000Y-80500000D03*
X125750000Y-81300000D03*
X125750000Y-82100000D03*
X125750000Y-82900000D03*
X125750000Y-83700000D03*
X125750000Y-84500000D03*
X125750000Y-85300000D03*
D13*
X127200000Y-86750000D03*
X128000000Y-86750000D03*
X128800000Y-86750000D03*
X129600000Y-86750000D03*
X130400000Y-86750000D03*
X131200000Y-86750000D03*
X132000000Y-86750000D03*
X132800000Y-86750000D03*
G04 #@! TD*
D14*
G04 #@! TO.C,U2*
X115200000Y-83780000D03*
X115200000Y-79220000D03*
D15*
X107225000Y-79975000D03*
X110575000Y-83025000D03*
X107225000Y-83025000D03*
X110575000Y-79975000D03*
G04 #@! TD*
D16*
G04 #@! TO.C,D1*
X115750000Y-102350000D03*
X112450000Y-102350000D03*
G04 #@! TD*
M02*
