M48
;DRILL file {KiCad (5.0.2)-1} date 2020/05/05 14:41:20
;FORMAT={-:-/ absolute / metric / decimal}
FMAT,2
METRIC,TZ
T1C0.400
T2C0.762
T3C0.798
T4C0.800
T5C1.000
T6C1.100
T7C3.200
%
G90
G05
T1
X95.Y-95.
X95.Y-105.
X95.Y-115.
X102.Y-87.
X103.5Y-87.
X105.Y-75.
X105.Y-85.
X105.Y-95.
X105.Y-115.
X105.Y-125.
X105.Y-135.
X114.Y-95.
X115.Y-65.
X115.Y-115.
X115.Y-125.
X115.Y-135.
X115.Y-145.
X115.25Y-81.5
X117.5Y-76.
X117.6Y-96.5
X118.5Y-81.5
X118.5Y-90.5
X119.4Y-97.5
X123.5Y-88.1
X123.5Y-89.1
X123.5Y-90.25
X124.Y-82.5
X124.2Y-84.475
X124.225Y-85.487
X124.5Y-80.55
X124.9Y-111.5
X125.Y-65.
X125.Y-75.
X125.Y-98.5
X125.Y-115.
X125.Y-125.
X125.Y-135.
X126.25Y-95.5
X126.25Y-99.5
X126.3Y-114.5
X126.475Y-88.
X126.5Y-89.
X126.5Y-90.25
X127.25Y-84.5
X127.5Y-97.5
X127.5Y-112.5
X128.123Y-85.5
X128.15Y-81.
X128.151Y-82.25
X128.775Y-90.325
X128.8Y-114.4
X129.Y-79.75
X129.5Y-89.
X129.513Y-87.987
X130.Y-79.75
X130.Y-96.5
X130.Y-113.5
X130.Y-145.
X130.25Y-85.5
X131.25Y-77.
X131.25Y-85.5
X132.25Y-77.
X132.25Y-85.5
X133.25Y-77.
X134.25Y-86.75
X135.Y-65.
X135.Y-115.
X135.Y-125.
X135.Y-135.
X135.5Y-82.975
X140.5Y-90.
X143.25Y-90.
X145.Y-65.
X145.Y-75.
X145.Y-95.
X145.Y-115.
X145.Y-125.
X145.Y-135.
X145.Y-145.
X146.Y-90.
X146.Y-100.
X155.Y-75.
X155.Y-85.
X155.Y-95.
X155.Y-115.
X155.Y-125.
X155.Y-135.
X156.5Y-123.
X158.Y-123.
X165.Y-95.
X165.Y-105.
X165.Y-115.
T2
X124.92Y-102.46
X124.92Y-107.54
X127.46Y-102.46
X127.46Y-107.54
X130.Y-102.46
X130.Y-107.54
X132.54Y-102.46
X132.54Y-107.54
X135.08Y-102.46
X135.08Y-107.54
T3
X98.221Y-119.877
X99.222Y-121.611
X100.22Y-123.339
X101.221Y-125.073
X158.754Y-125.073
X159.755Y-123.339
X160.753Y-121.611
X161.753Y-119.877
X158.754Y-84.927
X159.755Y-86.661
X160.753Y-88.389
X161.754Y-90.123
X127.Y-70.05
X129.002Y-70.05
X130.998Y-70.05
X133.Y-70.05
X98.222Y-90.123
X99.222Y-88.389
X100.22Y-86.661
X101.221Y-84.927
T4
X142.Y-80.12
X142.Y-85.
X117.Y-67.5
X119.5Y-67.5
T5
X140.5Y-72.5
X143.04Y-72.5
X142.3Y-105.
X144.84Y-105.
X147.38Y-105.
X149.92Y-105.
X152.46Y-105.
X155.Y-105.
X125.Y-92.5
X127.54Y-92.5
X130.08Y-92.5
X132.62Y-92.5
X135.16Y-92.5
X104.8Y-105.
X107.34Y-105.
X109.88Y-105.
X112.42Y-105.
X114.96Y-105.
X117.5Y-105.
T6
X135.Y-139.5
X135.Y-144.
X141.5Y-139.5
X141.5Y-144.
X118.5Y-139.5
X118.5Y-144.
X125.Y-139.5
X125.Y-144.
T7
X108.Y-67.
X86.Y-105.
X174.Y-105.
X152.Y-67.
X108.Y-143.
X152.Y-143.
T0
M30
