G04 #@! TF.GenerationSoftware,KiCad,Pcbnew,(5.0.2)-1*
G04 #@! TF.CreationDate,2020-05-05T14:41:23+09:00*
G04 #@! TF.ProjectId,Ground,47726f75-6e64-42e6-9b69-6361645f7063,rev?*
G04 #@! TF.SameCoordinates,Original*
G04 #@! TF.FileFunction,Legend,Bot*
G04 #@! TF.FilePolarity,Positive*
%FSLAX46Y46*%
G04 Gerber Fmt 4.6, Leading zero omitted, Abs format (unit mm)*
G04 Created by KiCad (PCBNEW (5.0.2)-1) date 2020/05/05 14:41:23*
%MOMM*%
%LPD*%
G01*
G04 APERTURE LIST*
%ADD10C,0.200000*%
%ADD11C,0.120000*%
G04 APERTURE END LIST*
D10*
X133100000Y-94425000D02*
X132100000Y-95425000D01*
X132100000Y-94425000D02*
X133100000Y-95425000D01*
X127827380Y-95565476D02*
X127827380Y-94315476D01*
X127529761Y-94315476D01*
X127351190Y-94375000D01*
X127232142Y-94494047D01*
X127172619Y-94613095D01*
X127113095Y-94851190D01*
X127113095Y-95029761D01*
X127172619Y-95267857D01*
X127232142Y-95386904D01*
X127351190Y-95505952D01*
X127529761Y-95565476D01*
X127827380Y-95565476D01*
X130357142Y-95505952D02*
X130178571Y-95565476D01*
X129880952Y-95565476D01*
X129761904Y-95505952D01*
X129702380Y-95446428D01*
X129642857Y-95327380D01*
X129642857Y-95208333D01*
X129702380Y-95089285D01*
X129761904Y-95029761D01*
X129880952Y-94970238D01*
X130119047Y-94910714D01*
X130238095Y-94851190D01*
X130297619Y-94791666D01*
X130357142Y-94672619D01*
X130357142Y-94553571D01*
X130297619Y-94434523D01*
X130238095Y-94375000D01*
X130119047Y-94315476D01*
X129821428Y-94315476D01*
X129642857Y-94375000D01*
X124702380Y-94315476D02*
X125297619Y-94315476D01*
X125357142Y-94910714D01*
X125297619Y-94851190D01*
X125178571Y-94791666D01*
X124880952Y-94791666D01*
X124761904Y-94851190D01*
X124702380Y-94910714D01*
X124642857Y-95029761D01*
X124642857Y-95327380D01*
X124702380Y-95446428D01*
X124761904Y-95505952D01*
X124880952Y-95565476D01*
X125178571Y-95565476D01*
X125297619Y-95505952D01*
X125357142Y-95446428D01*
X134922619Y-94375000D02*
X135041666Y-94315476D01*
X135220238Y-94315476D01*
X135398809Y-94375000D01*
X135517857Y-94494047D01*
X135577380Y-94613095D01*
X135636904Y-94851190D01*
X135636904Y-95029761D01*
X135577380Y-95267857D01*
X135517857Y-95386904D01*
X135398809Y-95505952D01*
X135220238Y-95565476D01*
X135101190Y-95565476D01*
X134922619Y-95505952D01*
X134863095Y-95446428D01*
X134863095Y-95029761D01*
X135101190Y-95029761D01*
X132672619Y-71375000D02*
X132791666Y-71315476D01*
X132970238Y-71315476D01*
X133148809Y-71375000D01*
X133267857Y-71494047D01*
X133327380Y-71613095D01*
X133386904Y-71851190D01*
X133386904Y-72029761D01*
X133327380Y-72267857D01*
X133267857Y-72386904D01*
X133148809Y-72505952D01*
X132970238Y-72565476D01*
X132851190Y-72565476D01*
X132672619Y-72505952D01*
X132613095Y-72446428D01*
X132613095Y-72029761D01*
X132851190Y-72029761D01*
X130702380Y-71315476D02*
X131297619Y-71315476D01*
X131357142Y-71910714D01*
X131297619Y-71851190D01*
X131178571Y-71791666D01*
X130880952Y-71791666D01*
X130761904Y-71851190D01*
X130702380Y-71910714D01*
X130642857Y-72029761D01*
X130642857Y-72327380D01*
X130702380Y-72446428D01*
X130761904Y-72505952D01*
X130880952Y-72565476D01*
X131178571Y-72565476D01*
X131297619Y-72505952D01*
X131357142Y-72446428D01*
X129327380Y-72565476D02*
X129327380Y-71315476D01*
X129029761Y-71315476D01*
X128851190Y-71375000D01*
X128732142Y-71494047D01*
X128672619Y-71613095D01*
X128613095Y-71851190D01*
X128613095Y-72029761D01*
X128672619Y-72267857D01*
X128732142Y-72386904D01*
X128851190Y-72505952D01*
X129029761Y-72565476D01*
X129327380Y-72565476D01*
X127357142Y-72505952D02*
X127178571Y-72565476D01*
X126880952Y-72565476D01*
X126761904Y-72505952D01*
X126702380Y-72446428D01*
X126642857Y-72327380D01*
X126642857Y-72208333D01*
X126702380Y-72089285D01*
X126761904Y-72029761D01*
X126880952Y-71970238D01*
X127119047Y-71910714D01*
X127238095Y-71851190D01*
X127297619Y-71791666D01*
X127357142Y-71672619D01*
X127357142Y-71553571D01*
X127297619Y-71434523D01*
X127238095Y-71375000D01*
X127119047Y-71315476D01*
X126821428Y-71315476D01*
X126642857Y-71375000D01*
X110684523Y-110403809D02*
X110684523Y-109689523D01*
X109434523Y-110046666D02*
X110684523Y-110046666D01*
X110684523Y-109391904D02*
X109434523Y-108558571D01*
X110684523Y-108558571D02*
X109434523Y-109391904D01*
X109434523Y-108082380D02*
X110684523Y-108082380D01*
X110684523Y-107784761D01*
X110625000Y-107606190D01*
X110505952Y-107487142D01*
X110386904Y-107427619D01*
X110148809Y-107368095D01*
X109970238Y-107368095D01*
X109732142Y-107427619D01*
X109613095Y-107487142D01*
X109494047Y-107606190D01*
X109434523Y-107784761D01*
X109434523Y-108082380D01*
X151994047Y-113022857D02*
X151934523Y-112844285D01*
X151934523Y-112546666D01*
X151994047Y-112427619D01*
X152053571Y-112368095D01*
X152172619Y-112308571D01*
X152291666Y-112308571D01*
X152410714Y-112368095D01*
X152470238Y-112427619D01*
X152529761Y-112546666D01*
X152589285Y-112784761D01*
X152648809Y-112903809D01*
X152708333Y-112963333D01*
X152827380Y-113022857D01*
X152946428Y-113022857D01*
X153065476Y-112963333D01*
X153125000Y-112903809D01*
X153184523Y-112784761D01*
X153184523Y-112487142D01*
X153125000Y-112308571D01*
X153184523Y-111891904D02*
X151934523Y-111594285D01*
X152827380Y-111356190D01*
X151934523Y-111118095D01*
X153184523Y-110820476D01*
X152053571Y-109630000D02*
X151994047Y-109689523D01*
X151934523Y-109868095D01*
X151934523Y-109987142D01*
X151994047Y-110165714D01*
X152113095Y-110284761D01*
X152232142Y-110344285D01*
X152470238Y-110403809D01*
X152648809Y-110403809D01*
X152886904Y-110344285D01*
X153005952Y-110284761D01*
X153125000Y-110165714D01*
X153184523Y-109987142D01*
X153184523Y-109868095D01*
X153125000Y-109689523D01*
X153065476Y-109630000D01*
X151934523Y-108499047D02*
X151934523Y-109094285D01*
X153184523Y-109094285D01*
X151934523Y-108082380D02*
X153184523Y-108082380D01*
X151934523Y-107368095D02*
X152648809Y-107903809D01*
X153184523Y-107368095D02*
X152470238Y-108082380D01*
X141994047Y-110820476D02*
X141934523Y-110641904D01*
X141934523Y-110344285D01*
X141994047Y-110225238D01*
X142053571Y-110165714D01*
X142172619Y-110106190D01*
X142291666Y-110106190D01*
X142410714Y-110165714D01*
X142470238Y-110225238D01*
X142529761Y-110344285D01*
X142589285Y-110582380D01*
X142648809Y-110701428D01*
X142708333Y-110760952D01*
X142827380Y-110820476D01*
X142946428Y-110820476D01*
X143065476Y-110760952D01*
X143125000Y-110701428D01*
X143184523Y-110582380D01*
X143184523Y-110284761D01*
X143125000Y-110106190D01*
X143184523Y-109689523D02*
X141934523Y-109391904D01*
X142827380Y-109153809D01*
X141934523Y-108915714D01*
X143184523Y-108618095D01*
X143184523Y-107903809D02*
X143184523Y-107665714D01*
X143125000Y-107546666D01*
X143005952Y-107427619D01*
X142767857Y-107368095D01*
X142351190Y-107368095D01*
X142113095Y-107427619D01*
X141994047Y-107546666D01*
X141934523Y-107665714D01*
X141934523Y-107903809D01*
X141994047Y-108022857D01*
X142113095Y-108141904D01*
X142351190Y-108201428D01*
X142767857Y-108201428D01*
X143005952Y-108141904D01*
X143125000Y-108022857D01*
X143184523Y-107903809D01*
X144434523Y-111534761D02*
X145684523Y-111534761D01*
X144434523Y-110820476D01*
X145684523Y-110820476D01*
X144434523Y-109510952D02*
X145029761Y-109927619D01*
X144434523Y-110225238D02*
X145684523Y-110225238D01*
X145684523Y-109749047D01*
X145625000Y-109630000D01*
X145565476Y-109570476D01*
X145446428Y-109510952D01*
X145267857Y-109510952D01*
X145148809Y-109570476D01*
X145089285Y-109630000D01*
X145029761Y-109749047D01*
X145029761Y-110225238D01*
X144494047Y-109034761D02*
X144434523Y-108856190D01*
X144434523Y-108558571D01*
X144494047Y-108439523D01*
X144553571Y-108380000D01*
X144672619Y-108320476D01*
X144791666Y-108320476D01*
X144910714Y-108380000D01*
X144970238Y-108439523D01*
X145029761Y-108558571D01*
X145089285Y-108796666D01*
X145148809Y-108915714D01*
X145208333Y-108975238D01*
X145327380Y-109034761D01*
X145446428Y-109034761D01*
X145565476Y-108975238D01*
X145625000Y-108915714D01*
X145684523Y-108796666D01*
X145684523Y-108499047D01*
X145625000Y-108320476D01*
X145684523Y-107963333D02*
X145684523Y-107249047D01*
X144434523Y-107606190D02*
X145684523Y-107606190D01*
X146994047Y-112665714D02*
X146934523Y-112487142D01*
X146934523Y-112189523D01*
X146994047Y-112070476D01*
X147053571Y-112010952D01*
X147172619Y-111951428D01*
X147291666Y-111951428D01*
X147410714Y-112010952D01*
X147470238Y-112070476D01*
X147529761Y-112189523D01*
X147589285Y-112427619D01*
X147648809Y-112546666D01*
X147708333Y-112606190D01*
X147827380Y-112665714D01*
X147946428Y-112665714D01*
X148065476Y-112606190D01*
X148125000Y-112546666D01*
X148184523Y-112427619D01*
X148184523Y-112130000D01*
X148125000Y-111951428D01*
X148184523Y-111534761D02*
X146934523Y-111237142D01*
X147827380Y-110999047D01*
X146934523Y-110760952D01*
X148184523Y-110463333D01*
X146934523Y-109987142D02*
X148184523Y-109987142D01*
X148184523Y-109689523D01*
X148125000Y-109510952D01*
X148005952Y-109391904D01*
X147886904Y-109332380D01*
X147648809Y-109272857D01*
X147470238Y-109272857D01*
X147232142Y-109332380D01*
X147113095Y-109391904D01*
X146994047Y-109510952D01*
X146934523Y-109689523D01*
X146934523Y-109987142D01*
X146934523Y-108737142D02*
X148184523Y-108737142D01*
X148184523Y-107903809D02*
X148184523Y-107665714D01*
X148125000Y-107546666D01*
X148005952Y-107427619D01*
X147767857Y-107368095D01*
X147351190Y-107368095D01*
X147113095Y-107427619D01*
X146994047Y-107546666D01*
X146934523Y-107665714D01*
X146934523Y-107903809D01*
X146994047Y-108022857D01*
X147113095Y-108141904D01*
X147351190Y-108201428D01*
X147767857Y-108201428D01*
X148005952Y-108141904D01*
X148125000Y-108022857D01*
X148184523Y-107903809D01*
X150625000Y-109987142D02*
X150684523Y-110106190D01*
X150684523Y-110284761D01*
X150625000Y-110463333D01*
X150505952Y-110582380D01*
X150386904Y-110641904D01*
X150148809Y-110701428D01*
X149970238Y-110701428D01*
X149732142Y-110641904D01*
X149613095Y-110582380D01*
X149494047Y-110463333D01*
X149434523Y-110284761D01*
X149434523Y-110165714D01*
X149494047Y-109987142D01*
X149553571Y-109927619D01*
X149970238Y-109927619D01*
X149970238Y-110165714D01*
X149434523Y-109391904D02*
X150684523Y-109391904D01*
X149434523Y-108677619D01*
X150684523Y-108677619D01*
X149434523Y-108082380D02*
X150684523Y-108082380D01*
X150684523Y-107784761D01*
X150625000Y-107606190D01*
X150505952Y-107487142D01*
X150386904Y-107427619D01*
X150148809Y-107368095D01*
X149970238Y-107368095D01*
X149732142Y-107427619D01*
X149613095Y-107487142D01*
X149494047Y-107606190D01*
X149434523Y-107784761D01*
X149434523Y-108082380D01*
X155684523Y-110403809D02*
X155684523Y-109630000D01*
X155208333Y-110046666D01*
X155208333Y-109868095D01*
X155148809Y-109749047D01*
X155089285Y-109689523D01*
X154970238Y-109630000D01*
X154672619Y-109630000D01*
X154553571Y-109689523D01*
X154494047Y-109749047D01*
X154434523Y-109868095D01*
X154434523Y-110225238D01*
X154494047Y-110344285D01*
X154553571Y-110403809D01*
X155684523Y-109272857D02*
X154434523Y-108856190D01*
X155684523Y-108439523D01*
X155684523Y-108141904D02*
X155684523Y-107368095D01*
X155208333Y-107784761D01*
X155208333Y-107606190D01*
X155148809Y-107487142D01*
X155089285Y-107427619D01*
X154970238Y-107368095D01*
X154672619Y-107368095D01*
X154553571Y-107427619D01*
X154494047Y-107487142D01*
X154434523Y-107606190D01*
X154434523Y-107963333D01*
X154494047Y-108082380D01*
X154553571Y-108141904D01*
X114553571Y-109510952D02*
X114494047Y-109570476D01*
X114434523Y-109749047D01*
X114434523Y-109868095D01*
X114494047Y-110046666D01*
X114613095Y-110165714D01*
X114732142Y-110225238D01*
X114970238Y-110284761D01*
X115148809Y-110284761D01*
X115386904Y-110225238D01*
X115505952Y-110165714D01*
X115625000Y-110046666D01*
X115684523Y-109868095D01*
X115684523Y-109749047D01*
X115625000Y-109570476D01*
X115565476Y-109510952D01*
X115684523Y-109153809D02*
X115684523Y-108439523D01*
X114434523Y-108796666D02*
X115684523Y-108796666D01*
X114494047Y-108082380D02*
X114434523Y-107903809D01*
X114434523Y-107606190D01*
X114494047Y-107487142D01*
X114553571Y-107427619D01*
X114672619Y-107368095D01*
X114791666Y-107368095D01*
X114910714Y-107427619D01*
X114970238Y-107487142D01*
X115029761Y-107606190D01*
X115089285Y-107844285D01*
X115148809Y-107963333D01*
X115208333Y-108022857D01*
X115327380Y-108082380D01*
X115446428Y-108082380D01*
X115565476Y-108022857D01*
X115625000Y-107963333D01*
X115684523Y-107844285D01*
X115684523Y-107546666D01*
X115625000Y-107368095D01*
X104434523Y-109510952D02*
X105029761Y-109927619D01*
X104434523Y-110225238D02*
X105684523Y-110225238D01*
X105684523Y-109749047D01*
X105625000Y-109630000D01*
X105565476Y-109570476D01*
X105446428Y-109510952D01*
X105267857Y-109510952D01*
X105148809Y-109570476D01*
X105089285Y-109630000D01*
X105029761Y-109749047D01*
X105029761Y-110225238D01*
X105684523Y-109153809D02*
X105684523Y-108439523D01*
X104434523Y-108796666D02*
X105684523Y-108796666D01*
X104494047Y-108082380D02*
X104434523Y-107903809D01*
X104434523Y-107606190D01*
X104494047Y-107487142D01*
X104553571Y-107427619D01*
X104672619Y-107368095D01*
X104791666Y-107368095D01*
X104910714Y-107427619D01*
X104970238Y-107487142D01*
X105029761Y-107606190D01*
X105089285Y-107844285D01*
X105148809Y-107963333D01*
X105208333Y-108022857D01*
X105327380Y-108082380D01*
X105446428Y-108082380D01*
X105565476Y-108022857D01*
X105625000Y-107963333D01*
X105684523Y-107844285D01*
X105684523Y-107546666D01*
X105625000Y-107368095D01*
X118125000Y-109987142D02*
X118184523Y-110106190D01*
X118184523Y-110284761D01*
X118125000Y-110463333D01*
X118005952Y-110582380D01*
X117886904Y-110641904D01*
X117648809Y-110701428D01*
X117470238Y-110701428D01*
X117232142Y-110641904D01*
X117113095Y-110582380D01*
X116994047Y-110463333D01*
X116934523Y-110284761D01*
X116934523Y-110165714D01*
X116994047Y-109987142D01*
X117053571Y-109927619D01*
X117470238Y-109927619D01*
X117470238Y-110165714D01*
X116934523Y-109391904D02*
X118184523Y-109391904D01*
X116934523Y-108677619D01*
X118184523Y-108677619D01*
X116934523Y-108082380D02*
X118184523Y-108082380D01*
X118184523Y-107784761D01*
X118125000Y-107606190D01*
X118005952Y-107487142D01*
X117886904Y-107427619D01*
X117648809Y-107368095D01*
X117470238Y-107368095D01*
X117232142Y-107427619D01*
X117113095Y-107487142D01*
X116994047Y-107606190D01*
X116934523Y-107784761D01*
X116934523Y-108082380D01*
X112410714Y-110641904D02*
X112410714Y-109689523D01*
X111934523Y-110165714D02*
X112886904Y-110165714D01*
X113184523Y-108499047D02*
X113184523Y-109094285D01*
X112589285Y-109153809D01*
X112648809Y-109094285D01*
X112708333Y-108975238D01*
X112708333Y-108677619D01*
X112648809Y-108558571D01*
X112589285Y-108499047D01*
X112470238Y-108439523D01*
X112172619Y-108439523D01*
X112053571Y-108499047D01*
X111994047Y-108558571D01*
X111934523Y-108677619D01*
X111934523Y-108975238D01*
X111994047Y-109094285D01*
X112053571Y-109153809D01*
X113184523Y-108082380D02*
X111934523Y-107665714D01*
X113184523Y-107249047D01*
X106934523Y-109808571D02*
X107529761Y-110225238D01*
X106934523Y-110522857D02*
X108184523Y-110522857D01*
X108184523Y-110046666D01*
X108125000Y-109927619D01*
X108065476Y-109868095D01*
X107946428Y-109808571D01*
X107767857Y-109808571D01*
X107648809Y-109868095D01*
X107589285Y-109927619D01*
X107529761Y-110046666D01*
X107529761Y-110522857D01*
X108184523Y-109391904D02*
X106934523Y-108558571D01*
X108184523Y-108558571D02*
X106934523Y-109391904D01*
X106934523Y-108082380D02*
X108184523Y-108082380D01*
X108184523Y-107784761D01*
X108125000Y-107606190D01*
X108005952Y-107487142D01*
X107886904Y-107427619D01*
X107648809Y-107368095D01*
X107470238Y-107368095D01*
X107232142Y-107427619D01*
X107113095Y-107487142D01*
X106994047Y-107606190D01*
X106934523Y-107784761D01*
X106934523Y-108082380D01*
X102684523Y-108023809D02*
X102684523Y-107309523D01*
X101434523Y-107666666D02*
X102684523Y-107666666D01*
X102684523Y-107071428D02*
X102684523Y-106357142D01*
X101434523Y-106714285D02*
X102684523Y-106714285D01*
X101434523Y-105345238D02*
X101434523Y-105940476D01*
X102684523Y-105940476D01*
X101910714Y-104928571D02*
X101910714Y-103976190D01*
X102565476Y-103440476D02*
X102625000Y-103380952D01*
X102684523Y-103261904D01*
X102684523Y-102964285D01*
X102625000Y-102845238D01*
X102565476Y-102785714D01*
X102446428Y-102726190D01*
X102327380Y-102726190D01*
X102148809Y-102785714D01*
X101434523Y-103500000D01*
X101434523Y-102726190D01*
X102684523Y-102309523D02*
X102684523Y-101535714D01*
X102208333Y-101952380D01*
X102208333Y-101773809D01*
X102148809Y-101654761D01*
X102089285Y-101595238D01*
X101970238Y-101535714D01*
X101672619Y-101535714D01*
X101553571Y-101595238D01*
X101494047Y-101654761D01*
X101434523Y-101773809D01*
X101434523Y-102130952D01*
X101494047Y-102250000D01*
X101553571Y-102309523D01*
X102565476Y-101059523D02*
X102625000Y-101000000D01*
X102684523Y-100880952D01*
X102684523Y-100583333D01*
X102625000Y-100464285D01*
X102565476Y-100404761D01*
X102446428Y-100345238D01*
X102327380Y-100345238D01*
X102148809Y-100404761D01*
X101434523Y-101119047D01*
X101434523Y-100345238D01*
X101434523Y-99095238D02*
X102029761Y-99511904D01*
X101434523Y-99809523D02*
X102684523Y-99809523D01*
X102684523Y-99333333D01*
X102625000Y-99214285D01*
X102565476Y-99154761D01*
X102446428Y-99095238D01*
X102267857Y-99095238D01*
X102148809Y-99154761D01*
X102089285Y-99214285D01*
X102029761Y-99333333D01*
X102029761Y-99809523D01*
X101910714Y-98559523D02*
X101910714Y-97607142D01*
X102684523Y-97130952D02*
X102684523Y-96357142D01*
X102208333Y-96773809D01*
X102208333Y-96595238D01*
X102148809Y-96476190D01*
X102089285Y-96416666D01*
X101970238Y-96357142D01*
X101672619Y-96357142D01*
X101553571Y-96416666D01*
X101494047Y-96476190D01*
X101434523Y-96595238D01*
X101434523Y-96952380D01*
X101494047Y-97071428D01*
X101553571Y-97130952D01*
X102684523Y-96000000D02*
X101434523Y-95583333D01*
X102684523Y-95166666D01*
X102684523Y-94869047D02*
X102684523Y-94095238D01*
X102208333Y-94511904D01*
X102208333Y-94333333D01*
X102148809Y-94214285D01*
X102089285Y-94154761D01*
X101970238Y-94095238D01*
X101672619Y-94095238D01*
X101553571Y-94154761D01*
X101494047Y-94214285D01*
X101434523Y-94333333D01*
X101434523Y-94690476D01*
X101494047Y-94809523D01*
X101553571Y-94869047D01*
X157494047Y-104690476D02*
X157434523Y-104511904D01*
X157434523Y-104214285D01*
X157494047Y-104095238D01*
X157553571Y-104035714D01*
X157672619Y-103976190D01*
X157791666Y-103976190D01*
X157910714Y-104035714D01*
X157970238Y-104095238D01*
X158029761Y-104214285D01*
X158089285Y-104452380D01*
X158148809Y-104571428D01*
X158208333Y-104630952D01*
X158327380Y-104690476D01*
X158446428Y-104690476D01*
X158565476Y-104630952D01*
X158625000Y-104571428D01*
X158684523Y-104452380D01*
X158684523Y-104154761D01*
X158625000Y-103976190D01*
X158684523Y-103619047D02*
X158684523Y-102904761D01*
X157434523Y-103261904D02*
X158684523Y-103261904D01*
X157910714Y-102488095D02*
X157910714Y-101535714D01*
X157434523Y-100345238D02*
X157434523Y-100940476D01*
X158684523Y-100940476D01*
X157434523Y-99928571D02*
X158684523Y-99928571D01*
X157434523Y-99333333D02*
X158684523Y-99333333D01*
X157434523Y-98619047D01*
X158684523Y-98619047D01*
X157434523Y-98023809D02*
X158684523Y-98023809D01*
X157434523Y-97309523D02*
X158148809Y-97845238D01*
X158684523Y-97309523D02*
X157970238Y-98023809D01*
D11*
G04 #@! TO.C,CN7*
X156270000Y-106270000D02*
X156270000Y-105000000D01*
X155000000Y-106270000D02*
X156270000Y-106270000D01*
X141920000Y-103957071D02*
X141920000Y-103560000D01*
X142680000Y-103957071D02*
X142680000Y-103560000D01*
X141920000Y-94900000D02*
X141920000Y-100900000D01*
X142680000Y-94900000D02*
X141920000Y-94900000D01*
X142680000Y-100900000D02*
X142680000Y-94900000D01*
X143570000Y-103560000D02*
X143570000Y-100900000D01*
X144460000Y-103957071D02*
X144460000Y-103560000D01*
X145220000Y-103957071D02*
X145220000Y-103560000D01*
X144460000Y-94900000D02*
X144460000Y-100900000D01*
X145220000Y-94900000D02*
X144460000Y-94900000D01*
X145220000Y-100900000D02*
X145220000Y-94900000D01*
X146110000Y-103560000D02*
X146110000Y-100900000D01*
X147000000Y-103957071D02*
X147000000Y-103560000D01*
X147760000Y-103957071D02*
X147760000Y-103560000D01*
X147000000Y-94900000D02*
X147000000Y-100900000D01*
X147760000Y-94900000D02*
X147000000Y-94900000D01*
X147760000Y-100900000D02*
X147760000Y-94900000D01*
X148650000Y-103560000D02*
X148650000Y-100900000D01*
X149540000Y-103957071D02*
X149540000Y-103560000D01*
X150300000Y-103957071D02*
X150300000Y-103560000D01*
X149540000Y-94900000D02*
X149540000Y-100900000D01*
X150300000Y-94900000D02*
X149540000Y-94900000D01*
X150300000Y-100900000D02*
X150300000Y-94900000D01*
X151190000Y-103560000D02*
X151190000Y-100900000D01*
X152080000Y-103957071D02*
X152080000Y-103560000D01*
X152840000Y-103957071D02*
X152840000Y-103560000D01*
X152080000Y-94900000D02*
X152080000Y-100900000D01*
X152840000Y-94900000D02*
X152080000Y-94900000D01*
X152840000Y-100900000D02*
X152840000Y-94900000D01*
X153730000Y-103560000D02*
X153730000Y-100900000D01*
X154620000Y-103890000D02*
X154620000Y-103560000D01*
X155380000Y-103890000D02*
X155380000Y-103560000D01*
X154720000Y-100900000D02*
X154720000Y-94900000D01*
X154840000Y-100900000D02*
X154840000Y-94900000D01*
X154960000Y-100900000D02*
X154960000Y-94900000D01*
X155080000Y-100900000D02*
X155080000Y-94900000D01*
X155200000Y-100900000D02*
X155200000Y-94900000D01*
X155320000Y-100900000D02*
X155320000Y-94900000D01*
X154620000Y-94900000D02*
X154620000Y-100900000D01*
X155380000Y-94900000D02*
X154620000Y-94900000D01*
X155380000Y-100900000D02*
X155380000Y-94900000D01*
X156330000Y-100900000D02*
X156330000Y-103560000D01*
X140970000Y-100900000D02*
X156330000Y-100900000D01*
X140970000Y-103560000D02*
X140970000Y-100900000D01*
X156330000Y-103560000D02*
X140970000Y-103560000D01*
G04 #@! TO.C,CN6*
X118830000Y-103560000D02*
X103470000Y-103560000D01*
X103470000Y-103560000D02*
X103470000Y-100900000D01*
X103470000Y-100900000D02*
X118830000Y-100900000D01*
X118830000Y-100900000D02*
X118830000Y-103560000D01*
X117880000Y-100900000D02*
X117880000Y-94900000D01*
X117880000Y-94900000D02*
X117120000Y-94900000D01*
X117120000Y-94900000D02*
X117120000Y-100900000D01*
X117820000Y-100900000D02*
X117820000Y-94900000D01*
X117700000Y-100900000D02*
X117700000Y-94900000D01*
X117580000Y-100900000D02*
X117580000Y-94900000D01*
X117460000Y-100900000D02*
X117460000Y-94900000D01*
X117340000Y-100900000D02*
X117340000Y-94900000D01*
X117220000Y-100900000D02*
X117220000Y-94900000D01*
X117880000Y-103890000D02*
X117880000Y-103560000D01*
X117120000Y-103890000D02*
X117120000Y-103560000D01*
X116230000Y-103560000D02*
X116230000Y-100900000D01*
X115340000Y-100900000D02*
X115340000Y-94900000D01*
X115340000Y-94900000D02*
X114580000Y-94900000D01*
X114580000Y-94900000D02*
X114580000Y-100900000D01*
X115340000Y-103957071D02*
X115340000Y-103560000D01*
X114580000Y-103957071D02*
X114580000Y-103560000D01*
X113690000Y-103560000D02*
X113690000Y-100900000D01*
X112800000Y-100900000D02*
X112800000Y-94900000D01*
X112800000Y-94900000D02*
X112040000Y-94900000D01*
X112040000Y-94900000D02*
X112040000Y-100900000D01*
X112800000Y-103957071D02*
X112800000Y-103560000D01*
X112040000Y-103957071D02*
X112040000Y-103560000D01*
X111150000Y-103560000D02*
X111150000Y-100900000D01*
X110260000Y-100900000D02*
X110260000Y-94900000D01*
X110260000Y-94900000D02*
X109500000Y-94900000D01*
X109500000Y-94900000D02*
X109500000Y-100900000D01*
X110260000Y-103957071D02*
X110260000Y-103560000D01*
X109500000Y-103957071D02*
X109500000Y-103560000D01*
X108610000Y-103560000D02*
X108610000Y-100900000D01*
X107720000Y-100900000D02*
X107720000Y-94900000D01*
X107720000Y-94900000D02*
X106960000Y-94900000D01*
X106960000Y-94900000D02*
X106960000Y-100900000D01*
X107720000Y-103957071D02*
X107720000Y-103560000D01*
X106960000Y-103957071D02*
X106960000Y-103560000D01*
X106070000Y-103560000D02*
X106070000Y-100900000D01*
X105180000Y-100900000D02*
X105180000Y-94900000D01*
X105180000Y-94900000D02*
X104420000Y-94900000D01*
X104420000Y-94900000D02*
X104420000Y-100900000D01*
X105180000Y-103957071D02*
X105180000Y-103560000D01*
X104420000Y-103957071D02*
X104420000Y-103560000D01*
X117500000Y-106270000D02*
X118770000Y-106270000D01*
X118770000Y-106270000D02*
X118770000Y-105000000D01*
G04 #@! TD*
M02*
