<?xml version="1.0" standalone="no"?>
<!DOCTYPE svg PUBLIC "-//W3C//DTD SVG 1.1//EN"
"http://www.w3.org/Graphics/SVG/1.1/DTD/svg11.dtd">
<svg width="396mm" height="395.938mm" viewBox="-398 2.03084 396 395.938" xmlns="http://www.w3.org/2000/svg" version = "1.1">
<title>Floor.123dx</title>
<desc> made with 123D Design </desc>
<path d="M -47.9237 176.775 L -47.9233 176.774 L -47.6953 176.615 L -47.6949 176.614 L -47.4426 176.497 L -47.4421 176.496 L -47.1733 176.424 L -47.1727 176.424 L -46.8954 176.4 L -46.8949 176.4 L -46.6176 176.424 L -46.617 176.424 L -46.3482 176.496 L -46.3477 176.496 L -46.0954 176.614 L -46.0949 176.614 L -45.8669 176.774 L -45.8664 176.774 L -45.6696 176.971 L -45.6692 176.972 L -45.5096 177.2 L -45.5092 177.2 L -45.3916 177.452 L -45.3914 177.453 L -45.3193 177.722 L -45.3192 177.722 L -45.2949 177.999 L -45.2949 178 L -45.3191 178.277 L -45.3192 178.278 L -45.3912 178.547 L -45.3914 178.547 L -45.509 178.799 L -45.5092 178.8 L -45.6689 179.028 L -45.6692 179.028 L -45.866 179.225 L -45.8664 179.226 L -46.0944 179.385 L -46.0949 179.386 L -46.3471 179.503 L -46.3477 179.504 L -46.6165 179.576 L -46.617 179.576 L -46.8943 179.6 L -46.8949 179.6 L -47.1722 179.576 L -47.1727 179.576 L -47.4416 179.504 L -47.4421 179.504 L -47.6944 179.386 L -47.6949 179.386 L -47.9229 179.226 L -47.9233 179.226 L -48.1202 179.029 L -48.1206 179.028 L -48.2802 178.8 L -48.2805 178.8 L -48.3982 178.548 L -48.3984 178.547 L -48.4704 178.278 L -48.4706 178.278 L -48.4948 178.001 L -48.4949 178 L -48.4706 177.723 L -48.4706 177.722 L -48.3985 177.453 L -48.3984 177.453 L -48.2808 177.201 L -48.2805 177.2 L -48.1209 176.972 L -48.1206 176.972 z  M -105.898 79.0472 L -105.898 79.0477 L -105.781 79.3 L -105.78 79.3005 L -105.621 79.5285 L -105.62 79.5289 L -105.423 79.7257 L -105.423 79.726 L -105.195 79.8856 L -105.194 79.8859 L -104.942 80.0035 L -104.942 80.0037 L -104.673 80.0757 L -104.672 80.0757 L -104.395 80.1 L -104.394 80.1 L -104.117 80.0757 L -104.117 80.0756 L -103.848 80.0035 L -103.847 80.0033 L -103.595 79.8856 L -103.594 79.8853 L -103.366 79.7257 L -103.366 79.7253 L -103.169 79.5285 L -103.169 79.528 L -103.009 79.3 L -103.009 79.2995 L -102.891 79.0472 L -102.891 79.0467 L -102.819 78.7778 L -102.819 78.7773 L -102.795 78.5 L -102.795 78.4994 L -102.819 78.2222 L -102.819 78.2216 L -102.891 77.9528 L -102.892 77.9523 L -103.009 77.7 L -103.01 77.6995 L -103.169 77.4715 L -103.17 77.4711 L -103.366 77.2743 L -103.367 77.274 L -103.595 77.1144 L -103.595 77.1141 L -103.848 76.9965 L -103.848 76.9964 L -104.117 76.9243 L -104.118 76.9243 L -104.395 76.9 L -104.395 76.9 L -104.673 76.9243 L -104.673 76.9245 L -104.942 76.9965 L -104.943 76.9967 L -105.195 77.1144 L -105.195 77.1147 L -105.423 77.2743 L -105.424 77.2747 L -105.621 77.4715 L -105.621 77.472 L -105.781 77.7 L -105.781 77.7005 L -105.898 77.9528 L -105.899 77.9533 L -105.971 78.2222 L -105.971 78.2227 L -105.995 78.5 L -105.995 78.5006 L -105.971 78.7778 L -105.97 78.7784 z  M -179.102 276.953 L -179.03 277.222 L -179.029 277.222 L -179.005 277.499 L -179.005 277.5 L -179.029 277.777 L -179.029 277.778 L -179.101 278.047 L -179.102 278.047 L -179.219 278.299 L -179.219 278.3 L -179.379 278.528 L -179.379 278.528 L -179.576 278.725 L -179.577 278.726 L -179.805 278.885 L -179.805 278.886 L -180.057 279.003 L -180.058 279.004 L -180.327 279.076 L -180.327 279.076 L -180.605 279.1 L -180.605 279.1 L -180.882 279.076 L -180.883 279.076 L -181.152 279.004 L -181.152 279.004 L -181.405 278.886 L -181.405 278.886 L -181.633 278.726 L -181.634 278.726 L -181.83 278.529 L -181.831 278.528 L -181.99 278.3 L -181.991 278.3 L -182.108 278.048 L -182.109 278.047 L -182.181 277.778 L -182.181 277.778 L -182.205 277.501 L -182.205 277.5 L -182.181 277.223 L -182.181 277.222 L -182.109 276.953 L -182.109 276.953 L -181.991 276.701 L -181.991 276.7 L -181.831 276.472 L -181.831 276.472 L -181.634 276.275 L -181.634 276.274 L -181.406 276.115 L -181.405 276.114 L -181.153 275.997 L -181.152 275.996 L -180.883 275.924 L -180.883 275.924 L -180.606 275.9 L -180.605 275.9 L -180.328 275.924 L -180.327 275.924 L -180.058 275.996 L -180.058 275.996 L -179.806 276.114 L -179.805 276.114 L -179.577 276.274 L -179.577 276.274 L -179.38 276.471 L -179.379 276.472 L -179.22 276.7 L -179.219 276.7 L -179.102 276.952 z  M -379.888 206.352 L -379.552 212.684 L -379.552 212.697 L -378.993 219.013 L -378.992 219.026 L -378.21 225.318 L -378.209 225.331 L -377.206 231.592 L -377.204 231.604 L -375.98 237.826 L -375.978 237.838 L -374.536 244.013 L -374.533 244.025 L -372.874 250.145 L -372.871 250.157 L -370.997 256.215 L -370.993 256.227 L -368.906 262.215 L -368.902 262.227 L -366.605 268.137 L -366.601 268.149 L -364.097 273.974 L -364.092 273.986 L -361.384 279.719 L -361.379 279.731 L -358.47 285.365 L -358.464 285.376 L -355.359 290.904 L -355.352 290.916 L -352.054 296.331 L -352.047 296.342 L -348.559 301.637 L -348.552 301.647 L -344.88 306.816 L -344.873 306.827 L -341.02 311.863 L -341.012 311.873 L -336.984 316.77 L -336.976 316.78 L -332.778 321.532 L -332.77 321.541 L -328.406 326.142 L -328.397 326.151 L -323.874 330.595 L -323.865 330.604 L -319.188 334.885 L -319.179 334.894 L -314.354 339.008 L -314.344 339.016 L -309.377 342.957 L -309.367 342.965 L -304.264 346.728 L -304.253 346.735 L -299.02 350.316 L -299.01 350.323 L -293.654 353.717 L -293.643 353.724 L -288.171 356.926 L -288.16 356.933 L -282.578 359.94 L -282.566 359.946 L -276.882 362.755 L -276.87 362.761 L -271.09 365.367 L -271.078 365.372 L -265.209 367.773 L -265.198 367.777 L -259.248 369.969 L -259.236 369.974 L -253.213 371.954 L -253.2 371.958 L -247.111 373.725 L -247.099 373.729 L -240.951 375.28 L -240.938 375.283 L -234.739 376.616 L -234.727 376.618 L -228.484 377.732 L -228.472 377.734 L -222.194 378.626 L -222.182 378.628 L -215.876 379.298 L -215.864 379.3 L -209.539 379.747 L -209.526 379.748 L -203.189 379.972 L -203.177 379.972 L -196.836 379.972 L -196.823 379.972 L -190.486 379.748 L -190.474 379.748 L -184.149 379.3 L -184.136 379.3 L -177.831 378.629 L -177.818 378.628 L -171.541 377.736 L -171.528 377.734 L -165.286 376.621 L -165.273 376.618 L -159.074 375.285 L -159.062 375.283 L -152.914 373.732 L -152.901 373.729 L -146.812 371.962 L -146.8 371.958 L -140.776 369.978 L -140.764 369.974 L -134.814 367.782 L -134.802 367.777 L -128.934 365.377 L -128.922 365.372 L -123.141 362.766 L -123.13 362.761 L -117.445 359.952 L -117.434 359.946 L -111.852 356.939 L -111.84 356.933 L -106.368 353.73 L -106.357 353.724 L -101.001 350.33 L -100.99 350.323 L -95.7571 346.742 L -95.7467 346.735 L -90.6433 342.972 L -90.6331 342.965 L -85.6658 339.024 L -85.6558 339.016 L -80.8306 334.902 L -80.821 334.894 L -76.144 330.612 L -76.1346 330.604 L -71.6116 326.16 L -71.6025 326.151 L -67.2392 321.55 L -67.2305 321.541 L -63.0322 316.789 L -63.0238 316.78 L -58.9959 311.883 L -58.9878 311.873 L -55.1352 306.837 L -55.1275 306.827 L -51.455 301.658 L -51.4477 301.647 L -47.9599 296.352 L -47.9529 296.342 L -44.6542 290.926 L -44.6476 290.916 L -41.5421 285.387 L -41.5358 285.376 L -38.6273 279.742 L -38.6215 279.731 L -35.9136 273.997 L -35.9082 273.986 L -33.4044 268.16 L -33.3994 268.149 L -31.1027 262.238 L -31.0981 262.227 L -29.0114 256.239 L -29.0072 256.227 L -27.1332 250.17 L -27.1294 250.157 L -25.4703 244.038 L -25.467 244.025 L -24.0249 237.851 L -24.022 237.838 L -22.7987 231.617 L -22.7962 231.604 L -21.7933 225.343 L -21.7913 225.331 L -21.0099 219.038 L -21.0083 219.026 L -20.4495 212.71 L -20.4484 212.697 L -20.1128 206.365 L -20.1121 206.352 L -20.0002 200.013 L -20 200 L -20.1119 193.66 L -20.1121 193.648 L -20.4477 187.316 L -20.4484 187.303 L -21.0072 180.987 L -21.0083 180.974 L -21.7897 174.682 L -21.7913 174.669 L -22.7942 168.408 L -22.7962 168.396 L -24.0195 162.174 L -24.022 162.162 L -25.4641 155.987 L -25.467 155.975 L -27.1261 149.855 L -27.1294 149.843 L -29.0035 143.785 L -29.0072 143.773 L -31.0939 137.785 L -31.0981 137.773 L -33.3948 131.863 L -33.3994 131.851 L -35.9032 126.026 L -35.9082 126.014 L -38.6161 120.281 L -38.6215 120.269 L -41.53 114.635 L -41.5358 114.624 L -44.6414 109.096 L -44.6476 109.084 L -47.9463 103.669 L -47.9529 103.658 L -51.4407 98.3632 L -51.4477 98.3525 L -55.1201 93.1836 L -55.1275 93.1732 L -58.9801 88.1371 L -58.9878 88.127 L -63.0157 83.23 L -63.0238 83.2202 L -67.2221 78.4684 L -67.2305 78.4588 L -71.5938 73.8581 L -71.6025 73.8489 L -76.1255 69.4051 L -76.1346 69.3962 L -80.8116 65.1147 L -80.821 65.1061 L -85.6461 60.9924 L -85.6558 60.9842 L -90.6231 57.0433 L -90.6331 57.0354 L -95.7364 53.2723 L -95.7467 53.2647 L -100.98 49.6841 L -100.99 49.6769 L -106.346 46.2831 L -106.357 46.2763 L -111.829 43.0737 L -111.84 43.0673 L -117.422 40.0598 L -117.434 40.0538 L -123.118 37.2451 L -123.13 37.2395 L -128.91 34.6333 L -128.922 34.628 L -134.791 32.2274 L -134.802 32.2226 L -140.752 30.0306 L -140.764 30.0262 L -146.787 28.0455 L -146.8 28.0415 L -152.889 26.2747 L -152.901 26.2711 L -159.05 24.7203 L -159.062 24.7172 L -165.261 23.3843 L -165.273 23.3816 L -171.516 22.2683 L -171.528 22.2661 L -177.806 21.3738 L -177.818 21.372 L -184.124 20.7018 L -184.136 20.7004 L -190.461 20.2532 L -190.474 20.2523 L -196.811 20.0285 L -196.823 20.028 L -203.164 20.028 L -203.177 20.028 L -209.514 20.2518 L -209.526 20.2523 L -215.851 20.6995 L -215.864 20.7004 L -222.169 21.3706 L -222.182 21.372 L -228.459 22.2643 L -228.472 22.2661 L -234.714 23.3794 L -234.727 23.3816 L -240.926 24.7145 L -240.938 24.7172 L -247.086 26.268 L -247.099 26.2711 L -253.188 28.038 L -253.2 28.0415 L -259.224 30.0222 L -259.236 30.0262 L -265.186 32.2182 L -265.198 32.2226 L -271.066 34.6232 L -271.078 34.628 L -276.859 37.2343 L -276.87 37.2395 L -282.555 40.0481 L -282.566 40.0538 L -288.148 43.0613 L -288.16 43.0673 L -293.632 46.2699 L -293.643 46.2763 L -298.999 49.6701 L -299.01 49.6769 L -304.243 53.2576 L -304.253 53.2647 L -309.357 57.0278 L -309.367 57.0354 L -314.334 60.9763 L -314.344 60.9842 L -319.169 65.0979 L -319.179 65.1061 L -323.856 69.3876 L -323.865 69.3962 L -328.388 73.84 L -328.397 73.8489 L -332.761 78.4496 L -332.77 78.4588 L -336.968 83.2107 L -336.976 83.2202 L -341.004 88.1172 L -341.012 88.127 L -344.865 93.1631 L -344.873 93.1732 L -348.545 98.3422 L -348.552 98.3525 L -352.04 103.648 L -352.047 103.658 L -355.346 109.074 L -355.352 109.084 L -358.458 114.613 L -358.464 114.624 L -361.373 120.258 L -361.379 120.269 L -364.086 126.003 L -364.092 126.014 L -366.596 131.84 L -366.601 131.851 L -368.897 137.762 L -368.902 137.773 L -370.989 143.761 L -370.993 143.773 L -372.867 149.83 L -372.871 149.843 L -374.53 155.962 L -374.533 155.975 L -375.975 162.149 L -375.978 162.162 L -377.201 168.383 L -377.204 168.396 L -378.207 174.657 L -378.209 174.669 L -378.99 180.962 L -378.992 180.974 L -379.551 187.29 L -379.552 187.303 L -379.887 193.635 L -379.888 193.648 L -380 199.987 L -380 200 L -379.888 206.34 z  M -162.173 223.576 L -162.172 223.576 L -161.895 223.6 L -161.894 223.6 L -161.617 223.576 L -161.617 223.576 L -161.348 223.504 L -161.347 223.503 L -161.095 223.386 L -161.094 223.385 L -160.866 223.226 L -160.866 223.225 L -160.669 223.028 L -160.669 223.028 L -160.509 222.8 L -160.509 222.799 L -160.391 222.547 L -160.391 222.547 L -160.319 222.278 L -160.319 222.277 L -160.295 222 L -160.295 221.999 L -160.319 221.722 L -160.319 221.722 L -160.391 221.453 L -160.392 221.452 L -160.509 221.2 L -160.51 221.2 L -160.669 220.972 L -160.67 220.971 L -160.866 220.774 L -160.867 220.774 L -161.095 220.614 L -161.095 220.614 L -161.348 220.496 L -161.348 220.496 L -161.617 220.424 L -161.618 220.424 L -161.895 220.4 L -161.895 220.4 L -162.173 220.424 L -162.173 220.424 L -162.442 220.496 L -162.443 220.497 L -162.695 220.614 L -162.695 220.615 L -162.923 220.774 L -162.924 220.775 L -163.121 220.972 L -163.121 220.972 L -163.281 221.2 L -163.281 221.201 L -163.398 221.453 L -163.399 221.453 L -163.471 221.722 L -163.471 221.723 L -163.495 222 L -163.495 222.001 L -163.471 222.278 L -163.47 222.278 L -163.398 222.547 L -163.398 222.548 L -163.281 222.8 L -163.28 222.8 L -163.121 223.028 L -163.12 223.029 L -162.923 223.226 L -162.923 223.226 L -162.695 223.386 L -162.694 223.386 L -162.442 223.504 L -162.442 223.504 z  M -219.117 275.924 L -218.848 275.996 L -218.848 275.996 L -218.595 276.114 L -218.595 276.114 L -218.367 276.274 L -218.366 276.274 L -218.17 276.471 L -218.169 276.472 L -218.01 276.7 L -218.009 276.7 L -217.892 276.952 L -217.891 276.953 L -217.819 277.222 L -217.819 277.222 L -217.795 277.499 L -217.795 277.5 L -217.819 277.777 L -217.819 277.778 L -217.891 278.047 L -217.891 278.047 L -218.009 278.299 L -218.009 278.3 L -218.169 278.528 L -218.169 278.528 L -218.366 278.725 L -218.366 278.726 L -218.594 278.885 L -218.595 278.886 L -218.847 279.003 L -218.848 279.004 L -219.117 279.076 L -219.117 279.076 L -219.394 279.1 L -219.395 279.1 L -219.672 279.076 L -219.673 279.076 L -219.942 279.004 L -219.942 279.004 L -220.194 278.886 L -220.195 278.886 L -220.423 278.726 L -220.423 278.726 L -220.62 278.529 L -220.621 278.528 L -220.78 278.3 L -220.781 278.3 L -220.898 278.048 L -220.898 278.047 L -220.97 277.778 L -220.971 277.778 L -220.995 277.501 L -220.995 277.5 L -220.971 277.223 L -220.971 277.222 L -220.899 276.953 L -220.898 276.953 L -220.781 276.701 L -220.781 276.7 L -220.621 276.472 L -220.621 276.472 L -220.424 276.275 L -220.423 276.274 L -220.195 276.115 L -220.195 276.114 L -219.943 275.997 L -219.942 275.996 L -219.673 275.924 L -219.673 275.924 L -219.395 275.9 L -219.395 275.9 L -219.118 275.924 z  M -294.102 121.952 L -294.102 121.953 L -294.03 122.222 L -294.029 122.222 L -294.005 122.499 L -294.005 122.5 L -294.029 122.777 L -294.029 122.778 L -294.101 123.047 L -294.102 123.047 L -294.219 123.299 L -294.219 123.3 L -294.379 123.528 L -294.379 123.528 L -294.576 123.725 L -294.577 123.726 L -294.805 123.885 L -294.805 123.886 L -295.057 124.003 L -295.058 124.004 L -295.327 124.076 L -295.327 124.076 L -295.605 124.1 L -295.605 124.1 L -295.882 124.076 L -295.883 124.076 L -296.152 124.004 L -296.152 124.004 L -296.405 123.886 L -296.405 123.886 L -296.633 123.726 L -296.634 123.726 L -296.83 123.529 L -296.831 123.528 L -296.99 123.3 L -296.991 123.3 L -297.108 123.048 L -297.109 123.047 L -297.181 122.778 L -297.181 122.778 L -297.205 122.501 L -297.205 122.5 L -297.181 122.223 L -297.181 122.222 L -297.109 121.953 L -297.109 121.953 L -296.991 121.701 L -296.991 121.7 L -296.831 121.472 L -296.831 121.472 L -296.634 121.275 L -296.634 121.274 L -296.406 121.115 L -296.405 121.114 L -296.153 120.997 L -296.152 120.996 L -295.883 120.924 L -295.883 120.924 L -295.606 120.9 L -295.605 120.9 L -295.328 120.924 L -295.327 120.924 L -295.058 120.996 L -295.058 120.996 L -294.806 121.114 L -294.805 121.114 L -294.577 121.274 L -294.577 121.274 L -294.38 121.471 L -294.379 121.472 L -294.22 121.7 L -294.219 121.7 z  M -278.399 221.453 L -278.471 221.722 L -278.471 221.723 L -278.495 222 L -278.495 222.001 L -278.471 222.278 L -278.47 222.278 L -278.398 222.547 L -278.398 222.548 L -278.281 222.8 L -278.28 222.8 L -278.121 223.028 L -278.12 223.029 L -277.923 223.226 L -277.923 223.226 L -277.695 223.386 L -277.694 223.386 L -277.442 223.504 L -277.442 223.504 L -277.173 223.576 L -277.172 223.576 L -276.895 223.6 L -276.894 223.6 L -276.617 223.576 L -276.617 223.576 L -276.348 223.504 L -276.347 223.503 L -276.095 223.386 L -276.094 223.385 L -275.866 223.226 L -275.866 223.225 L -275.669 223.028 L -275.669 223.028 L -275.509 222.8 L -275.509 222.799 L -275.391 222.547 L -275.391 222.547 L -275.319 222.278 L -275.319 222.277 L -275.295 222 L -275.295 221.999 L -275.319 221.722 L -275.319 221.722 L -275.391 221.453 L -275.392 221.452 L -275.509 221.2 L -275.51 221.2 L -275.669 220.972 L -275.67 220.971 L -275.866 220.774 L -275.867 220.774 L -276.095 220.614 L -276.095 220.614 L -276.348 220.496 L -276.348 220.496 L -276.617 220.424 L -276.618 220.424 L -276.895 220.4 L -276.895 220.4 L -277.173 220.424 L -277.173 220.424 L -277.442 220.496 L -277.443 220.497 L -277.695 220.614 L -277.695 220.615 L -277.923 220.774 L -277.924 220.775 L -278.121 220.972 L -278.121 220.972 L -278.281 221.2 L -278.281 221.201 L -278.398 221.453 z  M -86.5036 243.453 L -86.5757 243.722 L -86.5757 243.723 L -86.6 244 L -86.6 244.001 L -86.5757 244.278 L -86.5755 244.278 L -86.5035 244.547 L -86.5033 244.548 L -86.3856 244.8 L -86.3853 244.8 L -86.2257 245.028 L -86.2253 245.029 L -86.0285 245.226 L -86.028 245.226 L -85.8 245.386 L -85.7995 245.386 L -85.5472 245.504 L -85.5467 245.504 L -85.2778 245.576 L -85.2773 245.576 L -85 245.6 L -84.9994 245.6 L -84.7222 245.576 L -84.7216 245.576 L -84.4528 245.504 L -84.4523 245.503 L -84.2 245.386 L -84.1995 245.385 L -83.9715 245.226 L -83.9711 245.225 L -83.7743 245.028 L -83.774 245.028 L -83.6144 244.8 L -83.6141 244.799 L -83.4965 244.547 L -83.4964 244.547 L -83.4243 244.278 L -83.4243 244.277 L -83.4 244 L -83.4 243.999 L -83.4243 243.722 L -83.4245 243.722 L -83.4965 243.453 L -83.4967 243.452 L -83.6144 243.2 L -83.6147 243.2 L -83.7743 242.972 L -83.7747 242.971 L -83.9715 242.774 L -83.972 242.774 L -84.2 242.614 L -84.2005 242.614 L -84.4528 242.496 L -84.4533 242.496 L -84.7222 242.424 L -84.7227 242.424 L -85 242.4 L -85.0006 242.4 L -85.2778 242.424 L -85.2784 242.424 L -85.5472 242.496 L -85.5477 242.497 L -85.8 242.614 L -85.8005 242.615 L -86.0285 242.774 L -86.0289 242.775 L -86.2257 242.972 L -86.226 242.972 L -86.3856 243.2 L -86.3859 243.201 L -86.5035 243.453 z  M -283.429 85.47 L -283.481 85.5 L -283.481 115.44 L -283.481 115.5 L -257.552 130.47 L -257.5 130.5 L -231.571 115.53 L -231.519 115.5 L -231.519 85.56 L -231.519 85.5 L -257.448 70.53 L -257.5 70.5 z  M -220.899 320.953 L -220.971 321.222 L -220.971 321.223 L -220.995 321.5 L -220.995 321.501 L -220.971 321.778 L -220.97 321.778 L -220.898 322.047 L -220.898 322.048 L -220.781 322.3 L -220.78 322.3 L -220.621 322.528 L -220.62 322.529 L -220.423 322.726 L -220.423 322.726 L -220.195 322.886 L -220.194 322.886 L -219.942 323.004 L -219.942 323.004 L -219.673 323.076 L -219.672 323.076 L -219.395 323.1 L -219.394 323.1 L -219.117 323.076 L -219.117 323.076 L -218.848 323.004 L -218.847 323.003 L -218.595 322.886 L -218.594 322.885 L -218.366 322.726 L -218.366 322.725 L -218.169 322.528 L -218.169 322.528 L -218.009 322.3 L -218.009 322.299 L -217.891 322.047 L -217.891 322.047 L -217.819 321.778 L -217.819 321.777 L -217.795 321.5 L -217.795 321.499 L -217.819 321.222 L -217.819 321.222 L -217.891 320.953 L -217.892 320.952 L -218.009 320.7 L -218.01 320.7 L -218.169 320.472 L -218.17 320.471 L -218.366 320.274 L -218.367 320.274 L -218.595 320.114 L -218.595 320.114 L -218.848 319.996 L -218.848 319.996 L -219.117 319.924 L -219.118 319.924 L -219.395 319.9 L -219.395 319.9 L -219.673 319.924 L -219.673 319.924 L -219.942 319.996 L -219.943 319.997 L -220.195 320.114 L -220.195 320.115 L -220.423 320.274 L -220.424 320.275 L -220.621 320.472 L -220.621 320.472 L -220.781 320.7 L -220.781 320.7 L -220.898 320.953 z  M -144.004 342.953 L -144.076 343.222 L -144.076 343.223 L -144.1 343.5 L -144.1 343.501 L -144.076 343.778 L -144.076 343.778 L -144.004 344.047 L -144.003 344.048 L -143.886 344.3 L -143.885 344.3 L -143.726 344.528 L -143.725 344.529 L -143.528 344.726 L -143.528 344.726 L -143.3 344.886 L -143.299 344.886 L -143.047 345.004 L -143.047 345.004 L -142.778 345.076 L -142.777 345.076 L -142.5 345.1 L -142.499 345.1 L -142.222 345.076 L -142.222 345.076 L -141.953 345.004 L -141.952 345.003 L -141.7 344.886 L -141.7 344.885 L -141.472 344.726 L -141.471 344.725 L -141.274 344.528 L -141.274 344.528 L -141.114 344.3 L -141.114 344.3 L -140.996 344.047 L -140.996 344.047 L -140.924 343.778 L -140.924 343.777 L -140.9 343.5 L -140.9 343.499 L -140.924 343.222 L -140.924 343.222 L -140.996 342.953 L -140.997 342.952 L -141.114 342.7 L -141.115 342.7 L -141.274 342.472 L -141.275 342.471 L -141.472 342.274 L -141.472 342.274 L -141.7 342.114 L -141.701 342.114 L -141.953 341.996 L -141.953 341.996 L -142.222 341.924 L -142.223 341.924 L -142.5 341.9 L -142.501 341.9 L -142.778 341.924 L -142.778 341.924 L -143.047 341.996 L -143.048 341.997 L -143.3 342.114 L -143.3 342.115 L -143.528 342.274 L -143.529 342.275 L -143.726 342.472 L -143.726 342.472 L -143.886 342.7 L -143.886 342.701 L -144.004 342.953 z  M -220.899 121.953 L -220.971 122.222 L -220.971 122.223 L -220.995 122.5 L -220.995 122.501 L -220.971 122.778 L -220.97 122.778 L -220.898 123.047 L -220.898 123.048 L -220.781 123.3 L -220.78 123.3 L -220.621 123.528 L -220.62 123.529 L -220.423 123.726 L -220.423 123.726 L -220.195 123.886 L -220.194 123.886 L -219.942 124.004 L -219.942 124.004 L -219.673 124.076 L -219.672 124.076 L -219.395 124.1 L -219.394 124.1 L -219.117 124.076 L -219.117 124.076 L -218.848 124.004 L -218.847 124.003 L -218.595 123.886 L -218.594 123.885 L -218.366 123.726 L -218.366 123.725 L -218.169 123.528 L -218.169 123.528 L -218.009 123.3 L -218.009 123.299 L -217.891 123.047 L -217.891 123.047 L -217.819 122.778 L -217.819 122.777 L -217.795 122.5 L -217.795 122.499 L -217.819 122.222 L -217.819 122.222 L -217.891 121.953 L -217.892 121.952 L -218.009 121.7 L -218.01 121.7 L -218.169 121.472 L -218.17 121.471 L -218.366 121.274 L -218.367 121.274 L -218.595 121.114 L -218.595 121.114 L -218.848 120.996 L -218.848 120.996 L -219.117 120.924 L -219.118 120.924 L -219.395 120.9 L -219.395 120.9 L -219.673 120.924 L -219.673 120.924 L -219.942 120.996 L -219.943 120.997 L -220.195 121.114 L -220.195 121.115 L -220.423 121.274 L -220.424 121.275 L -220.621 121.472 L -220.621 121.472 L -220.781 121.7 L -220.781 121.701 L -220.898 121.953 z  M -201.504 155.453 L -201.576 155.722 L -201.576 155.723 L -201.6 156 L -201.6 156.001 L -201.576 156.278 L -201.576 156.278 L -201.504 156.547 L -201.503 156.548 L -201.386 156.8 L -201.385 156.8 L -201.226 157.028 L -201.225 157.029 L -201.028 157.226 L -201.028 157.226 L -200.8 157.386 L -200.799 157.386 L -200.547 157.504 L -200.547 157.504 L -200.278 157.576 L -200.277 157.576 L -200 157.6 L -199.999 157.6 L -199.722 157.576 L -199.722 157.576 L -199.453 157.504 L -199.452 157.503 L -199.2 157.386 L -199.2 157.385 L -198.972 157.226 L -198.971 157.225 L -198.774 157.028 L -198.774 157.028 L -198.614 156.8 L -198.614 156.799 L -198.496 156.547 L -198.496 156.547 L -198.424 156.278 L -198.424 156.277 L -198.4 156 L -198.4 155.999 L -198.424 155.722 L -198.424 155.722 L -198.496 155.453 L -198.497 155.452 L -198.614 155.2 L -198.615 155.2 L -198.774 154.972 L -198.775 154.971 L -198.972 154.774 L -198.972 154.774 L -199.2 154.614 L -199.201 154.614 L -199.453 154.496 L -199.453 154.496 L -199.722 154.424 L -199.723 154.424 L -200 154.4 L -200.001 154.4 L -200.278 154.424 L -200.278 154.424 L -200.547 154.496 L -200.548 154.497 L -200.8 154.614 L -200.8 154.615 L -201.028 154.774 L -201.029 154.775 L -201.226 154.972 L -201.226 154.972 L -201.386 155.2 L -201.386 155.201 L -201.504 155.453 z  M -105.899 121.953 L -105.971 122.222 L -105.971 122.223 L -105.995 122.5 L -105.995 122.501 L -105.971 122.778 L -105.97 122.778 L -105.898 123.047 L -105.898 123.048 L -105.781 123.3 L -105.78 123.3 L -105.621 123.528 L -105.62 123.529 L -105.423 123.726 L -105.423 123.726 L -105.195 123.886 L -105.194 123.886 L -104.942 124.004 L -104.942 124.004 L -104.673 124.076 L -104.672 124.076 L -104.395 124.1 L -104.394 124.1 L -104.117 124.076 L -104.117 124.076 L -103.848 124.004 L -103.847 124.003 L -103.595 123.886 L -103.594 123.885 L -103.366 123.726 L -103.366 123.725 L -103.169 123.528 L -103.169 123.528 L -103.009 123.3 L -103.009 123.299 L -102.891 123.047 L -102.891 123.047 L -102.819 122.778 L -102.819 122.777 L -102.795 122.5 L -102.795 122.499 L -102.819 122.222 L -102.819 122.222 L -102.891 121.953 L -102.892 121.952 L -103.009 121.7 L -103.01 121.7 L -103.169 121.472 L -103.17 121.471 L -103.366 121.274 L -103.367 121.274 L -103.595 121.114 L -103.595 121.114 L -103.848 120.996 L -103.848 120.996 L -104.117 120.924 L -104.118 120.924 L -104.395 120.9 L -104.395 120.9 L -104.673 120.924 L -104.673 120.924 L -104.942 120.996 L -104.943 120.997 L -105.195 121.114 L -105.195 121.115 L -105.423 121.274 L -105.424 121.275 L -105.621 121.472 L -105.621 121.472 L -105.781 121.7 L -105.781 121.701 L -105.898 121.953 z  M -340.929 184.97 L -340.981 185 L -340.981 214.94 L -340.981 215 L -315.052 229.97 L -315 230 L -289.071 215.03 L -289.019 215 L -289.019 185.06 L -289.019 185 L -314.948 170.03 L -315 170 z  M -110.929 184.97 L -110.981 185 L -110.981 214.94 L -110.981 215 L -85.052 229.97 L -85 230 L -59.0712 215.03 L -59.0192 215 L -59.0192 185.06 L -59.0192 185 L -84.948 170.03 L -85 170 z  M -278.399 177.453 L -278.471 177.722 L -278.471 177.723 L -278.495 178 L -278.495 178.001 L -278.471 178.278 L -278.47 178.278 L -278.398 178.547 L -278.398 178.548 L -278.281 178.8 L -278.28 178.8 L -278.121 179.028 L -278.12 179.029 L -277.923 179.226 L -277.923 179.226 L -277.695 179.386 L -277.694 179.386 L -277.442 179.504 L -277.442 179.504 L -277.173 179.576 L -277.172 179.576 L -276.895 179.6 L -276.894 179.6 L -276.617 179.576 L -276.617 179.576 L -276.348 179.504 L -276.347 179.503 L -276.095 179.386 L -276.094 179.385 L -275.866 179.226 L -275.866 179.225 L -275.669 179.028 L -275.669 179.028 L -275.509 178.8 L -275.509 178.799 L -275.391 178.547 L -275.391 178.547 L -275.319 178.278 L -275.319 178.277 L -275.295 178 L -275.295 177.999 L -275.319 177.722 L -275.319 177.722 L -275.391 177.453 L -275.392 177.452 L -275.509 177.2 L -275.51 177.2 L -275.669 176.972 L -275.67 176.971 L -275.866 176.774 L -275.867 176.774 L -276.095 176.614 L -276.095 176.614 L -276.348 176.496 L -276.348 176.496 L -276.617 176.424 L -276.618 176.424 L -276.895 176.4 L -276.895 176.4 L -277.173 176.424 L -277.173 176.424 L -277.442 176.496 L -277.443 176.497 L -277.695 176.614 L -277.695 176.615 L -277.923 176.774 L -277.924 176.775 L -278.121 176.972 L -278.121 176.972 L -278.281 177.2 L -278.281 177.201 L -278.398 177.453 z  M -259.004 254.953 L -259.076 255.222 L -259.076 255.223 L -259.1 255.5 L -259.1 255.501 L -259.076 255.778 L -259.076 255.778 L -259.004 256.047 L -259.003 256.048 L -258.886 256.3 L -258.885 256.3 L -258.726 256.528 L -258.725 256.529 L -258.528 256.726 L -258.528 256.726 L -258.3 256.886 L -258.299 256.886 L -258.047 257.004 L -258.047 257.004 L -257.778 257.076 L -257.777 257.076 L -257.5 257.1 L -257.499 257.1 L -257.222 257.076 L -257.222 257.076 L -256.953 257.004 L -256.952 257.003 L -256.7 256.886 L -256.7 256.885 L -256.472 256.726 L -256.471 256.725 L -256.274 256.528 L -256.274 256.528 L -256.114 256.3 L -256.114 256.299 L -255.996 256.047 L -255.996 256.047 L -255.924 255.778 L -255.924 255.777 L -255.9 255.5 L -255.9 255.499 L -255.924 255.222 L -255.924 255.222 L -255.996 254.953 L -255.997 254.952 L -256.114 254.7 L -256.115 254.7 L -256.274 254.472 L -256.275 254.471 L -256.472 254.274 L -256.472 254.274 L -256.7 254.114 L -256.701 254.114 L -256.953 253.996 L -256.953 253.996 L -257.222 253.924 L -257.223 253.924 L -257.5 253.9 L -257.501 253.9 L -257.778 253.924 L -257.778 253.924 L -258.047 253.996 L -258.048 253.997 L -258.3 254.114 L -258.3 254.115 L -258.528 254.274 L -258.529 254.275 L -258.726 254.472 L -258.726 254.472 L -258.886 254.7 L -258.886 254.701 L -259.004 254.953 z  M -124.609 177.453 L -124.681 177.722 L -124.681 177.723 L -124.705 178 L -124.705 178.001 L -124.681 178.278 L -124.681 178.278 L -124.609 178.547 L -124.608 178.548 L -124.491 178.8 L -124.49 178.8 L -124.331 179.028 L -124.33 179.029 L -124.134 179.226 L -124.133 179.226 L -123.905 179.386 L -123.905 179.386 L -123.652 179.504 L -123.652 179.504 L -123.383 179.576 L -123.382 179.576 L -123.105 179.6 L -123.105 179.6 L -122.827 179.576 L -122.827 179.576 L -122.558 179.504 L -122.557 179.503 L -122.305 179.386 L -122.305 179.385 L -122.077 179.226 L -122.076 179.225 L -121.879 179.028 L -121.879 179.028 L -121.719 178.8 L -121.719 178.799 L -121.602 178.547 L -121.601 178.547 L -121.529 178.278 L -121.529 178.277 L -121.505 178 L -121.505 177.999 L -121.529 177.722 L -121.53 177.722 L -121.602 177.453 L -121.602 177.452 L -121.719 177.2 L -121.72 177.2 L -121.879 176.972 L -121.88 176.971 L -122.077 176.774 L -122.077 176.774 L -122.305 176.614 L -122.306 176.614 L -122.558 176.496 L -122.558 176.496 L -122.827 176.424 L -122.828 176.424 L -123.105 176.4 L -123.106 176.4 L -123.383 176.424 L -123.383 176.424 L -123.652 176.496 L -123.653 176.497 L -123.905 176.614 L -123.906 176.615 L -124.134 176.774 L -124.134 176.775 L -124.331 176.972 L -124.331 176.972 L -124.491 177.2 L -124.491 177.201 L -124.609 177.453 z  M -168.429 284.47 L -168.481 284.5 L -168.481 314.44 L -168.481 314.5 L -142.552 329.47 L -142.5 329.5 L -116.571 314.53 L -116.519 314.5 L -116.519 284.56 L -116.519 284.5 L -142.448 269.53 L -142.5 269.5 z  M -259.004 55.9533 L -259.076 56.2222 L -259.076 56.2227 L -259.1 56.5 L -259.1 56.5006 L -259.076 56.7778 L -259.076 56.7784 L -259.004 57.0472 L -259.003 57.0477 L -258.886 57.3 L -258.885 57.3005 L -258.726 57.5285 L -258.725 57.5289 L -258.528 57.7257 L -258.528 57.726 L -258.3 57.8856 L -258.299 57.8859 L -258.047 58.0035 L -258.047 58.0036 L -257.778 58.0757 L -257.777 58.0757 L -257.5 58.1 L -257.499 58.1 L -257.222 58.0757 L -257.222 58.0755 L -256.953 58.0035 L -256.952 58.0033 L -256.7 57.8856 L -256.7 57.8853 L -256.472 57.7257 L -256.471 57.7253 L -256.274 57.5285 L -256.274 57.528 L -256.114 57.3 L -256.114 57.2995 L -255.996 57.0472 L -255.996 57.0467 L -255.924 56.7778 L -255.924 56.7773 L -255.9 56.5 L -255.9 56.4994 L -255.924 56.2222 L -255.924 56.2216 L -255.996 55.9528 L -255.997 55.9523 L -256.114 55.7 L -256.115 55.6995 L -256.274 55.4715 L -256.275 55.4711 L -256.472 55.2743 L -256.472 55.274 L -256.7 55.1144 L -256.701 55.1141 L -256.953 54.9965 L -256.953 54.9963 L -257.222 54.9243 L -257.223 54.9243 L -257.5 54.9 L -257.501 54.9 L -257.778 54.9243 L -257.778 54.9244 L -258.047 54.9965 L -258.048 54.9967 L -258.3 55.1144 L -258.3 55.1147 L -258.528 55.2743 L -258.529 55.2747 L -258.726 55.4715 L -258.726 55.472 L -258.886 55.7 L -258.886 55.7005 L -259.004 55.9528 z  M -105.899 320.953 L -105.971 321.222 L -105.971 321.223 L -105.995 321.5 L -105.995 321.501 L -105.971 321.778 L -105.97 321.778 L -105.898 322.047 L -105.898 322.048 L -105.781 322.3 L -105.78 322.3 L -105.621 322.528 L -105.62 322.529 L -105.423 322.726 L -105.423 322.726 L -105.195 322.886 L -105.194 322.886 L -104.942 323.004 L -104.942 323.004 L -104.673 323.076 L -104.672 323.076 L -104.395 323.1 L -104.394 323.1 L -104.117 323.076 L -104.117 323.076 L -103.848 323.004 L -103.847 323.003 L -103.595 322.886 L -103.594 322.885 L -103.366 322.726 L -103.366 322.725 L -103.169 322.528 L -103.169 322.528 L -103.009 322.3 L -103.009 322.299 L -102.891 322.047 L -102.891 322.047 L -102.819 321.778 L -102.819 321.777 L -102.795 321.5 L -102.795 321.499 L -102.819 321.222 L -102.819 321.222 L -102.891 320.953 L -102.892 320.952 L -103.009 320.7 L -103.01 320.7 L -103.169 320.472 L -103.17 320.471 L -103.366 320.274 L -103.367 320.274 L -103.595 320.114 L -103.595 320.114 L -103.848 319.996 L -103.848 319.996 L -104.117 319.924 L -104.118 319.924 L -104.395 319.9 L -104.395 319.9 L -104.673 319.924 L -104.673 319.924 L -104.942 319.996 L -104.943 319.997 L -105.195 320.114 L -105.195 320.115 L -105.423 320.274 L -105.424 320.275 L -105.621 320.472 L -105.621 320.472 L -105.781 320.7 L -105.781 320.7 L -105.898 320.953 z  M -225.929 184.97 L -225.981 185 L -225.981 214.94 L -225.981 215 L -200.052 229.97 L -200 230 L -174.071 215.03 L -174.019 215 L -174.019 185.06 L -174.019 185 L -199.948 170.03 L -200 170 z  M -168.429 85.47 L -168.481 85.5 L -168.481 115.44 L -168.481 115.5 L -142.552 130.47 L -142.5 130.5 L -116.571 115.53 L -116.519 115.5 L -116.519 85.56 L -116.519 85.5 L -142.448 70.53 L -142.5 70.5 z  M -239.609 177.453 L -239.681 177.722 L -239.681 177.723 L -239.705 178 L -239.705 178.001 L -239.681 178.278 L -239.681 178.278 L -239.609 178.547 L -239.608 178.548 L -239.491 178.8 L -239.49 178.8 L -239.331 179.028 L -239.33 179.029 L -239.134 179.226 L -239.133 179.226 L -238.905 179.386 L -238.905 179.386 L -238.652 179.504 L -238.652 179.504 L -238.383 179.576 L -238.382 179.576 L -238.105 179.6 L -238.105 179.6 L -237.827 179.576 L -237.827 179.576 L -237.558 179.504 L -237.557 179.503 L -237.305 179.386 L -237.305 179.385 L -237.077 179.226 L -237.076 179.225 L -236.879 179.028 L -236.879 179.028 L -236.719 178.8 L -236.719 178.799 L -236.602 178.547 L -236.601 178.547 L -236.529 178.278 L -236.529 178.277 L -236.505 178 L -236.505 177.999 L -236.529 177.722 L -236.53 177.722 L -236.602 177.453 L -236.602 177.452 L -236.719 177.2 L -236.72 177.2 L -236.879 176.972 L -236.88 176.971 L -237.077 176.774 L -237.077 176.774 L -237.305 176.614 L -237.306 176.614 L -237.558 176.496 L -237.558 176.496 L -237.827 176.424 L -237.828 176.424 L -238.105 176.4 L -238.106 176.4 L -238.383 176.424 L -238.383 176.424 L -238.652 176.496 L -238.653 176.497 L -238.905 176.614 L -238.906 176.615 L -239.134 176.774 L -239.134 176.775 L -239.331 176.972 L -239.331 176.972 L -239.491 177.2 L -239.491 177.201 L -239.609 177.453 z  M -182.109 121.953 L -182.181 122.222 L -182.181 122.223 L -182.205 122.5 L -182.205 122.501 L -182.181 122.778 L -182.181 122.778 L -182.109 123.047 L -182.108 123.048 L -181.991 123.3 L -181.99 123.3 L -181.831 123.528 L -181.83 123.529 L -181.634 123.726 L -181.633 123.726 L -181.405 123.886 L -181.405 123.886 L -181.152 124.004 L -181.152 124.004 L -180.883 124.076 L -180.882 124.076 L -180.605 124.1 L -180.605 124.1 L -180.327 124.076 L -180.327 124.076 L -180.058 124.004 L -180.057 124.003 L -179.805 123.886 L -179.805 123.885 L -179.577 123.726 L -179.576 123.725 L -179.379 123.528 L -179.379 123.528 L -179.219 123.3 L -179.219 123.299 L -179.102 123.047 L -179.101 123.047 L -179.029 122.778 L -179.029 122.777 L -179.005 122.5 L -179.005 122.499 L -179.029 122.222 L -179.03 122.222 L -179.102 121.953 L -179.102 121.952 L -179.219 121.7 L -179.22 121.7 L -179.379 121.472 L -179.38 121.471 L -179.577 121.274 L -179.577 121.274 L -179.805 121.114 L -179.806 121.114 L -180.058 120.996 L -180.058 120.996 L -180.327 120.924 L -180.328 120.924 L -180.605 120.9 L -180.606 120.9 L -180.883 120.924 L -180.883 120.924 L -181.152 120.996 L -181.153 120.997 L -181.405 121.114 L -181.406 121.115 L -181.634 121.274 L -181.634 121.275 L -181.831 121.472 L -181.831 121.472 L -181.991 121.7 L -181.991 121.701 L -182.109 121.953 z  M -316.504 243.453 L -316.576 243.722 L -316.576 243.723 L -316.6 244 L -316.6 244.001 L -316.576 244.278 L -316.576 244.278 L -316.504 244.547 L -316.503 244.548 L -316.386 244.8 L -316.385 244.8 L -316.226 245.028 L -316.225 245.029 L -316.028 245.226 L -316.028 245.226 L -315.8 245.386 L -315.799 245.386 L -315.547 245.504 L -315.547 245.504 L -315.278 245.576 L -315.277 245.576 L -315 245.6 L -314.999 245.6 L -314.722 245.576 L -314.722 245.576 L -314.453 245.504 L -314.452 245.503 L -314.2 245.386 L -314.2 245.385 L -313.972 245.226 L -313.971 245.225 L -313.774 245.028 L -313.774 245.028 L -313.614 244.8 L -313.614 244.799 L -313.496 244.547 L -313.496 244.547 L -313.424 244.278 L -313.424 244.277 L -313.4 244 L -313.4 243.999 L -313.424 243.722 L -313.424 243.722 L -313.496 243.453 L -313.497 243.452 L -313.614 243.2 L -313.615 243.2 L -313.774 242.972 L -313.775 242.971 L -313.972 242.774 L -313.972 242.774 L -314.2 242.614 L -314.201 242.614 L -314.453 242.496 L -314.453 242.496 L -314.722 242.424 L -314.723 242.424 L -315 242.4 L -315.001 242.4 L -315.278 242.424 L -315.278 242.424 L -315.547 242.496 L -315.548 242.497 L -315.8 242.614 L -315.8 242.615 L -316.028 242.774 L -316.029 242.775 L -316.226 242.972 L -316.226 242.972 L -316.386 243.2 L -316.386 243.201 L -316.504 243.453 z  M -259.004 342.953 L -259.076 343.222 L -259.076 343.223 L -259.1 343.5 L -259.1 343.501 L -259.076 343.778 L -259.076 343.778 L -259.004 344.047 L -259.003 344.048 L -258.886 344.3 L -258.885 344.3 L -258.726 344.528 L -258.725 344.529 L -258.528 344.726 L -258.528 344.726 L -258.3 344.886 L -258.299 344.886 L -258.047 345.004 L -258.047 345.004 L -257.778 345.076 L -257.777 345.076 L -257.5 345.1 L -257.499 345.1 L -257.222 345.076 L -257.222 345.076 L -256.953 345.004 L -256.952 345.003 L -256.7 344.886 L -256.7 344.885 L -256.472 344.726 L -256.471 344.725 L -256.274 344.528 L -256.274 344.528 L -256.114 344.3 L -256.114 344.3 L -255.996 344.047 L -255.996 344.047 L -255.924 343.778 L -255.924 343.777 L -255.9 343.5 L -255.9 343.499 L -255.924 343.222 L -255.924 343.222 L -255.996 342.953 L -255.997 342.952 L -256.114 342.7 L -256.115 342.7 L -256.274 342.472 L -256.275 342.471 L -256.472 342.274 L -256.472 342.274 L -256.7 342.114 L -256.701 342.114 L -256.953 341.996 L -256.953 341.996 L -257.222 341.924 L -257.223 341.924 L -257.5 341.9 L -257.501 341.9 L -257.778 341.924 L -257.778 341.924 L -258.047 341.996 L -258.048 341.997 L -258.3 342.114 L -258.3 342.115 L -258.528 342.274 L -258.529 342.275 L -258.726 342.472 L -258.726 342.472 L -258.886 342.7 L -258.886 342.701 L -259.004 342.953 z  M -48.3985 221.453 L -48.4706 221.722 L -48.4706 221.723 L -48.4949 222 L -48.4948 222.001 L -48.4706 222.278 L -48.4704 222.278 L -48.3984 222.547 L -48.3982 222.548 L -48.2805 222.8 L -48.2802 222.8 L -48.1206 223.028 L -48.1202 223.029 L -47.9233 223.226 L -47.9229 223.226 L -47.6949 223.386 L -47.6944 223.386 L -47.4421 223.504 L -47.4416 223.504 L -47.1727 223.576 L -47.1722 223.576 L -46.8949 223.6 L -46.8943 223.6 L -46.617 223.576 L -46.6165 223.576 L -46.3477 223.504 L -46.3471 223.503 L -46.0949 223.386 L -46.0944 223.385 L -45.8664 223.226 L -45.866 223.225 L -45.6692 223.028 L -45.6689 223.028 L -45.5092 222.8 L -45.509 222.799 L -45.3914 222.547 L -45.3912 222.547 L -45.3192 222.278 L -45.3191 222.277 L -45.2949 222 L -45.2949 221.999 L -45.3192 221.722 L -45.3193 221.722 L -45.3914 221.453 L -45.3916 221.452 L -45.5092 221.2 L -45.5096 221.2 L -45.6692 220.972 L -45.6696 220.971 L -45.8664 220.774 L -45.8669 220.774 L -46.0949 220.614 L -46.0954 220.614 L -46.3477 220.496 L -46.3482 220.496 L -46.617 220.424 L -46.6176 220.424 L -46.8949 220.4 L -46.8954 220.4 L -47.1727 220.424 L -47.1733 220.424 L -47.4421 220.496 L -47.4426 220.497 L -47.6949 220.614 L -47.6953 220.615 L -47.9233 220.774 L -47.9237 220.775 L -48.1206 220.972 L -48.1209 220.972 L -48.2805 221.2 L -48.2808 221.201 L -48.3984 221.453 z  M -259.004 143.953 L -259.076 144.222 L -259.076 144.223 L -259.1 144.5 L -259.1 144.501 L -259.076 144.778 L -259.076 144.778 L -259.004 145.047 L -259.003 145.048 L -258.886 145.3 L -258.885 145.3 L -258.726 145.528 L -258.725 145.529 L -258.528 145.726 L -258.528 145.726 L -258.3 145.886 L -258.299 145.886 L -258.047 146.004 L -258.047 146.004 L -257.778 146.076 L -257.777 146.076 L -257.5 146.1 L -257.499 146.1 L -257.222 146.076 L -257.222 146.076 L -256.953 146.004 L -256.952 146.003 L -256.7 145.886 L -256.7 145.885 L -256.472 145.726 L -256.471 145.725 L -256.274 145.528 L -256.274 145.528 L -256.114 145.3 L -256.114 145.299 L -255.996 145.047 L -255.996 145.047 L -255.924 144.778 L -255.924 144.777 L -255.9 144.5 L -255.9 144.499 L -255.924 144.222 L -255.924 144.222 L -255.996 143.953 L -255.997 143.952 L -256.114 143.7 L -256.115 143.7 L -256.274 143.472 L -256.275 143.471 L -256.472 143.274 L -256.472 143.274 L -256.7 143.114 L -256.701 143.114 L -256.953 142.996 L -256.953 142.996 L -257.222 142.924 L -257.223 142.924 L -257.5 142.9 L -257.501 142.9 L -257.778 142.924 L -257.778 142.924 L -258.047 142.996 L -258.048 142.997 L -258.3 143.114 L -258.3 143.115 L -258.528 143.274 L -258.529 143.275 L -258.726 143.472 L -258.726 143.472 L -258.886 143.7 L -258.886 143.701 L -259.004 143.953 z  M -182.109 320.953 L -182.181 321.222 L -182.181 321.223 L -182.205 321.5 L -182.205 321.501 L -182.181 321.778 L -182.181 321.778 L -182.109 322.047 L -182.108 322.048 L -181.991 322.3 L -181.99 322.3 L -181.831 322.528 L -181.83 322.529 L -181.634 322.726 L -181.633 322.726 L -181.405 322.886 L -181.405 322.886 L -181.152 323.004 L -181.152 323.004 L -180.883 323.076 L -180.882 323.076 L -180.605 323.1 L -180.605 323.1 L -180.327 323.076 L -180.327 323.076 L -180.058 323.004 L -180.057 323.003 L -179.805 322.886 L -179.805 322.885 L -179.577 322.726 L -179.576 322.725 L -179.379 322.528 L -179.379 322.528 L -179.219 322.3 L -179.219 322.299 L -179.102 322.047 L -179.101 322.047 L -179.029 321.778 L -179.029 321.777 L -179.005 321.5 L -179.005 321.499 L -179.029 321.222 L -179.03 321.222 L -179.102 320.953 L -179.102 320.952 L -179.219 320.7 L -179.22 320.7 L -179.379 320.472 L -179.38 320.471 L -179.577 320.274 L -179.577 320.274 L -179.805 320.114 L -179.806 320.114 L -180.058 319.996 L -180.058 319.996 L -180.327 319.924 L -180.328 319.924 L -180.605 319.9 L -180.606 319.9 L -180.883 319.924 L -180.883 319.924 L -181.152 319.996 L -181.153 319.997 L -181.405 320.114 L -181.406 320.115 L -181.634 320.274 L -181.634 320.275 L -181.831 320.472 L -181.831 320.472 L -181.991 320.7 L -181.991 320.7 L -182.109 320.953 z  M -163.399 177.453 L -163.471 177.722 L -163.471 177.723 L -163.495 178 L -163.495 178.001 L -163.471 178.278 L -163.47 178.278 L -163.398 178.547 L -163.398 178.548 L -163.281 178.8 L -163.28 178.8 L -163.121 179.028 L -163.12 179.029 L -162.923 179.226 L -162.923 179.226 L -162.695 179.386 L -162.694 179.386 L -162.442 179.504 L -162.442 179.504 L -162.173 179.576 L -162.172 179.576 L -161.895 179.6 L -161.894 179.6 L -161.617 179.576 L -161.617 179.576 L -161.348 179.504 L -161.347 179.503 L -161.095 179.386 L -161.094 179.385 L -160.866 179.226 L -160.866 179.225 L -160.669 179.028 L -160.669 179.028 L -160.509 178.8 L -160.509 178.799 L -160.391 178.547 L -160.391 178.547 L -160.319 178.278 L -160.319 178.277 L -160.295 178 L -160.295 177.999 L -160.319 177.722 L -160.319 177.722 L -160.391 177.453 L -160.392 177.452 L -160.509 177.2 L -160.51 177.2 L -160.669 176.972 L -160.67 176.971 L -160.866 176.774 L -160.867 176.774 L -161.095 176.614 L -161.095 176.614 L -161.348 176.496 L -161.348 176.496 L -161.617 176.424 L -161.618 176.424 L -161.895 176.4 L -161.895 176.4 L -162.173 176.424 L -162.173 176.424 L -162.442 176.496 L -162.443 176.497 L -162.695 176.614 L -162.695 176.615 L -162.923 176.774 L -162.924 176.775 L -163.121 176.972 L -163.121 176.972 L -163.281 177.2 L -163.281 177.201 L -163.398 177.453 z  M -144.004 143.953 L -144.076 144.222 L -144.076 144.223 L -144.1 144.5 L -144.1 144.501 L -144.076 144.778 L -144.076 144.778 L -144.004 145.047 L -144.003 145.048 L -143.886 145.3 L -143.885 145.3 L -143.726 145.528 L -143.725 145.529 L -143.528 145.726 L -143.528 145.726 L -143.3 145.886 L -143.299 145.886 L -143.047 146.004 L -143.047 146.004 L -142.778 146.076 L -142.777 146.076 L -142.5 146.1 L -142.499 146.1 L -142.222 146.076 L -142.222 146.076 L -141.953 146.004 L -141.952 146.003 L -141.7 145.886 L -141.7 145.885 L -141.472 145.726 L -141.471 145.725 L -141.274 145.528 L -141.274 145.528 L -141.114 145.3 L -141.114 145.299 L -140.996 145.047 L -140.996 145.047 L -140.924 144.778 L -140.924 144.777 L -140.9 144.5 L -140.9 144.499 L -140.924 144.222 L -140.924 144.222 L -140.996 143.953 L -140.997 143.952 L -141.114 143.7 L -141.115 143.7 L -141.274 143.472 L -141.275 143.471 L -141.472 143.274 L -141.472 143.274 L -141.7 143.114 L -141.701 143.114 L -141.953 142.996 L -141.953 142.996 L -142.222 142.924 L -142.223 142.924 L -142.5 142.9 L -142.501 142.9 L -142.778 142.924 L -142.778 142.924 L -143.047 142.996 L -143.048 142.997 L -143.3 143.114 L -143.3 143.115 L -143.528 143.274 L -143.529 143.275 L -143.726 143.472 L -143.726 143.472 L -143.886 143.7 L -143.886 143.701 L -144.004 143.953 z  M -354.609 177.453 L -354.681 177.722 L -354.681 177.723 L -354.705 178 L -354.705 178.001 L -354.681 178.278 L -354.681 178.278 L -354.609 178.547 L -354.608 178.548 L -354.491 178.8 L -354.49 178.8 L -354.331 179.028 L -354.33 179.029 L -354.134 179.226 L -354.133 179.226 L -353.905 179.386 L -353.905 179.386 L -353.652 179.504 L -353.652 179.504 L -353.383 179.576 L -353.382 179.576 L -353.105 179.6 L -353.105 179.6 L -352.827 179.576 L -352.827 179.576 L -352.558 179.504 L -352.557 179.503 L -352.305 179.386 L -352.305 179.385 L -352.077 179.226 L -352.076 179.225 L -351.879 179.028 L -351.879 179.028 L -351.719 178.8 L -351.719 178.799 L -351.602 178.547 L -351.601 178.547 L -351.529 178.278 L -351.529 178.277 L -351.505 178 L -351.505 177.999 L -351.529 177.722 L -351.53 177.722 L -351.602 177.453 L -351.602 177.452 L -351.719 177.2 L -351.72 177.2 L -351.879 176.972 L -351.88 176.971 L -352.077 176.774 L -352.077 176.774 L -352.305 176.614 L -352.306 176.614 L -352.558 176.496 L -352.558 176.496 L -352.827 176.424 L -352.828 176.424 L -353.105 176.4 L -353.106 176.4 L -353.383 176.424 L -353.383 176.424 L -353.652 176.496 L -353.653 176.497 L -353.905 176.614 L -353.906 176.615 L -354.134 176.774 L -354.134 176.775 L -354.331 176.972 L -354.331 176.972 L -354.491 177.2 L -354.491 177.201 L -354.609 177.453 z  M -283.429 284.47 L -283.481 284.5 L -283.481 314.44 L -283.481 314.5 L -257.552 329.47 L -257.5 329.5 L -231.571 314.53 L -231.519 314.5 L -231.519 284.56 L -231.519 284.5 L -257.448 269.53 L -257.5 269.5 z  M -124.609 221.453 L -124.681 221.722 L -124.681 221.723 L -124.705 222 L -124.705 222.001 L -124.681 222.278 L -124.681 222.278 L -124.609 222.547 L -124.608 222.548 L -124.491 222.8 L -124.49 222.8 L -124.331 223.028 L -124.33 223.029 L -124.134 223.226 L -124.133 223.226 L -123.905 223.386 L -123.905 223.386 L -123.652 223.504 L -123.652 223.504 L -123.383 223.576 L -123.382 223.576 L -123.105 223.6 L -123.105 223.6 L -122.827 223.576 L -122.827 223.576 L -122.558 223.504 L -122.557 223.503 L -122.305 223.386 L -122.305 223.385 L -122.077 223.226 L -122.076 223.225 L -121.879 223.028 L -121.879 223.028 L -121.719 222.8 L -121.719 222.799 L -121.602 222.547 L -121.601 222.547 L -121.529 222.278 L -121.529 222.277 L -121.505 222 L -121.505 221.999 L -121.529 221.722 L -121.53 221.722 L -121.602 221.453 L -121.602 221.452 L -121.719 221.2 L -121.72 221.2 L -121.879 220.972 L -121.88 220.971 L -122.077 220.774 L -122.077 220.774 L -122.305 220.614 L -122.306 220.614 L -122.558 220.496 L -122.558 220.496 L -122.827 220.424 L -122.828 220.424 L -123.105 220.4 L -123.106 220.4 L -123.383 220.424 L -123.383 220.424 L -123.652 220.496 L -123.653 220.497 L -123.905 220.614 L -123.906 220.615 L -124.134 220.774 L -124.134 220.775 L -124.331 220.972 L -124.331 220.972 L -124.491 221.2 L -124.491 221.201 L -124.609 221.453 z  M -297.109 276.953 L -297.181 277.222 L -297.181 277.223 L -297.205 277.5 L -297.205 277.501 L -297.181 277.778 L -297.181 277.778 L -297.109 278.047 L -297.108 278.048 L -296.991 278.3 L -296.99 278.3 L -296.831 278.528 L -296.83 278.529 L -296.634 278.726 L -296.633 278.726 L -296.405 278.886 L -296.405 278.886 L -296.152 279.004 L -296.152 279.004 L -295.883 279.076 L -295.882 279.076 L -295.605 279.1 L -295.605 279.1 L -295.327 279.076 L -295.327 279.076 L -295.058 279.004 L -295.057 279.003 L -294.805 278.886 L -294.805 278.885 L -294.577 278.726 L -294.576 278.725 L -294.379 278.528 L -294.379 278.528 L -294.219 278.3 L -294.219 278.299 L -294.102 278.047 L -294.101 278.047 L -294.029 277.778 L -294.029 277.777 L -294.005 277.5 L -294.005 277.499 L -294.029 277.222 L -294.03 277.222 L -294.102 276.953 L -294.102 276.952 L -294.219 276.7 L -294.22 276.7 L -294.379 276.472 L -294.38 276.471 L -294.577 276.274 L -294.577 276.274 L -294.805 276.114 L -294.806 276.114 L -295.058 275.996 L -295.058 275.996 L -295.327 275.924 L -295.328 275.924 L -295.605 275.9 L -295.606 275.9 L -295.883 275.924 L -295.883 275.924 L -296.152 275.996 L -296.153 275.997 L -296.405 276.114 L -296.406 276.115 L -296.634 276.274 L -296.634 276.275 L -296.831 276.472 L -296.831 276.472 L -296.991 276.7 L -296.991 276.701 L -297.109 276.953 z  M -220.899 77.9533 L -220.971 78.2222 L -220.971 78.2227 L -220.995 78.5 L -220.995 78.5006 L -220.971 78.7778 L -220.97 78.7784 L -220.898 79.0472 L -220.898 79.0477 L -220.781 79.3 L -220.78 79.3005 L -220.621 79.5285 L -220.62 79.5289 L -220.423 79.7257 L -220.423 79.726 L -220.195 79.8856 L -220.194 79.8859 L -219.942 80.0035 L -219.942 80.0037 L -219.673 80.0757 L -219.672 80.0757 L -219.395 80.1 L -219.394 80.1 L -219.117 80.0757 L -219.117 80.0756 L -218.848 80.0035 L -218.847 80.0033 L -218.595 79.8856 L -218.594 79.8853 L -218.366 79.7257 L -218.366 79.7253 L -218.169 79.5285 L -218.169 79.528 L -218.009 79.3 L -218.009 79.2995 L -217.891 79.0472 L -217.891 79.0467 L -217.819 78.7778 L -217.819 78.7773 L -217.795 78.5 L -217.795 78.4994 L -217.819 78.2222 L -217.819 78.2216 L -217.891 77.9528 L -217.892 77.9523 L -218.009 77.7 L -218.01 77.6995 L -218.169 77.4715 L -218.17 77.4711 L -218.366 77.2743 L -218.367 77.274 L -218.595 77.1144 L -218.595 77.1141 L -218.848 76.9965 L -218.848 76.9964 L -219.117 76.9243 L -219.118 76.9243 L -219.395 76.9 L -219.395 76.9 L -219.673 76.9243 L -219.673 76.9245 L -219.942 76.9965 L -219.943 76.9967 L -220.195 77.1144 L -220.195 77.1147 L -220.423 77.2743 L -220.424 77.2747 L -220.621 77.4715 L -220.621 77.472 L -220.781 77.7 L -220.781 77.7005 L -220.898 77.9528 z  M -144.004 254.953 L -144.076 255.222 L -144.076 255.223 L -144.1 255.5 L -144.1 255.501 L -144.076 255.778 L -144.076 255.778 L -144.004 256.047 L -144.003 256.048 L -143.886 256.3 L -143.885 256.3 L -143.726 256.528 L -143.725 256.529 L -143.528 256.726 L -143.528 256.726 L -143.3 256.886 L -143.299 256.886 L -143.047 257.004 L -143.047 257.004 L -142.778 257.076 L -142.777 257.076 L -142.5 257.1 L -142.499 257.1 L -142.222 257.076 L -142.222 257.076 L -141.953 257.004 L -141.952 257.003 L -141.7 256.886 L -141.7 256.885 L -141.472 256.726 L -141.471 256.725 L -141.274 256.528 L -141.274 256.528 L -141.114 256.3 L -141.114 256.299 L -140.996 256.047 L -140.996 256.047 L -140.924 255.778 L -140.924 255.777 L -140.9 255.5 L -140.9 255.499 L -140.924 255.222 L -140.924 255.222 L -140.996 254.953 L -140.997 254.952 L -141.114 254.7 L -141.115 254.7 L -141.274 254.472 L -141.275 254.471 L -141.472 254.274 L -141.472 254.274 L -141.7 254.114 L -141.701 254.114 L -141.953 253.996 L -141.953 253.996 L -142.222 253.924 L -142.223 253.924 L -142.5 253.9 L -142.501 253.9 L -142.778 253.924 L -142.778 253.924 L -143.047 253.996 L -143.048 253.997 L -143.3 254.114 L -143.3 254.115 L -143.528 254.274 L -143.529 254.275 L -143.726 254.472 L -143.726 254.472 L -143.886 254.7 L -143.886 254.701 L -144.004 254.953 z  M -201.504 243.453 L -201.576 243.722 L -201.576 243.723 L -201.6 244 L -201.6 244.001 L -201.576 244.278 L -201.576 244.278 L -201.504 244.547 L -201.503 244.548 L -201.386 244.8 L -201.385 244.8 L -201.226 245.028 L -201.225 245.029 L -201.028 245.226 L -201.028 245.226 L -200.8 245.386 L -200.799 245.386 L -200.547 245.504 L -200.547 245.504 L -200.278 245.576 L -200.277 245.576 L -200 245.6 L -199.999 245.6 L -199.722 245.576 L -199.722 245.576 L -199.453 245.504 L -199.452 245.503 L -199.2 245.386 L -199.2 245.385 L -198.972 245.226 L -198.971 245.225 L -198.774 245.028 L -198.774 245.028 L -198.614 244.8 L -198.614 244.799 L -198.496 244.547 L -198.496 244.547 L -198.424 244.278 L -198.424 244.277 L -198.4 244 L -198.4 243.999 L -198.424 243.722 L -198.424 243.722 L -198.496 243.453 L -198.497 243.452 L -198.614 243.2 L -198.615 243.2 L -198.774 242.972 L -198.775 242.971 L -198.972 242.774 L -198.972 242.774 L -199.2 242.614 L -199.201 242.614 L -199.453 242.496 L -199.453 242.496 L -199.722 242.424 L -199.723 242.424 L -200 242.4 L -200.001 242.4 L -200.278 242.424 L -200.278 242.424 L -200.547 242.496 L -200.548 242.497 L -200.8 242.614 L -200.8 242.615 L -201.028 242.774 L -201.029 242.775 L -201.226 242.972 L -201.226 242.972 L -201.386 243.2 L -201.386 243.201 L -201.504 243.453 z  M -144.004 55.9533 L -144.076 56.2222 L -144.076 56.2227 L -144.1 56.5 L -144.1 56.5006 L -144.076 56.7778 L -144.076 56.7784 L -144.004 57.0472 L -144.003 57.0477 L -143.886 57.3 L -143.885 57.3005 L -143.726 57.5285 L -143.725 57.5289 L -143.528 57.7257 L -143.528 57.726 L -143.3 57.8856 L -143.299 57.8859 L -143.047 58.0035 L -143.047 58.0036 L -142.778 58.0757 L -142.777 58.0757 L -142.5 58.1 L -142.499 58.1 L -142.222 58.0757 L -142.222 58.0755 L -141.953 58.0035 L -141.952 58.0033 L -141.7 57.8856 L -141.7 57.8853 L -141.472 57.7257 L -141.471 57.7253 L -141.274 57.5285 L -141.274 57.528 L -141.114 57.3 L -141.114 57.2995 L -140.996 57.0472 L -140.996 57.0467 L -140.924 56.7778 L -140.924 56.7773 L -140.9 56.5 L -140.9 56.4994 L -140.924 56.2222 L -140.924 56.2216 L -140.996 55.9528 L -140.997 55.9523 L -141.114 55.7 L -141.115 55.6995 L -141.274 55.4715 L -141.275 55.4711 L -141.472 55.2743 L -141.472 55.274 L -141.7 55.1144 L -141.701 55.1141 L -141.953 54.9965 L -141.953 54.9963 L -142.222 54.9243 L -142.223 54.9243 L -142.5 54.9 L -142.501 54.9 L -142.778 54.9243 L -142.778 54.9244 L -143.047 54.9965 L -143.048 54.9967 L -143.3 55.1144 L -143.3 55.1147 L -143.528 55.2743 L -143.529 55.2747 L -143.726 55.4715 L -143.726 55.472 L -143.886 55.7 L -143.886 55.7005 L -144.004 55.9528 z  M -316.504 155.453 L -316.576 155.722 L -316.576 155.723 L -316.6 156 L -316.6 156.001 L -316.576 156.278 L -316.576 156.278 L -316.504 156.547 L -316.503 156.548 L -316.386 156.8 L -316.385 156.8 L -316.226 157.028 L -316.225 157.029 L -316.028 157.226 L -316.028 157.226 L -315.8 157.386 L -315.799 157.386 L -315.547 157.504 L -315.547 157.504 L -315.278 157.576 L -315.277 157.576 L -315 157.6 L -314.999 157.6 L -314.722 157.576 L -314.722 157.576 L -314.453 157.504 L -314.452 157.503 L -314.2 157.386 L -314.2 157.385 L -313.972 157.226 L -313.971 157.225 L -313.774 157.028 L -313.774 157.028 L -313.614 156.8 L -313.614 156.799 L -313.496 156.547 L -313.496 156.547 L -313.424 156.278 L -313.424 156.277 L -313.4 156 L -313.4 155.999 L -313.424 155.722 L -313.424 155.722 L -313.496 155.453 L -313.497 155.452 L -313.614 155.2 L -313.615 155.2 L -313.774 154.972 L -313.775 154.971 L -313.972 154.774 L -313.972 154.774 L -314.2 154.614 L -314.201 154.614 L -314.453 154.496 L -314.453 154.496 L -314.722 154.424 L -314.723 154.424 L -315 154.4 L -315.001 154.4 L -315.278 154.424 L -315.278 154.424 L -315.547 154.496 L -315.548 154.497 L -315.8 154.614 L -315.8 154.615 L -316.028 154.774 L -316.029 154.775 L -316.226 154.972 L -316.226 154.972 L -316.386 155.2 L -316.386 155.201 L -316.504 155.453 z  M -86.5036 155.453 L -86.5757 155.722 L -86.5757 155.723 L -86.6 156 L -86.6 156.001 L -86.5757 156.278 L -86.5755 156.278 L -86.5035 156.547 L -86.5033 156.548 L -86.3856 156.8 L -86.3853 156.8 L -86.2257 157.028 L -86.2253 157.029 L -86.0285 157.226 L -86.028 157.226 L -85.8 157.386 L -85.7995 157.386 L -85.5472 157.504 L -85.5467 157.504 L -85.2778 157.576 L -85.2773 157.576 L -85 157.6 L -84.9994 157.6 L -84.7222 157.576 L -84.7216 157.576 L -84.4528 157.504 L -84.4523 157.503 L -84.2 157.386 L -84.1995 157.385 L -83.9715 157.226 L -83.9711 157.225 L -83.7743 157.028 L -83.774 157.028 L -83.6144 156.8 L -83.6141 156.799 L -83.4965 156.547 L -83.4964 156.547 L -83.4243 156.278 L -83.4243 156.277 L -83.4 156 L -83.4 155.999 L -83.4243 155.722 L -83.4245 155.722 L -83.4965 155.453 L -83.4967 155.452 L -83.6144 155.2 L -83.6147 155.2 L -83.7743 154.972 L -83.7747 154.971 L -83.9715 154.774 L -83.972 154.774 L -84.2 154.614 L -84.2005 154.614 L -84.4528 154.496 L -84.4533 154.496 L -84.7222 154.424 L -84.7227 154.424 L -85 154.4 L -85.0006 154.4 L -85.2778 154.424 L -85.2784 154.424 L -85.5472 154.496 L -85.5477 154.497 L -85.8 154.614 L -85.8005 154.615 L -86.0285 154.774 L -86.0289 154.775 L -86.2257 154.972 L -86.226 154.972 L -86.3856 155.2 L -86.3859 155.201 L -86.5035 155.453 z  M -297.109 320.953 L -297.181 321.222 L -297.181 321.223 L -297.205 321.5 L -297.205 321.501 L -297.181 321.778 L -297.181 321.778 L -297.109 322.047 L -297.108 322.048 L -296.991 322.3 L -296.99 322.3 L -296.831 322.528 L -296.83 322.529 L -296.634 322.726 L -296.633 322.726 L -296.405 322.886 L -296.405 322.886 L -296.152 323.004 L -296.152 323.004 L -295.883 323.076 L -295.882 323.076 L -295.605 323.1 L -295.605 323.1 L -295.327 323.076 L -295.327 323.076 L -295.058 323.004 L -295.057 323.003 L -294.805 322.886 L -294.805 322.885 L -294.577 322.726 L -294.576 322.725 L -294.379 322.528 L -294.379 322.528 L -294.219 322.3 L -294.219 322.299 L -294.102 322.047 L -294.101 322.047 L -294.029 321.778 L -294.029 321.777 L -294.005 321.5 L -294.005 321.499 L -294.029 321.222 L -294.03 321.222 L -294.102 320.953 L -294.102 320.952 L -294.219 320.7 L -294.22 320.7 L -294.379 320.472 L -294.38 320.471 L -294.577 320.274 L -294.577 320.274 L -294.805 320.114 L -294.806 320.114 L -295.058 319.996 L -295.058 319.996 L -295.327 319.924 L -295.328 319.924 L -295.605 319.9 L -295.606 319.9 L -295.883 319.924 L -295.883 319.924 L -296.152 319.996 L -296.153 319.997 L -296.405 320.114 L -296.406 320.115 L -296.634 320.274 L -296.634 320.275 L -296.831 320.472 L -296.831 320.472 L -296.991 320.7 L -296.991 320.7 L -297.109 320.953 z  M -297.109 77.9533 L -297.181 78.2222 L -297.181 78.2227 L -297.205 78.5 L -297.205 78.5006 L -297.181 78.7778 L -297.181 78.7784 L -297.109 79.0472 L -297.108 79.0477 L -296.991 79.3 L -296.99 79.3005 L -296.831 79.5285 L -296.83 79.5289 L -296.634 79.7257 L -296.633 79.726 L -296.405 79.8856 L -296.405 79.8859 L -296.152 80.0035 L -296.152 80.0037 L -295.883 80.0757 L -295.882 80.0757 L -295.605 80.1 L -295.605 80.1 L -295.327 80.0757 L -295.327 80.0756 L -295.058 80.0035 L -295.057 80.0033 L -294.805 79.8856 L -294.805 79.8853 L -294.577 79.7257 L -294.576 79.7253 L -294.379 79.5285 L -294.379 79.528 L -294.219 79.3 L -294.219 79.2995 L -294.102 79.0472 L -294.101 79.0467 L -294.029 78.7778 L -294.029 78.7773 L -294.005 78.5 L -294.005 78.4994 L -294.029 78.2222 L -294.03 78.2216 L -294.102 77.9528 L -294.102 77.9523 L -294.219 77.7 L -294.22 77.6995 L -294.379 77.4715 L -294.38 77.4711 L -294.577 77.2743 L -294.577 77.274 L -294.805 77.1144 L -294.806 77.1141 L -295.058 76.9965 L -295.058 76.9964 L -295.327 76.9243 L -295.328 76.9243 L -295.605 76.9 L -295.606 76.9 L -295.883 76.9243 L -295.883 76.9245 L -296.152 76.9965 L -296.153 76.9967 L -296.405 77.1144 L -296.406 77.1147 L -296.634 77.2743 L -296.634 77.2747 L -296.831 77.4715 L -296.831 77.472 L -296.991 77.7 L -296.991 77.7005 L -297.109 77.9528 z  M -105.899 276.953 L -105.971 277.222 L -105.971 277.223 L -105.995 277.5 L -105.995 277.501 L -105.971 277.778 L -105.97 277.778 L -105.898 278.047 L -105.898 278.048 L -105.781 278.3 L -105.78 278.3 L -105.621 278.528 L -105.62 278.529 L -105.423 278.726 L -105.423 278.726 L -105.195 278.886 L -105.194 278.886 L -104.942 279.004 L -104.942 279.004 L -104.673 279.076 L -104.672 279.076 L -104.395 279.1 L -104.394 279.1 L -104.117 279.076 L -104.117 279.076 L -103.848 279.004 L -103.847 279.003 L -103.595 278.886 L -103.594 278.885 L -103.366 278.726 L -103.366 278.725 L -103.169 278.528 L -103.169 278.528 L -103.009 278.3 L -103.009 278.299 L -102.891 278.047 L -102.891 278.047 L -102.819 277.778 L -102.819 277.777 L -102.795 277.5 L -102.795 277.499 L -102.819 277.222 L -102.819 277.222 L -102.891 276.953 L -102.892 276.952 L -103.009 276.7 L -103.01 276.7 L -103.169 276.472 L -103.17 276.471 L -103.366 276.274 L -103.367 276.274 L -103.595 276.114 L -103.595 276.114 L -103.848 275.996 L -103.848 275.996 L -104.117 275.924 L -104.118 275.924 L -104.395 275.9 L -104.395 275.9 L -104.673 275.924 L -104.673 275.924 L -104.942 275.996 L -104.943 275.997 L -105.195 276.114 L -105.195 276.115 L -105.423 276.274 L -105.424 276.275 L -105.621 276.472 L -105.621 276.472 L -105.781 276.7 L -105.781 276.701 L -105.898 276.953 z  M -239.609 221.453 L -239.681 221.722 L -239.681 221.723 L -239.705 222 L -239.705 222.001 L -239.681 222.278 L -239.681 222.278 L -239.609 222.547 L -239.608 222.548 L -239.491 222.8 L -239.49 222.8 L -239.331 223.028 L -239.33 223.029 L -239.134 223.226 L -239.133 223.226 L -238.905 223.386 L -238.905 223.386 L -238.652 223.504 L -238.652 223.504 L -238.383 223.576 L -238.382 223.576 L -238.105 223.6 L -238.105 223.6 L -237.827 223.576 L -237.827 223.576 L -237.558 223.504 L -237.557 223.503 L -237.305 223.386 L -237.305 223.385 L -237.077 223.226 L -237.076 223.225 L -236.879 223.028 L -236.879 223.028 L -236.719 222.8 L -236.719 222.799 L -236.602 222.547 L -236.601 222.547 L -236.529 222.278 L -236.529 222.277 L -236.505 222 L -236.505 221.999 L -236.529 221.722 L -236.53 221.722 L -236.602 221.453 L -236.602 221.452 L -236.719 221.2 L -236.72 221.2 L -236.879 220.972 L -236.88 220.971 L -237.077 220.774 L -237.077 220.774 L -237.305 220.614 L -237.306 220.614 L -237.558 220.496 L -237.558 220.496 L -237.827 220.424 L -237.828 220.424 L -238.105 220.4 L -238.106 220.4 L -238.383 220.424 L -238.383 220.424 L -238.652 220.496 L -238.653 220.497 L -238.905 220.614 L -238.906 220.615 L -239.134 220.774 L -239.134 220.775 L -239.331 220.972 L -239.331 220.972 L -239.491 221.2 L -239.491 221.201 L -239.609 221.453 z  M -182.109 77.9533 L -182.181 78.2222 L -182.181 78.2227 L -182.205 78.5 L -182.205 78.5006 L -182.181 78.7778 L -182.181 78.7784 L -182.109 79.0472 L -182.108 79.0477 L -181.991 79.3 L -181.99 79.3005 L -181.831 79.5285 L -181.83 79.5289 L -181.634 79.7257 L -181.633 79.726 L -181.405 79.8856 L -181.405 79.8859 L -181.152 80.0035 L -181.152 80.0037 L -180.883 80.0757 L -180.882 80.0757 L -180.605 80.1 L -180.605 80.1 L -180.327 80.0757 L -180.327 80.0756 L -180.058 80.0035 L -180.057 80.0033 L -179.805 79.8856 L -179.805 79.8853 L -179.577 79.7257 L -179.576 79.7253 L -179.379 79.5285 L -179.379 79.528 L -179.219 79.3 L -179.219 79.2995 L -179.102 79.0472 L -179.101 79.0467 L -179.029 78.7778 L -179.029 78.7773 L -179.005 78.5 L -179.005 78.4994 L -179.029 78.2222 L -179.03 78.2216 L -179.102 77.9528 L -179.102 77.9523 L -179.219 77.7 L -179.22 77.6995 L -179.379 77.4715 L -179.38 77.4711 L -179.577 77.2743 L -179.577 77.274 L -179.805 77.1144 L -179.806 77.1141 L -180.058 76.9965 L -180.058 76.9964 L -180.327 76.9243 L -180.328 76.9243 L -180.605 76.9 L -180.606 76.9 L -180.883 76.9243 L -180.883 76.9245 L -181.152 76.9965 L -181.153 76.9967 L -181.405 77.1144 L -181.406 77.1147 L -181.634 77.2743 L -181.634 77.2747 L -181.831 77.4715 L -181.831 77.472 L -181.991 77.7 L -181.991 77.7005 L -182.109 77.9528 z  M -354.609 221.453 L -354.681 221.722 L -354.681 221.723 L -354.705 222 L -354.705 222.001 L -354.681 222.278 L -354.681 222.278 L -354.609 222.547 L -354.608 222.548 L -354.491 222.8 L -354.49 222.8 L -354.331 223.028 L -354.33 223.029 L -354.134 223.226 L -354.133 223.226 L -353.905 223.386 L -353.905 223.386 L -353.652 223.504 L -353.652 223.504 L -353.383 223.576 L -353.382 223.576 L -353.105 223.6 L -353.105 223.6 L -352.827 223.576 L -352.827 223.576 L -352.558 223.504 L -352.557 223.503 L -352.305 223.386 L -352.305 223.385 L -352.077 223.226 L -352.076 223.225 L -351.879 223.028 L -351.879 223.028 L -351.719 222.8 L -351.719 222.799 L -351.602 222.547 L -351.601 222.547 L -351.529 222.278 L -351.529 222.277 L -351.505 222 L -351.505 221.999 L -351.529 221.722 L -351.53 221.722 L -351.602 221.453 L -351.602 221.452 L -351.719 221.2 L -351.72 221.2 L -351.879 220.972 L -351.88 220.971 L -352.077 220.774 L -352.077 220.774 L -352.305 220.614 L -352.306 220.614 L -352.558 220.496 L -352.558 220.496 L -352.827 220.424 L -352.828 220.424 L -353.105 220.4 L -353.106 220.4 L -353.383 220.424 L -353.383 220.424 L -353.652 220.496 L -353.653 220.497 L -353.905 220.614 L -353.906 220.615 L -354.134 220.774 L -354.134 220.775 L -354.331 220.972 L -354.331 220.972 L -354.491 221.2 L -354.491 221.201 L -354.609 221.453 z  " fill= "none" stroke="rgb(0,0,255)" stroke-width="0.05mm" />
</svg>
