G04 #@! TF.GenerationSoftware,KiCad,Pcbnew,(5.0.2)-1*
G04 #@! TF.CreationDate,2019-02-25T23:41:49+09:00*
G04 #@! TF.ProjectId,Land,4c616e64-2e6b-4696-9361-645f70636258,rev?*
G04 #@! TF.SameCoordinates,Original*
G04 #@! TF.FileFunction,Soldermask,Bot*
G04 #@! TF.FilePolarity,Negative*
%FSLAX46Y46*%
G04 Gerber Fmt 4.6, Leading zero omitted, Abs format (unit mm)*
G04 Created by KiCad (PCBNEW (5.0.2)-1) date 2019/02/25 23:41:49*
%MOMM*%
%LPD*%
G01*
G04 APERTURE LIST*
%ADD10C,0.100000*%
G04 APERTURE END LIST*
D10*
G36*
X170375256Y-143391298D02*
X170481579Y-143412447D01*
X170782042Y-143536903D01*
X171048852Y-143715180D01*
X171052454Y-143717587D01*
X171282413Y-143947546D01*
X171463098Y-144217960D01*
X171587553Y-144518422D01*
X171651000Y-144837389D01*
X171651000Y-145162611D01*
X171587553Y-145481578D01*
X171463098Y-145782040D01*
X171282413Y-146052454D01*
X171052454Y-146282413D01*
X171052451Y-146282415D01*
X170782042Y-146463097D01*
X170481579Y-146587553D01*
X170375256Y-146608702D01*
X170162611Y-146651000D01*
X169837389Y-146651000D01*
X169624744Y-146608702D01*
X169518421Y-146587553D01*
X169217958Y-146463097D01*
X168947549Y-146282415D01*
X168947546Y-146282413D01*
X168717587Y-146052454D01*
X168536902Y-145782040D01*
X168412447Y-145481578D01*
X168349000Y-145162611D01*
X168349000Y-144837389D01*
X168412447Y-144518422D01*
X168536902Y-144217960D01*
X168717587Y-143947546D01*
X168947546Y-143717587D01*
X168951148Y-143715180D01*
X169217958Y-143536903D01*
X169518421Y-143412447D01*
X169624744Y-143391298D01*
X169837389Y-143349000D01*
X170162611Y-143349000D01*
X170375256Y-143391298D01*
X170375256Y-143391298D01*
G37*
G36*
X90375256Y-143391298D02*
X90481579Y-143412447D01*
X90782042Y-143536903D01*
X91048852Y-143715180D01*
X91052454Y-143717587D01*
X91282413Y-143947546D01*
X91463098Y-144217960D01*
X91587553Y-144518422D01*
X91651000Y-144837389D01*
X91651000Y-145162611D01*
X91587553Y-145481578D01*
X91463098Y-145782040D01*
X91282413Y-146052454D01*
X91052454Y-146282413D01*
X91052451Y-146282415D01*
X90782042Y-146463097D01*
X90481579Y-146587553D01*
X90375256Y-146608702D01*
X90162611Y-146651000D01*
X89837389Y-146651000D01*
X89624744Y-146608702D01*
X89518421Y-146587553D01*
X89217958Y-146463097D01*
X88947549Y-146282415D01*
X88947546Y-146282413D01*
X88717587Y-146052454D01*
X88536902Y-145782040D01*
X88412447Y-145481578D01*
X88349000Y-145162611D01*
X88349000Y-144837389D01*
X88412447Y-144518422D01*
X88536902Y-144217960D01*
X88717587Y-143947546D01*
X88947546Y-143717587D01*
X88951148Y-143715180D01*
X89217958Y-143536903D01*
X89518421Y-143412447D01*
X89624744Y-143391298D01*
X89837389Y-143349000D01*
X90162611Y-143349000D01*
X90375256Y-143391298D01*
X90375256Y-143391298D01*
G37*
G36*
X113551000Y-133301000D02*
X111449000Y-133301000D01*
X111449000Y-131199000D01*
X113551000Y-131199000D01*
X113551000Y-133301000D01*
X113551000Y-133301000D01*
G37*
G36*
X118551000Y-133301000D02*
X116449000Y-133301000D01*
X116449000Y-131199000D01*
X118551000Y-131199000D01*
X118551000Y-133301000D01*
X118551000Y-133301000D01*
G37*
G36*
X128551000Y-133301000D02*
X126449000Y-133301000D01*
X126449000Y-131199000D01*
X128551000Y-131199000D01*
X128551000Y-133301000D01*
X128551000Y-133301000D01*
G37*
G36*
X123551000Y-133301000D02*
X121449000Y-133301000D01*
X121449000Y-131199000D01*
X123551000Y-131199000D01*
X123551000Y-133301000D01*
X123551000Y-133301000D01*
G37*
G36*
X113551000Y-128801000D02*
X111449000Y-128801000D01*
X111449000Y-126699000D01*
X113551000Y-126699000D01*
X113551000Y-128801000D01*
X113551000Y-128801000D01*
G37*
G36*
X118551000Y-128801000D02*
X116449000Y-128801000D01*
X116449000Y-126699000D01*
X118551000Y-126699000D01*
X118551000Y-128801000D01*
X118551000Y-128801000D01*
G37*
G36*
X123551000Y-128801000D02*
X121449000Y-128801000D01*
X121449000Y-126699000D01*
X123551000Y-126699000D01*
X123551000Y-128801000D01*
X123551000Y-128801000D01*
G37*
G36*
X128551000Y-128801000D02*
X126449000Y-128801000D01*
X126449000Y-126699000D01*
X128551000Y-126699000D01*
X128551000Y-128801000D01*
X128551000Y-128801000D01*
G37*
G36*
X170511000Y-124241000D02*
X169609000Y-124241000D01*
X169609000Y-123339000D01*
X170511000Y-123339000D01*
X170511000Y-124241000D01*
X170511000Y-124241000D01*
G37*
G36*
X170511000Y-122641000D02*
X169609000Y-122641000D01*
X169609000Y-121739000D01*
X170511000Y-121739000D01*
X170511000Y-122641000D01*
X170511000Y-122641000D01*
G37*
G36*
X169018000Y-118851000D02*
X168116000Y-118851000D01*
X168116000Y-117949000D01*
X169018000Y-117949000D01*
X169018000Y-118851000D01*
X169018000Y-118851000D01*
G37*
G36*
X170518000Y-118851000D02*
X169616000Y-118851000D01*
X169616000Y-117949000D01*
X170518000Y-117949000D01*
X170518000Y-118851000D01*
X170518000Y-118851000D01*
G37*
G36*
X172018000Y-118851000D02*
X171116000Y-118851000D01*
X171116000Y-117949000D01*
X172018000Y-117949000D01*
X172018000Y-118851000D01*
X172018000Y-118851000D01*
G37*
G36*
X172018000Y-117251000D02*
X171116000Y-117251000D01*
X171116000Y-116349000D01*
X172018000Y-116349000D01*
X172018000Y-117251000D01*
X172018000Y-117251000D01*
G37*
G36*
X170518000Y-117251000D02*
X169616000Y-117251000D01*
X169616000Y-116349000D01*
X170518000Y-116349000D01*
X170518000Y-117251000D01*
X170518000Y-117251000D01*
G37*
G36*
X169018000Y-117251000D02*
X168116000Y-117251000D01*
X168116000Y-116349000D01*
X169018000Y-116349000D01*
X169018000Y-117251000D01*
X169018000Y-117251000D01*
G37*
G36*
X172829198Y-110149954D02*
X172841450Y-110150556D01*
X172859869Y-110150556D01*
X172882149Y-110152750D01*
X172966236Y-110169476D01*
X172987655Y-110175974D01*
X173066871Y-110208785D01*
X173086607Y-110219335D01*
X173157897Y-110266969D01*
X173175208Y-110281176D01*
X173235824Y-110341792D01*
X173250031Y-110359103D01*
X173297665Y-110430393D01*
X173308215Y-110450129D01*
X173341026Y-110529345D01*
X173347524Y-110550764D01*
X173364250Y-110634851D01*
X173366444Y-110657131D01*
X173366444Y-110675550D01*
X173367046Y-110687802D01*
X173368852Y-110706140D01*
X173368852Y-111193860D01*
X173367263Y-111209999D01*
X173364347Y-111219611D01*
X173359612Y-111228469D01*
X173353237Y-111236237D01*
X173340798Y-111246446D01*
X173330432Y-111253372D01*
X173313105Y-111270698D01*
X173299490Y-111291073D01*
X173290112Y-111313711D01*
X173285331Y-111337745D01*
X173285331Y-111362249D01*
X173290111Y-111386283D01*
X173299487Y-111408922D01*
X173313101Y-111429297D01*
X173330427Y-111446624D01*
X173340796Y-111453552D01*
X173353237Y-111463763D01*
X173359612Y-111471531D01*
X173364347Y-111480389D01*
X173367263Y-111490001D01*
X173368852Y-111506140D01*
X173368852Y-111993861D01*
X173367046Y-112012198D01*
X173366444Y-112024450D01*
X173366444Y-112042869D01*
X173364250Y-112065149D01*
X173347524Y-112149236D01*
X173341026Y-112170655D01*
X173308215Y-112249871D01*
X173297665Y-112269607D01*
X173250031Y-112340897D01*
X173235824Y-112358208D01*
X173175208Y-112418824D01*
X173157897Y-112433031D01*
X173086607Y-112480665D01*
X173066871Y-112491215D01*
X172987655Y-112524026D01*
X172966236Y-112530524D01*
X172882149Y-112547250D01*
X172859869Y-112549444D01*
X172841450Y-112549444D01*
X172829198Y-112550046D01*
X172810861Y-112551852D01*
X172323139Y-112551852D01*
X172304802Y-112550046D01*
X172292550Y-112549444D01*
X172274131Y-112549444D01*
X172251851Y-112547250D01*
X172167764Y-112530524D01*
X172146345Y-112524026D01*
X172067129Y-112491215D01*
X172047393Y-112480665D01*
X171976103Y-112433031D01*
X171958792Y-112418824D01*
X171898176Y-112358208D01*
X171883969Y-112340897D01*
X171836335Y-112269607D01*
X171825785Y-112249871D01*
X171792974Y-112170655D01*
X171786476Y-112149236D01*
X171769750Y-112065149D01*
X171767556Y-112042869D01*
X171767556Y-112024450D01*
X171766954Y-112012198D01*
X171765148Y-111993861D01*
X171765148Y-111506140D01*
X171766737Y-111490001D01*
X171769653Y-111480389D01*
X171774388Y-111471531D01*
X171780763Y-111463763D01*
X171793202Y-111453554D01*
X171803568Y-111446628D01*
X171820895Y-111429302D01*
X171834510Y-111408927D01*
X171843888Y-111386289D01*
X171848669Y-111362255D01*
X171848669Y-111337751D01*
X171843889Y-111313717D01*
X171834513Y-111291078D01*
X171820899Y-111270703D01*
X171803573Y-111253376D01*
X171793204Y-111246448D01*
X171780763Y-111236237D01*
X171774388Y-111228469D01*
X171769653Y-111219611D01*
X171766737Y-111209999D01*
X171765148Y-111193860D01*
X171765148Y-110706140D01*
X171766954Y-110687802D01*
X171767556Y-110675550D01*
X171767556Y-110657131D01*
X171769750Y-110634851D01*
X171786476Y-110550764D01*
X171792974Y-110529345D01*
X171825785Y-110450129D01*
X171836335Y-110430393D01*
X171883969Y-110359103D01*
X171898176Y-110341792D01*
X171958792Y-110281176D01*
X171976103Y-110266969D01*
X172047393Y-110219335D01*
X172067129Y-110208785D01*
X172146345Y-110175974D01*
X172167764Y-110169476D01*
X172251851Y-110152750D01*
X172274131Y-110150556D01*
X172292550Y-110150556D01*
X172304802Y-110149954D01*
X172323140Y-110148148D01*
X172810860Y-110148148D01*
X172829198Y-110149954D01*
X172829198Y-110149954D01*
G37*
G36*
X167829198Y-110149954D02*
X167841450Y-110150556D01*
X167859869Y-110150556D01*
X167882149Y-110152750D01*
X167966236Y-110169476D01*
X167987655Y-110175974D01*
X168066871Y-110208785D01*
X168086607Y-110219335D01*
X168157897Y-110266969D01*
X168175208Y-110281176D01*
X168235824Y-110341792D01*
X168250031Y-110359103D01*
X168297665Y-110430393D01*
X168308215Y-110450129D01*
X168341026Y-110529345D01*
X168347524Y-110550764D01*
X168364250Y-110634851D01*
X168366444Y-110657131D01*
X168366444Y-110675550D01*
X168367046Y-110687802D01*
X168368852Y-110706140D01*
X168368852Y-111193860D01*
X168367263Y-111209999D01*
X168364347Y-111219611D01*
X168359612Y-111228469D01*
X168353237Y-111236237D01*
X168340798Y-111246446D01*
X168330432Y-111253372D01*
X168313105Y-111270698D01*
X168299490Y-111291073D01*
X168290112Y-111313711D01*
X168285331Y-111337745D01*
X168285331Y-111362249D01*
X168290111Y-111386283D01*
X168299487Y-111408922D01*
X168313101Y-111429297D01*
X168330427Y-111446624D01*
X168340796Y-111453552D01*
X168353237Y-111463763D01*
X168359612Y-111471531D01*
X168364347Y-111480389D01*
X168367263Y-111490001D01*
X168368852Y-111506140D01*
X168368852Y-111993861D01*
X168367046Y-112012198D01*
X168366444Y-112024450D01*
X168366444Y-112042869D01*
X168364250Y-112065149D01*
X168347524Y-112149236D01*
X168341026Y-112170655D01*
X168308215Y-112249871D01*
X168297665Y-112269607D01*
X168250031Y-112340897D01*
X168235824Y-112358208D01*
X168175208Y-112418824D01*
X168157897Y-112433031D01*
X168086607Y-112480665D01*
X168066871Y-112491215D01*
X167987655Y-112524026D01*
X167966236Y-112530524D01*
X167882149Y-112547250D01*
X167859869Y-112549444D01*
X167841450Y-112549444D01*
X167829198Y-112550046D01*
X167810861Y-112551852D01*
X167323139Y-112551852D01*
X167304802Y-112550046D01*
X167292550Y-112549444D01*
X167274131Y-112549444D01*
X167251851Y-112547250D01*
X167167764Y-112530524D01*
X167146345Y-112524026D01*
X167067129Y-112491215D01*
X167047393Y-112480665D01*
X166976103Y-112433031D01*
X166958792Y-112418824D01*
X166898176Y-112358208D01*
X166883969Y-112340897D01*
X166836335Y-112269607D01*
X166825785Y-112249871D01*
X166792974Y-112170655D01*
X166786476Y-112149236D01*
X166769750Y-112065149D01*
X166767556Y-112042869D01*
X166767556Y-112024450D01*
X166766954Y-112012198D01*
X166765148Y-111993861D01*
X166765148Y-111506140D01*
X166766737Y-111490001D01*
X166769653Y-111480389D01*
X166774388Y-111471531D01*
X166780763Y-111463763D01*
X166793202Y-111453554D01*
X166803568Y-111446628D01*
X166820895Y-111429302D01*
X166834510Y-111408927D01*
X166843888Y-111386289D01*
X166848669Y-111362255D01*
X166848669Y-111337751D01*
X166843889Y-111313717D01*
X166834513Y-111291078D01*
X166820899Y-111270703D01*
X166803573Y-111253376D01*
X166793204Y-111246448D01*
X166780763Y-111236237D01*
X166774388Y-111228469D01*
X166769653Y-111219611D01*
X166766737Y-111209999D01*
X166765148Y-111193860D01*
X166765148Y-110706140D01*
X166766954Y-110687802D01*
X166767556Y-110675550D01*
X166767556Y-110657131D01*
X166769750Y-110634851D01*
X166786476Y-110550764D01*
X166792974Y-110529345D01*
X166825785Y-110450129D01*
X166836335Y-110430393D01*
X166883969Y-110359103D01*
X166898176Y-110341792D01*
X166958792Y-110281176D01*
X166976103Y-110266969D01*
X167047393Y-110219335D01*
X167067129Y-110208785D01*
X167146345Y-110175974D01*
X167167764Y-110169476D01*
X167251851Y-110152750D01*
X167274131Y-110150556D01*
X167292550Y-110150556D01*
X167304802Y-110149954D01*
X167323140Y-110148148D01*
X167810860Y-110148148D01*
X167829198Y-110149954D01*
X167829198Y-110149954D01*
G37*
G36*
X170329198Y-110149954D02*
X170341450Y-110150556D01*
X170359869Y-110150556D01*
X170382149Y-110152750D01*
X170466236Y-110169476D01*
X170487655Y-110175974D01*
X170566871Y-110208785D01*
X170586607Y-110219335D01*
X170657897Y-110266969D01*
X170675208Y-110281176D01*
X170735824Y-110341792D01*
X170750031Y-110359103D01*
X170797665Y-110430393D01*
X170808215Y-110450129D01*
X170841026Y-110529345D01*
X170847524Y-110550764D01*
X170864250Y-110634851D01*
X170866444Y-110657131D01*
X170866444Y-110675550D01*
X170867046Y-110687802D01*
X170868852Y-110706140D01*
X170868852Y-111193860D01*
X170867263Y-111209999D01*
X170864347Y-111219611D01*
X170859612Y-111228469D01*
X170853237Y-111236237D01*
X170840798Y-111246446D01*
X170830432Y-111253372D01*
X170813105Y-111270698D01*
X170799490Y-111291073D01*
X170790112Y-111313711D01*
X170785331Y-111337745D01*
X170785331Y-111362249D01*
X170790111Y-111386283D01*
X170799487Y-111408922D01*
X170813101Y-111429297D01*
X170830427Y-111446624D01*
X170840796Y-111453552D01*
X170853237Y-111463763D01*
X170859612Y-111471531D01*
X170864347Y-111480389D01*
X170867263Y-111490001D01*
X170868852Y-111506140D01*
X170868852Y-111993861D01*
X170867046Y-112012198D01*
X170866444Y-112024450D01*
X170866444Y-112042869D01*
X170864250Y-112065149D01*
X170847524Y-112149236D01*
X170841026Y-112170655D01*
X170808215Y-112249871D01*
X170797665Y-112269607D01*
X170750031Y-112340897D01*
X170735824Y-112358208D01*
X170675208Y-112418824D01*
X170657897Y-112433031D01*
X170586607Y-112480665D01*
X170566871Y-112491215D01*
X170487655Y-112524026D01*
X170466236Y-112530524D01*
X170382149Y-112547250D01*
X170359869Y-112549444D01*
X170341450Y-112549444D01*
X170329198Y-112550046D01*
X170310861Y-112551852D01*
X169823139Y-112551852D01*
X169804802Y-112550046D01*
X169792550Y-112549444D01*
X169774131Y-112549444D01*
X169751851Y-112547250D01*
X169667764Y-112530524D01*
X169646345Y-112524026D01*
X169567129Y-112491215D01*
X169547393Y-112480665D01*
X169476103Y-112433031D01*
X169458792Y-112418824D01*
X169398176Y-112358208D01*
X169383969Y-112340897D01*
X169336335Y-112269607D01*
X169325785Y-112249871D01*
X169292974Y-112170655D01*
X169286476Y-112149236D01*
X169269750Y-112065149D01*
X169267556Y-112042869D01*
X169267556Y-112024450D01*
X169266954Y-112012198D01*
X169265148Y-111993861D01*
X169265148Y-111506140D01*
X169266737Y-111490001D01*
X169269653Y-111480389D01*
X169274388Y-111471531D01*
X169280763Y-111463763D01*
X169293202Y-111453554D01*
X169303568Y-111446628D01*
X169320895Y-111429302D01*
X169334510Y-111408927D01*
X169343888Y-111386289D01*
X169348669Y-111362255D01*
X169348669Y-111337751D01*
X169343889Y-111313717D01*
X169334513Y-111291078D01*
X169320899Y-111270703D01*
X169303573Y-111253376D01*
X169293204Y-111246448D01*
X169280763Y-111236237D01*
X169274388Y-111228469D01*
X169269653Y-111219611D01*
X169266737Y-111209999D01*
X169265148Y-111193860D01*
X169265148Y-110706140D01*
X169266954Y-110687802D01*
X169267556Y-110675550D01*
X169267556Y-110657131D01*
X169269750Y-110634851D01*
X169286476Y-110550764D01*
X169292974Y-110529345D01*
X169325785Y-110450129D01*
X169336335Y-110430393D01*
X169383969Y-110359103D01*
X169398176Y-110341792D01*
X169458792Y-110281176D01*
X169476103Y-110266969D01*
X169547393Y-110219335D01*
X169567129Y-110208785D01*
X169646345Y-110175974D01*
X169667764Y-110169476D01*
X169751851Y-110152750D01*
X169774131Y-110150556D01*
X169792550Y-110150556D01*
X169804802Y-110149954D01*
X169823140Y-110148148D01*
X170310860Y-110148148D01*
X170329198Y-110149954D01*
X170329198Y-110149954D01*
G37*
G36*
X166351000Y-107106000D02*
X164249000Y-107106000D01*
X164249000Y-106404000D01*
X166351000Y-106404000D01*
X166351000Y-107106000D01*
X166351000Y-107106000D01*
G37*
G36*
X175751000Y-107106000D02*
X173649000Y-107106000D01*
X173649000Y-106404000D01*
X175751000Y-106404000D01*
X175751000Y-107106000D01*
X175751000Y-107106000D01*
G37*
G36*
X166351000Y-105836000D02*
X164249000Y-105836000D01*
X164249000Y-105134000D01*
X166351000Y-105134000D01*
X166351000Y-105836000D01*
X166351000Y-105836000D01*
G37*
G36*
X175751000Y-105836000D02*
X173649000Y-105836000D01*
X173649000Y-105134000D01*
X175751000Y-105134000D01*
X175751000Y-105836000D01*
X175751000Y-105836000D01*
G37*
G36*
X175751000Y-104566000D02*
X173649000Y-104566000D01*
X173649000Y-103864000D01*
X175751000Y-103864000D01*
X175751000Y-104566000D01*
X175751000Y-104566000D01*
G37*
G36*
X166351000Y-104566000D02*
X164249000Y-104566000D01*
X164249000Y-103864000D01*
X166351000Y-103864000D01*
X166351000Y-104566000D01*
X166351000Y-104566000D01*
G37*
G36*
X133551000Y-103301000D02*
X131449000Y-103301000D01*
X131449000Y-101199000D01*
X133551000Y-101199000D01*
X133551000Y-103301000D01*
X133551000Y-103301000D01*
G37*
G36*
X138551000Y-103301000D02*
X136449000Y-103301000D01*
X136449000Y-101199000D01*
X138551000Y-101199000D01*
X138551000Y-103301000D01*
X138551000Y-103301000D01*
G37*
G36*
X143551000Y-103301000D02*
X141449000Y-103301000D01*
X141449000Y-101199000D01*
X143551000Y-101199000D01*
X143551000Y-103301000D01*
X143551000Y-103301000D01*
G37*
G36*
X148551000Y-103301000D02*
X146449000Y-103301000D01*
X146449000Y-101199000D01*
X148551000Y-101199000D01*
X148551000Y-103301000D01*
X148551000Y-103301000D01*
G37*
G36*
X175751000Y-103296000D02*
X173649000Y-103296000D01*
X173649000Y-102594000D01*
X175751000Y-102594000D01*
X175751000Y-103296000D01*
X175751000Y-103296000D01*
G37*
G36*
X166351000Y-103296000D02*
X164249000Y-103296000D01*
X164249000Y-102594000D01*
X166351000Y-102594000D01*
X166351000Y-103296000D01*
X166351000Y-103296000D01*
G37*
G36*
X166351000Y-102026000D02*
X164249000Y-102026000D01*
X164249000Y-101324000D01*
X166351000Y-101324000D01*
X166351000Y-102026000D01*
X166351000Y-102026000D01*
G37*
G36*
X175751000Y-102026000D02*
X173649000Y-102026000D01*
X173649000Y-101324000D01*
X175751000Y-101324000D01*
X175751000Y-102026000D01*
X175751000Y-102026000D01*
G37*
G36*
X175751000Y-100756000D02*
X173649000Y-100756000D01*
X173649000Y-100054000D01*
X175751000Y-100054000D01*
X175751000Y-100756000D01*
X175751000Y-100756000D01*
G37*
G36*
X166351000Y-100756000D02*
X164249000Y-100756000D01*
X164249000Y-100054000D01*
X166351000Y-100054000D01*
X166351000Y-100756000D01*
X166351000Y-100756000D01*
G37*
G36*
X175751000Y-99486000D02*
X173649000Y-99486000D01*
X173649000Y-98784000D01*
X175751000Y-98784000D01*
X175751000Y-99486000D01*
X175751000Y-99486000D01*
G37*
G36*
X166351000Y-99486000D02*
X164249000Y-99486000D01*
X164249000Y-98784000D01*
X166351000Y-98784000D01*
X166351000Y-99486000D01*
X166351000Y-99486000D01*
G37*
G36*
X138551000Y-98801000D02*
X136449000Y-98801000D01*
X136449000Y-96699000D01*
X138551000Y-96699000D01*
X138551000Y-98801000D01*
X138551000Y-98801000D01*
G37*
G36*
X148551000Y-98801000D02*
X146449000Y-98801000D01*
X146449000Y-96699000D01*
X148551000Y-96699000D01*
X148551000Y-98801000D01*
X148551000Y-98801000D01*
G37*
G36*
X133551000Y-98801000D02*
X131449000Y-98801000D01*
X131449000Y-96699000D01*
X133551000Y-96699000D01*
X133551000Y-98801000D01*
X133551000Y-98801000D01*
G37*
G36*
X143551000Y-98801000D02*
X141449000Y-98801000D01*
X141449000Y-96699000D01*
X143551000Y-96699000D01*
X143551000Y-98801000D01*
X143551000Y-98801000D01*
G37*
G36*
X166351000Y-98216000D02*
X164249000Y-98216000D01*
X164249000Y-97514000D01*
X166351000Y-97514000D01*
X166351000Y-98216000D01*
X166351000Y-98216000D01*
G37*
G36*
X175751000Y-98216000D02*
X173649000Y-98216000D01*
X173649000Y-97514000D01*
X175751000Y-97514000D01*
X175751000Y-98216000D01*
X175751000Y-98216000D01*
G37*
G36*
X175751000Y-96946000D02*
X173649000Y-96946000D01*
X173649000Y-96244000D01*
X175751000Y-96244000D01*
X175751000Y-96946000D01*
X175751000Y-96946000D01*
G37*
G36*
X166351000Y-96946000D02*
X164249000Y-96946000D01*
X164249000Y-96244000D01*
X166351000Y-96244000D01*
X166351000Y-96946000D01*
X166351000Y-96946000D01*
G37*
G36*
X175751000Y-95676000D02*
X173649000Y-95676000D01*
X173649000Y-94974000D01*
X175751000Y-94974000D01*
X175751000Y-95676000D01*
X175751000Y-95676000D01*
G37*
G36*
X166351000Y-95676000D02*
X164249000Y-95676000D01*
X164249000Y-94974000D01*
X166351000Y-94974000D01*
X166351000Y-95676000D01*
X166351000Y-95676000D01*
G37*
G36*
X175751000Y-94406000D02*
X173649000Y-94406000D01*
X173649000Y-93704000D01*
X175751000Y-93704000D01*
X175751000Y-94406000D01*
X175751000Y-94406000D01*
G37*
G36*
X166351000Y-94406000D02*
X164249000Y-94406000D01*
X164249000Y-93704000D01*
X166351000Y-93704000D01*
X166351000Y-94406000D01*
X166351000Y-94406000D01*
G37*
G36*
X166351000Y-93136000D02*
X164249000Y-93136000D01*
X164249000Y-92434000D01*
X166351000Y-92434000D01*
X166351000Y-93136000D01*
X166351000Y-93136000D01*
G37*
G36*
X175751000Y-93136000D02*
X173649000Y-93136000D01*
X173649000Y-92434000D01*
X175751000Y-92434000D01*
X175751000Y-93136000D01*
X175751000Y-93136000D01*
G37*
G36*
X175751000Y-91866000D02*
X173649000Y-91866000D01*
X173649000Y-91164000D01*
X175751000Y-91164000D01*
X175751000Y-91866000D01*
X175751000Y-91866000D01*
G37*
G36*
X166351000Y-91866000D02*
X164249000Y-91866000D01*
X164249000Y-91164000D01*
X166351000Y-91164000D01*
X166351000Y-91866000D01*
X166351000Y-91866000D01*
G37*
G36*
X166351000Y-90596000D02*
X164249000Y-90596000D01*
X164249000Y-89894000D01*
X166351000Y-89894000D01*
X166351000Y-90596000D01*
X166351000Y-90596000D01*
G37*
G36*
X175751000Y-90596000D02*
X173649000Y-90596000D01*
X173649000Y-89894000D01*
X175751000Y-89894000D01*
X175751000Y-90596000D01*
X175751000Y-90596000D01*
G37*
G36*
X171251000Y-86951000D02*
X170349000Y-86951000D01*
X170349000Y-86049000D01*
X171251000Y-86049000D01*
X171251000Y-86951000D01*
X171251000Y-86951000D01*
G37*
G36*
X169651000Y-86951000D02*
X168749000Y-86951000D01*
X168749000Y-86049000D01*
X169651000Y-86049000D01*
X169651000Y-86951000D01*
X169651000Y-86951000D01*
G37*
G36*
X113551000Y-73301000D02*
X111449000Y-73301000D01*
X111449000Y-71199000D01*
X113551000Y-71199000D01*
X113551000Y-73301000D01*
X113551000Y-73301000D01*
G37*
G36*
X128551000Y-73301000D02*
X126449000Y-73301000D01*
X126449000Y-71199000D01*
X128551000Y-71199000D01*
X128551000Y-73301000D01*
X128551000Y-73301000D01*
G37*
G36*
X118551000Y-73301000D02*
X116449000Y-73301000D01*
X116449000Y-71199000D01*
X118551000Y-71199000D01*
X118551000Y-73301000D01*
X118551000Y-73301000D01*
G37*
G36*
X123551000Y-73301000D02*
X121449000Y-73301000D01*
X121449000Y-71199000D01*
X123551000Y-71199000D01*
X123551000Y-73301000D01*
X123551000Y-73301000D01*
G37*
G36*
X105262198Y-68949954D02*
X105274450Y-68950556D01*
X105292869Y-68950556D01*
X105315149Y-68952750D01*
X105399236Y-68969476D01*
X105420655Y-68975974D01*
X105499871Y-69008785D01*
X105519607Y-69019335D01*
X105590897Y-69066969D01*
X105608208Y-69081176D01*
X105668824Y-69141792D01*
X105683031Y-69159103D01*
X105730665Y-69230393D01*
X105741215Y-69250129D01*
X105774026Y-69329345D01*
X105780524Y-69350764D01*
X105797250Y-69434851D01*
X105799444Y-69457131D01*
X105799444Y-69475550D01*
X105800046Y-69487802D01*
X105801852Y-69506140D01*
X105801852Y-69993860D01*
X105800263Y-70009999D01*
X105797347Y-70019611D01*
X105792612Y-70028469D01*
X105786237Y-70036237D01*
X105773798Y-70046446D01*
X105763432Y-70053372D01*
X105746105Y-70070698D01*
X105732490Y-70091073D01*
X105723112Y-70113711D01*
X105718331Y-70137745D01*
X105718331Y-70162249D01*
X105723111Y-70186283D01*
X105732487Y-70208922D01*
X105746101Y-70229297D01*
X105763427Y-70246624D01*
X105773796Y-70253552D01*
X105786237Y-70263763D01*
X105792612Y-70271531D01*
X105797347Y-70280389D01*
X105800263Y-70290001D01*
X105801852Y-70306140D01*
X105801852Y-70793861D01*
X105800046Y-70812198D01*
X105799444Y-70824450D01*
X105799444Y-70842869D01*
X105797250Y-70865149D01*
X105780524Y-70949236D01*
X105774026Y-70970655D01*
X105741215Y-71049871D01*
X105730665Y-71069607D01*
X105683031Y-71140897D01*
X105668824Y-71158208D01*
X105608208Y-71218824D01*
X105590897Y-71233031D01*
X105519607Y-71280665D01*
X105499871Y-71291215D01*
X105420655Y-71324026D01*
X105399236Y-71330524D01*
X105315149Y-71347250D01*
X105292869Y-71349444D01*
X105274450Y-71349444D01*
X105262198Y-71350046D01*
X105243861Y-71351852D01*
X104756139Y-71351852D01*
X104737802Y-71350046D01*
X104725550Y-71349444D01*
X104707131Y-71349444D01*
X104684851Y-71347250D01*
X104600764Y-71330524D01*
X104579345Y-71324026D01*
X104500129Y-71291215D01*
X104480393Y-71280665D01*
X104409103Y-71233031D01*
X104391792Y-71218824D01*
X104331176Y-71158208D01*
X104316969Y-71140897D01*
X104269335Y-71069607D01*
X104258785Y-71049871D01*
X104225974Y-70970655D01*
X104219476Y-70949236D01*
X104202750Y-70865149D01*
X104200556Y-70842869D01*
X104200556Y-70824450D01*
X104199954Y-70812198D01*
X104198148Y-70793861D01*
X104198148Y-70306140D01*
X104199737Y-70290001D01*
X104202653Y-70280389D01*
X104207388Y-70271531D01*
X104213763Y-70263763D01*
X104226202Y-70253554D01*
X104236568Y-70246628D01*
X104253895Y-70229302D01*
X104267510Y-70208927D01*
X104276888Y-70186289D01*
X104281669Y-70162255D01*
X104281669Y-70137751D01*
X104276889Y-70113717D01*
X104267513Y-70091078D01*
X104253899Y-70070703D01*
X104236573Y-70053376D01*
X104226204Y-70046448D01*
X104213763Y-70036237D01*
X104207388Y-70028469D01*
X104202653Y-70019611D01*
X104199737Y-70009999D01*
X104198148Y-69993860D01*
X104198148Y-69506140D01*
X104199954Y-69487802D01*
X104200556Y-69475550D01*
X104200556Y-69457131D01*
X104202750Y-69434851D01*
X104219476Y-69350764D01*
X104225974Y-69329345D01*
X104258785Y-69250129D01*
X104269335Y-69230393D01*
X104316969Y-69159103D01*
X104331176Y-69141792D01*
X104391792Y-69081176D01*
X104409103Y-69066969D01*
X104480393Y-69019335D01*
X104500129Y-69008785D01*
X104579345Y-68975974D01*
X104600764Y-68969476D01*
X104684851Y-68952750D01*
X104707131Y-68950556D01*
X104725550Y-68950556D01*
X104737802Y-68949954D01*
X104756140Y-68948148D01*
X105243860Y-68948148D01*
X105262198Y-68949954D01*
X105262198Y-68949954D01*
G37*
G36*
X102762198Y-68949954D02*
X102774450Y-68950556D01*
X102792869Y-68950556D01*
X102815149Y-68952750D01*
X102899236Y-68969476D01*
X102920655Y-68975974D01*
X102999871Y-69008785D01*
X103019607Y-69019335D01*
X103090897Y-69066969D01*
X103108208Y-69081176D01*
X103168824Y-69141792D01*
X103183031Y-69159103D01*
X103230665Y-69230393D01*
X103241215Y-69250129D01*
X103274026Y-69329345D01*
X103280524Y-69350764D01*
X103297250Y-69434851D01*
X103299444Y-69457131D01*
X103299444Y-69475550D01*
X103300046Y-69487802D01*
X103301852Y-69506140D01*
X103301852Y-69993860D01*
X103300263Y-70009999D01*
X103297347Y-70019611D01*
X103292612Y-70028469D01*
X103286237Y-70036237D01*
X103273798Y-70046446D01*
X103263432Y-70053372D01*
X103246105Y-70070698D01*
X103232490Y-70091073D01*
X103223112Y-70113711D01*
X103218331Y-70137745D01*
X103218331Y-70162249D01*
X103223111Y-70186283D01*
X103232487Y-70208922D01*
X103246101Y-70229297D01*
X103263427Y-70246624D01*
X103273796Y-70253552D01*
X103286237Y-70263763D01*
X103292612Y-70271531D01*
X103297347Y-70280389D01*
X103300263Y-70290001D01*
X103301852Y-70306140D01*
X103301852Y-70793861D01*
X103300046Y-70812198D01*
X103299444Y-70824450D01*
X103299444Y-70842869D01*
X103297250Y-70865149D01*
X103280524Y-70949236D01*
X103274026Y-70970655D01*
X103241215Y-71049871D01*
X103230665Y-71069607D01*
X103183031Y-71140897D01*
X103168824Y-71158208D01*
X103108208Y-71218824D01*
X103090897Y-71233031D01*
X103019607Y-71280665D01*
X102999871Y-71291215D01*
X102920655Y-71324026D01*
X102899236Y-71330524D01*
X102815149Y-71347250D01*
X102792869Y-71349444D01*
X102774450Y-71349444D01*
X102762198Y-71350046D01*
X102743861Y-71351852D01*
X102256139Y-71351852D01*
X102237802Y-71350046D01*
X102225550Y-71349444D01*
X102207131Y-71349444D01*
X102184851Y-71347250D01*
X102100764Y-71330524D01*
X102079345Y-71324026D01*
X102000129Y-71291215D01*
X101980393Y-71280665D01*
X101909103Y-71233031D01*
X101891792Y-71218824D01*
X101831176Y-71158208D01*
X101816969Y-71140897D01*
X101769335Y-71069607D01*
X101758785Y-71049871D01*
X101725974Y-70970655D01*
X101719476Y-70949236D01*
X101702750Y-70865149D01*
X101700556Y-70842869D01*
X101700556Y-70824450D01*
X101699954Y-70812198D01*
X101698148Y-70793861D01*
X101698148Y-70306140D01*
X101699737Y-70290001D01*
X101702653Y-70280389D01*
X101707388Y-70271531D01*
X101713763Y-70263763D01*
X101726202Y-70253554D01*
X101736568Y-70246628D01*
X101753895Y-70229302D01*
X101767510Y-70208927D01*
X101776888Y-70186289D01*
X101781669Y-70162255D01*
X101781669Y-70137751D01*
X101776889Y-70113717D01*
X101767513Y-70091078D01*
X101753899Y-70070703D01*
X101736573Y-70053376D01*
X101726204Y-70046448D01*
X101713763Y-70036237D01*
X101707388Y-70028469D01*
X101702653Y-70019611D01*
X101699737Y-70009999D01*
X101698148Y-69993860D01*
X101698148Y-69506140D01*
X101699954Y-69487802D01*
X101700556Y-69475550D01*
X101700556Y-69457131D01*
X101702750Y-69434851D01*
X101719476Y-69350764D01*
X101725974Y-69329345D01*
X101758785Y-69250129D01*
X101769335Y-69230393D01*
X101816969Y-69159103D01*
X101831176Y-69141792D01*
X101891792Y-69081176D01*
X101909103Y-69066969D01*
X101980393Y-69019335D01*
X102000129Y-69008785D01*
X102079345Y-68975974D01*
X102100764Y-68969476D01*
X102184851Y-68952750D01*
X102207131Y-68950556D01*
X102225550Y-68950556D01*
X102237802Y-68949954D01*
X102256140Y-68948148D01*
X102743860Y-68948148D01*
X102762198Y-68949954D01*
X102762198Y-68949954D01*
G37*
G36*
X95248228Y-69181703D02*
X95403100Y-69245853D01*
X95542481Y-69338985D01*
X95661015Y-69457519D01*
X95754147Y-69596900D01*
X95818297Y-69751772D01*
X95851000Y-69916184D01*
X95851000Y-70083816D01*
X95818297Y-70248228D01*
X95754147Y-70403100D01*
X95661015Y-70542481D01*
X95542481Y-70661015D01*
X95403100Y-70754147D01*
X95248228Y-70818297D01*
X95083816Y-70851000D01*
X94916184Y-70851000D01*
X94751772Y-70818297D01*
X94596900Y-70754147D01*
X94457519Y-70661015D01*
X94338985Y-70542481D01*
X94245853Y-70403100D01*
X94181703Y-70248228D01*
X94149000Y-70083816D01*
X94149000Y-69916184D01*
X94181703Y-69751772D01*
X94245853Y-69596900D01*
X94338985Y-69457519D01*
X94457519Y-69338985D01*
X94596900Y-69245853D01*
X94751772Y-69181703D01*
X94916184Y-69149000D01*
X95083816Y-69149000D01*
X95248228Y-69181703D01*
X95248228Y-69181703D01*
G37*
G36*
X98351000Y-70851000D02*
X96649000Y-70851000D01*
X96649000Y-69149000D01*
X98351000Y-69149000D01*
X98351000Y-70851000D01*
X98351000Y-70851000D01*
G37*
G36*
X148313000Y-70813000D02*
X146687000Y-70813000D01*
X146687000Y-69187000D01*
X148313000Y-69187000D01*
X148313000Y-70813000D01*
X148313000Y-70813000D01*
G37*
G36*
X157737142Y-69218242D02*
X157885102Y-69279530D01*
X157952130Y-69324317D01*
X157991712Y-69350764D01*
X158018258Y-69368502D01*
X158131498Y-69481742D01*
X158220470Y-69614898D01*
X158281758Y-69762858D01*
X158313000Y-69919925D01*
X158313000Y-70080075D01*
X158281758Y-70237142D01*
X158220470Y-70385102D01*
X158131498Y-70518258D01*
X158018258Y-70631498D01*
X157885102Y-70720470D01*
X157737142Y-70781758D01*
X157580075Y-70813000D01*
X157419925Y-70813000D01*
X157262858Y-70781758D01*
X157114898Y-70720470D01*
X156981742Y-70631498D01*
X156868502Y-70518258D01*
X156779530Y-70385102D01*
X156718242Y-70237142D01*
X156687000Y-70080075D01*
X156687000Y-69919925D01*
X156718242Y-69762858D01*
X156779530Y-69614898D01*
X156868502Y-69481742D01*
X156981742Y-69368502D01*
X157008289Y-69350764D01*
X157047870Y-69324317D01*
X157114898Y-69279530D01*
X157262858Y-69218242D01*
X157419925Y-69187000D01*
X157580075Y-69187000D01*
X157737142Y-69218242D01*
X157737142Y-69218242D01*
G37*
G36*
X123551000Y-68801000D02*
X121449000Y-68801000D01*
X121449000Y-66699000D01*
X123551000Y-66699000D01*
X123551000Y-68801000D01*
X123551000Y-68801000D01*
G37*
G36*
X113551000Y-68801000D02*
X111449000Y-68801000D01*
X111449000Y-66699000D01*
X113551000Y-66699000D01*
X113551000Y-68801000D01*
X113551000Y-68801000D01*
G37*
G36*
X118551000Y-68801000D02*
X116449000Y-68801000D01*
X116449000Y-66699000D01*
X118551000Y-66699000D01*
X118551000Y-68801000D01*
X118551000Y-68801000D01*
G37*
G36*
X128551000Y-68801000D02*
X126449000Y-68801000D01*
X126449000Y-66699000D01*
X128551000Y-66699000D01*
X128551000Y-68801000D01*
X128551000Y-68801000D01*
G37*
G36*
X170375256Y-63391298D02*
X170481579Y-63412447D01*
X170782042Y-63536903D01*
X170952800Y-63651000D01*
X171052454Y-63717587D01*
X171282413Y-63947546D01*
X171463098Y-64217960D01*
X171587553Y-64518422D01*
X171651000Y-64837389D01*
X171651000Y-65162611D01*
X171587553Y-65481578D01*
X171463098Y-65782040D01*
X171282413Y-66052454D01*
X171052454Y-66282413D01*
X171052451Y-66282415D01*
X170782042Y-66463097D01*
X170481579Y-66587553D01*
X170375256Y-66608702D01*
X170162611Y-66651000D01*
X169837389Y-66651000D01*
X169624744Y-66608702D01*
X169518421Y-66587553D01*
X169217958Y-66463097D01*
X168947549Y-66282415D01*
X168947546Y-66282413D01*
X168717587Y-66052454D01*
X168536902Y-65782040D01*
X168412447Y-65481578D01*
X168349000Y-65162611D01*
X168349000Y-64837389D01*
X168412447Y-64518422D01*
X168536902Y-64217960D01*
X168717587Y-63947546D01*
X168947546Y-63717587D01*
X169047200Y-63651000D01*
X169217958Y-63536903D01*
X169518421Y-63412447D01*
X169624744Y-63391298D01*
X169837389Y-63349000D01*
X170162611Y-63349000D01*
X170375256Y-63391298D01*
X170375256Y-63391298D01*
G37*
G36*
X90375256Y-63391298D02*
X90481579Y-63412447D01*
X90782042Y-63536903D01*
X90952800Y-63651000D01*
X91052454Y-63717587D01*
X91282413Y-63947546D01*
X91463098Y-64217960D01*
X91587553Y-64518422D01*
X91651000Y-64837389D01*
X91651000Y-65162611D01*
X91587553Y-65481578D01*
X91463098Y-65782040D01*
X91282413Y-66052454D01*
X91052454Y-66282413D01*
X91052451Y-66282415D01*
X90782042Y-66463097D01*
X90481579Y-66587553D01*
X90375256Y-66608702D01*
X90162611Y-66651000D01*
X89837389Y-66651000D01*
X89624744Y-66608702D01*
X89518421Y-66587553D01*
X89217958Y-66463097D01*
X88947549Y-66282415D01*
X88947546Y-66282413D01*
X88717587Y-66052454D01*
X88536902Y-65782040D01*
X88412447Y-65481578D01*
X88349000Y-65162611D01*
X88349000Y-64837389D01*
X88412447Y-64518422D01*
X88536902Y-64217960D01*
X88717587Y-63947546D01*
X88947546Y-63717587D01*
X89047200Y-63651000D01*
X89217958Y-63536903D01*
X89518421Y-63412447D01*
X89624744Y-63391298D01*
X89837389Y-63349000D01*
X90162611Y-63349000D01*
X90375256Y-63391298D01*
X90375256Y-63391298D01*
G37*
G36*
X103451000Y-65251000D02*
X102549000Y-65251000D01*
X102549000Y-64349000D01*
X103451000Y-64349000D01*
X103451000Y-65251000D01*
X103451000Y-65251000D01*
G37*
G36*
X104951000Y-65251000D02*
X104049000Y-65251000D01*
X104049000Y-64349000D01*
X104951000Y-64349000D01*
X104951000Y-65251000D01*
X104951000Y-65251000D01*
G37*
G36*
X103451000Y-63651000D02*
X102549000Y-63651000D01*
X102549000Y-62749000D01*
X103451000Y-62749000D01*
X103451000Y-63651000D01*
X103451000Y-63651000D01*
G37*
G36*
X104951000Y-63651000D02*
X104049000Y-63651000D01*
X104049000Y-62749000D01*
X104951000Y-62749000D01*
X104951000Y-63651000D01*
X104951000Y-63651000D01*
G37*
G36*
X135150443Y-59105519D02*
X135216627Y-59112037D01*
X135329853Y-59146384D01*
X135386467Y-59163557D01*
X135488774Y-59218242D01*
X135542991Y-59247222D01*
X135578729Y-59276552D01*
X135680186Y-59359814D01*
X135763448Y-59461271D01*
X135792778Y-59497009D01*
X135792779Y-59497011D01*
X135876443Y-59653533D01*
X135876443Y-59653534D01*
X135927963Y-59823373D01*
X135945359Y-60000000D01*
X135927963Y-60176627D01*
X135893616Y-60289853D01*
X135876443Y-60346467D01*
X135802348Y-60485087D01*
X135792778Y-60502991D01*
X135763448Y-60538729D01*
X135680186Y-60640186D01*
X135582358Y-60720470D01*
X135542991Y-60752778D01*
X135542989Y-60752779D01*
X135386467Y-60836443D01*
X135329853Y-60853616D01*
X135216627Y-60887963D01*
X135150442Y-60894482D01*
X135084260Y-60901000D01*
X134995740Y-60901000D01*
X134929558Y-60894482D01*
X134863373Y-60887963D01*
X134750147Y-60853616D01*
X134693533Y-60836443D01*
X134537011Y-60752779D01*
X134537009Y-60752778D01*
X134497642Y-60720470D01*
X134399814Y-60640186D01*
X134316552Y-60538729D01*
X134287222Y-60502991D01*
X134277652Y-60485087D01*
X134203557Y-60346467D01*
X134186384Y-60289853D01*
X134152037Y-60176627D01*
X134134641Y-60000000D01*
X134152037Y-59823373D01*
X134203557Y-59653534D01*
X134203557Y-59653533D01*
X134287221Y-59497011D01*
X134287222Y-59497009D01*
X134316552Y-59461271D01*
X134399814Y-59359814D01*
X134501271Y-59276552D01*
X134537009Y-59247222D01*
X134591226Y-59218242D01*
X134693533Y-59163557D01*
X134750147Y-59146384D01*
X134863373Y-59112037D01*
X134929557Y-59105519D01*
X134995740Y-59099000D01*
X135084260Y-59099000D01*
X135150443Y-59105519D01*
X135150443Y-59105519D01*
G37*
G36*
X99490443Y-59105519D02*
X99556627Y-59112037D01*
X99669853Y-59146384D01*
X99726467Y-59163557D01*
X99828774Y-59218242D01*
X99882991Y-59247222D01*
X99918729Y-59276552D01*
X100020186Y-59359814D01*
X100103448Y-59461271D01*
X100132778Y-59497009D01*
X100132779Y-59497011D01*
X100216443Y-59653533D01*
X100216443Y-59653534D01*
X100267963Y-59823373D01*
X100285359Y-60000000D01*
X100267963Y-60176627D01*
X100233616Y-60289853D01*
X100216443Y-60346467D01*
X100142348Y-60485087D01*
X100132778Y-60502991D01*
X100103448Y-60538729D01*
X100020186Y-60640186D01*
X99922358Y-60720470D01*
X99882991Y-60752778D01*
X99882989Y-60752779D01*
X99726467Y-60836443D01*
X99669853Y-60853616D01*
X99556627Y-60887963D01*
X99490442Y-60894482D01*
X99424260Y-60901000D01*
X99335740Y-60901000D01*
X99269558Y-60894482D01*
X99203373Y-60887963D01*
X99090147Y-60853616D01*
X99033533Y-60836443D01*
X98877011Y-60752779D01*
X98877009Y-60752778D01*
X98837642Y-60720470D01*
X98739814Y-60640186D01*
X98656552Y-60538729D01*
X98627222Y-60502991D01*
X98617652Y-60485087D01*
X98543557Y-60346467D01*
X98526384Y-60289853D01*
X98492037Y-60176627D01*
X98474641Y-60000000D01*
X98492037Y-59823373D01*
X98543557Y-59653534D01*
X98543557Y-59653533D01*
X98627221Y-59497011D01*
X98627222Y-59497009D01*
X98656552Y-59461271D01*
X98739814Y-59359814D01*
X98841271Y-59276552D01*
X98877009Y-59247222D01*
X98931226Y-59218242D01*
X99033533Y-59163557D01*
X99090147Y-59146384D01*
X99203373Y-59112037D01*
X99269557Y-59105519D01*
X99335740Y-59099000D01*
X99424260Y-59099000D01*
X99490443Y-59105519D01*
X99490443Y-59105519D01*
G37*
G36*
X102030443Y-59105519D02*
X102096627Y-59112037D01*
X102209853Y-59146384D01*
X102266467Y-59163557D01*
X102368774Y-59218242D01*
X102422991Y-59247222D01*
X102458729Y-59276552D01*
X102560186Y-59359814D01*
X102643448Y-59461271D01*
X102672778Y-59497009D01*
X102672779Y-59497011D01*
X102756443Y-59653533D01*
X102756443Y-59653534D01*
X102807963Y-59823373D01*
X102825359Y-60000000D01*
X102807963Y-60176627D01*
X102773616Y-60289853D01*
X102756443Y-60346467D01*
X102682348Y-60485087D01*
X102672778Y-60502991D01*
X102643448Y-60538729D01*
X102560186Y-60640186D01*
X102462358Y-60720470D01*
X102422991Y-60752778D01*
X102422989Y-60752779D01*
X102266467Y-60836443D01*
X102209853Y-60853616D01*
X102096627Y-60887963D01*
X102030442Y-60894482D01*
X101964260Y-60901000D01*
X101875740Y-60901000D01*
X101809558Y-60894482D01*
X101743373Y-60887963D01*
X101630147Y-60853616D01*
X101573533Y-60836443D01*
X101417011Y-60752779D01*
X101417009Y-60752778D01*
X101377642Y-60720470D01*
X101279814Y-60640186D01*
X101196552Y-60538729D01*
X101167222Y-60502991D01*
X101157652Y-60485087D01*
X101083557Y-60346467D01*
X101066384Y-60289853D01*
X101032037Y-60176627D01*
X101014641Y-60000000D01*
X101032037Y-59823373D01*
X101083557Y-59653534D01*
X101083557Y-59653533D01*
X101167221Y-59497011D01*
X101167222Y-59497009D01*
X101196552Y-59461271D01*
X101279814Y-59359814D01*
X101381271Y-59276552D01*
X101417009Y-59247222D01*
X101471226Y-59218242D01*
X101573533Y-59163557D01*
X101630147Y-59146384D01*
X101743373Y-59112037D01*
X101809557Y-59105519D01*
X101875740Y-59099000D01*
X101964260Y-59099000D01*
X102030443Y-59105519D01*
X102030443Y-59105519D01*
G37*
G36*
X104570443Y-59105519D02*
X104636627Y-59112037D01*
X104749853Y-59146384D01*
X104806467Y-59163557D01*
X104908774Y-59218242D01*
X104962991Y-59247222D01*
X104998729Y-59276552D01*
X105100186Y-59359814D01*
X105183448Y-59461271D01*
X105212778Y-59497009D01*
X105212779Y-59497011D01*
X105296443Y-59653533D01*
X105296443Y-59653534D01*
X105347963Y-59823373D01*
X105365359Y-60000000D01*
X105347963Y-60176627D01*
X105313616Y-60289853D01*
X105296443Y-60346467D01*
X105222348Y-60485087D01*
X105212778Y-60502991D01*
X105183448Y-60538729D01*
X105100186Y-60640186D01*
X105002358Y-60720470D01*
X104962991Y-60752778D01*
X104962989Y-60752779D01*
X104806467Y-60836443D01*
X104749853Y-60853616D01*
X104636627Y-60887963D01*
X104570442Y-60894482D01*
X104504260Y-60901000D01*
X104415740Y-60901000D01*
X104349558Y-60894482D01*
X104283373Y-60887963D01*
X104170147Y-60853616D01*
X104113533Y-60836443D01*
X103957011Y-60752779D01*
X103957009Y-60752778D01*
X103917642Y-60720470D01*
X103819814Y-60640186D01*
X103736552Y-60538729D01*
X103707222Y-60502991D01*
X103697652Y-60485087D01*
X103623557Y-60346467D01*
X103606384Y-60289853D01*
X103572037Y-60176627D01*
X103554641Y-60000000D01*
X103572037Y-59823373D01*
X103623557Y-59653534D01*
X103623557Y-59653533D01*
X103707221Y-59497011D01*
X103707222Y-59497009D01*
X103736552Y-59461271D01*
X103819814Y-59359814D01*
X103921271Y-59276552D01*
X103957009Y-59247222D01*
X104011226Y-59218242D01*
X104113533Y-59163557D01*
X104170147Y-59146384D01*
X104283373Y-59112037D01*
X104349557Y-59105519D01*
X104415740Y-59099000D01*
X104504260Y-59099000D01*
X104570443Y-59105519D01*
X104570443Y-59105519D01*
G37*
G36*
X107901000Y-60901000D02*
X106099000Y-60901000D01*
X106099000Y-59099000D01*
X107901000Y-59099000D01*
X107901000Y-60901000D01*
X107901000Y-60901000D01*
G37*
G36*
X133401000Y-60901000D02*
X131599000Y-60901000D01*
X131599000Y-59099000D01*
X133401000Y-59099000D01*
X133401000Y-60901000D01*
X133401000Y-60901000D01*
G37*
G36*
X119237142Y-59218242D02*
X119385102Y-59279530D01*
X119452130Y-59324317D01*
X119518257Y-59368501D01*
X119631499Y-59481743D01*
X119675683Y-59547870D01*
X119720470Y-59614898D01*
X119781758Y-59762858D01*
X119813000Y-59919925D01*
X119813000Y-60080075D01*
X119781758Y-60237142D01*
X119736474Y-60346466D01*
X119720471Y-60385100D01*
X119631499Y-60518257D01*
X119518257Y-60631499D01*
X119452130Y-60675683D01*
X119385102Y-60720470D01*
X119237142Y-60781758D01*
X119080075Y-60813000D01*
X118919925Y-60813000D01*
X118762858Y-60781758D01*
X118614898Y-60720470D01*
X118547870Y-60675683D01*
X118481743Y-60631499D01*
X118368501Y-60518257D01*
X118279529Y-60385100D01*
X118263526Y-60346466D01*
X118218242Y-60237142D01*
X118187000Y-60080075D01*
X118187000Y-59919925D01*
X118218242Y-59762858D01*
X118279530Y-59614898D01*
X118324317Y-59547870D01*
X118368501Y-59481743D01*
X118481743Y-59368501D01*
X118547870Y-59324317D01*
X118614898Y-59279530D01*
X118762858Y-59218242D01*
X118919925Y-59187000D01*
X119080075Y-59187000D01*
X119237142Y-59218242D01*
X119237142Y-59218242D01*
G37*
G36*
X117237142Y-59218242D02*
X117385102Y-59279530D01*
X117452130Y-59324317D01*
X117518257Y-59368501D01*
X117631499Y-59481743D01*
X117675683Y-59547870D01*
X117720470Y-59614898D01*
X117781758Y-59762858D01*
X117813000Y-59919925D01*
X117813000Y-60080075D01*
X117781758Y-60237142D01*
X117736474Y-60346466D01*
X117720471Y-60385100D01*
X117631499Y-60518257D01*
X117518257Y-60631499D01*
X117452130Y-60675683D01*
X117385102Y-60720470D01*
X117237142Y-60781758D01*
X117080075Y-60813000D01*
X116919925Y-60813000D01*
X116762858Y-60781758D01*
X116614898Y-60720470D01*
X116547870Y-60675683D01*
X116481743Y-60631499D01*
X116368501Y-60518257D01*
X116279529Y-60385100D01*
X116263526Y-60346466D01*
X116218242Y-60237142D01*
X116187000Y-60080075D01*
X116187000Y-59919925D01*
X116218242Y-59762858D01*
X116279530Y-59614898D01*
X116324317Y-59547870D01*
X116368501Y-59481743D01*
X116481743Y-59368501D01*
X116547870Y-59324317D01*
X116614898Y-59279530D01*
X116762858Y-59218242D01*
X116919925Y-59187000D01*
X117080075Y-59187000D01*
X117237142Y-59218242D01*
X117237142Y-59218242D01*
G37*
G36*
X121237142Y-59218242D02*
X121385102Y-59279530D01*
X121452130Y-59324317D01*
X121518257Y-59368501D01*
X121631499Y-59481743D01*
X121675683Y-59547870D01*
X121720470Y-59614898D01*
X121781758Y-59762858D01*
X121813000Y-59919925D01*
X121813000Y-60080075D01*
X121781758Y-60237142D01*
X121736474Y-60346466D01*
X121720471Y-60385100D01*
X121631499Y-60518257D01*
X121518257Y-60631499D01*
X121452130Y-60675683D01*
X121385102Y-60720470D01*
X121237142Y-60781758D01*
X121080075Y-60813000D01*
X120919925Y-60813000D01*
X120762858Y-60781758D01*
X120614898Y-60720470D01*
X120547870Y-60675683D01*
X120481743Y-60631499D01*
X120368501Y-60518257D01*
X120279529Y-60385100D01*
X120263526Y-60346466D01*
X120218242Y-60237142D01*
X120187000Y-60080075D01*
X120187000Y-59919925D01*
X120218242Y-59762858D01*
X120279530Y-59614898D01*
X120324317Y-59547870D01*
X120368501Y-59481743D01*
X120481743Y-59368501D01*
X120547870Y-59324317D01*
X120614898Y-59279530D01*
X120762858Y-59218242D01*
X120919925Y-59187000D01*
X121080075Y-59187000D01*
X121237142Y-59218242D01*
X121237142Y-59218242D01*
G37*
G36*
X123813000Y-60813000D02*
X122187000Y-60813000D01*
X122187000Y-59187000D01*
X123813000Y-59187000D01*
X123813000Y-60813000D01*
X123813000Y-60813000D01*
G37*
M02*
