G04 #@! TF.GenerationSoftware,KiCad,Pcbnew,(5.0.2)-1*
G04 #@! TF.CreationDate,2019-02-25T23:41:49+09:00*
G04 #@! TF.ProjectId,Land,4c616e64-2e6b-4696-9361-645f70636258,rev?*
G04 #@! TF.SameCoordinates,Original*
G04 #@! TF.FileFunction,Paste,Top*
G04 #@! TF.FilePolarity,Positive*
%FSLAX46Y46*%
G04 Gerber Fmt 4.6, Leading zero omitted, Abs format (unit mm)*
G04 Created by KiCad (PCBNEW (5.0.2)-1) date 2019/02/25 23:41:49*
%MOMM*%
%LPD*%
G01*
G04 APERTURE LIST*
%ADD10R,0.800000X0.800000*%
G04 APERTURE END LIST*
D10*
G04 #@! TO.C,D1*
X160800000Y-85000000D03*
X159200000Y-85000000D03*
G04 #@! TD*
G04 #@! TO.C,D2*
X149200000Y-85000000D03*
X150800000Y-85000000D03*
G04 #@! TD*
G04 #@! TO.C,D3*
X140800000Y-85000000D03*
X139200000Y-85000000D03*
G04 #@! TD*
G04 #@! TO.C,D4*
X129200000Y-85000000D03*
X130800000Y-85000000D03*
G04 #@! TD*
G04 #@! TO.C,D5*
X120800000Y-85000000D03*
X119200000Y-85000000D03*
G04 #@! TD*
G04 #@! TO.C,D6*
X109200000Y-85000000D03*
X110800000Y-85000000D03*
G04 #@! TD*
G04 #@! TO.C,D7*
X100800000Y-85000000D03*
X99200000Y-85000000D03*
G04 #@! TD*
G04 #@! TO.C,D8*
X100000000Y-95800000D03*
X100000000Y-94200000D03*
G04 #@! TD*
G04 #@! TO.C,D9*
X100000000Y-104200000D03*
X100000000Y-105800000D03*
G04 #@! TD*
G04 #@! TO.C,D10*
X100000000Y-114200000D03*
X100000000Y-115800000D03*
G04 #@! TD*
G04 #@! TO.C,D11*
X110800000Y-115000000D03*
X109200000Y-115000000D03*
G04 #@! TD*
G04 #@! TO.C,D12*
X120800000Y-115000000D03*
X119200000Y-115000000D03*
G04 #@! TD*
G04 #@! TO.C,D13*
X130800000Y-115000000D03*
X129200000Y-115000000D03*
G04 #@! TD*
G04 #@! TO.C,D14*
X140800000Y-115000000D03*
X139200000Y-115000000D03*
G04 #@! TD*
G04 #@! TO.C,D15*
X149200000Y-115000000D03*
X150800000Y-115000000D03*
G04 #@! TD*
G04 #@! TO.C,D16*
X159200000Y-115000000D03*
X160800000Y-115000000D03*
G04 #@! TD*
G04 #@! TO.C,D17*
X160000000Y-125800000D03*
X160000000Y-124200000D03*
G04 #@! TD*
G04 #@! TO.C,D18*
X160000000Y-135000000D03*
X160000000Y-136600000D03*
G04 #@! TD*
G04 #@! TO.C,D19*
X160000000Y-145800000D03*
X160000000Y-144200000D03*
G04 #@! TD*
G04 #@! TO.C,D20*
X150800000Y-145000000D03*
X149200000Y-145000000D03*
G04 #@! TD*
G04 #@! TO.C,D21*
X139200000Y-145000000D03*
X140800000Y-145000000D03*
G04 #@! TD*
G04 #@! TO.C,D22*
X130800000Y-145000000D03*
X129200000Y-145000000D03*
G04 #@! TD*
G04 #@! TO.C,D23*
X119200000Y-145000000D03*
X120800000Y-145000000D03*
G04 #@! TD*
G04 #@! TO.C,D24*
X109200000Y-145000000D03*
X110800000Y-145000000D03*
G04 #@! TD*
G04 #@! TO.C,D25*
X100800000Y-145000000D03*
X99200000Y-145000000D03*
G04 #@! TD*
M02*
