G04 #@! TF.GenerationSoftware,KiCad,Pcbnew,(5.0.2)-1*
G04 #@! TF.CreationDate,2019-02-25T23:41:49+09:00*
G04 #@! TF.ProjectId,Land,4c616e64-2e6b-4696-9361-645f70636258,rev?*
G04 #@! TF.SameCoordinates,Original*
G04 #@! TF.FileFunction,Soldermask,Top*
G04 #@! TF.FilePolarity,Negative*
%FSLAX46Y46*%
G04 Gerber Fmt 4.6, Leading zero omitted, Abs format (unit mm)*
G04 Created by KiCad (PCBNEW (5.0.2)-1) date 2019/02/25 23:41:49*
%MOMM*%
%LPD*%
G01*
G04 APERTURE LIST*
%ADD10C,0.100000*%
G04 APERTURE END LIST*
D10*
G36*
X170375256Y-143391298D02*
X170481579Y-143412447D01*
X170782042Y-143536903D01*
X171048852Y-143715180D01*
X171052454Y-143717587D01*
X171282413Y-143947546D01*
X171282415Y-143947549D01*
X171463097Y-144217958D01*
X171587553Y-144518421D01*
X171651000Y-144837391D01*
X171651000Y-145162609D01*
X171593636Y-145451000D01*
X171587553Y-145481578D01*
X171463098Y-145782040D01*
X171282413Y-146052454D01*
X171052454Y-146282413D01*
X171052451Y-146282415D01*
X170782042Y-146463097D01*
X170481579Y-146587553D01*
X170375256Y-146608702D01*
X170162611Y-146651000D01*
X169837389Y-146651000D01*
X169624744Y-146608702D01*
X169518421Y-146587553D01*
X169217958Y-146463097D01*
X168947549Y-146282415D01*
X168947546Y-146282413D01*
X168717587Y-146052454D01*
X168536902Y-145782040D01*
X168412447Y-145481578D01*
X168406365Y-145451000D01*
X168349000Y-145162609D01*
X168349000Y-144837391D01*
X168412447Y-144518421D01*
X168536903Y-144217958D01*
X168717585Y-143947549D01*
X168717587Y-143947546D01*
X168947546Y-143717587D01*
X168951148Y-143715180D01*
X169217958Y-143536903D01*
X169518421Y-143412447D01*
X169624744Y-143391298D01*
X169837389Y-143349000D01*
X170162611Y-143349000D01*
X170375256Y-143391298D01*
X170375256Y-143391298D01*
G37*
G36*
X90375256Y-143391298D02*
X90481579Y-143412447D01*
X90782042Y-143536903D01*
X91048852Y-143715180D01*
X91052454Y-143717587D01*
X91282413Y-143947546D01*
X91282415Y-143947549D01*
X91463097Y-144217958D01*
X91587553Y-144518421D01*
X91651000Y-144837391D01*
X91651000Y-145162609D01*
X91593636Y-145451000D01*
X91587553Y-145481578D01*
X91463098Y-145782040D01*
X91282413Y-146052454D01*
X91052454Y-146282413D01*
X91052451Y-146282415D01*
X90782042Y-146463097D01*
X90481579Y-146587553D01*
X90375256Y-146608702D01*
X90162611Y-146651000D01*
X89837389Y-146651000D01*
X89624744Y-146608702D01*
X89518421Y-146587553D01*
X89217958Y-146463097D01*
X88947549Y-146282415D01*
X88947546Y-146282413D01*
X88717587Y-146052454D01*
X88536902Y-145782040D01*
X88412447Y-145481578D01*
X88406365Y-145451000D01*
X88349000Y-145162609D01*
X88349000Y-144837391D01*
X88412447Y-144518421D01*
X88536903Y-144217958D01*
X88717585Y-143947549D01*
X88717587Y-143947546D01*
X88947546Y-143717587D01*
X88951148Y-143715180D01*
X89217958Y-143536903D01*
X89518421Y-143412447D01*
X89624744Y-143391298D01*
X89837389Y-143349000D01*
X90162611Y-143349000D01*
X90375256Y-143391298D01*
X90375256Y-143391298D01*
G37*
G36*
X160451000Y-146251000D02*
X159549000Y-146251000D01*
X159549000Y-145349000D01*
X160451000Y-145349000D01*
X160451000Y-146251000D01*
X160451000Y-146251000D01*
G37*
G36*
X101251000Y-145451000D02*
X100349000Y-145451000D01*
X100349000Y-144549000D01*
X101251000Y-144549000D01*
X101251000Y-145451000D01*
X101251000Y-145451000D01*
G37*
G36*
X99651000Y-145451000D02*
X98749000Y-145451000D01*
X98749000Y-144549000D01*
X99651000Y-144549000D01*
X99651000Y-145451000D01*
X99651000Y-145451000D01*
G37*
G36*
X109651000Y-145451000D02*
X108749000Y-145451000D01*
X108749000Y-144549000D01*
X109651000Y-144549000D01*
X109651000Y-145451000D01*
X109651000Y-145451000D01*
G37*
G36*
X121251000Y-145451000D02*
X120349000Y-145451000D01*
X120349000Y-144549000D01*
X121251000Y-144549000D01*
X121251000Y-145451000D01*
X121251000Y-145451000D01*
G37*
G36*
X119651000Y-145451000D02*
X118749000Y-145451000D01*
X118749000Y-144549000D01*
X119651000Y-144549000D01*
X119651000Y-145451000D01*
X119651000Y-145451000D01*
G37*
G36*
X129651000Y-145451000D02*
X128749000Y-145451000D01*
X128749000Y-144549000D01*
X129651000Y-144549000D01*
X129651000Y-145451000D01*
X129651000Y-145451000D01*
G37*
G36*
X131251000Y-145451000D02*
X130349000Y-145451000D01*
X130349000Y-144549000D01*
X131251000Y-144549000D01*
X131251000Y-145451000D01*
X131251000Y-145451000D01*
G37*
G36*
X151251000Y-145451000D02*
X150349000Y-145451000D01*
X150349000Y-144549000D01*
X151251000Y-144549000D01*
X151251000Y-145451000D01*
X151251000Y-145451000D01*
G37*
G36*
X149651000Y-145451000D02*
X148749000Y-145451000D01*
X148749000Y-144549000D01*
X149651000Y-144549000D01*
X149651000Y-145451000D01*
X149651000Y-145451000D01*
G37*
G36*
X139651000Y-145451000D02*
X138749000Y-145451000D01*
X138749000Y-144549000D01*
X139651000Y-144549000D01*
X139651000Y-145451000D01*
X139651000Y-145451000D01*
G37*
G36*
X141251000Y-145451000D02*
X140349000Y-145451000D01*
X140349000Y-144549000D01*
X141251000Y-144549000D01*
X141251000Y-145451000D01*
X141251000Y-145451000D01*
G37*
G36*
X111251000Y-145451000D02*
X110349000Y-145451000D01*
X110349000Y-144549000D01*
X111251000Y-144549000D01*
X111251000Y-145451000D01*
X111251000Y-145451000D01*
G37*
G36*
X160451000Y-144651000D02*
X159549000Y-144651000D01*
X159549000Y-143749000D01*
X160451000Y-143749000D01*
X160451000Y-144651000D01*
X160451000Y-144651000D01*
G37*
G36*
X160451000Y-137051000D02*
X159549000Y-137051000D01*
X159549000Y-136149000D01*
X160451000Y-136149000D01*
X160451000Y-137051000D01*
X160451000Y-137051000D01*
G37*
G36*
X160451000Y-135451000D02*
X159549000Y-135451000D01*
X159549000Y-134549000D01*
X160451000Y-134549000D01*
X160451000Y-135451000D01*
X160451000Y-135451000D01*
G37*
G36*
X123551000Y-133301000D02*
X121449000Y-133301000D01*
X121449000Y-131199000D01*
X123551000Y-131199000D01*
X123551000Y-133301000D01*
X123551000Y-133301000D01*
G37*
G36*
X128551000Y-133301000D02*
X126449000Y-133301000D01*
X126449000Y-131199000D01*
X128551000Y-131199000D01*
X128551000Y-133301000D01*
X128551000Y-133301000D01*
G37*
G36*
X118551000Y-133301000D02*
X116449000Y-133301000D01*
X116449000Y-131199000D01*
X118551000Y-131199000D01*
X118551000Y-133301000D01*
X118551000Y-133301000D01*
G37*
G36*
X113551000Y-133301000D02*
X111449000Y-133301000D01*
X111449000Y-131199000D01*
X113551000Y-131199000D01*
X113551000Y-133301000D01*
X113551000Y-133301000D01*
G37*
G36*
X118551000Y-128801000D02*
X116449000Y-128801000D01*
X116449000Y-126699000D01*
X118551000Y-126699000D01*
X118551000Y-128801000D01*
X118551000Y-128801000D01*
G37*
G36*
X113551000Y-128801000D02*
X111449000Y-128801000D01*
X111449000Y-126699000D01*
X113551000Y-126699000D01*
X113551000Y-128801000D01*
X113551000Y-128801000D01*
G37*
G36*
X128551000Y-128801000D02*
X126449000Y-128801000D01*
X126449000Y-126699000D01*
X128551000Y-126699000D01*
X128551000Y-128801000D01*
X128551000Y-128801000D01*
G37*
G36*
X123551000Y-128801000D02*
X121449000Y-128801000D01*
X121449000Y-126699000D01*
X123551000Y-126699000D01*
X123551000Y-128801000D01*
X123551000Y-128801000D01*
G37*
G36*
X160451000Y-126251000D02*
X159549000Y-126251000D01*
X159549000Y-125349000D01*
X160451000Y-125349000D01*
X160451000Y-126251000D01*
X160451000Y-126251000D01*
G37*
G36*
X160451000Y-124651000D02*
X159549000Y-124651000D01*
X159549000Y-123749000D01*
X160451000Y-123749000D01*
X160451000Y-124651000D01*
X160451000Y-124651000D01*
G37*
G36*
X100451000Y-116251000D02*
X99549000Y-116251000D01*
X99549000Y-115349000D01*
X100451000Y-115349000D01*
X100451000Y-116251000D01*
X100451000Y-116251000D01*
G37*
G36*
X139651000Y-115451000D02*
X138749000Y-115451000D01*
X138749000Y-114549000D01*
X139651000Y-114549000D01*
X139651000Y-115451000D01*
X139651000Y-115451000D01*
G37*
G36*
X151251000Y-115451000D02*
X150349000Y-115451000D01*
X150349000Y-114549000D01*
X151251000Y-114549000D01*
X151251000Y-115451000D01*
X151251000Y-115451000D01*
G37*
G36*
X159651000Y-115451000D02*
X158749000Y-115451000D01*
X158749000Y-114549000D01*
X159651000Y-114549000D01*
X159651000Y-115451000D01*
X159651000Y-115451000D01*
G37*
G36*
X161251000Y-115451000D02*
X160349000Y-115451000D01*
X160349000Y-114549000D01*
X161251000Y-114549000D01*
X161251000Y-115451000D01*
X161251000Y-115451000D01*
G37*
G36*
X149651000Y-115451000D02*
X148749000Y-115451000D01*
X148749000Y-114549000D01*
X149651000Y-114549000D01*
X149651000Y-115451000D01*
X149651000Y-115451000D01*
G37*
G36*
X141251000Y-115451000D02*
X140349000Y-115451000D01*
X140349000Y-114549000D01*
X141251000Y-114549000D01*
X141251000Y-115451000D01*
X141251000Y-115451000D01*
G37*
G36*
X131251000Y-115451000D02*
X130349000Y-115451000D01*
X130349000Y-114549000D01*
X131251000Y-114549000D01*
X131251000Y-115451000D01*
X131251000Y-115451000D01*
G37*
G36*
X111251000Y-115451000D02*
X110349000Y-115451000D01*
X110349000Y-114549000D01*
X111251000Y-114549000D01*
X111251000Y-115451000D01*
X111251000Y-115451000D01*
G37*
G36*
X119651000Y-115451000D02*
X118749000Y-115451000D01*
X118749000Y-114549000D01*
X119651000Y-114549000D01*
X119651000Y-115451000D01*
X119651000Y-115451000D01*
G37*
G36*
X109651000Y-115451000D02*
X108749000Y-115451000D01*
X108749000Y-114549000D01*
X109651000Y-114549000D01*
X109651000Y-115451000D01*
X109651000Y-115451000D01*
G37*
G36*
X129651000Y-115451000D02*
X128749000Y-115451000D01*
X128749000Y-114549000D01*
X129651000Y-114549000D01*
X129651000Y-115451000D01*
X129651000Y-115451000D01*
G37*
G36*
X121251000Y-115451000D02*
X120349000Y-115451000D01*
X120349000Y-114549000D01*
X121251000Y-114549000D01*
X121251000Y-115451000D01*
X121251000Y-115451000D01*
G37*
G36*
X100451000Y-114651000D02*
X99549000Y-114651000D01*
X99549000Y-113749000D01*
X100451000Y-113749000D01*
X100451000Y-114651000D01*
X100451000Y-114651000D01*
G37*
G36*
X100451000Y-106251000D02*
X99549000Y-106251000D01*
X99549000Y-105349000D01*
X100451000Y-105349000D01*
X100451000Y-106251000D01*
X100451000Y-106251000D01*
G37*
G36*
X100451000Y-104651000D02*
X99549000Y-104651000D01*
X99549000Y-103749000D01*
X100451000Y-103749000D01*
X100451000Y-104651000D01*
X100451000Y-104651000D01*
G37*
G36*
X133551000Y-103301000D02*
X131449000Y-103301000D01*
X131449000Y-101199000D01*
X133551000Y-101199000D01*
X133551000Y-103301000D01*
X133551000Y-103301000D01*
G37*
G36*
X138551000Y-103301000D02*
X136449000Y-103301000D01*
X136449000Y-101199000D01*
X138551000Y-101199000D01*
X138551000Y-103301000D01*
X138551000Y-103301000D01*
G37*
G36*
X148551000Y-103301000D02*
X146449000Y-103301000D01*
X146449000Y-101199000D01*
X148551000Y-101199000D01*
X148551000Y-103301000D01*
X148551000Y-103301000D01*
G37*
G36*
X143551000Y-103301000D02*
X141449000Y-103301000D01*
X141449000Y-101199000D01*
X143551000Y-101199000D01*
X143551000Y-103301000D01*
X143551000Y-103301000D01*
G37*
G36*
X148551000Y-98801000D02*
X146449000Y-98801000D01*
X146449000Y-96699000D01*
X148551000Y-96699000D01*
X148551000Y-98801000D01*
X148551000Y-98801000D01*
G37*
G36*
X143551000Y-98801000D02*
X141449000Y-98801000D01*
X141449000Y-96699000D01*
X143551000Y-96699000D01*
X143551000Y-98801000D01*
X143551000Y-98801000D01*
G37*
G36*
X133551000Y-98801000D02*
X131449000Y-98801000D01*
X131449000Y-96699000D01*
X133551000Y-96699000D01*
X133551000Y-98801000D01*
X133551000Y-98801000D01*
G37*
G36*
X138551000Y-98801000D02*
X136449000Y-98801000D01*
X136449000Y-96699000D01*
X138551000Y-96699000D01*
X138551000Y-98801000D01*
X138551000Y-98801000D01*
G37*
G36*
X100451000Y-96251000D02*
X99549000Y-96251000D01*
X99549000Y-95349000D01*
X100451000Y-95349000D01*
X100451000Y-96251000D01*
X100451000Y-96251000D01*
G37*
G36*
X100451000Y-94651000D02*
X99549000Y-94651000D01*
X99549000Y-93749000D01*
X100451000Y-93749000D01*
X100451000Y-94651000D01*
X100451000Y-94651000D01*
G37*
G36*
X141251000Y-85451000D02*
X140349000Y-85451000D01*
X140349000Y-84549000D01*
X141251000Y-84549000D01*
X141251000Y-85451000D01*
X141251000Y-85451000D01*
G37*
G36*
X129651000Y-85451000D02*
X128749000Y-85451000D01*
X128749000Y-84549000D01*
X129651000Y-84549000D01*
X129651000Y-85451000D01*
X129651000Y-85451000D01*
G37*
G36*
X99651000Y-85451000D02*
X98749000Y-85451000D01*
X98749000Y-84549000D01*
X99651000Y-84549000D01*
X99651000Y-85451000D01*
X99651000Y-85451000D01*
G37*
G36*
X101251000Y-85451000D02*
X100349000Y-85451000D01*
X100349000Y-84549000D01*
X101251000Y-84549000D01*
X101251000Y-85451000D01*
X101251000Y-85451000D01*
G37*
G36*
X111251000Y-85451000D02*
X110349000Y-85451000D01*
X110349000Y-84549000D01*
X111251000Y-84549000D01*
X111251000Y-85451000D01*
X111251000Y-85451000D01*
G37*
G36*
X109651000Y-85451000D02*
X108749000Y-85451000D01*
X108749000Y-84549000D01*
X109651000Y-84549000D01*
X109651000Y-85451000D01*
X109651000Y-85451000D01*
G37*
G36*
X119651000Y-85451000D02*
X118749000Y-85451000D01*
X118749000Y-84549000D01*
X119651000Y-84549000D01*
X119651000Y-85451000D01*
X119651000Y-85451000D01*
G37*
G36*
X131251000Y-85451000D02*
X130349000Y-85451000D01*
X130349000Y-84549000D01*
X131251000Y-84549000D01*
X131251000Y-85451000D01*
X131251000Y-85451000D01*
G37*
G36*
X139651000Y-85451000D02*
X138749000Y-85451000D01*
X138749000Y-84549000D01*
X139651000Y-84549000D01*
X139651000Y-85451000D01*
X139651000Y-85451000D01*
G37*
G36*
X161251000Y-85451000D02*
X160349000Y-85451000D01*
X160349000Y-84549000D01*
X161251000Y-84549000D01*
X161251000Y-85451000D01*
X161251000Y-85451000D01*
G37*
G36*
X159651000Y-85451000D02*
X158749000Y-85451000D01*
X158749000Y-84549000D01*
X159651000Y-84549000D01*
X159651000Y-85451000D01*
X159651000Y-85451000D01*
G37*
G36*
X121251000Y-85451000D02*
X120349000Y-85451000D01*
X120349000Y-84549000D01*
X121251000Y-84549000D01*
X121251000Y-85451000D01*
X121251000Y-85451000D01*
G37*
G36*
X149651000Y-85451000D02*
X148749000Y-85451000D01*
X148749000Y-84549000D01*
X149651000Y-84549000D01*
X149651000Y-85451000D01*
X149651000Y-85451000D01*
G37*
G36*
X151251000Y-85451000D02*
X150349000Y-85451000D01*
X150349000Y-84549000D01*
X151251000Y-84549000D01*
X151251000Y-85451000D01*
X151251000Y-85451000D01*
G37*
G36*
X113551000Y-73301000D02*
X111449000Y-73301000D01*
X111449000Y-71199000D01*
X113551000Y-71199000D01*
X113551000Y-73301000D01*
X113551000Y-73301000D01*
G37*
G36*
X123551000Y-73301000D02*
X121449000Y-73301000D01*
X121449000Y-71199000D01*
X123551000Y-71199000D01*
X123551000Y-73301000D01*
X123551000Y-73301000D01*
G37*
G36*
X118551000Y-73301000D02*
X116449000Y-73301000D01*
X116449000Y-71199000D01*
X118551000Y-71199000D01*
X118551000Y-73301000D01*
X118551000Y-73301000D01*
G37*
G36*
X128551000Y-73301000D02*
X126449000Y-73301000D01*
X126449000Y-71199000D01*
X128551000Y-71199000D01*
X128551000Y-73301000D01*
X128551000Y-73301000D01*
G37*
G36*
X98351000Y-70851000D02*
X96649000Y-70851000D01*
X96649000Y-69149000D01*
X98351000Y-69149000D01*
X98351000Y-70851000D01*
X98351000Y-70851000D01*
G37*
G36*
X95248228Y-69181703D02*
X95403100Y-69245853D01*
X95542481Y-69338985D01*
X95661015Y-69457519D01*
X95754147Y-69596900D01*
X95818297Y-69751772D01*
X95851000Y-69916184D01*
X95851000Y-70083816D01*
X95818297Y-70248228D01*
X95754147Y-70403100D01*
X95661015Y-70542481D01*
X95542481Y-70661015D01*
X95403100Y-70754147D01*
X95248228Y-70818297D01*
X95083816Y-70851000D01*
X94916184Y-70851000D01*
X94751772Y-70818297D01*
X94596900Y-70754147D01*
X94457519Y-70661015D01*
X94338985Y-70542481D01*
X94245853Y-70403100D01*
X94181703Y-70248228D01*
X94149000Y-70083816D01*
X94149000Y-69916184D01*
X94181703Y-69751772D01*
X94245853Y-69596900D01*
X94338985Y-69457519D01*
X94457519Y-69338985D01*
X94596900Y-69245853D01*
X94751772Y-69181703D01*
X94916184Y-69149000D01*
X95083816Y-69149000D01*
X95248228Y-69181703D01*
X95248228Y-69181703D01*
G37*
G36*
X157737142Y-69218242D02*
X157885102Y-69279530D01*
X158018258Y-69368502D01*
X158131498Y-69481742D01*
X158220470Y-69614898D01*
X158281758Y-69762858D01*
X158313000Y-69919925D01*
X158313000Y-70080075D01*
X158281758Y-70237142D01*
X158220470Y-70385102D01*
X158131498Y-70518258D01*
X158018258Y-70631498D01*
X157885102Y-70720470D01*
X157737142Y-70781758D01*
X157580075Y-70813000D01*
X157419925Y-70813000D01*
X157262858Y-70781758D01*
X157114898Y-70720470D01*
X156981742Y-70631498D01*
X156868502Y-70518258D01*
X156779530Y-70385102D01*
X156718242Y-70237142D01*
X156687000Y-70080075D01*
X156687000Y-69919925D01*
X156718242Y-69762858D01*
X156779530Y-69614898D01*
X156868502Y-69481742D01*
X156981742Y-69368502D01*
X157114898Y-69279530D01*
X157262858Y-69218242D01*
X157419925Y-69187000D01*
X157580075Y-69187000D01*
X157737142Y-69218242D01*
X157737142Y-69218242D01*
G37*
G36*
X148313000Y-70813000D02*
X146687000Y-70813000D01*
X146687000Y-69187000D01*
X148313000Y-69187000D01*
X148313000Y-70813000D01*
X148313000Y-70813000D01*
G37*
G36*
X118551000Y-68801000D02*
X116449000Y-68801000D01*
X116449000Y-66699000D01*
X118551000Y-66699000D01*
X118551000Y-68801000D01*
X118551000Y-68801000D01*
G37*
G36*
X128551000Y-68801000D02*
X126449000Y-68801000D01*
X126449000Y-66699000D01*
X128551000Y-66699000D01*
X128551000Y-68801000D01*
X128551000Y-68801000D01*
G37*
G36*
X123551000Y-68801000D02*
X121449000Y-68801000D01*
X121449000Y-66699000D01*
X123551000Y-66699000D01*
X123551000Y-68801000D01*
X123551000Y-68801000D01*
G37*
G36*
X113551000Y-68801000D02*
X111449000Y-68801000D01*
X111449000Y-66699000D01*
X113551000Y-66699000D01*
X113551000Y-68801000D01*
X113551000Y-68801000D01*
G37*
G36*
X90375256Y-63391298D02*
X90481579Y-63412447D01*
X90782042Y-63536903D01*
X91048852Y-63715180D01*
X91052454Y-63717587D01*
X91282413Y-63947546D01*
X91463098Y-64217960D01*
X91587553Y-64518422D01*
X91651000Y-64837389D01*
X91651000Y-65162611D01*
X91587553Y-65481578D01*
X91463098Y-65782040D01*
X91282413Y-66052454D01*
X91052454Y-66282413D01*
X91052451Y-66282415D01*
X90782042Y-66463097D01*
X90481579Y-66587553D01*
X90375256Y-66608702D01*
X90162611Y-66651000D01*
X89837389Y-66651000D01*
X89624744Y-66608702D01*
X89518421Y-66587553D01*
X89217958Y-66463097D01*
X88947549Y-66282415D01*
X88947546Y-66282413D01*
X88717587Y-66052454D01*
X88536902Y-65782040D01*
X88412447Y-65481578D01*
X88349000Y-65162611D01*
X88349000Y-64837389D01*
X88412447Y-64518422D01*
X88536902Y-64217960D01*
X88717587Y-63947546D01*
X88947546Y-63717587D01*
X88951148Y-63715180D01*
X89217958Y-63536903D01*
X89518421Y-63412447D01*
X89624744Y-63391298D01*
X89837389Y-63349000D01*
X90162611Y-63349000D01*
X90375256Y-63391298D01*
X90375256Y-63391298D01*
G37*
G36*
X170375256Y-63391298D02*
X170481579Y-63412447D01*
X170782042Y-63536903D01*
X171048852Y-63715180D01*
X171052454Y-63717587D01*
X171282413Y-63947546D01*
X171463098Y-64217960D01*
X171587553Y-64518422D01*
X171651000Y-64837389D01*
X171651000Y-65162611D01*
X171587553Y-65481578D01*
X171463098Y-65782040D01*
X171282413Y-66052454D01*
X171052454Y-66282413D01*
X171052451Y-66282415D01*
X170782042Y-66463097D01*
X170481579Y-66587553D01*
X170375256Y-66608702D01*
X170162611Y-66651000D01*
X169837389Y-66651000D01*
X169624744Y-66608702D01*
X169518421Y-66587553D01*
X169217958Y-66463097D01*
X168947549Y-66282415D01*
X168947546Y-66282413D01*
X168717587Y-66052454D01*
X168536902Y-65782040D01*
X168412447Y-65481578D01*
X168349000Y-65162611D01*
X168349000Y-64837389D01*
X168412447Y-64518422D01*
X168536902Y-64217960D01*
X168717587Y-63947546D01*
X168947546Y-63717587D01*
X168951148Y-63715180D01*
X169217958Y-63536903D01*
X169518421Y-63412447D01*
X169624744Y-63391298D01*
X169837389Y-63349000D01*
X170162611Y-63349000D01*
X170375256Y-63391298D01*
X170375256Y-63391298D01*
G37*
G36*
X107901000Y-60901000D02*
X106099000Y-60901000D01*
X106099000Y-59099000D01*
X107901000Y-59099000D01*
X107901000Y-60901000D01*
X107901000Y-60901000D01*
G37*
G36*
X99490443Y-59105519D02*
X99556627Y-59112037D01*
X99669853Y-59146384D01*
X99726467Y-59163557D01*
X99828774Y-59218242D01*
X99882991Y-59247222D01*
X99918729Y-59276552D01*
X100020186Y-59359814D01*
X100103448Y-59461271D01*
X100132778Y-59497009D01*
X100132779Y-59497011D01*
X100216443Y-59653533D01*
X100216443Y-59653534D01*
X100267963Y-59823373D01*
X100285359Y-60000000D01*
X100267963Y-60176627D01*
X100233616Y-60289853D01*
X100216443Y-60346467D01*
X100142348Y-60485087D01*
X100132778Y-60502991D01*
X100103448Y-60538729D01*
X100020186Y-60640186D01*
X99922358Y-60720470D01*
X99882991Y-60752778D01*
X99882989Y-60752779D01*
X99726467Y-60836443D01*
X99669853Y-60853616D01*
X99556627Y-60887963D01*
X99490442Y-60894482D01*
X99424260Y-60901000D01*
X99335740Y-60901000D01*
X99269558Y-60894482D01*
X99203373Y-60887963D01*
X99090147Y-60853616D01*
X99033533Y-60836443D01*
X98877011Y-60752779D01*
X98877009Y-60752778D01*
X98837642Y-60720470D01*
X98739814Y-60640186D01*
X98656552Y-60538729D01*
X98627222Y-60502991D01*
X98617652Y-60485087D01*
X98543557Y-60346467D01*
X98526384Y-60289853D01*
X98492037Y-60176627D01*
X98474641Y-60000000D01*
X98492037Y-59823373D01*
X98543557Y-59653534D01*
X98543557Y-59653533D01*
X98627221Y-59497011D01*
X98627222Y-59497009D01*
X98656552Y-59461271D01*
X98739814Y-59359814D01*
X98841271Y-59276552D01*
X98877009Y-59247222D01*
X98931226Y-59218242D01*
X99033533Y-59163557D01*
X99090147Y-59146384D01*
X99203373Y-59112037D01*
X99269557Y-59105519D01*
X99335740Y-59099000D01*
X99424260Y-59099000D01*
X99490443Y-59105519D01*
X99490443Y-59105519D01*
G37*
G36*
X102030443Y-59105519D02*
X102096627Y-59112037D01*
X102209853Y-59146384D01*
X102266467Y-59163557D01*
X102368774Y-59218242D01*
X102422991Y-59247222D01*
X102458729Y-59276552D01*
X102560186Y-59359814D01*
X102643448Y-59461271D01*
X102672778Y-59497009D01*
X102672779Y-59497011D01*
X102756443Y-59653533D01*
X102756443Y-59653534D01*
X102807963Y-59823373D01*
X102825359Y-60000000D01*
X102807963Y-60176627D01*
X102773616Y-60289853D01*
X102756443Y-60346467D01*
X102682348Y-60485087D01*
X102672778Y-60502991D01*
X102643448Y-60538729D01*
X102560186Y-60640186D01*
X102462358Y-60720470D01*
X102422991Y-60752778D01*
X102422989Y-60752779D01*
X102266467Y-60836443D01*
X102209853Y-60853616D01*
X102096627Y-60887963D01*
X102030442Y-60894482D01*
X101964260Y-60901000D01*
X101875740Y-60901000D01*
X101809558Y-60894482D01*
X101743373Y-60887963D01*
X101630147Y-60853616D01*
X101573533Y-60836443D01*
X101417011Y-60752779D01*
X101417009Y-60752778D01*
X101377642Y-60720470D01*
X101279814Y-60640186D01*
X101196552Y-60538729D01*
X101167222Y-60502991D01*
X101157652Y-60485087D01*
X101083557Y-60346467D01*
X101066384Y-60289853D01*
X101032037Y-60176627D01*
X101014641Y-60000000D01*
X101032037Y-59823373D01*
X101083557Y-59653534D01*
X101083557Y-59653533D01*
X101167221Y-59497011D01*
X101167222Y-59497009D01*
X101196552Y-59461271D01*
X101279814Y-59359814D01*
X101381271Y-59276552D01*
X101417009Y-59247222D01*
X101471226Y-59218242D01*
X101573533Y-59163557D01*
X101630147Y-59146384D01*
X101743373Y-59112037D01*
X101809557Y-59105519D01*
X101875740Y-59099000D01*
X101964260Y-59099000D01*
X102030443Y-59105519D01*
X102030443Y-59105519D01*
G37*
G36*
X104570443Y-59105519D02*
X104636627Y-59112037D01*
X104749853Y-59146384D01*
X104806467Y-59163557D01*
X104908774Y-59218242D01*
X104962991Y-59247222D01*
X104998729Y-59276552D01*
X105100186Y-59359814D01*
X105183448Y-59461271D01*
X105212778Y-59497009D01*
X105212779Y-59497011D01*
X105296443Y-59653533D01*
X105296443Y-59653534D01*
X105347963Y-59823373D01*
X105365359Y-60000000D01*
X105347963Y-60176627D01*
X105313616Y-60289853D01*
X105296443Y-60346467D01*
X105222348Y-60485087D01*
X105212778Y-60502991D01*
X105183448Y-60538729D01*
X105100186Y-60640186D01*
X105002358Y-60720470D01*
X104962991Y-60752778D01*
X104962989Y-60752779D01*
X104806467Y-60836443D01*
X104749853Y-60853616D01*
X104636627Y-60887963D01*
X104570442Y-60894482D01*
X104504260Y-60901000D01*
X104415740Y-60901000D01*
X104349558Y-60894482D01*
X104283373Y-60887963D01*
X104170147Y-60853616D01*
X104113533Y-60836443D01*
X103957011Y-60752779D01*
X103957009Y-60752778D01*
X103917642Y-60720470D01*
X103819814Y-60640186D01*
X103736552Y-60538729D01*
X103707222Y-60502991D01*
X103697652Y-60485087D01*
X103623557Y-60346467D01*
X103606384Y-60289853D01*
X103572037Y-60176627D01*
X103554641Y-60000000D01*
X103572037Y-59823373D01*
X103623557Y-59653534D01*
X103623557Y-59653533D01*
X103707221Y-59497011D01*
X103707222Y-59497009D01*
X103736552Y-59461271D01*
X103819814Y-59359814D01*
X103921271Y-59276552D01*
X103957009Y-59247222D01*
X104011226Y-59218242D01*
X104113533Y-59163557D01*
X104170147Y-59146384D01*
X104283373Y-59112037D01*
X104349557Y-59105519D01*
X104415740Y-59099000D01*
X104504260Y-59099000D01*
X104570443Y-59105519D01*
X104570443Y-59105519D01*
G37*
G36*
X135150443Y-59105519D02*
X135216627Y-59112037D01*
X135329853Y-59146384D01*
X135386467Y-59163557D01*
X135488774Y-59218242D01*
X135542991Y-59247222D01*
X135578729Y-59276552D01*
X135680186Y-59359814D01*
X135763448Y-59461271D01*
X135792778Y-59497009D01*
X135792779Y-59497011D01*
X135876443Y-59653533D01*
X135876443Y-59653534D01*
X135927963Y-59823373D01*
X135945359Y-60000000D01*
X135927963Y-60176627D01*
X135893616Y-60289853D01*
X135876443Y-60346467D01*
X135802348Y-60485087D01*
X135792778Y-60502991D01*
X135763448Y-60538729D01*
X135680186Y-60640186D01*
X135582358Y-60720470D01*
X135542991Y-60752778D01*
X135542989Y-60752779D01*
X135386467Y-60836443D01*
X135329853Y-60853616D01*
X135216627Y-60887963D01*
X135150442Y-60894482D01*
X135084260Y-60901000D01*
X134995740Y-60901000D01*
X134929558Y-60894482D01*
X134863373Y-60887963D01*
X134750147Y-60853616D01*
X134693533Y-60836443D01*
X134537011Y-60752779D01*
X134537009Y-60752778D01*
X134497642Y-60720470D01*
X134399814Y-60640186D01*
X134316552Y-60538729D01*
X134287222Y-60502991D01*
X134277652Y-60485087D01*
X134203557Y-60346467D01*
X134186384Y-60289853D01*
X134152037Y-60176627D01*
X134134641Y-60000000D01*
X134152037Y-59823373D01*
X134203557Y-59653534D01*
X134203557Y-59653533D01*
X134287221Y-59497011D01*
X134287222Y-59497009D01*
X134316552Y-59461271D01*
X134399814Y-59359814D01*
X134501271Y-59276552D01*
X134537009Y-59247222D01*
X134591226Y-59218242D01*
X134693533Y-59163557D01*
X134750147Y-59146384D01*
X134863373Y-59112037D01*
X134929557Y-59105519D01*
X134995740Y-59099000D01*
X135084260Y-59099000D01*
X135150443Y-59105519D01*
X135150443Y-59105519D01*
G37*
G36*
X133401000Y-60901000D02*
X131599000Y-60901000D01*
X131599000Y-59099000D01*
X133401000Y-59099000D01*
X133401000Y-60901000D01*
X133401000Y-60901000D01*
G37*
G36*
X123813000Y-60813000D02*
X122187000Y-60813000D01*
X122187000Y-59187000D01*
X123813000Y-59187000D01*
X123813000Y-60813000D01*
X123813000Y-60813000D01*
G37*
G36*
X121237142Y-59218242D02*
X121385102Y-59279530D01*
X121452130Y-59324317D01*
X121518257Y-59368501D01*
X121631499Y-59481743D01*
X121675683Y-59547870D01*
X121720470Y-59614898D01*
X121781758Y-59762858D01*
X121813000Y-59919925D01*
X121813000Y-60080075D01*
X121781758Y-60237142D01*
X121736474Y-60346466D01*
X121720471Y-60385100D01*
X121631499Y-60518257D01*
X121518257Y-60631499D01*
X121452130Y-60675683D01*
X121385102Y-60720470D01*
X121237142Y-60781758D01*
X121080075Y-60813000D01*
X120919925Y-60813000D01*
X120762858Y-60781758D01*
X120614898Y-60720470D01*
X120547870Y-60675683D01*
X120481743Y-60631499D01*
X120368501Y-60518257D01*
X120279529Y-60385100D01*
X120263526Y-60346466D01*
X120218242Y-60237142D01*
X120187000Y-60080075D01*
X120187000Y-59919925D01*
X120218242Y-59762858D01*
X120279530Y-59614898D01*
X120324317Y-59547870D01*
X120368501Y-59481743D01*
X120481743Y-59368501D01*
X120547870Y-59324317D01*
X120614898Y-59279530D01*
X120762858Y-59218242D01*
X120919925Y-59187000D01*
X121080075Y-59187000D01*
X121237142Y-59218242D01*
X121237142Y-59218242D01*
G37*
G36*
X119237142Y-59218242D02*
X119385102Y-59279530D01*
X119452130Y-59324317D01*
X119518257Y-59368501D01*
X119631499Y-59481743D01*
X119675683Y-59547870D01*
X119720470Y-59614898D01*
X119781758Y-59762858D01*
X119813000Y-59919925D01*
X119813000Y-60080075D01*
X119781758Y-60237142D01*
X119736474Y-60346466D01*
X119720471Y-60385100D01*
X119631499Y-60518257D01*
X119518257Y-60631499D01*
X119452130Y-60675683D01*
X119385102Y-60720470D01*
X119237142Y-60781758D01*
X119080075Y-60813000D01*
X118919925Y-60813000D01*
X118762858Y-60781758D01*
X118614898Y-60720470D01*
X118547870Y-60675683D01*
X118481743Y-60631499D01*
X118368501Y-60518257D01*
X118279529Y-60385100D01*
X118263526Y-60346466D01*
X118218242Y-60237142D01*
X118187000Y-60080075D01*
X118187000Y-59919925D01*
X118218242Y-59762858D01*
X118279530Y-59614898D01*
X118324317Y-59547870D01*
X118368501Y-59481743D01*
X118481743Y-59368501D01*
X118547870Y-59324317D01*
X118614898Y-59279530D01*
X118762858Y-59218242D01*
X118919925Y-59187000D01*
X119080075Y-59187000D01*
X119237142Y-59218242D01*
X119237142Y-59218242D01*
G37*
G36*
X117237142Y-59218242D02*
X117385102Y-59279530D01*
X117452130Y-59324317D01*
X117518257Y-59368501D01*
X117631499Y-59481743D01*
X117675683Y-59547870D01*
X117720470Y-59614898D01*
X117781758Y-59762858D01*
X117813000Y-59919925D01*
X117813000Y-60080075D01*
X117781758Y-60237142D01*
X117736474Y-60346466D01*
X117720471Y-60385100D01*
X117631499Y-60518257D01*
X117518257Y-60631499D01*
X117452130Y-60675683D01*
X117385102Y-60720470D01*
X117237142Y-60781758D01*
X117080075Y-60813000D01*
X116919925Y-60813000D01*
X116762858Y-60781758D01*
X116614898Y-60720470D01*
X116547870Y-60675683D01*
X116481743Y-60631499D01*
X116368501Y-60518257D01*
X116279529Y-60385100D01*
X116263526Y-60346466D01*
X116218242Y-60237142D01*
X116187000Y-60080075D01*
X116187000Y-59919925D01*
X116218242Y-59762858D01*
X116279530Y-59614898D01*
X116324317Y-59547870D01*
X116368501Y-59481743D01*
X116481743Y-59368501D01*
X116547870Y-59324317D01*
X116614898Y-59279530D01*
X116762858Y-59218242D01*
X116919925Y-59187000D01*
X117080075Y-59187000D01*
X117237142Y-59218242D01*
X117237142Y-59218242D01*
G37*
M02*
