G04 #@! TF.GenerationSoftware,KiCad,Pcbnew,(5.0.2)-1*
G04 #@! TF.CreationDate,2019-02-25T23:41:49+09:00*
G04 #@! TF.ProjectId,Land,4c616e64-2e6b-4696-9361-645f70636258,rev?*
G04 #@! TF.SameCoordinates,Original*
G04 #@! TF.FileFunction,Profile,NP*
%FSLAX46Y46*%
G04 Gerber Fmt 4.6, Leading zero omitted, Abs format (unit mm)*
G04 Created by KiCad (PCBNEW (5.0.2)-1) date 2019/02/25 23:41:49*
%MOMM*%
%LPD*%
G01*
G04 APERTURE LIST*
%ADD10C,0.200000*%
%ADD11C,0.150000*%
G04 APERTURE END LIST*
D10*
X150500000Y-99000000D02*
X150500000Y-101000000D01*
X129500000Y-99000000D02*
X150500000Y-99000000D01*
X129500000Y-101000000D02*
X129500000Y-99000000D01*
X150500000Y-101000000D02*
X129500000Y-101000000D01*
X130500000Y-129000000D02*
X130500000Y-131000000D01*
X109500000Y-129000000D02*
X130500000Y-129000000D01*
X109500000Y-131000000D02*
X109500000Y-129000000D01*
X130500000Y-131000000D02*
X109500000Y-131000000D01*
X109500000Y-71000000D02*
X109500000Y-69000000D01*
X130500000Y-71000000D02*
X109500000Y-71000000D01*
X130500000Y-69000000D02*
X130500000Y-71000000D01*
X109500000Y-69000000D02*
X130500000Y-69000000D01*
D11*
X80000000Y-145000000D02*
X90000000Y-155000000D01*
X80000000Y-65000000D02*
X80000000Y-145000000D01*
X90000000Y-55000000D02*
X80000000Y-65000000D01*
X170000000Y-55000000D02*
X90000000Y-55000000D01*
X180000000Y-65000000D02*
X170000000Y-55000000D01*
X180000000Y-145000000D02*
X180000000Y-65000000D01*
X170000000Y-155000000D02*
X180000000Y-145000000D01*
X90000000Y-155000000D02*
X170000000Y-155000000D01*
M02*
