M48
;DRILL file {KiCad (5.0.2)-1} date 2019/02/25 23:42:11
;FORMAT={-:-/ absolute / metric / decimal}
FMAT,2
METRIC,TZ
T1C0.400
T2C0.762
T3C0.800
T4C1.000
T5C3.200
%
G90
G05
T1
X100.Y-93.
X100.Y-103.
X102.Y-85.
X102.Y-109.
X102.Y-145.
X103.Y-108.
X105.Y-108.
X105.Y-109.
X105.Y-110.
X106.Y-65.
X108.Y-115.
X110.5Y-74.
X110.5Y-75.
X110.5Y-125.
X110.5Y-126.
X112.Y-85.
X112.Y-145.
X112.5Y-67.75
X112.5Y-72.25
X112.5Y-127.75
X112.5Y-132.25
X117.5Y-67.75
X117.5Y-72.25
X117.5Y-127.75
X117.5Y-132.25
X118.Y-115.
X122.Y-85.
X122.Y-145.
X122.5Y-67.75
X122.5Y-72.25
X122.5Y-127.75
X122.5Y-132.25
X127.5Y-67.75
X127.5Y-72.25
X127.5Y-127.75
X127.5Y-132.25
X128.Y-85.
X128.Y-115.
X132.Y-85.
X132.Y-115.
X132.Y-145.
X132.5Y-97.75
X132.5Y-102.25
X134.Y-90.5
X135.Y-92.5
X137.Y-90.5
X137.Y-92.5
X137.5Y-97.75
X137.5Y-102.25
X138.Y-85.
X138.Y-115.
X142.Y-85.
X142.Y-115.
X142.Y-145.
X142.5Y-97.75
X142.5Y-102.25
X147.5Y-97.75
X147.5Y-102.25
X148.Y-115.
X152.Y-85.
X152.Y-116.
X152.Y-145.
X153.Y-117.
X158.Y-115.
X159.25Y-84.
X160.Y-134.
X160.Y-138.
X160.Y-143.
X162.Y-85.
X163.5Y-90.3
X163.5Y-91.5
X163.5Y-92.5
X167.Y-115.
X167.75Y-103.25
X172.5Y-103.25
X172.5Y-104.25
X172.5Y-105.25
X172.5Y-106.25
X172.5Y-107.25
X172.539Y-109.631
T2
X147.5Y-70.
X157.5Y-70.
X117.Y-60.
X119.Y-60.
X121.Y-60.
X123.Y-60.
T3
X95.Y-70.
X97.5Y-70.
T4
X99.38Y-60.
X101.92Y-60.
X104.46Y-60.
X107.Y-60.
X132.5Y-60.
X135.04Y-60.
T5
X170.Y-145.
X170.Y-65.
X90.Y-145.
X90.Y-65.
T0
M30
