G04 #@! TF.GenerationSoftware,KiCad,Pcbnew,(5.0.2)-1*
G04 #@! TF.CreationDate,2019-02-25T23:41:49+09:00*
G04 #@! TF.ProjectId,Land,4c616e64-2e6b-4696-9361-645f70636258,rev?*
G04 #@! TF.SameCoordinates,Original*
G04 #@! TF.FileFunction,Copper,L1,Top*
G04 #@! TF.FilePolarity,Positive*
%FSLAX46Y46*%
G04 Gerber Fmt 4.6, Leading zero omitted, Abs format (unit mm)*
G04 Created by KiCad (PCBNEW (5.0.2)-1) date 2019/02/25 23:41:49*
%MOMM*%
%LPD*%
G01*
G04 APERTURE LIST*
G04 #@! TA.AperFunction,SMDPad,CuDef*
%ADD10R,0.800000X0.800000*%
G04 #@! TD*
G04 #@! TA.AperFunction,ComponentPad*
%ADD11R,1.700000X1.700000*%
G04 #@! TD*
G04 #@! TA.AperFunction,ComponentPad*
%ADD12O,1.700000X1.700000*%
G04 #@! TD*
G04 #@! TA.AperFunction,ComponentPad*
%ADD13R,1.600000X1.600000*%
G04 #@! TD*
G04 #@! TA.AperFunction,ComponentPad*
%ADD14C,1.600000*%
G04 #@! TD*
G04 #@! TA.AperFunction,SMDPad,CuDef*
%ADD15R,2.000000X2.000000*%
G04 #@! TD*
G04 #@! TA.AperFunction,ComponentPad*
%ADD16R,1.524000X1.524000*%
G04 #@! TD*
G04 #@! TA.AperFunction,ComponentPad*
%ADD17C,1.524000*%
G04 #@! TD*
G04 #@! TA.AperFunction,ViaPad*
%ADD18C,0.800000*%
G04 #@! TD*
G04 #@! TA.AperFunction,Conductor*
%ADD19C,0.250000*%
G04 #@! TD*
G04 #@! TA.AperFunction,Conductor*
%ADD20C,0.500000*%
G04 #@! TD*
G04 #@! TA.AperFunction,Conductor*
%ADD21C,0.254000*%
G04 #@! TD*
G04 APERTURE END LIST*
D10*
G04 #@! TO.P,D1,2*
G04 #@! TO.N,Net-(D1-Pad2)*
X160800000Y-85000000D03*
G04 #@! TO.P,D1,1*
G04 #@! TO.N,Net-(D1-Pad1)*
X159200000Y-85000000D03*
G04 #@! TD*
G04 #@! TO.P,D2,1*
G04 #@! TO.N,Net-(D1-Pad1)*
X149200000Y-85000000D03*
G04 #@! TO.P,D2,2*
G04 #@! TO.N,Net-(D18-Pad2)*
X150800000Y-85000000D03*
G04 #@! TD*
G04 #@! TO.P,D3,2*
G04 #@! TO.N,Net-(D19-Pad2)*
X140800000Y-85000000D03*
G04 #@! TO.P,D3,1*
G04 #@! TO.N,Net-(D1-Pad1)*
X139200000Y-85000000D03*
G04 #@! TD*
G04 #@! TO.P,D4,1*
G04 #@! TO.N,Net-(D1-Pad1)*
X129200000Y-85000000D03*
G04 #@! TO.P,D4,2*
G04 #@! TO.N,Net-(D20-Pad2)*
X130800000Y-85000000D03*
G04 #@! TD*
G04 #@! TO.P,D5,2*
G04 #@! TO.N,Net-(D21-Pad2)*
X120800000Y-85000000D03*
G04 #@! TO.P,D5,1*
G04 #@! TO.N,Net-(D1-Pad1)*
X119200000Y-85000000D03*
G04 #@! TD*
G04 #@! TO.P,D6,1*
G04 #@! TO.N,Net-(D1-Pad1)*
X109200000Y-85000000D03*
G04 #@! TO.P,D6,2*
G04 #@! TO.N,Net-(D22-Pad2)*
X110800000Y-85000000D03*
G04 #@! TD*
G04 #@! TO.P,D7,2*
G04 #@! TO.N,Net-(D23-Pad2)*
X100800000Y-85000000D03*
G04 #@! TO.P,D7,1*
G04 #@! TO.N,Net-(D1-Pad1)*
X99200000Y-85000000D03*
G04 #@! TD*
G04 #@! TO.P,D8,1*
G04 #@! TO.N,Net-(D1-Pad1)*
X100000000Y-95800000D03*
G04 #@! TO.P,D8,2*
G04 #@! TO.N,Net-(D24-Pad2)*
X100000000Y-94200000D03*
G04 #@! TD*
G04 #@! TO.P,D9,2*
G04 #@! TO.N,Net-(D25-Pad2)*
X100000000Y-104200000D03*
G04 #@! TO.P,D9,1*
G04 #@! TO.N,Net-(D1-Pad1)*
X100000000Y-105800000D03*
G04 #@! TD*
G04 #@! TO.P,D10,2*
G04 #@! TO.N,Net-(D10-Pad2)*
X100000000Y-114200000D03*
G04 #@! TO.P,D10,1*
G04 #@! TO.N,Net-(D1-Pad1)*
X100000000Y-115800000D03*
G04 #@! TD*
G04 #@! TO.P,D11,1*
G04 #@! TO.N,Net-(D1-Pad1)*
X110800000Y-115000000D03*
G04 #@! TO.P,D11,2*
G04 #@! TO.N,Net-(D11-Pad2)*
X109200000Y-115000000D03*
G04 #@! TD*
G04 #@! TO.P,D12,1*
G04 #@! TO.N,Net-(D1-Pad1)*
X120800000Y-115000000D03*
G04 #@! TO.P,D12,2*
G04 #@! TO.N,Net-(D12-Pad2)*
X119200000Y-115000000D03*
G04 #@! TD*
G04 #@! TO.P,D13,1*
G04 #@! TO.N,Net-(D1-Pad1)*
X130800000Y-115000000D03*
G04 #@! TO.P,D13,2*
G04 #@! TO.N,Net-(D13-Pad2)*
X129200000Y-115000000D03*
G04 #@! TD*
G04 #@! TO.P,D14,1*
G04 #@! TO.N,Net-(D1-Pad1)*
X140800000Y-115000000D03*
G04 #@! TO.P,D14,2*
G04 #@! TO.N,Net-(D14-Pad2)*
X139200000Y-115000000D03*
G04 #@! TD*
G04 #@! TO.P,D15,2*
G04 #@! TO.N,Net-(D15-Pad2)*
X149200000Y-115000000D03*
G04 #@! TO.P,D15,1*
G04 #@! TO.N,Net-(D1-Pad1)*
X150800000Y-115000000D03*
G04 #@! TD*
G04 #@! TO.P,D16,2*
G04 #@! TO.N,Net-(D16-Pad2)*
X159200000Y-115000000D03*
G04 #@! TO.P,D16,1*
G04 #@! TO.N,Net-(D1-Pad1)*
X160800000Y-115000000D03*
G04 #@! TD*
G04 #@! TO.P,D17,1*
G04 #@! TO.N,Net-(D17-Pad1)*
X160000000Y-125800000D03*
G04 #@! TO.P,D17,2*
G04 #@! TO.N,Net-(D1-Pad2)*
X160000000Y-124200000D03*
G04 #@! TD*
G04 #@! TO.P,D18,2*
G04 #@! TO.N,Net-(D18-Pad2)*
X160000000Y-135000000D03*
G04 #@! TO.P,D18,1*
G04 #@! TO.N,Net-(D17-Pad1)*
X160000000Y-136600000D03*
G04 #@! TD*
G04 #@! TO.P,D19,1*
G04 #@! TO.N,Net-(D17-Pad1)*
X160000000Y-145800000D03*
G04 #@! TO.P,D19,2*
G04 #@! TO.N,Net-(D19-Pad2)*
X160000000Y-144200000D03*
G04 #@! TD*
G04 #@! TO.P,D20,2*
G04 #@! TO.N,Net-(D20-Pad2)*
X150800000Y-145000000D03*
G04 #@! TO.P,D20,1*
G04 #@! TO.N,Net-(D17-Pad1)*
X149200000Y-145000000D03*
G04 #@! TD*
G04 #@! TO.P,D21,1*
G04 #@! TO.N,Net-(D17-Pad1)*
X139200000Y-145000000D03*
G04 #@! TO.P,D21,2*
G04 #@! TO.N,Net-(D21-Pad2)*
X140800000Y-145000000D03*
G04 #@! TD*
G04 #@! TO.P,D22,2*
G04 #@! TO.N,Net-(D22-Pad2)*
X130800000Y-145000000D03*
G04 #@! TO.P,D22,1*
G04 #@! TO.N,Net-(D17-Pad1)*
X129200000Y-145000000D03*
G04 #@! TD*
G04 #@! TO.P,D23,1*
G04 #@! TO.N,Net-(D17-Pad1)*
X119200000Y-145000000D03*
G04 #@! TO.P,D23,2*
G04 #@! TO.N,Net-(D23-Pad2)*
X120800000Y-145000000D03*
G04 #@! TD*
G04 #@! TO.P,D24,1*
G04 #@! TO.N,Net-(D17-Pad1)*
X109200000Y-145000000D03*
G04 #@! TO.P,D24,2*
G04 #@! TO.N,Net-(D24-Pad2)*
X110800000Y-145000000D03*
G04 #@! TD*
G04 #@! TO.P,D25,2*
G04 #@! TO.N,Net-(D25-Pad2)*
X100800000Y-145000000D03*
G04 #@! TO.P,D25,1*
G04 #@! TO.N,Net-(D17-Pad1)*
X99200000Y-145000000D03*
G04 #@! TD*
D11*
G04 #@! TO.P,J3,1*
G04 #@! TO.N,Net-(J3-Pad1)*
X132500000Y-60000000D03*
D12*
G04 #@! TO.P,J3,2*
G04 #@! TO.N,Net-(J3-Pad2)*
X135040000Y-60000000D03*
G04 #@! TD*
D13*
G04 #@! TO.P,C2,1*
G04 #@! TO.N,VCC*
X97500000Y-70000000D03*
D14*
G04 #@! TO.P,C2,2*
G04 #@! TO.N,GND*
X95000000Y-70000000D03*
G04 #@! TD*
D15*
G04 #@! TO.P,TP1,1*
G04 #@! TO.N,VCC*
X112500000Y-67750000D03*
G04 #@! TD*
G04 #@! TO.P,TP2,1*
G04 #@! TO.N,SCL*
X117500000Y-67750000D03*
G04 #@! TD*
G04 #@! TO.P,TP3,1*
G04 #@! TO.N,SDA*
X122500000Y-67750000D03*
G04 #@! TD*
G04 #@! TO.P,TP4,1*
G04 #@! TO.N,GND*
X127500000Y-67750000D03*
G04 #@! TD*
G04 #@! TO.P,TP5,1*
G04 #@! TO.N,VCC*
X112500000Y-72250000D03*
G04 #@! TD*
G04 #@! TO.P,TP6,1*
G04 #@! TO.N,SCL*
X117500000Y-72250000D03*
G04 #@! TD*
G04 #@! TO.P,TP7,1*
G04 #@! TO.N,SDA*
X122500000Y-72250000D03*
G04 #@! TD*
G04 #@! TO.P,TP8,1*
G04 #@! TO.N,GND*
X127500000Y-72250000D03*
G04 #@! TD*
G04 #@! TO.P,TP17,1*
G04 #@! TO.N,VCC*
X132500000Y-97750000D03*
G04 #@! TD*
G04 #@! TO.P,TP18,1*
G04 #@! TO.N,SCL*
X137500000Y-97750000D03*
G04 #@! TD*
G04 #@! TO.P,TP19,1*
G04 #@! TO.N,SDA*
X142500000Y-97750000D03*
G04 #@! TD*
G04 #@! TO.P,TP20,1*
G04 #@! TO.N,GND*
X147500000Y-97750000D03*
G04 #@! TD*
G04 #@! TO.P,TP21,1*
G04 #@! TO.N,VCC*
X132500000Y-102250000D03*
G04 #@! TD*
G04 #@! TO.P,TP22,1*
G04 #@! TO.N,SCL*
X137500000Y-102250000D03*
G04 #@! TD*
G04 #@! TO.P,TP23,1*
G04 #@! TO.N,SDA*
X142500000Y-102250000D03*
G04 #@! TD*
G04 #@! TO.P,TP24,1*
G04 #@! TO.N,GND*
X147500000Y-102250000D03*
G04 #@! TD*
G04 #@! TO.P,TP33,1*
G04 #@! TO.N,VCC*
X112500000Y-127750000D03*
G04 #@! TD*
G04 #@! TO.P,TP34,1*
G04 #@! TO.N,SCL*
X117500000Y-127750000D03*
G04 #@! TD*
G04 #@! TO.P,TP35,1*
G04 #@! TO.N,SDA*
X122500000Y-127750000D03*
G04 #@! TD*
G04 #@! TO.P,TP36,1*
G04 #@! TO.N,GND*
X127500000Y-127750000D03*
G04 #@! TD*
G04 #@! TO.P,TP37,1*
G04 #@! TO.N,VCC*
X112500000Y-132250000D03*
G04 #@! TD*
G04 #@! TO.P,TP38,1*
G04 #@! TO.N,SCL*
X117500000Y-132250000D03*
G04 #@! TD*
G04 #@! TO.P,TP39,1*
G04 #@! TO.N,SDA*
X122500000Y-132250000D03*
G04 #@! TD*
G04 #@! TO.P,TP40,1*
G04 #@! TO.N,GND*
X127500000Y-132250000D03*
G04 #@! TD*
D11*
G04 #@! TO.P,J1,1*
G04 #@! TO.N,SCL*
X107000000Y-60000000D03*
D12*
G04 #@! TO.P,J1,2*
G04 #@! TO.N,SDA*
X104460000Y-60000000D03*
G04 #@! TO.P,J1,3*
G04 #@! TO.N,VCC*
X101920000Y-60000000D03*
G04 #@! TO.P,J1,4*
G04 #@! TO.N,GND*
X99380000Y-60000000D03*
G04 #@! TD*
D16*
G04 #@! TO.P,J2,1*
G04 #@! TO.N,SCL*
X123000000Y-60000000D03*
D17*
G04 #@! TO.P,J2,2*
G04 #@! TO.N,SDA*
X121000000Y-60000000D03*
G04 #@! TO.P,J2,3*
G04 #@! TO.N,VCC*
X119000000Y-60000000D03*
G04 #@! TO.P,J2,4*
G04 #@! TO.N,GND*
X117000000Y-60000000D03*
G04 #@! TD*
G04 #@! TO.P,LS1,2*
G04 #@! TO.N,Net-(J3-Pad2)*
X157500000Y-70000000D03*
D16*
G04 #@! TO.P,LS1,1*
G04 #@! TO.N,Net-(J3-Pad1)*
X147500000Y-70000000D03*
G04 #@! TD*
D18*
G04 #@! TO.N,GND*
X127500000Y-132250000D03*
X127500000Y-127750000D03*
X147500000Y-102250000D03*
X147500000Y-97750000D03*
X127500000Y-67750000D03*
X127500000Y-72250000D03*
X106000000Y-65000000D03*
G04 #@! TO.N,Net-(D1-Pad1)*
X132000000Y-115000000D03*
X138000000Y-85000000D03*
X142000000Y-115000000D03*
X128000000Y-85000000D03*
X167000000Y-115000000D03*
X159250000Y-84000000D03*
G04 #@! TO.N,Net-(D1-Pad2)*
X162000000Y-85000000D03*
X172538655Y-109630782D03*
G04 #@! TO.N,Net-(D10-Pad2)*
X105000000Y-110000000D03*
G04 #@! TO.N,Net-(D11-Pad2)*
X108000000Y-115000000D03*
G04 #@! TO.N,SCL*
X137000000Y-92500000D03*
X135000000Y-92500000D03*
X117500000Y-72250000D03*
X110500000Y-74000000D03*
X137500000Y-97750000D03*
X137500000Y-102250000D03*
X117500000Y-132250000D03*
X117500000Y-127750000D03*
X163500000Y-92500000D03*
X110500000Y-126000000D03*
X117500000Y-67750000D03*
G04 #@! TO.N,SDA*
X163500000Y-91500000D03*
X122500000Y-72250000D03*
X110500000Y-75000000D03*
X122500000Y-67750000D03*
X142500000Y-97750000D03*
X142500000Y-102250000D03*
X122500000Y-132250000D03*
X122500000Y-127750000D03*
X110500000Y-125000000D03*
G04 #@! TO.N,Net-(D18-Pad2)*
X152000000Y-85000000D03*
X160000000Y-134000000D03*
G04 #@! TO.N,Net-(D19-Pad2)*
X142000000Y-85000000D03*
X160000000Y-143000000D03*
G04 #@! TO.N,Net-(D12-Pad2)*
X118000000Y-115000000D03*
X172500000Y-107250000D03*
X153000000Y-117000000D03*
G04 #@! TO.N,Net-(D13-Pad2)*
X128000000Y-115000000D03*
X172500000Y-106250000D03*
X152000000Y-116000000D03*
G04 #@! TO.N,Net-(D14-Pad2)*
X138000000Y-115000000D03*
X172500000Y-104250000D03*
G04 #@! TO.N,Net-(D15-Pad2)*
X148000000Y-115000000D03*
X172500000Y-105250000D03*
G04 #@! TO.N,VCC*
X134000000Y-90500000D03*
X137000000Y-90500000D03*
X163500000Y-90300000D03*
X132500000Y-97750000D03*
X132500000Y-102250000D03*
X112500000Y-127750000D03*
X112500000Y-132250000D03*
X112500000Y-72250000D03*
X112500000Y-67750000D03*
G04 #@! TO.N,Net-(D20-Pad2)*
X132000000Y-85000000D03*
X152000000Y-145000000D03*
G04 #@! TO.N,Net-(D21-Pad2)*
X122000000Y-85000000D03*
X142000000Y-145000000D03*
G04 #@! TO.N,Net-(D22-Pad2)*
X112000000Y-85000000D03*
X132000000Y-145000000D03*
G04 #@! TO.N,Net-(D23-Pad2)*
X102000000Y-85000000D03*
X122000000Y-145000000D03*
G04 #@! TO.N,Net-(D24-Pad2)*
X100000000Y-93000000D03*
X112000000Y-145000000D03*
X105000000Y-108000000D03*
X103000000Y-108000000D03*
G04 #@! TO.N,Net-(D25-Pad2)*
X100000000Y-103000000D03*
X102000000Y-145000000D03*
X105000000Y-109000000D03*
X102000000Y-109000000D03*
G04 #@! TO.N,Net-(D16-Pad2)*
X158000000Y-115000000D03*
X172500000Y-103250000D03*
X167750000Y-103250000D03*
G04 #@! TO.N,Net-(D17-Pad1)*
X160000000Y-138000000D03*
G04 #@! TD*
D19*
G04 #@! TO.N,GND*
X117000000Y-60000000D02*
X111000000Y-60000000D01*
X111000000Y-60000000D02*
X106000000Y-65000000D01*
G04 #@! TO.N,Net-(D1-Pad1)*
X160800000Y-115000000D02*
X160800000Y-115650000D01*
X160800000Y-115650000D02*
X160450000Y-116000000D01*
X160450000Y-116000000D02*
X157927000Y-116000000D01*
X157927000Y-116000000D02*
X156927000Y-115000000D01*
X156927000Y-115000000D02*
X150800000Y-115000000D01*
X150800000Y-115000000D02*
X150800000Y-115650000D01*
X150800000Y-115650000D02*
X150450000Y-116000000D01*
X150450000Y-116000000D02*
X147927000Y-116000000D01*
X147927000Y-116000000D02*
X146927000Y-115000000D01*
X130800000Y-115000000D02*
X130800000Y-115650000D01*
X130800000Y-115650000D02*
X130450000Y-116000000D01*
X130450000Y-116000000D02*
X127927000Y-116000000D01*
X127927000Y-116000000D02*
X126927000Y-115000000D01*
X126927000Y-115000000D02*
X120800000Y-115000000D01*
X120800000Y-115000000D02*
X120800000Y-115650000D01*
X120800000Y-115650000D02*
X120450000Y-116000000D01*
X120450000Y-116000000D02*
X117927000Y-116000000D01*
X117927000Y-116000000D02*
X116927000Y-115000000D01*
X116927000Y-115000000D02*
X110800000Y-115000000D01*
X100000000Y-115800000D02*
X100700000Y-115800000D01*
X100700000Y-115800000D02*
X101427000Y-115073000D01*
X101427000Y-115073000D02*
X107000000Y-115073000D01*
X107000000Y-115073000D02*
X107927000Y-116000000D01*
X107927000Y-116000000D02*
X110450000Y-116000000D01*
X110450000Y-116000000D02*
X110800000Y-115650000D01*
X110800000Y-115650000D02*
X110800000Y-115000000D01*
X100000000Y-115800000D02*
X99300000Y-115800000D01*
X99300000Y-115800000D02*
X99000000Y-115500000D01*
X99000000Y-115500000D02*
X99000000Y-112927000D01*
X99000000Y-112927000D02*
X100000000Y-111927000D01*
X100000000Y-111927000D02*
X100000000Y-105800000D01*
X100000000Y-105800000D02*
X99300000Y-105800000D01*
X99300000Y-105800000D02*
X99000000Y-105500000D01*
X99000000Y-105500000D02*
X99000000Y-102927000D01*
X99000000Y-102927000D02*
X100000000Y-101927000D01*
X100000000Y-101927000D02*
X100000000Y-95800000D01*
X100000000Y-95800000D02*
X99300000Y-95800000D01*
X99300000Y-95800000D02*
X99000000Y-95500000D01*
X99000000Y-95500000D02*
X99000000Y-92927000D01*
X99000000Y-92927000D02*
X99927000Y-92000000D01*
X99927000Y-92000000D02*
X99927000Y-86427000D01*
X99927000Y-86427000D02*
X99200000Y-85700000D01*
X99200000Y-85700000D02*
X99200000Y-85000000D01*
X99200000Y-85000000D02*
X99200000Y-84350000D01*
X99200000Y-84350000D02*
X99550000Y-84000000D01*
X99550000Y-84000000D02*
X102073000Y-84000000D01*
X102073000Y-84000000D02*
X103073000Y-85000000D01*
X103073000Y-85000000D02*
X109200000Y-85000000D01*
X109200000Y-85000000D02*
X109200000Y-84350000D01*
X109200000Y-84350000D02*
X109550000Y-84000000D01*
X109550000Y-84000000D02*
X112073000Y-84000000D01*
X112073000Y-84000000D02*
X113073000Y-85000000D01*
X113073000Y-85000000D02*
X119200000Y-85000000D01*
X139200000Y-85000000D02*
X139200000Y-84350000D01*
X139200000Y-84350000D02*
X139550000Y-84000000D01*
X139550000Y-84000000D02*
X142073000Y-84000000D01*
X142073000Y-84000000D02*
X143073000Y-85000000D01*
X143073000Y-85000000D02*
X149200000Y-85000000D01*
X119200000Y-85000000D02*
X119200000Y-84350000D01*
X119200000Y-84350000D02*
X119550000Y-84000000D01*
X119550000Y-84000000D02*
X122073000Y-84000000D01*
X122073000Y-84000000D02*
X123073000Y-85000000D01*
X132000000Y-115000000D02*
X130800000Y-115000000D01*
X138000000Y-85000000D02*
X139200000Y-85000000D01*
X149200000Y-85000000D02*
X149200000Y-84350000D01*
X149200000Y-84350000D02*
X149550000Y-84000000D01*
X149550000Y-84000000D02*
X152073000Y-84000000D01*
X152073000Y-84000000D02*
X153073000Y-85000000D01*
X158947900Y-85000000D02*
X159200000Y-85000000D01*
X160800000Y-115000000D02*
X162000000Y-115000000D01*
X162000000Y-115000000D02*
X162012653Y-115012653D01*
X158000000Y-85000000D02*
X158947900Y-85000000D01*
X153073000Y-85000000D02*
X158000000Y-85000000D01*
X142000000Y-115000000D02*
X140800000Y-115000000D01*
X146927000Y-115000000D02*
X142000000Y-115000000D01*
X128000000Y-85000000D02*
X129200000Y-85000000D01*
X123073000Y-85000000D02*
X128000000Y-85000000D01*
X162000000Y-115000000D02*
X167000000Y-115000000D01*
X159200000Y-85000000D02*
X159200000Y-84050000D01*
X159200000Y-84050000D02*
X159250000Y-84000000D01*
G04 #@! TO.N,Net-(D1-Pad2)*
X160800000Y-85000000D02*
X162000000Y-85000000D01*
X172538655Y-109538655D02*
X172538655Y-109630782D01*
X172500000Y-109500000D02*
X172538655Y-109538655D01*
X160000000Y-124200000D02*
X160000000Y-121000000D01*
X160000000Y-121000000D02*
X163000000Y-118000000D01*
X163000000Y-118000000D02*
X170538655Y-118000000D01*
X170538655Y-118000000D02*
X172538655Y-116000000D01*
X172538655Y-116000000D02*
X172538655Y-109630782D01*
G04 #@! TO.N,Net-(D10-Pad2)*
X100000000Y-114200000D02*
X100000000Y-113000000D01*
X105000000Y-110000000D02*
X103000000Y-110000000D01*
X101000000Y-112000000D02*
X101000000Y-110500000D01*
X101000000Y-112000000D02*
X100000000Y-113000000D01*
X101500000Y-110000000D02*
X103000000Y-110000000D01*
X101000000Y-110500000D02*
X101500000Y-110000000D01*
G04 #@! TO.N,Net-(D11-Pad2)*
X109200000Y-115000000D02*
X108000000Y-115000000D01*
D20*
G04 #@! TO.N,SCL*
X135000000Y-115000000D02*
X135000000Y-114500000D01*
D19*
X117957000Y-127500000D02*
X118000000Y-127500000D01*
D20*
X163000000Y-92500000D02*
X137000000Y-92500000D01*
X115750000Y-66000000D02*
X117500000Y-67750000D01*
X109500000Y-66000000D02*
X115750000Y-66000000D01*
X107500000Y-68000000D02*
X109500000Y-66000000D01*
X107500000Y-72000000D02*
X107500000Y-68000000D01*
X110500000Y-74000000D02*
X109500000Y-74000000D01*
X109500000Y-74000000D02*
X107500000Y-72000000D01*
X117500000Y-67750000D02*
X117500000Y-67750000D01*
X107500000Y-127500000D02*
X109000000Y-126000000D01*
X107500000Y-132500000D02*
X107500000Y-127500000D01*
X109000000Y-134000000D02*
X107500000Y-132500000D01*
X117500000Y-132250000D02*
X117500000Y-132250000D01*
X115750000Y-134000000D02*
X109000000Y-134000000D01*
X117500000Y-132250000D02*
X115750000Y-134000000D01*
X135000000Y-96250000D02*
X136500000Y-97750000D01*
X135000000Y-92500000D02*
X135000000Y-96250000D01*
X136500000Y-97750000D02*
X137500000Y-97750000D01*
X163000000Y-92500000D02*
X163500000Y-92500000D01*
X109000000Y-126000000D02*
X110500000Y-126000000D01*
X136500000Y-102250000D02*
X137500000Y-102250000D01*
X135000000Y-103750000D02*
X136500000Y-102250000D01*
X135000000Y-122500000D02*
X135000000Y-103750000D01*
X133500000Y-124000000D02*
X135000000Y-122500000D01*
X121250000Y-124000000D02*
X133500000Y-124000000D01*
X117500000Y-127750000D02*
X121250000Y-124000000D01*
X135000000Y-77500000D02*
X135000000Y-92500000D01*
X133500000Y-76000000D02*
X135000000Y-77500000D01*
X121250000Y-76000000D02*
X133500000Y-76000000D01*
X117500000Y-72250000D02*
X121250000Y-76000000D01*
X117500000Y-67750000D02*
X117500000Y-67750000D01*
D19*
G04 #@! TO.N,SDA*
X121957000Y-127500000D02*
X122000000Y-127500000D01*
D20*
X163500000Y-91500000D02*
X136000000Y-91500000D01*
X122500000Y-72250000D02*
X122500000Y-72250000D01*
X106500000Y-127000000D02*
X108500000Y-125000000D01*
X106500000Y-133000000D02*
X106500000Y-127000000D01*
X108500000Y-135000000D02*
X106500000Y-133000000D01*
X122500000Y-132250000D02*
X122500000Y-132250000D01*
X119750000Y-135000000D02*
X108500000Y-135000000D01*
X122500000Y-132250000D02*
X119750000Y-135000000D01*
X136000000Y-95000000D02*
X136000000Y-91500000D01*
X137000000Y-96000000D02*
X136000000Y-95000000D01*
X142500000Y-97750000D02*
X140750000Y-96000000D01*
X140750000Y-96000000D02*
X137000000Y-96000000D01*
X108500000Y-125000000D02*
X110500000Y-125000000D01*
X140750000Y-104000000D02*
X142500000Y-102250000D01*
X122500000Y-127750000D02*
X125250000Y-125000000D01*
X125250000Y-125000000D02*
X134000000Y-125000000D01*
X134000000Y-125000000D02*
X136000000Y-123000000D01*
X136000000Y-123000000D02*
X136000000Y-105000000D01*
X136000000Y-105000000D02*
X137000000Y-104000000D01*
X137000000Y-104000000D02*
X140750000Y-104000000D01*
X109000000Y-75000000D02*
X110500000Y-75000000D01*
X106500000Y-72500000D02*
X109000000Y-75000000D01*
X106500000Y-67500000D02*
X106500000Y-72500000D01*
X109000000Y-65000000D02*
X106500000Y-67500000D01*
X119750000Y-65000000D02*
X109000000Y-65000000D01*
X122500000Y-67750000D02*
X119750000Y-65000000D01*
X136000000Y-77000000D02*
X136000000Y-91500000D01*
X134000000Y-75000000D02*
X136000000Y-77000000D01*
X125250000Y-75000000D02*
X134000000Y-75000000D01*
X122500000Y-72250000D02*
X125250000Y-75000000D01*
X121000000Y-63750000D02*
X119750000Y-65000000D01*
X121000000Y-60000000D02*
X121000000Y-63750000D01*
D19*
G04 #@! TO.N,Net-(D18-Pad2)*
X150800000Y-85000000D02*
X152000000Y-85000000D01*
X160000000Y-135000000D02*
X160000000Y-134000000D01*
G04 #@! TO.N,Net-(D19-Pad2)*
X140800000Y-85000000D02*
X142000000Y-85000000D01*
X160000000Y-144200000D02*
X160000000Y-143000000D01*
G04 #@! TO.N,Net-(D12-Pad2)*
X119200000Y-115000000D02*
X118000000Y-115000000D01*
X171500000Y-107500000D02*
X171750000Y-107250000D01*
X171500000Y-115500000D02*
X171500000Y-107500000D01*
X156000000Y-117000000D02*
X157000000Y-118000000D01*
X157000000Y-118000000D02*
X161500000Y-118000000D01*
X171750000Y-107250000D02*
X172500000Y-107250000D01*
X161500000Y-118000000D02*
X162500000Y-117000000D01*
X162500000Y-117000000D02*
X170000000Y-117000000D01*
X153000000Y-117000000D02*
X156000000Y-117000000D01*
X170000000Y-117000000D02*
X171500000Y-115500000D01*
G04 #@! TO.N,Net-(D13-Pad2)*
X129200000Y-115000000D02*
X128000000Y-115000000D01*
X171250000Y-106250000D02*
X172500000Y-106250000D01*
X170758900Y-106741100D02*
X171250000Y-106250000D01*
X152000000Y-116000000D02*
X156500000Y-116000000D01*
X156500000Y-116000000D02*
X157500000Y-117000000D01*
X157500000Y-117000000D02*
X161098308Y-117000000D01*
X161098308Y-117000000D02*
X162098308Y-116000000D01*
X162098308Y-116000000D02*
X169258900Y-116000000D01*
X170758900Y-114500000D02*
X170758900Y-106741100D01*
X169258900Y-116000000D02*
X170758900Y-114500000D01*
G04 #@! TO.N,Net-(D14-Pad2)*
X139200000Y-115000000D02*
X138600000Y-115000000D01*
X138600000Y-115000000D02*
X138000000Y-115000000D01*
X170000000Y-104250000D02*
X172500000Y-104250000D01*
X169250000Y-105000000D02*
X170000000Y-104250000D01*
X169250000Y-112500000D02*
X169250000Y-105000000D01*
X139200000Y-115000000D02*
X139200000Y-114350000D01*
X139200000Y-114350000D02*
X139550000Y-114000000D01*
X139550000Y-114000000D02*
X148000000Y-114000000D01*
X148000000Y-114000000D02*
X149000000Y-113000000D01*
X149000000Y-113000000D02*
X168750000Y-113000000D01*
X168750000Y-113000000D02*
X169250000Y-112500000D01*
G04 #@! TO.N,Net-(D15-Pad2)*
X149200000Y-115000000D02*
X148600200Y-115000000D01*
X148600200Y-115000000D02*
X148000000Y-115000000D01*
X149200000Y-114350000D02*
X149550000Y-114000000D01*
X149200000Y-115000000D02*
X149200000Y-114350000D01*
X169500000Y-114000000D02*
X170000000Y-113500000D01*
X170000000Y-113500000D02*
X170000000Y-106000000D01*
X149550000Y-114000000D02*
X169500000Y-114000000D01*
X170000000Y-106000000D02*
X170500000Y-105500000D01*
X170500000Y-105500000D02*
X170750000Y-105250000D01*
X170750000Y-105250000D02*
X172500000Y-105250000D01*
D20*
G04 #@! TO.N,VCC*
X108450000Y-68772200D02*
X108450000Y-71227800D01*
X163300000Y-90500000D02*
X163500000Y-90300000D01*
X137000000Y-90500000D02*
X163300000Y-90500000D01*
X109472078Y-72250000D02*
X112500000Y-72250000D01*
X109222078Y-72000000D02*
X109472078Y-72250000D01*
X108450000Y-71227800D02*
X109222078Y-72000000D01*
X109472078Y-67750000D02*
X112500000Y-67750000D01*
X109222078Y-68000000D02*
X109472078Y-67750000D01*
X109222078Y-68000000D02*
X108450000Y-68772200D01*
X112500000Y-67750000D02*
X112500000Y-67750000D01*
X134000000Y-94750000D02*
X134000000Y-90500000D01*
X112500000Y-132250000D02*
X112500000Y-132250000D01*
X112500000Y-127750000D02*
X112500000Y-127750000D01*
X132500000Y-97750000D02*
X134000000Y-96250000D01*
X134000000Y-96250000D02*
X134000000Y-94750000D01*
X112500000Y-72250000D02*
X112500000Y-72250000D01*
X109200000Y-132250000D02*
X108450000Y-131500000D01*
X112500000Y-132250000D02*
X109200000Y-132250000D01*
X109200000Y-127750000D02*
X108450000Y-128500000D01*
X112500000Y-127750000D02*
X109200000Y-127750000D01*
X108450000Y-131500000D02*
X108450000Y-128500000D01*
X134000000Y-103750000D02*
X132500000Y-102250000D01*
X134000000Y-122000000D02*
X134000000Y-103750000D01*
X133000000Y-123000000D02*
X134000000Y-122000000D01*
X117250000Y-123000000D02*
X133000000Y-123000000D01*
X112500000Y-127750000D02*
X117250000Y-123000000D01*
X134000000Y-78000000D02*
X134000000Y-90500000D01*
X133000000Y-77000000D02*
X134000000Y-78000000D01*
X117250000Y-77000000D02*
X133000000Y-77000000D01*
X112500000Y-72250000D02*
X117250000Y-77000000D01*
X112500000Y-67750000D02*
X112500000Y-67750000D01*
X112500000Y-67750000D02*
X112500000Y-67750000D01*
D19*
G04 #@! TO.N,Net-(D20-Pad2)*
X130800000Y-85000000D02*
X132000000Y-85000000D01*
X150800000Y-145000000D02*
X152000000Y-145000000D01*
G04 #@! TO.N,Net-(D21-Pad2)*
X120800000Y-85000000D02*
X122000000Y-85000000D01*
X140800000Y-145000000D02*
X142000000Y-145000000D01*
G04 #@! TO.N,Net-(D22-Pad2)*
X110800000Y-85000000D02*
X112000000Y-85000000D01*
X130800000Y-145000000D02*
X132000000Y-145000000D01*
G04 #@! TO.N,Net-(D23-Pad2)*
X100800000Y-85000000D02*
X102000000Y-85000000D01*
X120800000Y-145000000D02*
X122000000Y-145000000D01*
G04 #@! TO.N,Net-(D24-Pad2)*
X100000000Y-94200000D02*
X100000000Y-93000000D01*
X110800000Y-145000000D02*
X112000000Y-145000000D01*
X105000000Y-108000000D02*
X103000000Y-108000000D01*
G04 #@! TO.N,Net-(D25-Pad2)*
X100000000Y-104200000D02*
X100000000Y-103000000D01*
X100800000Y-145000000D02*
X102000000Y-145000000D01*
X105000000Y-109000000D02*
X102000000Y-109000000D01*
G04 #@! TO.N,Net-(D16-Pad2)*
X159200000Y-115000000D02*
X158600200Y-115000000D01*
X158600200Y-115000000D02*
X158000000Y-115000000D01*
X172500000Y-103250000D02*
X167750000Y-103250000D01*
G04 #@! TO.N,Net-(D17-Pad1)*
X99200000Y-145000000D02*
X99200000Y-145650000D01*
X99200000Y-145650000D02*
X99550000Y-146000000D01*
X99550000Y-146000000D02*
X102073000Y-146000000D01*
X102073000Y-146000000D02*
X103073000Y-145000000D01*
X103073000Y-145000000D02*
X109200000Y-145000000D01*
X109200000Y-145000000D02*
X109200000Y-145650000D01*
X109200000Y-145650000D02*
X109550000Y-146000000D01*
X109550000Y-146000000D02*
X112073000Y-146000000D01*
X112073000Y-146000000D02*
X113073000Y-145000000D01*
X113073000Y-145000000D02*
X119200000Y-145000000D01*
X119200000Y-145000000D02*
X119200000Y-145650000D01*
X119200000Y-145650000D02*
X119550000Y-146000000D01*
X119550000Y-146000000D02*
X122073000Y-146000000D01*
X122073000Y-146000000D02*
X123073000Y-145000000D01*
X123073000Y-145000000D02*
X129200000Y-145000000D01*
X129200000Y-145000000D02*
X129200000Y-145650000D01*
X129200000Y-145650000D02*
X129550000Y-146000000D01*
X129550000Y-146000000D02*
X132073000Y-146000000D01*
X132073000Y-146000000D02*
X133073000Y-145000000D01*
X133073000Y-145000000D02*
X139200000Y-145000000D01*
X139200000Y-145000000D02*
X139200000Y-145650000D01*
X139200000Y-145650000D02*
X139550000Y-146000000D01*
X139550000Y-146000000D02*
X142073000Y-146000000D01*
X142073000Y-146000000D02*
X143073000Y-145000000D01*
X143073000Y-145000000D02*
X149200000Y-145000000D01*
X149200000Y-145000000D02*
X149200000Y-145700000D01*
X149200000Y-145700000D02*
X149500000Y-146000000D01*
X149500000Y-146000000D02*
X152073000Y-146000000D01*
X152073000Y-146000000D02*
X153073000Y-145000000D01*
X153073000Y-145000000D02*
X158500000Y-145000000D01*
X158500000Y-145000000D02*
X159300000Y-145800000D01*
X159300000Y-145800000D02*
X160000000Y-145800000D01*
X160000000Y-145800000D02*
X160700000Y-145800000D01*
X160700000Y-145800000D02*
X161000000Y-145500000D01*
X161000000Y-145500000D02*
X161000000Y-142927000D01*
X161000000Y-142927000D02*
X160000000Y-141927000D01*
X160000000Y-136600000D02*
X160650000Y-136600000D01*
X160650000Y-136600000D02*
X161000000Y-136250000D01*
X161000000Y-136250000D02*
X161000000Y-133927000D01*
X161000000Y-133927000D02*
X160000000Y-132927000D01*
X160000000Y-132927000D02*
X160000000Y-127000000D01*
X160000000Y-127000000D02*
X160000000Y-126400000D01*
X160000000Y-126400000D02*
X160000000Y-125800000D01*
X160000000Y-137500000D02*
X160000000Y-138000000D01*
X160000000Y-137500000D02*
X160000000Y-136600000D01*
X160000000Y-141927000D02*
X160000000Y-137500000D01*
G04 #@! TD*
D21*
G04 #@! TO.N,GND*
G36*
X179290001Y-65294093D02*
X179290000Y-144705908D01*
X169705910Y-154290000D01*
X90294092Y-154290000D01*
X80710000Y-144705910D01*
X80710000Y-144555431D01*
X87765000Y-144555431D01*
X87765000Y-145444569D01*
X88105259Y-146266026D01*
X88733974Y-146894741D01*
X89555431Y-147235000D01*
X90444569Y-147235000D01*
X91266026Y-146894741D01*
X91894741Y-146266026D01*
X92235000Y-145444569D01*
X92235000Y-144600000D01*
X98152560Y-144600000D01*
X98152560Y-145400000D01*
X98201843Y-145647765D01*
X98342191Y-145857809D01*
X98491448Y-145957540D01*
X98652072Y-146197929D01*
X98715528Y-146240329D01*
X98959669Y-146484470D01*
X99002071Y-146547929D01*
X99159718Y-146653266D01*
X99253462Y-146715904D01*
X99301605Y-146725480D01*
X99475148Y-146760000D01*
X99475152Y-146760000D01*
X99550000Y-146774888D01*
X99624848Y-146760000D01*
X101998153Y-146760000D01*
X102073000Y-146774888D01*
X102147847Y-146760000D01*
X102147852Y-146760000D01*
X102369537Y-146715904D01*
X102620929Y-146547929D01*
X102663331Y-146484470D01*
X103387802Y-145760000D01*
X108276837Y-145760000D01*
X108342191Y-145857809D01*
X108491448Y-145957540D01*
X108652072Y-146197929D01*
X108715528Y-146240329D01*
X108959669Y-146484470D01*
X109002071Y-146547929D01*
X109159718Y-146653266D01*
X109253462Y-146715904D01*
X109301605Y-146725480D01*
X109475148Y-146760000D01*
X109475152Y-146760000D01*
X109550000Y-146774888D01*
X109624848Y-146760000D01*
X111998153Y-146760000D01*
X112073000Y-146774888D01*
X112147847Y-146760000D01*
X112147852Y-146760000D01*
X112369537Y-146715904D01*
X112620929Y-146547929D01*
X112663331Y-146484470D01*
X113387802Y-145760000D01*
X118276837Y-145760000D01*
X118342191Y-145857809D01*
X118491448Y-145957540D01*
X118652072Y-146197929D01*
X118715528Y-146240329D01*
X118959669Y-146484470D01*
X119002071Y-146547929D01*
X119159718Y-146653266D01*
X119253462Y-146715904D01*
X119301605Y-146725480D01*
X119475148Y-146760000D01*
X119475152Y-146760000D01*
X119550000Y-146774888D01*
X119624848Y-146760000D01*
X121998153Y-146760000D01*
X122073000Y-146774888D01*
X122147847Y-146760000D01*
X122147852Y-146760000D01*
X122369537Y-146715904D01*
X122620929Y-146547929D01*
X122663331Y-146484470D01*
X123387802Y-145760000D01*
X128276837Y-145760000D01*
X128342191Y-145857809D01*
X128491448Y-145957540D01*
X128652072Y-146197929D01*
X128715528Y-146240329D01*
X128959669Y-146484470D01*
X129002071Y-146547929D01*
X129159718Y-146653266D01*
X129253462Y-146715904D01*
X129301605Y-146725480D01*
X129475148Y-146760000D01*
X129475152Y-146760000D01*
X129550000Y-146774888D01*
X129624848Y-146760000D01*
X131998153Y-146760000D01*
X132073000Y-146774888D01*
X132147847Y-146760000D01*
X132147852Y-146760000D01*
X132369537Y-146715904D01*
X132620929Y-146547929D01*
X132663331Y-146484470D01*
X133387802Y-145760000D01*
X138276837Y-145760000D01*
X138342191Y-145857809D01*
X138491448Y-145957540D01*
X138652072Y-146197929D01*
X138715528Y-146240329D01*
X138959669Y-146484470D01*
X139002071Y-146547929D01*
X139159718Y-146653266D01*
X139253462Y-146715904D01*
X139301605Y-146725480D01*
X139475148Y-146760000D01*
X139475152Y-146760000D01*
X139550000Y-146774888D01*
X139624848Y-146760000D01*
X141998153Y-146760000D01*
X142073000Y-146774888D01*
X142147847Y-146760000D01*
X142147852Y-146760000D01*
X142369537Y-146715904D01*
X142620929Y-146547929D01*
X142663331Y-146484470D01*
X143387802Y-145760000D01*
X148276837Y-145760000D01*
X148342191Y-145857809D01*
X148474024Y-145945898D01*
X148484097Y-145996537D01*
X148652072Y-146247929D01*
X148715528Y-146290329D01*
X148909669Y-146484470D01*
X148952071Y-146547929D01*
X149203463Y-146715904D01*
X149425148Y-146760000D01*
X149425152Y-146760000D01*
X149499999Y-146774888D01*
X149574846Y-146760000D01*
X151998153Y-146760000D01*
X152073000Y-146774888D01*
X152147847Y-146760000D01*
X152147852Y-146760000D01*
X152369537Y-146715904D01*
X152620929Y-146547929D01*
X152663331Y-146484470D01*
X153387802Y-145760000D01*
X158185199Y-145760000D01*
X158709671Y-146284473D01*
X158752071Y-146347929D01*
X158815527Y-146390329D01*
X159003462Y-146515904D01*
X159051605Y-146525480D01*
X159054103Y-146525977D01*
X159142191Y-146657809D01*
X159352235Y-146798157D01*
X159600000Y-146847440D01*
X160400000Y-146847440D01*
X160647765Y-146798157D01*
X160857809Y-146657809D01*
X160945897Y-146525977D01*
X160996537Y-146515904D01*
X161247929Y-146347929D01*
X161290331Y-146284470D01*
X161484470Y-146090331D01*
X161547929Y-146047929D01*
X161715904Y-145796537D01*
X161760000Y-145574852D01*
X161760000Y-145574848D01*
X161774888Y-145500001D01*
X161760000Y-145425154D01*
X161760000Y-144555431D01*
X167765000Y-144555431D01*
X167765000Y-145444569D01*
X168105259Y-146266026D01*
X168733974Y-146894741D01*
X169555431Y-147235000D01*
X170444569Y-147235000D01*
X171266026Y-146894741D01*
X171894741Y-146266026D01*
X172235000Y-145444569D01*
X172235000Y-144555431D01*
X171894741Y-143733974D01*
X171266026Y-143105259D01*
X170444569Y-142765000D01*
X169555431Y-142765000D01*
X168733974Y-143105259D01*
X168105259Y-143733974D01*
X167765000Y-144555431D01*
X161760000Y-144555431D01*
X161760000Y-143001848D01*
X161774888Y-142927000D01*
X161760000Y-142852152D01*
X161760000Y-142852148D01*
X161715904Y-142630463D01*
X161547929Y-142379071D01*
X161484473Y-142336671D01*
X160760000Y-141612199D01*
X160760000Y-138703711D01*
X160877431Y-138586280D01*
X161035000Y-138205874D01*
X161035000Y-137794126D01*
X160881196Y-137422809D01*
X160957540Y-137308552D01*
X161197929Y-137147929D01*
X161240331Y-137084470D01*
X161484470Y-136840331D01*
X161547929Y-136797929D01*
X161680181Y-136600000D01*
X161715904Y-136546538D01*
X161725480Y-136498395D01*
X161760000Y-136324852D01*
X161760000Y-136324848D01*
X161774888Y-136250000D01*
X161760000Y-136175152D01*
X161760000Y-134001848D01*
X161774888Y-133927000D01*
X161760000Y-133852152D01*
X161760000Y-133852148D01*
X161715904Y-133630463D01*
X161547929Y-133379071D01*
X161484473Y-133336671D01*
X160760000Y-132612199D01*
X160760000Y-126723163D01*
X160857809Y-126657809D01*
X160998157Y-126447765D01*
X161047440Y-126200000D01*
X161047440Y-125400000D01*
X160998157Y-125152235D01*
X160896436Y-125000000D01*
X160998157Y-124847765D01*
X161047440Y-124600000D01*
X161047440Y-123800000D01*
X160998157Y-123552235D01*
X160857809Y-123342191D01*
X160760000Y-123276837D01*
X160760000Y-121314801D01*
X163314802Y-118760000D01*
X170463808Y-118760000D01*
X170538655Y-118774888D01*
X170613502Y-118760000D01*
X170613507Y-118760000D01*
X170835192Y-118715904D01*
X171086584Y-118547929D01*
X171128986Y-118484470D01*
X173023128Y-116590329D01*
X173086584Y-116547929D01*
X173254559Y-116296537D01*
X173298655Y-116074852D01*
X173298655Y-116074848D01*
X173313543Y-116000001D01*
X173298655Y-115925154D01*
X173298655Y-110334493D01*
X173416086Y-110217062D01*
X173573655Y-109836656D01*
X173573655Y-109424908D01*
X173416086Y-109044502D01*
X173124935Y-108753351D01*
X172744529Y-108595782D01*
X172332781Y-108595782D01*
X172260000Y-108625929D01*
X172260000Y-108270865D01*
X172294126Y-108285000D01*
X172705874Y-108285000D01*
X173086280Y-108127431D01*
X173377431Y-107836280D01*
X173535000Y-107455874D01*
X173535000Y-107044126D01*
X173413169Y-106750000D01*
X173535000Y-106455874D01*
X173535000Y-106044126D01*
X173413169Y-105750000D01*
X173535000Y-105455874D01*
X173535000Y-105044126D01*
X173413169Y-104750000D01*
X173535000Y-104455874D01*
X173535000Y-104044126D01*
X173413169Y-103750000D01*
X173535000Y-103455874D01*
X173535000Y-103044126D01*
X173377431Y-102663720D01*
X173086280Y-102372569D01*
X172705874Y-102215000D01*
X172294126Y-102215000D01*
X171913720Y-102372569D01*
X171796289Y-102490000D01*
X168453711Y-102490000D01*
X168336280Y-102372569D01*
X167955874Y-102215000D01*
X167544126Y-102215000D01*
X167163720Y-102372569D01*
X166872569Y-102663720D01*
X166715000Y-103044126D01*
X166715000Y-103455874D01*
X166872569Y-103836280D01*
X167163720Y-104127431D01*
X167544126Y-104285000D01*
X167955874Y-104285000D01*
X168336280Y-104127431D01*
X168453711Y-104010000D01*
X169165198Y-104010000D01*
X168765528Y-104409671D01*
X168702072Y-104452071D01*
X168659672Y-104515527D01*
X168659671Y-104515528D01*
X168638951Y-104546538D01*
X168534097Y-104703463D01*
X168515307Y-104797929D01*
X168475112Y-105000000D01*
X168490001Y-105074852D01*
X168490000Y-112185198D01*
X168435199Y-112240000D01*
X149074848Y-112240000D01*
X149000000Y-112225112D01*
X148925152Y-112240000D01*
X148925148Y-112240000D01*
X148703463Y-112284096D01*
X148452071Y-112452071D01*
X148409671Y-112515527D01*
X147685199Y-113240000D01*
X139624848Y-113240000D01*
X139550000Y-113225112D01*
X139475152Y-113240000D01*
X139475148Y-113240000D01*
X139301605Y-113274520D01*
X139253462Y-113284096D01*
X139166518Y-113342191D01*
X139002071Y-113452071D01*
X138959669Y-113515530D01*
X138715528Y-113759671D01*
X138652072Y-113802071D01*
X138491448Y-114042460D01*
X138453728Y-114067664D01*
X138205874Y-113965000D01*
X137794126Y-113965000D01*
X137413720Y-114122569D01*
X137122569Y-114413720D01*
X136965000Y-114794126D01*
X136965000Y-115205874D01*
X137122569Y-115586280D01*
X137413720Y-115877431D01*
X137794126Y-116035000D01*
X138205874Y-116035000D01*
X138453728Y-115932336D01*
X138552235Y-115998157D01*
X138800000Y-116047440D01*
X139600000Y-116047440D01*
X139847765Y-115998157D01*
X140000000Y-115896436D01*
X140152235Y-115998157D01*
X140400000Y-116047440D01*
X141200000Y-116047440D01*
X141447765Y-115998157D01*
X141546272Y-115932336D01*
X141794126Y-116035000D01*
X142205874Y-116035000D01*
X142586280Y-115877431D01*
X142703711Y-115760000D01*
X146612199Y-115760000D01*
X147336670Y-116484472D01*
X147379071Y-116547929D01*
X147630463Y-116715904D01*
X147852148Y-116760000D01*
X147852152Y-116760000D01*
X147927000Y-116774888D01*
X148001848Y-116760000D01*
X150375153Y-116760000D01*
X150450000Y-116774888D01*
X150524847Y-116760000D01*
X150524852Y-116760000D01*
X150746537Y-116715904D01*
X150997929Y-116547929D01*
X151040331Y-116484470D01*
X151068663Y-116456138D01*
X151122569Y-116586280D01*
X151413720Y-116877431D01*
X151794126Y-117035000D01*
X151965000Y-117035000D01*
X151965000Y-117205874D01*
X152122569Y-117586280D01*
X152413720Y-117877431D01*
X152794126Y-118035000D01*
X153205874Y-118035000D01*
X153586280Y-117877431D01*
X153703711Y-117760000D01*
X155685199Y-117760000D01*
X156409671Y-118484473D01*
X156452071Y-118547929D01*
X156703463Y-118715904D01*
X156925148Y-118760000D01*
X156925152Y-118760000D01*
X157000000Y-118774888D01*
X157074848Y-118760000D01*
X161165198Y-118760000D01*
X159515528Y-120409671D01*
X159452072Y-120452071D01*
X159409672Y-120515527D01*
X159409671Y-120515528D01*
X159284097Y-120703463D01*
X159225112Y-121000000D01*
X159240001Y-121074852D01*
X159240000Y-123276836D01*
X159142191Y-123342191D01*
X159001843Y-123552235D01*
X158952560Y-123800000D01*
X158952560Y-124600000D01*
X159001843Y-124847765D01*
X159103564Y-125000000D01*
X159001843Y-125152235D01*
X158952560Y-125400000D01*
X158952560Y-126200000D01*
X159001843Y-126447765D01*
X159142191Y-126657809D01*
X159240000Y-126723163D01*
X159240000Y-127074851D01*
X159240001Y-127074856D01*
X159240000Y-132852153D01*
X159225112Y-132927000D01*
X159240000Y-133001847D01*
X159240000Y-133001851D01*
X159284096Y-133223536D01*
X159295574Y-133240715D01*
X159122569Y-133413720D01*
X158965000Y-133794126D01*
X158965000Y-134205874D01*
X159016524Y-134330264D01*
X159001843Y-134352235D01*
X158952560Y-134600000D01*
X158952560Y-135400000D01*
X159001843Y-135647765D01*
X159103564Y-135800000D01*
X159001843Y-135952235D01*
X158952560Y-136200000D01*
X158952560Y-137000000D01*
X159001843Y-137247765D01*
X159118804Y-137422809D01*
X158965000Y-137794126D01*
X158965000Y-138205874D01*
X159122569Y-138586280D01*
X159240001Y-138703712D01*
X159240000Y-141852153D01*
X159225112Y-141927000D01*
X159240000Y-142001847D01*
X159240000Y-142001851D01*
X159284096Y-142223536D01*
X159295574Y-142240715D01*
X159122569Y-142413720D01*
X158965000Y-142794126D01*
X158965000Y-143205874D01*
X159067664Y-143453728D01*
X159001843Y-143552235D01*
X158952560Y-143800000D01*
X158952560Y-144388347D01*
X158796537Y-144284096D01*
X158574852Y-144240000D01*
X158574847Y-144240000D01*
X158500000Y-144225112D01*
X158425153Y-144240000D01*
X153147848Y-144240000D01*
X153073000Y-144225112D01*
X152998152Y-144240000D01*
X152998148Y-144240000D01*
X152776463Y-144284096D01*
X152759285Y-144295574D01*
X152586280Y-144122569D01*
X152205874Y-143965000D01*
X151794126Y-143965000D01*
X151546272Y-144067664D01*
X151447765Y-144001843D01*
X151200000Y-143952560D01*
X150400000Y-143952560D01*
X150152235Y-144001843D01*
X150000000Y-144103564D01*
X149847765Y-144001843D01*
X149600000Y-143952560D01*
X148800000Y-143952560D01*
X148552235Y-144001843D01*
X148342191Y-144142191D01*
X148276837Y-144240000D01*
X143147848Y-144240000D01*
X143073000Y-144225112D01*
X142998152Y-144240000D01*
X142998148Y-144240000D01*
X142776463Y-144284096D01*
X142759285Y-144295574D01*
X142586280Y-144122569D01*
X142205874Y-143965000D01*
X141794126Y-143965000D01*
X141546272Y-144067664D01*
X141447765Y-144001843D01*
X141200000Y-143952560D01*
X140400000Y-143952560D01*
X140152235Y-144001843D01*
X140000000Y-144103564D01*
X139847765Y-144001843D01*
X139600000Y-143952560D01*
X138800000Y-143952560D01*
X138552235Y-144001843D01*
X138342191Y-144142191D01*
X138276837Y-144240000D01*
X133147848Y-144240000D01*
X133073000Y-144225112D01*
X132998152Y-144240000D01*
X132998148Y-144240000D01*
X132776463Y-144284096D01*
X132759285Y-144295574D01*
X132586280Y-144122569D01*
X132205874Y-143965000D01*
X131794126Y-143965000D01*
X131546272Y-144067664D01*
X131447765Y-144001843D01*
X131200000Y-143952560D01*
X130400000Y-143952560D01*
X130152235Y-144001843D01*
X130000000Y-144103564D01*
X129847765Y-144001843D01*
X129600000Y-143952560D01*
X128800000Y-143952560D01*
X128552235Y-144001843D01*
X128342191Y-144142191D01*
X128276837Y-144240000D01*
X123147848Y-144240000D01*
X123073000Y-144225112D01*
X122998152Y-144240000D01*
X122998148Y-144240000D01*
X122776463Y-144284096D01*
X122759285Y-144295574D01*
X122586280Y-144122569D01*
X122205874Y-143965000D01*
X121794126Y-143965000D01*
X121546272Y-144067664D01*
X121447765Y-144001843D01*
X121200000Y-143952560D01*
X120400000Y-143952560D01*
X120152235Y-144001843D01*
X120000000Y-144103564D01*
X119847765Y-144001843D01*
X119600000Y-143952560D01*
X118800000Y-143952560D01*
X118552235Y-144001843D01*
X118342191Y-144142191D01*
X118276837Y-144240000D01*
X113147848Y-144240000D01*
X113073000Y-144225112D01*
X112998152Y-144240000D01*
X112998148Y-144240000D01*
X112776463Y-144284096D01*
X112759285Y-144295574D01*
X112586280Y-144122569D01*
X112205874Y-143965000D01*
X111794126Y-143965000D01*
X111546272Y-144067664D01*
X111447765Y-144001843D01*
X111200000Y-143952560D01*
X110400000Y-143952560D01*
X110152235Y-144001843D01*
X110000000Y-144103564D01*
X109847765Y-144001843D01*
X109600000Y-143952560D01*
X108800000Y-143952560D01*
X108552235Y-144001843D01*
X108342191Y-144142191D01*
X108276837Y-144240000D01*
X103147848Y-144240000D01*
X103073000Y-144225112D01*
X102998152Y-144240000D01*
X102998148Y-144240000D01*
X102776463Y-144284096D01*
X102759285Y-144295574D01*
X102586280Y-144122569D01*
X102205874Y-143965000D01*
X101794126Y-143965000D01*
X101546272Y-144067664D01*
X101447765Y-144001843D01*
X101200000Y-143952560D01*
X100400000Y-143952560D01*
X100152235Y-144001843D01*
X100000000Y-144103564D01*
X99847765Y-144001843D01*
X99600000Y-143952560D01*
X98800000Y-143952560D01*
X98552235Y-144001843D01*
X98342191Y-144142191D01*
X98201843Y-144352235D01*
X98152560Y-144600000D01*
X92235000Y-144600000D01*
X92235000Y-144555431D01*
X91894741Y-143733974D01*
X91266026Y-143105259D01*
X90444569Y-142765000D01*
X89555431Y-142765000D01*
X88733974Y-143105259D01*
X88105259Y-143733974D01*
X87765000Y-144555431D01*
X80710000Y-144555431D01*
X80710000Y-84600000D01*
X98152560Y-84600000D01*
X98152560Y-85400000D01*
X98201843Y-85647765D01*
X98342191Y-85857809D01*
X98474023Y-85945897D01*
X98484096Y-85996536D01*
X98652071Y-86247929D01*
X98715530Y-86290331D01*
X99167001Y-86741803D01*
X99167000Y-91685198D01*
X98515528Y-92336671D01*
X98452072Y-92379071D01*
X98409672Y-92442527D01*
X98409671Y-92442528D01*
X98284097Y-92630463D01*
X98225112Y-92927000D01*
X98240001Y-93001852D01*
X98240000Y-95425153D01*
X98225112Y-95500000D01*
X98240000Y-95574847D01*
X98240000Y-95574851D01*
X98284096Y-95796536D01*
X98452071Y-96047929D01*
X98515530Y-96090331D01*
X98709669Y-96284470D01*
X98752071Y-96347929D01*
X99003463Y-96515904D01*
X99054103Y-96525977D01*
X99142191Y-96657809D01*
X99240001Y-96723164D01*
X99240000Y-101612198D01*
X98515528Y-102336671D01*
X98452072Y-102379071D01*
X98409672Y-102442527D01*
X98409671Y-102442528D01*
X98307585Y-102595311D01*
X98284097Y-102630463D01*
X98247559Y-102814154D01*
X98225112Y-102927000D01*
X98240001Y-103001852D01*
X98240000Y-105425153D01*
X98225112Y-105500000D01*
X98240000Y-105574847D01*
X98240000Y-105574851D01*
X98284096Y-105796536D01*
X98452071Y-106047929D01*
X98515530Y-106090331D01*
X98709669Y-106284470D01*
X98752071Y-106347929D01*
X99003463Y-106515904D01*
X99054103Y-106525977D01*
X99142191Y-106657809D01*
X99240001Y-106723164D01*
X99240000Y-111612198D01*
X98515528Y-112336671D01*
X98452072Y-112379071D01*
X98409672Y-112442527D01*
X98409671Y-112442528D01*
X98284097Y-112630463D01*
X98225112Y-112927000D01*
X98240001Y-113001852D01*
X98240000Y-115425153D01*
X98225112Y-115500000D01*
X98240000Y-115574847D01*
X98240000Y-115574851D01*
X98284096Y-115796536D01*
X98452071Y-116047929D01*
X98515530Y-116090331D01*
X98709669Y-116284470D01*
X98752071Y-116347929D01*
X99003463Y-116515904D01*
X99054103Y-116525977D01*
X99142191Y-116657809D01*
X99352235Y-116798157D01*
X99600000Y-116847440D01*
X100400000Y-116847440D01*
X100647765Y-116798157D01*
X100857809Y-116657809D01*
X100945897Y-116525977D01*
X100996537Y-116515904D01*
X101247929Y-116347929D01*
X101290331Y-116284470D01*
X101741802Y-115833000D01*
X106685199Y-115833000D01*
X107336670Y-116484472D01*
X107379071Y-116547929D01*
X107630463Y-116715904D01*
X107852148Y-116760000D01*
X107852153Y-116760000D01*
X107927000Y-116774888D01*
X108001847Y-116760000D01*
X110375153Y-116760000D01*
X110450000Y-116774888D01*
X110524847Y-116760000D01*
X110524852Y-116760000D01*
X110746537Y-116715904D01*
X110997929Y-116547929D01*
X111040331Y-116484470D01*
X111284470Y-116240331D01*
X111347929Y-116197929D01*
X111456795Y-116035000D01*
X111508553Y-115957539D01*
X111657809Y-115857809D01*
X111723163Y-115760000D01*
X116612199Y-115760000D01*
X117336670Y-116484472D01*
X117379071Y-116547929D01*
X117630463Y-116715904D01*
X117852148Y-116760000D01*
X117852152Y-116760000D01*
X117927000Y-116774888D01*
X118001848Y-116760000D01*
X120375153Y-116760000D01*
X120450000Y-116774888D01*
X120524847Y-116760000D01*
X120524852Y-116760000D01*
X120746537Y-116715904D01*
X120997929Y-116547929D01*
X121040331Y-116484470D01*
X121284470Y-116240331D01*
X121347929Y-116197929D01*
X121456795Y-116035000D01*
X121508553Y-115957539D01*
X121657809Y-115857809D01*
X121723163Y-115760000D01*
X126612199Y-115760000D01*
X127336670Y-116484472D01*
X127379071Y-116547929D01*
X127630463Y-116715904D01*
X127852148Y-116760000D01*
X127852152Y-116760000D01*
X127927000Y-116774888D01*
X128001848Y-116760000D01*
X130375153Y-116760000D01*
X130450000Y-116774888D01*
X130524847Y-116760000D01*
X130524852Y-116760000D01*
X130746537Y-116715904D01*
X130997929Y-116547929D01*
X131040331Y-116484470D01*
X131284470Y-116240331D01*
X131347929Y-116197929D01*
X131456795Y-116035000D01*
X131508553Y-115957539D01*
X131546272Y-115932336D01*
X131794126Y-116035000D01*
X132205874Y-116035000D01*
X132586280Y-115877431D01*
X132877431Y-115586280D01*
X133035000Y-115205874D01*
X133035000Y-114794126D01*
X132877431Y-114413720D01*
X132586280Y-114122569D01*
X132205874Y-113965000D01*
X131794126Y-113965000D01*
X131546272Y-114067664D01*
X131447765Y-114001843D01*
X131200000Y-113952560D01*
X130400000Y-113952560D01*
X130152235Y-114001843D01*
X130000000Y-114103564D01*
X129847765Y-114001843D01*
X129600000Y-113952560D01*
X128800000Y-113952560D01*
X128552235Y-114001843D01*
X128453728Y-114067664D01*
X128205874Y-113965000D01*
X127794126Y-113965000D01*
X127413720Y-114122569D01*
X127240715Y-114295574D01*
X127223537Y-114284096D01*
X127001852Y-114240000D01*
X127001847Y-114240000D01*
X126927000Y-114225112D01*
X126852153Y-114240000D01*
X121723163Y-114240000D01*
X121657809Y-114142191D01*
X121447765Y-114001843D01*
X121200000Y-113952560D01*
X120400000Y-113952560D01*
X120152235Y-114001843D01*
X120000000Y-114103564D01*
X119847765Y-114001843D01*
X119600000Y-113952560D01*
X118800000Y-113952560D01*
X118552235Y-114001843D01*
X118453728Y-114067664D01*
X118205874Y-113965000D01*
X117794126Y-113965000D01*
X117413720Y-114122569D01*
X117240715Y-114295574D01*
X117223537Y-114284096D01*
X117001852Y-114240000D01*
X117001847Y-114240000D01*
X116927000Y-114225112D01*
X116852153Y-114240000D01*
X111723163Y-114240000D01*
X111657809Y-114142191D01*
X111447765Y-114001843D01*
X111200000Y-113952560D01*
X110400000Y-113952560D01*
X110152235Y-114001843D01*
X110000000Y-114103564D01*
X109847765Y-114001843D01*
X109600000Y-113952560D01*
X108800000Y-113952560D01*
X108552235Y-114001843D01*
X108453728Y-114067664D01*
X108205874Y-113965000D01*
X107794126Y-113965000D01*
X107413720Y-114122569D01*
X107198662Y-114337627D01*
X107074852Y-114313000D01*
X107074847Y-114313000D01*
X107000000Y-114298112D01*
X106925153Y-114313000D01*
X101501846Y-114313000D01*
X101426999Y-114298112D01*
X101352152Y-114313000D01*
X101352148Y-114313000D01*
X101130463Y-114357096D01*
X101047440Y-114412570D01*
X101047440Y-113800000D01*
X100998157Y-113552235D01*
X100857809Y-113342191D01*
X100782758Y-113292043D01*
X101484473Y-112590329D01*
X101547929Y-112547929D01*
X101715904Y-112296537D01*
X101760000Y-112074852D01*
X101760000Y-112074848D01*
X101774888Y-112000000D01*
X101760000Y-111925152D01*
X101760000Y-110814801D01*
X101814802Y-110760000D01*
X104296289Y-110760000D01*
X104413720Y-110877431D01*
X104794126Y-111035000D01*
X105205874Y-111035000D01*
X105586280Y-110877431D01*
X105877431Y-110586280D01*
X106035000Y-110205874D01*
X106035000Y-109794126D01*
X105913169Y-109500000D01*
X106035000Y-109205874D01*
X106035000Y-108794126D01*
X105913169Y-108500000D01*
X106035000Y-108205874D01*
X106035000Y-107794126D01*
X105877431Y-107413720D01*
X105586280Y-107122569D01*
X105205874Y-106965000D01*
X104794126Y-106965000D01*
X104413720Y-107122569D01*
X104296289Y-107240000D01*
X103703711Y-107240000D01*
X103586280Y-107122569D01*
X103205874Y-106965000D01*
X102794126Y-106965000D01*
X102413720Y-107122569D01*
X102122569Y-107413720D01*
X101965000Y-107794126D01*
X101965000Y-107965000D01*
X101794126Y-107965000D01*
X101413720Y-108122569D01*
X101122569Y-108413720D01*
X100965000Y-108794126D01*
X100965000Y-109205874D01*
X101042069Y-109391936D01*
X101016418Y-109409076D01*
X100952071Y-109452071D01*
X100909671Y-109515528D01*
X100760000Y-109665198D01*
X100760000Y-106723163D01*
X100857809Y-106657809D01*
X100998157Y-106447765D01*
X101047440Y-106200000D01*
X101047440Y-105400000D01*
X100998157Y-105152235D01*
X100896436Y-105000000D01*
X100998157Y-104847765D01*
X101047440Y-104600000D01*
X101047440Y-103800000D01*
X100998157Y-103552235D01*
X100932336Y-103453728D01*
X101035000Y-103205874D01*
X101035000Y-102794126D01*
X100877431Y-102413720D01*
X100704426Y-102240715D01*
X100715904Y-102223537D01*
X100760000Y-102001852D01*
X100760000Y-102001848D01*
X100774888Y-101927000D01*
X100760000Y-101852152D01*
X100760000Y-96723163D01*
X100857809Y-96657809D01*
X100998157Y-96447765D01*
X101047440Y-96200000D01*
X101047440Y-95400000D01*
X100998157Y-95152235D01*
X100896436Y-95000000D01*
X100998157Y-94847765D01*
X101047440Y-94600000D01*
X101047440Y-93800000D01*
X100998157Y-93552235D01*
X100932336Y-93453728D01*
X101035000Y-93205874D01*
X101035000Y-92794126D01*
X100877431Y-92413720D01*
X100662373Y-92198662D01*
X100687000Y-92074852D01*
X100687000Y-92074847D01*
X100701888Y-92000000D01*
X100687000Y-91925153D01*
X100687000Y-86501846D01*
X100701888Y-86426999D01*
X100687000Y-86352152D01*
X100687000Y-86352148D01*
X100642904Y-86130463D01*
X100587430Y-86047440D01*
X101200000Y-86047440D01*
X101447765Y-85998157D01*
X101546272Y-85932336D01*
X101794126Y-86035000D01*
X102205874Y-86035000D01*
X102586280Y-85877431D01*
X102759285Y-85704426D01*
X102776463Y-85715904D01*
X102998148Y-85760000D01*
X102998152Y-85760000D01*
X103073000Y-85774888D01*
X103147848Y-85760000D01*
X108276837Y-85760000D01*
X108342191Y-85857809D01*
X108552235Y-85998157D01*
X108800000Y-86047440D01*
X109600000Y-86047440D01*
X109847765Y-85998157D01*
X110000000Y-85896436D01*
X110152235Y-85998157D01*
X110400000Y-86047440D01*
X111200000Y-86047440D01*
X111447765Y-85998157D01*
X111546272Y-85932336D01*
X111794126Y-86035000D01*
X112205874Y-86035000D01*
X112586280Y-85877431D01*
X112759285Y-85704426D01*
X112776463Y-85715904D01*
X112998148Y-85760000D01*
X112998152Y-85760000D01*
X113073000Y-85774888D01*
X113147848Y-85760000D01*
X118276837Y-85760000D01*
X118342191Y-85857809D01*
X118552235Y-85998157D01*
X118800000Y-86047440D01*
X119600000Y-86047440D01*
X119847765Y-85998157D01*
X120000000Y-85896436D01*
X120152235Y-85998157D01*
X120400000Y-86047440D01*
X121200000Y-86047440D01*
X121447765Y-85998157D01*
X121546272Y-85932336D01*
X121794126Y-86035000D01*
X122205874Y-86035000D01*
X122586280Y-85877431D01*
X122759285Y-85704426D01*
X122776463Y-85715904D01*
X122998148Y-85760000D01*
X122998152Y-85760000D01*
X123073000Y-85774888D01*
X123147848Y-85760000D01*
X127296289Y-85760000D01*
X127413720Y-85877431D01*
X127794126Y-86035000D01*
X128205874Y-86035000D01*
X128453728Y-85932336D01*
X128552235Y-85998157D01*
X128800000Y-86047440D01*
X129600000Y-86047440D01*
X129847765Y-85998157D01*
X130000000Y-85896436D01*
X130152235Y-85998157D01*
X130400000Y-86047440D01*
X131200000Y-86047440D01*
X131447765Y-85998157D01*
X131546272Y-85932336D01*
X131794126Y-86035000D01*
X132205874Y-86035000D01*
X132586280Y-85877431D01*
X132877431Y-85586280D01*
X133035000Y-85205874D01*
X133035000Y-84794126D01*
X132877431Y-84413720D01*
X132586280Y-84122569D01*
X132205874Y-83965000D01*
X131794126Y-83965000D01*
X131546272Y-84067664D01*
X131447765Y-84001843D01*
X131200000Y-83952560D01*
X130400000Y-83952560D01*
X130152235Y-84001843D01*
X130000000Y-84103564D01*
X129847765Y-84001843D01*
X129600000Y-83952560D01*
X128800000Y-83952560D01*
X128552235Y-84001843D01*
X128453728Y-84067664D01*
X128205874Y-83965000D01*
X127794126Y-83965000D01*
X127413720Y-84122569D01*
X127296289Y-84240000D01*
X123387802Y-84240000D01*
X122663331Y-83515530D01*
X122620929Y-83452071D01*
X122369537Y-83284096D01*
X122147852Y-83240000D01*
X122147847Y-83240000D01*
X122073000Y-83225112D01*
X121998153Y-83240000D01*
X119624848Y-83240000D01*
X119550000Y-83225112D01*
X119475152Y-83240000D01*
X119475148Y-83240000D01*
X119301605Y-83274520D01*
X119253462Y-83284096D01*
X119178633Y-83334096D01*
X119002071Y-83452071D01*
X118959669Y-83515530D01*
X118715528Y-83759671D01*
X118652072Y-83802071D01*
X118491448Y-84042460D01*
X118342191Y-84142191D01*
X118276837Y-84240000D01*
X113387802Y-84240000D01*
X112663331Y-83515530D01*
X112620929Y-83452071D01*
X112369537Y-83284096D01*
X112147852Y-83240000D01*
X112147847Y-83240000D01*
X112073000Y-83225112D01*
X111998153Y-83240000D01*
X109624848Y-83240000D01*
X109550000Y-83225112D01*
X109475152Y-83240000D01*
X109475148Y-83240000D01*
X109301605Y-83274520D01*
X109253462Y-83284096D01*
X109178633Y-83334096D01*
X109002071Y-83452071D01*
X108959669Y-83515530D01*
X108715528Y-83759671D01*
X108652072Y-83802071D01*
X108491448Y-84042460D01*
X108342191Y-84142191D01*
X108276837Y-84240000D01*
X103387802Y-84240000D01*
X102663331Y-83515530D01*
X102620929Y-83452071D01*
X102369537Y-83284096D01*
X102147852Y-83240000D01*
X102147847Y-83240000D01*
X102073000Y-83225112D01*
X101998153Y-83240000D01*
X99624848Y-83240000D01*
X99550000Y-83225112D01*
X99475152Y-83240000D01*
X99475148Y-83240000D01*
X99301605Y-83274520D01*
X99253462Y-83284096D01*
X99178633Y-83334096D01*
X99002071Y-83452071D01*
X98959669Y-83515530D01*
X98715528Y-83759671D01*
X98652072Y-83802071D01*
X98491448Y-84042460D01*
X98342191Y-84142191D01*
X98201843Y-84352235D01*
X98152560Y-84600000D01*
X80710000Y-84600000D01*
X80710000Y-71007745D01*
X94171861Y-71007745D01*
X94245995Y-71253864D01*
X94783223Y-71446965D01*
X95353454Y-71419778D01*
X95754005Y-71253864D01*
X95828139Y-71007745D01*
X95000000Y-70179605D01*
X94171861Y-71007745D01*
X80710000Y-71007745D01*
X80710000Y-69783223D01*
X93553035Y-69783223D01*
X93580222Y-70353454D01*
X93746136Y-70754005D01*
X93992255Y-70828139D01*
X94820395Y-70000000D01*
X95179605Y-70000000D01*
X96007745Y-70828139D01*
X96055307Y-70813813D01*
X96101843Y-71047765D01*
X96242191Y-71257809D01*
X96452235Y-71398157D01*
X96700000Y-71447440D01*
X98300000Y-71447440D01*
X98547765Y-71398157D01*
X98757809Y-71257809D01*
X98898157Y-71047765D01*
X98947440Y-70800000D01*
X98947440Y-69200000D01*
X98898157Y-68952235D01*
X98757809Y-68742191D01*
X98547765Y-68601843D01*
X98300000Y-68552560D01*
X96700000Y-68552560D01*
X96452235Y-68601843D01*
X96242191Y-68742191D01*
X96101843Y-68952235D01*
X96055307Y-69186187D01*
X96007745Y-69171861D01*
X95179605Y-70000000D01*
X94820395Y-70000000D01*
X93992255Y-69171861D01*
X93746136Y-69245995D01*
X93553035Y-69783223D01*
X80710000Y-69783223D01*
X80710000Y-68992255D01*
X94171861Y-68992255D01*
X95000000Y-69820395D01*
X95828139Y-68992255D01*
X95754005Y-68746136D01*
X95216777Y-68553035D01*
X94646546Y-68580222D01*
X94245995Y-68746136D01*
X94171861Y-68992255D01*
X80710000Y-68992255D01*
X80710000Y-67500000D01*
X105597663Y-67500000D01*
X105615000Y-67587161D01*
X105615001Y-72412835D01*
X105597663Y-72500000D01*
X105666348Y-72845309D01*
X105812576Y-73064154D01*
X105812578Y-73064156D01*
X105861952Y-73138049D01*
X105935845Y-73187423D01*
X108312577Y-75564156D01*
X108361951Y-75638049D01*
X108435844Y-75687423D01*
X108435845Y-75687424D01*
X108654689Y-75833651D01*
X108654690Y-75833652D01*
X108912835Y-75885000D01*
X108912839Y-75885000D01*
X109000000Y-75902337D01*
X109087161Y-75885000D01*
X109931993Y-75885000D01*
X110294126Y-76035000D01*
X110705874Y-76035000D01*
X111086280Y-75877431D01*
X111377431Y-75586280D01*
X111535000Y-75205874D01*
X111535000Y-74794126D01*
X111413169Y-74500000D01*
X111535000Y-74205874D01*
X111535000Y-73897440D01*
X112895862Y-73897440D01*
X116562577Y-77564156D01*
X116611951Y-77638049D01*
X116685844Y-77687423D01*
X116685845Y-77687424D01*
X116796880Y-77761615D01*
X116904690Y-77833652D01*
X117162835Y-77885000D01*
X117162839Y-77885000D01*
X117249999Y-77902337D01*
X117337159Y-77885000D01*
X132633422Y-77885000D01*
X133115000Y-78366579D01*
X133115001Y-89931991D01*
X132965000Y-90294126D01*
X132965000Y-90705874D01*
X133115001Y-91068009D01*
X133115000Y-94837164D01*
X133115001Y-94837169D01*
X133115000Y-95883421D01*
X132895861Y-96102560D01*
X131500000Y-96102560D01*
X131252235Y-96151843D01*
X131042191Y-96292191D01*
X130901843Y-96502235D01*
X130852560Y-96750000D01*
X130852560Y-98265000D01*
X129572388Y-98265000D01*
X129500000Y-98250601D01*
X129427612Y-98265000D01*
X129213217Y-98307646D01*
X128970095Y-98470095D01*
X128807646Y-98713217D01*
X128750601Y-99000000D01*
X128765001Y-99072393D01*
X128765000Y-100927611D01*
X128750601Y-101000000D01*
X128807646Y-101286783D01*
X128970095Y-101529905D01*
X129213217Y-101692354D01*
X129500000Y-101749399D01*
X129572388Y-101735000D01*
X130852560Y-101735000D01*
X130852560Y-103250000D01*
X130901843Y-103497765D01*
X131042191Y-103707809D01*
X131252235Y-103848157D01*
X131500000Y-103897440D01*
X132895861Y-103897440D01*
X133115001Y-104116580D01*
X133115000Y-121633421D01*
X132633422Y-122115000D01*
X117337159Y-122115000D01*
X117249999Y-122097663D01*
X117162839Y-122115000D01*
X117162835Y-122115000D01*
X116904690Y-122166348D01*
X116904688Y-122166349D01*
X116904689Y-122166349D01*
X116685845Y-122312576D01*
X116685844Y-122312577D01*
X116611951Y-122361951D01*
X116562577Y-122435844D01*
X112895862Y-126102560D01*
X111535000Y-126102560D01*
X111535000Y-125794126D01*
X111413169Y-125500000D01*
X111535000Y-125205874D01*
X111535000Y-124794126D01*
X111377431Y-124413720D01*
X111086280Y-124122569D01*
X110705874Y-123965000D01*
X110294126Y-123965000D01*
X109931993Y-124115000D01*
X108587159Y-124115000D01*
X108499999Y-124097663D01*
X108412839Y-124115000D01*
X108412835Y-124115000D01*
X108154690Y-124166348D01*
X108154688Y-124166349D01*
X108154689Y-124166349D01*
X107935845Y-124312576D01*
X107935844Y-124312577D01*
X107861951Y-124361951D01*
X107812577Y-124435844D01*
X105935845Y-126312577D01*
X105861952Y-126361951D01*
X105812578Y-126435844D01*
X105812576Y-126435846D01*
X105666348Y-126654691D01*
X105597663Y-127000000D01*
X105615001Y-127087165D01*
X105615000Y-132912839D01*
X105597663Y-133000000D01*
X105615000Y-133087161D01*
X105615000Y-133087164D01*
X105666348Y-133345309D01*
X105861951Y-133638049D01*
X105935847Y-133687425D01*
X107812577Y-135564156D01*
X107861951Y-135638049D01*
X107935844Y-135687423D01*
X107935845Y-135687424D01*
X108017810Y-135742191D01*
X108154690Y-135833652D01*
X108412835Y-135885000D01*
X108412839Y-135885000D01*
X108499999Y-135902337D01*
X108587159Y-135885000D01*
X119662839Y-135885000D01*
X119750000Y-135902337D01*
X119837161Y-135885000D01*
X119837165Y-135885000D01*
X120095310Y-135833652D01*
X120388049Y-135638049D01*
X120437425Y-135564153D01*
X122104139Y-133897440D01*
X123500000Y-133897440D01*
X123747765Y-133848157D01*
X123957809Y-133707809D01*
X124098157Y-133497765D01*
X124147440Y-133250000D01*
X124147440Y-132535750D01*
X125865000Y-132535750D01*
X125865000Y-133376310D01*
X125961673Y-133609699D01*
X126140302Y-133788327D01*
X126373691Y-133885000D01*
X127214250Y-133885000D01*
X127373000Y-133726250D01*
X127373000Y-132377000D01*
X127627000Y-132377000D01*
X127627000Y-133726250D01*
X127785750Y-133885000D01*
X128626309Y-133885000D01*
X128859698Y-133788327D01*
X129038327Y-133609699D01*
X129135000Y-133376310D01*
X129135000Y-132535750D01*
X128976250Y-132377000D01*
X127627000Y-132377000D01*
X127373000Y-132377000D01*
X126023750Y-132377000D01*
X125865000Y-132535750D01*
X124147440Y-132535750D01*
X124147440Y-131735000D01*
X125865000Y-131735000D01*
X125865000Y-131964250D01*
X126023750Y-132123000D01*
X127373000Y-132123000D01*
X127373000Y-132103000D01*
X127627000Y-132103000D01*
X127627000Y-132123000D01*
X128976250Y-132123000D01*
X129135000Y-131964250D01*
X129135000Y-131735000D01*
X130427612Y-131735000D01*
X130500000Y-131749399D01*
X130572388Y-131735000D01*
X130786783Y-131692354D01*
X131029905Y-131529905D01*
X131192354Y-131286783D01*
X131249399Y-131000000D01*
X131235000Y-130927612D01*
X131235000Y-129072388D01*
X131249399Y-129000000D01*
X131192354Y-128713217D01*
X131029905Y-128470095D01*
X130786783Y-128307646D01*
X130572388Y-128265000D01*
X130500000Y-128250601D01*
X130427612Y-128265000D01*
X129135000Y-128265000D01*
X129135000Y-128035750D01*
X128976250Y-127877000D01*
X127627000Y-127877000D01*
X127627000Y-127897000D01*
X127373000Y-127897000D01*
X127373000Y-127877000D01*
X126023750Y-127877000D01*
X125865000Y-128035750D01*
X125865000Y-128265000D01*
X124147440Y-128265000D01*
X124147440Y-127354138D01*
X124877888Y-126623690D01*
X125865000Y-126623690D01*
X125865000Y-127464250D01*
X126023750Y-127623000D01*
X127373000Y-127623000D01*
X127373000Y-126273750D01*
X127627000Y-126273750D01*
X127627000Y-127623000D01*
X128976250Y-127623000D01*
X129135000Y-127464250D01*
X129135000Y-126623690D01*
X129038327Y-126390301D01*
X128859698Y-126211673D01*
X128626309Y-126115000D01*
X127785750Y-126115000D01*
X127627000Y-126273750D01*
X127373000Y-126273750D01*
X127214250Y-126115000D01*
X126373691Y-126115000D01*
X126140302Y-126211673D01*
X125961673Y-126390301D01*
X125865000Y-126623690D01*
X124877888Y-126623690D01*
X125616579Y-125885000D01*
X133912839Y-125885000D01*
X134000000Y-125902337D01*
X134087161Y-125885000D01*
X134087165Y-125885000D01*
X134345310Y-125833652D01*
X134638049Y-125638049D01*
X134687425Y-125564153D01*
X136564156Y-123687423D01*
X136638049Y-123638049D01*
X136695389Y-123552235D01*
X136795547Y-123402338D01*
X136833652Y-123345310D01*
X136885000Y-123087165D01*
X136885000Y-123087161D01*
X136902337Y-123000001D01*
X136885000Y-122912841D01*
X136885000Y-105366578D01*
X137366579Y-104885000D01*
X140662839Y-104885000D01*
X140750000Y-104902337D01*
X140837161Y-104885000D01*
X140837165Y-104885000D01*
X141095310Y-104833652D01*
X141388049Y-104638049D01*
X141437425Y-104564153D01*
X142104138Y-103897440D01*
X143500000Y-103897440D01*
X143747765Y-103848157D01*
X143957809Y-103707809D01*
X144098157Y-103497765D01*
X144147440Y-103250000D01*
X144147440Y-102535750D01*
X145865000Y-102535750D01*
X145865000Y-103376310D01*
X145961673Y-103609699D01*
X146140302Y-103788327D01*
X146373691Y-103885000D01*
X147214250Y-103885000D01*
X147373000Y-103726250D01*
X147373000Y-102377000D01*
X147627000Y-102377000D01*
X147627000Y-103726250D01*
X147785750Y-103885000D01*
X148626309Y-103885000D01*
X148859698Y-103788327D01*
X149038327Y-103609699D01*
X149135000Y-103376310D01*
X149135000Y-102535750D01*
X148976250Y-102377000D01*
X147627000Y-102377000D01*
X147373000Y-102377000D01*
X146023750Y-102377000D01*
X145865000Y-102535750D01*
X144147440Y-102535750D01*
X144147440Y-101735000D01*
X145865000Y-101735000D01*
X145865000Y-101964250D01*
X146023750Y-102123000D01*
X147373000Y-102123000D01*
X147373000Y-102103000D01*
X147627000Y-102103000D01*
X147627000Y-102123000D01*
X148976250Y-102123000D01*
X149135000Y-101964250D01*
X149135000Y-101735000D01*
X150427612Y-101735000D01*
X150500000Y-101749399D01*
X150572388Y-101735000D01*
X150786783Y-101692354D01*
X151029905Y-101529905D01*
X151192354Y-101286783D01*
X151249399Y-101000000D01*
X151235000Y-100927612D01*
X151235000Y-99072388D01*
X151249399Y-99000000D01*
X151192354Y-98713217D01*
X151029905Y-98470095D01*
X150786783Y-98307646D01*
X150572388Y-98265000D01*
X150500000Y-98250601D01*
X150427612Y-98265000D01*
X149135000Y-98265000D01*
X149135000Y-98035750D01*
X148976250Y-97877000D01*
X147627000Y-97877000D01*
X147627000Y-97897000D01*
X147373000Y-97897000D01*
X147373000Y-97877000D01*
X146023750Y-97877000D01*
X145865000Y-98035750D01*
X145865000Y-98265000D01*
X144147440Y-98265000D01*
X144147440Y-96750000D01*
X144122316Y-96623690D01*
X145865000Y-96623690D01*
X145865000Y-97464250D01*
X146023750Y-97623000D01*
X147373000Y-97623000D01*
X147373000Y-96273750D01*
X147627000Y-96273750D01*
X147627000Y-97623000D01*
X148976250Y-97623000D01*
X149135000Y-97464250D01*
X149135000Y-96623690D01*
X149038327Y-96390301D01*
X148859698Y-96211673D01*
X148626309Y-96115000D01*
X147785750Y-96115000D01*
X147627000Y-96273750D01*
X147373000Y-96273750D01*
X147214250Y-96115000D01*
X146373691Y-96115000D01*
X146140302Y-96211673D01*
X145961673Y-96390301D01*
X145865000Y-96623690D01*
X144122316Y-96623690D01*
X144098157Y-96502235D01*
X143957809Y-96292191D01*
X143747765Y-96151843D01*
X143500000Y-96102560D01*
X142104138Y-96102560D01*
X141437425Y-95435847D01*
X141388049Y-95361951D01*
X141095310Y-95166348D01*
X140837165Y-95115000D01*
X140837161Y-95115000D01*
X140750000Y-95097663D01*
X140662839Y-95115000D01*
X137366579Y-95115000D01*
X136885000Y-94633422D01*
X136885000Y-93535000D01*
X137205874Y-93535000D01*
X137568007Y-93385000D01*
X162931993Y-93385000D01*
X163294126Y-93535000D01*
X163705874Y-93535000D01*
X164086280Y-93377431D01*
X164377431Y-93086280D01*
X164535000Y-92705874D01*
X164535000Y-92294126D01*
X164413169Y-92000000D01*
X164535000Y-91705874D01*
X164535000Y-91294126D01*
X164377431Y-90913720D01*
X164363711Y-90900000D01*
X164377431Y-90886280D01*
X164535000Y-90505874D01*
X164535000Y-90094126D01*
X164377431Y-89713720D01*
X164086280Y-89422569D01*
X163705874Y-89265000D01*
X163294126Y-89265000D01*
X162913720Y-89422569D01*
X162721289Y-89615000D01*
X137568007Y-89615000D01*
X137205874Y-89465000D01*
X136885000Y-89465000D01*
X136885000Y-84794126D01*
X136965000Y-84794126D01*
X136965000Y-85205874D01*
X137122569Y-85586280D01*
X137413720Y-85877431D01*
X137794126Y-86035000D01*
X138205874Y-86035000D01*
X138453728Y-85932336D01*
X138552235Y-85998157D01*
X138800000Y-86047440D01*
X139600000Y-86047440D01*
X139847765Y-85998157D01*
X140000000Y-85896436D01*
X140152235Y-85998157D01*
X140400000Y-86047440D01*
X141200000Y-86047440D01*
X141447765Y-85998157D01*
X141546272Y-85932336D01*
X141794126Y-86035000D01*
X142205874Y-86035000D01*
X142586280Y-85877431D01*
X142759285Y-85704426D01*
X142776463Y-85715904D01*
X142998148Y-85760000D01*
X142998152Y-85760000D01*
X143073000Y-85774888D01*
X143147848Y-85760000D01*
X148276837Y-85760000D01*
X148342191Y-85857809D01*
X148552235Y-85998157D01*
X148800000Y-86047440D01*
X149600000Y-86047440D01*
X149847765Y-85998157D01*
X150000000Y-85896436D01*
X150152235Y-85998157D01*
X150400000Y-86047440D01*
X151200000Y-86047440D01*
X151447765Y-85998157D01*
X151546272Y-85932336D01*
X151794126Y-86035000D01*
X152205874Y-86035000D01*
X152586280Y-85877431D01*
X152759285Y-85704426D01*
X152776463Y-85715904D01*
X152998148Y-85760000D01*
X152998152Y-85760000D01*
X153073000Y-85774888D01*
X153147848Y-85760000D01*
X158276837Y-85760000D01*
X158342191Y-85857809D01*
X158552235Y-85998157D01*
X158800000Y-86047440D01*
X159600000Y-86047440D01*
X159847765Y-85998157D01*
X160000000Y-85896436D01*
X160152235Y-85998157D01*
X160400000Y-86047440D01*
X161200000Y-86047440D01*
X161447765Y-85998157D01*
X161546272Y-85932336D01*
X161794126Y-86035000D01*
X162205874Y-86035000D01*
X162586280Y-85877431D01*
X162877431Y-85586280D01*
X163035000Y-85205874D01*
X163035000Y-84794126D01*
X162877431Y-84413720D01*
X162586280Y-84122569D01*
X162205874Y-83965000D01*
X161794126Y-83965000D01*
X161546272Y-84067664D01*
X161447765Y-84001843D01*
X161200000Y-83952560D01*
X160400000Y-83952560D01*
X160285000Y-83975435D01*
X160285000Y-83794126D01*
X160127431Y-83413720D01*
X159836280Y-83122569D01*
X159455874Y-82965000D01*
X159044126Y-82965000D01*
X158663720Y-83122569D01*
X158372569Y-83413720D01*
X158215000Y-83794126D01*
X158215000Y-84205874D01*
X158229135Y-84240000D01*
X153387802Y-84240000D01*
X152663331Y-83515530D01*
X152620929Y-83452071D01*
X152369537Y-83284096D01*
X152147852Y-83240000D01*
X152147847Y-83240000D01*
X152073000Y-83225112D01*
X151998153Y-83240000D01*
X149624848Y-83240000D01*
X149550000Y-83225112D01*
X149475152Y-83240000D01*
X149475148Y-83240000D01*
X149301605Y-83274520D01*
X149253462Y-83284096D01*
X149178633Y-83334096D01*
X149002071Y-83452071D01*
X148959669Y-83515530D01*
X148715528Y-83759671D01*
X148652072Y-83802071D01*
X148491448Y-84042460D01*
X148342191Y-84142191D01*
X148276837Y-84240000D01*
X143387802Y-84240000D01*
X142663331Y-83515530D01*
X142620929Y-83452071D01*
X142369537Y-83284096D01*
X142147852Y-83240000D01*
X142147847Y-83240000D01*
X142073000Y-83225112D01*
X141998153Y-83240000D01*
X139624848Y-83240000D01*
X139550000Y-83225112D01*
X139475152Y-83240000D01*
X139475148Y-83240000D01*
X139301605Y-83274520D01*
X139253462Y-83284096D01*
X139178633Y-83334096D01*
X139002071Y-83452071D01*
X138959669Y-83515530D01*
X138715528Y-83759671D01*
X138652072Y-83802071D01*
X138491448Y-84042460D01*
X138453728Y-84067664D01*
X138205874Y-83965000D01*
X137794126Y-83965000D01*
X137413720Y-84122569D01*
X137122569Y-84413720D01*
X136965000Y-84794126D01*
X136885000Y-84794126D01*
X136885000Y-77087159D01*
X136902337Y-76999999D01*
X136885000Y-76912839D01*
X136885000Y-76912835D01*
X136833652Y-76654690D01*
X136638049Y-76361951D01*
X136564156Y-76312577D01*
X134687425Y-74435847D01*
X134638049Y-74361951D01*
X134345310Y-74166348D01*
X134087165Y-74115000D01*
X134087161Y-74115000D01*
X134000000Y-74097663D01*
X133912839Y-74115000D01*
X125616579Y-74115000D01*
X124147440Y-72645862D01*
X124147440Y-72535750D01*
X125865000Y-72535750D01*
X125865000Y-73376310D01*
X125961673Y-73609699D01*
X126140302Y-73788327D01*
X126373691Y-73885000D01*
X127214250Y-73885000D01*
X127373000Y-73726250D01*
X127373000Y-72377000D01*
X127627000Y-72377000D01*
X127627000Y-73726250D01*
X127785750Y-73885000D01*
X128626309Y-73885000D01*
X128859698Y-73788327D01*
X129038327Y-73609699D01*
X129135000Y-73376310D01*
X129135000Y-72535750D01*
X128976250Y-72377000D01*
X127627000Y-72377000D01*
X127373000Y-72377000D01*
X126023750Y-72377000D01*
X125865000Y-72535750D01*
X124147440Y-72535750D01*
X124147440Y-71735000D01*
X125865000Y-71735000D01*
X125865000Y-71964250D01*
X126023750Y-72123000D01*
X127373000Y-72123000D01*
X127373000Y-72103000D01*
X127627000Y-72103000D01*
X127627000Y-72123000D01*
X128976250Y-72123000D01*
X129135000Y-71964250D01*
X129135000Y-71735000D01*
X130427612Y-71735000D01*
X130500000Y-71749399D01*
X130572388Y-71735000D01*
X130786783Y-71692354D01*
X131029905Y-71529905D01*
X131192354Y-71286783D01*
X131249399Y-71000000D01*
X131235000Y-70927612D01*
X131235000Y-69238000D01*
X146090560Y-69238000D01*
X146090560Y-70762000D01*
X146139843Y-71009765D01*
X146280191Y-71219809D01*
X146490235Y-71360157D01*
X146738000Y-71409440D01*
X148262000Y-71409440D01*
X148509765Y-71360157D01*
X148719809Y-71219809D01*
X148860157Y-71009765D01*
X148909440Y-70762000D01*
X148909440Y-69722119D01*
X156103000Y-69722119D01*
X156103000Y-70277881D01*
X156315680Y-70791337D01*
X156708663Y-71184320D01*
X157222119Y-71397000D01*
X157777881Y-71397000D01*
X158291337Y-71184320D01*
X158684320Y-70791337D01*
X158897000Y-70277881D01*
X158897000Y-69722119D01*
X158684320Y-69208663D01*
X158291337Y-68815680D01*
X157777881Y-68603000D01*
X157222119Y-68603000D01*
X156708663Y-68815680D01*
X156315680Y-69208663D01*
X156103000Y-69722119D01*
X148909440Y-69722119D01*
X148909440Y-69238000D01*
X148860157Y-68990235D01*
X148719809Y-68780191D01*
X148509765Y-68639843D01*
X148262000Y-68590560D01*
X146738000Y-68590560D01*
X146490235Y-68639843D01*
X146280191Y-68780191D01*
X146139843Y-68990235D01*
X146090560Y-69238000D01*
X131235000Y-69238000D01*
X131235000Y-69072388D01*
X131249399Y-69000000D01*
X131192354Y-68713217D01*
X131029905Y-68470095D01*
X130786783Y-68307646D01*
X130572388Y-68265000D01*
X130500000Y-68250601D01*
X130427612Y-68265000D01*
X129135000Y-68265000D01*
X129135000Y-68035750D01*
X128976250Y-67877000D01*
X127627000Y-67877000D01*
X127627000Y-67897000D01*
X127373000Y-67897000D01*
X127373000Y-67877000D01*
X126023750Y-67877000D01*
X125865000Y-68035750D01*
X125865000Y-68265000D01*
X124147440Y-68265000D01*
X124147440Y-66750000D01*
X124122316Y-66623690D01*
X125865000Y-66623690D01*
X125865000Y-67464250D01*
X126023750Y-67623000D01*
X127373000Y-67623000D01*
X127373000Y-66273750D01*
X127627000Y-66273750D01*
X127627000Y-67623000D01*
X128976250Y-67623000D01*
X129135000Y-67464250D01*
X129135000Y-66623690D01*
X129038327Y-66390301D01*
X128859698Y-66211673D01*
X128626309Y-66115000D01*
X127785750Y-66115000D01*
X127627000Y-66273750D01*
X127373000Y-66273750D01*
X127214250Y-66115000D01*
X126373691Y-66115000D01*
X126140302Y-66211673D01*
X125961673Y-66390301D01*
X125865000Y-66623690D01*
X124122316Y-66623690D01*
X124098157Y-66502235D01*
X123957809Y-66292191D01*
X123747765Y-66151843D01*
X123500000Y-66102560D01*
X122104139Y-66102560D01*
X121001578Y-65000000D01*
X121446147Y-64555431D01*
X167765000Y-64555431D01*
X167765000Y-65444569D01*
X168105259Y-66266026D01*
X168733974Y-66894741D01*
X169555431Y-67235000D01*
X170444569Y-67235000D01*
X171266026Y-66894741D01*
X171894741Y-66266026D01*
X172235000Y-65444569D01*
X172235000Y-64555431D01*
X171894741Y-63733974D01*
X171266026Y-63105259D01*
X170444569Y-62765000D01*
X169555431Y-62765000D01*
X168733974Y-63105259D01*
X168105259Y-63733974D01*
X167765000Y-64555431D01*
X121446147Y-64555431D01*
X121564156Y-64437423D01*
X121638049Y-64388049D01*
X121712858Y-64276091D01*
X121833652Y-64095310D01*
X121885000Y-63837165D01*
X121885000Y-63837161D01*
X121902337Y-63750000D01*
X121885000Y-63662839D01*
X121885000Y-61289841D01*
X121990235Y-61360157D01*
X122238000Y-61409440D01*
X123762000Y-61409440D01*
X124009765Y-61360157D01*
X124219809Y-61219809D01*
X124360157Y-61009765D01*
X124409440Y-60762000D01*
X124409440Y-59238000D01*
X124391936Y-59150000D01*
X131002560Y-59150000D01*
X131002560Y-60850000D01*
X131051843Y-61097765D01*
X131192191Y-61307809D01*
X131402235Y-61448157D01*
X131650000Y-61497440D01*
X133350000Y-61497440D01*
X133597765Y-61448157D01*
X133807809Y-61307809D01*
X133948157Y-61097765D01*
X133957184Y-61052381D01*
X133969375Y-61070625D01*
X134460582Y-61398839D01*
X134893744Y-61485000D01*
X135186256Y-61485000D01*
X135619418Y-61398839D01*
X136110625Y-61070625D01*
X136438839Y-60579418D01*
X136554092Y-60000000D01*
X136438839Y-59420582D01*
X136110625Y-58929375D01*
X135619418Y-58601161D01*
X135186256Y-58515000D01*
X134893744Y-58515000D01*
X134460582Y-58601161D01*
X133969375Y-58929375D01*
X133957184Y-58947619D01*
X133948157Y-58902235D01*
X133807809Y-58692191D01*
X133597765Y-58551843D01*
X133350000Y-58502560D01*
X131650000Y-58502560D01*
X131402235Y-58551843D01*
X131192191Y-58692191D01*
X131051843Y-58902235D01*
X131002560Y-59150000D01*
X124391936Y-59150000D01*
X124360157Y-58990235D01*
X124219809Y-58780191D01*
X124009765Y-58639843D01*
X123762000Y-58590560D01*
X122238000Y-58590560D01*
X121990235Y-58639843D01*
X121780191Y-58780191D01*
X121764034Y-58804371D01*
X121277881Y-58603000D01*
X120722119Y-58603000D01*
X120208663Y-58815680D01*
X120000000Y-59024343D01*
X119791337Y-58815680D01*
X119277881Y-58603000D01*
X118722119Y-58603000D01*
X118208663Y-58815680D01*
X117815680Y-59208663D01*
X117705894Y-59473711D01*
X117179605Y-60000000D01*
X117705894Y-60526289D01*
X117815680Y-60791337D01*
X118208663Y-61184320D01*
X118722119Y-61397000D01*
X119277881Y-61397000D01*
X119791337Y-61184320D01*
X120000000Y-60975657D01*
X120115000Y-61090657D01*
X120115001Y-63383420D01*
X119383422Y-64115000D01*
X109087161Y-64115000D01*
X109000000Y-64097663D01*
X108912839Y-64115000D01*
X108912835Y-64115000D01*
X108654690Y-64166348D01*
X108435845Y-64312576D01*
X108435844Y-64312577D01*
X108361951Y-64361951D01*
X108312577Y-64435844D01*
X105935847Y-66812575D01*
X105861951Y-66861951D01*
X105666348Y-67154691D01*
X105615000Y-67412836D01*
X105615000Y-67412839D01*
X105597663Y-67500000D01*
X80710000Y-67500000D01*
X80710000Y-65294090D01*
X81448659Y-64555431D01*
X87765000Y-64555431D01*
X87765000Y-65444569D01*
X88105259Y-66266026D01*
X88733974Y-66894741D01*
X89555431Y-67235000D01*
X90444569Y-67235000D01*
X91266026Y-66894741D01*
X91894741Y-66266026D01*
X92235000Y-65444569D01*
X92235000Y-64555431D01*
X91894741Y-63733974D01*
X91266026Y-63105259D01*
X90444569Y-62765000D01*
X89555431Y-62765000D01*
X88733974Y-63105259D01*
X88105259Y-63733974D01*
X87765000Y-64555431D01*
X81448659Y-64555431D01*
X85647198Y-60356892D01*
X97938514Y-60356892D01*
X98184817Y-60881358D01*
X98613076Y-61271645D01*
X99023110Y-61441476D01*
X99253000Y-61320155D01*
X99253000Y-60127000D01*
X98059181Y-60127000D01*
X97938514Y-60356892D01*
X85647198Y-60356892D01*
X86360982Y-59643108D01*
X97938514Y-59643108D01*
X98059181Y-59873000D01*
X99253000Y-59873000D01*
X99253000Y-58679845D01*
X99507000Y-58679845D01*
X99507000Y-59873000D01*
X99527000Y-59873000D01*
X99527000Y-60127000D01*
X99507000Y-60127000D01*
X99507000Y-61320155D01*
X99736890Y-61441476D01*
X100146924Y-61271645D01*
X100575183Y-60881358D01*
X100636157Y-60751522D01*
X100849375Y-61070625D01*
X101340582Y-61398839D01*
X101773744Y-61485000D01*
X102066256Y-61485000D01*
X102499418Y-61398839D01*
X102990625Y-61070625D01*
X103190000Y-60772239D01*
X103389375Y-61070625D01*
X103880582Y-61398839D01*
X104313744Y-61485000D01*
X104606256Y-61485000D01*
X105039418Y-61398839D01*
X105530625Y-61070625D01*
X105542816Y-61052381D01*
X105551843Y-61097765D01*
X105692191Y-61307809D01*
X105902235Y-61448157D01*
X106150000Y-61497440D01*
X107850000Y-61497440D01*
X108097765Y-61448157D01*
X108307809Y-61307809D01*
X108448157Y-61097765D01*
X108471539Y-60980213D01*
X116199392Y-60980213D01*
X116268857Y-61222397D01*
X116792302Y-61409144D01*
X117347368Y-61381362D01*
X117731143Y-61222397D01*
X117800608Y-60980213D01*
X117000000Y-60179605D01*
X116199392Y-60980213D01*
X108471539Y-60980213D01*
X108497440Y-60850000D01*
X108497440Y-59792302D01*
X115590856Y-59792302D01*
X115618638Y-60347368D01*
X115777603Y-60731143D01*
X116019787Y-60800608D01*
X116820395Y-60000000D01*
X116019787Y-59199392D01*
X115777603Y-59268857D01*
X115590856Y-59792302D01*
X108497440Y-59792302D01*
X108497440Y-59150000D01*
X108471540Y-59019787D01*
X116199392Y-59019787D01*
X117000000Y-59820395D01*
X117800608Y-59019787D01*
X117731143Y-58777603D01*
X117207698Y-58590856D01*
X116652632Y-58618638D01*
X116268857Y-58777603D01*
X116199392Y-59019787D01*
X108471540Y-59019787D01*
X108448157Y-58902235D01*
X108307809Y-58692191D01*
X108097765Y-58551843D01*
X107850000Y-58502560D01*
X106150000Y-58502560D01*
X105902235Y-58551843D01*
X105692191Y-58692191D01*
X105551843Y-58902235D01*
X105542816Y-58947619D01*
X105530625Y-58929375D01*
X105039418Y-58601161D01*
X104606256Y-58515000D01*
X104313744Y-58515000D01*
X103880582Y-58601161D01*
X103389375Y-58929375D01*
X103190000Y-59227761D01*
X102990625Y-58929375D01*
X102499418Y-58601161D01*
X102066256Y-58515000D01*
X101773744Y-58515000D01*
X101340582Y-58601161D01*
X100849375Y-58929375D01*
X100636157Y-59248478D01*
X100575183Y-59118642D01*
X100146924Y-58728355D01*
X99736890Y-58558524D01*
X99507000Y-58679845D01*
X99253000Y-58679845D01*
X99023110Y-58558524D01*
X98613076Y-58728355D01*
X98184817Y-59118642D01*
X97938514Y-59643108D01*
X86360982Y-59643108D01*
X90294092Y-55710000D01*
X169705910Y-55710000D01*
X179290001Y-65294093D01*
X179290001Y-65294093D01*
G37*
X179290001Y-65294093D02*
X179290000Y-144705908D01*
X169705910Y-154290000D01*
X90294092Y-154290000D01*
X80710000Y-144705910D01*
X80710000Y-144555431D01*
X87765000Y-144555431D01*
X87765000Y-145444569D01*
X88105259Y-146266026D01*
X88733974Y-146894741D01*
X89555431Y-147235000D01*
X90444569Y-147235000D01*
X91266026Y-146894741D01*
X91894741Y-146266026D01*
X92235000Y-145444569D01*
X92235000Y-144600000D01*
X98152560Y-144600000D01*
X98152560Y-145400000D01*
X98201843Y-145647765D01*
X98342191Y-145857809D01*
X98491448Y-145957540D01*
X98652072Y-146197929D01*
X98715528Y-146240329D01*
X98959669Y-146484470D01*
X99002071Y-146547929D01*
X99159718Y-146653266D01*
X99253462Y-146715904D01*
X99301605Y-146725480D01*
X99475148Y-146760000D01*
X99475152Y-146760000D01*
X99550000Y-146774888D01*
X99624848Y-146760000D01*
X101998153Y-146760000D01*
X102073000Y-146774888D01*
X102147847Y-146760000D01*
X102147852Y-146760000D01*
X102369537Y-146715904D01*
X102620929Y-146547929D01*
X102663331Y-146484470D01*
X103387802Y-145760000D01*
X108276837Y-145760000D01*
X108342191Y-145857809D01*
X108491448Y-145957540D01*
X108652072Y-146197929D01*
X108715528Y-146240329D01*
X108959669Y-146484470D01*
X109002071Y-146547929D01*
X109159718Y-146653266D01*
X109253462Y-146715904D01*
X109301605Y-146725480D01*
X109475148Y-146760000D01*
X109475152Y-146760000D01*
X109550000Y-146774888D01*
X109624848Y-146760000D01*
X111998153Y-146760000D01*
X112073000Y-146774888D01*
X112147847Y-146760000D01*
X112147852Y-146760000D01*
X112369537Y-146715904D01*
X112620929Y-146547929D01*
X112663331Y-146484470D01*
X113387802Y-145760000D01*
X118276837Y-145760000D01*
X118342191Y-145857809D01*
X118491448Y-145957540D01*
X118652072Y-146197929D01*
X118715528Y-146240329D01*
X118959669Y-146484470D01*
X119002071Y-146547929D01*
X119159718Y-146653266D01*
X119253462Y-146715904D01*
X119301605Y-146725480D01*
X119475148Y-146760000D01*
X119475152Y-146760000D01*
X119550000Y-146774888D01*
X119624848Y-146760000D01*
X121998153Y-146760000D01*
X122073000Y-146774888D01*
X122147847Y-146760000D01*
X122147852Y-146760000D01*
X122369537Y-146715904D01*
X122620929Y-146547929D01*
X122663331Y-146484470D01*
X123387802Y-145760000D01*
X128276837Y-145760000D01*
X128342191Y-145857809D01*
X128491448Y-145957540D01*
X128652072Y-146197929D01*
X128715528Y-146240329D01*
X128959669Y-146484470D01*
X129002071Y-146547929D01*
X129159718Y-146653266D01*
X129253462Y-146715904D01*
X129301605Y-146725480D01*
X129475148Y-146760000D01*
X129475152Y-146760000D01*
X129550000Y-146774888D01*
X129624848Y-146760000D01*
X131998153Y-146760000D01*
X132073000Y-146774888D01*
X132147847Y-146760000D01*
X132147852Y-146760000D01*
X132369537Y-146715904D01*
X132620929Y-146547929D01*
X132663331Y-146484470D01*
X133387802Y-145760000D01*
X138276837Y-145760000D01*
X138342191Y-145857809D01*
X138491448Y-145957540D01*
X138652072Y-146197929D01*
X138715528Y-146240329D01*
X138959669Y-146484470D01*
X139002071Y-146547929D01*
X139159718Y-146653266D01*
X139253462Y-146715904D01*
X139301605Y-146725480D01*
X139475148Y-146760000D01*
X139475152Y-146760000D01*
X139550000Y-146774888D01*
X139624848Y-146760000D01*
X141998153Y-146760000D01*
X142073000Y-146774888D01*
X142147847Y-146760000D01*
X142147852Y-146760000D01*
X142369537Y-146715904D01*
X142620929Y-146547929D01*
X142663331Y-146484470D01*
X143387802Y-145760000D01*
X148276837Y-145760000D01*
X148342191Y-145857809D01*
X148474024Y-145945898D01*
X148484097Y-145996537D01*
X148652072Y-146247929D01*
X148715528Y-146290329D01*
X148909669Y-146484470D01*
X148952071Y-146547929D01*
X149203463Y-146715904D01*
X149425148Y-146760000D01*
X149425152Y-146760000D01*
X149499999Y-146774888D01*
X149574846Y-146760000D01*
X151998153Y-146760000D01*
X152073000Y-146774888D01*
X152147847Y-146760000D01*
X152147852Y-146760000D01*
X152369537Y-146715904D01*
X152620929Y-146547929D01*
X152663331Y-146484470D01*
X153387802Y-145760000D01*
X158185199Y-145760000D01*
X158709671Y-146284473D01*
X158752071Y-146347929D01*
X158815527Y-146390329D01*
X159003462Y-146515904D01*
X159051605Y-146525480D01*
X159054103Y-146525977D01*
X159142191Y-146657809D01*
X159352235Y-146798157D01*
X159600000Y-146847440D01*
X160400000Y-146847440D01*
X160647765Y-146798157D01*
X160857809Y-146657809D01*
X160945897Y-146525977D01*
X160996537Y-146515904D01*
X161247929Y-146347929D01*
X161290331Y-146284470D01*
X161484470Y-146090331D01*
X161547929Y-146047929D01*
X161715904Y-145796537D01*
X161760000Y-145574852D01*
X161760000Y-145574848D01*
X161774888Y-145500001D01*
X161760000Y-145425154D01*
X161760000Y-144555431D01*
X167765000Y-144555431D01*
X167765000Y-145444569D01*
X168105259Y-146266026D01*
X168733974Y-146894741D01*
X169555431Y-147235000D01*
X170444569Y-147235000D01*
X171266026Y-146894741D01*
X171894741Y-146266026D01*
X172235000Y-145444569D01*
X172235000Y-144555431D01*
X171894741Y-143733974D01*
X171266026Y-143105259D01*
X170444569Y-142765000D01*
X169555431Y-142765000D01*
X168733974Y-143105259D01*
X168105259Y-143733974D01*
X167765000Y-144555431D01*
X161760000Y-144555431D01*
X161760000Y-143001848D01*
X161774888Y-142927000D01*
X161760000Y-142852152D01*
X161760000Y-142852148D01*
X161715904Y-142630463D01*
X161547929Y-142379071D01*
X161484473Y-142336671D01*
X160760000Y-141612199D01*
X160760000Y-138703711D01*
X160877431Y-138586280D01*
X161035000Y-138205874D01*
X161035000Y-137794126D01*
X160881196Y-137422809D01*
X160957540Y-137308552D01*
X161197929Y-137147929D01*
X161240331Y-137084470D01*
X161484470Y-136840331D01*
X161547929Y-136797929D01*
X161680181Y-136600000D01*
X161715904Y-136546538D01*
X161725480Y-136498395D01*
X161760000Y-136324852D01*
X161760000Y-136324848D01*
X161774888Y-136250000D01*
X161760000Y-136175152D01*
X161760000Y-134001848D01*
X161774888Y-133927000D01*
X161760000Y-133852152D01*
X161760000Y-133852148D01*
X161715904Y-133630463D01*
X161547929Y-133379071D01*
X161484473Y-133336671D01*
X160760000Y-132612199D01*
X160760000Y-126723163D01*
X160857809Y-126657809D01*
X160998157Y-126447765D01*
X161047440Y-126200000D01*
X161047440Y-125400000D01*
X160998157Y-125152235D01*
X160896436Y-125000000D01*
X160998157Y-124847765D01*
X161047440Y-124600000D01*
X161047440Y-123800000D01*
X160998157Y-123552235D01*
X160857809Y-123342191D01*
X160760000Y-123276837D01*
X160760000Y-121314801D01*
X163314802Y-118760000D01*
X170463808Y-118760000D01*
X170538655Y-118774888D01*
X170613502Y-118760000D01*
X170613507Y-118760000D01*
X170835192Y-118715904D01*
X171086584Y-118547929D01*
X171128986Y-118484470D01*
X173023128Y-116590329D01*
X173086584Y-116547929D01*
X173254559Y-116296537D01*
X173298655Y-116074852D01*
X173298655Y-116074848D01*
X173313543Y-116000001D01*
X173298655Y-115925154D01*
X173298655Y-110334493D01*
X173416086Y-110217062D01*
X173573655Y-109836656D01*
X173573655Y-109424908D01*
X173416086Y-109044502D01*
X173124935Y-108753351D01*
X172744529Y-108595782D01*
X172332781Y-108595782D01*
X172260000Y-108625929D01*
X172260000Y-108270865D01*
X172294126Y-108285000D01*
X172705874Y-108285000D01*
X173086280Y-108127431D01*
X173377431Y-107836280D01*
X173535000Y-107455874D01*
X173535000Y-107044126D01*
X173413169Y-106750000D01*
X173535000Y-106455874D01*
X173535000Y-106044126D01*
X173413169Y-105750000D01*
X173535000Y-105455874D01*
X173535000Y-105044126D01*
X173413169Y-104750000D01*
X173535000Y-104455874D01*
X173535000Y-104044126D01*
X173413169Y-103750000D01*
X173535000Y-103455874D01*
X173535000Y-103044126D01*
X173377431Y-102663720D01*
X173086280Y-102372569D01*
X172705874Y-102215000D01*
X172294126Y-102215000D01*
X171913720Y-102372569D01*
X171796289Y-102490000D01*
X168453711Y-102490000D01*
X168336280Y-102372569D01*
X167955874Y-102215000D01*
X167544126Y-102215000D01*
X167163720Y-102372569D01*
X166872569Y-102663720D01*
X166715000Y-103044126D01*
X166715000Y-103455874D01*
X166872569Y-103836280D01*
X167163720Y-104127431D01*
X167544126Y-104285000D01*
X167955874Y-104285000D01*
X168336280Y-104127431D01*
X168453711Y-104010000D01*
X169165198Y-104010000D01*
X168765528Y-104409671D01*
X168702072Y-104452071D01*
X168659672Y-104515527D01*
X168659671Y-104515528D01*
X168638951Y-104546538D01*
X168534097Y-104703463D01*
X168515307Y-104797929D01*
X168475112Y-105000000D01*
X168490001Y-105074852D01*
X168490000Y-112185198D01*
X168435199Y-112240000D01*
X149074848Y-112240000D01*
X149000000Y-112225112D01*
X148925152Y-112240000D01*
X148925148Y-112240000D01*
X148703463Y-112284096D01*
X148452071Y-112452071D01*
X148409671Y-112515527D01*
X147685199Y-113240000D01*
X139624848Y-113240000D01*
X139550000Y-113225112D01*
X139475152Y-113240000D01*
X139475148Y-113240000D01*
X139301605Y-113274520D01*
X139253462Y-113284096D01*
X139166518Y-113342191D01*
X139002071Y-113452071D01*
X138959669Y-113515530D01*
X138715528Y-113759671D01*
X138652072Y-113802071D01*
X138491448Y-114042460D01*
X138453728Y-114067664D01*
X138205874Y-113965000D01*
X137794126Y-113965000D01*
X137413720Y-114122569D01*
X137122569Y-114413720D01*
X136965000Y-114794126D01*
X136965000Y-115205874D01*
X137122569Y-115586280D01*
X137413720Y-115877431D01*
X137794126Y-116035000D01*
X138205874Y-116035000D01*
X138453728Y-115932336D01*
X138552235Y-115998157D01*
X138800000Y-116047440D01*
X139600000Y-116047440D01*
X139847765Y-115998157D01*
X140000000Y-115896436D01*
X140152235Y-115998157D01*
X140400000Y-116047440D01*
X141200000Y-116047440D01*
X141447765Y-115998157D01*
X141546272Y-115932336D01*
X141794126Y-116035000D01*
X142205874Y-116035000D01*
X142586280Y-115877431D01*
X142703711Y-115760000D01*
X146612199Y-115760000D01*
X147336670Y-116484472D01*
X147379071Y-116547929D01*
X147630463Y-116715904D01*
X147852148Y-116760000D01*
X147852152Y-116760000D01*
X147927000Y-116774888D01*
X148001848Y-116760000D01*
X150375153Y-116760000D01*
X150450000Y-116774888D01*
X150524847Y-116760000D01*
X150524852Y-116760000D01*
X150746537Y-116715904D01*
X150997929Y-116547929D01*
X151040331Y-116484470D01*
X151068663Y-116456138D01*
X151122569Y-116586280D01*
X151413720Y-116877431D01*
X151794126Y-117035000D01*
X151965000Y-117035000D01*
X151965000Y-117205874D01*
X152122569Y-117586280D01*
X152413720Y-117877431D01*
X152794126Y-118035000D01*
X153205874Y-118035000D01*
X153586280Y-117877431D01*
X153703711Y-117760000D01*
X155685199Y-117760000D01*
X156409671Y-118484473D01*
X156452071Y-118547929D01*
X156703463Y-118715904D01*
X156925148Y-118760000D01*
X156925152Y-118760000D01*
X157000000Y-118774888D01*
X157074848Y-118760000D01*
X161165198Y-118760000D01*
X159515528Y-120409671D01*
X159452072Y-120452071D01*
X159409672Y-120515527D01*
X159409671Y-120515528D01*
X159284097Y-120703463D01*
X159225112Y-121000000D01*
X159240001Y-121074852D01*
X159240000Y-123276836D01*
X159142191Y-123342191D01*
X159001843Y-123552235D01*
X158952560Y-123800000D01*
X158952560Y-124600000D01*
X159001843Y-124847765D01*
X159103564Y-125000000D01*
X159001843Y-125152235D01*
X158952560Y-125400000D01*
X158952560Y-126200000D01*
X159001843Y-126447765D01*
X159142191Y-126657809D01*
X159240000Y-126723163D01*
X159240000Y-127074851D01*
X159240001Y-127074856D01*
X159240000Y-132852153D01*
X159225112Y-132927000D01*
X159240000Y-133001847D01*
X159240000Y-133001851D01*
X159284096Y-133223536D01*
X159295574Y-133240715D01*
X159122569Y-133413720D01*
X158965000Y-133794126D01*
X158965000Y-134205874D01*
X159016524Y-134330264D01*
X159001843Y-134352235D01*
X158952560Y-134600000D01*
X158952560Y-135400000D01*
X159001843Y-135647765D01*
X159103564Y-135800000D01*
X159001843Y-135952235D01*
X158952560Y-136200000D01*
X158952560Y-137000000D01*
X159001843Y-137247765D01*
X159118804Y-137422809D01*
X158965000Y-137794126D01*
X158965000Y-138205874D01*
X159122569Y-138586280D01*
X159240001Y-138703712D01*
X159240000Y-141852153D01*
X159225112Y-141927000D01*
X159240000Y-142001847D01*
X159240000Y-142001851D01*
X159284096Y-142223536D01*
X159295574Y-142240715D01*
X159122569Y-142413720D01*
X158965000Y-142794126D01*
X158965000Y-143205874D01*
X159067664Y-143453728D01*
X159001843Y-143552235D01*
X158952560Y-143800000D01*
X158952560Y-144388347D01*
X158796537Y-144284096D01*
X158574852Y-144240000D01*
X158574847Y-144240000D01*
X158500000Y-144225112D01*
X158425153Y-144240000D01*
X153147848Y-144240000D01*
X153073000Y-144225112D01*
X152998152Y-144240000D01*
X152998148Y-144240000D01*
X152776463Y-144284096D01*
X152759285Y-144295574D01*
X152586280Y-144122569D01*
X152205874Y-143965000D01*
X151794126Y-143965000D01*
X151546272Y-144067664D01*
X151447765Y-144001843D01*
X151200000Y-143952560D01*
X150400000Y-143952560D01*
X150152235Y-144001843D01*
X150000000Y-144103564D01*
X149847765Y-144001843D01*
X149600000Y-143952560D01*
X148800000Y-143952560D01*
X148552235Y-144001843D01*
X148342191Y-144142191D01*
X148276837Y-144240000D01*
X143147848Y-144240000D01*
X143073000Y-144225112D01*
X142998152Y-144240000D01*
X142998148Y-144240000D01*
X142776463Y-144284096D01*
X142759285Y-144295574D01*
X142586280Y-144122569D01*
X142205874Y-143965000D01*
X141794126Y-143965000D01*
X141546272Y-144067664D01*
X141447765Y-144001843D01*
X141200000Y-143952560D01*
X140400000Y-143952560D01*
X140152235Y-144001843D01*
X140000000Y-144103564D01*
X139847765Y-144001843D01*
X139600000Y-143952560D01*
X138800000Y-143952560D01*
X138552235Y-144001843D01*
X138342191Y-144142191D01*
X138276837Y-144240000D01*
X133147848Y-144240000D01*
X133073000Y-144225112D01*
X132998152Y-144240000D01*
X132998148Y-144240000D01*
X132776463Y-144284096D01*
X132759285Y-144295574D01*
X132586280Y-144122569D01*
X132205874Y-143965000D01*
X131794126Y-143965000D01*
X131546272Y-144067664D01*
X131447765Y-144001843D01*
X131200000Y-143952560D01*
X130400000Y-143952560D01*
X130152235Y-144001843D01*
X130000000Y-144103564D01*
X129847765Y-144001843D01*
X129600000Y-143952560D01*
X128800000Y-143952560D01*
X128552235Y-144001843D01*
X128342191Y-144142191D01*
X128276837Y-144240000D01*
X123147848Y-144240000D01*
X123073000Y-144225112D01*
X122998152Y-144240000D01*
X122998148Y-144240000D01*
X122776463Y-144284096D01*
X122759285Y-144295574D01*
X122586280Y-144122569D01*
X122205874Y-143965000D01*
X121794126Y-143965000D01*
X121546272Y-144067664D01*
X121447765Y-144001843D01*
X121200000Y-143952560D01*
X120400000Y-143952560D01*
X120152235Y-144001843D01*
X120000000Y-144103564D01*
X119847765Y-144001843D01*
X119600000Y-143952560D01*
X118800000Y-143952560D01*
X118552235Y-144001843D01*
X118342191Y-144142191D01*
X118276837Y-144240000D01*
X113147848Y-144240000D01*
X113073000Y-144225112D01*
X112998152Y-144240000D01*
X112998148Y-144240000D01*
X112776463Y-144284096D01*
X112759285Y-144295574D01*
X112586280Y-144122569D01*
X112205874Y-143965000D01*
X111794126Y-143965000D01*
X111546272Y-144067664D01*
X111447765Y-144001843D01*
X111200000Y-143952560D01*
X110400000Y-143952560D01*
X110152235Y-144001843D01*
X110000000Y-144103564D01*
X109847765Y-144001843D01*
X109600000Y-143952560D01*
X108800000Y-143952560D01*
X108552235Y-144001843D01*
X108342191Y-144142191D01*
X108276837Y-144240000D01*
X103147848Y-144240000D01*
X103073000Y-144225112D01*
X102998152Y-144240000D01*
X102998148Y-144240000D01*
X102776463Y-144284096D01*
X102759285Y-144295574D01*
X102586280Y-144122569D01*
X102205874Y-143965000D01*
X101794126Y-143965000D01*
X101546272Y-144067664D01*
X101447765Y-144001843D01*
X101200000Y-143952560D01*
X100400000Y-143952560D01*
X100152235Y-144001843D01*
X100000000Y-144103564D01*
X99847765Y-144001843D01*
X99600000Y-143952560D01*
X98800000Y-143952560D01*
X98552235Y-144001843D01*
X98342191Y-144142191D01*
X98201843Y-144352235D01*
X98152560Y-144600000D01*
X92235000Y-144600000D01*
X92235000Y-144555431D01*
X91894741Y-143733974D01*
X91266026Y-143105259D01*
X90444569Y-142765000D01*
X89555431Y-142765000D01*
X88733974Y-143105259D01*
X88105259Y-143733974D01*
X87765000Y-144555431D01*
X80710000Y-144555431D01*
X80710000Y-84600000D01*
X98152560Y-84600000D01*
X98152560Y-85400000D01*
X98201843Y-85647765D01*
X98342191Y-85857809D01*
X98474023Y-85945897D01*
X98484096Y-85996536D01*
X98652071Y-86247929D01*
X98715530Y-86290331D01*
X99167001Y-86741803D01*
X99167000Y-91685198D01*
X98515528Y-92336671D01*
X98452072Y-92379071D01*
X98409672Y-92442527D01*
X98409671Y-92442528D01*
X98284097Y-92630463D01*
X98225112Y-92927000D01*
X98240001Y-93001852D01*
X98240000Y-95425153D01*
X98225112Y-95500000D01*
X98240000Y-95574847D01*
X98240000Y-95574851D01*
X98284096Y-95796536D01*
X98452071Y-96047929D01*
X98515530Y-96090331D01*
X98709669Y-96284470D01*
X98752071Y-96347929D01*
X99003463Y-96515904D01*
X99054103Y-96525977D01*
X99142191Y-96657809D01*
X99240001Y-96723164D01*
X99240000Y-101612198D01*
X98515528Y-102336671D01*
X98452072Y-102379071D01*
X98409672Y-102442527D01*
X98409671Y-102442528D01*
X98307585Y-102595311D01*
X98284097Y-102630463D01*
X98247559Y-102814154D01*
X98225112Y-102927000D01*
X98240001Y-103001852D01*
X98240000Y-105425153D01*
X98225112Y-105500000D01*
X98240000Y-105574847D01*
X98240000Y-105574851D01*
X98284096Y-105796536D01*
X98452071Y-106047929D01*
X98515530Y-106090331D01*
X98709669Y-106284470D01*
X98752071Y-106347929D01*
X99003463Y-106515904D01*
X99054103Y-106525977D01*
X99142191Y-106657809D01*
X99240001Y-106723164D01*
X99240000Y-111612198D01*
X98515528Y-112336671D01*
X98452072Y-112379071D01*
X98409672Y-112442527D01*
X98409671Y-112442528D01*
X98284097Y-112630463D01*
X98225112Y-112927000D01*
X98240001Y-113001852D01*
X98240000Y-115425153D01*
X98225112Y-115500000D01*
X98240000Y-115574847D01*
X98240000Y-115574851D01*
X98284096Y-115796536D01*
X98452071Y-116047929D01*
X98515530Y-116090331D01*
X98709669Y-116284470D01*
X98752071Y-116347929D01*
X99003463Y-116515904D01*
X99054103Y-116525977D01*
X99142191Y-116657809D01*
X99352235Y-116798157D01*
X99600000Y-116847440D01*
X100400000Y-116847440D01*
X100647765Y-116798157D01*
X100857809Y-116657809D01*
X100945897Y-116525977D01*
X100996537Y-116515904D01*
X101247929Y-116347929D01*
X101290331Y-116284470D01*
X101741802Y-115833000D01*
X106685199Y-115833000D01*
X107336670Y-116484472D01*
X107379071Y-116547929D01*
X107630463Y-116715904D01*
X107852148Y-116760000D01*
X107852153Y-116760000D01*
X107927000Y-116774888D01*
X108001847Y-116760000D01*
X110375153Y-116760000D01*
X110450000Y-116774888D01*
X110524847Y-116760000D01*
X110524852Y-116760000D01*
X110746537Y-116715904D01*
X110997929Y-116547929D01*
X111040331Y-116484470D01*
X111284470Y-116240331D01*
X111347929Y-116197929D01*
X111456795Y-116035000D01*
X111508553Y-115957539D01*
X111657809Y-115857809D01*
X111723163Y-115760000D01*
X116612199Y-115760000D01*
X117336670Y-116484472D01*
X117379071Y-116547929D01*
X117630463Y-116715904D01*
X117852148Y-116760000D01*
X117852152Y-116760000D01*
X117927000Y-116774888D01*
X118001848Y-116760000D01*
X120375153Y-116760000D01*
X120450000Y-116774888D01*
X120524847Y-116760000D01*
X120524852Y-116760000D01*
X120746537Y-116715904D01*
X120997929Y-116547929D01*
X121040331Y-116484470D01*
X121284470Y-116240331D01*
X121347929Y-116197929D01*
X121456795Y-116035000D01*
X121508553Y-115957539D01*
X121657809Y-115857809D01*
X121723163Y-115760000D01*
X126612199Y-115760000D01*
X127336670Y-116484472D01*
X127379071Y-116547929D01*
X127630463Y-116715904D01*
X127852148Y-116760000D01*
X127852152Y-116760000D01*
X127927000Y-116774888D01*
X128001848Y-116760000D01*
X130375153Y-116760000D01*
X130450000Y-116774888D01*
X130524847Y-116760000D01*
X130524852Y-116760000D01*
X130746537Y-116715904D01*
X130997929Y-116547929D01*
X131040331Y-116484470D01*
X131284470Y-116240331D01*
X131347929Y-116197929D01*
X131456795Y-116035000D01*
X131508553Y-115957539D01*
X131546272Y-115932336D01*
X131794126Y-116035000D01*
X132205874Y-116035000D01*
X132586280Y-115877431D01*
X132877431Y-115586280D01*
X133035000Y-115205874D01*
X133035000Y-114794126D01*
X132877431Y-114413720D01*
X132586280Y-114122569D01*
X132205874Y-113965000D01*
X131794126Y-113965000D01*
X131546272Y-114067664D01*
X131447765Y-114001843D01*
X131200000Y-113952560D01*
X130400000Y-113952560D01*
X130152235Y-114001843D01*
X130000000Y-114103564D01*
X129847765Y-114001843D01*
X129600000Y-113952560D01*
X128800000Y-113952560D01*
X128552235Y-114001843D01*
X128453728Y-114067664D01*
X128205874Y-113965000D01*
X127794126Y-113965000D01*
X127413720Y-114122569D01*
X127240715Y-114295574D01*
X127223537Y-114284096D01*
X127001852Y-114240000D01*
X127001847Y-114240000D01*
X126927000Y-114225112D01*
X126852153Y-114240000D01*
X121723163Y-114240000D01*
X121657809Y-114142191D01*
X121447765Y-114001843D01*
X121200000Y-113952560D01*
X120400000Y-113952560D01*
X120152235Y-114001843D01*
X120000000Y-114103564D01*
X119847765Y-114001843D01*
X119600000Y-113952560D01*
X118800000Y-113952560D01*
X118552235Y-114001843D01*
X118453728Y-114067664D01*
X118205874Y-113965000D01*
X117794126Y-113965000D01*
X117413720Y-114122569D01*
X117240715Y-114295574D01*
X117223537Y-114284096D01*
X117001852Y-114240000D01*
X117001847Y-114240000D01*
X116927000Y-114225112D01*
X116852153Y-114240000D01*
X111723163Y-114240000D01*
X111657809Y-114142191D01*
X111447765Y-114001843D01*
X111200000Y-113952560D01*
X110400000Y-113952560D01*
X110152235Y-114001843D01*
X110000000Y-114103564D01*
X109847765Y-114001843D01*
X109600000Y-113952560D01*
X108800000Y-113952560D01*
X108552235Y-114001843D01*
X108453728Y-114067664D01*
X108205874Y-113965000D01*
X107794126Y-113965000D01*
X107413720Y-114122569D01*
X107198662Y-114337627D01*
X107074852Y-114313000D01*
X107074847Y-114313000D01*
X107000000Y-114298112D01*
X106925153Y-114313000D01*
X101501846Y-114313000D01*
X101426999Y-114298112D01*
X101352152Y-114313000D01*
X101352148Y-114313000D01*
X101130463Y-114357096D01*
X101047440Y-114412570D01*
X101047440Y-113800000D01*
X100998157Y-113552235D01*
X100857809Y-113342191D01*
X100782758Y-113292043D01*
X101484473Y-112590329D01*
X101547929Y-112547929D01*
X101715904Y-112296537D01*
X101760000Y-112074852D01*
X101760000Y-112074848D01*
X101774888Y-112000000D01*
X101760000Y-111925152D01*
X101760000Y-110814801D01*
X101814802Y-110760000D01*
X104296289Y-110760000D01*
X104413720Y-110877431D01*
X104794126Y-111035000D01*
X105205874Y-111035000D01*
X105586280Y-110877431D01*
X105877431Y-110586280D01*
X106035000Y-110205874D01*
X106035000Y-109794126D01*
X105913169Y-109500000D01*
X106035000Y-109205874D01*
X106035000Y-108794126D01*
X105913169Y-108500000D01*
X106035000Y-108205874D01*
X106035000Y-107794126D01*
X105877431Y-107413720D01*
X105586280Y-107122569D01*
X105205874Y-106965000D01*
X104794126Y-106965000D01*
X104413720Y-107122569D01*
X104296289Y-107240000D01*
X103703711Y-107240000D01*
X103586280Y-107122569D01*
X103205874Y-106965000D01*
X102794126Y-106965000D01*
X102413720Y-107122569D01*
X102122569Y-107413720D01*
X101965000Y-107794126D01*
X101965000Y-107965000D01*
X101794126Y-107965000D01*
X101413720Y-108122569D01*
X101122569Y-108413720D01*
X100965000Y-108794126D01*
X100965000Y-109205874D01*
X101042069Y-109391936D01*
X101016418Y-109409076D01*
X100952071Y-109452071D01*
X100909671Y-109515528D01*
X100760000Y-109665198D01*
X100760000Y-106723163D01*
X100857809Y-106657809D01*
X100998157Y-106447765D01*
X101047440Y-106200000D01*
X101047440Y-105400000D01*
X100998157Y-105152235D01*
X100896436Y-105000000D01*
X100998157Y-104847765D01*
X101047440Y-104600000D01*
X101047440Y-103800000D01*
X100998157Y-103552235D01*
X100932336Y-103453728D01*
X101035000Y-103205874D01*
X101035000Y-102794126D01*
X100877431Y-102413720D01*
X100704426Y-102240715D01*
X100715904Y-102223537D01*
X100760000Y-102001852D01*
X100760000Y-102001848D01*
X100774888Y-101927000D01*
X100760000Y-101852152D01*
X100760000Y-96723163D01*
X100857809Y-96657809D01*
X100998157Y-96447765D01*
X101047440Y-96200000D01*
X101047440Y-95400000D01*
X100998157Y-95152235D01*
X100896436Y-95000000D01*
X100998157Y-94847765D01*
X101047440Y-94600000D01*
X101047440Y-93800000D01*
X100998157Y-93552235D01*
X100932336Y-93453728D01*
X101035000Y-93205874D01*
X101035000Y-92794126D01*
X100877431Y-92413720D01*
X100662373Y-92198662D01*
X100687000Y-92074852D01*
X100687000Y-92074847D01*
X100701888Y-92000000D01*
X100687000Y-91925153D01*
X100687000Y-86501846D01*
X100701888Y-86426999D01*
X100687000Y-86352152D01*
X100687000Y-86352148D01*
X100642904Y-86130463D01*
X100587430Y-86047440D01*
X101200000Y-86047440D01*
X101447765Y-85998157D01*
X101546272Y-85932336D01*
X101794126Y-86035000D01*
X102205874Y-86035000D01*
X102586280Y-85877431D01*
X102759285Y-85704426D01*
X102776463Y-85715904D01*
X102998148Y-85760000D01*
X102998152Y-85760000D01*
X103073000Y-85774888D01*
X103147848Y-85760000D01*
X108276837Y-85760000D01*
X108342191Y-85857809D01*
X108552235Y-85998157D01*
X108800000Y-86047440D01*
X109600000Y-86047440D01*
X109847765Y-85998157D01*
X110000000Y-85896436D01*
X110152235Y-85998157D01*
X110400000Y-86047440D01*
X111200000Y-86047440D01*
X111447765Y-85998157D01*
X111546272Y-85932336D01*
X111794126Y-86035000D01*
X112205874Y-86035000D01*
X112586280Y-85877431D01*
X112759285Y-85704426D01*
X112776463Y-85715904D01*
X112998148Y-85760000D01*
X112998152Y-85760000D01*
X113073000Y-85774888D01*
X113147848Y-85760000D01*
X118276837Y-85760000D01*
X118342191Y-85857809D01*
X118552235Y-85998157D01*
X118800000Y-86047440D01*
X119600000Y-86047440D01*
X119847765Y-85998157D01*
X120000000Y-85896436D01*
X120152235Y-85998157D01*
X120400000Y-86047440D01*
X121200000Y-86047440D01*
X121447765Y-85998157D01*
X121546272Y-85932336D01*
X121794126Y-86035000D01*
X122205874Y-86035000D01*
X122586280Y-85877431D01*
X122759285Y-85704426D01*
X122776463Y-85715904D01*
X122998148Y-85760000D01*
X122998152Y-85760000D01*
X123073000Y-85774888D01*
X123147848Y-85760000D01*
X127296289Y-85760000D01*
X127413720Y-85877431D01*
X127794126Y-86035000D01*
X128205874Y-86035000D01*
X128453728Y-85932336D01*
X128552235Y-85998157D01*
X128800000Y-86047440D01*
X129600000Y-86047440D01*
X129847765Y-85998157D01*
X130000000Y-85896436D01*
X130152235Y-85998157D01*
X130400000Y-86047440D01*
X131200000Y-86047440D01*
X131447765Y-85998157D01*
X131546272Y-85932336D01*
X131794126Y-86035000D01*
X132205874Y-86035000D01*
X132586280Y-85877431D01*
X132877431Y-85586280D01*
X133035000Y-85205874D01*
X133035000Y-84794126D01*
X132877431Y-84413720D01*
X132586280Y-84122569D01*
X132205874Y-83965000D01*
X131794126Y-83965000D01*
X131546272Y-84067664D01*
X131447765Y-84001843D01*
X131200000Y-83952560D01*
X130400000Y-83952560D01*
X130152235Y-84001843D01*
X130000000Y-84103564D01*
X129847765Y-84001843D01*
X129600000Y-83952560D01*
X128800000Y-83952560D01*
X128552235Y-84001843D01*
X128453728Y-84067664D01*
X128205874Y-83965000D01*
X127794126Y-83965000D01*
X127413720Y-84122569D01*
X127296289Y-84240000D01*
X123387802Y-84240000D01*
X122663331Y-83515530D01*
X122620929Y-83452071D01*
X122369537Y-83284096D01*
X122147852Y-83240000D01*
X122147847Y-83240000D01*
X122073000Y-83225112D01*
X121998153Y-83240000D01*
X119624848Y-83240000D01*
X119550000Y-83225112D01*
X119475152Y-83240000D01*
X119475148Y-83240000D01*
X119301605Y-83274520D01*
X119253462Y-83284096D01*
X119178633Y-83334096D01*
X119002071Y-83452071D01*
X118959669Y-83515530D01*
X118715528Y-83759671D01*
X118652072Y-83802071D01*
X118491448Y-84042460D01*
X118342191Y-84142191D01*
X118276837Y-84240000D01*
X113387802Y-84240000D01*
X112663331Y-83515530D01*
X112620929Y-83452071D01*
X112369537Y-83284096D01*
X112147852Y-83240000D01*
X112147847Y-83240000D01*
X112073000Y-83225112D01*
X111998153Y-83240000D01*
X109624848Y-83240000D01*
X109550000Y-83225112D01*
X109475152Y-83240000D01*
X109475148Y-83240000D01*
X109301605Y-83274520D01*
X109253462Y-83284096D01*
X109178633Y-83334096D01*
X109002071Y-83452071D01*
X108959669Y-83515530D01*
X108715528Y-83759671D01*
X108652072Y-83802071D01*
X108491448Y-84042460D01*
X108342191Y-84142191D01*
X108276837Y-84240000D01*
X103387802Y-84240000D01*
X102663331Y-83515530D01*
X102620929Y-83452071D01*
X102369537Y-83284096D01*
X102147852Y-83240000D01*
X102147847Y-83240000D01*
X102073000Y-83225112D01*
X101998153Y-83240000D01*
X99624848Y-83240000D01*
X99550000Y-83225112D01*
X99475152Y-83240000D01*
X99475148Y-83240000D01*
X99301605Y-83274520D01*
X99253462Y-83284096D01*
X99178633Y-83334096D01*
X99002071Y-83452071D01*
X98959669Y-83515530D01*
X98715528Y-83759671D01*
X98652072Y-83802071D01*
X98491448Y-84042460D01*
X98342191Y-84142191D01*
X98201843Y-84352235D01*
X98152560Y-84600000D01*
X80710000Y-84600000D01*
X80710000Y-71007745D01*
X94171861Y-71007745D01*
X94245995Y-71253864D01*
X94783223Y-71446965D01*
X95353454Y-71419778D01*
X95754005Y-71253864D01*
X95828139Y-71007745D01*
X95000000Y-70179605D01*
X94171861Y-71007745D01*
X80710000Y-71007745D01*
X80710000Y-69783223D01*
X93553035Y-69783223D01*
X93580222Y-70353454D01*
X93746136Y-70754005D01*
X93992255Y-70828139D01*
X94820395Y-70000000D01*
X95179605Y-70000000D01*
X96007745Y-70828139D01*
X96055307Y-70813813D01*
X96101843Y-71047765D01*
X96242191Y-71257809D01*
X96452235Y-71398157D01*
X96700000Y-71447440D01*
X98300000Y-71447440D01*
X98547765Y-71398157D01*
X98757809Y-71257809D01*
X98898157Y-71047765D01*
X98947440Y-70800000D01*
X98947440Y-69200000D01*
X98898157Y-68952235D01*
X98757809Y-68742191D01*
X98547765Y-68601843D01*
X98300000Y-68552560D01*
X96700000Y-68552560D01*
X96452235Y-68601843D01*
X96242191Y-68742191D01*
X96101843Y-68952235D01*
X96055307Y-69186187D01*
X96007745Y-69171861D01*
X95179605Y-70000000D01*
X94820395Y-70000000D01*
X93992255Y-69171861D01*
X93746136Y-69245995D01*
X93553035Y-69783223D01*
X80710000Y-69783223D01*
X80710000Y-68992255D01*
X94171861Y-68992255D01*
X95000000Y-69820395D01*
X95828139Y-68992255D01*
X95754005Y-68746136D01*
X95216777Y-68553035D01*
X94646546Y-68580222D01*
X94245995Y-68746136D01*
X94171861Y-68992255D01*
X80710000Y-68992255D01*
X80710000Y-67500000D01*
X105597663Y-67500000D01*
X105615000Y-67587161D01*
X105615001Y-72412835D01*
X105597663Y-72500000D01*
X105666348Y-72845309D01*
X105812576Y-73064154D01*
X105812578Y-73064156D01*
X105861952Y-73138049D01*
X105935845Y-73187423D01*
X108312577Y-75564156D01*
X108361951Y-75638049D01*
X108435844Y-75687423D01*
X108435845Y-75687424D01*
X108654689Y-75833651D01*
X108654690Y-75833652D01*
X108912835Y-75885000D01*
X108912839Y-75885000D01*
X109000000Y-75902337D01*
X109087161Y-75885000D01*
X109931993Y-75885000D01*
X110294126Y-76035000D01*
X110705874Y-76035000D01*
X111086280Y-75877431D01*
X111377431Y-75586280D01*
X111535000Y-75205874D01*
X111535000Y-74794126D01*
X111413169Y-74500000D01*
X111535000Y-74205874D01*
X111535000Y-73897440D01*
X112895862Y-73897440D01*
X116562577Y-77564156D01*
X116611951Y-77638049D01*
X116685844Y-77687423D01*
X116685845Y-77687424D01*
X116796880Y-77761615D01*
X116904690Y-77833652D01*
X117162835Y-77885000D01*
X117162839Y-77885000D01*
X117249999Y-77902337D01*
X117337159Y-77885000D01*
X132633422Y-77885000D01*
X133115000Y-78366579D01*
X133115001Y-89931991D01*
X132965000Y-90294126D01*
X132965000Y-90705874D01*
X133115001Y-91068009D01*
X133115000Y-94837164D01*
X133115001Y-94837169D01*
X133115000Y-95883421D01*
X132895861Y-96102560D01*
X131500000Y-96102560D01*
X131252235Y-96151843D01*
X131042191Y-96292191D01*
X130901843Y-96502235D01*
X130852560Y-96750000D01*
X130852560Y-98265000D01*
X129572388Y-98265000D01*
X129500000Y-98250601D01*
X129427612Y-98265000D01*
X129213217Y-98307646D01*
X128970095Y-98470095D01*
X128807646Y-98713217D01*
X128750601Y-99000000D01*
X128765001Y-99072393D01*
X128765000Y-100927611D01*
X128750601Y-101000000D01*
X128807646Y-101286783D01*
X128970095Y-101529905D01*
X129213217Y-101692354D01*
X129500000Y-101749399D01*
X129572388Y-101735000D01*
X130852560Y-101735000D01*
X130852560Y-103250000D01*
X130901843Y-103497765D01*
X131042191Y-103707809D01*
X131252235Y-103848157D01*
X131500000Y-103897440D01*
X132895861Y-103897440D01*
X133115001Y-104116580D01*
X133115000Y-121633421D01*
X132633422Y-122115000D01*
X117337159Y-122115000D01*
X117249999Y-122097663D01*
X117162839Y-122115000D01*
X117162835Y-122115000D01*
X116904690Y-122166348D01*
X116904688Y-122166349D01*
X116904689Y-122166349D01*
X116685845Y-122312576D01*
X116685844Y-122312577D01*
X116611951Y-122361951D01*
X116562577Y-122435844D01*
X112895862Y-126102560D01*
X111535000Y-126102560D01*
X111535000Y-125794126D01*
X111413169Y-125500000D01*
X111535000Y-125205874D01*
X111535000Y-124794126D01*
X111377431Y-124413720D01*
X111086280Y-124122569D01*
X110705874Y-123965000D01*
X110294126Y-123965000D01*
X109931993Y-124115000D01*
X108587159Y-124115000D01*
X108499999Y-124097663D01*
X108412839Y-124115000D01*
X108412835Y-124115000D01*
X108154690Y-124166348D01*
X108154688Y-124166349D01*
X108154689Y-124166349D01*
X107935845Y-124312576D01*
X107935844Y-124312577D01*
X107861951Y-124361951D01*
X107812577Y-124435844D01*
X105935845Y-126312577D01*
X105861952Y-126361951D01*
X105812578Y-126435844D01*
X105812576Y-126435846D01*
X105666348Y-126654691D01*
X105597663Y-127000000D01*
X105615001Y-127087165D01*
X105615000Y-132912839D01*
X105597663Y-133000000D01*
X105615000Y-133087161D01*
X105615000Y-133087164D01*
X105666348Y-133345309D01*
X105861951Y-133638049D01*
X105935847Y-133687425D01*
X107812577Y-135564156D01*
X107861951Y-135638049D01*
X107935844Y-135687423D01*
X107935845Y-135687424D01*
X108017810Y-135742191D01*
X108154690Y-135833652D01*
X108412835Y-135885000D01*
X108412839Y-135885000D01*
X108499999Y-135902337D01*
X108587159Y-135885000D01*
X119662839Y-135885000D01*
X119750000Y-135902337D01*
X119837161Y-135885000D01*
X119837165Y-135885000D01*
X120095310Y-135833652D01*
X120388049Y-135638049D01*
X120437425Y-135564153D01*
X122104139Y-133897440D01*
X123500000Y-133897440D01*
X123747765Y-133848157D01*
X123957809Y-133707809D01*
X124098157Y-133497765D01*
X124147440Y-133250000D01*
X124147440Y-132535750D01*
X125865000Y-132535750D01*
X125865000Y-133376310D01*
X125961673Y-133609699D01*
X126140302Y-133788327D01*
X126373691Y-133885000D01*
X127214250Y-133885000D01*
X127373000Y-133726250D01*
X127373000Y-132377000D01*
X127627000Y-132377000D01*
X127627000Y-133726250D01*
X127785750Y-133885000D01*
X128626309Y-133885000D01*
X128859698Y-133788327D01*
X129038327Y-133609699D01*
X129135000Y-133376310D01*
X129135000Y-132535750D01*
X128976250Y-132377000D01*
X127627000Y-132377000D01*
X127373000Y-132377000D01*
X126023750Y-132377000D01*
X125865000Y-132535750D01*
X124147440Y-132535750D01*
X124147440Y-131735000D01*
X125865000Y-131735000D01*
X125865000Y-131964250D01*
X126023750Y-132123000D01*
X127373000Y-132123000D01*
X127373000Y-132103000D01*
X127627000Y-132103000D01*
X127627000Y-132123000D01*
X128976250Y-132123000D01*
X129135000Y-131964250D01*
X129135000Y-131735000D01*
X130427612Y-131735000D01*
X130500000Y-131749399D01*
X130572388Y-131735000D01*
X130786783Y-131692354D01*
X131029905Y-131529905D01*
X131192354Y-131286783D01*
X131249399Y-131000000D01*
X131235000Y-130927612D01*
X131235000Y-129072388D01*
X131249399Y-129000000D01*
X131192354Y-128713217D01*
X131029905Y-128470095D01*
X130786783Y-128307646D01*
X130572388Y-128265000D01*
X130500000Y-128250601D01*
X130427612Y-128265000D01*
X129135000Y-128265000D01*
X129135000Y-128035750D01*
X128976250Y-127877000D01*
X127627000Y-127877000D01*
X127627000Y-127897000D01*
X127373000Y-127897000D01*
X127373000Y-127877000D01*
X126023750Y-127877000D01*
X125865000Y-128035750D01*
X125865000Y-128265000D01*
X124147440Y-128265000D01*
X124147440Y-127354138D01*
X124877888Y-126623690D01*
X125865000Y-126623690D01*
X125865000Y-127464250D01*
X126023750Y-127623000D01*
X127373000Y-127623000D01*
X127373000Y-126273750D01*
X127627000Y-126273750D01*
X127627000Y-127623000D01*
X128976250Y-127623000D01*
X129135000Y-127464250D01*
X129135000Y-126623690D01*
X129038327Y-126390301D01*
X128859698Y-126211673D01*
X128626309Y-126115000D01*
X127785750Y-126115000D01*
X127627000Y-126273750D01*
X127373000Y-126273750D01*
X127214250Y-126115000D01*
X126373691Y-126115000D01*
X126140302Y-126211673D01*
X125961673Y-126390301D01*
X125865000Y-126623690D01*
X124877888Y-126623690D01*
X125616579Y-125885000D01*
X133912839Y-125885000D01*
X134000000Y-125902337D01*
X134087161Y-125885000D01*
X134087165Y-125885000D01*
X134345310Y-125833652D01*
X134638049Y-125638049D01*
X134687425Y-125564153D01*
X136564156Y-123687423D01*
X136638049Y-123638049D01*
X136695389Y-123552235D01*
X136795547Y-123402338D01*
X136833652Y-123345310D01*
X136885000Y-123087165D01*
X136885000Y-123087161D01*
X136902337Y-123000001D01*
X136885000Y-122912841D01*
X136885000Y-105366578D01*
X137366579Y-104885000D01*
X140662839Y-104885000D01*
X140750000Y-104902337D01*
X140837161Y-104885000D01*
X140837165Y-104885000D01*
X141095310Y-104833652D01*
X141388049Y-104638049D01*
X141437425Y-104564153D01*
X142104138Y-103897440D01*
X143500000Y-103897440D01*
X143747765Y-103848157D01*
X143957809Y-103707809D01*
X144098157Y-103497765D01*
X144147440Y-103250000D01*
X144147440Y-102535750D01*
X145865000Y-102535750D01*
X145865000Y-103376310D01*
X145961673Y-103609699D01*
X146140302Y-103788327D01*
X146373691Y-103885000D01*
X147214250Y-103885000D01*
X147373000Y-103726250D01*
X147373000Y-102377000D01*
X147627000Y-102377000D01*
X147627000Y-103726250D01*
X147785750Y-103885000D01*
X148626309Y-103885000D01*
X148859698Y-103788327D01*
X149038327Y-103609699D01*
X149135000Y-103376310D01*
X149135000Y-102535750D01*
X148976250Y-102377000D01*
X147627000Y-102377000D01*
X147373000Y-102377000D01*
X146023750Y-102377000D01*
X145865000Y-102535750D01*
X144147440Y-102535750D01*
X144147440Y-101735000D01*
X145865000Y-101735000D01*
X145865000Y-101964250D01*
X146023750Y-102123000D01*
X147373000Y-102123000D01*
X147373000Y-102103000D01*
X147627000Y-102103000D01*
X147627000Y-102123000D01*
X148976250Y-102123000D01*
X149135000Y-101964250D01*
X149135000Y-101735000D01*
X150427612Y-101735000D01*
X150500000Y-101749399D01*
X150572388Y-101735000D01*
X150786783Y-101692354D01*
X151029905Y-101529905D01*
X151192354Y-101286783D01*
X151249399Y-101000000D01*
X151235000Y-100927612D01*
X151235000Y-99072388D01*
X151249399Y-99000000D01*
X151192354Y-98713217D01*
X151029905Y-98470095D01*
X150786783Y-98307646D01*
X150572388Y-98265000D01*
X150500000Y-98250601D01*
X150427612Y-98265000D01*
X149135000Y-98265000D01*
X149135000Y-98035750D01*
X148976250Y-97877000D01*
X147627000Y-97877000D01*
X147627000Y-97897000D01*
X147373000Y-97897000D01*
X147373000Y-97877000D01*
X146023750Y-97877000D01*
X145865000Y-98035750D01*
X145865000Y-98265000D01*
X144147440Y-98265000D01*
X144147440Y-96750000D01*
X144122316Y-96623690D01*
X145865000Y-96623690D01*
X145865000Y-97464250D01*
X146023750Y-97623000D01*
X147373000Y-97623000D01*
X147373000Y-96273750D01*
X147627000Y-96273750D01*
X147627000Y-97623000D01*
X148976250Y-97623000D01*
X149135000Y-97464250D01*
X149135000Y-96623690D01*
X149038327Y-96390301D01*
X148859698Y-96211673D01*
X148626309Y-96115000D01*
X147785750Y-96115000D01*
X147627000Y-96273750D01*
X147373000Y-96273750D01*
X147214250Y-96115000D01*
X146373691Y-96115000D01*
X146140302Y-96211673D01*
X145961673Y-96390301D01*
X145865000Y-96623690D01*
X144122316Y-96623690D01*
X144098157Y-96502235D01*
X143957809Y-96292191D01*
X143747765Y-96151843D01*
X143500000Y-96102560D01*
X142104138Y-96102560D01*
X141437425Y-95435847D01*
X141388049Y-95361951D01*
X141095310Y-95166348D01*
X140837165Y-95115000D01*
X140837161Y-95115000D01*
X140750000Y-95097663D01*
X140662839Y-95115000D01*
X137366579Y-95115000D01*
X136885000Y-94633422D01*
X136885000Y-93535000D01*
X137205874Y-93535000D01*
X137568007Y-93385000D01*
X162931993Y-93385000D01*
X163294126Y-93535000D01*
X163705874Y-93535000D01*
X164086280Y-93377431D01*
X164377431Y-93086280D01*
X164535000Y-92705874D01*
X164535000Y-92294126D01*
X164413169Y-92000000D01*
X164535000Y-91705874D01*
X164535000Y-91294126D01*
X164377431Y-90913720D01*
X164363711Y-90900000D01*
X164377431Y-90886280D01*
X164535000Y-90505874D01*
X164535000Y-90094126D01*
X164377431Y-89713720D01*
X164086280Y-89422569D01*
X163705874Y-89265000D01*
X163294126Y-89265000D01*
X162913720Y-89422569D01*
X162721289Y-89615000D01*
X137568007Y-89615000D01*
X137205874Y-89465000D01*
X136885000Y-89465000D01*
X136885000Y-84794126D01*
X136965000Y-84794126D01*
X136965000Y-85205874D01*
X137122569Y-85586280D01*
X137413720Y-85877431D01*
X137794126Y-86035000D01*
X138205874Y-86035000D01*
X138453728Y-85932336D01*
X138552235Y-85998157D01*
X138800000Y-86047440D01*
X139600000Y-86047440D01*
X139847765Y-85998157D01*
X140000000Y-85896436D01*
X140152235Y-85998157D01*
X140400000Y-86047440D01*
X141200000Y-86047440D01*
X141447765Y-85998157D01*
X141546272Y-85932336D01*
X141794126Y-86035000D01*
X142205874Y-86035000D01*
X142586280Y-85877431D01*
X142759285Y-85704426D01*
X142776463Y-85715904D01*
X142998148Y-85760000D01*
X142998152Y-85760000D01*
X143073000Y-85774888D01*
X143147848Y-85760000D01*
X148276837Y-85760000D01*
X148342191Y-85857809D01*
X148552235Y-85998157D01*
X148800000Y-86047440D01*
X149600000Y-86047440D01*
X149847765Y-85998157D01*
X150000000Y-85896436D01*
X150152235Y-85998157D01*
X150400000Y-86047440D01*
X151200000Y-86047440D01*
X151447765Y-85998157D01*
X151546272Y-85932336D01*
X151794126Y-86035000D01*
X152205874Y-86035000D01*
X152586280Y-85877431D01*
X152759285Y-85704426D01*
X152776463Y-85715904D01*
X152998148Y-85760000D01*
X152998152Y-85760000D01*
X153073000Y-85774888D01*
X153147848Y-85760000D01*
X158276837Y-85760000D01*
X158342191Y-85857809D01*
X158552235Y-85998157D01*
X158800000Y-86047440D01*
X159600000Y-86047440D01*
X159847765Y-85998157D01*
X160000000Y-85896436D01*
X160152235Y-85998157D01*
X160400000Y-86047440D01*
X161200000Y-86047440D01*
X161447765Y-85998157D01*
X161546272Y-85932336D01*
X161794126Y-86035000D01*
X162205874Y-86035000D01*
X162586280Y-85877431D01*
X162877431Y-85586280D01*
X163035000Y-85205874D01*
X163035000Y-84794126D01*
X162877431Y-84413720D01*
X162586280Y-84122569D01*
X162205874Y-83965000D01*
X161794126Y-83965000D01*
X161546272Y-84067664D01*
X161447765Y-84001843D01*
X161200000Y-83952560D01*
X160400000Y-83952560D01*
X160285000Y-83975435D01*
X160285000Y-83794126D01*
X160127431Y-83413720D01*
X159836280Y-83122569D01*
X159455874Y-82965000D01*
X159044126Y-82965000D01*
X158663720Y-83122569D01*
X158372569Y-83413720D01*
X158215000Y-83794126D01*
X158215000Y-84205874D01*
X158229135Y-84240000D01*
X153387802Y-84240000D01*
X152663331Y-83515530D01*
X152620929Y-83452071D01*
X152369537Y-83284096D01*
X152147852Y-83240000D01*
X152147847Y-83240000D01*
X152073000Y-83225112D01*
X151998153Y-83240000D01*
X149624848Y-83240000D01*
X149550000Y-83225112D01*
X149475152Y-83240000D01*
X149475148Y-83240000D01*
X149301605Y-83274520D01*
X149253462Y-83284096D01*
X149178633Y-83334096D01*
X149002071Y-83452071D01*
X148959669Y-83515530D01*
X148715528Y-83759671D01*
X148652072Y-83802071D01*
X148491448Y-84042460D01*
X148342191Y-84142191D01*
X148276837Y-84240000D01*
X143387802Y-84240000D01*
X142663331Y-83515530D01*
X142620929Y-83452071D01*
X142369537Y-83284096D01*
X142147852Y-83240000D01*
X142147847Y-83240000D01*
X142073000Y-83225112D01*
X141998153Y-83240000D01*
X139624848Y-83240000D01*
X139550000Y-83225112D01*
X139475152Y-83240000D01*
X139475148Y-83240000D01*
X139301605Y-83274520D01*
X139253462Y-83284096D01*
X139178633Y-83334096D01*
X139002071Y-83452071D01*
X138959669Y-83515530D01*
X138715528Y-83759671D01*
X138652072Y-83802071D01*
X138491448Y-84042460D01*
X138453728Y-84067664D01*
X138205874Y-83965000D01*
X137794126Y-83965000D01*
X137413720Y-84122569D01*
X137122569Y-84413720D01*
X136965000Y-84794126D01*
X136885000Y-84794126D01*
X136885000Y-77087159D01*
X136902337Y-76999999D01*
X136885000Y-76912839D01*
X136885000Y-76912835D01*
X136833652Y-76654690D01*
X136638049Y-76361951D01*
X136564156Y-76312577D01*
X134687425Y-74435847D01*
X134638049Y-74361951D01*
X134345310Y-74166348D01*
X134087165Y-74115000D01*
X134087161Y-74115000D01*
X134000000Y-74097663D01*
X133912839Y-74115000D01*
X125616579Y-74115000D01*
X124147440Y-72645862D01*
X124147440Y-72535750D01*
X125865000Y-72535750D01*
X125865000Y-73376310D01*
X125961673Y-73609699D01*
X126140302Y-73788327D01*
X126373691Y-73885000D01*
X127214250Y-73885000D01*
X127373000Y-73726250D01*
X127373000Y-72377000D01*
X127627000Y-72377000D01*
X127627000Y-73726250D01*
X127785750Y-73885000D01*
X128626309Y-73885000D01*
X128859698Y-73788327D01*
X129038327Y-73609699D01*
X129135000Y-73376310D01*
X129135000Y-72535750D01*
X128976250Y-72377000D01*
X127627000Y-72377000D01*
X127373000Y-72377000D01*
X126023750Y-72377000D01*
X125865000Y-72535750D01*
X124147440Y-72535750D01*
X124147440Y-71735000D01*
X125865000Y-71735000D01*
X125865000Y-71964250D01*
X126023750Y-72123000D01*
X127373000Y-72123000D01*
X127373000Y-72103000D01*
X127627000Y-72103000D01*
X127627000Y-72123000D01*
X128976250Y-72123000D01*
X129135000Y-71964250D01*
X129135000Y-71735000D01*
X130427612Y-71735000D01*
X130500000Y-71749399D01*
X130572388Y-71735000D01*
X130786783Y-71692354D01*
X131029905Y-71529905D01*
X131192354Y-71286783D01*
X131249399Y-71000000D01*
X131235000Y-70927612D01*
X131235000Y-69238000D01*
X146090560Y-69238000D01*
X146090560Y-70762000D01*
X146139843Y-71009765D01*
X146280191Y-71219809D01*
X146490235Y-71360157D01*
X146738000Y-71409440D01*
X148262000Y-71409440D01*
X148509765Y-71360157D01*
X148719809Y-71219809D01*
X148860157Y-71009765D01*
X148909440Y-70762000D01*
X148909440Y-69722119D01*
X156103000Y-69722119D01*
X156103000Y-70277881D01*
X156315680Y-70791337D01*
X156708663Y-71184320D01*
X157222119Y-71397000D01*
X157777881Y-71397000D01*
X158291337Y-71184320D01*
X158684320Y-70791337D01*
X158897000Y-70277881D01*
X158897000Y-69722119D01*
X158684320Y-69208663D01*
X158291337Y-68815680D01*
X157777881Y-68603000D01*
X157222119Y-68603000D01*
X156708663Y-68815680D01*
X156315680Y-69208663D01*
X156103000Y-69722119D01*
X148909440Y-69722119D01*
X148909440Y-69238000D01*
X148860157Y-68990235D01*
X148719809Y-68780191D01*
X148509765Y-68639843D01*
X148262000Y-68590560D01*
X146738000Y-68590560D01*
X146490235Y-68639843D01*
X146280191Y-68780191D01*
X146139843Y-68990235D01*
X146090560Y-69238000D01*
X131235000Y-69238000D01*
X131235000Y-69072388D01*
X131249399Y-69000000D01*
X131192354Y-68713217D01*
X131029905Y-68470095D01*
X130786783Y-68307646D01*
X130572388Y-68265000D01*
X130500000Y-68250601D01*
X130427612Y-68265000D01*
X129135000Y-68265000D01*
X129135000Y-68035750D01*
X128976250Y-67877000D01*
X127627000Y-67877000D01*
X127627000Y-67897000D01*
X127373000Y-67897000D01*
X127373000Y-67877000D01*
X126023750Y-67877000D01*
X125865000Y-68035750D01*
X125865000Y-68265000D01*
X124147440Y-68265000D01*
X124147440Y-66750000D01*
X124122316Y-66623690D01*
X125865000Y-66623690D01*
X125865000Y-67464250D01*
X126023750Y-67623000D01*
X127373000Y-67623000D01*
X127373000Y-66273750D01*
X127627000Y-66273750D01*
X127627000Y-67623000D01*
X128976250Y-67623000D01*
X129135000Y-67464250D01*
X129135000Y-66623690D01*
X129038327Y-66390301D01*
X128859698Y-66211673D01*
X128626309Y-66115000D01*
X127785750Y-66115000D01*
X127627000Y-66273750D01*
X127373000Y-66273750D01*
X127214250Y-66115000D01*
X126373691Y-66115000D01*
X126140302Y-66211673D01*
X125961673Y-66390301D01*
X125865000Y-66623690D01*
X124122316Y-66623690D01*
X124098157Y-66502235D01*
X123957809Y-66292191D01*
X123747765Y-66151843D01*
X123500000Y-66102560D01*
X122104139Y-66102560D01*
X121001578Y-65000000D01*
X121446147Y-64555431D01*
X167765000Y-64555431D01*
X167765000Y-65444569D01*
X168105259Y-66266026D01*
X168733974Y-66894741D01*
X169555431Y-67235000D01*
X170444569Y-67235000D01*
X171266026Y-66894741D01*
X171894741Y-66266026D01*
X172235000Y-65444569D01*
X172235000Y-64555431D01*
X171894741Y-63733974D01*
X171266026Y-63105259D01*
X170444569Y-62765000D01*
X169555431Y-62765000D01*
X168733974Y-63105259D01*
X168105259Y-63733974D01*
X167765000Y-64555431D01*
X121446147Y-64555431D01*
X121564156Y-64437423D01*
X121638049Y-64388049D01*
X121712858Y-64276091D01*
X121833652Y-64095310D01*
X121885000Y-63837165D01*
X121885000Y-63837161D01*
X121902337Y-63750000D01*
X121885000Y-63662839D01*
X121885000Y-61289841D01*
X121990235Y-61360157D01*
X122238000Y-61409440D01*
X123762000Y-61409440D01*
X124009765Y-61360157D01*
X124219809Y-61219809D01*
X124360157Y-61009765D01*
X124409440Y-60762000D01*
X124409440Y-59238000D01*
X124391936Y-59150000D01*
X131002560Y-59150000D01*
X131002560Y-60850000D01*
X131051843Y-61097765D01*
X131192191Y-61307809D01*
X131402235Y-61448157D01*
X131650000Y-61497440D01*
X133350000Y-61497440D01*
X133597765Y-61448157D01*
X133807809Y-61307809D01*
X133948157Y-61097765D01*
X133957184Y-61052381D01*
X133969375Y-61070625D01*
X134460582Y-61398839D01*
X134893744Y-61485000D01*
X135186256Y-61485000D01*
X135619418Y-61398839D01*
X136110625Y-61070625D01*
X136438839Y-60579418D01*
X136554092Y-60000000D01*
X136438839Y-59420582D01*
X136110625Y-58929375D01*
X135619418Y-58601161D01*
X135186256Y-58515000D01*
X134893744Y-58515000D01*
X134460582Y-58601161D01*
X133969375Y-58929375D01*
X133957184Y-58947619D01*
X133948157Y-58902235D01*
X133807809Y-58692191D01*
X133597765Y-58551843D01*
X133350000Y-58502560D01*
X131650000Y-58502560D01*
X131402235Y-58551843D01*
X131192191Y-58692191D01*
X131051843Y-58902235D01*
X131002560Y-59150000D01*
X124391936Y-59150000D01*
X124360157Y-58990235D01*
X124219809Y-58780191D01*
X124009765Y-58639843D01*
X123762000Y-58590560D01*
X122238000Y-58590560D01*
X121990235Y-58639843D01*
X121780191Y-58780191D01*
X121764034Y-58804371D01*
X121277881Y-58603000D01*
X120722119Y-58603000D01*
X120208663Y-58815680D01*
X120000000Y-59024343D01*
X119791337Y-58815680D01*
X119277881Y-58603000D01*
X118722119Y-58603000D01*
X118208663Y-58815680D01*
X117815680Y-59208663D01*
X117705894Y-59473711D01*
X117179605Y-60000000D01*
X117705894Y-60526289D01*
X117815680Y-60791337D01*
X118208663Y-61184320D01*
X118722119Y-61397000D01*
X119277881Y-61397000D01*
X119791337Y-61184320D01*
X120000000Y-60975657D01*
X120115000Y-61090657D01*
X120115001Y-63383420D01*
X119383422Y-64115000D01*
X109087161Y-64115000D01*
X109000000Y-64097663D01*
X108912839Y-64115000D01*
X108912835Y-64115000D01*
X108654690Y-64166348D01*
X108435845Y-64312576D01*
X108435844Y-64312577D01*
X108361951Y-64361951D01*
X108312577Y-64435844D01*
X105935847Y-66812575D01*
X105861951Y-66861951D01*
X105666348Y-67154691D01*
X105615000Y-67412836D01*
X105615000Y-67412839D01*
X105597663Y-67500000D01*
X80710000Y-67500000D01*
X80710000Y-65294090D01*
X81448659Y-64555431D01*
X87765000Y-64555431D01*
X87765000Y-65444569D01*
X88105259Y-66266026D01*
X88733974Y-66894741D01*
X89555431Y-67235000D01*
X90444569Y-67235000D01*
X91266026Y-66894741D01*
X91894741Y-66266026D01*
X92235000Y-65444569D01*
X92235000Y-64555431D01*
X91894741Y-63733974D01*
X91266026Y-63105259D01*
X90444569Y-62765000D01*
X89555431Y-62765000D01*
X88733974Y-63105259D01*
X88105259Y-63733974D01*
X87765000Y-64555431D01*
X81448659Y-64555431D01*
X85647198Y-60356892D01*
X97938514Y-60356892D01*
X98184817Y-60881358D01*
X98613076Y-61271645D01*
X99023110Y-61441476D01*
X99253000Y-61320155D01*
X99253000Y-60127000D01*
X98059181Y-60127000D01*
X97938514Y-60356892D01*
X85647198Y-60356892D01*
X86360982Y-59643108D01*
X97938514Y-59643108D01*
X98059181Y-59873000D01*
X99253000Y-59873000D01*
X99253000Y-58679845D01*
X99507000Y-58679845D01*
X99507000Y-59873000D01*
X99527000Y-59873000D01*
X99527000Y-60127000D01*
X99507000Y-60127000D01*
X99507000Y-61320155D01*
X99736890Y-61441476D01*
X100146924Y-61271645D01*
X100575183Y-60881358D01*
X100636157Y-60751522D01*
X100849375Y-61070625D01*
X101340582Y-61398839D01*
X101773744Y-61485000D01*
X102066256Y-61485000D01*
X102499418Y-61398839D01*
X102990625Y-61070625D01*
X103190000Y-60772239D01*
X103389375Y-61070625D01*
X103880582Y-61398839D01*
X104313744Y-61485000D01*
X104606256Y-61485000D01*
X105039418Y-61398839D01*
X105530625Y-61070625D01*
X105542816Y-61052381D01*
X105551843Y-61097765D01*
X105692191Y-61307809D01*
X105902235Y-61448157D01*
X106150000Y-61497440D01*
X107850000Y-61497440D01*
X108097765Y-61448157D01*
X108307809Y-61307809D01*
X108448157Y-61097765D01*
X108471539Y-60980213D01*
X116199392Y-60980213D01*
X116268857Y-61222397D01*
X116792302Y-61409144D01*
X117347368Y-61381362D01*
X117731143Y-61222397D01*
X117800608Y-60980213D01*
X117000000Y-60179605D01*
X116199392Y-60980213D01*
X108471539Y-60980213D01*
X108497440Y-60850000D01*
X108497440Y-59792302D01*
X115590856Y-59792302D01*
X115618638Y-60347368D01*
X115777603Y-60731143D01*
X116019787Y-60800608D01*
X116820395Y-60000000D01*
X116019787Y-59199392D01*
X115777603Y-59268857D01*
X115590856Y-59792302D01*
X108497440Y-59792302D01*
X108497440Y-59150000D01*
X108471540Y-59019787D01*
X116199392Y-59019787D01*
X117000000Y-59820395D01*
X117800608Y-59019787D01*
X117731143Y-58777603D01*
X117207698Y-58590856D01*
X116652632Y-58618638D01*
X116268857Y-58777603D01*
X116199392Y-59019787D01*
X108471540Y-59019787D01*
X108448157Y-58902235D01*
X108307809Y-58692191D01*
X108097765Y-58551843D01*
X107850000Y-58502560D01*
X106150000Y-58502560D01*
X105902235Y-58551843D01*
X105692191Y-58692191D01*
X105551843Y-58902235D01*
X105542816Y-58947619D01*
X105530625Y-58929375D01*
X105039418Y-58601161D01*
X104606256Y-58515000D01*
X104313744Y-58515000D01*
X103880582Y-58601161D01*
X103389375Y-58929375D01*
X103190000Y-59227761D01*
X102990625Y-58929375D01*
X102499418Y-58601161D01*
X102066256Y-58515000D01*
X101773744Y-58515000D01*
X101340582Y-58601161D01*
X100849375Y-58929375D01*
X100636157Y-59248478D01*
X100575183Y-59118642D01*
X100146924Y-58728355D01*
X99736890Y-58558524D01*
X99507000Y-58679845D01*
X99253000Y-58679845D01*
X99023110Y-58558524D01*
X98613076Y-58728355D01*
X98184817Y-59118642D01*
X97938514Y-59643108D01*
X86360982Y-59643108D01*
X90294092Y-55710000D01*
X169705910Y-55710000D01*
X179290001Y-65294093D01*
G04 #@! TD*
M02*
