G04 #@! TF.GenerationSoftware,KiCad,Pcbnew,(5.0.2)-1*
G04 #@! TF.CreationDate,2019-02-13T23:32:08+09:00*
G04 #@! TF.ProjectId,Tree,54726565-2e6b-4696-9361-645f70636258,rev?*
G04 #@! TF.SameCoordinates,Original*
G04 #@! TF.FileFunction,Soldermask,Bot*
G04 #@! TF.FilePolarity,Negative*
%FSLAX46Y46*%
G04 Gerber Fmt 4.6, Leading zero omitted, Abs format (unit mm)*
G04 Created by KiCad (PCBNEW (5.0.2)-1) date 2019/02/13 23:32:08*
%MOMM*%
%LPD*%
G01*
G04 APERTURE LIST*
%ADD10C,0.100000*%
G04 APERTURE END LIST*
D10*
G36*
X138451000Y-152751000D02*
X136549000Y-152751000D01*
X136549000Y-149249000D01*
X138451000Y-149249000D01*
X138451000Y-152751000D01*
X138451000Y-152751000D01*
G37*
G36*
X133451000Y-152751000D02*
X131549000Y-152751000D01*
X131549000Y-149249000D01*
X133451000Y-149249000D01*
X133451000Y-152751000D01*
X133451000Y-152751000D01*
G37*
G36*
X128451000Y-152751000D02*
X126549000Y-152751000D01*
X126549000Y-149249000D01*
X128451000Y-149249000D01*
X128451000Y-152751000D01*
X128451000Y-152751000D01*
G37*
G36*
X123451000Y-152751000D02*
X121549000Y-152751000D01*
X121549000Y-149249000D01*
X123451000Y-149249000D01*
X123451000Y-152751000D01*
X123451000Y-152751000D01*
G37*
G36*
X129651000Y-147451000D02*
X128749000Y-147451000D01*
X128749000Y-146549000D01*
X129651000Y-146549000D01*
X129651000Y-147451000D01*
X129651000Y-147451000D01*
G37*
G36*
X131251000Y-147451000D02*
X130349000Y-147451000D01*
X130349000Y-146549000D01*
X131251000Y-146549000D01*
X131251000Y-147451000D01*
X131251000Y-147451000D01*
G37*
G36*
X135751000Y-143606000D02*
X133649000Y-143606000D01*
X133649000Y-142904000D01*
X135751000Y-142904000D01*
X135751000Y-143606000D01*
X135751000Y-143606000D01*
G37*
G36*
X126351000Y-143606000D02*
X124249000Y-143606000D01*
X124249000Y-142904000D01*
X126351000Y-142904000D01*
X126351000Y-143606000D01*
X126351000Y-143606000D01*
G37*
G36*
X135751000Y-142336000D02*
X133649000Y-142336000D01*
X133649000Y-141634000D01*
X135751000Y-141634000D01*
X135751000Y-142336000D01*
X135751000Y-142336000D01*
G37*
G36*
X126351000Y-142336000D02*
X124249000Y-142336000D01*
X124249000Y-141634000D01*
X126351000Y-141634000D01*
X126351000Y-142336000D01*
X126351000Y-142336000D01*
G37*
G36*
X126351000Y-141066000D02*
X124249000Y-141066000D01*
X124249000Y-140364000D01*
X126351000Y-140364000D01*
X126351000Y-141066000D01*
X126351000Y-141066000D01*
G37*
G36*
X135751000Y-141066000D02*
X133649000Y-141066000D01*
X133649000Y-140364000D01*
X135751000Y-140364000D01*
X135751000Y-141066000D01*
X135751000Y-141066000D01*
G37*
G36*
X126351000Y-139796000D02*
X124249000Y-139796000D01*
X124249000Y-139094000D01*
X126351000Y-139094000D01*
X126351000Y-139796000D01*
X126351000Y-139796000D01*
G37*
G36*
X135751000Y-139796000D02*
X133649000Y-139796000D01*
X133649000Y-139094000D01*
X135751000Y-139094000D01*
X135751000Y-139796000D01*
X135751000Y-139796000D01*
G37*
G36*
X135751000Y-138526000D02*
X133649000Y-138526000D01*
X133649000Y-137824000D01*
X135751000Y-137824000D01*
X135751000Y-138526000D01*
X135751000Y-138526000D01*
G37*
G36*
X126351000Y-138526000D02*
X124249000Y-138526000D01*
X124249000Y-137824000D01*
X126351000Y-137824000D01*
X126351000Y-138526000D01*
X126351000Y-138526000D01*
G37*
G36*
X135751000Y-137256000D02*
X133649000Y-137256000D01*
X133649000Y-136554000D01*
X135751000Y-136554000D01*
X135751000Y-137256000D01*
X135751000Y-137256000D01*
G37*
G36*
X126351000Y-137256000D02*
X124249000Y-137256000D01*
X124249000Y-136554000D01*
X126351000Y-136554000D01*
X126351000Y-137256000D01*
X126351000Y-137256000D01*
G37*
G36*
X126351000Y-135986000D02*
X124249000Y-135986000D01*
X124249000Y-135284000D01*
X126351000Y-135284000D01*
X126351000Y-135986000D01*
X126351000Y-135986000D01*
G37*
G36*
X135751000Y-135986000D02*
X133649000Y-135986000D01*
X133649000Y-135284000D01*
X135751000Y-135284000D01*
X135751000Y-135986000D01*
X135751000Y-135986000D01*
G37*
G36*
X135751000Y-134716000D02*
X133649000Y-134716000D01*
X133649000Y-134014000D01*
X135751000Y-134014000D01*
X135751000Y-134716000D01*
X135751000Y-134716000D01*
G37*
G36*
X126351000Y-134716000D02*
X124249000Y-134716000D01*
X124249000Y-134014000D01*
X126351000Y-134014000D01*
X126351000Y-134716000D01*
X126351000Y-134716000D01*
G37*
G36*
X135751000Y-133446000D02*
X133649000Y-133446000D01*
X133649000Y-132744000D01*
X135751000Y-132744000D01*
X135751000Y-133446000D01*
X135751000Y-133446000D01*
G37*
G36*
X126351000Y-133446000D02*
X124249000Y-133446000D01*
X124249000Y-132744000D01*
X126351000Y-132744000D01*
X126351000Y-133446000D01*
X126351000Y-133446000D01*
G37*
G36*
X135751000Y-132176000D02*
X133649000Y-132176000D01*
X133649000Y-131474000D01*
X135751000Y-131474000D01*
X135751000Y-132176000D01*
X135751000Y-132176000D01*
G37*
G36*
X126351000Y-132176000D02*
X124249000Y-132176000D01*
X124249000Y-131474000D01*
X126351000Y-131474000D01*
X126351000Y-132176000D01*
X126351000Y-132176000D01*
G37*
G36*
X135751000Y-130906000D02*
X133649000Y-130906000D01*
X133649000Y-130204000D01*
X135751000Y-130204000D01*
X135751000Y-130906000D01*
X135751000Y-130906000D01*
G37*
G36*
X126351000Y-130906000D02*
X124249000Y-130906000D01*
X124249000Y-130204000D01*
X126351000Y-130204000D01*
X126351000Y-130906000D01*
X126351000Y-130906000D01*
G37*
G36*
X126351000Y-129636000D02*
X124249000Y-129636000D01*
X124249000Y-128934000D01*
X126351000Y-128934000D01*
X126351000Y-129636000D01*
X126351000Y-129636000D01*
G37*
G36*
X135751000Y-129636000D02*
X133649000Y-129636000D01*
X133649000Y-128934000D01*
X135751000Y-128934000D01*
X135751000Y-129636000D01*
X135751000Y-129636000D01*
G37*
G36*
X126351000Y-128366000D02*
X124249000Y-128366000D01*
X124249000Y-127664000D01*
X126351000Y-127664000D01*
X126351000Y-128366000D01*
X126351000Y-128366000D01*
G37*
G36*
X135751000Y-128366000D02*
X133649000Y-128366000D01*
X133649000Y-127664000D01*
X135751000Y-127664000D01*
X135751000Y-128366000D01*
X135751000Y-128366000D01*
G37*
G36*
X126351000Y-127096000D02*
X124249000Y-127096000D01*
X124249000Y-126394000D01*
X126351000Y-126394000D01*
X126351000Y-127096000D01*
X126351000Y-127096000D01*
G37*
G36*
X135751000Y-127096000D02*
X133649000Y-127096000D01*
X133649000Y-126394000D01*
X135751000Y-126394000D01*
X135751000Y-127096000D01*
X135751000Y-127096000D01*
G37*
G36*
X127762198Y-117099954D02*
X127774450Y-117100556D01*
X127792869Y-117100556D01*
X127815149Y-117102750D01*
X127899236Y-117119476D01*
X127920655Y-117125974D01*
X127999871Y-117158785D01*
X128019607Y-117169335D01*
X128090897Y-117216969D01*
X128108208Y-117231176D01*
X128168824Y-117291792D01*
X128183031Y-117309103D01*
X128230665Y-117380393D01*
X128241215Y-117400129D01*
X128274026Y-117479345D01*
X128280524Y-117500764D01*
X128297250Y-117584851D01*
X128299444Y-117607131D01*
X128299444Y-117625550D01*
X128300046Y-117637802D01*
X128301852Y-117656140D01*
X128301852Y-118143860D01*
X128300263Y-118159999D01*
X128297347Y-118169611D01*
X128292612Y-118178469D01*
X128286237Y-118186237D01*
X128273798Y-118196446D01*
X128263432Y-118203372D01*
X128246105Y-118220698D01*
X128232490Y-118241073D01*
X128223112Y-118263711D01*
X128218331Y-118287745D01*
X128218331Y-118312249D01*
X128223111Y-118336283D01*
X128232487Y-118358922D01*
X128246101Y-118379297D01*
X128263427Y-118396624D01*
X128273796Y-118403552D01*
X128286237Y-118413763D01*
X128292612Y-118421531D01*
X128297347Y-118430389D01*
X128300263Y-118440001D01*
X128301852Y-118456140D01*
X128301852Y-118943861D01*
X128300046Y-118962198D01*
X128299444Y-118974450D01*
X128299444Y-118992869D01*
X128297250Y-119015149D01*
X128280524Y-119099236D01*
X128274026Y-119120655D01*
X128241215Y-119199871D01*
X128230665Y-119219607D01*
X128183031Y-119290897D01*
X128168824Y-119308208D01*
X128108208Y-119368824D01*
X128090897Y-119383031D01*
X128019607Y-119430665D01*
X127999871Y-119441215D01*
X127920655Y-119474026D01*
X127899236Y-119480524D01*
X127815149Y-119497250D01*
X127792869Y-119499444D01*
X127774450Y-119499444D01*
X127762198Y-119500046D01*
X127743861Y-119501852D01*
X127256139Y-119501852D01*
X127237802Y-119500046D01*
X127225550Y-119499444D01*
X127207131Y-119499444D01*
X127184851Y-119497250D01*
X127100764Y-119480524D01*
X127079345Y-119474026D01*
X127000129Y-119441215D01*
X126980393Y-119430665D01*
X126909103Y-119383031D01*
X126891792Y-119368824D01*
X126831176Y-119308208D01*
X126816969Y-119290897D01*
X126769335Y-119219607D01*
X126758785Y-119199871D01*
X126725974Y-119120655D01*
X126719476Y-119099236D01*
X126702750Y-119015149D01*
X126700556Y-118992869D01*
X126700556Y-118974450D01*
X126699954Y-118962198D01*
X126698148Y-118943861D01*
X126698148Y-118456140D01*
X126699737Y-118440001D01*
X126702653Y-118430389D01*
X126707388Y-118421531D01*
X126713763Y-118413763D01*
X126726202Y-118403554D01*
X126736568Y-118396628D01*
X126753895Y-118379302D01*
X126767510Y-118358927D01*
X126776888Y-118336289D01*
X126781669Y-118312255D01*
X126781669Y-118287751D01*
X126776889Y-118263717D01*
X126767513Y-118241078D01*
X126753899Y-118220703D01*
X126736573Y-118203376D01*
X126726204Y-118196448D01*
X126713763Y-118186237D01*
X126707388Y-118178469D01*
X126702653Y-118169611D01*
X126699737Y-118159999D01*
X126698148Y-118143860D01*
X126698148Y-117656140D01*
X126699954Y-117637802D01*
X126700556Y-117625550D01*
X126700556Y-117607131D01*
X126702750Y-117584851D01*
X126719476Y-117500764D01*
X126725974Y-117479345D01*
X126758785Y-117400129D01*
X126769335Y-117380393D01*
X126816969Y-117309103D01*
X126831176Y-117291792D01*
X126891792Y-117231176D01*
X126909103Y-117216969D01*
X126980393Y-117169335D01*
X127000129Y-117158785D01*
X127079345Y-117125974D01*
X127100764Y-117119476D01*
X127184851Y-117102750D01*
X127207131Y-117100556D01*
X127225550Y-117100556D01*
X127237802Y-117099954D01*
X127256140Y-117098148D01*
X127743860Y-117098148D01*
X127762198Y-117099954D01*
X127762198Y-117099954D01*
G37*
G36*
X132762198Y-117099954D02*
X132774450Y-117100556D01*
X132792869Y-117100556D01*
X132815149Y-117102750D01*
X132899236Y-117119476D01*
X132920655Y-117125974D01*
X132999871Y-117158785D01*
X133019607Y-117169335D01*
X133090897Y-117216969D01*
X133108208Y-117231176D01*
X133168824Y-117291792D01*
X133183031Y-117309103D01*
X133230665Y-117380393D01*
X133241215Y-117400129D01*
X133274026Y-117479345D01*
X133280524Y-117500764D01*
X133297250Y-117584851D01*
X133299444Y-117607131D01*
X133299444Y-117625550D01*
X133300046Y-117637802D01*
X133301852Y-117656140D01*
X133301852Y-118143860D01*
X133300263Y-118159999D01*
X133297347Y-118169611D01*
X133292612Y-118178469D01*
X133286237Y-118186237D01*
X133273798Y-118196446D01*
X133263432Y-118203372D01*
X133246105Y-118220698D01*
X133232490Y-118241073D01*
X133223112Y-118263711D01*
X133218331Y-118287745D01*
X133218331Y-118312249D01*
X133223111Y-118336283D01*
X133232487Y-118358922D01*
X133246101Y-118379297D01*
X133263427Y-118396624D01*
X133273796Y-118403552D01*
X133286237Y-118413763D01*
X133292612Y-118421531D01*
X133297347Y-118430389D01*
X133300263Y-118440001D01*
X133301852Y-118456140D01*
X133301852Y-118943861D01*
X133300046Y-118962198D01*
X133299444Y-118974450D01*
X133299444Y-118992869D01*
X133297250Y-119015149D01*
X133280524Y-119099236D01*
X133274026Y-119120655D01*
X133241215Y-119199871D01*
X133230665Y-119219607D01*
X133183031Y-119290897D01*
X133168824Y-119308208D01*
X133108208Y-119368824D01*
X133090897Y-119383031D01*
X133019607Y-119430665D01*
X132999871Y-119441215D01*
X132920655Y-119474026D01*
X132899236Y-119480524D01*
X132815149Y-119497250D01*
X132792869Y-119499444D01*
X132774450Y-119499444D01*
X132762198Y-119500046D01*
X132743861Y-119501852D01*
X132256139Y-119501852D01*
X132237802Y-119500046D01*
X132225550Y-119499444D01*
X132207131Y-119499444D01*
X132184851Y-119497250D01*
X132100764Y-119480524D01*
X132079345Y-119474026D01*
X132000129Y-119441215D01*
X131980393Y-119430665D01*
X131909103Y-119383031D01*
X131891792Y-119368824D01*
X131831176Y-119308208D01*
X131816969Y-119290897D01*
X131769335Y-119219607D01*
X131758785Y-119199871D01*
X131725974Y-119120655D01*
X131719476Y-119099236D01*
X131702750Y-119015149D01*
X131700556Y-118992869D01*
X131700556Y-118974450D01*
X131699954Y-118962198D01*
X131698148Y-118943861D01*
X131698148Y-118456140D01*
X131699737Y-118440001D01*
X131702653Y-118430389D01*
X131707388Y-118421531D01*
X131713763Y-118413763D01*
X131726202Y-118403554D01*
X131736568Y-118396628D01*
X131753895Y-118379302D01*
X131767510Y-118358927D01*
X131776888Y-118336289D01*
X131781669Y-118312255D01*
X131781669Y-118287751D01*
X131776889Y-118263717D01*
X131767513Y-118241078D01*
X131753899Y-118220703D01*
X131736573Y-118203376D01*
X131726204Y-118196448D01*
X131713763Y-118186237D01*
X131707388Y-118178469D01*
X131702653Y-118169611D01*
X131699737Y-118159999D01*
X131698148Y-118143860D01*
X131698148Y-117656140D01*
X131699954Y-117637802D01*
X131700556Y-117625550D01*
X131700556Y-117607131D01*
X131702750Y-117584851D01*
X131719476Y-117500764D01*
X131725974Y-117479345D01*
X131758785Y-117400129D01*
X131769335Y-117380393D01*
X131816969Y-117309103D01*
X131831176Y-117291792D01*
X131891792Y-117231176D01*
X131909103Y-117216969D01*
X131980393Y-117169335D01*
X132000129Y-117158785D01*
X132079345Y-117125974D01*
X132100764Y-117119476D01*
X132184851Y-117102750D01*
X132207131Y-117100556D01*
X132225550Y-117100556D01*
X132237802Y-117099954D01*
X132256140Y-117098148D01*
X132743860Y-117098148D01*
X132762198Y-117099954D01*
X132762198Y-117099954D01*
G37*
G36*
X130262198Y-117099954D02*
X130274450Y-117100556D01*
X130292869Y-117100556D01*
X130315149Y-117102750D01*
X130399236Y-117119476D01*
X130420655Y-117125974D01*
X130499871Y-117158785D01*
X130519607Y-117169335D01*
X130590897Y-117216969D01*
X130608208Y-117231176D01*
X130668824Y-117291792D01*
X130683031Y-117309103D01*
X130730665Y-117380393D01*
X130741215Y-117400129D01*
X130774026Y-117479345D01*
X130780524Y-117500764D01*
X130797250Y-117584851D01*
X130799444Y-117607131D01*
X130799444Y-117625550D01*
X130800046Y-117637802D01*
X130801852Y-117656140D01*
X130801852Y-118143860D01*
X130800263Y-118159999D01*
X130797347Y-118169611D01*
X130792612Y-118178469D01*
X130786237Y-118186237D01*
X130773798Y-118196446D01*
X130763432Y-118203372D01*
X130746105Y-118220698D01*
X130732490Y-118241073D01*
X130723112Y-118263711D01*
X130718331Y-118287745D01*
X130718331Y-118312249D01*
X130723111Y-118336283D01*
X130732487Y-118358922D01*
X130746101Y-118379297D01*
X130763427Y-118396624D01*
X130773796Y-118403552D01*
X130786237Y-118413763D01*
X130792612Y-118421531D01*
X130797347Y-118430389D01*
X130800263Y-118440001D01*
X130801852Y-118456140D01*
X130801852Y-118943861D01*
X130800046Y-118962198D01*
X130799444Y-118974450D01*
X130799444Y-118992869D01*
X130797250Y-119015149D01*
X130780524Y-119099236D01*
X130774026Y-119120655D01*
X130741215Y-119199871D01*
X130730665Y-119219607D01*
X130683031Y-119290897D01*
X130668824Y-119308208D01*
X130608208Y-119368824D01*
X130590897Y-119383031D01*
X130519607Y-119430665D01*
X130499871Y-119441215D01*
X130420655Y-119474026D01*
X130399236Y-119480524D01*
X130315149Y-119497250D01*
X130292869Y-119499444D01*
X130274450Y-119499444D01*
X130262198Y-119500046D01*
X130243861Y-119501852D01*
X129756139Y-119501852D01*
X129737802Y-119500046D01*
X129725550Y-119499444D01*
X129707131Y-119499444D01*
X129684851Y-119497250D01*
X129600764Y-119480524D01*
X129579345Y-119474026D01*
X129500129Y-119441215D01*
X129480393Y-119430665D01*
X129409103Y-119383031D01*
X129391792Y-119368824D01*
X129331176Y-119308208D01*
X129316969Y-119290897D01*
X129269335Y-119219607D01*
X129258785Y-119199871D01*
X129225974Y-119120655D01*
X129219476Y-119099236D01*
X129202750Y-119015149D01*
X129200556Y-118992869D01*
X129200556Y-118974450D01*
X129199954Y-118962198D01*
X129198148Y-118943861D01*
X129198148Y-118456140D01*
X129199737Y-118440001D01*
X129202653Y-118430389D01*
X129207388Y-118421531D01*
X129213763Y-118413763D01*
X129226202Y-118403554D01*
X129236568Y-118396628D01*
X129253895Y-118379302D01*
X129267510Y-118358927D01*
X129276888Y-118336289D01*
X129281669Y-118312255D01*
X129281669Y-118287751D01*
X129276889Y-118263717D01*
X129267513Y-118241078D01*
X129253899Y-118220703D01*
X129236573Y-118203376D01*
X129226204Y-118196448D01*
X129213763Y-118186237D01*
X129207388Y-118178469D01*
X129202653Y-118169611D01*
X129199737Y-118159999D01*
X129198148Y-118143860D01*
X129198148Y-117656140D01*
X129199954Y-117637802D01*
X129200556Y-117625550D01*
X129200556Y-117607131D01*
X129202750Y-117584851D01*
X129219476Y-117500764D01*
X129225974Y-117479345D01*
X129258785Y-117400129D01*
X129269335Y-117380393D01*
X129316969Y-117309103D01*
X129331176Y-117291792D01*
X129391792Y-117231176D01*
X129409103Y-117216969D01*
X129480393Y-117169335D01*
X129500129Y-117158785D01*
X129579345Y-117125974D01*
X129600764Y-117119476D01*
X129684851Y-117102750D01*
X129707131Y-117100556D01*
X129725550Y-117100556D01*
X129737802Y-117099954D01*
X129756140Y-117098148D01*
X130243860Y-117098148D01*
X130262198Y-117099954D01*
X130262198Y-117099954D01*
G37*
G36*
X131951000Y-114051000D02*
X131049000Y-114051000D01*
X131049000Y-113149000D01*
X131951000Y-113149000D01*
X131951000Y-114051000D01*
X131951000Y-114051000D01*
G37*
G36*
X130451000Y-114051000D02*
X129549000Y-114051000D01*
X129549000Y-113149000D01*
X130451000Y-113149000D01*
X130451000Y-114051000D01*
X130451000Y-114051000D01*
G37*
G36*
X128951000Y-114051000D02*
X128049000Y-114051000D01*
X128049000Y-113149000D01*
X128951000Y-113149000D01*
X128951000Y-114051000D01*
X128951000Y-114051000D01*
G37*
G36*
X131951000Y-112451000D02*
X131049000Y-112451000D01*
X131049000Y-111549000D01*
X131951000Y-111549000D01*
X131951000Y-112451000D01*
X131951000Y-112451000D01*
G37*
G36*
X128951000Y-112451000D02*
X128049000Y-112451000D01*
X128049000Y-111549000D01*
X128951000Y-111549000D01*
X128951000Y-112451000D01*
X128951000Y-112451000D01*
G37*
G36*
X130451000Y-112451000D02*
X129549000Y-112451000D01*
X129549000Y-111549000D01*
X130451000Y-111549000D01*
X130451000Y-112451000D01*
X130451000Y-112451000D01*
G37*
G36*
X130451000Y-108751000D02*
X129549000Y-108751000D01*
X129549000Y-107849000D01*
X130451000Y-107849000D01*
X130451000Y-108751000D01*
X130451000Y-108751000D01*
G37*
G36*
X130451000Y-107151000D02*
X129549000Y-107151000D01*
X129549000Y-106249000D01*
X130451000Y-106249000D01*
X130451000Y-107151000D01*
X130451000Y-107151000D01*
G37*
M02*
