M48
;DRILL file {KiCad (5.0.2)-1} date 2020/04/04 16:59:25
;FORMAT={-:-/ absolute / metric / decimal}
FMAT,2
METRIC,TZ
T1C0.400
%
G90
G05
T1
X122.5Y-102.5
X122.5Y-138.
X122.5Y-142.
X124.9Y-145.
X125.Y-120.5
X127.4Y-145.
X129.Y-124.5
X129.Y-125.5
X129.Y-126.5
X129.Y-127.5
X129.Y-128.5
X129.Y-129.5
X129.Y-130.5
X130.Y-60.5
X130.Y-88.5
X130.Y-92.5
X130.Y-124.5
X130.Y-133.25
X130.Y-145.
X131.Y-124.5
X131.Y-125.5
X131.Y-126.5
X131.Y-127.5
X131.Y-128.5
X131.Y-129.5
X131.Y-130.5
X135.1Y-145.
X137.5Y-102.5
X137.5Y-142.
T0
M30
