M48
;DRILL file {KiCad (5.0.2)-1} date 2019/02/13 23:32:31
;FORMAT={-:-/ absolute / metric / decimal}
FMAT,2
METRIC,TZ
T1C0.400
%
G90
G05
T1
X121.Y-130.5
X121.Y-143.
X121.Y-147.
X122.5Y-105.5
X122.5Y-151.
X125.Y-125.
X125.Y-146.5
X125.Y-151.
X127.5Y-151.
X129.Y-128.
X129.Y-129.
X129.Y-130.
X129.Y-131.
X129.Y-132.
X129.Y-133.
X129.Y-134.
X130.Y-60.5
X130.Y-90.5
X130.Y-94.5
X130.Y-128.
X130.Y-151.
X131.Y-128.
X131.Y-129.
X131.Y-130.
X131.Y-131.
X131.Y-132.
X131.Y-133.
X131.Y-134.
X132.5Y-151.
X135.Y-146.5
X135.Y-151.
X137.5Y-105.5
X137.5Y-151.
X139.Y-130.5
X139.Y-143.
X139.Y-147.
T0
M30
