G04 #@! TF.GenerationSoftware,KiCad,Pcbnew,(5.0.2)-1*
G04 #@! TF.CreationDate,2019-02-13T23:32:08+09:00*
G04 #@! TF.ProjectId,Tree,54726565-2e6b-4696-9361-645f70636258,rev?*
G04 #@! TF.SameCoordinates,Original*
G04 #@! TF.FileFunction,Soldermask,Top*
G04 #@! TF.FilePolarity,Negative*
%FSLAX46Y46*%
G04 Gerber Fmt 4.6, Leading zero omitted, Abs format (unit mm)*
G04 Created by KiCad (PCBNEW (5.0.2)-1) date 2019/02/13 23:32:08*
%MOMM*%
%LPD*%
G01*
G04 APERTURE LIST*
%ADD10C,0.100000*%
G04 APERTURE END LIST*
D10*
G36*
X138451000Y-152751000D02*
X136549000Y-152751000D01*
X136549000Y-149249000D01*
X138451000Y-149249000D01*
X138451000Y-152751000D01*
X138451000Y-152751000D01*
G37*
G36*
X123451000Y-152751000D02*
X121549000Y-152751000D01*
X121549000Y-149249000D01*
X123451000Y-149249000D01*
X123451000Y-152751000D01*
X123451000Y-152751000D01*
G37*
G36*
X128451000Y-152751000D02*
X126549000Y-152751000D01*
X126549000Y-149249000D01*
X128451000Y-149249000D01*
X128451000Y-152751000D01*
X128451000Y-152751000D01*
G37*
G36*
X133451000Y-152751000D02*
X131549000Y-152751000D01*
X131549000Y-149249000D01*
X133451000Y-149249000D01*
X133451000Y-152751000D01*
X133451000Y-152751000D01*
G37*
G36*
X139451000Y-146251000D02*
X138549000Y-146251000D01*
X138549000Y-145349000D01*
X139451000Y-145349000D01*
X139451000Y-146251000D01*
X139451000Y-146251000D01*
G37*
G36*
X121451000Y-146251000D02*
X120549000Y-146251000D01*
X120549000Y-145349000D01*
X121451000Y-145349000D01*
X121451000Y-146251000D01*
X121451000Y-146251000D01*
G37*
G36*
X121451000Y-144651000D02*
X120549000Y-144651000D01*
X120549000Y-143749000D01*
X121451000Y-143749000D01*
X121451000Y-144651000D01*
X121451000Y-144651000D01*
G37*
G36*
X139451000Y-144651000D02*
X138549000Y-144651000D01*
X138549000Y-143749000D01*
X139451000Y-143749000D01*
X139451000Y-144651000D01*
X139451000Y-144651000D01*
G37*
G36*
X139451000Y-133751000D02*
X138549000Y-133751000D01*
X138549000Y-132849000D01*
X139451000Y-132849000D01*
X139451000Y-133751000D01*
X139451000Y-133751000D01*
G37*
G36*
X121451000Y-133751000D02*
X120549000Y-133751000D01*
X120549000Y-132849000D01*
X121451000Y-132849000D01*
X121451000Y-133751000D01*
X121451000Y-133751000D01*
G37*
G36*
X121451000Y-132151000D02*
X120549000Y-132151000D01*
X120549000Y-131249000D01*
X121451000Y-131249000D01*
X121451000Y-132151000D01*
X121451000Y-132151000D01*
G37*
G36*
X139451000Y-132151000D02*
X138549000Y-132151000D01*
X138549000Y-131249000D01*
X139451000Y-131249000D01*
X139451000Y-132151000D01*
X139451000Y-132151000D01*
G37*
G36*
X160451000Y-123751000D02*
X159549000Y-123751000D01*
X159549000Y-122849000D01*
X160451000Y-122849000D01*
X160451000Y-123751000D01*
X160451000Y-123751000D01*
G37*
G36*
X100451000Y-123751000D02*
X99549000Y-123751000D01*
X99549000Y-122849000D01*
X100451000Y-122849000D01*
X100451000Y-123751000D01*
X100451000Y-123751000D01*
G37*
G36*
X115451000Y-123751000D02*
X114549000Y-123751000D01*
X114549000Y-122849000D01*
X115451000Y-122849000D01*
X115451000Y-123751000D01*
X115451000Y-123751000D01*
G37*
G36*
X130451000Y-123751000D02*
X129549000Y-123751000D01*
X129549000Y-122849000D01*
X130451000Y-122849000D01*
X130451000Y-123751000D01*
X130451000Y-123751000D01*
G37*
G36*
X145451000Y-123750999D02*
X144549000Y-123750999D01*
X144549000Y-122848999D01*
X145451000Y-122848999D01*
X145451000Y-123750999D01*
X145451000Y-123750999D01*
G37*
G36*
X145451000Y-122151001D02*
X144549000Y-122151001D01*
X144549000Y-121249001D01*
X145451000Y-121249001D01*
X145451000Y-122151001D01*
X145451000Y-122151001D01*
G37*
G36*
X100451000Y-122151000D02*
X99549000Y-122151000D01*
X99549000Y-121249000D01*
X100451000Y-121249000D01*
X100451000Y-122151000D01*
X100451000Y-122151000D01*
G37*
G36*
X115451000Y-122151000D02*
X114549000Y-122151000D01*
X114549000Y-121249000D01*
X115451000Y-121249000D01*
X115451000Y-122151000D01*
X115451000Y-122151000D01*
G37*
G36*
X160451000Y-122151000D02*
X159549000Y-122151000D01*
X159549000Y-121249000D01*
X160451000Y-121249000D01*
X160451000Y-122151000D01*
X160451000Y-122151000D01*
G37*
G36*
X130451000Y-122151000D02*
X129549000Y-122151000D01*
X129549000Y-121249000D01*
X130451000Y-121249000D01*
X130451000Y-122151000D01*
X130451000Y-122151000D01*
G37*
G36*
X122951000Y-108751000D02*
X122049000Y-108751000D01*
X122049000Y-107849000D01*
X122951000Y-107849000D01*
X122951000Y-108751000D01*
X122951000Y-108751000D01*
G37*
G36*
X137951000Y-108751000D02*
X137049000Y-108751000D01*
X137049000Y-107849000D01*
X137951000Y-107849000D01*
X137951000Y-108751000D01*
X137951000Y-108751000D01*
G37*
G36*
X107951000Y-108751000D02*
X107049000Y-108751000D01*
X107049000Y-107849000D01*
X107951000Y-107849000D01*
X107951000Y-108751000D01*
X107951000Y-108751000D01*
G37*
G36*
X152951000Y-108750999D02*
X152049000Y-108750999D01*
X152049000Y-107848999D01*
X152951000Y-107848999D01*
X152951000Y-108750999D01*
X152951000Y-108750999D01*
G37*
G36*
X152951000Y-107151001D02*
X152049000Y-107151001D01*
X152049000Y-106249001D01*
X152951000Y-106249001D01*
X152951000Y-107151001D01*
X152951000Y-107151001D01*
G37*
G36*
X137951000Y-107151000D02*
X137049000Y-107151000D01*
X137049000Y-106249000D01*
X137951000Y-106249000D01*
X137951000Y-107151000D01*
X137951000Y-107151000D01*
G37*
G36*
X122951000Y-107151000D02*
X122049000Y-107151000D01*
X122049000Y-106249000D01*
X122951000Y-106249000D01*
X122951000Y-107151000D01*
X122951000Y-107151000D01*
G37*
G36*
X107951000Y-107151000D02*
X107049000Y-107151000D01*
X107049000Y-106249000D01*
X107951000Y-106249000D01*
X107951000Y-107151000D01*
X107951000Y-107151000D01*
G37*
G36*
X115451000Y-93751000D02*
X114549000Y-93751000D01*
X114549000Y-92849000D01*
X115451000Y-92849000D01*
X115451000Y-93751000D01*
X115451000Y-93751000D01*
G37*
G36*
X145451000Y-93751000D02*
X144549000Y-93751000D01*
X144549000Y-92849000D01*
X145451000Y-92849000D01*
X145451000Y-93751000D01*
X145451000Y-93751000D01*
G37*
G36*
X130451000Y-93750999D02*
X129549000Y-93750999D01*
X129549000Y-92848999D01*
X130451000Y-92848999D01*
X130451000Y-93750999D01*
X130451000Y-93750999D01*
G37*
G36*
X130451000Y-92151001D02*
X129549000Y-92151001D01*
X129549000Y-91249001D01*
X130451000Y-91249001D01*
X130451000Y-92151001D01*
X130451000Y-92151001D01*
G37*
G36*
X145451000Y-92151000D02*
X144549000Y-92151000D01*
X144549000Y-91249000D01*
X145451000Y-91249000D01*
X145451000Y-92151000D01*
X145451000Y-92151000D01*
G37*
G36*
X115451000Y-92151000D02*
X114549000Y-92151000D01*
X114549000Y-91249000D01*
X115451000Y-91249000D01*
X115451000Y-92151000D01*
X115451000Y-92151000D01*
G37*
G36*
X137951000Y-78751000D02*
X137049000Y-78751000D01*
X137049000Y-77849000D01*
X137951000Y-77849000D01*
X137951000Y-78751000D01*
X137951000Y-78751000D01*
G37*
G36*
X122951000Y-78750999D02*
X122049000Y-78750999D01*
X122049000Y-77848999D01*
X122951000Y-77848999D01*
X122951000Y-78750999D01*
X122951000Y-78750999D01*
G37*
G36*
X122951000Y-77151001D02*
X122049000Y-77151001D01*
X122049000Y-76249001D01*
X122951000Y-76249001D01*
X122951000Y-77151001D01*
X122951000Y-77151001D01*
G37*
G36*
X137951000Y-77151000D02*
X137049000Y-77151000D01*
X137049000Y-76249000D01*
X137951000Y-76249000D01*
X137951000Y-77151000D01*
X137951000Y-77151000D01*
G37*
G36*
X130451000Y-63751000D02*
X129549000Y-63751000D01*
X129549000Y-62849000D01*
X130451000Y-62849000D01*
X130451000Y-63751000D01*
X130451000Y-63751000D01*
G37*
G36*
X130451000Y-62151000D02*
X129549000Y-62151000D01*
X129549000Y-61249000D01*
X130451000Y-61249000D01*
X130451000Y-62151000D01*
X130451000Y-62151000D01*
G37*
M02*
