G04 #@! TF.GenerationSoftware,KiCad,Pcbnew,(5.0.2)-1*
G04 #@! TF.CreationDate,2020-04-04T16:21:36+09:00*
G04 #@! TF.ProjectId,Tree,54726565-2e6b-4696-9361-645f70636258,rev?*
G04 #@! TF.SameCoordinates,Original*
G04 #@! TF.FileFunction,Legend,Bot*
G04 #@! TF.FilePolarity,Positive*
%FSLAX46Y46*%
G04 Gerber Fmt 4.6, Leading zero omitted, Abs format (unit mm)*
G04 Created by KiCad (PCBNEW (5.0.2)-1) date 2020/04/04 16:21:36*
%MOMM*%
%LPD*%
G01*
G04 APERTURE LIST*
%ADD10C,0.200000*%
%ADD11C,0.250000*%
%ADD12C,0.150000*%
%ADD13C,0.120000*%
G04 APERTURE END LIST*
D10*
X135901666Y-98976190D02*
X135943333Y-98928571D01*
X136032619Y-98880952D01*
X136127857Y-98880952D01*
X136229047Y-98928571D01*
X136282619Y-98976190D01*
X136342142Y-99071428D01*
X136354047Y-99166666D01*
X136318333Y-99261904D01*
X136276666Y-99309523D01*
X136187380Y-99357142D01*
X136092142Y-99357142D01*
X135990952Y-99309523D01*
X135937380Y-99261904D01*
X135889761Y-98880952D02*
X135937380Y-99261904D01*
X135895714Y-99309523D01*
X135848095Y-99309523D01*
X135746904Y-99261904D01*
X135687380Y-99166666D01*
X135657619Y-98928571D01*
X135735000Y-98785714D01*
X135865952Y-98690476D01*
X136050476Y-98642857D01*
X136246904Y-98690476D01*
X136401666Y-98785714D01*
X136514761Y-98928571D01*
X136586190Y-99119047D01*
X136562380Y-99309523D01*
X136485000Y-99452380D01*
X136354047Y-99547619D01*
X136169523Y-99595238D01*
X135973095Y-99547619D01*
X135818333Y-99452380D01*
X134907619Y-99404761D02*
X135008809Y-99452380D01*
X135199285Y-99452380D01*
X135288571Y-99404761D01*
X135324285Y-99309523D01*
X135276666Y-98928571D01*
X135217142Y-98833333D01*
X135115952Y-98785714D01*
X134925476Y-98785714D01*
X134836190Y-98833333D01*
X134800476Y-98928571D01*
X134812380Y-99023809D01*
X135300476Y-99119047D01*
X134532619Y-99452380D02*
X133925476Y-98785714D01*
X134449285Y-98785714D02*
X134008809Y-99452380D01*
X133687380Y-98785714D02*
X133306428Y-98785714D01*
X133502857Y-98452380D02*
X133610000Y-99309523D01*
X133574285Y-99404761D01*
X133485000Y-99452380D01*
X133389761Y-99452380D01*
X133306428Y-99547619D02*
X132544523Y-99547619D01*
X132336190Y-99404761D02*
X132246904Y-99452380D01*
X132056428Y-99452380D01*
X131955238Y-99404761D01*
X131895714Y-99309523D01*
X131889761Y-99261904D01*
X131925476Y-99166666D01*
X132014761Y-99119047D01*
X132157619Y-99119047D01*
X132246904Y-99071428D01*
X132282619Y-98976190D01*
X132276666Y-98928571D01*
X132217142Y-98833333D01*
X132115952Y-98785714D01*
X131973095Y-98785714D01*
X131883809Y-98833333D01*
X130973095Y-98785714D02*
X131056428Y-99452380D01*
X131401666Y-98785714D02*
X131467142Y-99309523D01*
X131431428Y-99404761D01*
X131342142Y-99452380D01*
X131199285Y-99452380D01*
X131098095Y-99404761D01*
X131044523Y-99357142D01*
X130580238Y-99452380D02*
X130496904Y-98785714D01*
X130455238Y-98452380D02*
X130508809Y-98500000D01*
X130467142Y-98547619D01*
X130413571Y-98500000D01*
X130455238Y-98452380D01*
X130467142Y-98547619D01*
X129276666Y-98547619D02*
X129223095Y-98500000D01*
X129121904Y-98452380D01*
X128883809Y-98452380D01*
X128794523Y-98500000D01*
X128752857Y-98547619D01*
X128717142Y-98642857D01*
X128729047Y-98738095D01*
X128794523Y-98880952D01*
X129437380Y-99452380D01*
X128818333Y-99452380D01*
X128074285Y-98452380D02*
X127979047Y-98452380D01*
X127889761Y-98500000D01*
X127848095Y-98547619D01*
X127812380Y-98642857D01*
X127788571Y-98833333D01*
X127818333Y-99071428D01*
X127889761Y-99261904D01*
X127949285Y-99357142D01*
X128002857Y-99404761D01*
X128104047Y-99452380D01*
X128199285Y-99452380D01*
X128288571Y-99404761D01*
X128330238Y-99357142D01*
X128365952Y-99261904D01*
X128389761Y-99071428D01*
X128360000Y-98833333D01*
X128288571Y-98642857D01*
X128229047Y-98547619D01*
X128175476Y-98500000D01*
X128074285Y-98452380D01*
X126913571Y-99452380D02*
X127485000Y-99452380D01*
X127199285Y-99452380D02*
X127074285Y-98452380D01*
X127187380Y-98595238D01*
X127294523Y-98690476D01*
X127395714Y-98738095D01*
X126437380Y-99452380D02*
X126246904Y-99452380D01*
X126145714Y-99404761D01*
X126092142Y-99357142D01*
X125979047Y-99214285D01*
X125907619Y-99023809D01*
X125860000Y-98642857D01*
X125895714Y-98547619D01*
X125937380Y-98500000D01*
X126026666Y-98452380D01*
X126217142Y-98452380D01*
X126318333Y-98500000D01*
X126371904Y-98547619D01*
X126431428Y-98642857D01*
X126461190Y-98880952D01*
X126425476Y-98976190D01*
X126383809Y-99023809D01*
X126294523Y-99071428D01*
X126104047Y-99071428D01*
X126002857Y-99023809D01*
X125949285Y-98976190D01*
X125889761Y-98880952D01*
X125520714Y-99357142D02*
X125479047Y-99404761D01*
X125532619Y-99452380D01*
X125574285Y-99404761D01*
X125520714Y-99357142D01*
X125532619Y-99452380D01*
X124740952Y-98452380D02*
X124645714Y-98452380D01*
X124556428Y-98500000D01*
X124514761Y-98547619D01*
X124479047Y-98642857D01*
X124455238Y-98833333D01*
X124485000Y-99071428D01*
X124556428Y-99261904D01*
X124615952Y-99357142D01*
X124669523Y-99404761D01*
X124770714Y-99452380D01*
X124865952Y-99452380D01*
X124955238Y-99404761D01*
X124996904Y-99357142D01*
X125032619Y-99261904D01*
X125056428Y-99071428D01*
X125026666Y-98833333D01*
X124955238Y-98642857D01*
X124895714Y-98547619D01*
X124842142Y-98500000D01*
X124740952Y-98452380D01*
X124038571Y-98547619D02*
X123985000Y-98500000D01*
X123883809Y-98452380D01*
X123645714Y-98452380D01*
X123556428Y-98500000D01*
X123514761Y-98547619D01*
X123479047Y-98642857D01*
X123490952Y-98738095D01*
X123556428Y-98880952D01*
X124199285Y-99452380D01*
X123580238Y-99452380D01*
D11*
X136697395Y-95952380D02*
X136125967Y-95952380D01*
X136536681Y-96952380D02*
X136411681Y-95952380D01*
X135917633Y-96952380D02*
X135834300Y-96285714D01*
X135858110Y-96476190D02*
X135798586Y-96380952D01*
X135745014Y-96333333D01*
X135643824Y-96285714D01*
X135548586Y-96285714D01*
X134911681Y-96904761D02*
X135012872Y-96952380D01*
X135203348Y-96952380D01*
X135292633Y-96904761D01*
X135328348Y-96809523D01*
X135280729Y-96428571D01*
X135221205Y-96333333D01*
X135120014Y-96285714D01*
X134929538Y-96285714D01*
X134840252Y-96333333D01*
X134804538Y-96428571D01*
X134816443Y-96523809D01*
X135304538Y-96619047D01*
X134054538Y-96904761D02*
X134155729Y-96952380D01*
X134346205Y-96952380D01*
X134435491Y-96904761D01*
X134471205Y-96809523D01*
X134423586Y-96428571D01*
X134364062Y-96333333D01*
X134262872Y-96285714D01*
X134072395Y-96285714D01*
X133983110Y-96333333D01*
X133947395Y-96428571D01*
X133959300Y-96523809D01*
X134447395Y-96619047D01*
X132179538Y-96000000D02*
X132268824Y-95952380D01*
X132411681Y-95952380D01*
X132560491Y-96000000D01*
X132667633Y-96095238D01*
X132727157Y-96190476D01*
X132798586Y-96380952D01*
X132816443Y-96523809D01*
X132792633Y-96714285D01*
X132756919Y-96809523D01*
X132673586Y-96904761D01*
X132536681Y-96952380D01*
X132441443Y-96952380D01*
X132292633Y-96904761D01*
X132239062Y-96857142D01*
X132197395Y-96523809D01*
X132387872Y-96523809D01*
X131822395Y-96952380D02*
X131739062Y-96285714D01*
X131762872Y-96476190D02*
X131703348Y-96380952D01*
X131649776Y-96333333D01*
X131548586Y-96285714D01*
X131453348Y-96285714D01*
X131060491Y-96952380D02*
X131149776Y-96904761D01*
X131191443Y-96857142D01*
X131227157Y-96761904D01*
X131191443Y-96476190D01*
X131131919Y-96380952D01*
X131078348Y-96333333D01*
X130977157Y-96285714D01*
X130834300Y-96285714D01*
X130745014Y-96333333D01*
X130703348Y-96380952D01*
X130667633Y-96476190D01*
X130703348Y-96761904D01*
X130762872Y-96857142D01*
X130816443Y-96904761D01*
X130917633Y-96952380D01*
X131060491Y-96952380D01*
X130310491Y-96285714D02*
X130203348Y-96952380D01*
X129953348Y-96476190D01*
X129822395Y-96952380D01*
X129548586Y-96285714D01*
X129250967Y-96952380D02*
X129167633Y-96285714D01*
X129125967Y-95952380D02*
X129179538Y-96000000D01*
X129137872Y-96047619D01*
X129084300Y-96000000D01*
X129125967Y-95952380D01*
X129137872Y-96047619D01*
X128691443Y-96285714D02*
X128774776Y-96952380D01*
X128703348Y-96380952D02*
X128649776Y-96333333D01*
X128548586Y-96285714D01*
X128405729Y-96285714D01*
X128316443Y-96333333D01*
X128280729Y-96428571D01*
X128346205Y-96952380D01*
X127358110Y-96285714D02*
X127459300Y-97095238D01*
X127518824Y-97190476D01*
X127572395Y-97238095D01*
X127673586Y-97285714D01*
X127816443Y-97285714D01*
X127905729Y-97238095D01*
X127435491Y-96904761D02*
X127536681Y-96952380D01*
X127727157Y-96952380D01*
X127816443Y-96904761D01*
X127858110Y-96857142D01*
X127893824Y-96761904D01*
X127858110Y-96476190D01*
X127798586Y-96380952D01*
X127745014Y-96333333D01*
X127643824Y-96285714D01*
X127453348Y-96285714D01*
X127364062Y-96333333D01*
X126215252Y-96285714D02*
X126060491Y-96952380D01*
X125739062Y-96285714D01*
X124917633Y-96952380D02*
X125489062Y-96952380D01*
X125203348Y-96952380D02*
X125078348Y-95952380D01*
X125191443Y-96095238D01*
X125298586Y-96190476D01*
X125399776Y-96238095D01*
X124477157Y-96857142D02*
X124435491Y-96904761D01*
X124489062Y-96952380D01*
X124530729Y-96904761D01*
X124477157Y-96857142D01*
X124489062Y-96952380D01*
X123697395Y-95952380D02*
X123602157Y-95952380D01*
X123512872Y-96000000D01*
X123471205Y-96047619D01*
X123435491Y-96142857D01*
X123411681Y-96333333D01*
X123441443Y-96571428D01*
X123512872Y-96761904D01*
X123572395Y-96857142D01*
X123625967Y-96904761D01*
X123727157Y-96952380D01*
X123822395Y-96952380D01*
X123911681Y-96904761D01*
X123953348Y-96857142D01*
X123989062Y-96761904D01*
X124012872Y-96571428D01*
X123983110Y-96333333D01*
X123911681Y-96142857D01*
X123852157Y-96047619D01*
X123798586Y-96000000D01*
X123697395Y-95952380D01*
D12*
G04 #@! TO.C,U1*
X126125000Y-141025000D02*
X126125000Y-140375000D01*
X133875000Y-141025000D02*
X133875000Y-140280000D01*
X133875000Y-121975000D02*
X133875000Y-122720000D01*
X126125000Y-121975000D02*
X126125000Y-122720000D01*
X126125000Y-141025000D02*
X133875000Y-141025000D01*
X126125000Y-121975000D02*
X133875000Y-121975000D01*
X126125000Y-140375000D02*
X124300000Y-140375000D01*
D13*
G04 #@! TO.C,JP3*
X131500000Y-119000000D02*
G75*
G03X132200000Y-119700000I700000J0D01*
G01*
X132800000Y-119700000D02*
G75*
G03X133500000Y-119000000I0J700000D01*
G01*
X133500000Y-117600000D02*
G75*
G03X132800000Y-116900000I-700000J0D01*
G01*
X132200000Y-116900000D02*
G75*
G03X131500000Y-117600000I0J-700000D01*
G01*
X132800000Y-116900000D02*
X132200000Y-116900000D01*
X133500000Y-119000000D02*
X133500000Y-117600000D01*
X132200000Y-119700000D02*
X132800000Y-119700000D01*
X131500000Y-117600000D02*
X131500000Y-119000000D01*
G04 #@! TO.C,C1*
X126950000Y-141300000D02*
X126950000Y-142700000D01*
X124050000Y-141300000D02*
X124050000Y-142700000D01*
X124050000Y-142700000D02*
X126950000Y-142700000D01*
X126950000Y-141300000D02*
X124050000Y-141300000D01*
G04 #@! TO.C,JP1*
X126500000Y-119000000D02*
G75*
G03X127200000Y-119700000I700000J0D01*
G01*
X127800000Y-119700000D02*
G75*
G03X128500000Y-119000000I0J700000D01*
G01*
X128500000Y-117600000D02*
G75*
G03X127800000Y-116900000I-700000J0D01*
G01*
X127200000Y-116900000D02*
G75*
G03X126500000Y-117600000I0J-700000D01*
G01*
X127800000Y-116900000D02*
X127200000Y-116900000D01*
X128500000Y-119000000D02*
X128500000Y-117600000D01*
X127200000Y-119700000D02*
X127800000Y-119700000D01*
X126500000Y-117600000D02*
X126500000Y-119000000D01*
G04 #@! TO.C,JP2*
X129000000Y-117600000D02*
X129000000Y-119000000D01*
X129700000Y-119700000D02*
X130300000Y-119700000D01*
X131000000Y-119000000D02*
X131000000Y-117600000D01*
X130300000Y-116900000D02*
X129700000Y-116900000D01*
X129700000Y-116900000D02*
G75*
G03X129000000Y-117600000I0J-700000D01*
G01*
X131000000Y-117600000D02*
G75*
G03X130300000Y-116900000I-700000J0D01*
G01*
X130300000Y-119700000D02*
G75*
G03X131000000Y-119000000I0J700000D01*
G01*
X129000000Y-119000000D02*
G75*
G03X129700000Y-119700000I700000J0D01*
G01*
G04 #@! TO.C,R1*
X129200000Y-114250000D02*
X127800000Y-114250000D01*
X129200000Y-111350000D02*
X127800000Y-111350000D01*
X127800000Y-111350000D02*
X127800000Y-114250000D01*
X129200000Y-114250000D02*
X129200000Y-111350000D01*
G04 #@! TO.C,R2*
X130700000Y-114250000D02*
X130700000Y-111350000D01*
X129300000Y-111350000D02*
X129300000Y-114250000D01*
X130700000Y-111350000D02*
X129300000Y-111350000D01*
X130700000Y-114250000D02*
X129300000Y-114250000D01*
G04 #@! TO.C,R3*
X132200000Y-114250000D02*
X130800000Y-114250000D01*
X132200000Y-111350000D02*
X130800000Y-111350000D01*
X130800000Y-111350000D02*
X130800000Y-114250000D01*
X132200000Y-114250000D02*
X132200000Y-111350000D01*
D12*
G04 #@! TO.C,D20*
X130000000Y-107750000D02*
X129750000Y-107250000D01*
X130000000Y-107750000D02*
X130250000Y-107250000D01*
X130250000Y-107250000D02*
X129750000Y-107250000D01*
D13*
X130700000Y-108950000D02*
X130700000Y-106050000D01*
X129300000Y-106050000D02*
X129300000Y-108950000D01*
X130700000Y-106050000D02*
X129300000Y-106050000D01*
X130700000Y-108950000D02*
X129300000Y-108950000D01*
G04 #@! TO.C,U1*
D12*
X133761904Y-141452380D02*
X133761904Y-142261904D01*
X133714285Y-142357142D01*
X133666666Y-142404761D01*
X133571428Y-142452380D01*
X133380952Y-142452380D01*
X133285714Y-142404761D01*
X133238095Y-142357142D01*
X133190476Y-142261904D01*
X133190476Y-141452380D01*
X132190476Y-142452380D02*
X132761904Y-142452380D01*
X132476190Y-142452380D02*
X132476190Y-141452380D01*
X132571428Y-141595238D01*
X132666666Y-141690476D01*
X132761904Y-141738095D01*
G04 #@! TO.C,JP3*
X132666666Y-114835714D02*
X132666666Y-115311904D01*
X132952380Y-114740476D02*
X131952380Y-115073809D01*
X132952380Y-115407142D01*
X131952380Y-115930952D02*
X131952380Y-116026190D01*
X132000000Y-116121428D01*
X132047619Y-116169047D01*
X132142857Y-116216666D01*
X132333333Y-116264285D01*
X132571428Y-116264285D01*
X132761904Y-116216666D01*
X132857142Y-116169047D01*
X132904761Y-116121428D01*
X132952380Y-116026190D01*
X132952380Y-115930952D01*
X132904761Y-115835714D01*
X132857142Y-115788095D01*
X132761904Y-115740476D01*
X132571428Y-115692857D01*
X132333333Y-115692857D01*
X132142857Y-115740476D01*
X132047619Y-115788095D01*
X132000000Y-115835714D01*
X131952380Y-115930952D01*
G04 #@! TO.C,D2*
X145738095Y-118952380D02*
X145738095Y-117952380D01*
X145500000Y-117952380D01*
X145357142Y-118000000D01*
X145261904Y-118095238D01*
X145214285Y-118190476D01*
X145166666Y-118380952D01*
X145166666Y-118523809D01*
X145214285Y-118714285D01*
X145261904Y-118809523D01*
X145357142Y-118904761D01*
X145500000Y-118952380D01*
X145738095Y-118952380D01*
X144785714Y-118047619D02*
X144738095Y-118000000D01*
X144642857Y-117952380D01*
X144404761Y-117952380D01*
X144309523Y-118000000D01*
X144261904Y-118047619D01*
X144214285Y-118142857D01*
X144214285Y-118238095D01*
X144261904Y-118380952D01*
X144833333Y-118952380D01*
X144214285Y-118952380D01*
G04 #@! TO.C,C1*
X128166666Y-142357142D02*
X128214285Y-142404761D01*
X128357142Y-142452380D01*
X128452380Y-142452380D01*
X128595238Y-142404761D01*
X128690476Y-142309523D01*
X128738095Y-142214285D01*
X128785714Y-142023809D01*
X128785714Y-141880952D01*
X128738095Y-141690476D01*
X128690476Y-141595238D01*
X128595238Y-141500000D01*
X128452380Y-141452380D01*
X128357142Y-141452380D01*
X128214285Y-141500000D01*
X128166666Y-141547619D01*
X127214285Y-142452380D02*
X127785714Y-142452380D01*
X127500000Y-142452380D02*
X127500000Y-141452380D01*
X127595238Y-141595238D01*
X127690476Y-141690476D01*
X127785714Y-141738095D01*
G04 #@! TO.C,JP1*
X127666666Y-114835714D02*
X127666666Y-115311904D01*
X127952380Y-114740476D02*
X126952380Y-115073809D01*
X127952380Y-115407142D01*
X127047619Y-115692857D02*
X127000000Y-115740476D01*
X126952380Y-115835714D01*
X126952380Y-116073809D01*
X127000000Y-116169047D01*
X127047619Y-116216666D01*
X127142857Y-116264285D01*
X127238095Y-116264285D01*
X127380952Y-116216666D01*
X127952380Y-115645238D01*
X127952380Y-116264285D01*
G04 #@! TO.C,JP2*
X130166666Y-114835714D02*
X130166666Y-115311904D01*
X130452380Y-114740476D02*
X129452380Y-115073809D01*
X130452380Y-115407142D01*
X130452380Y-116264285D02*
X130452380Y-115692857D01*
X130452380Y-115978571D02*
X129452380Y-115978571D01*
X129595238Y-115883333D01*
X129690476Y-115788095D01*
X129738095Y-115692857D01*
G04 #@! TO.C,R1*
X128952380Y-110133333D02*
X128476190Y-109800000D01*
X128952380Y-109561904D02*
X127952380Y-109561904D01*
X127952380Y-109942857D01*
X128000000Y-110038095D01*
X128047619Y-110085714D01*
X128142857Y-110133333D01*
X128285714Y-110133333D01*
X128380952Y-110085714D01*
X128428571Y-110038095D01*
X128476190Y-109942857D01*
X128476190Y-109561904D01*
X128952380Y-111085714D02*
X128952380Y-110514285D01*
X128952380Y-110800000D02*
X127952380Y-110800000D01*
X128095238Y-110704761D01*
X128190476Y-110609523D01*
X128238095Y-110514285D01*
G04 #@! TO.C,R2*
X130452380Y-110133333D02*
X129976190Y-109800000D01*
X130452380Y-109561904D02*
X129452380Y-109561904D01*
X129452380Y-109942857D01*
X129500000Y-110038095D01*
X129547619Y-110085714D01*
X129642857Y-110133333D01*
X129785714Y-110133333D01*
X129880952Y-110085714D01*
X129928571Y-110038095D01*
X129976190Y-109942857D01*
X129976190Y-109561904D01*
X129547619Y-110514285D02*
X129500000Y-110561904D01*
X129452380Y-110657142D01*
X129452380Y-110895238D01*
X129500000Y-110990476D01*
X129547619Y-111038095D01*
X129642857Y-111085714D01*
X129738095Y-111085714D01*
X129880952Y-111038095D01*
X130452380Y-110466666D01*
X130452380Y-111085714D01*
G04 #@! TO.C,R3*
X131952380Y-110133333D02*
X131476190Y-109800000D01*
X131952380Y-109561904D02*
X130952380Y-109561904D01*
X130952380Y-109942857D01*
X131000000Y-110038095D01*
X131047619Y-110085714D01*
X131142857Y-110133333D01*
X131285714Y-110133333D01*
X131380952Y-110085714D01*
X131428571Y-110038095D01*
X131476190Y-109942857D01*
X131476190Y-109561904D01*
X130952380Y-110466666D02*
X130952380Y-111085714D01*
X131333333Y-110752380D01*
X131333333Y-110895238D01*
X131380952Y-110990476D01*
X131428571Y-111038095D01*
X131523809Y-111085714D01*
X131761904Y-111085714D01*
X131857142Y-111038095D01*
X131904761Y-110990476D01*
X131952380Y-110895238D01*
X131952380Y-110609523D01*
X131904761Y-110514285D01*
X131857142Y-110466666D01*
G04 #@! TO.C,D1*
X158738095Y-118952380D02*
X158738095Y-117952380D01*
X158500000Y-117952380D01*
X158357142Y-118000000D01*
X158261904Y-118095238D01*
X158214285Y-118190476D01*
X158166666Y-118380952D01*
X158166666Y-118523809D01*
X158214285Y-118714285D01*
X158261904Y-118809523D01*
X158357142Y-118904761D01*
X158500000Y-118952380D01*
X158738095Y-118952380D01*
X157214285Y-118952380D02*
X157785714Y-118952380D01*
X157500000Y-118952380D02*
X157500000Y-117952380D01*
X157595238Y-118095238D01*
X157690476Y-118190476D01*
X157785714Y-118238095D01*
G04 #@! TO.C,D3*
X151713831Y-105069537D02*
X151713831Y-104069537D01*
X151475736Y-104069537D01*
X151332878Y-104117157D01*
X151237640Y-104212395D01*
X151190021Y-104307633D01*
X151142402Y-104498109D01*
X151142402Y-104640966D01*
X151190021Y-104831442D01*
X151237640Y-104926680D01*
X151332878Y-105021918D01*
X151475736Y-105069537D01*
X151713831Y-105069537D01*
X150809069Y-104069537D02*
X150190021Y-104069537D01*
X150523355Y-104450490D01*
X150380497Y-104450490D01*
X150285259Y-104498109D01*
X150237640Y-104545728D01*
X150190021Y-104640966D01*
X150190021Y-104879061D01*
X150237640Y-104974299D01*
X150285259Y-105021918D01*
X150380497Y-105069537D01*
X150666212Y-105069537D01*
X150761450Y-105021918D01*
X150809069Y-104974299D01*
G04 #@! TO.C,D4*
X138238095Y-104952380D02*
X138238095Y-103952380D01*
X138000000Y-103952380D01*
X137857142Y-104000000D01*
X137761904Y-104095238D01*
X137714285Y-104190476D01*
X137666666Y-104380952D01*
X137666666Y-104523809D01*
X137714285Y-104714285D01*
X137761904Y-104809523D01*
X137857142Y-104904761D01*
X138000000Y-104952380D01*
X138238095Y-104952380D01*
X136809523Y-104285714D02*
X136809523Y-104952380D01*
X137047619Y-103904761D02*
X137285714Y-104619047D01*
X136666666Y-104619047D01*
G04 #@! TO.C,D5*
X144738095Y-90952380D02*
X144738095Y-89952380D01*
X144500000Y-89952380D01*
X144357142Y-90000000D01*
X144261904Y-90095238D01*
X144214285Y-90190476D01*
X144166666Y-90380952D01*
X144166666Y-90523809D01*
X144214285Y-90714285D01*
X144261904Y-90809523D01*
X144357142Y-90904761D01*
X144500000Y-90952380D01*
X144738095Y-90952380D01*
X143261904Y-89952380D02*
X143738095Y-89952380D01*
X143785714Y-90428571D01*
X143738095Y-90380952D01*
X143642857Y-90333333D01*
X143404761Y-90333333D01*
X143309523Y-90380952D01*
X143261904Y-90428571D01*
X143214285Y-90523809D01*
X143214285Y-90761904D01*
X143261904Y-90857142D01*
X143309523Y-90904761D01*
X143404761Y-90952380D01*
X143642857Y-90952380D01*
X143738095Y-90904761D01*
X143785714Y-90857142D01*
G04 #@! TO.C,D8*
X130738095Y-121452380D02*
X130738095Y-120452380D01*
X130500000Y-120452380D01*
X130357142Y-120500000D01*
X130261904Y-120595238D01*
X130214285Y-120690476D01*
X130166666Y-120880952D01*
X130166666Y-121023809D01*
X130214285Y-121214285D01*
X130261904Y-121309523D01*
X130357142Y-121404761D01*
X130500000Y-121452380D01*
X130738095Y-121452380D01*
X129595238Y-120880952D02*
X129690476Y-120833333D01*
X129738095Y-120785714D01*
X129785714Y-120690476D01*
X129785714Y-120642857D01*
X129738095Y-120547619D01*
X129690476Y-120500000D01*
X129595238Y-120452380D01*
X129404761Y-120452380D01*
X129309523Y-120500000D01*
X129261904Y-120547619D01*
X129214285Y-120642857D01*
X129214285Y-120690476D01*
X129261904Y-120785714D01*
X129309523Y-120833333D01*
X129404761Y-120880952D01*
X129595238Y-120880952D01*
X129690476Y-120928571D01*
X129738095Y-120976190D01*
X129785714Y-121071428D01*
X129785714Y-121261904D01*
X129738095Y-121357142D01*
X129690476Y-121404761D01*
X129595238Y-121452380D01*
X129404761Y-121452380D01*
X129309523Y-121404761D01*
X129261904Y-121357142D01*
X129214285Y-121261904D01*
X129214285Y-121071428D01*
X129261904Y-120976190D01*
X129309523Y-120928571D01*
X129404761Y-120880952D01*
G04 #@! TO.C,D9*
X130738095Y-90881669D02*
X130738095Y-89881669D01*
X130500000Y-89881669D01*
X130357142Y-89929289D01*
X130261904Y-90024527D01*
X130214285Y-90119765D01*
X130166666Y-90310241D01*
X130166666Y-90453098D01*
X130214285Y-90643574D01*
X130261904Y-90738812D01*
X130357142Y-90834050D01*
X130500000Y-90881669D01*
X130738095Y-90881669D01*
X129690476Y-90881669D02*
X129500000Y-90881669D01*
X129404761Y-90834050D01*
X129357142Y-90786431D01*
X129261904Y-90643574D01*
X129214285Y-90453098D01*
X129214285Y-90072146D01*
X129261904Y-89976908D01*
X129309523Y-89929289D01*
X129404761Y-89881669D01*
X129595238Y-89881669D01*
X129690476Y-89929289D01*
X129738095Y-89976908D01*
X129785714Y-90072146D01*
X129785714Y-90310241D01*
X129738095Y-90405479D01*
X129690476Y-90453098D01*
X129595238Y-90500717D01*
X129404761Y-90500717D01*
X129309523Y-90453098D01*
X129261904Y-90405479D01*
X129214285Y-90310241D01*
G04 #@! TO.C,D11*
X117214285Y-90952380D02*
X117214285Y-89952380D01*
X116976190Y-89952380D01*
X116833333Y-90000000D01*
X116738095Y-90095238D01*
X116690476Y-90190476D01*
X116642857Y-90380952D01*
X116642857Y-90523809D01*
X116690476Y-90714285D01*
X116738095Y-90809523D01*
X116833333Y-90904761D01*
X116976190Y-90952380D01*
X117214285Y-90952380D01*
X115690476Y-90952380D02*
X116261904Y-90952380D01*
X115976190Y-90952380D02*
X115976190Y-89952380D01*
X116071428Y-90095238D01*
X116166666Y-90190476D01*
X116261904Y-90238095D01*
X114738095Y-90952380D02*
X115309523Y-90952380D01*
X115023809Y-90952380D02*
X115023809Y-89952380D01*
X115119047Y-90095238D01*
X115214285Y-90190476D01*
X115309523Y-90238095D01*
G04 #@! TO.C,D6*
X137738095Y-76952380D02*
X137738095Y-75952380D01*
X137500000Y-75952380D01*
X137357142Y-76000000D01*
X137261904Y-76095238D01*
X137214285Y-76190476D01*
X137166666Y-76380952D01*
X137166666Y-76523809D01*
X137214285Y-76714285D01*
X137261904Y-76809523D01*
X137357142Y-76904761D01*
X137500000Y-76952380D01*
X137738095Y-76952380D01*
X136309523Y-75952380D02*
X136500000Y-75952380D01*
X136595238Y-76000000D01*
X136642857Y-76047619D01*
X136738095Y-76190476D01*
X136785714Y-76380952D01*
X136785714Y-76761904D01*
X136738095Y-76857142D01*
X136690476Y-76904761D01*
X136595238Y-76952380D01*
X136404761Y-76952380D01*
X136309523Y-76904761D01*
X136261904Y-76857142D01*
X136214285Y-76761904D01*
X136214285Y-76523809D01*
X136261904Y-76428571D01*
X136309523Y-76380952D01*
X136404761Y-76333333D01*
X136595238Y-76333333D01*
X136690476Y-76380952D01*
X136738095Y-76428571D01*
X136785714Y-76523809D01*
G04 #@! TO.C,D13*
X110214285Y-104952380D02*
X110214285Y-103952380D01*
X109976190Y-103952380D01*
X109833333Y-104000000D01*
X109738095Y-104095238D01*
X109690476Y-104190476D01*
X109642857Y-104380952D01*
X109642857Y-104523809D01*
X109690476Y-104714285D01*
X109738095Y-104809523D01*
X109833333Y-104904761D01*
X109976190Y-104952380D01*
X110214285Y-104952380D01*
X108690476Y-104952380D02*
X109261904Y-104952380D01*
X108976190Y-104952380D02*
X108976190Y-103952380D01*
X109071428Y-104095238D01*
X109166666Y-104190476D01*
X109261904Y-104238095D01*
X108357142Y-103952380D02*
X107738095Y-103952380D01*
X108071428Y-104333333D01*
X107928571Y-104333333D01*
X107833333Y-104380952D01*
X107785714Y-104428571D01*
X107738095Y-104523809D01*
X107738095Y-104761904D01*
X107785714Y-104857142D01*
X107833333Y-104904761D01*
X107928571Y-104952380D01*
X108214285Y-104952380D01*
X108309523Y-104904761D01*
X108357142Y-104857142D01*
G04 #@! TO.C,D14*
X116214285Y-118952380D02*
X116214285Y-117952380D01*
X115976190Y-117952380D01*
X115833333Y-118000000D01*
X115738095Y-118095238D01*
X115690476Y-118190476D01*
X115642857Y-118380952D01*
X115642857Y-118523809D01*
X115690476Y-118714285D01*
X115738095Y-118809523D01*
X115833333Y-118904761D01*
X115976190Y-118952380D01*
X116214285Y-118952380D01*
X114690476Y-118952380D02*
X115261904Y-118952380D01*
X114976190Y-118952380D02*
X114976190Y-117952380D01*
X115071428Y-118095238D01*
X115166666Y-118190476D01*
X115261904Y-118238095D01*
X113833333Y-118285714D02*
X113833333Y-118952380D01*
X114071428Y-117904761D02*
X114309523Y-118619047D01*
X113690476Y-118619047D01*
G04 #@! TO.C,D15*
X103214285Y-118952380D02*
X103214285Y-117952380D01*
X102976190Y-117952380D01*
X102833333Y-118000000D01*
X102738095Y-118095238D01*
X102690476Y-118190476D01*
X102642857Y-118380952D01*
X102642857Y-118523809D01*
X102690476Y-118714285D01*
X102738095Y-118809523D01*
X102833333Y-118904761D01*
X102976190Y-118952380D01*
X103214285Y-118952380D01*
X101690476Y-118952380D02*
X102261904Y-118952380D01*
X101976190Y-118952380D02*
X101976190Y-117952380D01*
X102071428Y-118095238D01*
X102166666Y-118190476D01*
X102261904Y-118238095D01*
X100785714Y-117952380D02*
X101261904Y-117952380D01*
X101309523Y-118428571D01*
X101261904Y-118380952D01*
X101166666Y-118333333D01*
X100928571Y-118333333D01*
X100833333Y-118380952D01*
X100785714Y-118428571D01*
X100738095Y-118523809D01*
X100738095Y-118761904D01*
X100785714Y-118857142D01*
X100833333Y-118904761D01*
X100928571Y-118952380D01*
X101166666Y-118952380D01*
X101261904Y-118904761D01*
X101309523Y-118857142D01*
G04 #@! TO.C,D16*
X138714285Y-140452380D02*
X138714285Y-139452380D01*
X138476190Y-139452380D01*
X138333333Y-139500000D01*
X138238095Y-139595238D01*
X138190476Y-139690476D01*
X138142857Y-139880952D01*
X138142857Y-140023809D01*
X138190476Y-140214285D01*
X138238095Y-140309523D01*
X138333333Y-140404761D01*
X138476190Y-140452380D01*
X138714285Y-140452380D01*
X137190476Y-140452380D02*
X137761904Y-140452380D01*
X137476190Y-140452380D02*
X137476190Y-139452380D01*
X137571428Y-139595238D01*
X137666666Y-139690476D01*
X137761904Y-139738095D01*
X136333333Y-139452380D02*
X136523809Y-139452380D01*
X136619047Y-139500000D01*
X136666666Y-139547619D01*
X136761904Y-139690476D01*
X136809523Y-139880952D01*
X136809523Y-140261904D01*
X136761904Y-140357142D01*
X136714285Y-140404761D01*
X136619047Y-140452380D01*
X136428571Y-140452380D01*
X136333333Y-140404761D01*
X136285714Y-140357142D01*
X136238095Y-140261904D01*
X136238095Y-140023809D01*
X136285714Y-139928571D01*
X136333333Y-139880952D01*
X136428571Y-139833333D01*
X136619047Y-139833333D01*
X136714285Y-139880952D01*
X136761904Y-139928571D01*
X136809523Y-140023809D01*
G04 #@! TO.C,D17*
X138714285Y-128952380D02*
X138714285Y-127952380D01*
X138476190Y-127952380D01*
X138333333Y-128000000D01*
X138238095Y-128095238D01*
X138190476Y-128190476D01*
X138142857Y-128380952D01*
X138142857Y-128523809D01*
X138190476Y-128714285D01*
X138238095Y-128809523D01*
X138333333Y-128904761D01*
X138476190Y-128952380D01*
X138714285Y-128952380D01*
X137190476Y-128952380D02*
X137761904Y-128952380D01*
X137476190Y-128952380D02*
X137476190Y-127952380D01*
X137571428Y-128095238D01*
X137666666Y-128190476D01*
X137761904Y-128238095D01*
X136857142Y-127952380D02*
X136190476Y-127952380D01*
X136619047Y-128952380D01*
G04 #@! TO.C,D18*
X123714285Y-140452380D02*
X123714285Y-139452380D01*
X123476190Y-139452380D01*
X123333333Y-139500000D01*
X123238095Y-139595238D01*
X123190476Y-139690476D01*
X123142857Y-139880952D01*
X123142857Y-140023809D01*
X123190476Y-140214285D01*
X123238095Y-140309523D01*
X123333333Y-140404761D01*
X123476190Y-140452380D01*
X123714285Y-140452380D01*
X122190476Y-140452380D02*
X122761904Y-140452380D01*
X122476190Y-140452380D02*
X122476190Y-139452380D01*
X122571428Y-139595238D01*
X122666666Y-139690476D01*
X122761904Y-139738095D01*
X121619047Y-139880952D02*
X121714285Y-139833333D01*
X121761904Y-139785714D01*
X121809523Y-139690476D01*
X121809523Y-139642857D01*
X121761904Y-139547619D01*
X121714285Y-139500000D01*
X121619047Y-139452380D01*
X121428571Y-139452380D01*
X121333333Y-139500000D01*
X121285714Y-139547619D01*
X121238095Y-139642857D01*
X121238095Y-139690476D01*
X121285714Y-139785714D01*
X121333333Y-139833333D01*
X121428571Y-139880952D01*
X121619047Y-139880952D01*
X121714285Y-139928571D01*
X121761904Y-139976190D01*
X121809523Y-140071428D01*
X121809523Y-140261904D01*
X121761904Y-140357142D01*
X121714285Y-140404761D01*
X121619047Y-140452380D01*
X121428571Y-140452380D01*
X121333333Y-140404761D01*
X121285714Y-140357142D01*
X121238095Y-140261904D01*
X121238095Y-140071428D01*
X121285714Y-139976190D01*
X121333333Y-139928571D01*
X121428571Y-139880952D01*
G04 #@! TO.C,D19*
X123714285Y-128952380D02*
X123714285Y-127952380D01*
X123476190Y-127952380D01*
X123333333Y-128000000D01*
X123238095Y-128095238D01*
X123190476Y-128190476D01*
X123142857Y-128380952D01*
X123142857Y-128523809D01*
X123190476Y-128714285D01*
X123238095Y-128809523D01*
X123333333Y-128904761D01*
X123476190Y-128952380D01*
X123714285Y-128952380D01*
X122190476Y-128952380D02*
X122761904Y-128952380D01*
X122476190Y-128952380D02*
X122476190Y-127952380D01*
X122571428Y-128095238D01*
X122666666Y-128190476D01*
X122761904Y-128238095D01*
X121714285Y-128952380D02*
X121523809Y-128952380D01*
X121428571Y-128904761D01*
X121380952Y-128857142D01*
X121285714Y-128714285D01*
X121238095Y-128523809D01*
X121238095Y-128142857D01*
X121285714Y-128047619D01*
X121333333Y-128000000D01*
X121428571Y-127952380D01*
X121619047Y-127952380D01*
X121714285Y-128000000D01*
X121761904Y-128047619D01*
X121809523Y-128142857D01*
X121809523Y-128380952D01*
X121761904Y-128476190D01*
X121714285Y-128523809D01*
X121619047Y-128571428D01*
X121428571Y-128571428D01*
X121333333Y-128523809D01*
X121285714Y-128476190D01*
X121238095Y-128380952D01*
G04 #@! TO.C,D20*
X130452380Y-103285714D02*
X129452380Y-103285714D01*
X129452380Y-103523809D01*
X129500000Y-103666666D01*
X129595238Y-103761904D01*
X129690476Y-103809523D01*
X129880952Y-103857142D01*
X130023809Y-103857142D01*
X130214285Y-103809523D01*
X130309523Y-103761904D01*
X130404761Y-103666666D01*
X130452380Y-103523809D01*
X130452380Y-103285714D01*
X129547619Y-104238095D02*
X129500000Y-104285714D01*
X129452380Y-104380952D01*
X129452380Y-104619047D01*
X129500000Y-104714285D01*
X129547619Y-104761904D01*
X129642857Y-104809523D01*
X129738095Y-104809523D01*
X129880952Y-104761904D01*
X130452380Y-104190476D01*
X130452380Y-104809523D01*
X129452380Y-105428571D02*
X129452380Y-105523809D01*
X129500000Y-105619047D01*
X129547619Y-105666666D01*
X129642857Y-105714285D01*
X129833333Y-105761904D01*
X130071428Y-105761904D01*
X130261904Y-105714285D01*
X130357142Y-105666666D01*
X130404761Y-105619047D01*
X130452380Y-105523809D01*
X130452380Y-105428571D01*
X130404761Y-105333333D01*
X130357142Y-105285714D01*
X130261904Y-105238095D01*
X130071428Y-105190476D01*
X129833333Y-105190476D01*
X129642857Y-105238095D01*
X129547619Y-105285714D01*
X129500000Y-105333333D01*
X129452380Y-105428571D01*
G04 #@! TO.C,D12*
X123714285Y-104952380D02*
X123714285Y-103952380D01*
X123476190Y-103952380D01*
X123333333Y-104000000D01*
X123238095Y-104095238D01*
X123190476Y-104190476D01*
X123142857Y-104380952D01*
X123142857Y-104523809D01*
X123190476Y-104714285D01*
X123238095Y-104809523D01*
X123333333Y-104904761D01*
X123476190Y-104952380D01*
X123714285Y-104952380D01*
X122190476Y-104952380D02*
X122761904Y-104952380D01*
X122476190Y-104952380D02*
X122476190Y-103952380D01*
X122571428Y-104095238D01*
X122666666Y-104190476D01*
X122761904Y-104238095D01*
X121809523Y-104047619D02*
X121761904Y-104000000D01*
X121666666Y-103952380D01*
X121428571Y-103952380D01*
X121333333Y-104000000D01*
X121285714Y-104047619D01*
X121238095Y-104142857D01*
X121238095Y-104238095D01*
X121285714Y-104380952D01*
X121857142Y-104952380D01*
X121238095Y-104952380D01*
G04 #@! TO.C,D7*
X130738095Y-62952380D02*
X130738095Y-61952380D01*
X130500000Y-61952380D01*
X130357142Y-62000000D01*
X130261904Y-62095238D01*
X130214285Y-62190476D01*
X130166666Y-62380952D01*
X130166666Y-62523809D01*
X130214285Y-62714285D01*
X130261904Y-62809523D01*
X130357142Y-62904761D01*
X130500000Y-62952380D01*
X130738095Y-62952380D01*
X129833333Y-61952380D02*
X129166666Y-61952380D01*
X129595238Y-62952380D01*
G04 #@! TO.C,D10*
X124214285Y-76952380D02*
X124214285Y-75952380D01*
X123976190Y-75952380D01*
X123833333Y-76000000D01*
X123738095Y-76095238D01*
X123690476Y-76190476D01*
X123642857Y-76380952D01*
X123642857Y-76523809D01*
X123690476Y-76714285D01*
X123738095Y-76809523D01*
X123833333Y-76904761D01*
X123976190Y-76952380D01*
X124214285Y-76952380D01*
X122690476Y-76952380D02*
X123261904Y-76952380D01*
X122976190Y-76952380D02*
X122976190Y-75952380D01*
X123071428Y-76095238D01*
X123166666Y-76190476D01*
X123261904Y-76238095D01*
X122071428Y-75952380D02*
X121976190Y-75952380D01*
X121880952Y-76000000D01*
X121833333Y-76047619D01*
X121785714Y-76142857D01*
X121738095Y-76333333D01*
X121738095Y-76571428D01*
X121785714Y-76761904D01*
X121833333Y-76857142D01*
X121880952Y-76904761D01*
X121976190Y-76952380D01*
X122071428Y-76952380D01*
X122166666Y-76904761D01*
X122214285Y-76857142D01*
X122261904Y-76761904D01*
X122309523Y-76571428D01*
X122309523Y-76333333D01*
X122261904Y-76142857D01*
X122214285Y-76047619D01*
X122166666Y-76000000D01*
X122071428Y-75952380D01*
G04 #@! TD*
M02*
