G04 #@! TF.GenerationSoftware,KiCad,Pcbnew,(5.0.2)-1*
G04 #@! TF.CreationDate,2019-02-13T23:32:08+09:00*
G04 #@! TF.ProjectId,Tree,54726565-2e6b-4696-9361-645f70636258,rev?*
G04 #@! TF.SameCoordinates,Original*
G04 #@! TF.FileFunction,Legend,Top*
G04 #@! TF.FilePolarity,Positive*
%FSLAX46Y46*%
G04 Gerber Fmt 4.6, Leading zero omitted, Abs format (unit mm)*
G04 Created by KiCad (PCBNEW (5.0.2)-1) date 2019/02/13 23:32:08*
%MOMM*%
%LPD*%
G01*
G04 APERTURE LIST*
%ADD10C,0.120000*%
%ADD11C,0.150000*%
G04 APERTURE END LIST*
D10*
G04 #@! TO.C,D2*
X145700000Y-121050000D02*
X144300000Y-121050000D01*
X145700000Y-123950000D02*
X144300000Y-123950000D01*
X144300000Y-123950000D02*
X144300000Y-121050000D01*
X145700000Y-121050000D02*
X145700000Y-123950000D01*
D11*
X145250000Y-122750000D02*
X144750000Y-122750000D01*
X145000000Y-122250000D02*
X145250000Y-122750000D01*
X145000000Y-122250000D02*
X144750000Y-122750000D01*
G04 #@! TO.C,TP4*
X138600000Y-152900000D02*
X136400000Y-152900000D01*
X138600000Y-149100000D02*
X138600000Y-152900000D01*
X136400000Y-149100000D02*
X138600000Y-149100000D01*
X136400000Y-152900000D02*
X136400000Y-149100000D01*
G04 #@! TO.C,TP1*
X123600000Y-152900000D02*
X121400000Y-152900000D01*
X123600000Y-149100000D02*
X123600000Y-152900000D01*
X121400000Y-149100000D02*
X123600000Y-149100000D01*
X121400000Y-152900000D02*
X121400000Y-149100000D01*
G04 #@! TO.C,TP2*
X128600000Y-152900000D02*
X126400000Y-152900000D01*
X128600000Y-149100000D02*
X128600000Y-152900000D01*
X126400000Y-149100000D02*
X128600000Y-149100000D01*
X126400000Y-152900000D02*
X126400000Y-149100000D01*
G04 #@! TO.C,TP3*
X131400000Y-152900000D02*
X131400000Y-149100000D01*
X131400000Y-149100000D02*
X133600000Y-149100000D01*
X133600000Y-149100000D02*
X133600000Y-152900000D01*
X133600000Y-152900000D02*
X131400000Y-152900000D01*
G04 #@! TO.C,D1*
X160000000Y-122250000D02*
X159750000Y-122750000D01*
X160000000Y-122250000D02*
X160250000Y-122750000D01*
X160250000Y-122750000D02*
X159750000Y-122750000D01*
D10*
X160700000Y-121050000D02*
X160700000Y-123950000D01*
X159300000Y-123950000D02*
X159300000Y-121050000D01*
X160700000Y-123950000D02*
X159300000Y-123950000D01*
X160700000Y-121050000D02*
X159300000Y-121050000D01*
D11*
G04 #@! TO.C,D3*
X152500000Y-107250000D02*
X152250000Y-107750000D01*
X152500000Y-107250000D02*
X152750000Y-107750000D01*
X152750000Y-107750000D02*
X152250000Y-107750000D01*
D10*
X153200000Y-106050000D02*
X153200000Y-108950000D01*
X151800000Y-108950000D02*
X151800000Y-106050000D01*
X153200000Y-108950000D02*
X151800000Y-108950000D01*
X153200000Y-106050000D02*
X151800000Y-106050000D01*
G04 #@! TO.C,D4*
X138200000Y-106050000D02*
X136800000Y-106050000D01*
X138200000Y-108950000D02*
X136800000Y-108950000D01*
X136800000Y-108950000D02*
X136800000Y-106050000D01*
X138200000Y-106050000D02*
X138200000Y-108950000D01*
D11*
X137750000Y-107750000D02*
X137250000Y-107750000D01*
X137500000Y-107250000D02*
X137750000Y-107750000D01*
X137500000Y-107250000D02*
X137250000Y-107750000D01*
G04 #@! TO.C,D5*
X145000000Y-92250000D02*
X144750000Y-92750000D01*
X145000000Y-92250000D02*
X145250000Y-92750000D01*
X145250000Y-92750000D02*
X144750000Y-92750000D01*
D10*
X145700000Y-91050000D02*
X145700000Y-93950000D01*
X144300000Y-93950000D02*
X144300000Y-91050000D01*
X145700000Y-93950000D02*
X144300000Y-93950000D01*
X145700000Y-91050000D02*
X144300000Y-91050000D01*
D11*
G04 #@! TO.C,D7*
X130000000Y-62250000D02*
X129750000Y-62750000D01*
X130000000Y-62250000D02*
X130250000Y-62750000D01*
X130250000Y-62750000D02*
X129750000Y-62750000D01*
D10*
X130700000Y-61050000D02*
X130700000Y-63950000D01*
X129300000Y-63950000D02*
X129300000Y-61050000D01*
X130700000Y-63950000D02*
X129300000Y-63950000D01*
X130700000Y-61050000D02*
X129300000Y-61050000D01*
D11*
G04 #@! TO.C,D8*
X130000000Y-122250000D02*
X129750000Y-122750000D01*
X130000000Y-122250000D02*
X130250000Y-122750000D01*
X130250000Y-122750000D02*
X129750000Y-122750000D01*
D10*
X130700000Y-121050000D02*
X130700000Y-123950000D01*
X129300000Y-123950000D02*
X129300000Y-121050000D01*
X130700000Y-123950000D02*
X129300000Y-123950000D01*
X130700000Y-121050000D02*
X129300000Y-121050000D01*
D11*
G04 #@! TO.C,D9*
X130000000Y-92250000D02*
X129750000Y-92750000D01*
X130000000Y-92250000D02*
X130250000Y-92750000D01*
X130250000Y-92750000D02*
X129750000Y-92750000D01*
D10*
X130700000Y-91050000D02*
X130700000Y-93950000D01*
X129300000Y-93950000D02*
X129300000Y-91050000D01*
X130700000Y-93950000D02*
X129300000Y-93950000D01*
X130700000Y-91050000D02*
X129300000Y-91050000D01*
D11*
G04 #@! TO.C,D10*
X122500000Y-77250000D02*
X122250000Y-77750000D01*
X122500000Y-77250000D02*
X122750000Y-77750000D01*
X122750000Y-77750000D02*
X122250000Y-77750000D01*
D10*
X123200000Y-76050000D02*
X123200000Y-78950000D01*
X121800000Y-78950000D02*
X121800000Y-76050000D01*
X123200000Y-78950000D02*
X121800000Y-78950000D01*
X123200000Y-76050000D02*
X121800000Y-76050000D01*
G04 #@! TO.C,D11*
X115700000Y-91050000D02*
X114300000Y-91050000D01*
X115700000Y-93950000D02*
X114300000Y-93950000D01*
X114300000Y-93950000D02*
X114300000Y-91050000D01*
X115700000Y-91050000D02*
X115700000Y-93950000D01*
D11*
X115250000Y-92750000D02*
X114750000Y-92750000D01*
X115000000Y-92250000D02*
X115250000Y-92750000D01*
X115000000Y-92250000D02*
X114750000Y-92750000D01*
D10*
G04 #@! TO.C,D6*
X138200000Y-76050000D02*
X136800000Y-76050000D01*
X138200000Y-78950000D02*
X136800000Y-78950000D01*
X136800000Y-78950000D02*
X136800000Y-76050000D01*
X138200000Y-76050000D02*
X138200000Y-78950000D01*
D11*
X137750000Y-77750000D02*
X137250000Y-77750000D01*
X137500000Y-77250000D02*
X137750000Y-77750000D01*
X137500000Y-77250000D02*
X137250000Y-77750000D01*
D10*
G04 #@! TO.C,D13*
X108200000Y-106050000D02*
X106800000Y-106050000D01*
X108200000Y-108950000D02*
X106800000Y-108950000D01*
X106800000Y-108950000D02*
X106800000Y-106050000D01*
X108200000Y-106050000D02*
X108200000Y-108950000D01*
D11*
X107750000Y-107750000D02*
X107250000Y-107750000D01*
X107500000Y-107250000D02*
X107750000Y-107750000D01*
X107500000Y-107250000D02*
X107250000Y-107750000D01*
D10*
G04 #@! TO.C,D14*
X115700000Y-121050000D02*
X114300000Y-121050000D01*
X115700000Y-123950000D02*
X114300000Y-123950000D01*
X114300000Y-123950000D02*
X114300000Y-121050000D01*
X115700000Y-121050000D02*
X115700000Y-123950000D01*
D11*
X115250000Y-122750000D02*
X114750000Y-122750000D01*
X115000000Y-122250000D02*
X115250000Y-122750000D01*
X115000000Y-122250000D02*
X114750000Y-122750000D01*
G04 #@! TO.C,D15*
X100000000Y-122250000D02*
X99750000Y-122750000D01*
X100000000Y-122250000D02*
X100250000Y-122750000D01*
X100250000Y-122750000D02*
X99750000Y-122750000D01*
D10*
X100700000Y-121050000D02*
X100700000Y-123950000D01*
X99300000Y-123950000D02*
X99300000Y-121050000D01*
X100700000Y-123950000D02*
X99300000Y-123950000D01*
X100700000Y-121050000D02*
X99300000Y-121050000D01*
D11*
G04 #@! TO.C,D16*
X139000000Y-144750000D02*
X138750000Y-145250000D01*
X139000000Y-144750000D02*
X139250000Y-145250000D01*
X139250000Y-145250000D02*
X138750000Y-145250000D01*
D10*
X139700000Y-143550000D02*
X139700000Y-146450000D01*
X138300000Y-146450000D02*
X138300000Y-143550000D01*
X139700000Y-146450000D02*
X138300000Y-146450000D01*
X139700000Y-143550000D02*
X138300000Y-143550000D01*
D11*
G04 #@! TO.C,D17*
X139000000Y-132250000D02*
X138750000Y-132750000D01*
X139000000Y-132250000D02*
X139250000Y-132750000D01*
X139250000Y-132750000D02*
X138750000Y-132750000D01*
D10*
X139700000Y-131050000D02*
X139700000Y-133950000D01*
X138300000Y-133950000D02*
X138300000Y-131050000D01*
X139700000Y-133950000D02*
X138300000Y-133950000D01*
X139700000Y-131050000D02*
X138300000Y-131050000D01*
G04 #@! TO.C,D18*
X121700000Y-143550000D02*
X120300000Y-143550000D01*
X121700000Y-146450000D02*
X120300000Y-146450000D01*
X120300000Y-146450000D02*
X120300000Y-143550000D01*
X121700000Y-143550000D02*
X121700000Y-146450000D01*
D11*
X121250000Y-145250000D02*
X120750000Y-145250000D01*
X121000000Y-144750000D02*
X121250000Y-145250000D01*
X121000000Y-144750000D02*
X120750000Y-145250000D01*
G04 #@! TO.C,D19*
X121000000Y-132250000D02*
X120750000Y-132750000D01*
X121000000Y-132250000D02*
X121250000Y-132750000D01*
X121250000Y-132750000D02*
X120750000Y-132750000D01*
D10*
X121700000Y-131050000D02*
X121700000Y-133950000D01*
X120300000Y-133950000D02*
X120300000Y-131050000D01*
X121700000Y-133950000D02*
X120300000Y-133950000D01*
X121700000Y-131050000D02*
X120300000Y-131050000D01*
G04 #@! TO.C,D12*
X123200000Y-106050000D02*
X121800000Y-106050000D01*
X123200000Y-108950000D02*
X121800000Y-108950000D01*
X121800000Y-108950000D02*
X121800000Y-106050000D01*
X123200000Y-106050000D02*
X123200000Y-108950000D01*
D11*
X122750000Y-107750000D02*
X122250000Y-107750000D01*
X122500000Y-107250000D02*
X122750000Y-107750000D01*
X122500000Y-107250000D02*
X122250000Y-107750000D01*
G04 #@! TD*
M02*
