G04 #@! TF.GenerationSoftware,KiCad,Pcbnew,(5.0.2)-1*
G04 #@! TF.CreationDate,2019-02-13T23:32:08+09:00*
G04 #@! TF.ProjectId,Tree,54726565-2e6b-4696-9361-645f70636258,rev?*
G04 #@! TF.SameCoordinates,Original*
G04 #@! TF.FileFunction,Legend,Bot*
G04 #@! TF.FilePolarity,Positive*
%FSLAX46Y46*%
G04 Gerber Fmt 4.6, Leading zero omitted, Abs format (unit mm)*
G04 Created by KiCad (PCBNEW (5.0.2)-1) date 2019/02/13 23:32:08*
%MOMM*%
%LPD*%
G01*
G04 APERTURE LIST*
%ADD10C,0.200000*%
%ADD11C,0.250000*%
%ADD12C,0.150000*%
%ADD13C,0.120000*%
G04 APERTURE END LIST*
D10*
X135901666Y-100476190D02*
X135943333Y-100428571D01*
X136032619Y-100380952D01*
X136127857Y-100380952D01*
X136229047Y-100428571D01*
X136282619Y-100476190D01*
X136342142Y-100571428D01*
X136354047Y-100666666D01*
X136318333Y-100761904D01*
X136276666Y-100809523D01*
X136187380Y-100857142D01*
X136092142Y-100857142D01*
X135990952Y-100809523D01*
X135937380Y-100761904D01*
X135889761Y-100380952D02*
X135937380Y-100761904D01*
X135895714Y-100809523D01*
X135848095Y-100809523D01*
X135746904Y-100761904D01*
X135687380Y-100666666D01*
X135657619Y-100428571D01*
X135735000Y-100285714D01*
X135865952Y-100190476D01*
X136050476Y-100142857D01*
X136246904Y-100190476D01*
X136401666Y-100285714D01*
X136514761Y-100428571D01*
X136586190Y-100619047D01*
X136562380Y-100809523D01*
X136485000Y-100952380D01*
X136354047Y-101047619D01*
X136169523Y-101095238D01*
X135973095Y-101047619D01*
X135818333Y-100952380D01*
X134907619Y-100904761D02*
X135008809Y-100952380D01*
X135199285Y-100952380D01*
X135288571Y-100904761D01*
X135324285Y-100809523D01*
X135276666Y-100428571D01*
X135217142Y-100333333D01*
X135115952Y-100285714D01*
X134925476Y-100285714D01*
X134836190Y-100333333D01*
X134800476Y-100428571D01*
X134812380Y-100523809D01*
X135300476Y-100619047D01*
X134532619Y-100952380D02*
X133925476Y-100285714D01*
X134449285Y-100285714D02*
X134008809Y-100952380D01*
X133687380Y-100285714D02*
X133306428Y-100285714D01*
X133502857Y-99952380D02*
X133610000Y-100809523D01*
X133574285Y-100904761D01*
X133485000Y-100952380D01*
X133389761Y-100952380D01*
X133306428Y-101047619D02*
X132544523Y-101047619D01*
X132336190Y-100904761D02*
X132246904Y-100952380D01*
X132056428Y-100952380D01*
X131955238Y-100904761D01*
X131895714Y-100809523D01*
X131889761Y-100761904D01*
X131925476Y-100666666D01*
X132014761Y-100619047D01*
X132157619Y-100619047D01*
X132246904Y-100571428D01*
X132282619Y-100476190D01*
X132276666Y-100428571D01*
X132217142Y-100333333D01*
X132115952Y-100285714D01*
X131973095Y-100285714D01*
X131883809Y-100333333D01*
X130973095Y-100285714D02*
X131056428Y-100952380D01*
X131401666Y-100285714D02*
X131467142Y-100809523D01*
X131431428Y-100904761D01*
X131342142Y-100952380D01*
X131199285Y-100952380D01*
X131098095Y-100904761D01*
X131044523Y-100857142D01*
X130580238Y-100952380D02*
X130496904Y-100285714D01*
X130455238Y-99952380D02*
X130508809Y-100000000D01*
X130467142Y-100047619D01*
X130413571Y-100000000D01*
X130455238Y-99952380D01*
X130467142Y-100047619D01*
X129276666Y-100047619D02*
X129223095Y-100000000D01*
X129121904Y-99952380D01*
X128883809Y-99952380D01*
X128794523Y-100000000D01*
X128752857Y-100047619D01*
X128717142Y-100142857D01*
X128729047Y-100238095D01*
X128794523Y-100380952D01*
X129437380Y-100952380D01*
X128818333Y-100952380D01*
X128074285Y-99952380D02*
X127979047Y-99952380D01*
X127889761Y-100000000D01*
X127848095Y-100047619D01*
X127812380Y-100142857D01*
X127788571Y-100333333D01*
X127818333Y-100571428D01*
X127889761Y-100761904D01*
X127949285Y-100857142D01*
X128002857Y-100904761D01*
X128104047Y-100952380D01*
X128199285Y-100952380D01*
X128288571Y-100904761D01*
X128330238Y-100857142D01*
X128365952Y-100761904D01*
X128389761Y-100571428D01*
X128360000Y-100333333D01*
X128288571Y-100142857D01*
X128229047Y-100047619D01*
X128175476Y-100000000D01*
X128074285Y-99952380D01*
X126913571Y-100952380D02*
X127485000Y-100952380D01*
X127199285Y-100952380D02*
X127074285Y-99952380D01*
X127187380Y-100095238D01*
X127294523Y-100190476D01*
X127395714Y-100238095D01*
X126437380Y-100952380D02*
X126246904Y-100952380D01*
X126145714Y-100904761D01*
X126092142Y-100857142D01*
X125979047Y-100714285D01*
X125907619Y-100523809D01*
X125860000Y-100142857D01*
X125895714Y-100047619D01*
X125937380Y-100000000D01*
X126026666Y-99952380D01*
X126217142Y-99952380D01*
X126318333Y-100000000D01*
X126371904Y-100047619D01*
X126431428Y-100142857D01*
X126461190Y-100380952D01*
X126425476Y-100476190D01*
X126383809Y-100523809D01*
X126294523Y-100571428D01*
X126104047Y-100571428D01*
X126002857Y-100523809D01*
X125949285Y-100476190D01*
X125889761Y-100380952D01*
X125520714Y-100857142D02*
X125479047Y-100904761D01*
X125532619Y-100952380D01*
X125574285Y-100904761D01*
X125520714Y-100857142D01*
X125532619Y-100952380D01*
X124740952Y-99952380D02*
X124645714Y-99952380D01*
X124556428Y-100000000D01*
X124514761Y-100047619D01*
X124479047Y-100142857D01*
X124455238Y-100333333D01*
X124485000Y-100571428D01*
X124556428Y-100761904D01*
X124615952Y-100857142D01*
X124669523Y-100904761D01*
X124770714Y-100952380D01*
X124865952Y-100952380D01*
X124955238Y-100904761D01*
X124996904Y-100857142D01*
X125032619Y-100761904D01*
X125056428Y-100571428D01*
X125026666Y-100333333D01*
X124955238Y-100142857D01*
X124895714Y-100047619D01*
X124842142Y-100000000D01*
X124740952Y-99952380D01*
X124038571Y-100047619D02*
X123985000Y-100000000D01*
X123883809Y-99952380D01*
X123645714Y-99952380D01*
X123556428Y-100000000D01*
X123514761Y-100047619D01*
X123479047Y-100142857D01*
X123490952Y-100238095D01*
X123556428Y-100380952D01*
X124199285Y-100952380D01*
X123580238Y-100952380D01*
D11*
X136697395Y-97452380D02*
X136125967Y-97452380D01*
X136536681Y-98452380D02*
X136411681Y-97452380D01*
X135917633Y-98452380D02*
X135834300Y-97785714D01*
X135858110Y-97976190D02*
X135798586Y-97880952D01*
X135745014Y-97833333D01*
X135643824Y-97785714D01*
X135548586Y-97785714D01*
X134911681Y-98404761D02*
X135012872Y-98452380D01*
X135203348Y-98452380D01*
X135292633Y-98404761D01*
X135328348Y-98309523D01*
X135280729Y-97928571D01*
X135221205Y-97833333D01*
X135120014Y-97785714D01*
X134929538Y-97785714D01*
X134840252Y-97833333D01*
X134804538Y-97928571D01*
X134816443Y-98023809D01*
X135304538Y-98119047D01*
X134054538Y-98404761D02*
X134155729Y-98452380D01*
X134346205Y-98452380D01*
X134435491Y-98404761D01*
X134471205Y-98309523D01*
X134423586Y-97928571D01*
X134364062Y-97833333D01*
X134262872Y-97785714D01*
X134072395Y-97785714D01*
X133983110Y-97833333D01*
X133947395Y-97928571D01*
X133959300Y-98023809D01*
X134447395Y-98119047D01*
X132179538Y-97500000D02*
X132268824Y-97452380D01*
X132411681Y-97452380D01*
X132560491Y-97500000D01*
X132667633Y-97595238D01*
X132727157Y-97690476D01*
X132798586Y-97880952D01*
X132816443Y-98023809D01*
X132792633Y-98214285D01*
X132756919Y-98309523D01*
X132673586Y-98404761D01*
X132536681Y-98452380D01*
X132441443Y-98452380D01*
X132292633Y-98404761D01*
X132239062Y-98357142D01*
X132197395Y-98023809D01*
X132387872Y-98023809D01*
X131822395Y-98452380D02*
X131739062Y-97785714D01*
X131762872Y-97976190D02*
X131703348Y-97880952D01*
X131649776Y-97833333D01*
X131548586Y-97785714D01*
X131453348Y-97785714D01*
X131060491Y-98452380D02*
X131149776Y-98404761D01*
X131191443Y-98357142D01*
X131227157Y-98261904D01*
X131191443Y-97976190D01*
X131131919Y-97880952D01*
X131078348Y-97833333D01*
X130977157Y-97785714D01*
X130834300Y-97785714D01*
X130745014Y-97833333D01*
X130703348Y-97880952D01*
X130667633Y-97976190D01*
X130703348Y-98261904D01*
X130762872Y-98357142D01*
X130816443Y-98404761D01*
X130917633Y-98452380D01*
X131060491Y-98452380D01*
X130310491Y-97785714D02*
X130203348Y-98452380D01*
X129953348Y-97976190D01*
X129822395Y-98452380D01*
X129548586Y-97785714D01*
X129250967Y-98452380D02*
X129167633Y-97785714D01*
X129125967Y-97452380D02*
X129179538Y-97500000D01*
X129137872Y-97547619D01*
X129084300Y-97500000D01*
X129125967Y-97452380D01*
X129137872Y-97547619D01*
X128691443Y-97785714D02*
X128774776Y-98452380D01*
X128703348Y-97880952D02*
X128649776Y-97833333D01*
X128548586Y-97785714D01*
X128405729Y-97785714D01*
X128316443Y-97833333D01*
X128280729Y-97928571D01*
X128346205Y-98452380D01*
X127358110Y-97785714D02*
X127459300Y-98595238D01*
X127518824Y-98690476D01*
X127572395Y-98738095D01*
X127673586Y-98785714D01*
X127816443Y-98785714D01*
X127905729Y-98738095D01*
X127435491Y-98404761D02*
X127536681Y-98452380D01*
X127727157Y-98452380D01*
X127816443Y-98404761D01*
X127858110Y-98357142D01*
X127893824Y-98261904D01*
X127858110Y-97976190D01*
X127798586Y-97880952D01*
X127745014Y-97833333D01*
X127643824Y-97785714D01*
X127453348Y-97785714D01*
X127364062Y-97833333D01*
X126215252Y-97785714D02*
X126060491Y-98452380D01*
X125739062Y-97785714D01*
X124917633Y-98452380D02*
X125489062Y-98452380D01*
X125203348Y-98452380D02*
X125078348Y-97452380D01*
X125191443Y-97595238D01*
X125298586Y-97690476D01*
X125399776Y-97738095D01*
X124477157Y-98357142D02*
X124435491Y-98404761D01*
X124489062Y-98452380D01*
X124530729Y-98404761D01*
X124477157Y-98357142D01*
X124489062Y-98452380D01*
X123697395Y-97452380D02*
X123602157Y-97452380D01*
X123512872Y-97500000D01*
X123471205Y-97547619D01*
X123435491Y-97642857D01*
X123411681Y-97833333D01*
X123441443Y-98071428D01*
X123512872Y-98261904D01*
X123572395Y-98357142D01*
X123625967Y-98404761D01*
X123727157Y-98452380D01*
X123822395Y-98452380D01*
X123911681Y-98404761D01*
X123953348Y-98357142D01*
X123989062Y-98261904D01*
X124012872Y-98071428D01*
X123983110Y-97833333D01*
X123911681Y-97642857D01*
X123852157Y-97547619D01*
X123798586Y-97500000D01*
X123697395Y-97452380D01*
D12*
X138261904Y-147500000D02*
X138357142Y-147452380D01*
X138500000Y-147452380D01*
X138642857Y-147500000D01*
X138738095Y-147595238D01*
X138785714Y-147690476D01*
X138833333Y-147880952D01*
X138833333Y-148023809D01*
X138785714Y-148214285D01*
X138738095Y-148309523D01*
X138642857Y-148404761D01*
X138500000Y-148452380D01*
X138404761Y-148452380D01*
X138261904Y-148404761D01*
X138214285Y-148357142D01*
X138214285Y-148023809D01*
X138404761Y-148023809D01*
X137785714Y-148452380D02*
X137785714Y-147452380D01*
X137214285Y-148452380D01*
X137214285Y-147452380D01*
X136738095Y-148452380D02*
X136738095Y-147452380D01*
X136500000Y-147452380D01*
X136357142Y-147500000D01*
X136261904Y-147595238D01*
X136214285Y-147690476D01*
X136166666Y-147880952D01*
X136166666Y-148023809D01*
X136214285Y-148214285D01*
X136261904Y-148309523D01*
X136357142Y-148404761D01*
X136500000Y-148452380D01*
X136738095Y-148452380D01*
X133714285Y-148404761D02*
X133571428Y-148452380D01*
X133333333Y-148452380D01*
X133238095Y-148404761D01*
X133190476Y-148357142D01*
X133142857Y-148261904D01*
X133142857Y-148166666D01*
X133190476Y-148071428D01*
X133238095Y-148023809D01*
X133333333Y-147976190D01*
X133523809Y-147928571D01*
X133619047Y-147880952D01*
X133666666Y-147833333D01*
X133714285Y-147738095D01*
X133714285Y-147642857D01*
X133666666Y-147547619D01*
X133619047Y-147500000D01*
X133523809Y-147452380D01*
X133285714Y-147452380D01*
X133142857Y-147500000D01*
X132714285Y-148452380D02*
X132714285Y-147452380D01*
X132476190Y-147452380D01*
X132333333Y-147500000D01*
X132238095Y-147595238D01*
X132190476Y-147690476D01*
X132142857Y-147880952D01*
X132142857Y-148023809D01*
X132190476Y-148214285D01*
X132238095Y-148309523D01*
X132333333Y-148404761D01*
X132476190Y-148452380D01*
X132714285Y-148452380D01*
X131761904Y-148166666D02*
X131285714Y-148166666D01*
X131857142Y-148452380D02*
X131523809Y-147452380D01*
X131190476Y-148452380D01*
X128690476Y-148404761D02*
X128547619Y-148452380D01*
X128309523Y-148452380D01*
X128214285Y-148404761D01*
X128166666Y-148357142D01*
X128119047Y-148261904D01*
X128119047Y-148166666D01*
X128166666Y-148071428D01*
X128214285Y-148023809D01*
X128309523Y-147976190D01*
X128500000Y-147928571D01*
X128595238Y-147880952D01*
X128642857Y-147833333D01*
X128690476Y-147738095D01*
X128690476Y-147642857D01*
X128642857Y-147547619D01*
X128595238Y-147500000D01*
X128500000Y-147452380D01*
X128261904Y-147452380D01*
X128119047Y-147500000D01*
X127119047Y-148357142D02*
X127166666Y-148404761D01*
X127309523Y-148452380D01*
X127404761Y-148452380D01*
X127547619Y-148404761D01*
X127642857Y-148309523D01*
X127690476Y-148214285D01*
X127738095Y-148023809D01*
X127738095Y-147880952D01*
X127690476Y-147690476D01*
X127642857Y-147595238D01*
X127547619Y-147500000D01*
X127404761Y-147452380D01*
X127309523Y-147452380D01*
X127166666Y-147500000D01*
X127119047Y-147547619D01*
X126214285Y-148452380D02*
X126690476Y-148452380D01*
X126690476Y-147452380D01*
X123833333Y-147452380D02*
X123500000Y-148452380D01*
X123166666Y-147452380D01*
X122261904Y-148357142D02*
X122309523Y-148404761D01*
X122452380Y-148452380D01*
X122547619Y-148452380D01*
X122690476Y-148404761D01*
X122785714Y-148309523D01*
X122833333Y-148214285D01*
X122880952Y-148023809D01*
X122880952Y-147880952D01*
X122833333Y-147690476D01*
X122785714Y-147595238D01*
X122690476Y-147500000D01*
X122547619Y-147452380D01*
X122452380Y-147452380D01*
X122309523Y-147500000D01*
X122261904Y-147547619D01*
X121261904Y-148357142D02*
X121309523Y-148404761D01*
X121452380Y-148452380D01*
X121547619Y-148452380D01*
X121690476Y-148404761D01*
X121785714Y-148309523D01*
X121833333Y-148214285D01*
X121880952Y-148023809D01*
X121880952Y-147880952D01*
X121833333Y-147690476D01*
X121785714Y-147595238D01*
X121690476Y-147500000D01*
X121547619Y-147452380D01*
X121452380Y-147452380D01*
X121309523Y-147500000D01*
X121261904Y-147547619D01*
G04 #@! TO.C,U1*
X126125000Y-144525000D02*
X126125000Y-143875000D01*
X133875000Y-144525000D02*
X133875000Y-143780000D01*
X133875000Y-125475000D02*
X133875000Y-126220000D01*
X126125000Y-125475000D02*
X126125000Y-126220000D01*
X126125000Y-144525000D02*
X133875000Y-144525000D01*
X126125000Y-125475000D02*
X133875000Y-125475000D01*
X126125000Y-143875000D02*
X124300000Y-143875000D01*
D13*
G04 #@! TO.C,JP3*
X131500000Y-119000000D02*
G75*
G03X132200000Y-119700000I700000J0D01*
G01*
X132800000Y-119700000D02*
G75*
G03X133500000Y-119000000I0J700000D01*
G01*
X133500000Y-117600000D02*
G75*
G03X132800000Y-116900000I-700000J0D01*
G01*
X132200000Y-116900000D02*
G75*
G03X131500000Y-117600000I0J-700000D01*
G01*
X132800000Y-116900000D02*
X132200000Y-116900000D01*
X133500000Y-119000000D02*
X133500000Y-117600000D01*
X132200000Y-119700000D02*
X132800000Y-119700000D01*
X131500000Y-117600000D02*
X131500000Y-119000000D01*
G04 #@! TO.C,C1*
X128550000Y-147700000D02*
X128550000Y-146300000D01*
X131450000Y-147700000D02*
X131450000Y-146300000D01*
X131450000Y-146300000D02*
X128550000Y-146300000D01*
X128550000Y-147700000D02*
X131450000Y-147700000D01*
G04 #@! TO.C,JP1*
X126500000Y-119000000D02*
G75*
G03X127200000Y-119700000I700000J0D01*
G01*
X127800000Y-119700000D02*
G75*
G03X128500000Y-119000000I0J700000D01*
G01*
X128500000Y-117600000D02*
G75*
G03X127800000Y-116900000I-700000J0D01*
G01*
X127200000Y-116900000D02*
G75*
G03X126500000Y-117600000I0J-700000D01*
G01*
X127800000Y-116900000D02*
X127200000Y-116900000D01*
X128500000Y-119000000D02*
X128500000Y-117600000D01*
X127200000Y-119700000D02*
X127800000Y-119700000D01*
X126500000Y-117600000D02*
X126500000Y-119000000D01*
G04 #@! TO.C,JP2*
X129000000Y-117600000D02*
X129000000Y-119000000D01*
X129700000Y-119700000D02*
X130300000Y-119700000D01*
X131000000Y-119000000D02*
X131000000Y-117600000D01*
X130300000Y-116900000D02*
X129700000Y-116900000D01*
X129700000Y-116900000D02*
G75*
G03X129000000Y-117600000I0J-700000D01*
G01*
X131000000Y-117600000D02*
G75*
G03X130300000Y-116900000I-700000J0D01*
G01*
X130300000Y-119700000D02*
G75*
G03X131000000Y-119000000I0J700000D01*
G01*
X129000000Y-119000000D02*
G75*
G03X129700000Y-119700000I700000J0D01*
G01*
G04 #@! TO.C,R1*
X129200000Y-114250000D02*
X127800000Y-114250000D01*
X129200000Y-111350000D02*
X127800000Y-111350000D01*
X127800000Y-111350000D02*
X127800000Y-114250000D01*
X129200000Y-114250000D02*
X129200000Y-111350000D01*
G04 #@! TO.C,R2*
X130700000Y-114250000D02*
X130700000Y-111350000D01*
X129300000Y-111350000D02*
X129300000Y-114250000D01*
X130700000Y-111350000D02*
X129300000Y-111350000D01*
X130700000Y-114250000D02*
X129300000Y-114250000D01*
G04 #@! TO.C,R3*
X132200000Y-114250000D02*
X130800000Y-114250000D01*
X132200000Y-111350000D02*
X130800000Y-111350000D01*
X130800000Y-111350000D02*
X130800000Y-114250000D01*
X132200000Y-114250000D02*
X132200000Y-111350000D01*
D12*
G04 #@! TO.C,TP5*
X121400000Y-152900000D02*
X123600000Y-152900000D01*
X121400000Y-149100000D02*
X121400000Y-152900000D01*
X123600000Y-149100000D02*
X121400000Y-149100000D01*
X123600000Y-152900000D02*
X123600000Y-149100000D01*
G04 #@! TO.C,TP6*
X128600000Y-152900000D02*
X128600000Y-149100000D01*
X128600000Y-149100000D02*
X126400000Y-149100000D01*
X126400000Y-149100000D02*
X126400000Y-152900000D01*
X126400000Y-152900000D02*
X128600000Y-152900000D01*
G04 #@! TO.C,TP7*
X131400000Y-152900000D02*
X133600000Y-152900000D01*
X131400000Y-149100000D02*
X131400000Y-152900000D01*
X133600000Y-149100000D02*
X131400000Y-149100000D01*
X133600000Y-152900000D02*
X133600000Y-149100000D01*
G04 #@! TO.C,TP8*
X136400000Y-152900000D02*
X138600000Y-152900000D01*
X136400000Y-149100000D02*
X136400000Y-152900000D01*
X138600000Y-149100000D02*
X136400000Y-149100000D01*
X138600000Y-152900000D02*
X138600000Y-149100000D01*
G04 #@! TO.C,D20*
X130000000Y-107750000D02*
X129750000Y-107250000D01*
X130000000Y-107750000D02*
X130250000Y-107250000D01*
X130250000Y-107250000D02*
X129750000Y-107250000D01*
D13*
X130700000Y-108950000D02*
X130700000Y-106050000D01*
X129300000Y-106050000D02*
X129300000Y-108950000D01*
X130700000Y-106050000D02*
X129300000Y-106050000D01*
X130700000Y-108950000D02*
X129300000Y-108950000D01*
G04 #@! TO.C,U1*
D12*
X130761904Y-123952380D02*
X130761904Y-124761904D01*
X130714285Y-124857142D01*
X130666666Y-124904761D01*
X130571428Y-124952380D01*
X130380952Y-124952380D01*
X130285714Y-124904761D01*
X130238095Y-124857142D01*
X130190476Y-124761904D01*
X130190476Y-123952380D01*
X129190476Y-124952380D02*
X129761904Y-124952380D01*
X129476190Y-124952380D02*
X129476190Y-123952380D01*
X129571428Y-124095238D01*
X129666666Y-124190476D01*
X129761904Y-124238095D01*
G04 #@! TO.C,JP3*
X132666666Y-114835714D02*
X132666666Y-115311904D01*
X132952380Y-114740476D02*
X131952380Y-115073809D01*
X132952380Y-115407142D01*
X131952380Y-115930952D02*
X131952380Y-116026190D01*
X132000000Y-116121428D01*
X132047619Y-116169047D01*
X132142857Y-116216666D01*
X132333333Y-116264285D01*
X132571428Y-116264285D01*
X132761904Y-116216666D01*
X132857142Y-116169047D01*
X132904761Y-116121428D01*
X132952380Y-116026190D01*
X132952380Y-115930952D01*
X132904761Y-115835714D01*
X132857142Y-115788095D01*
X132761904Y-115740476D01*
X132571428Y-115692857D01*
X132333333Y-115692857D01*
X132142857Y-115740476D01*
X132047619Y-115788095D01*
X132000000Y-115835714D01*
X131952380Y-115930952D01*
G04 #@! TO.C,D2*
X145738095Y-122952380D02*
X145738095Y-121952380D01*
X145500000Y-121952380D01*
X145357142Y-122000000D01*
X145261904Y-122095238D01*
X145214285Y-122190476D01*
X145166666Y-122380952D01*
X145166666Y-122523809D01*
X145214285Y-122714285D01*
X145261904Y-122809523D01*
X145357142Y-122904761D01*
X145500000Y-122952380D01*
X145738095Y-122952380D01*
X144785714Y-122047619D02*
X144738095Y-122000000D01*
X144642857Y-121952380D01*
X144404761Y-121952380D01*
X144309523Y-122000000D01*
X144261904Y-122047619D01*
X144214285Y-122142857D01*
X144214285Y-122238095D01*
X144261904Y-122380952D01*
X144833333Y-122952380D01*
X144214285Y-122952380D01*
G04 #@! TO.C,C1*
X130166666Y-146107142D02*
X130214285Y-146154761D01*
X130357142Y-146202380D01*
X130452380Y-146202380D01*
X130595238Y-146154761D01*
X130690476Y-146059523D01*
X130738095Y-145964285D01*
X130785714Y-145773809D01*
X130785714Y-145630952D01*
X130738095Y-145440476D01*
X130690476Y-145345238D01*
X130595238Y-145250000D01*
X130452380Y-145202380D01*
X130357142Y-145202380D01*
X130214285Y-145250000D01*
X130166666Y-145297619D01*
X129214285Y-146202380D02*
X129785714Y-146202380D01*
X129500000Y-146202380D02*
X129500000Y-145202380D01*
X129595238Y-145345238D01*
X129690476Y-145440476D01*
X129785714Y-145488095D01*
G04 #@! TO.C,JP1*
X127666666Y-114835714D02*
X127666666Y-115311904D01*
X127952380Y-114740476D02*
X126952380Y-115073809D01*
X127952380Y-115407142D01*
X127047619Y-115692857D02*
X127000000Y-115740476D01*
X126952380Y-115835714D01*
X126952380Y-116073809D01*
X127000000Y-116169047D01*
X127047619Y-116216666D01*
X127142857Y-116264285D01*
X127238095Y-116264285D01*
X127380952Y-116216666D01*
X127952380Y-115645238D01*
X127952380Y-116264285D01*
G04 #@! TO.C,JP2*
X130166666Y-114835714D02*
X130166666Y-115311904D01*
X130452380Y-114740476D02*
X129452380Y-115073809D01*
X130452380Y-115407142D01*
X130452380Y-116264285D02*
X130452380Y-115692857D01*
X130452380Y-115978571D02*
X129452380Y-115978571D01*
X129595238Y-115883333D01*
X129690476Y-115788095D01*
X129738095Y-115692857D01*
G04 #@! TO.C,R1*
X128952380Y-110133333D02*
X128476190Y-109800000D01*
X128952380Y-109561904D02*
X127952380Y-109561904D01*
X127952380Y-109942857D01*
X128000000Y-110038095D01*
X128047619Y-110085714D01*
X128142857Y-110133333D01*
X128285714Y-110133333D01*
X128380952Y-110085714D01*
X128428571Y-110038095D01*
X128476190Y-109942857D01*
X128476190Y-109561904D01*
X128952380Y-111085714D02*
X128952380Y-110514285D01*
X128952380Y-110800000D02*
X127952380Y-110800000D01*
X128095238Y-110704761D01*
X128190476Y-110609523D01*
X128238095Y-110514285D01*
G04 #@! TO.C,R2*
X130452380Y-110133333D02*
X129976190Y-109800000D01*
X130452380Y-109561904D02*
X129452380Y-109561904D01*
X129452380Y-109942857D01*
X129500000Y-110038095D01*
X129547619Y-110085714D01*
X129642857Y-110133333D01*
X129785714Y-110133333D01*
X129880952Y-110085714D01*
X129928571Y-110038095D01*
X129976190Y-109942857D01*
X129976190Y-109561904D01*
X129547619Y-110514285D02*
X129500000Y-110561904D01*
X129452380Y-110657142D01*
X129452380Y-110895238D01*
X129500000Y-110990476D01*
X129547619Y-111038095D01*
X129642857Y-111085714D01*
X129738095Y-111085714D01*
X129880952Y-111038095D01*
X130452380Y-110466666D01*
X130452380Y-111085714D01*
G04 #@! TO.C,R3*
X131952380Y-110133333D02*
X131476190Y-109800000D01*
X131952380Y-109561904D02*
X130952380Y-109561904D01*
X130952380Y-109942857D01*
X131000000Y-110038095D01*
X131047619Y-110085714D01*
X131142857Y-110133333D01*
X131285714Y-110133333D01*
X131380952Y-110085714D01*
X131428571Y-110038095D01*
X131476190Y-109942857D01*
X131476190Y-109561904D01*
X130952380Y-110466666D02*
X130952380Y-111085714D01*
X131333333Y-110752380D01*
X131333333Y-110895238D01*
X131380952Y-110990476D01*
X131428571Y-111038095D01*
X131523809Y-111085714D01*
X131761904Y-111085714D01*
X131857142Y-111038095D01*
X131904761Y-110990476D01*
X131952380Y-110895238D01*
X131952380Y-110609523D01*
X131904761Y-110514285D01*
X131857142Y-110466666D01*
G04 #@! TO.C,D1*
X160738095Y-122952380D02*
X160738095Y-121952380D01*
X160500000Y-121952380D01*
X160357142Y-122000000D01*
X160261904Y-122095238D01*
X160214285Y-122190476D01*
X160166666Y-122380952D01*
X160166666Y-122523809D01*
X160214285Y-122714285D01*
X160261904Y-122809523D01*
X160357142Y-122904761D01*
X160500000Y-122952380D01*
X160738095Y-122952380D01*
X159214285Y-122952380D02*
X159785714Y-122952380D01*
X159500000Y-122952380D02*
X159500000Y-121952380D01*
X159595238Y-122095238D01*
X159690476Y-122190476D01*
X159785714Y-122238095D01*
G04 #@! TO.C,D3*
X153213831Y-108069537D02*
X153213831Y-107069537D01*
X152975736Y-107069537D01*
X152832878Y-107117157D01*
X152737640Y-107212395D01*
X152690021Y-107307633D01*
X152642402Y-107498109D01*
X152642402Y-107640966D01*
X152690021Y-107831442D01*
X152737640Y-107926680D01*
X152832878Y-108021918D01*
X152975736Y-108069537D01*
X153213831Y-108069537D01*
X152309069Y-107069537D02*
X151690021Y-107069537D01*
X152023355Y-107450490D01*
X151880497Y-107450490D01*
X151785259Y-107498109D01*
X151737640Y-107545728D01*
X151690021Y-107640966D01*
X151690021Y-107879061D01*
X151737640Y-107974299D01*
X151785259Y-108021918D01*
X151880497Y-108069537D01*
X152166212Y-108069537D01*
X152261450Y-108021918D01*
X152309069Y-107974299D01*
G04 #@! TO.C,D4*
X138238095Y-107952380D02*
X138238095Y-106952380D01*
X138000000Y-106952380D01*
X137857142Y-107000000D01*
X137761904Y-107095238D01*
X137714285Y-107190476D01*
X137666666Y-107380952D01*
X137666666Y-107523809D01*
X137714285Y-107714285D01*
X137761904Y-107809523D01*
X137857142Y-107904761D01*
X138000000Y-107952380D01*
X138238095Y-107952380D01*
X136809523Y-107285714D02*
X136809523Y-107952380D01*
X137047619Y-106904761D02*
X137285714Y-107619047D01*
X136666666Y-107619047D01*
G04 #@! TO.C,D5*
X145738095Y-92952380D02*
X145738095Y-91952380D01*
X145500000Y-91952380D01*
X145357142Y-92000000D01*
X145261904Y-92095238D01*
X145214285Y-92190476D01*
X145166666Y-92380952D01*
X145166666Y-92523809D01*
X145214285Y-92714285D01*
X145261904Y-92809523D01*
X145357142Y-92904761D01*
X145500000Y-92952380D01*
X145738095Y-92952380D01*
X144261904Y-91952380D02*
X144738095Y-91952380D01*
X144785714Y-92428571D01*
X144738095Y-92380952D01*
X144642857Y-92333333D01*
X144404761Y-92333333D01*
X144309523Y-92380952D01*
X144261904Y-92428571D01*
X144214285Y-92523809D01*
X144214285Y-92761904D01*
X144261904Y-92857142D01*
X144309523Y-92904761D01*
X144404761Y-92952380D01*
X144642857Y-92952380D01*
X144738095Y-92904761D01*
X144785714Y-92857142D01*
G04 #@! TO.C,D7*
X130738095Y-62952380D02*
X130738095Y-61952380D01*
X130500000Y-61952380D01*
X130357142Y-62000000D01*
X130261904Y-62095238D01*
X130214285Y-62190476D01*
X130166666Y-62380952D01*
X130166666Y-62523809D01*
X130214285Y-62714285D01*
X130261904Y-62809523D01*
X130357142Y-62904761D01*
X130500000Y-62952380D01*
X130738095Y-62952380D01*
X129833333Y-61952380D02*
X129166666Y-61952380D01*
X129595238Y-62952380D01*
G04 #@! TO.C,D8*
X130738095Y-122952380D02*
X130738095Y-121952380D01*
X130500000Y-121952380D01*
X130357142Y-122000000D01*
X130261904Y-122095238D01*
X130214285Y-122190476D01*
X130166666Y-122380952D01*
X130166666Y-122523809D01*
X130214285Y-122714285D01*
X130261904Y-122809523D01*
X130357142Y-122904761D01*
X130500000Y-122952380D01*
X130738095Y-122952380D01*
X129595238Y-122380952D02*
X129690476Y-122333333D01*
X129738095Y-122285714D01*
X129785714Y-122190476D01*
X129785714Y-122142857D01*
X129738095Y-122047619D01*
X129690476Y-122000000D01*
X129595238Y-121952380D01*
X129404761Y-121952380D01*
X129309523Y-122000000D01*
X129261904Y-122047619D01*
X129214285Y-122142857D01*
X129214285Y-122190476D01*
X129261904Y-122285714D01*
X129309523Y-122333333D01*
X129404761Y-122380952D01*
X129595238Y-122380952D01*
X129690476Y-122428571D01*
X129738095Y-122476190D01*
X129785714Y-122571428D01*
X129785714Y-122761904D01*
X129738095Y-122857142D01*
X129690476Y-122904761D01*
X129595238Y-122952380D01*
X129404761Y-122952380D01*
X129309523Y-122904761D01*
X129261904Y-122857142D01*
X129214285Y-122761904D01*
X129214285Y-122571428D01*
X129261904Y-122476190D01*
X129309523Y-122428571D01*
X129404761Y-122380952D01*
G04 #@! TO.C,D9*
X130738095Y-92881669D02*
X130738095Y-91881669D01*
X130500000Y-91881669D01*
X130357142Y-91929289D01*
X130261904Y-92024527D01*
X130214285Y-92119765D01*
X130166666Y-92310241D01*
X130166666Y-92453098D01*
X130214285Y-92643574D01*
X130261904Y-92738812D01*
X130357142Y-92834050D01*
X130500000Y-92881669D01*
X130738095Y-92881669D01*
X129690476Y-92881669D02*
X129500000Y-92881669D01*
X129404761Y-92834050D01*
X129357142Y-92786431D01*
X129261904Y-92643574D01*
X129214285Y-92453098D01*
X129214285Y-92072146D01*
X129261904Y-91976908D01*
X129309523Y-91929289D01*
X129404761Y-91881669D01*
X129595238Y-91881669D01*
X129690476Y-91929289D01*
X129738095Y-91976908D01*
X129785714Y-92072146D01*
X129785714Y-92310241D01*
X129738095Y-92405479D01*
X129690476Y-92453098D01*
X129595238Y-92500717D01*
X129404761Y-92500717D01*
X129309523Y-92453098D01*
X129261904Y-92405479D01*
X129214285Y-92310241D01*
G04 #@! TO.C,D10*
X123714285Y-78045273D02*
X123714285Y-77045273D01*
X123476190Y-77045273D01*
X123333333Y-77092893D01*
X123238095Y-77188131D01*
X123190476Y-77283369D01*
X123142857Y-77473845D01*
X123142857Y-77616702D01*
X123190476Y-77807178D01*
X123238095Y-77902416D01*
X123333333Y-77997654D01*
X123476190Y-78045273D01*
X123714285Y-78045273D01*
X122190476Y-78045273D02*
X122761904Y-78045273D01*
X122476190Y-78045273D02*
X122476190Y-77045273D01*
X122571428Y-77188131D01*
X122666666Y-77283369D01*
X122761904Y-77330988D01*
X121571428Y-77045273D02*
X121476190Y-77045273D01*
X121380952Y-77092893D01*
X121333333Y-77140512D01*
X121285714Y-77235750D01*
X121238095Y-77426226D01*
X121238095Y-77664321D01*
X121285714Y-77854797D01*
X121333333Y-77950035D01*
X121380952Y-77997654D01*
X121476190Y-78045273D01*
X121571428Y-78045273D01*
X121666666Y-77997654D01*
X121714285Y-77950035D01*
X121761904Y-77854797D01*
X121809523Y-77664321D01*
X121809523Y-77426226D01*
X121761904Y-77235750D01*
X121714285Y-77140512D01*
X121666666Y-77092893D01*
X121571428Y-77045273D01*
G04 #@! TO.C,D11*
X116214285Y-92952380D02*
X116214285Y-91952380D01*
X115976190Y-91952380D01*
X115833333Y-92000000D01*
X115738095Y-92095238D01*
X115690476Y-92190476D01*
X115642857Y-92380952D01*
X115642857Y-92523809D01*
X115690476Y-92714285D01*
X115738095Y-92809523D01*
X115833333Y-92904761D01*
X115976190Y-92952380D01*
X116214285Y-92952380D01*
X114690476Y-92952380D02*
X115261904Y-92952380D01*
X114976190Y-92952380D02*
X114976190Y-91952380D01*
X115071428Y-92095238D01*
X115166666Y-92190476D01*
X115261904Y-92238095D01*
X113738095Y-92952380D02*
X114309523Y-92952380D01*
X114023809Y-92952380D02*
X114023809Y-91952380D01*
X114119047Y-92095238D01*
X114214285Y-92190476D01*
X114309523Y-92238095D01*
G04 #@! TO.C,D6*
X138238095Y-77952380D02*
X138238095Y-76952380D01*
X138000000Y-76952380D01*
X137857142Y-77000000D01*
X137761904Y-77095238D01*
X137714285Y-77190476D01*
X137666666Y-77380952D01*
X137666666Y-77523809D01*
X137714285Y-77714285D01*
X137761904Y-77809523D01*
X137857142Y-77904761D01*
X138000000Y-77952380D01*
X138238095Y-77952380D01*
X136809523Y-76952380D02*
X137000000Y-76952380D01*
X137095238Y-77000000D01*
X137142857Y-77047619D01*
X137238095Y-77190476D01*
X137285714Y-77380952D01*
X137285714Y-77761904D01*
X137238095Y-77857142D01*
X137190476Y-77904761D01*
X137095238Y-77952380D01*
X136904761Y-77952380D01*
X136809523Y-77904761D01*
X136761904Y-77857142D01*
X136714285Y-77761904D01*
X136714285Y-77523809D01*
X136761904Y-77428571D01*
X136809523Y-77380952D01*
X136904761Y-77333333D01*
X137095238Y-77333333D01*
X137190476Y-77380952D01*
X137238095Y-77428571D01*
X137285714Y-77523809D01*
G04 #@! TO.C,D13*
X108714285Y-107952380D02*
X108714285Y-106952380D01*
X108476190Y-106952380D01*
X108333333Y-107000000D01*
X108238095Y-107095238D01*
X108190476Y-107190476D01*
X108142857Y-107380952D01*
X108142857Y-107523809D01*
X108190476Y-107714285D01*
X108238095Y-107809523D01*
X108333333Y-107904761D01*
X108476190Y-107952380D01*
X108714285Y-107952380D01*
X107190476Y-107952380D02*
X107761904Y-107952380D01*
X107476190Y-107952380D02*
X107476190Y-106952380D01*
X107571428Y-107095238D01*
X107666666Y-107190476D01*
X107761904Y-107238095D01*
X106857142Y-106952380D02*
X106238095Y-106952380D01*
X106571428Y-107333333D01*
X106428571Y-107333333D01*
X106333333Y-107380952D01*
X106285714Y-107428571D01*
X106238095Y-107523809D01*
X106238095Y-107761904D01*
X106285714Y-107857142D01*
X106333333Y-107904761D01*
X106428571Y-107952380D01*
X106714285Y-107952380D01*
X106809523Y-107904761D01*
X106857142Y-107857142D01*
G04 #@! TO.C,D14*
X116214285Y-122952380D02*
X116214285Y-121952380D01*
X115976190Y-121952380D01*
X115833333Y-122000000D01*
X115738095Y-122095238D01*
X115690476Y-122190476D01*
X115642857Y-122380952D01*
X115642857Y-122523809D01*
X115690476Y-122714285D01*
X115738095Y-122809523D01*
X115833333Y-122904761D01*
X115976190Y-122952380D01*
X116214285Y-122952380D01*
X114690476Y-122952380D02*
X115261904Y-122952380D01*
X114976190Y-122952380D02*
X114976190Y-121952380D01*
X115071428Y-122095238D01*
X115166666Y-122190476D01*
X115261904Y-122238095D01*
X113833333Y-122285714D02*
X113833333Y-122952380D01*
X114071428Y-121904761D02*
X114309523Y-122619047D01*
X113690476Y-122619047D01*
G04 #@! TO.C,D15*
X101214285Y-122952380D02*
X101214285Y-121952380D01*
X100976190Y-121952380D01*
X100833333Y-122000000D01*
X100738095Y-122095238D01*
X100690476Y-122190476D01*
X100642857Y-122380952D01*
X100642857Y-122523809D01*
X100690476Y-122714285D01*
X100738095Y-122809523D01*
X100833333Y-122904761D01*
X100976190Y-122952380D01*
X101214285Y-122952380D01*
X99690476Y-122952380D02*
X100261904Y-122952380D01*
X99976190Y-122952380D02*
X99976190Y-121952380D01*
X100071428Y-122095238D01*
X100166666Y-122190476D01*
X100261904Y-122238095D01*
X98785714Y-121952380D02*
X99261904Y-121952380D01*
X99309523Y-122428571D01*
X99261904Y-122380952D01*
X99166666Y-122333333D01*
X98928571Y-122333333D01*
X98833333Y-122380952D01*
X98785714Y-122428571D01*
X98738095Y-122523809D01*
X98738095Y-122761904D01*
X98785714Y-122857142D01*
X98833333Y-122904761D01*
X98928571Y-122952380D01*
X99166666Y-122952380D01*
X99261904Y-122904761D01*
X99309523Y-122857142D01*
G04 #@! TO.C,D16*
X140214285Y-145452380D02*
X140214285Y-144452380D01*
X139976190Y-144452380D01*
X139833333Y-144500000D01*
X139738095Y-144595238D01*
X139690476Y-144690476D01*
X139642857Y-144880952D01*
X139642857Y-145023809D01*
X139690476Y-145214285D01*
X139738095Y-145309523D01*
X139833333Y-145404761D01*
X139976190Y-145452380D01*
X140214285Y-145452380D01*
X138690476Y-145452380D02*
X139261904Y-145452380D01*
X138976190Y-145452380D02*
X138976190Y-144452380D01*
X139071428Y-144595238D01*
X139166666Y-144690476D01*
X139261904Y-144738095D01*
X137833333Y-144452380D02*
X138023809Y-144452380D01*
X138119047Y-144500000D01*
X138166666Y-144547619D01*
X138261904Y-144690476D01*
X138309523Y-144880952D01*
X138309523Y-145261904D01*
X138261904Y-145357142D01*
X138214285Y-145404761D01*
X138119047Y-145452380D01*
X137928571Y-145452380D01*
X137833333Y-145404761D01*
X137785714Y-145357142D01*
X137738095Y-145261904D01*
X137738095Y-145023809D01*
X137785714Y-144928571D01*
X137833333Y-144880952D01*
X137928571Y-144833333D01*
X138119047Y-144833333D01*
X138214285Y-144880952D01*
X138261904Y-144928571D01*
X138309523Y-145023809D01*
G04 #@! TO.C,D17*
X140214285Y-132952380D02*
X140214285Y-131952380D01*
X139976190Y-131952380D01*
X139833333Y-132000000D01*
X139738095Y-132095238D01*
X139690476Y-132190476D01*
X139642857Y-132380952D01*
X139642857Y-132523809D01*
X139690476Y-132714285D01*
X139738095Y-132809523D01*
X139833333Y-132904761D01*
X139976190Y-132952380D01*
X140214285Y-132952380D01*
X138690476Y-132952380D02*
X139261904Y-132952380D01*
X138976190Y-132952380D02*
X138976190Y-131952380D01*
X139071428Y-132095238D01*
X139166666Y-132190476D01*
X139261904Y-132238095D01*
X138357142Y-131952380D02*
X137690476Y-131952380D01*
X138119047Y-132952380D01*
G04 #@! TO.C,D18*
X122214285Y-145452380D02*
X122214285Y-144452380D01*
X121976190Y-144452380D01*
X121833333Y-144500000D01*
X121738095Y-144595238D01*
X121690476Y-144690476D01*
X121642857Y-144880952D01*
X121642857Y-145023809D01*
X121690476Y-145214285D01*
X121738095Y-145309523D01*
X121833333Y-145404761D01*
X121976190Y-145452380D01*
X122214285Y-145452380D01*
X120690476Y-145452380D02*
X121261904Y-145452380D01*
X120976190Y-145452380D02*
X120976190Y-144452380D01*
X121071428Y-144595238D01*
X121166666Y-144690476D01*
X121261904Y-144738095D01*
X120119047Y-144880952D02*
X120214285Y-144833333D01*
X120261904Y-144785714D01*
X120309523Y-144690476D01*
X120309523Y-144642857D01*
X120261904Y-144547619D01*
X120214285Y-144500000D01*
X120119047Y-144452380D01*
X119928571Y-144452380D01*
X119833333Y-144500000D01*
X119785714Y-144547619D01*
X119738095Y-144642857D01*
X119738095Y-144690476D01*
X119785714Y-144785714D01*
X119833333Y-144833333D01*
X119928571Y-144880952D01*
X120119047Y-144880952D01*
X120214285Y-144928571D01*
X120261904Y-144976190D01*
X120309523Y-145071428D01*
X120309523Y-145261904D01*
X120261904Y-145357142D01*
X120214285Y-145404761D01*
X120119047Y-145452380D01*
X119928571Y-145452380D01*
X119833333Y-145404761D01*
X119785714Y-145357142D01*
X119738095Y-145261904D01*
X119738095Y-145071428D01*
X119785714Y-144976190D01*
X119833333Y-144928571D01*
X119928571Y-144880952D01*
G04 #@! TO.C,D19*
X122214285Y-132952380D02*
X122214285Y-131952380D01*
X121976190Y-131952380D01*
X121833333Y-132000000D01*
X121738095Y-132095238D01*
X121690476Y-132190476D01*
X121642857Y-132380952D01*
X121642857Y-132523809D01*
X121690476Y-132714285D01*
X121738095Y-132809523D01*
X121833333Y-132904761D01*
X121976190Y-132952380D01*
X122214285Y-132952380D01*
X120690476Y-132952380D02*
X121261904Y-132952380D01*
X120976190Y-132952380D02*
X120976190Y-131952380D01*
X121071428Y-132095238D01*
X121166666Y-132190476D01*
X121261904Y-132238095D01*
X120214285Y-132952380D02*
X120023809Y-132952380D01*
X119928571Y-132904761D01*
X119880952Y-132857142D01*
X119785714Y-132714285D01*
X119738095Y-132523809D01*
X119738095Y-132142857D01*
X119785714Y-132047619D01*
X119833333Y-132000000D01*
X119928571Y-131952380D01*
X120119047Y-131952380D01*
X120214285Y-132000000D01*
X120261904Y-132047619D01*
X120309523Y-132142857D01*
X120309523Y-132380952D01*
X120261904Y-132476190D01*
X120214285Y-132523809D01*
X120119047Y-132571428D01*
X119928571Y-132571428D01*
X119833333Y-132523809D01*
X119785714Y-132476190D01*
X119738095Y-132380952D01*
G04 #@! TO.C,D20*
X130452380Y-103285714D02*
X129452380Y-103285714D01*
X129452380Y-103523809D01*
X129500000Y-103666666D01*
X129595238Y-103761904D01*
X129690476Y-103809523D01*
X129880952Y-103857142D01*
X130023809Y-103857142D01*
X130214285Y-103809523D01*
X130309523Y-103761904D01*
X130404761Y-103666666D01*
X130452380Y-103523809D01*
X130452380Y-103285714D01*
X129547619Y-104238095D02*
X129500000Y-104285714D01*
X129452380Y-104380952D01*
X129452380Y-104619047D01*
X129500000Y-104714285D01*
X129547619Y-104761904D01*
X129642857Y-104809523D01*
X129738095Y-104809523D01*
X129880952Y-104761904D01*
X130452380Y-104190476D01*
X130452380Y-104809523D01*
X129452380Y-105428571D02*
X129452380Y-105523809D01*
X129500000Y-105619047D01*
X129547619Y-105666666D01*
X129642857Y-105714285D01*
X129833333Y-105761904D01*
X130071428Y-105761904D01*
X130261904Y-105714285D01*
X130357142Y-105666666D01*
X130404761Y-105619047D01*
X130452380Y-105523809D01*
X130452380Y-105428571D01*
X130404761Y-105333333D01*
X130357142Y-105285714D01*
X130261904Y-105238095D01*
X130071428Y-105190476D01*
X129833333Y-105190476D01*
X129642857Y-105238095D01*
X129547619Y-105285714D01*
X129500000Y-105333333D01*
X129452380Y-105428571D01*
G04 #@! TO.C,D12*
X123714285Y-107952380D02*
X123714285Y-106952380D01*
X123476190Y-106952380D01*
X123333333Y-107000000D01*
X123238095Y-107095238D01*
X123190476Y-107190476D01*
X123142857Y-107380952D01*
X123142857Y-107523809D01*
X123190476Y-107714285D01*
X123238095Y-107809523D01*
X123333333Y-107904761D01*
X123476190Y-107952380D01*
X123714285Y-107952380D01*
X122190476Y-107952380D02*
X122761904Y-107952380D01*
X122476190Y-107952380D02*
X122476190Y-106952380D01*
X122571428Y-107095238D01*
X122666666Y-107190476D01*
X122761904Y-107238095D01*
X121809523Y-107047619D02*
X121761904Y-107000000D01*
X121666666Y-106952380D01*
X121428571Y-106952380D01*
X121333333Y-107000000D01*
X121285714Y-107047619D01*
X121238095Y-107142857D01*
X121238095Y-107238095D01*
X121285714Y-107380952D01*
X121857142Y-107952380D01*
X121238095Y-107952380D01*
G04 #@! TD*
M02*
