G04 #@! TF.GenerationSoftware,KiCad,Pcbnew,(5.0.2)-1*
G04 #@! TF.CreationDate,2019-02-13T23:32:08+09:00*
G04 #@! TF.ProjectId,Tree,54726565-2e6b-4696-9361-645f70636258,rev?*
G04 #@! TF.SameCoordinates,Original*
G04 #@! TF.FileFunction,Copper,L1,Top*
G04 #@! TF.FilePolarity,Positive*
%FSLAX46Y46*%
G04 Gerber Fmt 4.6, Leading zero omitted, Abs format (unit mm)*
G04 Created by KiCad (PCBNEW (5.0.2)-1) date 2019/02/13 23:32:08*
%MOMM*%
%LPD*%
G01*
G04 APERTURE LIST*
G04 #@! TA.AperFunction,SMDPad,CuDef*
%ADD10R,0.800000X0.800000*%
G04 #@! TD*
G04 #@! TA.AperFunction,SMDPad,CuDef*
%ADD11R,1.800000X3.400000*%
G04 #@! TD*
G04 #@! TA.AperFunction,ViaPad*
%ADD12C,0.800000*%
G04 #@! TD*
G04 #@! TA.AperFunction,Conductor*
%ADD13C,0.500000*%
G04 #@! TD*
G04 #@! TA.AperFunction,Conductor*
%ADD14C,0.250000*%
G04 #@! TD*
G04 #@! TA.AperFunction,Conductor*
%ADD15C,0.254000*%
G04 #@! TD*
G04 APERTURE END LIST*
D10*
G04 #@! TO.P,D2,1*
G04 #@! TO.N,Net-(D1-Pad1)*
X145000000Y-121700001D03*
G04 #@! TO.P,D2,2*
G04 #@! TO.N,Net-(D17-Pad2)*
X145000000Y-123299999D03*
G04 #@! TD*
D11*
G04 #@! TO.P,TP4,1*
G04 #@! TO.N,GND*
X137500000Y-151000000D03*
G04 #@! TD*
G04 #@! TO.P,TP1,1*
G04 #@! TO.N,+5V*
X122500000Y-151000000D03*
G04 #@! TD*
G04 #@! TO.P,TP2,1*
G04 #@! TO.N,SCL*
X127500000Y-151000000D03*
G04 #@! TD*
G04 #@! TO.P,TP3,1*
G04 #@! TO.N,SDA*
X132500000Y-151000000D03*
G04 #@! TD*
D10*
G04 #@! TO.P,D1,2*
G04 #@! TO.N,Net-(D1-Pad2)*
X160000000Y-123300000D03*
G04 #@! TO.P,D1,1*
G04 #@! TO.N,Net-(D1-Pad1)*
X160000000Y-121700000D03*
G04 #@! TD*
G04 #@! TO.P,D3,2*
G04 #@! TO.N,Net-(D18-Pad2)*
X152500000Y-108299999D03*
G04 #@! TO.P,D3,1*
G04 #@! TO.N,Net-(D1-Pad1)*
X152500000Y-106700001D03*
G04 #@! TD*
G04 #@! TO.P,D4,1*
G04 #@! TO.N,Net-(D1-Pad1)*
X137500000Y-106700000D03*
G04 #@! TO.P,D4,2*
G04 #@! TO.N,Net-(D19-Pad2)*
X137500000Y-108300000D03*
G04 #@! TD*
G04 #@! TO.P,D5,2*
G04 #@! TO.N,Net-(D5-Pad2)*
X145000000Y-93300000D03*
G04 #@! TO.P,D5,1*
G04 #@! TO.N,Net-(D1-Pad1)*
X145000000Y-91700000D03*
G04 #@! TD*
G04 #@! TO.P,D7,2*
G04 #@! TO.N,Net-(D7-Pad2)*
X130000000Y-63300000D03*
G04 #@! TO.P,D7,1*
G04 #@! TO.N,Net-(D1-Pad1)*
X130000000Y-61700000D03*
G04 #@! TD*
G04 #@! TO.P,D8,2*
G04 #@! TO.N,Net-(D8-Pad2)*
X130000000Y-123300000D03*
G04 #@! TO.P,D8,1*
G04 #@! TO.N,Net-(D1-Pad1)*
X130000000Y-121700000D03*
G04 #@! TD*
G04 #@! TO.P,D9,2*
G04 #@! TO.N,Net-(D9-Pad2)*
X130000000Y-93299999D03*
G04 #@! TO.P,D9,1*
G04 #@! TO.N,Net-(D1-Pad1)*
X130000000Y-91700001D03*
G04 #@! TD*
G04 #@! TO.P,D10,2*
G04 #@! TO.N,Net-(D10-Pad2)*
X122500000Y-78299999D03*
G04 #@! TO.P,D10,1*
G04 #@! TO.N,Net-(D1-Pad1)*
X122500000Y-76700001D03*
G04 #@! TD*
G04 #@! TO.P,D11,1*
G04 #@! TO.N,Net-(D1-Pad1)*
X115000000Y-91700000D03*
G04 #@! TO.P,D11,2*
G04 #@! TO.N,Net-(D11-Pad2)*
X115000000Y-93300000D03*
G04 #@! TD*
G04 #@! TO.P,D6,1*
G04 #@! TO.N,Net-(D1-Pad1)*
X137500000Y-76700000D03*
G04 #@! TO.P,D6,2*
G04 #@! TO.N,Net-(D6-Pad2)*
X137500000Y-78300000D03*
G04 #@! TD*
G04 #@! TO.P,D13,1*
G04 #@! TO.N,Net-(D1-Pad1)*
X107500000Y-106700000D03*
G04 #@! TO.P,D13,2*
G04 #@! TO.N,Net-(D13-Pad2)*
X107500000Y-108300000D03*
G04 #@! TD*
G04 #@! TO.P,D14,1*
G04 #@! TO.N,Net-(D1-Pad1)*
X115000000Y-121700000D03*
G04 #@! TO.P,D14,2*
G04 #@! TO.N,Net-(D14-Pad2)*
X115000000Y-123300000D03*
G04 #@! TD*
G04 #@! TO.P,D15,2*
G04 #@! TO.N,Net-(D15-Pad2)*
X100000000Y-123300000D03*
G04 #@! TO.P,D15,1*
G04 #@! TO.N,Net-(D1-Pad1)*
X100000000Y-121700000D03*
G04 #@! TD*
G04 #@! TO.P,D16,2*
G04 #@! TO.N,Net-(D1-Pad2)*
X139000000Y-145800000D03*
G04 #@! TO.P,D16,1*
G04 #@! TO.N,Net-(D16-Pad1)*
X139000000Y-144200000D03*
G04 #@! TD*
G04 #@! TO.P,D17,2*
G04 #@! TO.N,Net-(D17-Pad2)*
X139000000Y-133300000D03*
G04 #@! TO.P,D17,1*
G04 #@! TO.N,Net-(D16-Pad1)*
X139000000Y-131700000D03*
G04 #@! TD*
G04 #@! TO.P,D18,1*
G04 #@! TO.N,Net-(D16-Pad1)*
X121000000Y-144200000D03*
G04 #@! TO.P,D18,2*
G04 #@! TO.N,Net-(D18-Pad2)*
X121000000Y-145800000D03*
G04 #@! TD*
G04 #@! TO.P,D19,2*
G04 #@! TO.N,Net-(D19-Pad2)*
X121000000Y-133300000D03*
G04 #@! TO.P,D19,1*
G04 #@! TO.N,Net-(D16-Pad1)*
X121000000Y-131700000D03*
G04 #@! TD*
G04 #@! TO.P,D12,1*
G04 #@! TO.N,Net-(D1-Pad1)*
X122500000Y-106700000D03*
G04 #@! TO.P,D12,2*
G04 #@! TO.N,Net-(D12-Pad2)*
X122500000Y-108300000D03*
G04 #@! TD*
D12*
G04 #@! TO.N,+5V*
X125000000Y-146500000D03*
X135000000Y-146500000D03*
X122500000Y-151000000D03*
G04 #@! TO.N,GND*
X130000000Y-151000000D03*
X125000000Y-151000000D03*
X135000000Y-151000000D03*
X137500000Y-151000000D03*
G04 #@! TO.N,Net-(D1-Pad1)*
X122500000Y-105500000D03*
X137500000Y-105500000D03*
X130000000Y-94500000D03*
X130000000Y-60500000D03*
X130000000Y-90500000D03*
X125000000Y-125000000D03*
G04 #@! TO.N,Net-(D1-Pad2)*
X131000000Y-134000000D03*
X139000000Y-147000000D03*
G04 #@! TO.N,Net-(D5-Pad2)*
X131000000Y-130000000D03*
G04 #@! TO.N,Net-(D6-Pad2)*
X131000000Y-129000000D03*
G04 #@! TO.N,Net-(D7-Pad2)*
X131000000Y-128000000D03*
G04 #@! TO.N,Net-(D8-Pad2)*
X130000000Y-128000000D03*
G04 #@! TO.N,Net-(D9-Pad2)*
X129000000Y-128000000D03*
G04 #@! TO.N,Net-(D10-Pad2)*
X129000000Y-129000000D03*
G04 #@! TO.N,Net-(D11-Pad2)*
X129000000Y-130000000D03*
G04 #@! TO.N,SCL*
X127500000Y-151000000D03*
G04 #@! TO.N,SDA*
X132500000Y-151000000D03*
G04 #@! TO.N,Net-(D17-Pad2)*
X131000000Y-133000000D03*
G04 #@! TO.N,Net-(D18-Pad2)*
X131000000Y-132000000D03*
X121000000Y-147000000D03*
G04 #@! TO.N,Net-(D19-Pad2)*
X131000000Y-131000000D03*
G04 #@! TO.N,Net-(D12-Pad2)*
X129000000Y-131000000D03*
G04 #@! TO.N,Net-(D13-Pad2)*
X129000000Y-132000000D03*
G04 #@! TO.N,Net-(D14-Pad2)*
X129000000Y-133000000D03*
G04 #@! TO.N,Net-(D15-Pad2)*
X129000000Y-134000000D03*
G04 #@! TO.N,Net-(D16-Pad1)*
X121000000Y-143000000D03*
X139000000Y-130500000D03*
X121000000Y-130500000D03*
X139000000Y-143000000D03*
G04 #@! TD*
D13*
G04 #@! TO.N,+5V*
X132250000Y-146500000D02*
X135000000Y-146500000D01*
X132000000Y-146250000D02*
X132250000Y-146500000D01*
X132250000Y-143500000D02*
X132000000Y-143750000D01*
X135500000Y-143500000D02*
X132250000Y-143500000D01*
X130250000Y-137750000D02*
X135750000Y-143250000D01*
X129750000Y-137750000D02*
X130250000Y-137750000D01*
X132000000Y-143750000D02*
X132000000Y-146250000D01*
X124250000Y-143250000D02*
X129750000Y-137750000D01*
X127750000Y-146500000D02*
X128000000Y-146250000D01*
X125000000Y-146500000D02*
X127750000Y-146500000D01*
X128000000Y-146250000D02*
X128000000Y-143750000D01*
X128000000Y-143750000D02*
X127750000Y-143500000D01*
X127750000Y-143500000D02*
X124500000Y-143500000D01*
X135750000Y-143250000D02*
X135500000Y-143500000D01*
X124500000Y-143500000D02*
X124250000Y-143250000D01*
D14*
G04 #@! TO.N,GND*
X137500000Y-151000000D02*
X137500000Y-151000000D01*
X137500000Y-151000000D02*
X135000000Y-151000000D01*
G04 #@! TO.N,Net-(D1-Pad1)*
X145650001Y-121700000D02*
X160000000Y-121700000D01*
X145000000Y-121700001D02*
X145650001Y-121700000D01*
X122500000Y-76050001D02*
X127500000Y-71050001D01*
X122500000Y-76700001D02*
X122500000Y-76050001D01*
X129350000Y-61700000D02*
X130000000Y-61700000D01*
X127500000Y-63550000D02*
X129350000Y-61700000D01*
X127500000Y-71050001D02*
X127500000Y-63550000D01*
X130650000Y-61700000D02*
X132500000Y-63550000D01*
X130000000Y-61700000D02*
X130650000Y-61700000D01*
X137500000Y-76050000D02*
X137500000Y-76700000D01*
X132500000Y-71050000D02*
X137500000Y-76050000D01*
X132500000Y-63550000D02*
X132500000Y-71050000D01*
X121850000Y-76700001D02*
X120000000Y-78550001D01*
X122500000Y-76700001D02*
X121850000Y-76700001D01*
X115000000Y-91050000D02*
X115000000Y-91700000D01*
X120000000Y-86050000D02*
X115000000Y-91050000D01*
X120000000Y-78550001D02*
X120000000Y-86050000D01*
X138150000Y-76700000D02*
X140000000Y-78550000D01*
X137500000Y-76700000D02*
X138150000Y-76700000D01*
X145000000Y-91050000D02*
X145000000Y-91700000D01*
X140000000Y-86050000D02*
X145000000Y-91050000D01*
X140000000Y-78550000D02*
X140000000Y-86050000D01*
X106850000Y-106700000D02*
X105000000Y-108550000D01*
X107500000Y-106700000D02*
X106850000Y-106700000D01*
X100000000Y-121050000D02*
X100000000Y-121700000D01*
X105000000Y-116050000D02*
X100000000Y-121050000D01*
X105000000Y-108550000D02*
X105000000Y-116050000D01*
X153150000Y-106700001D02*
X155000000Y-108550001D01*
X152500000Y-106700001D02*
X153150000Y-106700001D01*
X160000000Y-121050000D02*
X160000000Y-121700000D01*
X155000000Y-116050000D02*
X160000000Y-121050000D01*
X155000000Y-108550001D02*
X155000000Y-116050000D01*
X114350000Y-91700000D02*
X112500000Y-93550000D01*
X115000000Y-91700000D02*
X114350000Y-91700000D01*
X107500000Y-106050000D02*
X107500000Y-106700000D01*
X112500000Y-93550000D02*
X112500000Y-101050000D01*
X145650000Y-91700000D02*
X147500000Y-93550000D01*
X145000000Y-91700000D02*
X145650000Y-91700000D01*
X152500000Y-106050001D02*
X152500000Y-106700001D01*
X147500000Y-101050001D02*
X152500000Y-106050001D01*
X147500000Y-93550000D02*
X147500000Y-101050001D01*
X122500000Y-105500000D02*
X122500000Y-106700000D01*
X137500000Y-105500000D02*
X137500000Y-106700000D01*
X115000000Y-121700000D02*
X100000000Y-121700000D01*
X130000000Y-120500000D02*
X130000000Y-94500000D01*
X130000000Y-120500000D02*
X130000000Y-121700000D01*
X130000000Y-61700000D02*
X130000000Y-60500000D01*
X130000000Y-91700001D02*
X130000000Y-90500000D01*
X112500000Y-101050000D02*
X108550000Y-105000000D01*
X108550000Y-105000000D02*
X107500000Y-106050000D01*
X120000000Y-117500000D02*
X122500000Y-117500000D01*
X120000000Y-115000000D02*
X120000000Y-117500000D01*
X117500000Y-115000000D02*
X120000000Y-115000000D01*
X117500000Y-112500000D02*
X117500000Y-115000000D01*
X108550000Y-105000000D02*
X110000000Y-105000000D01*
X110000000Y-105000000D02*
X110000000Y-107500000D01*
X115000000Y-112500000D02*
X117500000Y-112500000D01*
X110000000Y-107500000D02*
X112500000Y-107500000D01*
X112500000Y-110000000D02*
X115000000Y-110000000D01*
X112500000Y-107500000D02*
X112500000Y-110000000D01*
X115000000Y-110000000D02*
X115000000Y-112500000D01*
X122500000Y-117500000D02*
X122500000Y-120000000D01*
X125275000Y-122775000D02*
X122500000Y-120000000D01*
X125275000Y-124725000D02*
X125275000Y-124500000D01*
X125000000Y-125000000D02*
X125275000Y-124725000D01*
X125275000Y-124500000D02*
X125275000Y-122775000D01*
G04 #@! TO.N,Net-(D1-Pad2)*
X131000000Y-134000000D02*
X131565685Y-134000000D01*
X131565685Y-134000000D02*
X141315685Y-124250000D01*
X141315685Y-124250000D02*
X159050000Y-124250000D01*
X159050000Y-124250000D02*
X160000000Y-123300000D01*
X139000000Y-145800000D02*
X139000000Y-147000000D01*
G04 #@! TO.N,Net-(D5-Pad2)*
X133000000Y-105950000D02*
X145000000Y-93950000D01*
X145000000Y-93950000D02*
X145000000Y-93300000D01*
X133000000Y-128565685D02*
X133000000Y-105950000D01*
X131000000Y-130000000D02*
X131565685Y-130000000D01*
X131565685Y-130000000D02*
X133000000Y-128565685D01*
G04 #@! TO.N,Net-(D6-Pad2)*
X131000000Y-129000000D02*
X131565685Y-129000000D01*
X137500000Y-78950000D02*
X137500000Y-78300000D01*
X131000000Y-85450000D02*
X137500000Y-78950000D01*
X131565685Y-129000000D02*
X132000000Y-128565685D01*
X131000000Y-88500000D02*
X131000000Y-85450000D01*
X132000000Y-89500000D02*
X131000000Y-88500000D01*
X132000000Y-128565685D02*
X132000000Y-89500000D01*
G04 #@! TO.N,Net-(D7-Pad2)*
X131000000Y-90000000D02*
X130000000Y-89000000D01*
X130000000Y-89000000D02*
X130000000Y-63300000D01*
X131000000Y-92000000D02*
X130500000Y-92500000D01*
X131000000Y-92000000D02*
X131000000Y-90000000D01*
X131000000Y-128000000D02*
X131000000Y-92000000D01*
X130500000Y-92500000D02*
X130250000Y-92500000D01*
X129500000Y-92500000D02*
X129750000Y-92500000D01*
X129000000Y-92000000D02*
X129500000Y-92500000D01*
X130000000Y-89000000D02*
X129000000Y-90000000D01*
X129000000Y-90000000D02*
X129000000Y-92000000D01*
X130250000Y-92500000D02*
X130100000Y-92500000D01*
X129750000Y-92500000D02*
X129900000Y-92500000D01*
G04 #@! TO.N,Net-(D8-Pad2)*
X130000000Y-123950000D02*
X130000000Y-128000000D01*
X130000000Y-123300000D02*
X130000000Y-123950000D01*
G04 #@! TO.N,Net-(D9-Pad2)*
X129000000Y-93649999D02*
X129350000Y-93299999D01*
X129350000Y-93299999D02*
X130000000Y-93299999D01*
X129000000Y-128000000D02*
X129000000Y-93649999D01*
G04 #@! TO.N,Net-(D10-Pad2)*
X122500000Y-79000000D02*
X122500000Y-78299999D01*
X128434315Y-129000000D02*
X128000000Y-128565685D01*
X128000000Y-128565685D02*
X128000000Y-89540364D01*
X128000000Y-89540364D02*
X129000000Y-88540364D01*
X129000000Y-129000000D02*
X128434315Y-129000000D01*
X129000000Y-88540364D02*
X129000000Y-85500000D01*
X129000000Y-85500000D02*
X122500000Y-79000000D01*
G04 #@! TO.N,Net-(D11-Pad2)*
X129000000Y-130000000D02*
X128434315Y-130000000D01*
X128434315Y-130000000D02*
X127000000Y-128565685D01*
X127000000Y-128565685D02*
X127000000Y-105950000D01*
X127000000Y-105950000D02*
X115000000Y-93950000D01*
X115000000Y-93950000D02*
X115000000Y-93300000D01*
G04 #@! TO.N,SDA*
X132000000Y-151000000D02*
X132500000Y-151000000D01*
X132500000Y-151000000D02*
X132000000Y-151000000D01*
G04 #@! TO.N,Net-(D17-Pad2)*
X131565685Y-133000000D02*
X131000000Y-133000000D01*
X145000000Y-123299999D02*
X141265686Y-123299999D01*
X141265686Y-123299999D02*
X131565685Y-133000000D01*
X130274999Y-134774999D02*
X130274999Y-133159316D01*
X133200000Y-133300000D02*
X131500000Y-135000000D01*
X130274999Y-133159316D02*
X130434315Y-133000000D01*
X130434315Y-133000000D02*
X131000000Y-133000000D01*
X139000000Y-133300000D02*
X133200000Y-133300000D01*
X130500000Y-135000000D02*
X130274999Y-134774999D01*
X131500000Y-135000000D02*
X130500000Y-135000000D01*
G04 #@! TO.N,Net-(D18-Pad2)*
X131565685Y-132000000D02*
X135065685Y-128500000D01*
X152500000Y-108299999D02*
X152500000Y-108949999D01*
X152500000Y-108949999D02*
X135065685Y-126384314D01*
X135065685Y-126384314D02*
X135065685Y-128500000D01*
X131000000Y-132000000D02*
X131565685Y-132000000D01*
X121000000Y-145800000D02*
X121000000Y-147000000D01*
G04 #@! TO.N,Net-(D19-Pad2)*
X137500000Y-108300000D02*
X137500000Y-108950000D01*
X137500000Y-108950000D02*
X134000000Y-112450000D01*
X134000000Y-112450000D02*
X134000000Y-128565685D01*
X134000000Y-128565685D02*
X131565685Y-131000000D01*
X131565685Y-131000000D02*
X131000000Y-131000000D01*
X129725001Y-132500000D02*
X129725001Y-132274999D01*
X129725001Y-132500000D02*
X129725001Y-131274999D01*
X130000000Y-131000000D02*
X131000000Y-131000000D01*
X129725001Y-131274999D02*
X130000000Y-131000000D01*
X121000000Y-133300000D02*
X126800000Y-133300000D01*
X126800000Y-133300000D02*
X128500000Y-135000000D01*
X129725001Y-134774999D02*
X129725001Y-132500000D01*
X129500000Y-135000000D02*
X129725001Y-134774999D01*
X128500000Y-135000000D02*
X129500000Y-135000000D01*
G04 #@! TO.N,Net-(D12-Pad2)*
X122500000Y-108300000D02*
X122500000Y-108950000D01*
X122500000Y-108950000D02*
X126000000Y-112450000D01*
X126000000Y-112450000D02*
X126000000Y-128565685D01*
X126000000Y-128565685D02*
X128434315Y-131000000D01*
X128434315Y-131000000D02*
X129000000Y-131000000D01*
G04 #@! TO.N,Net-(D13-Pad2)*
X129000000Y-132000000D02*
X128434315Y-132000000D01*
X125000000Y-126450000D02*
X125000000Y-128565685D01*
X107500000Y-108950000D02*
X125000000Y-126450000D01*
X128434315Y-132000000D02*
X125000000Y-128565685D01*
X107500000Y-108300000D02*
X107500000Y-108950000D01*
G04 #@! TO.N,Net-(D14-Pad2)*
X128434315Y-133000000D02*
X129000000Y-133000000D01*
X118734315Y-123300000D02*
X128434315Y-133000000D01*
X115000000Y-123300000D02*
X118734315Y-123300000D01*
G04 #@! TO.N,Net-(D15-Pad2)*
X129000000Y-134000000D02*
X128434315Y-134000000D01*
X128434315Y-134000000D02*
X118684315Y-124250000D01*
X118684315Y-124250000D02*
X100950000Y-124250000D01*
X100950000Y-124250000D02*
X100000000Y-123300000D01*
G04 #@! TO.N,Net-(D16-Pad1)*
X140000000Y-133685002D02*
X139660001Y-134025001D01*
X140000000Y-132050000D02*
X140000000Y-133685002D01*
X139650000Y-131700000D02*
X140000000Y-132050000D01*
X133474999Y-134025001D02*
X131750000Y-135750000D01*
X120000000Y-132050000D02*
X120350000Y-131700000D01*
X120350000Y-131700000D02*
X121000000Y-131700000D01*
X139000000Y-131700000D02*
X139650000Y-131700000D01*
X120000000Y-133685002D02*
X120000000Y-132050000D01*
X128250000Y-135750000D02*
X126685002Y-134185002D01*
X128250000Y-135750000D02*
X131750000Y-135750000D01*
X120500000Y-134185002D02*
X120000000Y-133685002D01*
X121000000Y-144200000D02*
X121000000Y-143000000D01*
X139660001Y-134025001D02*
X139000000Y-134025001D01*
X139000000Y-134025001D02*
X133474999Y-134025001D01*
X126685002Y-134185002D02*
X121000000Y-134185002D01*
X121000000Y-134185002D02*
X120500000Y-134185002D01*
X139000000Y-131700000D02*
X139000000Y-130500000D01*
X121000000Y-131700000D02*
X121000000Y-130500000D01*
X139000000Y-144200000D02*
X139000000Y-143000000D01*
G04 #@! TD*
D15*
G04 #@! TO.N,Net-(D1-Pad1)*
G36*
X163851196Y-124290000D02*
X160659973Y-124290000D01*
X160857809Y-124157809D01*
X160998157Y-123947765D01*
X161047440Y-123700000D01*
X161047440Y-122900000D01*
X160998157Y-122652235D01*
X160897073Y-122500953D01*
X160938327Y-122459698D01*
X161035000Y-122226309D01*
X161035000Y-121985750D01*
X160876250Y-121827000D01*
X160127000Y-121827000D01*
X160127000Y-121847000D01*
X159873000Y-121847000D01*
X159873000Y-121827000D01*
X159123750Y-121827000D01*
X158965000Y-121985750D01*
X158965000Y-122226309D01*
X159061673Y-122459698D01*
X159102927Y-122500953D01*
X159001843Y-122652235D01*
X158952560Y-122900000D01*
X158952560Y-123272639D01*
X158735199Y-123490000D01*
X146047440Y-123490000D01*
X146047440Y-122899999D01*
X145998157Y-122652234D01*
X145897073Y-122500953D01*
X145938327Y-122459699D01*
X146035000Y-122226310D01*
X146035000Y-121985751D01*
X145876250Y-121827001D01*
X145127000Y-121827001D01*
X145127000Y-121847001D01*
X144873000Y-121847001D01*
X144873000Y-121827001D01*
X144123750Y-121827001D01*
X143965000Y-121985751D01*
X143965000Y-122226310D01*
X144061673Y-122459699D01*
X144102927Y-122500953D01*
X144076837Y-122539999D01*
X141340533Y-122539999D01*
X141265686Y-122525111D01*
X141190839Y-122539999D01*
X141190834Y-122539999D01*
X140969149Y-122584095D01*
X140717757Y-122752070D01*
X140675357Y-122815526D01*
X138617883Y-124873000D01*
X137651800Y-124873000D01*
X141351108Y-121173692D01*
X143965000Y-121173692D01*
X143965000Y-121414251D01*
X144123750Y-121573001D01*
X144873000Y-121573001D01*
X144873000Y-120823751D01*
X145127000Y-120823751D01*
X145127000Y-121573001D01*
X145876250Y-121573001D01*
X146035000Y-121414251D01*
X146035000Y-121173692D01*
X146035000Y-121173691D01*
X158965000Y-121173691D01*
X158965000Y-121414250D01*
X159123750Y-121573000D01*
X159873000Y-121573000D01*
X159873000Y-120823750D01*
X160127000Y-120823750D01*
X160127000Y-121573000D01*
X160876250Y-121573000D01*
X161035000Y-121414250D01*
X161035000Y-121173691D01*
X160938327Y-120940302D01*
X160759699Y-120761673D01*
X160526310Y-120665000D01*
X160285750Y-120665000D01*
X160127000Y-120823750D01*
X159873000Y-120823750D01*
X159714250Y-120665000D01*
X159473690Y-120665000D01*
X159240301Y-120761673D01*
X159061673Y-120940302D01*
X158965000Y-121173691D01*
X146035000Y-121173691D01*
X145938327Y-120940303D01*
X145759699Y-120761674D01*
X145526310Y-120665001D01*
X145285750Y-120665001D01*
X145127000Y-120823751D01*
X144873000Y-120823751D01*
X144714250Y-120665001D01*
X144473690Y-120665001D01*
X144240301Y-120761674D01*
X144061673Y-120940303D01*
X143965000Y-121173692D01*
X141351108Y-121173692D01*
X152984473Y-109540328D01*
X153047929Y-109497928D01*
X153208552Y-109257539D01*
X153357809Y-109157808D01*
X153498157Y-108947764D01*
X153547440Y-108699999D01*
X153547440Y-107899999D01*
X153498157Y-107652234D01*
X153397073Y-107500953D01*
X153438327Y-107459699D01*
X153535000Y-107226310D01*
X153535000Y-106985751D01*
X153376250Y-106827001D01*
X152627000Y-106827001D01*
X152627000Y-106847001D01*
X152373000Y-106847001D01*
X152373000Y-106827001D01*
X151623750Y-106827001D01*
X151465000Y-106985751D01*
X151465000Y-107226310D01*
X151561673Y-107459699D01*
X151602927Y-107500953D01*
X151501843Y-107652234D01*
X151452560Y-107899999D01*
X151452560Y-108699999D01*
X151489498Y-108885699D01*
X135502198Y-124873000D01*
X134760000Y-124873000D01*
X134760000Y-112764801D01*
X137984476Y-109540327D01*
X138047929Y-109497929D01*
X138090327Y-109434476D01*
X138090329Y-109434474D01*
X138208551Y-109257541D01*
X138357809Y-109157809D01*
X138498157Y-108947765D01*
X138547440Y-108700000D01*
X138547440Y-107900000D01*
X138498157Y-107652235D01*
X138397073Y-107500953D01*
X138438327Y-107459698D01*
X138535000Y-107226309D01*
X138535000Y-106985750D01*
X138376250Y-106827000D01*
X137627000Y-106827000D01*
X137627000Y-106847000D01*
X137373000Y-106847000D01*
X137373000Y-106827000D01*
X136623750Y-106827000D01*
X136465000Y-106985750D01*
X136465000Y-107226309D01*
X136561673Y-107459698D01*
X136602927Y-107500953D01*
X136501843Y-107652235D01*
X136452560Y-107900000D01*
X136452560Y-108700000D01*
X136489498Y-108885700D01*
X133760000Y-111615199D01*
X133760000Y-106264801D01*
X133851110Y-106173691D01*
X136465000Y-106173691D01*
X136465000Y-106414250D01*
X136623750Y-106573000D01*
X137373000Y-106573000D01*
X137373000Y-105823750D01*
X137627000Y-105823750D01*
X137627000Y-106573000D01*
X138376250Y-106573000D01*
X138535000Y-106414250D01*
X138535000Y-106173692D01*
X151465000Y-106173692D01*
X151465000Y-106414251D01*
X151623750Y-106573001D01*
X152373000Y-106573001D01*
X152373000Y-105823751D01*
X152627000Y-105823751D01*
X152627000Y-106573001D01*
X153376250Y-106573001D01*
X153535000Y-106414251D01*
X153535000Y-106173692D01*
X153438327Y-105940303D01*
X153259699Y-105761674D01*
X153026310Y-105665001D01*
X152785750Y-105665001D01*
X152627000Y-105823751D01*
X152373000Y-105823751D01*
X152214250Y-105665001D01*
X151973690Y-105665001D01*
X151740301Y-105761674D01*
X151561673Y-105940303D01*
X151465000Y-106173692D01*
X138535000Y-106173692D01*
X138535000Y-106173691D01*
X138438327Y-105940302D01*
X138259699Y-105761673D01*
X138026310Y-105665000D01*
X137785750Y-105665000D01*
X137627000Y-105823750D01*
X137373000Y-105823750D01*
X137214250Y-105665000D01*
X136973690Y-105665000D01*
X136740301Y-105761673D01*
X136561673Y-105940302D01*
X136465000Y-106173691D01*
X133851110Y-106173691D01*
X145484473Y-94540329D01*
X145547929Y-94497929D01*
X145648483Y-94347440D01*
X145708553Y-94257539D01*
X145857809Y-94157809D01*
X145998157Y-93947765D01*
X146047440Y-93700000D01*
X146047440Y-92900000D01*
X145998157Y-92652235D01*
X145897073Y-92500953D01*
X145938327Y-92459698D01*
X146035000Y-92226309D01*
X146035000Y-91985750D01*
X145876250Y-91827000D01*
X145127000Y-91827000D01*
X145127000Y-91847000D01*
X144873000Y-91847000D01*
X144873000Y-91827000D01*
X144123750Y-91827000D01*
X143965000Y-91985750D01*
X143965000Y-92226309D01*
X144061673Y-92459698D01*
X144102927Y-92500953D01*
X144001843Y-92652235D01*
X143952560Y-92900000D01*
X143952560Y-93700000D01*
X143989498Y-93885700D01*
X132760000Y-105115199D01*
X132760000Y-91173691D01*
X143965000Y-91173691D01*
X143965000Y-91414250D01*
X144123750Y-91573000D01*
X144873000Y-91573000D01*
X144873000Y-90823750D01*
X145127000Y-90823750D01*
X145127000Y-91573000D01*
X145876250Y-91573000D01*
X146035000Y-91414250D01*
X146035000Y-91173691D01*
X145938327Y-90940302D01*
X145759699Y-90761673D01*
X145526310Y-90665000D01*
X145285750Y-90665000D01*
X145127000Y-90823750D01*
X144873000Y-90823750D01*
X144714250Y-90665000D01*
X144473690Y-90665000D01*
X144240301Y-90761673D01*
X144061673Y-90940302D01*
X143965000Y-91173691D01*
X132760000Y-91173691D01*
X132760000Y-89574848D01*
X132774888Y-89500000D01*
X132760000Y-89425152D01*
X132760000Y-89425148D01*
X132715904Y-89203463D01*
X132547929Y-88952071D01*
X132484473Y-88909671D01*
X131760000Y-88185199D01*
X131760000Y-85764801D01*
X137984473Y-79540329D01*
X138047929Y-79497929D01*
X138208552Y-79257540D01*
X138357809Y-79157809D01*
X138498157Y-78947765D01*
X138547440Y-78700000D01*
X138547440Y-77900000D01*
X138498157Y-77652235D01*
X138397073Y-77500953D01*
X138438327Y-77459698D01*
X138535000Y-77226309D01*
X138535000Y-76985750D01*
X138376250Y-76827000D01*
X137627000Y-76827000D01*
X137627000Y-76847000D01*
X137373000Y-76847000D01*
X137373000Y-76827000D01*
X136623750Y-76827000D01*
X136465000Y-76985750D01*
X136465000Y-77226309D01*
X136561673Y-77459698D01*
X136602927Y-77500953D01*
X136501843Y-77652235D01*
X136452560Y-77900000D01*
X136452560Y-78700000D01*
X136489498Y-78885700D01*
X130760000Y-84615199D01*
X130760000Y-76173691D01*
X136465000Y-76173691D01*
X136465000Y-76414250D01*
X136623750Y-76573000D01*
X137373000Y-76573000D01*
X137373000Y-75823750D01*
X137627000Y-75823750D01*
X137627000Y-76573000D01*
X138376250Y-76573000D01*
X138535000Y-76414250D01*
X138535000Y-76173691D01*
X138438327Y-75940302D01*
X138259699Y-75761673D01*
X138026310Y-75665000D01*
X137785750Y-75665000D01*
X137627000Y-75823750D01*
X137373000Y-75823750D01*
X137214250Y-75665000D01*
X136973690Y-75665000D01*
X136740301Y-75761673D01*
X136561673Y-75940302D01*
X136465000Y-76173691D01*
X130760000Y-76173691D01*
X130760000Y-64223163D01*
X130857809Y-64157809D01*
X130998157Y-63947765D01*
X131047440Y-63700000D01*
X131047440Y-62900000D01*
X130998157Y-62652235D01*
X130897073Y-62500953D01*
X130938327Y-62459698D01*
X131035000Y-62226309D01*
X131035000Y-61985750D01*
X130876250Y-61827000D01*
X130127000Y-61827000D01*
X130127000Y-61847000D01*
X129873000Y-61847000D01*
X129873000Y-61827000D01*
X129123750Y-61827000D01*
X128965000Y-61985750D01*
X128965000Y-62226309D01*
X129061673Y-62459698D01*
X129102927Y-62500953D01*
X129001843Y-62652235D01*
X128952560Y-62900000D01*
X128952560Y-63700000D01*
X129001843Y-63947765D01*
X129142191Y-64157809D01*
X129240001Y-64223164D01*
X129240000Y-84665198D01*
X123502207Y-78927405D01*
X123547440Y-78699999D01*
X123547440Y-77899999D01*
X123498157Y-77652234D01*
X123397073Y-77500953D01*
X123438327Y-77459699D01*
X123535000Y-77226310D01*
X123535000Y-76985751D01*
X123376250Y-76827001D01*
X122627000Y-76827001D01*
X122627000Y-76847001D01*
X122373000Y-76847001D01*
X122373000Y-76827001D01*
X121623750Y-76827001D01*
X121465000Y-76985751D01*
X121465000Y-77226310D01*
X121561673Y-77459699D01*
X121602927Y-77500953D01*
X121501843Y-77652234D01*
X121452560Y-77899999D01*
X121452560Y-78699999D01*
X121501843Y-78947764D01*
X121642191Y-79157808D01*
X121774023Y-79245896D01*
X121784096Y-79296536D01*
X121952071Y-79547929D01*
X122015530Y-79590331D01*
X128240001Y-85814803D01*
X128240000Y-88225562D01*
X127515528Y-88950035D01*
X127452072Y-88992435D01*
X127409672Y-89055891D01*
X127409671Y-89055892D01*
X127284097Y-89243827D01*
X127225112Y-89540364D01*
X127240001Y-89615216D01*
X127240001Y-105115199D01*
X116010502Y-93885701D01*
X116047440Y-93700000D01*
X116047440Y-92900000D01*
X115998157Y-92652235D01*
X115897073Y-92500953D01*
X115938327Y-92459698D01*
X116035000Y-92226309D01*
X116035000Y-91985750D01*
X115876250Y-91827000D01*
X115127000Y-91827000D01*
X115127000Y-91847000D01*
X114873000Y-91847000D01*
X114873000Y-91827000D01*
X114123750Y-91827000D01*
X113965000Y-91985750D01*
X113965000Y-92226309D01*
X114061673Y-92459698D01*
X114102927Y-92500953D01*
X114001843Y-92652235D01*
X113952560Y-92900000D01*
X113952560Y-93700000D01*
X114001843Y-93947765D01*
X114142191Y-94157809D01*
X114291449Y-94257541D01*
X114452071Y-94497929D01*
X114515530Y-94540331D01*
X126240001Y-106264803D01*
X126240001Y-111615198D01*
X123510502Y-108885701D01*
X123547440Y-108700000D01*
X123547440Y-107900000D01*
X123498157Y-107652235D01*
X123397073Y-107500953D01*
X123438327Y-107459698D01*
X123535000Y-107226309D01*
X123535000Y-106985750D01*
X123376250Y-106827000D01*
X122627000Y-106827000D01*
X122627000Y-106847000D01*
X122373000Y-106847000D01*
X122373000Y-106827000D01*
X121623750Y-106827000D01*
X121465000Y-106985750D01*
X121465000Y-107226309D01*
X121561673Y-107459698D01*
X121602927Y-107500953D01*
X121501843Y-107652235D01*
X121452560Y-107900000D01*
X121452560Y-108700000D01*
X121501843Y-108947765D01*
X121642191Y-109157809D01*
X121791448Y-109257540D01*
X121952072Y-109497929D01*
X122015528Y-109540329D01*
X125240000Y-112764803D01*
X125240001Y-124873000D01*
X124497803Y-124873000D01*
X108510502Y-108885701D01*
X108547440Y-108700000D01*
X108547440Y-107900000D01*
X108498157Y-107652235D01*
X108397073Y-107500953D01*
X108438327Y-107459698D01*
X108535000Y-107226309D01*
X108535000Y-106985750D01*
X108376250Y-106827000D01*
X107627000Y-106827000D01*
X107627000Y-106847000D01*
X107373000Y-106847000D01*
X107373000Y-106827000D01*
X106623750Y-106827000D01*
X106465000Y-106985750D01*
X106465000Y-107226309D01*
X106561673Y-107459698D01*
X106602927Y-107500953D01*
X106501843Y-107652235D01*
X106452560Y-107900000D01*
X106452560Y-108700000D01*
X106501843Y-108947765D01*
X106642191Y-109157809D01*
X106791448Y-109257540D01*
X106952072Y-109497929D01*
X107015528Y-109540329D01*
X122348197Y-124873000D01*
X121382116Y-124873000D01*
X119324646Y-122815530D01*
X119282244Y-122752071D01*
X119030852Y-122584096D01*
X118809167Y-122540000D01*
X118809162Y-122540000D01*
X118734315Y-122525112D01*
X118659468Y-122540000D01*
X115923163Y-122540000D01*
X115897073Y-122500953D01*
X115938327Y-122459698D01*
X116035000Y-122226309D01*
X116035000Y-121985750D01*
X115876250Y-121827000D01*
X115127000Y-121827000D01*
X115127000Y-121847000D01*
X114873000Y-121847000D01*
X114873000Y-121827000D01*
X114123750Y-121827000D01*
X113965000Y-121985750D01*
X113965000Y-122226309D01*
X114061673Y-122459698D01*
X114102927Y-122500953D01*
X114001843Y-122652235D01*
X113952560Y-122900000D01*
X113952560Y-123490000D01*
X101264802Y-123490000D01*
X101047440Y-123272638D01*
X101047440Y-122900000D01*
X100998157Y-122652235D01*
X100897073Y-122500953D01*
X100938327Y-122459698D01*
X101035000Y-122226309D01*
X101035000Y-121985750D01*
X100876250Y-121827000D01*
X100127000Y-121827000D01*
X100127000Y-121847000D01*
X99873000Y-121847000D01*
X99873000Y-121827000D01*
X99123750Y-121827000D01*
X98965000Y-121985750D01*
X98965000Y-122226309D01*
X99061673Y-122459698D01*
X99102927Y-122500953D01*
X99001843Y-122652235D01*
X98952560Y-122900000D01*
X98952560Y-123700000D01*
X99001843Y-123947765D01*
X99142191Y-124157809D01*
X99340027Y-124290000D01*
X96148804Y-124290000D01*
X97706958Y-121173691D01*
X98965000Y-121173691D01*
X98965000Y-121414250D01*
X99123750Y-121573000D01*
X99873000Y-121573000D01*
X99873000Y-120823750D01*
X100127000Y-120823750D01*
X100127000Y-121573000D01*
X100876250Y-121573000D01*
X101035000Y-121414250D01*
X101035000Y-121173691D01*
X113965000Y-121173691D01*
X113965000Y-121414250D01*
X114123750Y-121573000D01*
X114873000Y-121573000D01*
X114873000Y-120823750D01*
X115127000Y-120823750D01*
X115127000Y-121573000D01*
X115876250Y-121573000D01*
X116035000Y-121414250D01*
X116035000Y-121173691D01*
X115938327Y-120940302D01*
X115759699Y-120761673D01*
X115526310Y-120665000D01*
X115285750Y-120665000D01*
X115127000Y-120823750D01*
X114873000Y-120823750D01*
X114714250Y-120665000D01*
X114473690Y-120665000D01*
X114240301Y-120761673D01*
X114061673Y-120940302D01*
X113965000Y-121173691D01*
X101035000Y-121173691D01*
X100938327Y-120940302D01*
X100759699Y-120761673D01*
X100526310Y-120665000D01*
X100285750Y-120665000D01*
X100127000Y-120823750D01*
X99873000Y-120823750D01*
X99714250Y-120665000D01*
X99473690Y-120665000D01*
X99240301Y-120761673D01*
X99061673Y-120940302D01*
X98965000Y-121173691D01*
X97706958Y-121173691D01*
X105206958Y-106173691D01*
X106465000Y-106173691D01*
X106465000Y-106414250D01*
X106623750Y-106573000D01*
X107373000Y-106573000D01*
X107373000Y-105823750D01*
X107627000Y-105823750D01*
X107627000Y-106573000D01*
X108376250Y-106573000D01*
X108535000Y-106414250D01*
X108535000Y-106173691D01*
X121465000Y-106173691D01*
X121465000Y-106414250D01*
X121623750Y-106573000D01*
X122373000Y-106573000D01*
X122373000Y-105823750D01*
X122627000Y-105823750D01*
X122627000Y-106573000D01*
X123376250Y-106573000D01*
X123535000Y-106414250D01*
X123535000Y-106173691D01*
X123438327Y-105940302D01*
X123259699Y-105761673D01*
X123026310Y-105665000D01*
X122785750Y-105665000D01*
X122627000Y-105823750D01*
X122373000Y-105823750D01*
X122214250Y-105665000D01*
X121973690Y-105665000D01*
X121740301Y-105761673D01*
X121561673Y-105940302D01*
X121465000Y-106173691D01*
X108535000Y-106173691D01*
X108438327Y-105940302D01*
X108259699Y-105761673D01*
X108026310Y-105665000D01*
X107785750Y-105665000D01*
X107627000Y-105823750D01*
X107373000Y-105823750D01*
X107214250Y-105665000D01*
X106973690Y-105665000D01*
X106740301Y-105761673D01*
X106561673Y-105940302D01*
X106465000Y-106173691D01*
X105206958Y-106173691D01*
X112706958Y-91173691D01*
X113965000Y-91173691D01*
X113965000Y-91414250D01*
X114123750Y-91573000D01*
X114873000Y-91573000D01*
X114873000Y-90823750D01*
X115127000Y-90823750D01*
X115127000Y-91573000D01*
X115876250Y-91573000D01*
X116035000Y-91414250D01*
X116035000Y-91173691D01*
X115938327Y-90940302D01*
X115759699Y-90761673D01*
X115526310Y-90665000D01*
X115285750Y-90665000D01*
X115127000Y-90823750D01*
X114873000Y-90823750D01*
X114714250Y-90665000D01*
X114473690Y-90665000D01*
X114240301Y-90761673D01*
X114061673Y-90940302D01*
X113965000Y-91173691D01*
X112706958Y-91173691D01*
X120206957Y-76173692D01*
X121465000Y-76173692D01*
X121465000Y-76414251D01*
X121623750Y-76573001D01*
X122373000Y-76573001D01*
X122373000Y-75823751D01*
X122627000Y-75823751D01*
X122627000Y-76573001D01*
X123376250Y-76573001D01*
X123535000Y-76414251D01*
X123535000Y-76173692D01*
X123438327Y-75940303D01*
X123259699Y-75761674D01*
X123026310Y-75665001D01*
X122785750Y-75665001D01*
X122627000Y-75823751D01*
X122373000Y-75823751D01*
X122214250Y-75665001D01*
X121973690Y-75665001D01*
X121740301Y-75761674D01*
X121561673Y-75940303D01*
X121465000Y-76173692D01*
X120206957Y-76173692D01*
X127706958Y-61173691D01*
X128965000Y-61173691D01*
X128965000Y-61414250D01*
X129123750Y-61573000D01*
X129873000Y-61573000D01*
X129873000Y-60823750D01*
X130127000Y-60823750D01*
X130127000Y-61573000D01*
X130876250Y-61573000D01*
X131035000Y-61414250D01*
X131035000Y-61173691D01*
X130938327Y-60940302D01*
X130759699Y-60761673D01*
X130526310Y-60665000D01*
X130285750Y-60665000D01*
X130127000Y-60823750D01*
X129873000Y-60823750D01*
X129714250Y-60665000D01*
X129473690Y-60665000D01*
X129240301Y-60761673D01*
X129061673Y-60940302D01*
X128965000Y-61173691D01*
X127706958Y-61173691D01*
X130000000Y-56587608D01*
X163851196Y-124290000D01*
X163851196Y-124290000D01*
G37*
X163851196Y-124290000D02*
X160659973Y-124290000D01*
X160857809Y-124157809D01*
X160998157Y-123947765D01*
X161047440Y-123700000D01*
X161047440Y-122900000D01*
X160998157Y-122652235D01*
X160897073Y-122500953D01*
X160938327Y-122459698D01*
X161035000Y-122226309D01*
X161035000Y-121985750D01*
X160876250Y-121827000D01*
X160127000Y-121827000D01*
X160127000Y-121847000D01*
X159873000Y-121847000D01*
X159873000Y-121827000D01*
X159123750Y-121827000D01*
X158965000Y-121985750D01*
X158965000Y-122226309D01*
X159061673Y-122459698D01*
X159102927Y-122500953D01*
X159001843Y-122652235D01*
X158952560Y-122900000D01*
X158952560Y-123272639D01*
X158735199Y-123490000D01*
X146047440Y-123490000D01*
X146047440Y-122899999D01*
X145998157Y-122652234D01*
X145897073Y-122500953D01*
X145938327Y-122459699D01*
X146035000Y-122226310D01*
X146035000Y-121985751D01*
X145876250Y-121827001D01*
X145127000Y-121827001D01*
X145127000Y-121847001D01*
X144873000Y-121847001D01*
X144873000Y-121827001D01*
X144123750Y-121827001D01*
X143965000Y-121985751D01*
X143965000Y-122226310D01*
X144061673Y-122459699D01*
X144102927Y-122500953D01*
X144076837Y-122539999D01*
X141340533Y-122539999D01*
X141265686Y-122525111D01*
X141190839Y-122539999D01*
X141190834Y-122539999D01*
X140969149Y-122584095D01*
X140717757Y-122752070D01*
X140675357Y-122815526D01*
X138617883Y-124873000D01*
X137651800Y-124873000D01*
X141351108Y-121173692D01*
X143965000Y-121173692D01*
X143965000Y-121414251D01*
X144123750Y-121573001D01*
X144873000Y-121573001D01*
X144873000Y-120823751D01*
X145127000Y-120823751D01*
X145127000Y-121573001D01*
X145876250Y-121573001D01*
X146035000Y-121414251D01*
X146035000Y-121173692D01*
X146035000Y-121173691D01*
X158965000Y-121173691D01*
X158965000Y-121414250D01*
X159123750Y-121573000D01*
X159873000Y-121573000D01*
X159873000Y-120823750D01*
X160127000Y-120823750D01*
X160127000Y-121573000D01*
X160876250Y-121573000D01*
X161035000Y-121414250D01*
X161035000Y-121173691D01*
X160938327Y-120940302D01*
X160759699Y-120761673D01*
X160526310Y-120665000D01*
X160285750Y-120665000D01*
X160127000Y-120823750D01*
X159873000Y-120823750D01*
X159714250Y-120665000D01*
X159473690Y-120665000D01*
X159240301Y-120761673D01*
X159061673Y-120940302D01*
X158965000Y-121173691D01*
X146035000Y-121173691D01*
X145938327Y-120940303D01*
X145759699Y-120761674D01*
X145526310Y-120665001D01*
X145285750Y-120665001D01*
X145127000Y-120823751D01*
X144873000Y-120823751D01*
X144714250Y-120665001D01*
X144473690Y-120665001D01*
X144240301Y-120761674D01*
X144061673Y-120940303D01*
X143965000Y-121173692D01*
X141351108Y-121173692D01*
X152984473Y-109540328D01*
X153047929Y-109497928D01*
X153208552Y-109257539D01*
X153357809Y-109157808D01*
X153498157Y-108947764D01*
X153547440Y-108699999D01*
X153547440Y-107899999D01*
X153498157Y-107652234D01*
X153397073Y-107500953D01*
X153438327Y-107459699D01*
X153535000Y-107226310D01*
X153535000Y-106985751D01*
X153376250Y-106827001D01*
X152627000Y-106827001D01*
X152627000Y-106847001D01*
X152373000Y-106847001D01*
X152373000Y-106827001D01*
X151623750Y-106827001D01*
X151465000Y-106985751D01*
X151465000Y-107226310D01*
X151561673Y-107459699D01*
X151602927Y-107500953D01*
X151501843Y-107652234D01*
X151452560Y-107899999D01*
X151452560Y-108699999D01*
X151489498Y-108885699D01*
X135502198Y-124873000D01*
X134760000Y-124873000D01*
X134760000Y-112764801D01*
X137984476Y-109540327D01*
X138047929Y-109497929D01*
X138090327Y-109434476D01*
X138090329Y-109434474D01*
X138208551Y-109257541D01*
X138357809Y-109157809D01*
X138498157Y-108947765D01*
X138547440Y-108700000D01*
X138547440Y-107900000D01*
X138498157Y-107652235D01*
X138397073Y-107500953D01*
X138438327Y-107459698D01*
X138535000Y-107226309D01*
X138535000Y-106985750D01*
X138376250Y-106827000D01*
X137627000Y-106827000D01*
X137627000Y-106847000D01*
X137373000Y-106847000D01*
X137373000Y-106827000D01*
X136623750Y-106827000D01*
X136465000Y-106985750D01*
X136465000Y-107226309D01*
X136561673Y-107459698D01*
X136602927Y-107500953D01*
X136501843Y-107652235D01*
X136452560Y-107900000D01*
X136452560Y-108700000D01*
X136489498Y-108885700D01*
X133760000Y-111615199D01*
X133760000Y-106264801D01*
X133851110Y-106173691D01*
X136465000Y-106173691D01*
X136465000Y-106414250D01*
X136623750Y-106573000D01*
X137373000Y-106573000D01*
X137373000Y-105823750D01*
X137627000Y-105823750D01*
X137627000Y-106573000D01*
X138376250Y-106573000D01*
X138535000Y-106414250D01*
X138535000Y-106173692D01*
X151465000Y-106173692D01*
X151465000Y-106414251D01*
X151623750Y-106573001D01*
X152373000Y-106573001D01*
X152373000Y-105823751D01*
X152627000Y-105823751D01*
X152627000Y-106573001D01*
X153376250Y-106573001D01*
X153535000Y-106414251D01*
X153535000Y-106173692D01*
X153438327Y-105940303D01*
X153259699Y-105761674D01*
X153026310Y-105665001D01*
X152785750Y-105665001D01*
X152627000Y-105823751D01*
X152373000Y-105823751D01*
X152214250Y-105665001D01*
X151973690Y-105665001D01*
X151740301Y-105761674D01*
X151561673Y-105940303D01*
X151465000Y-106173692D01*
X138535000Y-106173692D01*
X138535000Y-106173691D01*
X138438327Y-105940302D01*
X138259699Y-105761673D01*
X138026310Y-105665000D01*
X137785750Y-105665000D01*
X137627000Y-105823750D01*
X137373000Y-105823750D01*
X137214250Y-105665000D01*
X136973690Y-105665000D01*
X136740301Y-105761673D01*
X136561673Y-105940302D01*
X136465000Y-106173691D01*
X133851110Y-106173691D01*
X145484473Y-94540329D01*
X145547929Y-94497929D01*
X145648483Y-94347440D01*
X145708553Y-94257539D01*
X145857809Y-94157809D01*
X145998157Y-93947765D01*
X146047440Y-93700000D01*
X146047440Y-92900000D01*
X145998157Y-92652235D01*
X145897073Y-92500953D01*
X145938327Y-92459698D01*
X146035000Y-92226309D01*
X146035000Y-91985750D01*
X145876250Y-91827000D01*
X145127000Y-91827000D01*
X145127000Y-91847000D01*
X144873000Y-91847000D01*
X144873000Y-91827000D01*
X144123750Y-91827000D01*
X143965000Y-91985750D01*
X143965000Y-92226309D01*
X144061673Y-92459698D01*
X144102927Y-92500953D01*
X144001843Y-92652235D01*
X143952560Y-92900000D01*
X143952560Y-93700000D01*
X143989498Y-93885700D01*
X132760000Y-105115199D01*
X132760000Y-91173691D01*
X143965000Y-91173691D01*
X143965000Y-91414250D01*
X144123750Y-91573000D01*
X144873000Y-91573000D01*
X144873000Y-90823750D01*
X145127000Y-90823750D01*
X145127000Y-91573000D01*
X145876250Y-91573000D01*
X146035000Y-91414250D01*
X146035000Y-91173691D01*
X145938327Y-90940302D01*
X145759699Y-90761673D01*
X145526310Y-90665000D01*
X145285750Y-90665000D01*
X145127000Y-90823750D01*
X144873000Y-90823750D01*
X144714250Y-90665000D01*
X144473690Y-90665000D01*
X144240301Y-90761673D01*
X144061673Y-90940302D01*
X143965000Y-91173691D01*
X132760000Y-91173691D01*
X132760000Y-89574848D01*
X132774888Y-89500000D01*
X132760000Y-89425152D01*
X132760000Y-89425148D01*
X132715904Y-89203463D01*
X132547929Y-88952071D01*
X132484473Y-88909671D01*
X131760000Y-88185199D01*
X131760000Y-85764801D01*
X137984473Y-79540329D01*
X138047929Y-79497929D01*
X138208552Y-79257540D01*
X138357809Y-79157809D01*
X138498157Y-78947765D01*
X138547440Y-78700000D01*
X138547440Y-77900000D01*
X138498157Y-77652235D01*
X138397073Y-77500953D01*
X138438327Y-77459698D01*
X138535000Y-77226309D01*
X138535000Y-76985750D01*
X138376250Y-76827000D01*
X137627000Y-76827000D01*
X137627000Y-76847000D01*
X137373000Y-76847000D01*
X137373000Y-76827000D01*
X136623750Y-76827000D01*
X136465000Y-76985750D01*
X136465000Y-77226309D01*
X136561673Y-77459698D01*
X136602927Y-77500953D01*
X136501843Y-77652235D01*
X136452560Y-77900000D01*
X136452560Y-78700000D01*
X136489498Y-78885700D01*
X130760000Y-84615199D01*
X130760000Y-76173691D01*
X136465000Y-76173691D01*
X136465000Y-76414250D01*
X136623750Y-76573000D01*
X137373000Y-76573000D01*
X137373000Y-75823750D01*
X137627000Y-75823750D01*
X137627000Y-76573000D01*
X138376250Y-76573000D01*
X138535000Y-76414250D01*
X138535000Y-76173691D01*
X138438327Y-75940302D01*
X138259699Y-75761673D01*
X138026310Y-75665000D01*
X137785750Y-75665000D01*
X137627000Y-75823750D01*
X137373000Y-75823750D01*
X137214250Y-75665000D01*
X136973690Y-75665000D01*
X136740301Y-75761673D01*
X136561673Y-75940302D01*
X136465000Y-76173691D01*
X130760000Y-76173691D01*
X130760000Y-64223163D01*
X130857809Y-64157809D01*
X130998157Y-63947765D01*
X131047440Y-63700000D01*
X131047440Y-62900000D01*
X130998157Y-62652235D01*
X130897073Y-62500953D01*
X130938327Y-62459698D01*
X131035000Y-62226309D01*
X131035000Y-61985750D01*
X130876250Y-61827000D01*
X130127000Y-61827000D01*
X130127000Y-61847000D01*
X129873000Y-61847000D01*
X129873000Y-61827000D01*
X129123750Y-61827000D01*
X128965000Y-61985750D01*
X128965000Y-62226309D01*
X129061673Y-62459698D01*
X129102927Y-62500953D01*
X129001843Y-62652235D01*
X128952560Y-62900000D01*
X128952560Y-63700000D01*
X129001843Y-63947765D01*
X129142191Y-64157809D01*
X129240001Y-64223164D01*
X129240000Y-84665198D01*
X123502207Y-78927405D01*
X123547440Y-78699999D01*
X123547440Y-77899999D01*
X123498157Y-77652234D01*
X123397073Y-77500953D01*
X123438327Y-77459699D01*
X123535000Y-77226310D01*
X123535000Y-76985751D01*
X123376250Y-76827001D01*
X122627000Y-76827001D01*
X122627000Y-76847001D01*
X122373000Y-76847001D01*
X122373000Y-76827001D01*
X121623750Y-76827001D01*
X121465000Y-76985751D01*
X121465000Y-77226310D01*
X121561673Y-77459699D01*
X121602927Y-77500953D01*
X121501843Y-77652234D01*
X121452560Y-77899999D01*
X121452560Y-78699999D01*
X121501843Y-78947764D01*
X121642191Y-79157808D01*
X121774023Y-79245896D01*
X121784096Y-79296536D01*
X121952071Y-79547929D01*
X122015530Y-79590331D01*
X128240001Y-85814803D01*
X128240000Y-88225562D01*
X127515528Y-88950035D01*
X127452072Y-88992435D01*
X127409672Y-89055891D01*
X127409671Y-89055892D01*
X127284097Y-89243827D01*
X127225112Y-89540364D01*
X127240001Y-89615216D01*
X127240001Y-105115199D01*
X116010502Y-93885701D01*
X116047440Y-93700000D01*
X116047440Y-92900000D01*
X115998157Y-92652235D01*
X115897073Y-92500953D01*
X115938327Y-92459698D01*
X116035000Y-92226309D01*
X116035000Y-91985750D01*
X115876250Y-91827000D01*
X115127000Y-91827000D01*
X115127000Y-91847000D01*
X114873000Y-91847000D01*
X114873000Y-91827000D01*
X114123750Y-91827000D01*
X113965000Y-91985750D01*
X113965000Y-92226309D01*
X114061673Y-92459698D01*
X114102927Y-92500953D01*
X114001843Y-92652235D01*
X113952560Y-92900000D01*
X113952560Y-93700000D01*
X114001843Y-93947765D01*
X114142191Y-94157809D01*
X114291449Y-94257541D01*
X114452071Y-94497929D01*
X114515530Y-94540331D01*
X126240001Y-106264803D01*
X126240001Y-111615198D01*
X123510502Y-108885701D01*
X123547440Y-108700000D01*
X123547440Y-107900000D01*
X123498157Y-107652235D01*
X123397073Y-107500953D01*
X123438327Y-107459698D01*
X123535000Y-107226309D01*
X123535000Y-106985750D01*
X123376250Y-106827000D01*
X122627000Y-106827000D01*
X122627000Y-106847000D01*
X122373000Y-106847000D01*
X122373000Y-106827000D01*
X121623750Y-106827000D01*
X121465000Y-106985750D01*
X121465000Y-107226309D01*
X121561673Y-107459698D01*
X121602927Y-107500953D01*
X121501843Y-107652235D01*
X121452560Y-107900000D01*
X121452560Y-108700000D01*
X121501843Y-108947765D01*
X121642191Y-109157809D01*
X121791448Y-109257540D01*
X121952072Y-109497929D01*
X122015528Y-109540329D01*
X125240000Y-112764803D01*
X125240001Y-124873000D01*
X124497803Y-124873000D01*
X108510502Y-108885701D01*
X108547440Y-108700000D01*
X108547440Y-107900000D01*
X108498157Y-107652235D01*
X108397073Y-107500953D01*
X108438327Y-107459698D01*
X108535000Y-107226309D01*
X108535000Y-106985750D01*
X108376250Y-106827000D01*
X107627000Y-106827000D01*
X107627000Y-106847000D01*
X107373000Y-106847000D01*
X107373000Y-106827000D01*
X106623750Y-106827000D01*
X106465000Y-106985750D01*
X106465000Y-107226309D01*
X106561673Y-107459698D01*
X106602927Y-107500953D01*
X106501843Y-107652235D01*
X106452560Y-107900000D01*
X106452560Y-108700000D01*
X106501843Y-108947765D01*
X106642191Y-109157809D01*
X106791448Y-109257540D01*
X106952072Y-109497929D01*
X107015528Y-109540329D01*
X122348197Y-124873000D01*
X121382116Y-124873000D01*
X119324646Y-122815530D01*
X119282244Y-122752071D01*
X119030852Y-122584096D01*
X118809167Y-122540000D01*
X118809162Y-122540000D01*
X118734315Y-122525112D01*
X118659468Y-122540000D01*
X115923163Y-122540000D01*
X115897073Y-122500953D01*
X115938327Y-122459698D01*
X116035000Y-122226309D01*
X116035000Y-121985750D01*
X115876250Y-121827000D01*
X115127000Y-121827000D01*
X115127000Y-121847000D01*
X114873000Y-121847000D01*
X114873000Y-121827000D01*
X114123750Y-121827000D01*
X113965000Y-121985750D01*
X113965000Y-122226309D01*
X114061673Y-122459698D01*
X114102927Y-122500953D01*
X114001843Y-122652235D01*
X113952560Y-122900000D01*
X113952560Y-123490000D01*
X101264802Y-123490000D01*
X101047440Y-123272638D01*
X101047440Y-122900000D01*
X100998157Y-122652235D01*
X100897073Y-122500953D01*
X100938327Y-122459698D01*
X101035000Y-122226309D01*
X101035000Y-121985750D01*
X100876250Y-121827000D01*
X100127000Y-121827000D01*
X100127000Y-121847000D01*
X99873000Y-121847000D01*
X99873000Y-121827000D01*
X99123750Y-121827000D01*
X98965000Y-121985750D01*
X98965000Y-122226309D01*
X99061673Y-122459698D01*
X99102927Y-122500953D01*
X99001843Y-122652235D01*
X98952560Y-122900000D01*
X98952560Y-123700000D01*
X99001843Y-123947765D01*
X99142191Y-124157809D01*
X99340027Y-124290000D01*
X96148804Y-124290000D01*
X97706958Y-121173691D01*
X98965000Y-121173691D01*
X98965000Y-121414250D01*
X99123750Y-121573000D01*
X99873000Y-121573000D01*
X99873000Y-120823750D01*
X100127000Y-120823750D01*
X100127000Y-121573000D01*
X100876250Y-121573000D01*
X101035000Y-121414250D01*
X101035000Y-121173691D01*
X113965000Y-121173691D01*
X113965000Y-121414250D01*
X114123750Y-121573000D01*
X114873000Y-121573000D01*
X114873000Y-120823750D01*
X115127000Y-120823750D01*
X115127000Y-121573000D01*
X115876250Y-121573000D01*
X116035000Y-121414250D01*
X116035000Y-121173691D01*
X115938327Y-120940302D01*
X115759699Y-120761673D01*
X115526310Y-120665000D01*
X115285750Y-120665000D01*
X115127000Y-120823750D01*
X114873000Y-120823750D01*
X114714250Y-120665000D01*
X114473690Y-120665000D01*
X114240301Y-120761673D01*
X114061673Y-120940302D01*
X113965000Y-121173691D01*
X101035000Y-121173691D01*
X100938327Y-120940302D01*
X100759699Y-120761673D01*
X100526310Y-120665000D01*
X100285750Y-120665000D01*
X100127000Y-120823750D01*
X99873000Y-120823750D01*
X99714250Y-120665000D01*
X99473690Y-120665000D01*
X99240301Y-120761673D01*
X99061673Y-120940302D01*
X98965000Y-121173691D01*
X97706958Y-121173691D01*
X105206958Y-106173691D01*
X106465000Y-106173691D01*
X106465000Y-106414250D01*
X106623750Y-106573000D01*
X107373000Y-106573000D01*
X107373000Y-105823750D01*
X107627000Y-105823750D01*
X107627000Y-106573000D01*
X108376250Y-106573000D01*
X108535000Y-106414250D01*
X108535000Y-106173691D01*
X121465000Y-106173691D01*
X121465000Y-106414250D01*
X121623750Y-106573000D01*
X122373000Y-106573000D01*
X122373000Y-105823750D01*
X122627000Y-105823750D01*
X122627000Y-106573000D01*
X123376250Y-106573000D01*
X123535000Y-106414250D01*
X123535000Y-106173691D01*
X123438327Y-105940302D01*
X123259699Y-105761673D01*
X123026310Y-105665000D01*
X122785750Y-105665000D01*
X122627000Y-105823750D01*
X122373000Y-105823750D01*
X122214250Y-105665000D01*
X121973690Y-105665000D01*
X121740301Y-105761673D01*
X121561673Y-105940302D01*
X121465000Y-106173691D01*
X108535000Y-106173691D01*
X108438327Y-105940302D01*
X108259699Y-105761673D01*
X108026310Y-105665000D01*
X107785750Y-105665000D01*
X107627000Y-105823750D01*
X107373000Y-105823750D01*
X107214250Y-105665000D01*
X106973690Y-105665000D01*
X106740301Y-105761673D01*
X106561673Y-105940302D01*
X106465000Y-106173691D01*
X105206958Y-106173691D01*
X112706958Y-91173691D01*
X113965000Y-91173691D01*
X113965000Y-91414250D01*
X114123750Y-91573000D01*
X114873000Y-91573000D01*
X114873000Y-90823750D01*
X115127000Y-90823750D01*
X115127000Y-91573000D01*
X115876250Y-91573000D01*
X116035000Y-91414250D01*
X116035000Y-91173691D01*
X115938327Y-90940302D01*
X115759699Y-90761673D01*
X115526310Y-90665000D01*
X115285750Y-90665000D01*
X115127000Y-90823750D01*
X114873000Y-90823750D01*
X114714250Y-90665000D01*
X114473690Y-90665000D01*
X114240301Y-90761673D01*
X114061673Y-90940302D01*
X113965000Y-91173691D01*
X112706958Y-91173691D01*
X120206957Y-76173692D01*
X121465000Y-76173692D01*
X121465000Y-76414251D01*
X121623750Y-76573001D01*
X122373000Y-76573001D01*
X122373000Y-75823751D01*
X122627000Y-75823751D01*
X122627000Y-76573001D01*
X123376250Y-76573001D01*
X123535000Y-76414251D01*
X123535000Y-76173692D01*
X123438327Y-75940303D01*
X123259699Y-75761674D01*
X123026310Y-75665001D01*
X122785750Y-75665001D01*
X122627000Y-75823751D01*
X122373000Y-75823751D01*
X122214250Y-75665001D01*
X121973690Y-75665001D01*
X121740301Y-75761674D01*
X121561673Y-75940303D01*
X121465000Y-76173692D01*
X120206957Y-76173692D01*
X127706958Y-61173691D01*
X128965000Y-61173691D01*
X128965000Y-61414250D01*
X129123750Y-61573000D01*
X129873000Y-61573000D01*
X129873000Y-60823750D01*
X130127000Y-60823750D01*
X130127000Y-61573000D01*
X130876250Y-61573000D01*
X131035000Y-61414250D01*
X131035000Y-61173691D01*
X130938327Y-60940302D01*
X130759699Y-60761673D01*
X130526310Y-60665000D01*
X130285750Y-60665000D01*
X130127000Y-60823750D01*
X129873000Y-60823750D01*
X129714250Y-60665000D01*
X129473690Y-60665000D01*
X129240301Y-60761673D01*
X129061673Y-60940302D01*
X128965000Y-61173691D01*
X127706958Y-61173691D01*
X130000000Y-56587608D01*
X163851196Y-124290000D01*
G36*
X130127000Y-121573000D02*
X130147000Y-121573000D01*
X130147000Y-121827000D01*
X130127000Y-121827000D01*
X130127000Y-121847000D01*
X129873000Y-121847000D01*
X129873000Y-121827000D01*
X129853000Y-121827000D01*
X129853000Y-121573000D01*
X129873000Y-121573000D01*
X129873000Y-121553000D01*
X130127000Y-121553000D01*
X130127000Y-121573000D01*
X130127000Y-121573000D01*
G37*
X130127000Y-121573000D02*
X130147000Y-121573000D01*
X130147000Y-121827000D01*
X130127000Y-121827000D01*
X130127000Y-121847000D01*
X129873000Y-121847000D01*
X129873000Y-121827000D01*
X129853000Y-121827000D01*
X129853000Y-121573000D01*
X129873000Y-121573000D01*
X129873000Y-121553000D01*
X130127000Y-121553000D01*
X130127000Y-121573000D01*
G36*
X130240001Y-90314803D02*
X130240001Y-90710750D01*
X130127000Y-90823751D01*
X130127000Y-91573001D01*
X130147000Y-91573001D01*
X130147000Y-91740000D01*
X130025148Y-91740000D01*
X130000000Y-91745002D01*
X129974852Y-91740000D01*
X129853000Y-91740000D01*
X129853000Y-91573001D01*
X129873000Y-91573001D01*
X129873000Y-90823751D01*
X129760000Y-90710751D01*
X129760000Y-90314801D01*
X130000000Y-90074802D01*
X130240001Y-90314803D01*
X130240001Y-90314803D01*
G37*
X130240001Y-90314803D02*
X130240001Y-90710750D01*
X130127000Y-90823751D01*
X130127000Y-91573001D01*
X130147000Y-91573001D01*
X130147000Y-91740000D01*
X130025148Y-91740000D01*
X130000000Y-91745002D01*
X129974852Y-91740000D01*
X129853000Y-91740000D01*
X129853000Y-91573001D01*
X129873000Y-91573001D01*
X129873000Y-90823751D01*
X129760000Y-90710751D01*
X129760000Y-90314801D01*
X130000000Y-90074802D01*
X130240001Y-90314803D01*
G04 #@! TO.N,GND*
G36*
X125899513Y-132540000D02*
X121923163Y-132540000D01*
X121896436Y-132500000D01*
X121998157Y-132347765D01*
X122047440Y-132100000D01*
X122047440Y-131300000D01*
X121998157Y-131052235D01*
X121932336Y-130953728D01*
X122035000Y-130705874D01*
X122035000Y-130294126D01*
X121877431Y-129913720D01*
X121586280Y-129622569D01*
X121205874Y-129465000D01*
X120794126Y-129465000D01*
X120413720Y-129622569D01*
X120122569Y-129913720D01*
X119965000Y-130294126D01*
X119965000Y-130705874D01*
X120067664Y-130953728D01*
X120042461Y-130991447D01*
X119977280Y-131035000D01*
X119802071Y-131152071D01*
X119759669Y-131215530D01*
X119515528Y-131459671D01*
X119452072Y-131502071D01*
X119409672Y-131565527D01*
X119409671Y-131565528D01*
X119284097Y-131753463D01*
X119225112Y-132050000D01*
X119240001Y-132124851D01*
X119240000Y-133610155D01*
X119225112Y-133685002D01*
X119240000Y-133759849D01*
X119240000Y-133759853D01*
X119284096Y-133981538D01*
X119452071Y-134232931D01*
X119515529Y-134275333D01*
X119909671Y-134669474D01*
X119952071Y-134732931D01*
X120015527Y-134775331D01*
X120203462Y-134900906D01*
X120251605Y-134910482D01*
X120425148Y-134945002D01*
X120425152Y-134945002D01*
X120500000Y-134959890D01*
X120574848Y-134945002D01*
X126370201Y-134945002D01*
X127659673Y-136234476D01*
X127702071Y-136297929D01*
X127765524Y-136340327D01*
X127765526Y-136340329D01*
X127890902Y-136424102D01*
X127953463Y-136465904D01*
X128175148Y-136510000D01*
X128175152Y-136510000D01*
X128249999Y-136524888D01*
X128324846Y-136510000D01*
X131675153Y-136510000D01*
X131750000Y-136524888D01*
X131824847Y-136510000D01*
X131824852Y-136510000D01*
X132046537Y-136465904D01*
X132297929Y-136297929D01*
X132340331Y-136234470D01*
X133789801Y-134785001D01*
X139585154Y-134785001D01*
X139660001Y-134799889D01*
X139734848Y-134785001D01*
X139734853Y-134785001D01*
X139956538Y-134740905D01*
X140207930Y-134572930D01*
X140250332Y-134509471D01*
X140484470Y-134275333D01*
X140547929Y-134232931D01*
X140715904Y-133981539D01*
X140760000Y-133759854D01*
X140760000Y-133759850D01*
X140774888Y-133685003D01*
X140760000Y-133610156D01*
X140760000Y-132124848D01*
X140774888Y-132050000D01*
X140760000Y-131975152D01*
X140760000Y-131975148D01*
X140715904Y-131753463D01*
X140715904Y-131753462D01*
X140606901Y-131590329D01*
X140547929Y-131502071D01*
X140484470Y-131459669D01*
X140240331Y-131215530D01*
X140197929Y-131152071D01*
X139957540Y-130991448D01*
X139932336Y-130953728D01*
X140035000Y-130705874D01*
X140035000Y-130294126D01*
X139877431Y-129913720D01*
X139586280Y-129622569D01*
X139205874Y-129465000D01*
X138794126Y-129465000D01*
X138413720Y-129622569D01*
X138122569Y-129913720D01*
X137965000Y-130294126D01*
X137965000Y-130705874D01*
X138067664Y-130953728D01*
X138001843Y-131052235D01*
X137952560Y-131300000D01*
X137952560Y-132100000D01*
X138001843Y-132347765D01*
X138103564Y-132500000D01*
X138076837Y-132540000D01*
X134100486Y-132540000D01*
X141513487Y-125127000D01*
X141790001Y-125127000D01*
X141790000Y-149290000D01*
X140069925Y-149290000D01*
X140000000Y-149276091D01*
X139930074Y-149290000D01*
X139722972Y-149331195D01*
X139488119Y-149488119D01*
X139331195Y-149722972D01*
X139276091Y-150000000D01*
X139290000Y-150069925D01*
X139290001Y-152290000D01*
X139035000Y-152290000D01*
X139035000Y-151285750D01*
X138876250Y-151127000D01*
X137627000Y-151127000D01*
X137627000Y-151147000D01*
X137373000Y-151147000D01*
X137373000Y-151127000D01*
X136123750Y-151127000D01*
X135965000Y-151285750D01*
X135965000Y-152290000D01*
X134047440Y-152290000D01*
X134047440Y-149300000D01*
X134022316Y-149173691D01*
X135965000Y-149173691D01*
X135965000Y-150714250D01*
X136123750Y-150873000D01*
X137373000Y-150873000D01*
X137373000Y-148823750D01*
X137627000Y-148823750D01*
X137627000Y-150873000D01*
X138876250Y-150873000D01*
X139035000Y-150714250D01*
X139035000Y-149173691D01*
X138938327Y-148940302D01*
X138759699Y-148761673D01*
X138526310Y-148665000D01*
X137785750Y-148665000D01*
X137627000Y-148823750D01*
X137373000Y-148823750D01*
X137214250Y-148665000D01*
X136473690Y-148665000D01*
X136240301Y-148761673D01*
X136061673Y-148940302D01*
X135965000Y-149173691D01*
X134022316Y-149173691D01*
X133998157Y-149052235D01*
X133857809Y-148842191D01*
X133647765Y-148701843D01*
X133400000Y-148652560D01*
X131600000Y-148652560D01*
X131352235Y-148701843D01*
X131142191Y-148842191D01*
X131001843Y-149052235D01*
X130952560Y-149300000D01*
X130952560Y-152290000D01*
X129047440Y-152290000D01*
X129047440Y-149300000D01*
X128998157Y-149052235D01*
X128857809Y-148842191D01*
X128647765Y-148701843D01*
X128400000Y-148652560D01*
X126600000Y-148652560D01*
X126352235Y-148701843D01*
X126142191Y-148842191D01*
X126001843Y-149052235D01*
X125952560Y-149300000D01*
X125952560Y-152290000D01*
X124047440Y-152290000D01*
X124047440Y-149300000D01*
X123998157Y-149052235D01*
X123857809Y-148842191D01*
X123647765Y-148701843D01*
X123400000Y-148652560D01*
X121600000Y-148652560D01*
X121352235Y-148701843D01*
X121142191Y-148842191D01*
X121001843Y-149052235D01*
X120952560Y-149300000D01*
X120952560Y-152290000D01*
X120710000Y-152290000D01*
X120710000Y-150069925D01*
X120723909Y-150000000D01*
X120668805Y-149722972D01*
X120511881Y-149488119D01*
X120277028Y-149331195D01*
X120069926Y-149290000D01*
X120069925Y-149290000D01*
X120000000Y-149276091D01*
X119930074Y-149290000D01*
X118210000Y-149290000D01*
X118210000Y-143800000D01*
X119952560Y-143800000D01*
X119952560Y-144600000D01*
X120001843Y-144847765D01*
X120103564Y-145000000D01*
X120001843Y-145152235D01*
X119952560Y-145400000D01*
X119952560Y-146200000D01*
X120001843Y-146447765D01*
X120067664Y-146546272D01*
X119965000Y-146794126D01*
X119965000Y-147205874D01*
X120122569Y-147586280D01*
X120413720Y-147877431D01*
X120794126Y-148035000D01*
X121205874Y-148035000D01*
X121586280Y-147877431D01*
X121877431Y-147586280D01*
X122035000Y-147205874D01*
X122035000Y-146794126D01*
X121932336Y-146546272D01*
X121998157Y-146447765D01*
X122047440Y-146200000D01*
X122047440Y-145400000D01*
X121998157Y-145152235D01*
X121896436Y-145000000D01*
X121998157Y-144847765D01*
X122047440Y-144600000D01*
X122047440Y-143800000D01*
X121998157Y-143552235D01*
X121932336Y-143453728D01*
X122016722Y-143250000D01*
X123347663Y-143250000D01*
X123416348Y-143595309D01*
X123611951Y-143888049D01*
X123685846Y-143937424D01*
X123812575Y-144064153D01*
X123861951Y-144138049D01*
X124154690Y-144333652D01*
X124412835Y-144385000D01*
X124412840Y-144385000D01*
X124499999Y-144402337D01*
X124587159Y-144385000D01*
X127115001Y-144385000D01*
X127115000Y-145615000D01*
X125568007Y-145615000D01*
X125205874Y-145465000D01*
X124794126Y-145465000D01*
X124413720Y-145622569D01*
X124122569Y-145913720D01*
X123965000Y-146294126D01*
X123965000Y-146705874D01*
X124122569Y-147086280D01*
X124413720Y-147377431D01*
X124794126Y-147535000D01*
X125205874Y-147535000D01*
X125568007Y-147385000D01*
X127662839Y-147385000D01*
X127750000Y-147402337D01*
X127837161Y-147385000D01*
X127837165Y-147385000D01*
X128095310Y-147333652D01*
X128388049Y-147138049D01*
X128437425Y-147064153D01*
X128564154Y-146937424D01*
X128638049Y-146888049D01*
X128833652Y-146595310D01*
X128885000Y-146337165D01*
X128885000Y-146337160D01*
X128902337Y-146250001D01*
X128885000Y-146162841D01*
X128885000Y-143837159D01*
X128902337Y-143749999D01*
X128885000Y-143662840D01*
X128885000Y-143662835D01*
X128833652Y-143404690D01*
X128638049Y-143111951D01*
X128564153Y-143062575D01*
X128437424Y-142935846D01*
X128388049Y-142861951D01*
X128095310Y-142666348D01*
X127837165Y-142615000D01*
X127837161Y-142615000D01*
X127750000Y-142597663D01*
X127662839Y-142615000D01*
X126136578Y-142615000D01*
X130000000Y-138751579D01*
X133863421Y-142615000D01*
X132337159Y-142615000D01*
X132249999Y-142597663D01*
X132162840Y-142615000D01*
X132162835Y-142615000D01*
X131904690Y-142666348D01*
X131611951Y-142861951D01*
X131562576Y-142935846D01*
X131435847Y-143062575D01*
X131361951Y-143111951D01*
X131166348Y-143404691D01*
X131115000Y-143662836D01*
X131115000Y-143662839D01*
X131097663Y-143750000D01*
X131115000Y-143837161D01*
X131115001Y-146162835D01*
X131097663Y-146250000D01*
X131166348Y-146595309D01*
X131312576Y-146814154D01*
X131312578Y-146814156D01*
X131361952Y-146888049D01*
X131435845Y-146937423D01*
X131562575Y-147064153D01*
X131611951Y-147138049D01*
X131904690Y-147333652D01*
X132162835Y-147385000D01*
X132162840Y-147385000D01*
X132249999Y-147402337D01*
X132337159Y-147385000D01*
X134431993Y-147385000D01*
X134794126Y-147535000D01*
X135205874Y-147535000D01*
X135586280Y-147377431D01*
X135877431Y-147086280D01*
X136035000Y-146705874D01*
X136035000Y-146294126D01*
X135877431Y-145913720D01*
X135586280Y-145622569D01*
X135205874Y-145465000D01*
X134794126Y-145465000D01*
X134431993Y-145615000D01*
X132885000Y-145615000D01*
X132885000Y-144385000D01*
X135412839Y-144385000D01*
X135500000Y-144402337D01*
X135587161Y-144385000D01*
X135587165Y-144385000D01*
X135845310Y-144333652D01*
X136138049Y-144138049D01*
X136187425Y-144064153D01*
X136314154Y-143937424D01*
X136388049Y-143888049D01*
X136446881Y-143800000D01*
X137952560Y-143800000D01*
X137952560Y-144600000D01*
X138001843Y-144847765D01*
X138103564Y-145000000D01*
X138001843Y-145152235D01*
X137952560Y-145400000D01*
X137952560Y-146200000D01*
X138001843Y-146447765D01*
X138067664Y-146546272D01*
X137965000Y-146794126D01*
X137965000Y-147205874D01*
X138122569Y-147586280D01*
X138413720Y-147877431D01*
X138794126Y-148035000D01*
X139205874Y-148035000D01*
X139586280Y-147877431D01*
X139877431Y-147586280D01*
X140035000Y-147205874D01*
X140035000Y-146794126D01*
X139932336Y-146546272D01*
X139998157Y-146447765D01*
X140047440Y-146200000D01*
X140047440Y-145400000D01*
X139998157Y-145152235D01*
X139896436Y-145000000D01*
X139998157Y-144847765D01*
X140047440Y-144600000D01*
X140047440Y-143800000D01*
X139998157Y-143552235D01*
X139932336Y-143453728D01*
X140035000Y-143205874D01*
X140035000Y-142794126D01*
X139877431Y-142413720D01*
X139586280Y-142122569D01*
X139205874Y-141965000D01*
X138794126Y-141965000D01*
X138413720Y-142122569D01*
X138122569Y-142413720D01*
X137965000Y-142794126D01*
X137965000Y-143205874D01*
X138067664Y-143453728D01*
X138001843Y-143552235D01*
X137952560Y-143800000D01*
X136446881Y-143800000D01*
X136583652Y-143595310D01*
X136652337Y-143250000D01*
X136583652Y-142904690D01*
X136437424Y-142685845D01*
X136437422Y-142685843D01*
X136388049Y-142611951D01*
X136314157Y-142562578D01*
X130937425Y-137185847D01*
X130888049Y-137111951D01*
X130595310Y-136916348D01*
X130337165Y-136865000D01*
X130337161Y-136865000D01*
X130250000Y-136847663D01*
X130162839Y-136865000D01*
X129837161Y-136865000D01*
X129750000Y-136847663D01*
X129662839Y-136865000D01*
X129662835Y-136865000D01*
X129404690Y-136916348D01*
X129185845Y-137062576D01*
X129185844Y-137062577D01*
X129111951Y-137111951D01*
X129062577Y-137185844D01*
X123685846Y-142562576D01*
X123611951Y-142611951D01*
X123562577Y-142685845D01*
X123562576Y-142685846D01*
X123416348Y-142904691D01*
X123347663Y-143250000D01*
X122016722Y-143250000D01*
X122035000Y-143205874D01*
X122035000Y-142794126D01*
X121877431Y-142413720D01*
X121586280Y-142122569D01*
X121205874Y-141965000D01*
X120794126Y-141965000D01*
X120413720Y-142122569D01*
X120122569Y-142413720D01*
X119965000Y-142794126D01*
X119965000Y-143205874D01*
X120067664Y-143453728D01*
X120001843Y-143552235D01*
X119952560Y-143800000D01*
X118210000Y-143800000D01*
X118210000Y-125127000D01*
X118486514Y-125127000D01*
X125899513Y-132540000D01*
X125899513Y-132540000D01*
G37*
X125899513Y-132540000D02*
X121923163Y-132540000D01*
X121896436Y-132500000D01*
X121998157Y-132347765D01*
X122047440Y-132100000D01*
X122047440Y-131300000D01*
X121998157Y-131052235D01*
X121932336Y-130953728D01*
X122035000Y-130705874D01*
X122035000Y-130294126D01*
X121877431Y-129913720D01*
X121586280Y-129622569D01*
X121205874Y-129465000D01*
X120794126Y-129465000D01*
X120413720Y-129622569D01*
X120122569Y-129913720D01*
X119965000Y-130294126D01*
X119965000Y-130705874D01*
X120067664Y-130953728D01*
X120042461Y-130991447D01*
X119977280Y-131035000D01*
X119802071Y-131152071D01*
X119759669Y-131215530D01*
X119515528Y-131459671D01*
X119452072Y-131502071D01*
X119409672Y-131565527D01*
X119409671Y-131565528D01*
X119284097Y-131753463D01*
X119225112Y-132050000D01*
X119240001Y-132124851D01*
X119240000Y-133610155D01*
X119225112Y-133685002D01*
X119240000Y-133759849D01*
X119240000Y-133759853D01*
X119284096Y-133981538D01*
X119452071Y-134232931D01*
X119515529Y-134275333D01*
X119909671Y-134669474D01*
X119952071Y-134732931D01*
X120015527Y-134775331D01*
X120203462Y-134900906D01*
X120251605Y-134910482D01*
X120425148Y-134945002D01*
X120425152Y-134945002D01*
X120500000Y-134959890D01*
X120574848Y-134945002D01*
X126370201Y-134945002D01*
X127659673Y-136234476D01*
X127702071Y-136297929D01*
X127765524Y-136340327D01*
X127765526Y-136340329D01*
X127890902Y-136424102D01*
X127953463Y-136465904D01*
X128175148Y-136510000D01*
X128175152Y-136510000D01*
X128249999Y-136524888D01*
X128324846Y-136510000D01*
X131675153Y-136510000D01*
X131750000Y-136524888D01*
X131824847Y-136510000D01*
X131824852Y-136510000D01*
X132046537Y-136465904D01*
X132297929Y-136297929D01*
X132340331Y-136234470D01*
X133789801Y-134785001D01*
X139585154Y-134785001D01*
X139660001Y-134799889D01*
X139734848Y-134785001D01*
X139734853Y-134785001D01*
X139956538Y-134740905D01*
X140207930Y-134572930D01*
X140250332Y-134509471D01*
X140484470Y-134275333D01*
X140547929Y-134232931D01*
X140715904Y-133981539D01*
X140760000Y-133759854D01*
X140760000Y-133759850D01*
X140774888Y-133685003D01*
X140760000Y-133610156D01*
X140760000Y-132124848D01*
X140774888Y-132050000D01*
X140760000Y-131975152D01*
X140760000Y-131975148D01*
X140715904Y-131753463D01*
X140715904Y-131753462D01*
X140606901Y-131590329D01*
X140547929Y-131502071D01*
X140484470Y-131459669D01*
X140240331Y-131215530D01*
X140197929Y-131152071D01*
X139957540Y-130991448D01*
X139932336Y-130953728D01*
X140035000Y-130705874D01*
X140035000Y-130294126D01*
X139877431Y-129913720D01*
X139586280Y-129622569D01*
X139205874Y-129465000D01*
X138794126Y-129465000D01*
X138413720Y-129622569D01*
X138122569Y-129913720D01*
X137965000Y-130294126D01*
X137965000Y-130705874D01*
X138067664Y-130953728D01*
X138001843Y-131052235D01*
X137952560Y-131300000D01*
X137952560Y-132100000D01*
X138001843Y-132347765D01*
X138103564Y-132500000D01*
X138076837Y-132540000D01*
X134100486Y-132540000D01*
X141513487Y-125127000D01*
X141790001Y-125127000D01*
X141790000Y-149290000D01*
X140069925Y-149290000D01*
X140000000Y-149276091D01*
X139930074Y-149290000D01*
X139722972Y-149331195D01*
X139488119Y-149488119D01*
X139331195Y-149722972D01*
X139276091Y-150000000D01*
X139290000Y-150069925D01*
X139290001Y-152290000D01*
X139035000Y-152290000D01*
X139035000Y-151285750D01*
X138876250Y-151127000D01*
X137627000Y-151127000D01*
X137627000Y-151147000D01*
X137373000Y-151147000D01*
X137373000Y-151127000D01*
X136123750Y-151127000D01*
X135965000Y-151285750D01*
X135965000Y-152290000D01*
X134047440Y-152290000D01*
X134047440Y-149300000D01*
X134022316Y-149173691D01*
X135965000Y-149173691D01*
X135965000Y-150714250D01*
X136123750Y-150873000D01*
X137373000Y-150873000D01*
X137373000Y-148823750D01*
X137627000Y-148823750D01*
X137627000Y-150873000D01*
X138876250Y-150873000D01*
X139035000Y-150714250D01*
X139035000Y-149173691D01*
X138938327Y-148940302D01*
X138759699Y-148761673D01*
X138526310Y-148665000D01*
X137785750Y-148665000D01*
X137627000Y-148823750D01*
X137373000Y-148823750D01*
X137214250Y-148665000D01*
X136473690Y-148665000D01*
X136240301Y-148761673D01*
X136061673Y-148940302D01*
X135965000Y-149173691D01*
X134022316Y-149173691D01*
X133998157Y-149052235D01*
X133857809Y-148842191D01*
X133647765Y-148701843D01*
X133400000Y-148652560D01*
X131600000Y-148652560D01*
X131352235Y-148701843D01*
X131142191Y-148842191D01*
X131001843Y-149052235D01*
X130952560Y-149300000D01*
X130952560Y-152290000D01*
X129047440Y-152290000D01*
X129047440Y-149300000D01*
X128998157Y-149052235D01*
X128857809Y-148842191D01*
X128647765Y-148701843D01*
X128400000Y-148652560D01*
X126600000Y-148652560D01*
X126352235Y-148701843D01*
X126142191Y-148842191D01*
X126001843Y-149052235D01*
X125952560Y-149300000D01*
X125952560Y-152290000D01*
X124047440Y-152290000D01*
X124047440Y-149300000D01*
X123998157Y-149052235D01*
X123857809Y-148842191D01*
X123647765Y-148701843D01*
X123400000Y-148652560D01*
X121600000Y-148652560D01*
X121352235Y-148701843D01*
X121142191Y-148842191D01*
X121001843Y-149052235D01*
X120952560Y-149300000D01*
X120952560Y-152290000D01*
X120710000Y-152290000D01*
X120710000Y-150069925D01*
X120723909Y-150000000D01*
X120668805Y-149722972D01*
X120511881Y-149488119D01*
X120277028Y-149331195D01*
X120069926Y-149290000D01*
X120069925Y-149290000D01*
X120000000Y-149276091D01*
X119930074Y-149290000D01*
X118210000Y-149290000D01*
X118210000Y-143800000D01*
X119952560Y-143800000D01*
X119952560Y-144600000D01*
X120001843Y-144847765D01*
X120103564Y-145000000D01*
X120001843Y-145152235D01*
X119952560Y-145400000D01*
X119952560Y-146200000D01*
X120001843Y-146447765D01*
X120067664Y-146546272D01*
X119965000Y-146794126D01*
X119965000Y-147205874D01*
X120122569Y-147586280D01*
X120413720Y-147877431D01*
X120794126Y-148035000D01*
X121205874Y-148035000D01*
X121586280Y-147877431D01*
X121877431Y-147586280D01*
X122035000Y-147205874D01*
X122035000Y-146794126D01*
X121932336Y-146546272D01*
X121998157Y-146447765D01*
X122047440Y-146200000D01*
X122047440Y-145400000D01*
X121998157Y-145152235D01*
X121896436Y-145000000D01*
X121998157Y-144847765D01*
X122047440Y-144600000D01*
X122047440Y-143800000D01*
X121998157Y-143552235D01*
X121932336Y-143453728D01*
X122016722Y-143250000D01*
X123347663Y-143250000D01*
X123416348Y-143595309D01*
X123611951Y-143888049D01*
X123685846Y-143937424D01*
X123812575Y-144064153D01*
X123861951Y-144138049D01*
X124154690Y-144333652D01*
X124412835Y-144385000D01*
X124412840Y-144385000D01*
X124499999Y-144402337D01*
X124587159Y-144385000D01*
X127115001Y-144385000D01*
X127115000Y-145615000D01*
X125568007Y-145615000D01*
X125205874Y-145465000D01*
X124794126Y-145465000D01*
X124413720Y-145622569D01*
X124122569Y-145913720D01*
X123965000Y-146294126D01*
X123965000Y-146705874D01*
X124122569Y-147086280D01*
X124413720Y-147377431D01*
X124794126Y-147535000D01*
X125205874Y-147535000D01*
X125568007Y-147385000D01*
X127662839Y-147385000D01*
X127750000Y-147402337D01*
X127837161Y-147385000D01*
X127837165Y-147385000D01*
X128095310Y-147333652D01*
X128388049Y-147138049D01*
X128437425Y-147064153D01*
X128564154Y-146937424D01*
X128638049Y-146888049D01*
X128833652Y-146595310D01*
X128885000Y-146337165D01*
X128885000Y-146337160D01*
X128902337Y-146250001D01*
X128885000Y-146162841D01*
X128885000Y-143837159D01*
X128902337Y-143749999D01*
X128885000Y-143662840D01*
X128885000Y-143662835D01*
X128833652Y-143404690D01*
X128638049Y-143111951D01*
X128564153Y-143062575D01*
X128437424Y-142935846D01*
X128388049Y-142861951D01*
X128095310Y-142666348D01*
X127837165Y-142615000D01*
X127837161Y-142615000D01*
X127750000Y-142597663D01*
X127662839Y-142615000D01*
X126136578Y-142615000D01*
X130000000Y-138751579D01*
X133863421Y-142615000D01*
X132337159Y-142615000D01*
X132249999Y-142597663D01*
X132162840Y-142615000D01*
X132162835Y-142615000D01*
X131904690Y-142666348D01*
X131611951Y-142861951D01*
X131562576Y-142935846D01*
X131435847Y-143062575D01*
X131361951Y-143111951D01*
X131166348Y-143404691D01*
X131115000Y-143662836D01*
X131115000Y-143662839D01*
X131097663Y-143750000D01*
X131115000Y-143837161D01*
X131115001Y-146162835D01*
X131097663Y-146250000D01*
X131166348Y-146595309D01*
X131312576Y-146814154D01*
X131312578Y-146814156D01*
X131361952Y-146888049D01*
X131435845Y-146937423D01*
X131562575Y-147064153D01*
X131611951Y-147138049D01*
X131904690Y-147333652D01*
X132162835Y-147385000D01*
X132162840Y-147385000D01*
X132249999Y-147402337D01*
X132337159Y-147385000D01*
X134431993Y-147385000D01*
X134794126Y-147535000D01*
X135205874Y-147535000D01*
X135586280Y-147377431D01*
X135877431Y-147086280D01*
X136035000Y-146705874D01*
X136035000Y-146294126D01*
X135877431Y-145913720D01*
X135586280Y-145622569D01*
X135205874Y-145465000D01*
X134794126Y-145465000D01*
X134431993Y-145615000D01*
X132885000Y-145615000D01*
X132885000Y-144385000D01*
X135412839Y-144385000D01*
X135500000Y-144402337D01*
X135587161Y-144385000D01*
X135587165Y-144385000D01*
X135845310Y-144333652D01*
X136138049Y-144138049D01*
X136187425Y-144064153D01*
X136314154Y-143937424D01*
X136388049Y-143888049D01*
X136446881Y-143800000D01*
X137952560Y-143800000D01*
X137952560Y-144600000D01*
X138001843Y-144847765D01*
X138103564Y-145000000D01*
X138001843Y-145152235D01*
X137952560Y-145400000D01*
X137952560Y-146200000D01*
X138001843Y-146447765D01*
X138067664Y-146546272D01*
X137965000Y-146794126D01*
X137965000Y-147205874D01*
X138122569Y-147586280D01*
X138413720Y-147877431D01*
X138794126Y-148035000D01*
X139205874Y-148035000D01*
X139586280Y-147877431D01*
X139877431Y-147586280D01*
X140035000Y-147205874D01*
X140035000Y-146794126D01*
X139932336Y-146546272D01*
X139998157Y-146447765D01*
X140047440Y-146200000D01*
X140047440Y-145400000D01*
X139998157Y-145152235D01*
X139896436Y-145000000D01*
X139998157Y-144847765D01*
X140047440Y-144600000D01*
X140047440Y-143800000D01*
X139998157Y-143552235D01*
X139932336Y-143453728D01*
X140035000Y-143205874D01*
X140035000Y-142794126D01*
X139877431Y-142413720D01*
X139586280Y-142122569D01*
X139205874Y-141965000D01*
X138794126Y-141965000D01*
X138413720Y-142122569D01*
X138122569Y-142413720D01*
X137965000Y-142794126D01*
X137965000Y-143205874D01*
X138067664Y-143453728D01*
X138001843Y-143552235D01*
X137952560Y-143800000D01*
X136446881Y-143800000D01*
X136583652Y-143595310D01*
X136652337Y-143250000D01*
X136583652Y-142904690D01*
X136437424Y-142685845D01*
X136437422Y-142685843D01*
X136388049Y-142611951D01*
X136314157Y-142562578D01*
X130937425Y-137185847D01*
X130888049Y-137111951D01*
X130595310Y-136916348D01*
X130337165Y-136865000D01*
X130337161Y-136865000D01*
X130250000Y-136847663D01*
X130162839Y-136865000D01*
X129837161Y-136865000D01*
X129750000Y-136847663D01*
X129662839Y-136865000D01*
X129662835Y-136865000D01*
X129404690Y-136916348D01*
X129185845Y-137062576D01*
X129185844Y-137062577D01*
X129111951Y-137111951D01*
X129062577Y-137185844D01*
X123685846Y-142562576D01*
X123611951Y-142611951D01*
X123562577Y-142685845D01*
X123562576Y-142685846D01*
X123416348Y-142904691D01*
X123347663Y-143250000D01*
X122016722Y-143250000D01*
X122035000Y-143205874D01*
X122035000Y-142794126D01*
X121877431Y-142413720D01*
X121586280Y-142122569D01*
X121205874Y-141965000D01*
X120794126Y-141965000D01*
X120413720Y-142122569D01*
X120122569Y-142413720D01*
X119965000Y-142794126D01*
X119965000Y-143205874D01*
X120067664Y-143453728D01*
X120001843Y-143552235D01*
X119952560Y-143800000D01*
X118210000Y-143800000D01*
X118210000Y-125127000D01*
X118486514Y-125127000D01*
X125899513Y-132540000D01*
G04 #@! TO.N,Net-(D1-Pad1)*
G36*
X124240000Y-126764803D02*
X124240001Y-127730884D01*
X119324646Y-122815530D01*
X119282244Y-122752071D01*
X119095062Y-122627000D01*
X120102197Y-122627000D01*
X124240000Y-126764803D01*
X124240000Y-126764803D01*
G37*
X124240000Y-126764803D02*
X124240001Y-127730884D01*
X119324646Y-122815530D01*
X119282244Y-122752071D01*
X119095062Y-122627000D01*
X120102197Y-122627000D01*
X124240000Y-126764803D01*
G36*
X140717757Y-122752070D02*
X140675357Y-122815526D01*
X135825685Y-127665199D01*
X135825685Y-126699115D01*
X139897800Y-122627000D01*
X140904937Y-122627000D01*
X140717757Y-122752070D01*
X140717757Y-122752070D01*
G37*
X140717757Y-122752070D02*
X140675357Y-122815526D01*
X135825685Y-127665199D01*
X135825685Y-126699115D01*
X139897800Y-122627000D01*
X140904937Y-122627000D01*
X140717757Y-122752070D01*
G36*
X125240001Y-125615198D02*
X122251803Y-122627000D01*
X125240001Y-122627000D01*
X125240001Y-125615198D01*
X125240001Y-125615198D01*
G37*
X125240001Y-125615198D02*
X122251803Y-122627000D01*
X125240001Y-122627000D01*
X125240001Y-125615198D01*
G36*
X134760000Y-125615198D02*
X134760000Y-122627000D01*
X137748198Y-122627000D01*
X134760000Y-125615198D01*
X134760000Y-125615198D01*
G37*
X134760000Y-125615198D02*
X134760000Y-122627000D01*
X137748198Y-122627000D01*
X134760000Y-125615198D01*
G04 #@! TD*
M02*
