G04 #@! TF.GenerationSoftware,KiCad,Pcbnew,(5.0.2)-1*
G04 #@! TF.CreationDate,2020-04-04T16:43:38+09:00*
G04 #@! TF.ProjectId,Tree,54726565-2e6b-4696-9361-645f70636258,rev?*
G04 #@! TF.SameCoordinates,Original*
G04 #@! TF.FileFunction,Copper,L2,Bot*
G04 #@! TF.FilePolarity,Positive*
%FSLAX46Y46*%
G04 Gerber Fmt 4.6, Leading zero omitted, Abs format (unit mm)*
G04 Created by KiCad (PCBNEW (5.0.2)-1) date 2020/04/04 16:43:38*
%MOMM*%
%LPD*%
G01*
G04 APERTURE LIST*
G04 #@! TA.AperFunction,ConnectorPad*
%ADD10R,1.470000X8.890000*%
G04 #@! TD*
G04 #@! TA.AperFunction,SMDPad,CuDef*
%ADD11R,2.000000X0.600000*%
G04 #@! TD*
G04 #@! TA.AperFunction,SMDPad,CuDef*
%ADD12C,0.500000*%
G04 #@! TD*
G04 #@! TA.AperFunction,Conductor*
%ADD13C,0.100000*%
G04 #@! TD*
G04 #@! TA.AperFunction,SMDPad,CuDef*
%ADD14R,0.800000X0.800000*%
G04 #@! TD*
G04 #@! TA.AperFunction,ViaPad*
%ADD15C,0.800000*%
G04 #@! TD*
G04 #@! TA.AperFunction,Conductor*
%ADD16C,0.500000*%
G04 #@! TD*
G04 #@! TA.AperFunction,Conductor*
%ADD17C,0.250000*%
G04 #@! TD*
G04 #@! TA.AperFunction,Conductor*
%ADD18C,0.254000*%
G04 #@! TD*
G04 APERTURE END LIST*
D10*
G04 #@! TO.P,J1,1*
G04 #@! TO.N,+5V*
X124920000Y-150500000D03*
G04 #@! TO.P,J1,2*
G04 #@! TO.N,SDA*
X127460000Y-150500000D03*
G04 #@! TO.P,J1,3*
G04 #@! TO.N,SCL*
X130000000Y-150500000D03*
G04 #@! TO.P,J1,4*
G04 #@! TO.N,Net-(J1-Pad4)*
X132540000Y-150500000D03*
G04 #@! TO.P,J1,5*
G04 #@! TO.N,GND*
X135080000Y-150500000D03*
G04 #@! TD*
D11*
G04 #@! TO.P,U1,1*
G04 #@! TO.N,GND*
X125300000Y-139755000D03*
G04 #@! TO.P,U1,2*
G04 #@! TO.N,Net-(D1-Pad1)*
X125300000Y-138485000D03*
G04 #@! TO.P,U1,3*
G04 #@! TO.N,Net-(D16-Pad1)*
X125300000Y-137215000D03*
G04 #@! TO.P,U1,4*
G04 #@! TO.N,Net-(U1-Pad4)*
X125300000Y-135945000D03*
G04 #@! TO.P,U1,5*
G04 #@! TO.N,Net-(U1-Pad5)*
X125300000Y-134675000D03*
G04 #@! TO.P,U1,6*
G04 #@! TO.N,Net-(U1-Pad6)*
X125300000Y-133405000D03*
G04 #@! TO.P,U1,7*
G04 #@! TO.N,Net-(U1-Pad7)*
X125300000Y-132135000D03*
G04 #@! TO.P,U1,8*
G04 #@! TO.N,Net-(U1-Pad8)*
X125300000Y-130865000D03*
G04 #@! TO.P,U1,9*
G04 #@! TO.N,Net-(U1-Pad9)*
X125300000Y-129595000D03*
G04 #@! TO.P,U1,10*
G04 #@! TO.N,Net-(U1-Pad10)*
X125300000Y-128325000D03*
G04 #@! TO.P,U1,11*
G04 #@! TO.N,Net-(D15-Pad2)*
X125300000Y-127055000D03*
G04 #@! TO.P,U1,12*
G04 #@! TO.N,Net-(D14-Pad2)*
X125300000Y-125785000D03*
G04 #@! TO.P,U1,13*
G04 #@! TO.N,Net-(D13-Pad2)*
X125300000Y-124515000D03*
G04 #@! TO.P,U1,14*
G04 #@! TO.N,Net-(D12-Pad2)*
X125300000Y-123245000D03*
G04 #@! TO.P,U1,15*
G04 #@! TO.N,Net-(D11-Pad2)*
X134700000Y-123245000D03*
G04 #@! TO.P,U1,16*
G04 #@! TO.N,Net-(D10-Pad2)*
X134700000Y-124515000D03*
G04 #@! TO.P,U1,17*
G04 #@! TO.N,Net-(D9-Pad2)*
X134700000Y-125785000D03*
G04 #@! TO.P,U1,18*
G04 #@! TO.N,Net-(D8-Pad2)*
X134700000Y-127055000D03*
G04 #@! TO.P,U1,19*
G04 #@! TO.N,Net-(D7-Pad2)*
X134700000Y-128325000D03*
G04 #@! TO.P,U1,20*
G04 #@! TO.N,Net-(D6-Pad2)*
X134700000Y-129595000D03*
G04 #@! TO.P,U1,21*
G04 #@! TO.N,Net-(D5-Pad2)*
X134700000Y-130865000D03*
G04 #@! TO.P,U1,22*
G04 #@! TO.N,Net-(D19-Pad2)*
X134700000Y-132135000D03*
G04 #@! TO.P,U1,23*
G04 #@! TO.N,Net-(D18-Pad2)*
X134700000Y-133405000D03*
G04 #@! TO.P,U1,24*
G04 #@! TO.N,Net-(D17-Pad2)*
X134700000Y-134675000D03*
G04 #@! TO.P,U1,25*
G04 #@! TO.N,Net-(D1-Pad2)*
X134700000Y-135945000D03*
G04 #@! TO.P,U1,26*
G04 #@! TO.N,SCL*
X134700000Y-137215000D03*
G04 #@! TO.P,U1,27*
G04 #@! TO.N,SDA*
X134700000Y-138485000D03*
G04 #@! TO.P,U1,28*
G04 #@! TO.N,+5V*
X134700000Y-139755000D03*
G04 #@! TD*
D12*
G04 #@! TO.P,JP3,1*
G04 #@! TO.N,Net-(JP3-Pad1)*
X132500000Y-117650000D03*
D13*
G04 #@! TD*
G04 #@! TO.N,Net-(JP3-Pad1)*
G04 #@! TO.C,JP3*
G36*
X131750000Y-118150000D02*
X131750000Y-117650000D01*
X131750602Y-117650000D01*
X131750602Y-117625466D01*
X131755412Y-117576635D01*
X131764984Y-117528510D01*
X131779228Y-117481555D01*
X131798005Y-117436222D01*
X131821136Y-117392949D01*
X131848396Y-117352150D01*
X131879524Y-117314221D01*
X131914221Y-117279524D01*
X131952150Y-117248396D01*
X131992949Y-117221136D01*
X132036222Y-117198005D01*
X132081555Y-117179228D01*
X132128510Y-117164984D01*
X132176635Y-117155412D01*
X132225466Y-117150602D01*
X132250000Y-117150602D01*
X132250000Y-117150000D01*
X132750000Y-117150000D01*
X132750000Y-117150602D01*
X132774534Y-117150602D01*
X132823365Y-117155412D01*
X132871490Y-117164984D01*
X132918445Y-117179228D01*
X132963778Y-117198005D01*
X133007051Y-117221136D01*
X133047850Y-117248396D01*
X133085779Y-117279524D01*
X133120476Y-117314221D01*
X133151604Y-117352150D01*
X133178864Y-117392949D01*
X133201995Y-117436222D01*
X133220772Y-117481555D01*
X133235016Y-117528510D01*
X133244588Y-117576635D01*
X133249398Y-117625466D01*
X133249398Y-117650000D01*
X133250000Y-117650000D01*
X133250000Y-118150000D01*
X131750000Y-118150000D01*
X131750000Y-118150000D01*
G37*
D12*
G04 #@! TO.P,JP3,2*
G04 #@! TO.N,Net-(D18-Pad2)*
X132500000Y-118950000D03*
D13*
G04 #@! TD*
G04 #@! TO.N,Net-(D18-Pad2)*
G04 #@! TO.C,JP3*
G36*
X133249398Y-118950000D02*
X133249398Y-118974534D01*
X133244588Y-119023365D01*
X133235016Y-119071490D01*
X133220772Y-119118445D01*
X133201995Y-119163778D01*
X133178864Y-119207051D01*
X133151604Y-119247850D01*
X133120476Y-119285779D01*
X133085779Y-119320476D01*
X133047850Y-119351604D01*
X133007051Y-119378864D01*
X132963778Y-119401995D01*
X132918445Y-119420772D01*
X132871490Y-119435016D01*
X132823365Y-119444588D01*
X132774534Y-119449398D01*
X132750000Y-119449398D01*
X132750000Y-119450000D01*
X132250000Y-119450000D01*
X132250000Y-119449398D01*
X132225466Y-119449398D01*
X132176635Y-119444588D01*
X132128510Y-119435016D01*
X132081555Y-119420772D01*
X132036222Y-119401995D01*
X131992949Y-119378864D01*
X131952150Y-119351604D01*
X131914221Y-119320476D01*
X131879524Y-119285779D01*
X131848396Y-119247850D01*
X131821136Y-119207051D01*
X131798005Y-119163778D01*
X131779228Y-119118445D01*
X131764984Y-119071490D01*
X131755412Y-119023365D01*
X131750602Y-118974534D01*
X131750602Y-118950000D01*
X131750000Y-118950000D01*
X131750000Y-118450000D01*
X133250000Y-118450000D01*
X133250000Y-118950000D01*
X133249398Y-118950000D01*
X133249398Y-118950000D01*
G37*
D14*
G04 #@! TO.P,C1,1*
G04 #@! TO.N,+5V*
X126300000Y-142000000D03*
G04 #@! TO.P,C1,2*
G04 #@! TO.N,GND*
X124700000Y-142000000D03*
G04 #@! TD*
D12*
G04 #@! TO.P,JP1,1*
G04 #@! TO.N,Net-(JP1-Pad1)*
X127500000Y-117650000D03*
D13*
G04 #@! TD*
G04 #@! TO.N,Net-(JP1-Pad1)*
G04 #@! TO.C,JP1*
G36*
X126750000Y-118150000D02*
X126750000Y-117650000D01*
X126750602Y-117650000D01*
X126750602Y-117625466D01*
X126755412Y-117576635D01*
X126764984Y-117528510D01*
X126779228Y-117481555D01*
X126798005Y-117436222D01*
X126821136Y-117392949D01*
X126848396Y-117352150D01*
X126879524Y-117314221D01*
X126914221Y-117279524D01*
X126952150Y-117248396D01*
X126992949Y-117221136D01*
X127036222Y-117198005D01*
X127081555Y-117179228D01*
X127128510Y-117164984D01*
X127176635Y-117155412D01*
X127225466Y-117150602D01*
X127250000Y-117150602D01*
X127250000Y-117150000D01*
X127750000Y-117150000D01*
X127750000Y-117150602D01*
X127774534Y-117150602D01*
X127823365Y-117155412D01*
X127871490Y-117164984D01*
X127918445Y-117179228D01*
X127963778Y-117198005D01*
X128007051Y-117221136D01*
X128047850Y-117248396D01*
X128085779Y-117279524D01*
X128120476Y-117314221D01*
X128151604Y-117352150D01*
X128178864Y-117392949D01*
X128201995Y-117436222D01*
X128220772Y-117481555D01*
X128235016Y-117528510D01*
X128244588Y-117576635D01*
X128249398Y-117625466D01*
X128249398Y-117650000D01*
X128250000Y-117650000D01*
X128250000Y-118150000D01*
X126750000Y-118150000D01*
X126750000Y-118150000D01*
G37*
D12*
G04 #@! TO.P,JP1,2*
G04 #@! TO.N,Net-(D1-Pad2)*
X127500000Y-118950000D03*
D13*
G04 #@! TD*
G04 #@! TO.N,Net-(D1-Pad2)*
G04 #@! TO.C,JP1*
G36*
X128249398Y-118950000D02*
X128249398Y-118974534D01*
X128244588Y-119023365D01*
X128235016Y-119071490D01*
X128220772Y-119118445D01*
X128201995Y-119163778D01*
X128178864Y-119207051D01*
X128151604Y-119247850D01*
X128120476Y-119285779D01*
X128085779Y-119320476D01*
X128047850Y-119351604D01*
X128007051Y-119378864D01*
X127963778Y-119401995D01*
X127918445Y-119420772D01*
X127871490Y-119435016D01*
X127823365Y-119444588D01*
X127774534Y-119449398D01*
X127750000Y-119449398D01*
X127750000Y-119450000D01*
X127250000Y-119450000D01*
X127250000Y-119449398D01*
X127225466Y-119449398D01*
X127176635Y-119444588D01*
X127128510Y-119435016D01*
X127081555Y-119420772D01*
X127036222Y-119401995D01*
X126992949Y-119378864D01*
X126952150Y-119351604D01*
X126914221Y-119320476D01*
X126879524Y-119285779D01*
X126848396Y-119247850D01*
X126821136Y-119207051D01*
X126798005Y-119163778D01*
X126779228Y-119118445D01*
X126764984Y-119071490D01*
X126755412Y-119023365D01*
X126750602Y-118974534D01*
X126750602Y-118950000D01*
X126750000Y-118950000D01*
X126750000Y-118450000D01*
X128250000Y-118450000D01*
X128250000Y-118950000D01*
X128249398Y-118950000D01*
X128249398Y-118950000D01*
G37*
D12*
G04 #@! TO.P,JP2,2*
G04 #@! TO.N,Net-(D17-Pad2)*
X130000000Y-118950000D03*
D13*
G04 #@! TD*
G04 #@! TO.N,Net-(D17-Pad2)*
G04 #@! TO.C,JP2*
G36*
X130749398Y-118950000D02*
X130749398Y-118974534D01*
X130744588Y-119023365D01*
X130735016Y-119071490D01*
X130720772Y-119118445D01*
X130701995Y-119163778D01*
X130678864Y-119207051D01*
X130651604Y-119247850D01*
X130620476Y-119285779D01*
X130585779Y-119320476D01*
X130547850Y-119351604D01*
X130507051Y-119378864D01*
X130463778Y-119401995D01*
X130418445Y-119420772D01*
X130371490Y-119435016D01*
X130323365Y-119444588D01*
X130274534Y-119449398D01*
X130250000Y-119449398D01*
X130250000Y-119450000D01*
X129750000Y-119450000D01*
X129750000Y-119449398D01*
X129725466Y-119449398D01*
X129676635Y-119444588D01*
X129628510Y-119435016D01*
X129581555Y-119420772D01*
X129536222Y-119401995D01*
X129492949Y-119378864D01*
X129452150Y-119351604D01*
X129414221Y-119320476D01*
X129379524Y-119285779D01*
X129348396Y-119247850D01*
X129321136Y-119207051D01*
X129298005Y-119163778D01*
X129279228Y-119118445D01*
X129264984Y-119071490D01*
X129255412Y-119023365D01*
X129250602Y-118974534D01*
X129250602Y-118950000D01*
X129250000Y-118950000D01*
X129250000Y-118450000D01*
X130750000Y-118450000D01*
X130750000Y-118950000D01*
X130749398Y-118950000D01*
X130749398Y-118950000D01*
G37*
D12*
G04 #@! TO.P,JP2,1*
G04 #@! TO.N,Net-(JP2-Pad1)*
X130000000Y-117650000D03*
D13*
G04 #@! TD*
G04 #@! TO.N,Net-(JP2-Pad1)*
G04 #@! TO.C,JP2*
G36*
X129250000Y-118150000D02*
X129250000Y-117650000D01*
X129250602Y-117650000D01*
X129250602Y-117625466D01*
X129255412Y-117576635D01*
X129264984Y-117528510D01*
X129279228Y-117481555D01*
X129298005Y-117436222D01*
X129321136Y-117392949D01*
X129348396Y-117352150D01*
X129379524Y-117314221D01*
X129414221Y-117279524D01*
X129452150Y-117248396D01*
X129492949Y-117221136D01*
X129536222Y-117198005D01*
X129581555Y-117179228D01*
X129628510Y-117164984D01*
X129676635Y-117155412D01*
X129725466Y-117150602D01*
X129750000Y-117150602D01*
X129750000Y-117150000D01*
X130250000Y-117150000D01*
X130250000Y-117150602D01*
X130274534Y-117150602D01*
X130323365Y-117155412D01*
X130371490Y-117164984D01*
X130418445Y-117179228D01*
X130463778Y-117198005D01*
X130507051Y-117221136D01*
X130547850Y-117248396D01*
X130585779Y-117279524D01*
X130620476Y-117314221D01*
X130651604Y-117352150D01*
X130678864Y-117392949D01*
X130701995Y-117436222D01*
X130720772Y-117481555D01*
X130735016Y-117528510D01*
X130744588Y-117576635D01*
X130749398Y-117625466D01*
X130749398Y-117650000D01*
X130750000Y-117650000D01*
X130750000Y-118150000D01*
X129250000Y-118150000D01*
X129250000Y-118150000D01*
G37*
D14*
G04 #@! TO.P,R1,1*
G04 #@! TO.N,Net-(JP1-Pad1)*
X128500000Y-113600000D03*
G04 #@! TO.P,R1,2*
G04 #@! TO.N,Net-(D20-Pad1)*
X128500000Y-112000000D03*
G04 #@! TD*
G04 #@! TO.P,R2,2*
G04 #@! TO.N,Net-(D20-Pad1)*
X130000000Y-112000000D03*
G04 #@! TO.P,R2,1*
G04 #@! TO.N,Net-(JP2-Pad1)*
X130000000Y-113600000D03*
G04 #@! TD*
G04 #@! TO.P,R3,1*
G04 #@! TO.N,Net-(JP3-Pad1)*
X131500000Y-113600000D03*
G04 #@! TO.P,R3,2*
G04 #@! TO.N,Net-(D20-Pad1)*
X131500000Y-112000000D03*
G04 #@! TD*
G04 #@! TO.P,D20,2*
G04 #@! TO.N,Net-(D1-Pad1)*
X130000000Y-106700000D03*
G04 #@! TO.P,D20,1*
G04 #@! TO.N,Net-(D20-Pad1)*
X130000000Y-108300000D03*
G04 #@! TD*
D15*
G04 #@! TO.N,+5V*
X124900000Y-145000000D03*
G04 #@! TO.N,GND*
X135100000Y-145000000D03*
X130000000Y-133250000D03*
G04 #@! TO.N,Net-(D1-Pad1)*
X122500000Y-102500000D03*
X137500000Y-102500000D03*
X130000000Y-92500000D03*
X130000000Y-60500000D03*
X130000000Y-88500000D03*
X125000000Y-120500000D03*
G04 #@! TO.N,Net-(D1-Pad2)*
X131000000Y-130500000D03*
X137500000Y-142000000D03*
G04 #@! TO.N,Net-(D5-Pad2)*
X131000000Y-126500000D03*
G04 #@! TO.N,Net-(D6-Pad2)*
X131000000Y-125500000D03*
G04 #@! TO.N,Net-(D7-Pad2)*
X131000000Y-124500000D03*
G04 #@! TO.N,Net-(D8-Pad2)*
X130000000Y-124500000D03*
G04 #@! TO.N,Net-(D9-Pad2)*
X129000000Y-124500000D03*
G04 #@! TO.N,Net-(D10-Pad2)*
X129000000Y-125500000D03*
G04 #@! TO.N,Net-(D11-Pad2)*
X129000000Y-126500000D03*
G04 #@! TO.N,SCL*
X130000000Y-145000000D03*
G04 #@! TO.N,SDA*
X127400000Y-145000000D03*
G04 #@! TO.N,Net-(D17-Pad2)*
X131000000Y-129500000D03*
G04 #@! TO.N,Net-(D18-Pad2)*
X131000000Y-128500000D03*
X122500000Y-142000000D03*
G04 #@! TO.N,Net-(D19-Pad2)*
X131000000Y-127500000D03*
G04 #@! TO.N,Net-(D12-Pad2)*
X129000000Y-127500000D03*
G04 #@! TO.N,Net-(D13-Pad2)*
X129000000Y-128500000D03*
G04 #@! TO.N,Net-(D14-Pad2)*
X129000000Y-129500000D03*
G04 #@! TO.N,Net-(D15-Pad2)*
X129000000Y-130500000D03*
G04 #@! TO.N,Net-(D16-Pad1)*
X122500000Y-138000000D03*
G04 #@! TD*
D16*
G04 #@! TO.N,+5V*
X125000000Y-150420000D02*
X124920000Y-150500000D01*
X126300000Y-142450000D02*
X126300000Y-142000000D01*
X124900000Y-145000000D02*
X124900000Y-143850000D01*
X124900000Y-143850000D02*
X126300000Y-142450000D01*
X129500000Y-139755000D02*
X134700000Y-139755000D01*
X129005000Y-139755000D02*
X129500000Y-139755000D01*
X126300000Y-142000000D02*
X126760000Y-142000000D01*
X126760000Y-142000000D02*
X129005000Y-139755000D01*
X124900000Y-150480000D02*
X124920000Y-150500000D01*
X124900000Y-145000000D02*
X124900000Y-150480000D01*
G04 #@! TO.N,GND*
X135100000Y-150480000D02*
X135080000Y-150500000D01*
X135100000Y-145000000D02*
X135100000Y-150480000D01*
X125300000Y-139755000D02*
X127495000Y-139755000D01*
X127495000Y-139755000D02*
X129250000Y-138000000D01*
X130000000Y-137250000D02*
X129250000Y-138000000D01*
X130000000Y-133250000D02*
X130000000Y-137250000D01*
D17*
X124000000Y-142000000D02*
X124700000Y-142000000D01*
X123500000Y-141500000D02*
X124000000Y-142000000D01*
X123500000Y-140305000D02*
X123500000Y-141500000D01*
X124050000Y-139755000D02*
X123500000Y-140305000D01*
X125300000Y-139755000D02*
X124050000Y-139755000D01*
G04 #@! TO.N,Net-(D1-Pad1)*
X122600000Y-102400000D02*
X122500000Y-102500000D01*
X137400000Y-102400000D02*
X137500000Y-102500000D01*
X130000000Y-88500000D02*
X130000000Y-92500000D01*
X130000000Y-90500000D02*
X130000000Y-60500000D01*
X137500000Y-102500000D02*
X122500000Y-102500000D01*
X130000000Y-92500000D02*
X130000000Y-106700000D01*
X123500000Y-136250000D02*
X123500000Y-122000000D01*
X123500000Y-122000000D02*
X125000000Y-120500000D01*
X126750000Y-136779998D02*
X126540003Y-136570001D01*
X126540003Y-136570001D02*
X123820001Y-136570001D01*
X126750000Y-138285000D02*
X126750000Y-136779998D01*
X126550000Y-138485000D02*
X126750000Y-138285000D01*
X125300000Y-138485000D02*
X126550000Y-138485000D01*
X123820001Y-136570001D02*
X123500000Y-136250000D01*
G04 #@! TO.N,Net-(D1-Pad2)*
X134700000Y-135945000D02*
X134000000Y-135945000D01*
X131000000Y-132945000D02*
X131000000Y-131065685D01*
X134000000Y-135945000D02*
X131000000Y-132945000D01*
X131000000Y-131065685D02*
X131000000Y-130500000D01*
X135445000Y-135945000D02*
X134700000Y-135945000D01*
X133000000Y-115574979D02*
X136925021Y-119500000D01*
X133000000Y-112863590D02*
X133000000Y-115574979D01*
X128750000Y-117036410D02*
X129225001Y-116561409D01*
X128750000Y-118547592D02*
X128750000Y-117036410D01*
X128347592Y-118950000D02*
X128750000Y-118547592D01*
X127839999Y-112725001D02*
X127774999Y-112660001D01*
X127500000Y-118950000D02*
X128347592Y-118950000D01*
X129160001Y-112725001D02*
X127839999Y-112725001D01*
X127774999Y-109139999D02*
X129339999Y-107574999D01*
X129225001Y-116561409D02*
X129225001Y-112660001D01*
X129225001Y-112660001D02*
X129160001Y-112725001D01*
X127774999Y-112660001D02*
X127774999Y-109139999D01*
X129339999Y-107574999D02*
X130550000Y-107574999D01*
X130550000Y-107574999D02*
X132225001Y-109250000D01*
X132225001Y-109250000D02*
X132225001Y-112088591D01*
X132225001Y-112088591D02*
X133000000Y-112863590D01*
X135400000Y-135945000D02*
X134700000Y-135945000D01*
X136925021Y-134250000D02*
X136925021Y-134419979D01*
X136925021Y-119500000D02*
X136925021Y-134250000D01*
X138750000Y-140750000D02*
X137500000Y-142000000D01*
X138750000Y-138250000D02*
X138750000Y-140750000D01*
X134700000Y-135945000D02*
X136445000Y-135945000D01*
X136445000Y-135945000D02*
X138750000Y-138250000D01*
X136925021Y-135464979D02*
X136445000Y-135945000D01*
X136925021Y-134419979D02*
X136925021Y-135464979D01*
G04 #@! TO.N,Net-(D5-Pad2)*
X132175013Y-127829172D02*
X132175013Y-127602009D01*
X132924988Y-128579148D02*
X132175013Y-127829172D01*
X132924988Y-129071401D02*
X132924988Y-128579148D01*
X133125038Y-129271451D02*
X132924988Y-129071401D01*
X133125038Y-129990038D02*
X133125038Y-129271451D01*
X134700000Y-130865000D02*
X134000000Y-130865000D01*
X134000000Y-130865000D02*
X133125038Y-129990038D01*
X132175013Y-127602009D02*
X131073004Y-126500000D01*
X131073004Y-126500000D02*
X131000000Y-126500000D01*
G04 #@! TO.N,Net-(D6-Pad2)*
X134084998Y-129595000D02*
X134700000Y-129595000D01*
X133374999Y-128885001D02*
X134084998Y-129595000D01*
X133374999Y-128392747D02*
X133374999Y-128885001D01*
X132000000Y-126790585D02*
X132625024Y-127415609D01*
X132625024Y-127415609D02*
X132625024Y-127642772D01*
X132625024Y-127642772D02*
X133374999Y-128392747D01*
X131000000Y-125500000D02*
X131565685Y-125500000D01*
X132000000Y-125934315D02*
X132000000Y-126790585D01*
X131565685Y-125500000D02*
X132000000Y-125934315D01*
G04 #@! TO.N,Net-(D7-Pad2)*
X132474978Y-126629153D02*
X133450000Y-127604175D01*
X134000000Y-128325000D02*
X134700000Y-128325000D01*
X133450000Y-127604175D02*
X133450000Y-127775000D01*
X133450000Y-127775000D02*
X134000000Y-128325000D01*
X131549977Y-124774999D02*
X132474978Y-125700000D01*
X131274999Y-124774999D02*
X131549977Y-124774999D01*
X131000000Y-124500000D02*
X131274999Y-124774999D01*
X132474978Y-125700000D02*
X132474978Y-126629153D01*
G04 #@! TO.N,Net-(D8-Pad2)*
X134000000Y-127055000D02*
X134700000Y-127055000D01*
X130000000Y-124500000D02*
X130000000Y-123934315D01*
X130000000Y-123934315D02*
X130250000Y-123684315D01*
X130250000Y-123684315D02*
X131509303Y-123684315D01*
X131509303Y-123684315D02*
X132924988Y-125100000D01*
X132924988Y-125100000D02*
X132924988Y-125979988D01*
X132924988Y-125979988D02*
X134000000Y-127055000D01*
G04 #@! TO.N,Net-(D9-Pad2)*
X134700000Y-125785000D02*
X134000000Y-125785000D01*
X129000000Y-124500000D02*
X129000000Y-123934315D01*
X129934315Y-123000000D02*
X131848592Y-123000000D01*
X134000000Y-125785000D02*
X133374999Y-125159999D01*
X133374999Y-125159999D02*
X133374999Y-124526407D01*
X133374999Y-124526407D02*
X131848592Y-123000000D01*
X129000000Y-123934315D02*
X129934315Y-123000000D01*
G04 #@! TO.N,Net-(D10-Pad2)*
X129700000Y-122300000D02*
X128176998Y-123823002D01*
X128176998Y-123823002D02*
X128176998Y-124750000D01*
X128926998Y-125500000D02*
X129000000Y-125500000D01*
X128176998Y-124750000D02*
X128926998Y-125500000D01*
X131800000Y-122300000D02*
X129700000Y-122300000D01*
X131800000Y-122300000D02*
X132000000Y-122300000D01*
X134700000Y-124515000D02*
X134215000Y-124515000D01*
X134215000Y-124515000D02*
X133570001Y-123870001D01*
X132000000Y-122300000D02*
X133570001Y-123870001D01*
X133570001Y-123870001D02*
X133400000Y-123700000D01*
G04 #@! TO.N,Net-(D11-Pad2)*
X132250000Y-121750000D02*
X133745000Y-123245000D01*
X129250000Y-121750000D02*
X132250000Y-121750000D01*
X127500000Y-123500000D02*
X129250000Y-121750000D01*
X133745000Y-123245000D02*
X134700000Y-123245000D01*
X128725001Y-126225001D02*
X128651999Y-126225001D01*
X128651999Y-126225001D02*
X128040587Y-125613589D01*
X128040587Y-125613589D02*
X128040587Y-125250000D01*
X129000000Y-126500000D02*
X128725001Y-126225001D01*
X128040587Y-125250000D02*
X127500000Y-124709413D01*
X127500000Y-124709413D02*
X127500000Y-123500000D01*
G04 #@! TO.N,Net-(JP1-Pad1)*
X128500000Y-116650000D02*
X127500000Y-117650000D01*
X128500000Y-113600000D02*
X128500000Y-116650000D01*
G04 #@! TO.N,Net-(JP2-Pad1)*
X130000000Y-113600000D02*
X130000000Y-117650000D01*
G04 #@! TO.N,Net-(JP3-Pad1)*
X131500000Y-116650000D02*
X132500000Y-117650000D01*
X131500000Y-113600000D02*
X131500000Y-116650000D01*
D16*
G04 #@! TO.N,SCL*
X130000000Y-145000000D02*
X130000000Y-150500000D01*
X136465000Y-137215000D02*
X134700000Y-137215000D01*
X130000000Y-142750000D02*
X131000000Y-141750000D01*
X130000000Y-145000000D02*
X130000000Y-142750000D01*
X131000000Y-141750000D02*
X136500000Y-141750000D01*
X136500000Y-141750000D02*
X137750000Y-140500000D01*
X137750000Y-140500000D02*
X137750000Y-138500000D01*
X137750000Y-138500000D02*
X136465000Y-137215000D01*
G04 #@! TO.N,SDA*
X127460000Y-150500000D02*
X127460000Y-145060000D01*
X127460000Y-145060000D02*
X127400000Y-145000000D01*
X127400000Y-143500000D02*
X127400000Y-145000000D01*
X134700000Y-138485000D02*
X136235000Y-138485000D01*
X136235000Y-138485000D02*
X136750000Y-139000000D01*
X136750000Y-139000000D02*
X136750000Y-140000000D01*
X136750000Y-140000000D02*
X136000000Y-140750000D01*
X136000000Y-140750000D02*
X130150000Y-140750000D01*
X130150000Y-140750000D02*
X127400000Y-143500000D01*
D17*
G04 #@! TO.N,Net-(D17-Pad2)*
X134000000Y-134675000D02*
X134700000Y-134675000D01*
X131000000Y-129500000D02*
X131073004Y-129500000D01*
X131775009Y-132450009D02*
X134000000Y-134675000D01*
X131775009Y-130202005D02*
X131775009Y-132450009D01*
X131073004Y-129500000D02*
X131775009Y-130202005D01*
X130847592Y-118950000D02*
X130000000Y-118950000D01*
X131297592Y-118500000D02*
X130847592Y-118950000D01*
X131297592Y-117184274D02*
X131297592Y-118500000D01*
X130774999Y-116661681D02*
X131297592Y-117184274D01*
X130774999Y-113000000D02*
X130774999Y-116661681D01*
X130900000Y-112874999D02*
X130774999Y-113000000D01*
X132249998Y-112874999D02*
X130900000Y-112874999D01*
X134700000Y-134675000D02*
X135950000Y-134675000D01*
X135950000Y-134675000D02*
X136475011Y-134149989D01*
X136475011Y-134149989D02*
X136475011Y-120000000D01*
X136475011Y-120000000D02*
X132374999Y-115899988D01*
X132374999Y-115899988D02*
X132374999Y-113000000D01*
X132374999Y-113000000D02*
X132249998Y-112874999D01*
G04 #@! TO.N,Net-(D18-Pad2)*
X134000000Y-133405000D02*
X132225019Y-131630019D01*
X134700000Y-133405000D02*
X134000000Y-133405000D01*
X131000000Y-128500000D02*
X131080765Y-128500000D01*
X131080765Y-128500000D02*
X132225019Y-129644254D01*
X132225019Y-131630019D02*
X132225019Y-129644254D01*
X135750000Y-133405000D02*
X134700000Y-133405000D01*
X136025001Y-133129999D02*
X135750000Y-133405000D01*
X136025001Y-120525001D02*
X136025001Y-133129999D01*
X134450000Y-118950000D02*
X136025001Y-120525001D01*
X132500000Y-118950000D02*
X134450000Y-118950000D01*
X122500000Y-140110001D02*
X123500000Y-139110001D01*
X122500000Y-142000000D02*
X122500000Y-140110001D01*
X127500000Y-131500000D02*
X129500000Y-131500000D01*
X127500000Y-136500000D02*
X127000000Y-136000000D01*
X126889999Y-139110001D02*
X127500000Y-138500000D01*
X123500000Y-139110001D02*
X126889999Y-139110001D01*
X127500000Y-138500000D02*
X127500000Y-136500000D01*
X127000000Y-136000000D02*
X127000000Y-132000000D01*
X127000000Y-132000000D02*
X127500000Y-131500000D01*
X129500000Y-131500000D02*
X130000000Y-131000000D01*
X130000000Y-131000000D02*
X130000000Y-128934315D01*
X130000000Y-128934315D02*
X130434315Y-128500000D01*
X130434315Y-128500000D02*
X131000000Y-128500000D01*
G04 #@! TO.N,Net-(D19-Pad2)*
X131073002Y-127500000D02*
X131000000Y-127500000D01*
X134700000Y-132135000D02*
X134000000Y-132135000D01*
X132675028Y-130810028D02*
X132675028Y-129457852D01*
X132675028Y-129457852D02*
X132474977Y-129257801D01*
X134000000Y-132135000D02*
X132675028Y-130810028D01*
X132474977Y-129257801D02*
X132474977Y-128901975D01*
X132474977Y-128901975D02*
X131073002Y-127500000D01*
G04 #@! TO.N,Net-(D12-Pad2)*
X126625001Y-123870001D02*
X126000000Y-123245000D01*
X126625001Y-124503591D02*
X126625001Y-123870001D01*
X126000000Y-123245000D02*
X125300000Y-123245000D01*
X128250000Y-127500000D02*
X127975029Y-127225029D01*
X129000000Y-127500000D02*
X128250000Y-127500000D01*
X127975029Y-127225029D02*
X127975029Y-126677124D01*
X127975029Y-126677124D02*
X127525021Y-126227116D01*
X127525021Y-126227116D02*
X127525020Y-125403610D01*
X127525020Y-125403610D02*
X126625001Y-124503591D01*
G04 #@! TO.N,Net-(D13-Pad2)*
X126000000Y-124515000D02*
X125300000Y-124515000D01*
X127750000Y-128500000D02*
X127525019Y-128275019D01*
X129000000Y-128500000D02*
X127750000Y-128500000D01*
X127525019Y-128275019D02*
X127525019Y-127098021D01*
X127525019Y-127098021D02*
X127075011Y-126648013D01*
X127075011Y-126648013D02*
X127075011Y-125590011D01*
X127075011Y-125590011D02*
X126000000Y-124515000D01*
G04 #@! TO.N,Net-(D14-Pad2)*
X126000000Y-125785000D02*
X125300000Y-125785000D01*
X127500000Y-129500000D02*
X127075011Y-129075011D01*
X129000000Y-129500000D02*
X127500000Y-129500000D01*
X127075011Y-129075011D02*
X127075010Y-127493600D01*
X127075010Y-127493600D02*
X126625001Y-127043591D01*
X126625001Y-127043591D02*
X126625001Y-126410001D01*
X126625001Y-126410001D02*
X126000000Y-125785000D01*
G04 #@! TO.N,Net-(D15-Pad2)*
X126000000Y-127055000D02*
X125300000Y-127055000D01*
X126625001Y-127680001D02*
X126000000Y-127055000D01*
X126625001Y-130125001D02*
X126625001Y-127680001D01*
X129000000Y-130500000D02*
X127000000Y-130500000D01*
X127000000Y-130500000D02*
X126625001Y-130125001D01*
G04 #@! TO.N,Net-(D16-Pad1)*
X122500000Y-138000000D02*
X123250000Y-138000000D01*
X124035000Y-137215000D02*
X125300000Y-137215000D01*
X123250000Y-138000000D02*
X124035000Y-137215000D01*
G04 #@! TO.N,Net-(D20-Pad1)*
X130000000Y-108300000D02*
X130000000Y-112000000D01*
X128500000Y-112000000D02*
X131500000Y-112000000D01*
D16*
G04 #@! TO.N,Net-(J1-Pad4)*
X132500000Y-150460000D02*
X132540000Y-150500000D01*
G04 #@! TD*
D18*
G04 #@! TO.N,GND*
G36*
X162843513Y-121290000D02*
X140569926Y-121290000D01*
X140500000Y-121276091D01*
X140430075Y-121290000D01*
X140430074Y-121290000D01*
X140222972Y-121331195D01*
X139988119Y-121488119D01*
X139831195Y-121722972D01*
X139776091Y-122000000D01*
X139790001Y-122069931D01*
X139790000Y-143773000D01*
X130885000Y-143773000D01*
X130885000Y-143116578D01*
X131366579Y-142635000D01*
X136412839Y-142635000D01*
X136500000Y-142652337D01*
X136587161Y-142635000D01*
X136587165Y-142635000D01*
X136657332Y-142621043D01*
X136913720Y-142877431D01*
X137294126Y-143035000D01*
X137705874Y-143035000D01*
X138086280Y-142877431D01*
X138377431Y-142586280D01*
X138535000Y-142205874D01*
X138535000Y-142039801D01*
X139234473Y-141340329D01*
X139297929Y-141297929D01*
X139465904Y-141046537D01*
X139510000Y-140824852D01*
X139510000Y-140824847D01*
X139524888Y-140750000D01*
X139510000Y-140675153D01*
X139510000Y-138324846D01*
X139524888Y-138249999D01*
X139510000Y-138175152D01*
X139510000Y-138175148D01*
X139465904Y-137953463D01*
X139297929Y-137702071D01*
X139234473Y-137659671D01*
X137518916Y-135944115D01*
X137640925Y-135761516D01*
X137685021Y-135539831D01*
X137685021Y-135539827D01*
X137699909Y-135464980D01*
X137685021Y-135390133D01*
X137685021Y-119574847D01*
X137699909Y-119500000D01*
X137685021Y-119425153D01*
X137685021Y-119425148D01*
X137640925Y-119203463D01*
X137472950Y-118952071D01*
X137409494Y-118909671D01*
X133760000Y-115260178D01*
X133760000Y-112938436D01*
X133774888Y-112863589D01*
X133760000Y-112788742D01*
X133760000Y-112788738D01*
X133715904Y-112567053D01*
X133547929Y-112315661D01*
X133484473Y-112273261D01*
X132985001Y-111773790D01*
X132985001Y-109324846D01*
X132999889Y-109249999D01*
X132985001Y-109175152D01*
X132985001Y-109175148D01*
X132940905Y-108953463D01*
X132772930Y-108702071D01*
X132709474Y-108659671D01*
X131140331Y-107090529D01*
X131097929Y-107027070D01*
X131047440Y-106993334D01*
X131047440Y-106300000D01*
X130998157Y-106052235D01*
X130857809Y-105842191D01*
X130760000Y-105776837D01*
X130760000Y-103260000D01*
X136796289Y-103260000D01*
X136913720Y-103377431D01*
X137294126Y-103535000D01*
X137705874Y-103535000D01*
X138086280Y-103377431D01*
X138377431Y-103086280D01*
X138535000Y-102705874D01*
X138535000Y-102294126D01*
X138377431Y-101913720D01*
X138086280Y-101622569D01*
X137705874Y-101465000D01*
X137294126Y-101465000D01*
X136913720Y-101622569D01*
X136796289Y-101740000D01*
X130760000Y-101740000D01*
X130760000Y-93203711D01*
X130877431Y-93086280D01*
X131035000Y-92705874D01*
X131035000Y-92294126D01*
X130877431Y-91913720D01*
X130760000Y-91796289D01*
X130760000Y-89203711D01*
X130877431Y-89086280D01*
X131035000Y-88705874D01*
X131035000Y-88294126D01*
X130877431Y-87913720D01*
X130760000Y-87796289D01*
X130760000Y-61203711D01*
X130877431Y-61086280D01*
X131035000Y-60705874D01*
X131035000Y-60294126D01*
X130877431Y-59913720D01*
X130586280Y-59622569D01*
X130205874Y-59465000D01*
X129794126Y-59465000D01*
X129413720Y-59622569D01*
X129122569Y-59913720D01*
X128965000Y-60294126D01*
X128965000Y-60705874D01*
X129122569Y-61086280D01*
X129240001Y-61203712D01*
X129240000Y-87796289D01*
X129122569Y-87913720D01*
X128965000Y-88294126D01*
X128965000Y-88705874D01*
X129122569Y-89086280D01*
X129240000Y-89203711D01*
X129240000Y-90574851D01*
X129240001Y-90574854D01*
X129240001Y-91796288D01*
X129122569Y-91913720D01*
X128965000Y-92294126D01*
X128965000Y-92705874D01*
X129122569Y-93086280D01*
X129240000Y-93203711D01*
X129240001Y-101740000D01*
X123203711Y-101740000D01*
X123086280Y-101622569D01*
X122705874Y-101465000D01*
X122294126Y-101465000D01*
X121913720Y-101622569D01*
X121622569Y-101913720D01*
X121465000Y-102294126D01*
X121465000Y-102705874D01*
X121622569Y-103086280D01*
X121913720Y-103377431D01*
X122294126Y-103535000D01*
X122705874Y-103535000D01*
X123086280Y-103377431D01*
X123203711Y-103260000D01*
X129240001Y-103260000D01*
X129240001Y-105776836D01*
X129142191Y-105842191D01*
X129001843Y-106052235D01*
X128952560Y-106300000D01*
X128952560Y-106919834D01*
X128792070Y-107027070D01*
X128749670Y-107090526D01*
X127290527Y-108549670D01*
X127227071Y-108592070D01*
X127184671Y-108655526D01*
X127184670Y-108655527D01*
X127059096Y-108843462D01*
X127000111Y-109139999D01*
X127015000Y-109214851D01*
X127014999Y-112585154D01*
X127000111Y-112660001D01*
X127014999Y-112734848D01*
X127014999Y-112734852D01*
X127059095Y-112956537D01*
X127227070Y-113207930D01*
X127266035Y-113233965D01*
X127292070Y-113272930D01*
X127452560Y-113380166D01*
X127452560Y-114000000D01*
X127501843Y-114247765D01*
X127642191Y-114457809D01*
X127740000Y-114523164D01*
X127740001Y-116335197D01*
X127572638Y-116502560D01*
X127250000Y-116502560D01*
X127237894Y-116504968D01*
X127200991Y-116504968D01*
X127074682Y-116517408D01*
X126978549Y-116536530D01*
X126857096Y-116573372D01*
X126766540Y-116610881D01*
X126654603Y-116670713D01*
X126573104Y-116725169D01*
X126474994Y-116805686D01*
X126405686Y-116874994D01*
X126325169Y-116973104D01*
X126270713Y-117054603D01*
X126210881Y-117166540D01*
X126173372Y-117257096D01*
X126136530Y-117378549D01*
X126117408Y-117474682D01*
X126104968Y-117600991D01*
X126104968Y-117637894D01*
X126102560Y-117650000D01*
X126102560Y-118150000D01*
X126132397Y-118300000D01*
X126102560Y-118450000D01*
X126102560Y-118950000D01*
X126104968Y-118962106D01*
X126104968Y-118999009D01*
X126117408Y-119125318D01*
X126136530Y-119221451D01*
X126173372Y-119342904D01*
X126210881Y-119433460D01*
X126270713Y-119545397D01*
X126325169Y-119626896D01*
X126405686Y-119725006D01*
X126474994Y-119794314D01*
X126573104Y-119874831D01*
X126654603Y-119929287D01*
X126766540Y-119989119D01*
X126857096Y-120026628D01*
X126978549Y-120063470D01*
X127074682Y-120082592D01*
X127200991Y-120095032D01*
X127237894Y-120095032D01*
X127250000Y-120097440D01*
X127750000Y-120097440D01*
X127762106Y-120095032D01*
X127799009Y-120095032D01*
X127925318Y-120082592D01*
X128021451Y-120063470D01*
X128142904Y-120026628D01*
X128233460Y-119989119D01*
X128345397Y-119929287D01*
X128426896Y-119874831D01*
X128525006Y-119794314D01*
X128594314Y-119725006D01*
X128642562Y-119666216D01*
X128644129Y-119665904D01*
X128787309Y-119570234D01*
X128825169Y-119626896D01*
X128905686Y-119725006D01*
X128974994Y-119794314D01*
X129073104Y-119874831D01*
X129154603Y-119929287D01*
X129266540Y-119989119D01*
X129357096Y-120026628D01*
X129478549Y-120063470D01*
X129574682Y-120082592D01*
X129700991Y-120095032D01*
X129737894Y-120095032D01*
X129750000Y-120097440D01*
X130250000Y-120097440D01*
X130262106Y-120095032D01*
X130299009Y-120095032D01*
X130425318Y-120082592D01*
X130521451Y-120063470D01*
X130642904Y-120026628D01*
X130733460Y-119989119D01*
X130845397Y-119929287D01*
X130926896Y-119874831D01*
X131025006Y-119794314D01*
X131094314Y-119725006D01*
X131142562Y-119666216D01*
X131144129Y-119665904D01*
X131287309Y-119570234D01*
X131325169Y-119626896D01*
X131405686Y-119725006D01*
X131474994Y-119794314D01*
X131573104Y-119874831D01*
X131654603Y-119929287D01*
X131766540Y-119989119D01*
X131857096Y-120026628D01*
X131978549Y-120063470D01*
X132074682Y-120082592D01*
X132200991Y-120095032D01*
X132237894Y-120095032D01*
X132250000Y-120097440D01*
X132750000Y-120097440D01*
X132762106Y-120095032D01*
X132799009Y-120095032D01*
X132925318Y-120082592D01*
X133021451Y-120063470D01*
X133142904Y-120026628D01*
X133233460Y-119989119D01*
X133345397Y-119929287D01*
X133426896Y-119874831D01*
X133525006Y-119794314D01*
X133594314Y-119725006D01*
X133606629Y-119710000D01*
X134135199Y-119710000D01*
X135265001Y-120839803D01*
X135265001Y-122297560D01*
X133872362Y-122297560D01*
X132840331Y-121265530D01*
X132797929Y-121202071D01*
X132546537Y-121034096D01*
X132324852Y-120990000D01*
X132324847Y-120990000D01*
X132250000Y-120975112D01*
X132175153Y-120990000D01*
X129324848Y-120990000D01*
X129250000Y-120975112D01*
X129175152Y-120990000D01*
X129175148Y-120990000D01*
X129001605Y-121024520D01*
X128953462Y-121034096D01*
X128875364Y-121086280D01*
X128702071Y-121202071D01*
X128659671Y-121265527D01*
X127015528Y-122909671D01*
X126952072Y-122952071D01*
X126947440Y-122959003D01*
X126947440Y-122945000D01*
X126898157Y-122697235D01*
X126757809Y-122487191D01*
X126547765Y-122346843D01*
X126300000Y-122297560D01*
X124300000Y-122297560D01*
X124271590Y-122303211D01*
X125039802Y-121535000D01*
X125205874Y-121535000D01*
X125586280Y-121377431D01*
X125877431Y-121086280D01*
X126035000Y-120705874D01*
X126035000Y-120294126D01*
X125877431Y-119913720D01*
X125586280Y-119622569D01*
X125205874Y-119465000D01*
X124794126Y-119465000D01*
X124413720Y-119622569D01*
X124122569Y-119913720D01*
X123965000Y-120294126D01*
X123965000Y-120460198D01*
X123015528Y-121409671D01*
X122952072Y-121452071D01*
X122909672Y-121515527D01*
X122909671Y-121515528D01*
X122784097Y-121703463D01*
X122725112Y-122000000D01*
X122740001Y-122074852D01*
X122740000Y-136175153D01*
X122725112Y-136250000D01*
X122740000Y-136324847D01*
X122740000Y-136324851D01*
X122784096Y-136546536D01*
X122952071Y-136797929D01*
X123015530Y-136840331D01*
X123175199Y-137000000D01*
X123062486Y-137112713D01*
X122705874Y-136965000D01*
X122294126Y-136965000D01*
X121913720Y-137122569D01*
X121622569Y-137413720D01*
X121465000Y-137794126D01*
X121465000Y-138205874D01*
X121622569Y-138586280D01*
X121913720Y-138877431D01*
X122294126Y-139035000D01*
X122500199Y-139035000D01*
X122015528Y-139519672D01*
X121952072Y-139562072D01*
X121909672Y-139625528D01*
X121909671Y-139625529D01*
X121784097Y-139813464D01*
X121725112Y-140110001D01*
X121740001Y-140184853D01*
X121740000Y-141296289D01*
X121622569Y-141413720D01*
X121465000Y-141794126D01*
X121465000Y-142205874D01*
X121622569Y-142586280D01*
X121913720Y-142877431D01*
X122294126Y-143035000D01*
X122705874Y-143035000D01*
X123086280Y-142877431D01*
X123377431Y-142586280D01*
X123535000Y-142205874D01*
X123535000Y-141794126D01*
X123402272Y-141473690D01*
X123665000Y-141473690D01*
X123665000Y-141714250D01*
X123823750Y-141873000D01*
X124573000Y-141873000D01*
X124573000Y-141123750D01*
X124414250Y-140965000D01*
X124173691Y-140965000D01*
X123940302Y-141061673D01*
X123761673Y-141240301D01*
X123665000Y-141473690D01*
X123402272Y-141473690D01*
X123377431Y-141413720D01*
X123260000Y-141296289D01*
X123260000Y-140424802D01*
X123802801Y-139882002D01*
X123823748Y-139882002D01*
X123665000Y-140040750D01*
X123665000Y-140181310D01*
X123761673Y-140414699D01*
X123940302Y-140593327D01*
X124173691Y-140690000D01*
X125014250Y-140690000D01*
X125173000Y-140531250D01*
X125173000Y-139882000D01*
X125153000Y-139882000D01*
X125153000Y-139870001D01*
X125447000Y-139870001D01*
X125447000Y-139882000D01*
X125427000Y-139882000D01*
X125427000Y-140531250D01*
X125585750Y-140690000D01*
X126426309Y-140690000D01*
X126659698Y-140593327D01*
X126838327Y-140414699D01*
X126935000Y-140181310D01*
X126935000Y-140040750D01*
X126776252Y-139882002D01*
X126875485Y-139882002D01*
X126889999Y-139884889D01*
X126904513Y-139882002D01*
X126935000Y-139882002D01*
X126935000Y-139875938D01*
X126964846Y-139870001D01*
X126964851Y-139870001D01*
X127186536Y-139825905D01*
X127437928Y-139657930D01*
X127480330Y-139594471D01*
X127984473Y-139090329D01*
X128047929Y-139047929D01*
X128135632Y-138916673D01*
X128215904Y-138796538D01*
X128244119Y-138654690D01*
X128260000Y-138574852D01*
X128260000Y-138574848D01*
X128274888Y-138500000D01*
X128260000Y-138425152D01*
X128260000Y-136574848D01*
X128274888Y-136500000D01*
X128260000Y-136425152D01*
X128260000Y-136425148D01*
X128215904Y-136203463D01*
X128215904Y-136203462D01*
X128090329Y-136015527D01*
X128047929Y-135952071D01*
X127984472Y-135909671D01*
X127760000Y-135685199D01*
X127760000Y-132314801D01*
X127814802Y-132260000D01*
X129425153Y-132260000D01*
X129500000Y-132274888D01*
X129574847Y-132260000D01*
X129574852Y-132260000D01*
X129796537Y-132215904D01*
X130047929Y-132047929D01*
X130090331Y-131984471D01*
X130240001Y-131834801D01*
X130240000Y-132870153D01*
X130225112Y-132945000D01*
X130240000Y-133019847D01*
X130240000Y-133019851D01*
X130284096Y-133241536D01*
X130452071Y-133492929D01*
X130515530Y-133535331D01*
X133052560Y-136072362D01*
X133052560Y-136245000D01*
X133101843Y-136492765D01*
X133160132Y-136580000D01*
X133101843Y-136667235D01*
X133052560Y-136915000D01*
X133052560Y-137515000D01*
X133101843Y-137762765D01*
X133160132Y-137850000D01*
X133101843Y-137937235D01*
X133052560Y-138185000D01*
X133052560Y-138785000D01*
X133069467Y-138870000D01*
X129092159Y-138870000D01*
X129004999Y-138852663D01*
X128917839Y-138870000D01*
X128917835Y-138870000D01*
X128659690Y-138921348D01*
X128659688Y-138921349D01*
X128659689Y-138921349D01*
X128440845Y-139067576D01*
X128440844Y-139067577D01*
X128366951Y-139116951D01*
X128317577Y-139190844D01*
X126555862Y-140952560D01*
X125900000Y-140952560D01*
X125652235Y-141001843D01*
X125500953Y-141102927D01*
X125459698Y-141061673D01*
X125226309Y-140965000D01*
X124985750Y-140965000D01*
X124827000Y-141123750D01*
X124827000Y-141873000D01*
X124847000Y-141873000D01*
X124847000Y-142127000D01*
X124827000Y-142127000D01*
X124827000Y-142147000D01*
X124573000Y-142147000D01*
X124573000Y-142127000D01*
X123823750Y-142127000D01*
X123665000Y-142285750D01*
X123665000Y-142526310D01*
X123761673Y-142759699D01*
X123940302Y-142938327D01*
X124173691Y-143035000D01*
X124414250Y-143035000D01*
X124572998Y-142876252D01*
X124572998Y-142925424D01*
X124335845Y-143162577D01*
X124261952Y-143211951D01*
X124212578Y-143285844D01*
X124212576Y-143285846D01*
X124066348Y-143504691D01*
X124012979Y-143773000D01*
X120210000Y-143773000D01*
X120210000Y-122069926D01*
X120223909Y-122000000D01*
X120168805Y-121722972D01*
X120011881Y-121488119D01*
X119777028Y-121331195D01*
X119569926Y-121290000D01*
X119500000Y-121276091D01*
X119430075Y-121290000D01*
X97156486Y-121290000D01*
X130000000Y-56568957D01*
X162843513Y-121290000D01*
X162843513Y-121290000D01*
G37*
X162843513Y-121290000D02*
X140569926Y-121290000D01*
X140500000Y-121276091D01*
X140430075Y-121290000D01*
X140430074Y-121290000D01*
X140222972Y-121331195D01*
X139988119Y-121488119D01*
X139831195Y-121722972D01*
X139776091Y-122000000D01*
X139790001Y-122069931D01*
X139790000Y-143773000D01*
X130885000Y-143773000D01*
X130885000Y-143116578D01*
X131366579Y-142635000D01*
X136412839Y-142635000D01*
X136500000Y-142652337D01*
X136587161Y-142635000D01*
X136587165Y-142635000D01*
X136657332Y-142621043D01*
X136913720Y-142877431D01*
X137294126Y-143035000D01*
X137705874Y-143035000D01*
X138086280Y-142877431D01*
X138377431Y-142586280D01*
X138535000Y-142205874D01*
X138535000Y-142039801D01*
X139234473Y-141340329D01*
X139297929Y-141297929D01*
X139465904Y-141046537D01*
X139510000Y-140824852D01*
X139510000Y-140824847D01*
X139524888Y-140750000D01*
X139510000Y-140675153D01*
X139510000Y-138324846D01*
X139524888Y-138249999D01*
X139510000Y-138175152D01*
X139510000Y-138175148D01*
X139465904Y-137953463D01*
X139297929Y-137702071D01*
X139234473Y-137659671D01*
X137518916Y-135944115D01*
X137640925Y-135761516D01*
X137685021Y-135539831D01*
X137685021Y-135539827D01*
X137699909Y-135464980D01*
X137685021Y-135390133D01*
X137685021Y-119574847D01*
X137699909Y-119500000D01*
X137685021Y-119425153D01*
X137685021Y-119425148D01*
X137640925Y-119203463D01*
X137472950Y-118952071D01*
X137409494Y-118909671D01*
X133760000Y-115260178D01*
X133760000Y-112938436D01*
X133774888Y-112863589D01*
X133760000Y-112788742D01*
X133760000Y-112788738D01*
X133715904Y-112567053D01*
X133547929Y-112315661D01*
X133484473Y-112273261D01*
X132985001Y-111773790D01*
X132985001Y-109324846D01*
X132999889Y-109249999D01*
X132985001Y-109175152D01*
X132985001Y-109175148D01*
X132940905Y-108953463D01*
X132772930Y-108702071D01*
X132709474Y-108659671D01*
X131140331Y-107090529D01*
X131097929Y-107027070D01*
X131047440Y-106993334D01*
X131047440Y-106300000D01*
X130998157Y-106052235D01*
X130857809Y-105842191D01*
X130760000Y-105776837D01*
X130760000Y-103260000D01*
X136796289Y-103260000D01*
X136913720Y-103377431D01*
X137294126Y-103535000D01*
X137705874Y-103535000D01*
X138086280Y-103377431D01*
X138377431Y-103086280D01*
X138535000Y-102705874D01*
X138535000Y-102294126D01*
X138377431Y-101913720D01*
X138086280Y-101622569D01*
X137705874Y-101465000D01*
X137294126Y-101465000D01*
X136913720Y-101622569D01*
X136796289Y-101740000D01*
X130760000Y-101740000D01*
X130760000Y-93203711D01*
X130877431Y-93086280D01*
X131035000Y-92705874D01*
X131035000Y-92294126D01*
X130877431Y-91913720D01*
X130760000Y-91796289D01*
X130760000Y-89203711D01*
X130877431Y-89086280D01*
X131035000Y-88705874D01*
X131035000Y-88294126D01*
X130877431Y-87913720D01*
X130760000Y-87796289D01*
X130760000Y-61203711D01*
X130877431Y-61086280D01*
X131035000Y-60705874D01*
X131035000Y-60294126D01*
X130877431Y-59913720D01*
X130586280Y-59622569D01*
X130205874Y-59465000D01*
X129794126Y-59465000D01*
X129413720Y-59622569D01*
X129122569Y-59913720D01*
X128965000Y-60294126D01*
X128965000Y-60705874D01*
X129122569Y-61086280D01*
X129240001Y-61203712D01*
X129240000Y-87796289D01*
X129122569Y-87913720D01*
X128965000Y-88294126D01*
X128965000Y-88705874D01*
X129122569Y-89086280D01*
X129240000Y-89203711D01*
X129240000Y-90574851D01*
X129240001Y-90574854D01*
X129240001Y-91796288D01*
X129122569Y-91913720D01*
X128965000Y-92294126D01*
X128965000Y-92705874D01*
X129122569Y-93086280D01*
X129240000Y-93203711D01*
X129240001Y-101740000D01*
X123203711Y-101740000D01*
X123086280Y-101622569D01*
X122705874Y-101465000D01*
X122294126Y-101465000D01*
X121913720Y-101622569D01*
X121622569Y-101913720D01*
X121465000Y-102294126D01*
X121465000Y-102705874D01*
X121622569Y-103086280D01*
X121913720Y-103377431D01*
X122294126Y-103535000D01*
X122705874Y-103535000D01*
X123086280Y-103377431D01*
X123203711Y-103260000D01*
X129240001Y-103260000D01*
X129240001Y-105776836D01*
X129142191Y-105842191D01*
X129001843Y-106052235D01*
X128952560Y-106300000D01*
X128952560Y-106919834D01*
X128792070Y-107027070D01*
X128749670Y-107090526D01*
X127290527Y-108549670D01*
X127227071Y-108592070D01*
X127184671Y-108655526D01*
X127184670Y-108655527D01*
X127059096Y-108843462D01*
X127000111Y-109139999D01*
X127015000Y-109214851D01*
X127014999Y-112585154D01*
X127000111Y-112660001D01*
X127014999Y-112734848D01*
X127014999Y-112734852D01*
X127059095Y-112956537D01*
X127227070Y-113207930D01*
X127266035Y-113233965D01*
X127292070Y-113272930D01*
X127452560Y-113380166D01*
X127452560Y-114000000D01*
X127501843Y-114247765D01*
X127642191Y-114457809D01*
X127740000Y-114523164D01*
X127740001Y-116335197D01*
X127572638Y-116502560D01*
X127250000Y-116502560D01*
X127237894Y-116504968D01*
X127200991Y-116504968D01*
X127074682Y-116517408D01*
X126978549Y-116536530D01*
X126857096Y-116573372D01*
X126766540Y-116610881D01*
X126654603Y-116670713D01*
X126573104Y-116725169D01*
X126474994Y-116805686D01*
X126405686Y-116874994D01*
X126325169Y-116973104D01*
X126270713Y-117054603D01*
X126210881Y-117166540D01*
X126173372Y-117257096D01*
X126136530Y-117378549D01*
X126117408Y-117474682D01*
X126104968Y-117600991D01*
X126104968Y-117637894D01*
X126102560Y-117650000D01*
X126102560Y-118150000D01*
X126132397Y-118300000D01*
X126102560Y-118450000D01*
X126102560Y-118950000D01*
X126104968Y-118962106D01*
X126104968Y-118999009D01*
X126117408Y-119125318D01*
X126136530Y-119221451D01*
X126173372Y-119342904D01*
X126210881Y-119433460D01*
X126270713Y-119545397D01*
X126325169Y-119626896D01*
X126405686Y-119725006D01*
X126474994Y-119794314D01*
X126573104Y-119874831D01*
X126654603Y-119929287D01*
X126766540Y-119989119D01*
X126857096Y-120026628D01*
X126978549Y-120063470D01*
X127074682Y-120082592D01*
X127200991Y-120095032D01*
X127237894Y-120095032D01*
X127250000Y-120097440D01*
X127750000Y-120097440D01*
X127762106Y-120095032D01*
X127799009Y-120095032D01*
X127925318Y-120082592D01*
X128021451Y-120063470D01*
X128142904Y-120026628D01*
X128233460Y-119989119D01*
X128345397Y-119929287D01*
X128426896Y-119874831D01*
X128525006Y-119794314D01*
X128594314Y-119725006D01*
X128642562Y-119666216D01*
X128644129Y-119665904D01*
X128787309Y-119570234D01*
X128825169Y-119626896D01*
X128905686Y-119725006D01*
X128974994Y-119794314D01*
X129073104Y-119874831D01*
X129154603Y-119929287D01*
X129266540Y-119989119D01*
X129357096Y-120026628D01*
X129478549Y-120063470D01*
X129574682Y-120082592D01*
X129700991Y-120095032D01*
X129737894Y-120095032D01*
X129750000Y-120097440D01*
X130250000Y-120097440D01*
X130262106Y-120095032D01*
X130299009Y-120095032D01*
X130425318Y-120082592D01*
X130521451Y-120063470D01*
X130642904Y-120026628D01*
X130733460Y-119989119D01*
X130845397Y-119929287D01*
X130926896Y-119874831D01*
X131025006Y-119794314D01*
X131094314Y-119725006D01*
X131142562Y-119666216D01*
X131144129Y-119665904D01*
X131287309Y-119570234D01*
X131325169Y-119626896D01*
X131405686Y-119725006D01*
X131474994Y-119794314D01*
X131573104Y-119874831D01*
X131654603Y-119929287D01*
X131766540Y-119989119D01*
X131857096Y-120026628D01*
X131978549Y-120063470D01*
X132074682Y-120082592D01*
X132200991Y-120095032D01*
X132237894Y-120095032D01*
X132250000Y-120097440D01*
X132750000Y-120097440D01*
X132762106Y-120095032D01*
X132799009Y-120095032D01*
X132925318Y-120082592D01*
X133021451Y-120063470D01*
X133142904Y-120026628D01*
X133233460Y-119989119D01*
X133345397Y-119929287D01*
X133426896Y-119874831D01*
X133525006Y-119794314D01*
X133594314Y-119725006D01*
X133606629Y-119710000D01*
X134135199Y-119710000D01*
X135265001Y-120839803D01*
X135265001Y-122297560D01*
X133872362Y-122297560D01*
X132840331Y-121265530D01*
X132797929Y-121202071D01*
X132546537Y-121034096D01*
X132324852Y-120990000D01*
X132324847Y-120990000D01*
X132250000Y-120975112D01*
X132175153Y-120990000D01*
X129324848Y-120990000D01*
X129250000Y-120975112D01*
X129175152Y-120990000D01*
X129175148Y-120990000D01*
X129001605Y-121024520D01*
X128953462Y-121034096D01*
X128875364Y-121086280D01*
X128702071Y-121202071D01*
X128659671Y-121265527D01*
X127015528Y-122909671D01*
X126952072Y-122952071D01*
X126947440Y-122959003D01*
X126947440Y-122945000D01*
X126898157Y-122697235D01*
X126757809Y-122487191D01*
X126547765Y-122346843D01*
X126300000Y-122297560D01*
X124300000Y-122297560D01*
X124271590Y-122303211D01*
X125039802Y-121535000D01*
X125205874Y-121535000D01*
X125586280Y-121377431D01*
X125877431Y-121086280D01*
X126035000Y-120705874D01*
X126035000Y-120294126D01*
X125877431Y-119913720D01*
X125586280Y-119622569D01*
X125205874Y-119465000D01*
X124794126Y-119465000D01*
X124413720Y-119622569D01*
X124122569Y-119913720D01*
X123965000Y-120294126D01*
X123965000Y-120460198D01*
X123015528Y-121409671D01*
X122952072Y-121452071D01*
X122909672Y-121515527D01*
X122909671Y-121515528D01*
X122784097Y-121703463D01*
X122725112Y-122000000D01*
X122740001Y-122074852D01*
X122740000Y-136175153D01*
X122725112Y-136250000D01*
X122740000Y-136324847D01*
X122740000Y-136324851D01*
X122784096Y-136546536D01*
X122952071Y-136797929D01*
X123015530Y-136840331D01*
X123175199Y-137000000D01*
X123062486Y-137112713D01*
X122705874Y-136965000D01*
X122294126Y-136965000D01*
X121913720Y-137122569D01*
X121622569Y-137413720D01*
X121465000Y-137794126D01*
X121465000Y-138205874D01*
X121622569Y-138586280D01*
X121913720Y-138877431D01*
X122294126Y-139035000D01*
X122500199Y-139035000D01*
X122015528Y-139519672D01*
X121952072Y-139562072D01*
X121909672Y-139625528D01*
X121909671Y-139625529D01*
X121784097Y-139813464D01*
X121725112Y-140110001D01*
X121740001Y-140184853D01*
X121740000Y-141296289D01*
X121622569Y-141413720D01*
X121465000Y-141794126D01*
X121465000Y-142205874D01*
X121622569Y-142586280D01*
X121913720Y-142877431D01*
X122294126Y-143035000D01*
X122705874Y-143035000D01*
X123086280Y-142877431D01*
X123377431Y-142586280D01*
X123535000Y-142205874D01*
X123535000Y-141794126D01*
X123402272Y-141473690D01*
X123665000Y-141473690D01*
X123665000Y-141714250D01*
X123823750Y-141873000D01*
X124573000Y-141873000D01*
X124573000Y-141123750D01*
X124414250Y-140965000D01*
X124173691Y-140965000D01*
X123940302Y-141061673D01*
X123761673Y-141240301D01*
X123665000Y-141473690D01*
X123402272Y-141473690D01*
X123377431Y-141413720D01*
X123260000Y-141296289D01*
X123260000Y-140424802D01*
X123802801Y-139882002D01*
X123823748Y-139882002D01*
X123665000Y-140040750D01*
X123665000Y-140181310D01*
X123761673Y-140414699D01*
X123940302Y-140593327D01*
X124173691Y-140690000D01*
X125014250Y-140690000D01*
X125173000Y-140531250D01*
X125173000Y-139882000D01*
X125153000Y-139882000D01*
X125153000Y-139870001D01*
X125447000Y-139870001D01*
X125447000Y-139882000D01*
X125427000Y-139882000D01*
X125427000Y-140531250D01*
X125585750Y-140690000D01*
X126426309Y-140690000D01*
X126659698Y-140593327D01*
X126838327Y-140414699D01*
X126935000Y-140181310D01*
X126935000Y-140040750D01*
X126776252Y-139882002D01*
X126875485Y-139882002D01*
X126889999Y-139884889D01*
X126904513Y-139882002D01*
X126935000Y-139882002D01*
X126935000Y-139875938D01*
X126964846Y-139870001D01*
X126964851Y-139870001D01*
X127186536Y-139825905D01*
X127437928Y-139657930D01*
X127480330Y-139594471D01*
X127984473Y-139090329D01*
X128047929Y-139047929D01*
X128135632Y-138916673D01*
X128215904Y-138796538D01*
X128244119Y-138654690D01*
X128260000Y-138574852D01*
X128260000Y-138574848D01*
X128274888Y-138500000D01*
X128260000Y-138425152D01*
X128260000Y-136574848D01*
X128274888Y-136500000D01*
X128260000Y-136425152D01*
X128260000Y-136425148D01*
X128215904Y-136203463D01*
X128215904Y-136203462D01*
X128090329Y-136015527D01*
X128047929Y-135952071D01*
X127984472Y-135909671D01*
X127760000Y-135685199D01*
X127760000Y-132314801D01*
X127814802Y-132260000D01*
X129425153Y-132260000D01*
X129500000Y-132274888D01*
X129574847Y-132260000D01*
X129574852Y-132260000D01*
X129796537Y-132215904D01*
X130047929Y-132047929D01*
X130090331Y-131984471D01*
X130240001Y-131834801D01*
X130240000Y-132870153D01*
X130225112Y-132945000D01*
X130240000Y-133019847D01*
X130240000Y-133019851D01*
X130284096Y-133241536D01*
X130452071Y-133492929D01*
X130515530Y-133535331D01*
X133052560Y-136072362D01*
X133052560Y-136245000D01*
X133101843Y-136492765D01*
X133160132Y-136580000D01*
X133101843Y-136667235D01*
X133052560Y-136915000D01*
X133052560Y-137515000D01*
X133101843Y-137762765D01*
X133160132Y-137850000D01*
X133101843Y-137937235D01*
X133052560Y-138185000D01*
X133052560Y-138785000D01*
X133069467Y-138870000D01*
X129092159Y-138870000D01*
X129004999Y-138852663D01*
X128917839Y-138870000D01*
X128917835Y-138870000D01*
X128659690Y-138921348D01*
X128659688Y-138921349D01*
X128659689Y-138921349D01*
X128440845Y-139067576D01*
X128440844Y-139067577D01*
X128366951Y-139116951D01*
X128317577Y-139190844D01*
X126555862Y-140952560D01*
X125900000Y-140952560D01*
X125652235Y-141001843D01*
X125500953Y-141102927D01*
X125459698Y-141061673D01*
X125226309Y-140965000D01*
X124985750Y-140965000D01*
X124827000Y-141123750D01*
X124827000Y-141873000D01*
X124847000Y-141873000D01*
X124847000Y-142127000D01*
X124827000Y-142127000D01*
X124827000Y-142147000D01*
X124573000Y-142147000D01*
X124573000Y-142127000D01*
X123823750Y-142127000D01*
X123665000Y-142285750D01*
X123665000Y-142526310D01*
X123761673Y-142759699D01*
X123940302Y-142938327D01*
X124173691Y-143035000D01*
X124414250Y-143035000D01*
X124572998Y-142876252D01*
X124572998Y-142925424D01*
X124335845Y-143162577D01*
X124261952Y-143211951D01*
X124212578Y-143285844D01*
X124212576Y-143285846D01*
X124066348Y-143504691D01*
X124012979Y-143773000D01*
X120210000Y-143773000D01*
X120210000Y-122069926D01*
X120223909Y-122000000D01*
X120168805Y-121722972D01*
X120011881Y-121488119D01*
X119777028Y-121331195D01*
X119569926Y-121290000D01*
X119500000Y-121276091D01*
X119430075Y-121290000D01*
X97156486Y-121290000D01*
X130000000Y-56568957D01*
X162843513Y-121290000D01*
G04 #@! TD*
M02*
