G04 #@! TF.GenerationSoftware,KiCad,Pcbnew,(5.0.2)-1*
G04 #@! TF.CreationDate,2020-04-04T16:43:39+09:00*
G04 #@! TF.ProjectId,Tree,54726565-2e6b-4696-9361-645f70636258,rev?*
G04 #@! TF.SameCoordinates,Original*
G04 #@! TF.FileFunction,Soldermask,Top*
G04 #@! TF.FilePolarity,Negative*
%FSLAX46Y46*%
G04 Gerber Fmt 4.6, Leading zero omitted, Abs format (unit mm)*
G04 Created by KiCad (PCBNEW (5.0.2)-1) date 2020/04/04 16:43:39*
%MOMM*%
%LPD*%
G01*
G04 APERTURE LIST*
%ADD10C,0.100000*%
G04 APERTURE END LIST*
D10*
G36*
X137500000Y-155000000D02*
X122500000Y-155000000D01*
X122500000Y-144500000D01*
X137500000Y-144500000D01*
X137500000Y-155000000D01*
X137500000Y-155000000D01*
G37*
G36*
X137951000Y-141251000D02*
X137049000Y-141251000D01*
X137049000Y-140349000D01*
X137951000Y-140349000D01*
X137951000Y-141251000D01*
X137951000Y-141251000D01*
G37*
G36*
X122951000Y-141251000D02*
X122049000Y-141251000D01*
X122049000Y-140349000D01*
X122951000Y-140349000D01*
X122951000Y-141251000D01*
X122951000Y-141251000D01*
G37*
G36*
X122951000Y-139651000D02*
X122049000Y-139651000D01*
X122049000Y-138749000D01*
X122951000Y-138749000D01*
X122951000Y-139651000D01*
X122951000Y-139651000D01*
G37*
G36*
X137951000Y-139651000D02*
X137049000Y-139651000D01*
X137049000Y-138749000D01*
X137951000Y-138749000D01*
X137951000Y-139651000D01*
X137951000Y-139651000D01*
G37*
G36*
X122951000Y-129751000D02*
X122049000Y-129751000D01*
X122049000Y-128849000D01*
X122951000Y-128849000D01*
X122951000Y-129751000D01*
X122951000Y-129751000D01*
G37*
G36*
X137951000Y-129751000D02*
X137049000Y-129751000D01*
X137049000Y-128849000D01*
X137951000Y-128849000D01*
X137951000Y-129751000D01*
X137951000Y-129751000D01*
G37*
G36*
X122951000Y-128151000D02*
X122049000Y-128151000D01*
X122049000Y-127249000D01*
X122951000Y-127249000D01*
X122951000Y-128151000D01*
X122951000Y-128151000D01*
G37*
G36*
X137951000Y-128151000D02*
X137049000Y-128151000D01*
X137049000Y-127249000D01*
X137951000Y-127249000D01*
X137951000Y-128151000D01*
X137951000Y-128151000D01*
G37*
G36*
X158451000Y-119751000D02*
X157549000Y-119751000D01*
X157549000Y-118849000D01*
X158451000Y-118849000D01*
X158451000Y-119751000D01*
X158451000Y-119751000D01*
G37*
G36*
X102451000Y-119751000D02*
X101549000Y-119751000D01*
X101549000Y-118849000D01*
X102451000Y-118849000D01*
X102451000Y-119751000D01*
X102451000Y-119751000D01*
G37*
G36*
X115451000Y-119751000D02*
X114549000Y-119751000D01*
X114549000Y-118849000D01*
X115451000Y-118849000D01*
X115451000Y-119751000D01*
X115451000Y-119751000D01*
G37*
G36*
X130451000Y-119751000D02*
X129549000Y-119751000D01*
X129549000Y-118849000D01*
X130451000Y-118849000D01*
X130451000Y-119751000D01*
X130451000Y-119751000D01*
G37*
G36*
X145451000Y-119750999D02*
X144549000Y-119750999D01*
X144549000Y-118848999D01*
X145451000Y-118848999D01*
X145451000Y-119750999D01*
X145451000Y-119750999D01*
G37*
G36*
X145451000Y-118151001D02*
X144549000Y-118151001D01*
X144549000Y-117249001D01*
X145451000Y-117249001D01*
X145451000Y-118151001D01*
X145451000Y-118151001D01*
G37*
G36*
X115451000Y-118151000D02*
X114549000Y-118151000D01*
X114549000Y-117249000D01*
X115451000Y-117249000D01*
X115451000Y-118151000D01*
X115451000Y-118151000D01*
G37*
G36*
X102451000Y-118151000D02*
X101549000Y-118151000D01*
X101549000Y-117249000D01*
X102451000Y-117249000D01*
X102451000Y-118151000D01*
X102451000Y-118151000D01*
G37*
G36*
X158451000Y-118151000D02*
X157549000Y-118151000D01*
X157549000Y-117249000D01*
X158451000Y-117249000D01*
X158451000Y-118151000D01*
X158451000Y-118151000D01*
G37*
G36*
X130451000Y-118151000D02*
X129549000Y-118151000D01*
X129549000Y-117249000D01*
X130451000Y-117249000D01*
X130451000Y-118151000D01*
X130451000Y-118151000D01*
G37*
G36*
X137951000Y-105751000D02*
X137049000Y-105751000D01*
X137049000Y-104849000D01*
X137951000Y-104849000D01*
X137951000Y-105751000D01*
X137951000Y-105751000D01*
G37*
G36*
X109451000Y-105751000D02*
X108549000Y-105751000D01*
X108549000Y-104849000D01*
X109451000Y-104849000D01*
X109451000Y-105751000D01*
X109451000Y-105751000D01*
G37*
G36*
X122951000Y-105751000D02*
X122049000Y-105751000D01*
X122049000Y-104849000D01*
X122951000Y-104849000D01*
X122951000Y-105751000D01*
X122951000Y-105751000D01*
G37*
G36*
X151451000Y-105750999D02*
X150549000Y-105750999D01*
X150549000Y-104848999D01*
X151451000Y-104848999D01*
X151451000Y-105750999D01*
X151451000Y-105750999D01*
G37*
G36*
X151451000Y-104151001D02*
X150549000Y-104151001D01*
X150549000Y-103249001D01*
X151451000Y-103249001D01*
X151451000Y-104151001D01*
X151451000Y-104151001D01*
G37*
G36*
X137951000Y-104151000D02*
X137049000Y-104151000D01*
X137049000Y-103249000D01*
X137951000Y-103249000D01*
X137951000Y-104151000D01*
X137951000Y-104151000D01*
G37*
G36*
X109451000Y-104151000D02*
X108549000Y-104151000D01*
X108549000Y-103249000D01*
X109451000Y-103249000D01*
X109451000Y-104151000D01*
X109451000Y-104151000D01*
G37*
G36*
X122951000Y-104151000D02*
X122049000Y-104151000D01*
X122049000Y-103249000D01*
X122951000Y-103249000D01*
X122951000Y-104151000D01*
X122951000Y-104151000D01*
G37*
G36*
X144451000Y-91751000D02*
X143549000Y-91751000D01*
X143549000Y-90849000D01*
X144451000Y-90849000D01*
X144451000Y-91751000D01*
X144451000Y-91751000D01*
G37*
G36*
X116451000Y-91751000D02*
X115549000Y-91751000D01*
X115549000Y-90849000D01*
X116451000Y-90849000D01*
X116451000Y-91751000D01*
X116451000Y-91751000D01*
G37*
G36*
X130451000Y-91750999D02*
X129549000Y-91750999D01*
X129549000Y-90848999D01*
X130451000Y-90848999D01*
X130451000Y-91750999D01*
X130451000Y-91750999D01*
G37*
G36*
X130451000Y-90151001D02*
X129549000Y-90151001D01*
X129549000Y-89249001D01*
X130451000Y-89249001D01*
X130451000Y-90151001D01*
X130451000Y-90151001D01*
G37*
G36*
X144451000Y-90151000D02*
X143549000Y-90151000D01*
X143549000Y-89249000D01*
X144451000Y-89249000D01*
X144451000Y-90151000D01*
X144451000Y-90151000D01*
G37*
G36*
X116451000Y-90151000D02*
X115549000Y-90151000D01*
X115549000Y-89249000D01*
X116451000Y-89249000D01*
X116451000Y-90151000D01*
X116451000Y-90151000D01*
G37*
G36*
X137451000Y-77751000D02*
X136549000Y-77751000D01*
X136549000Y-76849000D01*
X137451000Y-76849000D01*
X137451000Y-77751000D01*
X137451000Y-77751000D01*
G37*
G36*
X123451000Y-77751000D02*
X122549000Y-77751000D01*
X122549000Y-76849000D01*
X123451000Y-76849000D01*
X123451000Y-77751000D01*
X123451000Y-77751000D01*
G37*
G36*
X137451000Y-76151000D02*
X136549000Y-76151000D01*
X136549000Y-75249000D01*
X137451000Y-75249000D01*
X137451000Y-76151000D01*
X137451000Y-76151000D01*
G37*
G36*
X123451000Y-76151000D02*
X122549000Y-76151000D01*
X122549000Y-75249000D01*
X123451000Y-75249000D01*
X123451000Y-76151000D01*
X123451000Y-76151000D01*
G37*
G36*
X130451000Y-63751000D02*
X129549000Y-63751000D01*
X129549000Y-62849000D01*
X130451000Y-62849000D01*
X130451000Y-63751000D01*
X130451000Y-63751000D01*
G37*
G36*
X130451000Y-62151000D02*
X129549000Y-62151000D01*
X129549000Y-61249000D01*
X130451000Y-61249000D01*
X130451000Y-62151000D01*
X130451000Y-62151000D01*
G37*
M02*
